<?xml version="1.0" encoding="utf-8"?>
<!-- Generator: Adobe Illustrator 23.0.0, SVG Export Plug-In . SVG Version: 6.00 Build 0)  -->
<svg version="1.1" xmlns="http://www.w3.org/2000/svg" xmlns:xlink="http://www.w3.org/1999/xlink" x="0px" y="0px"
	 viewBox="0 0 512 512" enable-background="new 0 0 512 512" xml:space="preserve">
<g id="Layer_2" display="none">
	<rect display="inline" fill="#212121" width="512" height="512"/>
</g>
<g id="Layer_1">
	<g>
		<g>
			<g>
				<g>
					<path fill="#3D3D3D" d="M255.9,372.6c-12.6-0.7-25.2-3.3-37.1-7.7c-11.9-4.5-23.1-10.7-33.2-18.5
						c-20.2-15.6-35.6-37.2-43.9-61.3c-5.2-17.1-6.8-35.2-5-52.7c1.8-17.6,7.1-34.7,15.5-50.1l5.4-9.9l8.5,6.4
						c5.9,4.4,12.6,7.8,19.7,10c0,0,0.3,0.1,0.9,0.2c0.6,0.1,1.4,0.3,2.4,0.5c2.1,0.4,5.2,0.9,9,1.1c3.8,0.2,8.3,0.1,13.1-0.6
						c4.8-0.7,9.9-2,14.9-3.9l-5.4,12.3c-9.3-22.1-19.6-46.2-23.4-54.8l-6.3-14l16.1-0.5c1.3,0,2.2-0.1,2.8-0.1
						c10.9-0.6,89.9,1.3,100.8,0.6c2.8-0.2,8-0.2,14.4-0.1l3.2,0l2.2,1.5c4.1,2.8,8.8,6.1,13.2,10c4.4,3.9,8.8,8.2,12.7,12.7
						c7.8,8.9,13.5,18.3,16.6,24c1.1,1.9,2.2,4.3,3.5,7.1c1.2,2.8,2.4,5.9,3.5,9.3c0.6,1.7,1.1,3.4,1.5,5.2c0.2,0.9,0.5,1.8,0.7,2.7
						c0.2,0.9,0.4,1.8,0.6,2.7c0.8,3.6,1.5,7.3,1.9,10.9c0.9,7.1,1,13.8,0.9,18.6c-0.1,2.4-0.2,4.3-0.3,5.7
						c-0.1,1.3-0.2,2.1-0.2,2.1s0-1.2-0.1-3.3c-0.1-2.2-0.2-5.3-0.6-9.2c-0.4-3.9-1.1-8.6-2.2-13.8c-0.6-2.6-1.2-5.3-2.1-8.1
						c-0.4-1.4-0.8-2.8-1.3-4.3c-0.5-1.4-1-2.9-1.5-4.4c-4.3-11.8-11-24.5-20-35.5c-4.4-5.5-9.3-10.6-14.5-15.2
						c-5.1-4.6-10.5-8.5-15.8-11.9l-0.9-0.6l-1.1,0c-20.3,0-36.1-0.1-41.6-0.3c-16.6-0.6-55.7,0.3-76.4,0.2l-5.9-0.1l2.2,5.6
						c1.2,3,2.2,5.5,2.9,7.6c4.2,11.8,13.4,33.6,18.7,47.9l2.8-6.4c-4.2,1.4-7.8,2.1-10.2,2.3c-2,0.2-5.3,0.6-9.5,0.8
						c-2.1,0.1-4.4,0.1-6.8,0c-2.4-0.1-5-0.3-7.7-0.7c-5.3-0.8-10.7-2.3-15.8-4.3c-2.5-1-4.9-2.2-7.1-3.5c-2.2-1.3-4.2-2.6-6.1-3.9
						l-6.2-4.5l-3.8,7c-2.7,5-4.7,9.3-6,12.1c-1.6,3.3-4.3,10.4-6.3,19.8c-2,9.4-3,20.9-2.3,32.3c0.6,11.4,2.9,22.5,5.6,31.2
						c2.7,8.7,5.8,15.1,6.9,17.7c2.4,5.2,6.4,12.1,11.6,18.9c5.2,6.9,11.5,13.7,17.7,19.5c3.2,2.9,8.4,8,15.3,13.1
						c6.9,5.2,15.4,10.4,24.1,14.4c8.7,3.9,17.3,6.6,23.9,8.1c3.3,0.7,6,1.3,7.8,1.5C254.9,372.4,255.9,372.6,255.9,372.6z"/>
					<path fill="#3D3D3D" d="M256.3,366.8c-9.6-0.8-19.1-2.8-28.2-5.9c-9.1-3.2-17.8-7.4-25.8-12.6c-2.9-1.9-5.7-4-8.4-6.1
						c0,0-0.2-0.2-0.7-0.5c-0.4-0.3-1.1-0.8-1.8-1.4c-1.5-1.2-3.8-3-6.3-5.3c-5.1-4.5-11.5-11.2-17.1-18.8
						c-5.6-7.6-10.3-16.1-13.5-23.3c-0.4-0.9-0.8-1.8-1.2-2.6c-0.3-0.9-0.7-1.7-1-2.5c-0.6-1.6-1.2-3-1.6-4.3
						c-0.8-2.6-1.5-4.5-1.8-5.4c-0.3-1-0.8-2.7-1.4-4.9c-0.3-1.1-0.6-2.4-0.9-3.8c-0.2-0.7-0.3-1.4-0.5-2.2
						c-0.2-0.8-0.3-1.5-0.5-2.4c-1.3-6.5-2.3-14.7-2.4-23.1c-0.1-8.4,0.7-17,2.1-24.2c1.4-7.2,3.2-13,4.4-16.1
						c1.6-4.2,4.2-10.4,7.6-16.7l2-3.8l3.4,2.5c5.2,3.8,11.4,7,17,9c5.6,2.1,10.4,3,12.9,3.6c1.9,0.5,7,1.3,13.8,1.3
						c6.7-0.1,14.9-1.3,22.4-4l-0.9,2.1c-5.5-14.5-10.5-27.9-10.5-27.9s-4.4-10.7-11.4-27.5l-0.7-1.6l1.8,0
						c12.8-0.2,33.5-0.4,37.8-0.4c7.8,0,65,0,65,0l15.2,0.4l0.4,0l0.3,0.2c17.6,11.7,31.8,28.1,41.1,46.9c0,0-0.3-0.5-0.8-1.3
						c-0.5-0.9-1.3-2.1-2.3-3.7c-0.9-1.6-2.3-3.4-3.7-5.5c-0.7-1-1.6-2.1-2.4-3.2c-0.4-0.6-0.9-1.1-1.3-1.7
						c-0.5-0.6-0.9-1.1-1.4-1.7c-3.8-4.7-8.6-9.7-14-14.3c-5.4-4.6-11.4-8.9-17.3-12.4l1.3,0.4c-19.4,0.6-35.5,1.1-38.6,1.1h-79.4
						l3.3-5l15.1,37.2c0.5,1.3,2.3,5.8,7.1,18.1l1.3,3.3l-3.2,1.1c-3.8,1.3-9.4,2.9-15.9,3.7c-6.5,0.8-14,0.8-21.2-0.2
						c-7.3-1-14.3-3.3-20.1-5.9c-5.8-2.6-10.4-5.7-13.4-7.9l2-0.5c-4.5,8.7-6.5,14.7-7.8,18.4c-1.2,3.7-1.6,5.1-1.6,5.1
						c-8.2,29.8-4.6,62.9,10.3,90.2l1.6,3.3l1.8,3.2c1.2,2.2,2.5,4.2,3.8,6.3c2.7,4.1,5.6,8,8.8,11.8c3.1,3.8,6.6,7.3,10.2,10.7
						l2.8,2.5l1.4,1.2l1.4,1.2l2.9,2.3l3,2.2C216.7,357.1,236.1,364.6,256.3,366.8z"/>
					<path fill="#3D3D3D" d="M357,311.1l-1,1.5l-1.1,1.4l-2.2,2.9l-2.4,2.8c-0.8,0.9-1.6,1.8-2.4,2.7c-10.8,11.7-24,21.1-38.5,27.4
						c-14.5,6.3-30.4,9.4-46.1,9.1c-15.8-0.3-31.4-4-45.6-10.8c-14.2-6.8-26.9-16.5-37-28.4c-1.5-1.8-3.1-3.6-4.5-5.5l-2.1-2.8
						l-2-2.9l-1-1.5l-0.9-1.5l-1.9-3c-0.6-1-1.2-2.1-1.7-3.1c-0.6-1-1.2-2.1-1.7-3.1c-4.3-8.4-7.7-17.3-9.8-26.6
						c-4.3-18.4-4.3-37.9,0.3-56.3c2.3-8.6,5.5-16.9,9.6-24.7l-6.8,1.7c9.8,7,21.3,11.7,33.3,13.6c11.9,1.9,24.4,1.1,36-2.4
						c0,0-0.6,0.2-1.7,0.6c-1.1,0.4-2.8,0.9-4.9,1.4c-4.2,1.1-10.4,2.3-17.6,2.5c-7.2,0.2-15.5-0.5-23.7-2.7
						c-8.2-2.2-16.3-5.8-23.1-10.3l11.5-2.9c-3.4,7.3-5.7,14.2-7.1,19.7c-1.4,5.5-2.1,9.6-2.4,11.4c-0.4,2.5-2.1,10.7-2,21.8
						c0,5.5,0.5,11.7,1.5,18.2c1,6.4,2.7,13.1,4.9,19.4c2.2,6.4,5,12.4,8.1,17.8c3,5.4,6.2,10.2,9.3,14c0.7,1,1.5,1.9,2.2,2.7
						c0.7,0.9,1.4,1.7,2,2.4c1.3,1.5,2.5,2.7,3.5,3.8c2,2,3.1,3.1,3.1,3.1c6,5.7,12.7,10.7,19.8,14.9c7.1,4.2,14.7,7.6,22.6,10
						c7.9,2.4,16,3.9,24.3,4.4c8.2,0.6,16.5,0.1,24.7-1.3c14.2-1.4,28.3-5.8,41.1-12.9C336,332.6,347.6,322.8,357,311.1z"/>
					<path fill="#3D3D3D" d="M199.6,210.4c11.4-0.3,22.7-2.8,32.9-7.4l8.6-3.9l-3.6-7.5l-15.4-31.5l-8.9-22.9l-6.1,9l22.2,0.3h52
						l-46.8,4.5h-27.4l10.6-15.7l4.3,10.7l17.6,44.6l4.2,10.6l-10.5,3.9C222.5,209.2,211,211,199.6,210.4z"/>
					<path fill="#3D3D3D" d="M370.5,242.2l-0.1,5.5l-0.4,5.5c-1.4,14.6-5.7,28.9-12.6,41.8c-6.9,12.9-16.4,24.4-27.8,33.6
						c-11.4,9.2-24.6,16-38.7,19.7c-14.1,3.7-29,4.4-43.4,2.1c-18.8-3.4-36.5-12.2-50.7-24.8c-14.3-12.6-24.9-29.1-30.8-47.1
						c-4.7-14-6.4-29-5.4-43.7c0.6-7.4,1.9-14.6,3.9-21.7c2-7.1,4.8-13.9,8.2-20.4l-19.6,4.9c11.6,8.2,25.3,13.5,39.4,15.3
						c14.1,1.8,28.6,0.2,42-4.7l13.4-5l-5.3-13.6l-7.9-20.2c0,0,1.3,3.2,8.3,20.1l5.5,13.2l-13.8,5.8c-1.6,0.7-5.9,2.4-12,3.9
						c-6.1,1.5-14,2.7-22.7,2.5c-8.6-0.1-17.9-1.6-26.4-4.4c-8.5-2.8-16.1-6.8-22-10.8l23.5-5.8c-3.7,7.5-5.6,13.4-6.9,17.7
						c-1.2,4.4-1.8,7.2-2.2,9c-0.8,3.8-2.3,12.2-2.2,22.8c0.1,10.6,2,23.1,6.1,34.5c2,5.7,4.5,11,7.2,15.8c1.3,2.4,2.7,4.6,4,6.7
						c1.4,2,2.7,4,4,5.6c0.6,0.8,1.3,1.7,1.9,2.4c0.6,0.7,1.2,1.4,1.8,2.1c0.6,0.7,1.1,1.3,1.6,1.8c0.5,0.5,1,1,1.4,1.5
						c0.8,0.9,1.5,1.6,1.9,2.1c0.5,0.5,0.7,0.7,0.7,0.7c5.4,5.6,11.4,10.6,17.9,14.9c6.5,4.2,13.6,7.7,20.9,10.4
						c14.7,5.3,30.8,6.9,46.4,4.8c12.2-1.6,24.1-5.4,35-11.3c5.5-3,10.7-6.4,15.6-10.3c4.9-3.9,9.4-8.3,13.5-13
						c8.3-9.5,14.9-20.5,19.5-32.3C367.7,267.8,370.2,255,370.5,242.2z"/>
					<path fill="#3D3D3D" d="M323.9,127.8c0,0-105-0.3-110.1-0.3c-0.3,0-1,0-6.7,0l-18.5,0.1l7.2,16.7c1.8,4.2,15.8,36.4,23.7,54.6
						l6.1-14c-10,4-18.6,4.6-24.2,4.6c-2.8,0-5-0.2-6.4-0.3c-1.4-0.2-2.2-0.2-2.2-0.2c-9.5-1.7-18.5-5.5-26.1-11.1l-9.7-7.1l-5.9,11
						c-2.7,5.1-5.2,10.5-7.2,16c-4.1,10.5-6.9,21.6-8.2,32.8c-0.7,5.6-1,11.3-0.9,17c0,1.4,0.1,2.8,0.1,4.3c0.1,1.4,0.1,2.8,0.2,4.3
						l0.4,4.3l0.2,2.1l0.3,2.1c1,6.9,2.7,13.8,4.9,20.4c2.2,6.7,4.8,13.2,8,19.5c3.2,6.3,6.9,12.3,11,18c4.1,5.7,8.7,11.1,13.7,16.1
						c-10-9.3-18.5-20.2-25.3-32.2c-3.3-6-6.3-12.3-8.7-18.7c-2.5-6.4-4.4-13.1-5.8-19.9c-1.3-7.5-1.9-15.1-1.9-22.6
						c-0.1-7.5,0.6-15.1,1.8-22.5c2.4-14.9,7.3-29.3,14.4-42.6l7.7-14.3l12.9,9.2l0.3,0.2c0,0,0.4,0.3,1,0.7
						c0.6,0.5,1.6,1.1,2.8,1.9c2.4,1.5,5.8,3.4,9.6,4.9c3.8,1.5,8.1,2.7,12,3.3c3.9,0.6,7.3,0.7,9.4,0.6c2.1-0.1,5.3-0.4,8.9-1.2
						c3.7-0.8,7.8-2.1,11.6-3.8l-8.2,18.8c-4.5-9.7-8.9-19.4-10.6-23.5c-1.6-3.9-7.1-17.1-13.1-31.1l-9-21.4l23.7-0.4
						c15.8-0.2,32.5-0.5,35.8-0.5c6.3,0,41.7,2.2,41.7,2.2L323.9,127.8z"/>
					<path fill="#3D3D3D" d="M200.4,341.8c0.4,0.3,1.5,1.2,3.3,2.5c0.9,0.6,2,1.3,3.2,2.1c0.6,0.4,1.2,0.8,1.9,1.2
						c0.7,0.4,1.4,0.8,2.1,1.3c5.8,3.5,13.8,7.4,22,10.1c8.3,2.8,16.8,4.5,23.2,5.2c0.8,0.1,1.6,0.2,2.3,0.3
						c0.7,0.1,1.4,0.1,2.1,0.2c1.3,0.1,2.5,0.2,3.4,0.2c1.9,0.1,3,0.1,3,0.1c5.8,0,11.6-0.7,17.4-1.6c5.8-0.9,11.4-2.4,17-4.2
						c11.1-3.6,21.6-9,31.2-15.7c11.2-8.9,20.5-19.8,27.7-31.8c-13.5,19-32.5,33.9-54.1,41.9c-2.1,0.9-4.3,1.6-6.5,2.4
						c-2.2,0.7-4.4,1.3-6.6,2c-4.5,1.1-9,2.1-13.6,2.6c-9.1,1.2-18.4,1.4-27.6,0.3c-9.2-1-18.2-3.2-26.8-6.3
						C216.2,351.2,208,346.9,200.4,341.8z"/>
					<path fill="#3D3D3D" d="M309.6,343.6c13-5.8,24.9-14.4,34.8-24.9c9.9-10.5,17.8-23,23.1-36.6c-2.5,8.9-6,17.6-10.6,25.7
						C344.5,324,327.8,336.4,309.6,343.6z"/>
				</g>
			</g>
		</g>
		<g>
			<g>
				<g>
					<path fill="#3D3D3D" d="M235.6,138.1l20.5-0.3l18.1,0.6c0,0,14.4-0.2,16.1-0.3c1.6-0.1,13.2,0.2,14.8,0.1
						c1.6-0.1,8.4,0.2,10.8,0.2c2.4,0,9.2,0.7,9.2,0.7s-21.3,0.1-24.1,0c-2.8-0.1-10,0.1-12.4,0c-2.4-0.1-7.6,0-9.2-0.2
						c-1.6-0.2-8.8-0.1-10.8-0.3c-2-0.2-12.8,0.1-14.4,0.1s-4.4,0.2-6.8,0.2C244.8,138.9,235.6,138.1,235.6,138.1z"/>
					<path fill="#3D3D3D" d="M235.6,139l8.2,0.2l1.5,0c0,0,10.2,0,11.4,0c1.1,0,9.2-0.2,11.1-0.1c1.9,0.1,6.5,0.1,7.7,0.2
						c1.1,0.1,10,0.3,10,0.3s8.8-0.1,10-0.1c1.1,0,9.6,0,9.6,0l11.5,0.3c0,0-13.8,0.5-14.9,0.5c-1.1,0-16.5,0-17.6,0
						c-1.1,0-17.2-0.4-17.2-0.4l-13.8-0.1L235.6,139z"/>
					<path fill="#3D3D3D" d="M218.1,140.1l2.2,0l28.7,0.3h17.3l14.1,0.2c0,0-13.5,0.5-15.2,0.5c-1.6,0-17.9-0.1-17.9-0.1h-15.7
						L218.1,140.1z"/>
					<polygon fill="#3D3D3D" points="276.6,141.3 286.1,140.6 293,140.7 300.7,140.7 293.8,141.4 288,141.4 					"/>
					<path fill="#3D3D3D" d="M207.1,141.3h1.8h28.4l18.6,0.3l28.4,0.3c0,0-16,0.2-18.6,0.3c-2.7,0-17.7,0-17.7,0l-16-0.3
						L207.1,141.3z"/>
					<path fill="#3D3D3D" d="M307,138c0,0-15.5,0-16.2,0c-0.7,0-15.5,0.3-15.5,0.3l-7.3-0.1l-9.1-0.3l-11.2-0.1l10.8-0.3l11.9,0.3
						c0,0,5.2,0.2,6.7,0.1c1.5,0,6.3-0.3,7.6-0.3c1.3,0,9.3-0.1,10.2-0.1c0.9,0,6.1,0.3,6.1,0.3L307,138z"/>
					<path fill="#3D3D3D" d="M244.5,139.8c-0.6,0-10.4-0.5-10.4-0.5l-10.1,0l-6.1,0.4l10.2,0.2H244.5z"/>
					<polygon fill="#3D3D3D" points="227,140.9 213.4,140.7 217.7,140.3 					"/>
				</g>
			</g>
		</g>
		<g>
			<g>
				<g>
					<path fill="#3D3D3D" d="M265.2,379.7l0.2,12.5l-0.4,11.1c0,0,0.1,8.8,0.2,9.8c0.1,1-0.1,8.1-0.1,9.1c0.1,1-0.1,5.2-0.1,6.6
						c0,1.5-0.4,5.6-0.4,5.6s-0.1-13,0-14.7c0.1-1.7-0.1-6.1,0-7.6c0.1-1.5,0-4.7,0.1-5.6c0.1-1,0.1-5.4,0.2-6.6
						c0.1-1.2-0.1-7.9-0.1-8.8c0-1-0.1-2.7-0.1-4.2C264.7,385.3,265.2,379.7,265.2,379.7z"/>
					<path fill="#3D3D3D" d="M264.6,379.7l-0.1,5l0,0.9c0,0,0,6.3,0,7c0,0.7,0.1,5.6,0.1,6.8c-0.1,1.2-0.1,4-0.1,4.7
						c-0.1,0.7-0.2,6.1-0.2,6.1s0.1,5.4,0.1,6.1c0,0.7,0,5.9,0,5.9l-0.2,7c0,0-0.3-8.4-0.3-9.1s0-10.1,0-10.8
						c0-0.7,0.2-10.5,0.2-10.5l0.1-8.4L264.6,379.7z"/>
					<path fill="#3D3D3D" d="M264,368.9l0,1.3l-0.2,17.6v10.6l-0.1,8.6c0,0-0.3-8.3-0.3-9.3c0-1,0.1-10.9,0.1-10.9v-9.6L264,368.9z"
						/>
					<polygon fill="#3D3D3D" points="263.2,404.7 263.7,410.6 263.6,414.8 263.6,419.5 263.2,415.3 263.2,411.8 					"/>
					<path fill="#3D3D3D" d="M263.3,362.2v1.1v17.4l-0.2,11.4l-0.2,17.4c0,0-0.2-9.8-0.2-11.4s0-10.8,0-10.8l0.2-9.8L263.3,362.2z"
						/>
					<path fill="#3D3D3D" d="M265.3,423.3c0,0,0-9.5,0-9.9c0-0.5-0.2-9.5-0.2-9.5l0.1-4.4l0.2-5.6l0.1-6.8l0.2,6.6l-0.2,7.3
						c0,0-0.1,3.2-0.1,4.1c0,0.9,0.2,3.9,0.2,4.7s0.1,5.7,0.1,6.3c0,0.6-0.2,3.8-0.2,3.8L265.3,423.3z"/>
					<path fill="#3D3D3D" d="M264.1,385.1c0-0.3,0.3-6.4,0.3-6.4l0-6.2l-0.2-3.8l-0.1,6.3V385.1z"/>
					<polygon fill="#3D3D3D" points="263.5,374.4 263.6,366.1 263.8,368.7 					"/>
				</g>
			</g>
		</g>
		<g>
			<g>
				<g>
					<path fill="#3D3D3D" d="M206.8,474l-12.7,0.2c-0.3,0-0.6,0-0.9-0.1l-0.1,0l0,0c-1.7-0.5-2.7-2.4-2.2-4.1l0,0l0-0.1
						c1.6-5,4.2-9.6,7.5-13.6c3.3-4,7.1-7.4,11.2-10.3c5.4-3.5,11.2-6.1,17.2-8.2c5.9-2,12.1-3.4,18.2-4.3c0,0,0.5-0.1,1.3-0.2
						c0.8-0.1,2-0.3,3.4-0.5c2.8-0.4,6.6-0.8,10.6-1c3.9-0.2,8-0.2,11.2,0c3.3,0.1,5.8,0.4,6.6,0.4c0.8,0.1,3,0.3,5.7,0.8
						c2.7,0.5,6.1,1.3,9.4,2.2c6.6,1.8,13,4.7,14.5,5.4c1.6,0.6,5.5,2.6,9.3,5.3c3.9,2.6,7.5,5.9,9.3,7.7c1.8,1.8,4.9,5.7,6.7,9.6
						c1,1.9,1.6,3.8,2,5.1c0.4,1.4,0.6,2.2,0.6,2.2s-0.2-0.7-0.7-1.8c-0.2-0.6-0.5-1.3-0.9-2c-0.4-0.8-0.8-1.6-1.3-2.6
						c-2.1-3.7-5.7-8.2-10.1-12c-4.4-3.8-9.6-6.9-14-9.1c-4.4-2.2-8-3.5-9.3-4c-2.7-1.1-7.6-2.5-12.5-3.5c-4.9-1-9.8-1.5-12.2-1.8
						c-2.4-0.3-6.3-0.6-10-0.6c-3.7,0-7.2,0.1-8.8,0.1c-1.6-0.1-6.2,0.3-10.7,1c-4.6,0.7-9.2,1.9-11.2,2.3c-1,0.2-3.1,0.8-5.7,1.7
						c-2.6,0.9-5.6,2.2-8.5,3.7c-5.9,2.9-11,6.9-12.3,8c-2.7,2-6.7,6.3-9.6,10.5c-0.6,0.9-1.6,2.2-2.6,3.9c-1,1.7-2.1,3.8-3,6
						c-0.4,1,0.1,2.2,1.1,2.7l0.3,0.1l0,0c0.1,0,0.2,0.1,0.4,0.1l0.3,0C200.4,473.5,206.8,474,206.8,474z"/>
					<path fill="#3D3D3D" d="M206.8,472.3l-12.7-0.3l0,0c-0.1,0-0.2,0-0.3-0.1l0,0l-0.1,0c-0.6-0.2-0.9-0.8-0.7-1.4l0,0l0.7-1.9
						c0.3-0.6,0.5-1.2,0.8-1.8c0.5-0.9,0.9-1.8,1.5-2.7c0,0,0.6-1.2,1.8-2.8c1.1-1.7,2.8-3.8,4.7-5.8c3.8-4.1,8.7-7.3,9.7-8
						c1-0.7,4.9-3.3,9.3-5.4c4.4-2.2,9.2-3.8,11.1-4.3c1.9-0.5,5.1-1.3,8.2-1.9c3.1-0.6,6-1,7.1-1.1c1.2-0.1,6.2-0.6,10.9-0.7
						c4.7-0.1,9.2,0.1,9.2,0.1s1.1,0,2.8,0.1c0.9,0.1,1.8,0.1,2.9,0.2c1.1,0.1,2.2,0.2,3.4,0.3c4.7,0.5,9.7,1.4,10.8,1.7
						c1.1,0.2,5.9,1.3,10.2,2.8c4.3,1.5,8.2,3.3,8.2,3.3c7,3.4,13.5,7.8,18.7,13.5c0,0-0.3-0.3-0.9-0.8c-0.5-0.5-1.4-1.2-2.4-2.1
						c-2-1.7-4.9-3.7-8-5.5c-3.1-1.8-6.4-3.3-9.1-4.4c-2.7-1.1-4.7-1.7-5.3-2c-0.5-0.2-2.7-1-5.8-1.9c-3.1-0.9-7.1-1.9-11.1-2.5
						c-8.1-1.4-16.4-1.5-17.5-1.5c-0.3,0-1,0-2.1,0c-1.1,0-2.5,0-4.2,0c-3.3,0.1-7.6,0.4-11.7,1c-4.1,0.6-8.2,1.4-11.1,2.1
						c-1.5,0.4-2.7,0.7-3.6,1c-0.9,0.2-1.3,0.4-1.3,0.4c-8.7,2.9-17.2,7.1-24.2,13.1c-5.7,4.5-10.7,10.4-13.4,17.5
						c-0.2,0.4,0.1,0.9,0.5,1.1l0,0l0.1,0l0,0c0.1,0,0.1,0,0.2,0l0.1,0L206.8,472.3z"/>
					<path fill="#3D3D3D" d="M242,470.2l-4.4,0l-43.5-0.4l0.3,0.1l0,0l0.7,1.4c1.5-4.4,3.9-8.4,6.9-11.9c3.6-4.3,8.1-7.9,13-11
						c4.9-3,10.1-5.4,15.5-7.3c8.9-2.9,18.2-4.5,27.5-4.9c0,0-1.7,0.1-4.2,0.5c-2.6,0.3-6,0.9-9.4,1.7c-3.5,0.8-7,1.8-9.8,2.7
						c-2.8,0.9-4.9,1.8-5.6,2c-1.5,0.5-9.8,3.6-16.5,8.4c-3.4,2.3-6.4,5-8.4,7.2c-1,1.1-1.8,2-2.3,2.7c-0.5,0.7-0.8,1.1-0.8,1.1
						c-2,2.8-3.6,5.9-4.7,9.1l-1.6-3l0,0l-0.7-0.1h20.6L242,470.2z"/>
					<path fill="#3D3D3D" d="M250.7,438.5c6.1-1.2,12.4-1.9,18.8-2.1c4.5,0.3,9.1,0.8,13.5,1.7c5,0.9,9.9,2.1,14.6,3.8
						c-4.4-1.1-8.9-1.8-13.4-2.2c-3.7-0.7-7.4-1.2-11.1-1.5C265.7,437.5,258.1,437.6,250.7,438.5z"/>
					<path fill="#3D3D3D" d="M264.2,467.7h-3.6h-57.1l-9.4-0.1l1,0.2l0,0l2.1,4.1c1.4-4,3.6-7.7,6.4-10.9c2.8-3.3,6.2-6.1,9.8-8.6
						c7.4-5.1,16-8.5,24.9-10.7c8.9-2.2,18.1-3.1,27.2-2.9c0,0-0.5,0-1.3,0c-0.9,0-2.1,0.1-3.6,0.1c-3,0.1-7,0.5-11.1,1.1
						c-4.1,0.6-8.3,1.6-11.8,2.6c-3.5,1-6.1,2-7.3,2.4c-2.4,0.8-10.3,4-16.5,8.4c-3.1,2.2-5.8,4.6-7.6,6.5c-0.4,0.5-0.8,0.9-1.2,1.3
						c-0.3,0.4-0.6,0.8-0.9,1c-0.5,0.6-0.7,0.9-0.7,0.9c-1.1,1.4-2.1,2.9-2.9,4.4c-0.8,1.5-1.5,3.1-2.1,4.7l-3-5.8l0,0l-1.4-0.2
						l20.1,0.4L264.2,467.7z"/>
					<path fill="#3D3D3D" d="M311.5,441.8c0,0-0.5-0.2-1.3-0.6c-0.8-0.4-1.9-1-3.3-1.6c-2.8-1.3-6.6-2.8-10.6-4
						c-7.9-2.5-16.3-3.7-17.1-3.7c-0.8-0.1-8.8-1-16.6-0.6c-3.9,0.1-7.8,0.5-10.6,0.9c-2.9,0.4-4.7,0.7-4.7,0.7
						c-5,0.7-9.9,1.6-14.8,3c-6.1,1.6-12.2,3.9-17.9,6.9c-3.5,1.9-6.8,4.2-9.9,6.7c-3.1,2.6-6,5.4-8.5,8.7c2.3-3.3,5-6.2,7.9-8.8
						c2.9-2.6,6.1-4.9,9.4-7c7.5-4.2,15.5-6.9,23.6-8.8c0,0,0.7-0.1,1.7-0.4c1.1-0.2,2.5-0.5,4-0.7c3.1-0.5,6.6-0.9,8.1-1.1
						c0.8-0.1,2-0.3,3.4-0.5c1.4-0.2,3.1-0.4,4.7-0.5c3.3-0.3,6.5-0.4,7.8-0.4c1.4,0,6.3,0.1,11,0.6c4.8,0.5,9.4,1.4,10.4,1.6
						c1,0.2,4.1,1.1,6.9,2.1c2.8,1,5.4,2.1,5.4,2.1C304.4,437.9,308,439.7,311.5,441.8z"/>
					<path fill="#3D3D3D" d="M196.3,466c-0.1,0.2-1,1.4-2.2,4.8l0,0l0,0l0,0c4.3,0.3,15.7,0.8,15.7,0.8l20.3,0.1l12.4-0.8l-20.7-0.4
						h-27.7l0.1,0l0,0l0.1,0.3C194.9,469.3,195.5,467.6,196.3,466z"/>
					<polygon fill="#3D3D3D" points="224,468.4 251.4,468.9 242.8,469.6 					"/>
				</g>
			</g>
		</g>
		<g>
			<g>
				<g>
					<path fill="#3D3D3D" d="M206.1,207l39-0.5l34.4,1.1c0,0,27.6-0.4,30.6-0.5c3.1-0.2,25.3,0.4,28.3,0.2
						c3.1-0.2,16.1,0.4,20.7,0.4c4.6,0,17.6,1.3,17.6,1.3s-40.6,0.2-45.9,0c-5.4-0.2-19.1,0.2-23.7,0c-4.6-0.2-14.5,0-17.6-0.4
						c-3.1-0.4-16.8-0.2-20.7-0.5c-3.8-0.4-24.5,0.2-27.6,0.2s-8.4,0.4-13,0.4C223.7,208.4,206.1,207,206.1,207z"/>
					<path fill="#3D3D3D" d="M206.1,208.6l15.6,0.3l2.8,0.1c0,0,19.5-0.1,21.7-0.1c2.2,0,17.5-0.4,21.2-0.2
						c3.7,0.2,12.4,0.2,14.6,0.4c2.2,0.2,19,0.5,19,0.5s16.8-0.2,19-0.2c2.2,0,18.3,0,18.3,0l21.9,0.5c0,0-26.3,0.9-28.5,0.9
						c-2.2,0-31.4,0-33.6,0c-2.2,0-32.9-0.7-32.9-0.7l-26.3-0.2L206.1,208.6z"/>
					<path fill="#3D3D3D" d="M172.7,210.6l4.2,0l54.7,0.5h33.1l26.9,0.4c0,0-25.8,0.9-28.9,0.9c-3.1,0-34.1-0.2-34.1-0.2h-30
						L172.7,210.6z"/>
					<polygon fill="#3D3D3D" points="284.2,213 302.5,211.7 315.6,211.9 330.2,211.9 317.1,213.2 306.1,213.2 					"/>
					<path fill="#3D3D3D" d="M151.7,212.9h3.4h54.1l35.5,0.5l54.1,0.5c0,0-30.4,0.5-35.5,0.5c-5.1,0-33.8,0-33.8,0L199,214
						L151.7,212.9z"/>
					<path fill="#3D3D3D" d="M342.2,206.6c0,0-29.5-0.1-30.9-0.1c-1.4,0-29.5,0.6-29.5,0.6l-13.9-0.3l-17.4-0.6l-21.3-0.2l20.6-0.6
						l22.7,0.5c0,0,10,0.4,12.8,0.3c2.8-0.1,12.1-0.6,14.6-0.6s17.8-0.3,19.5-0.3s11.7,0.6,11.7,0.6L342.2,206.6z"/>
					<path fill="#3D3D3D" d="M223.1,210.2c-1.1-0.1-19.9-1-19.9-1l-19.2-0.1l-11.7,0.7l19.5,0.4H223.1z"/>
					<polygon fill="#3D3D3D" points="189.7,212.3 163.8,211.8 171.9,211.2 					"/>
				</g>
			</g>
		</g>
		<g>
			<g>
				<g>
					<path fill="#3D3D3D" d="M281.6,217.7l12.4-50.3l13-43.9c0,0,8.8-35.5,9.6-39.5c0.8-4,9-32.3,9.8-36.3c0.3-1.4,1-4.1,2-7.5
						l0-0.2c0.6-1.9,2.6-3.1,4.5-2.5c0.1,0,0.1,0,0.2,0.1c6.4,2.2,14.8,5.2,18.6,6.5c5.8,1.9,21.7,8.8,21.7,8.8s-23.9-7.6-41-13.1
						c-0.8-0.2-1.6,0.2-1.8,0.9c0,0,0,0.1,0,0.1c-2.2,8.4-4,15.1-4.6,17.3c-2,6.8-6.2,24.6-8,30.5c-1.8,5.8-4.9,18.7-6.4,22.5
						c-1.5,3.8-5.9,21.6-7.7,26.4c-1.8,4.8-8,31.5-9,35.4c-1,3.9-2.4,10.9-3.9,16.8C289.4,195.6,281.6,217.7,281.6,217.7z"/>
					<path fill="#3D3D3D" d="M283.7,218.2l5.7-20l1.1-3.6c0,0,6.5-25.1,7.2-27.9c0.7-2.8,5.4-22.6,6.9-27.3
						c1.5-4.6,4.4-15.9,5.4-18.6c1-2.8,7.1-24.2,7.1-24.2s5.5-21.6,6.2-24.4c0.7-2.8,6.2-23.4,6.2-23.4l2.2-7.7l0,0
						c0.1-0.2,0.3-0.3,0.5-0.3l0,0l19.9,6.9c0,0-10.6-3-20.2-5.8l1.1-0.6c-1.8,7.9-3.5,15.1-3.8,16.4c-0.7,2.8-10.6,40.3-11.3,43.1
						c-0.7,2.8-12,42-12,42l-9.1,33.7L283.7,218.2z"/>
					<path fill="#3D3D3D" d="M275.1,261.8l1.5-5.3l19.1-70.1l11.1-42.5l9.5-34.4c0,0-7.5,33.5-8.6,37.5c-1.1,4-11.7,43.7-11.7,43.7
						l-10.1,38.5L275.1,261.8z"/>
					<polygon fill="#3D3D3D" points="315.7,119.4 320.2,95.5 324.8,78.7 329.8,59.9 327,77.2 323.3,91.3 					"/>
					<path fill="#3D3D3D" d="M270.9,289.5l1.1-4.3l18.2-69.5l12.7-45.4l18.9-69.3c0,0-9.5,39.3-11.3,45.8
						c-1.7,6.5-11.4,43.4-11.4,43.4l-11,38.9L270.9,289.5z"/>
					<path fill="#3D3D3D" d="M327,42.8c0,0-10,37.9-10.5,39.7c-0.4,1.8-9.1,38.1-9.1,38.1l-5,17.7l-6.7,22.2l-7.4,27.3l6.1-26.7
						l8.3-29c0,0,3.8-12.7,4.7-16.3c0.8-3.7,3.3-15.7,4.1-18.9c0.8-3.2,5.7-22.9,6.2-25.2c0.6-2.3,4.7-14.9,4.7-14.9L327,42.8z"/>
					<path fill="#3D3D3D" d="M291.5,196.9c-0.5,1.3-8,25.2-8,25.2l-6.6,24.6l-3,15.3l7-25L291.5,196.9z"/>
					<polygon fill="#3D3D3D" points="283,240.5 273.5,273.6 275.5,262.9 					"/>
				</g>
			</g>
		</g>
		<g>
			<g>
				<g>
					<path fill="#3D3D3D" d="M145.7,179.8c-7.7-8.1-13.6-17.9-16.9-28.7c-1.7-5.4-2.7-11-3.1-16.6c-0.4-5.6,0-11.3,0.9-16.9l0.9-3.6
						c0.3-1.2,0.7-2.4,1.1-3.6c0.7-2.4,1.7-4.7,2.7-7c2.1-4.5,4.5-8.9,7.4-12.8c1.4-2,3-3.9,4.6-5.8l0.6-0.7l0.6-0.7l1.3-1.3
						l1.3-1.3c0.4-0.4,0.9-0.9,1.3-1.3c1.8-1.6,3.6-3.3,5.6-4.7c1-0.7,1.9-1.5,2.9-2.2l3.1-2c0,0,0.4-0.3,1.2-0.8
						c0.8-0.5,1.9-1.2,3.3-2c1.4-0.9,3.1-1.7,5.1-2.7c0.9-0.5,2-1,3.1-1.4c1.1-0.5,2.2-0.9,3.3-1.4c2-0.9,4.4,0.1,5.2,2.1l0,0
						l0.1,0.2c5,11.9,11.4,26.9,12.6,29.4c2.1,4.4,14.7,37.8,16.8,42.2c0.3,0.6,0.6,1.3,1,2.4c0.4,1,0.9,2.3,1.4,3.6
						c1.1,2.7,2.3,6,3.5,9.3c2.4,6.7,4.9,13.6,6.3,17.3c1.4,3.6,3.5,10.5,5.2,16.3c1.7,5.7,3.2,10.5,3.2,10.5s-6-15.5-12.6-32
						c-3.3-8.2-6.7-16.7-9.5-23.7c-2.7-6.8-4.8-12.1-5.6-14.1c-3-8.1-11.8-28.4-14.3-35.3c-2.3-6.5-7.9-19.7-9.7-25.3
						c-0.4-1.2-1.6-1.8-2.8-1.4l0,0l-0.2,0.1c-0.4,0.1-0.8,0.3-1.1,0.3c-2.5,0.6-9,3.3-15,7.3c-6.1,3.9-11.5,9-13.8,11.2
						c-0.6,0.6-1.5,1.4-2.5,2.6c-0.5,0.6-1,1.3-1.6,2c-0.6,0.7-1.2,1.5-1.8,2.4c-1.2,1.8-2.6,3.7-3.7,5.9c-0.6,1.1-1.2,2.1-1.8,3.3
						c-0.5,1.1-1.1,2.3-1.6,3.5l-0.4,0.9l-0.3,0.9c-0.2,0.6-0.4,1.2-0.6,1.8c-0.4,1.2-0.9,2.3-1.2,3.5c-0.6,2.3-1.3,4.5-1.6,6.5
						c-0.2,1-0.4,1.9-0.5,2.8c-0.2,0.9-0.2,1.7-0.3,2.4c-0.2,1.4-0.3,2.5-0.4,3.2c-0.1,1.3-0.1,2.8-0.1,4.5
						c-0.1,1.7,0.1,3.5,0.2,5.4c0.4,3.8,1,7.9,1.9,11.6c0.2,0.9,0.4,2.2,0.8,3.7c0.2,0.7,0.4,1.6,0.6,2.4c0.3,0.8,0.5,1.7,0.8,2.6
						c0.1,0.5,0.3,0.9,0.4,1.4c0.2,0.5,0.3,0.9,0.5,1.4c0.4,1,0.7,2,1.1,2.9c0.8,1.9,1.6,4,2.6,5.8c0.9,1.9,2,3.7,2.9,5.3
						c1,1.6,1.9,3.1,2.8,4.3c0.9,1.2,1.6,2.2,2.1,2.9C145.4,179.4,145.7,179.8,145.7,179.8z"/>
					<path fill="#3D3D3D" d="M147.6,178c-2.8-3.2-5.5-6.7-7.7-10.4c-2.2-3.7-4.1-7.5-5.6-11.5c-0.5-1.5-1-3-1.5-4.4
						c0,0-0.1-0.5-0.4-1.3c-0.2-0.9-0.7-2-1-3.5c-0.3-1.5-0.8-3.2-1-5.2c-0.1-1-0.4-1.9-0.4-3c-0.1-1-0.2-2.1-0.3-3.1
						c-0.3-4.2-0.2-8.6,0.2-12.1c0.2-1.7,0.3-3.3,0.6-4.5c0.2-1.2,0.4-2.1,0.5-2.5c0.1-0.4,0.2-1.2,0.4-2.2c0.3-1,0.6-2.3,1-3.7
						c0.3-1.4,1-3,1.5-4.7c0.5-1.7,1.3-3.4,2.1-5.1c0.7-1.7,1.7-3.4,2.6-5c0.8-1.6,1.9-3.1,2.8-4.4c0.9-1.4,1.8-2.5,2.6-3.5
						c0.8-1,1.4-1.8,2-2.4c0.5-0.5,1.2-1.2,1.8-1.9c0.7-0.7,1.4-1.5,2.2-2.2c1.7-1.5,3.5-3.2,5.4-4.6c1-0.7,1.8-1.5,2.8-2.1
						c0.9-0.6,1.8-1.2,2.6-1.8c0.4-0.3,0.8-0.5,1.2-0.8c0.4-0.2,0.7-0.4,1.1-0.6c0.7-0.4,1.2-0.6,1.6-0.8c0.7-0.3,2.2-1.2,4.4-2.2
						c0.5-0.2,1.1-0.5,1.7-0.8c0.3-0.1,0.6-0.3,0.9-0.4c0.3-0.1,0.6-0.2,1-0.4c1.3-0.5,2.7-1,4.2-1.6l0,0c0.4-0.2,0.9,0.1,1.1,0.5
						l0,0c2.9,7.8,6.1,16.2,6.1,16.2s10.4,24.9,11.7,28.1c1.3,3.3,11,27.2,11,27.2l12.4,32.9c0,0-4.3-9.7-8.8-19.7
						c-4.4-9.9-9-20.4-9.7-22c-1.3-3.3-18.9-46.7-20.2-50c-0.3-0.7-1.5-3.7-4.6-11.8l1.9,0.8c-1.2,0.5-2.7,1-4.4,1.7
						c-1.7,0.7-3.5,1.6-5.4,2.5c-3.7,2-7.7,4.3-11,7c-0.8,0.7-1.7,1.3-2.5,2c-0.8,0.7-1.5,1.3-2.2,2c-0.4,0.3-0.7,0.6-1,0.9
						c-0.3,0.3-0.6,0.6-0.9,0.9c-0.6,0.6-1.1,1.2-1.6,1.7c-1,1-1.8,1.9-2.3,2.6c-0.5,0.6-0.8,1-0.8,1c-4.3,5.5-7.8,11.6-10.3,18.2
						c-2.5,6.6-3.9,13.5-4.1,20.5c-0.3,2.2-0.2,4.4-0.2,6.6c0.1,2.2,0.2,4.4,0.5,6.6c0.5,4.4,1.4,8.8,2.9,13
						c1.4,4.2,3.2,8.4,5.4,12.3C142.1,170.8,144.7,174.5,147.6,178z"/>
					<path fill="#3D3D3D" d="M196.4,198.4c-1.1-0.1-2.2-0.2-3.3-0.4c-1.1-0.1-2.2-0.3-3.2-0.5c-7.1-1.3-14-3.7-20.3-7.1
						c-6.4-3.3-12.2-7.7-17.2-12.8c-10.1-10.2-16.9-23.6-18.7-37.7c-0.6-4.3-0.8-8.6-0.5-12.9l0.1-1.6l0.2-1.6l0.4-3.2
						c0.1-1.1,0.4-2.1,0.6-3.2l0.3-1.6l0.2-0.8l0.2-0.8c0.6-2.1,1.1-4.1,2-6.1c0.4-1,0.7-2,1.2-3l1.4-2.9l0.7-1.5l0.8-1.4l1.6-2.8
						c0.6-0.9,1.2-1.8,1.8-2.7c0.6-0.9,1.2-1.8,1.9-2.6c8.2-10.5,19.4-18.5,31.9-22.8l-3.2-1.4l0.8,2c0,0-0.1-0.2-0.8-1.9l3.2,1.4
						c-0.5,0.2-1.4,0.6-2.6,1.2c-0.6,0.3-1.3,0.6-2.1,0.9c-0.7,0.4-1.5,0.8-2.4,1.3c-3.4,1.8-7.4,4.5-11.1,7.5
						c-0.9,0.8-1.8,1.6-2.7,2.3c-0.9,0.8-1.7,1.6-2.5,2.4c-1.6,1.5-3,3.2-4.2,4.7c-2.4,3-4,5.4-4.6,6.3c-0.3,0.5-1.1,1.5-2,3
						c-0.8,1.5-2.1,3.4-3.1,5.7c-2.2,4.5-4.3,10.5-5.4,16.6c-1,6.1-1,12.1-0.6,16.6c0,0.6,0.1,1.1,0.1,1.6c0.1,0.5,0.1,1,0.2,1.4
						c0.1,0.9,0.3,1.7,0.4,2.3c0.1,0.6,0.2,1.1,0.3,1.5c0.1,0.3,0.1,0.5,0.1,0.5c0.8,3.7,2,7.3,3.4,10.8c1.4,3.5,3.3,6.8,5.3,10
						c4.1,6.4,9.4,12,15.4,16.6C170.2,190.4,182.9,196.3,196.4,198.4z"/>
					<path fill="#3D3D3D" d="M170.8,74.4c1.3-0.7,2.6-1.6,3.9-2.3l4.1-2l-5.3-2.4l8.7,17.7l7.6,19.7l8.8,21.7l-9.8-18.8l-6.6-16.3
						L172.7,68l6.3,2.8l-4.2,1.7C173.5,73,172.1,73.8,170.8,74.4z"/>
					<path fill="#3D3D3D" d="M225.1,193c-0.1-0.7,0.4-1.5,0.9-1.8c0.1,0,0.1-0.1,0.2-0.1c0,0,0.2-0.1,0.1,0l-0.3,0.1l-0.6,0.2
						c-0.8,0.3-1.6,0.5-2.4,0.8c-13,3.9-27.1,3.8-40.1-0.1c-6.5-1.9-12.7-4.8-18.3-8.6c-5.6-3.7-10.6-8.4-14.9-13.6
						c-5.4-7-9.4-15.1-11.5-23.6c-2.1-8.5-2.3-17.4-0.7-26c2-11,7.2-21.3,14.5-29.7c7.4-8.4,17-14.7,27.5-18.5l-8.1-3.6l5,12.7
						c0,0-1.4-3.3-5.3-12.6l8.4,3.7c-1,0.4-2.2,1-3.6,1.6c-0.7,0.3-1.4,0.7-2.2,1.1c-0.8,0.4-1.5,0.8-2.4,1.2
						c-0.8,0.4-1.6,1-2.4,1.5c-0.8,0.5-1.7,1-2.5,1.6c-0.8,0.6-1.6,1.2-2.4,1.8l-1.2,0.9l-1.1,1c-0.8,0.6-1.5,1.3-2.3,1.9
						c-0.7,0.7-1.4,1.3-2.1,2c-1.4,1.3-2.5,2.6-3.6,3.8c-1.1,1.2-1.9,2.4-2.7,3.3c-0.7,0.9-1.3,1.7-1.7,2.3
						c-0.5,0.8-1.3,1.9-2.3,3.5c-0.9,1.6-2.1,3.5-3,5.7c-2.1,4.4-4,9.9-4.9,15.4c-0.2,1.4-0.3,2.8-0.5,4.1c-0.1,0.7-0.1,1.3-0.2,2
						c0,0.7-0.1,1.3-0.1,1.9c0,0.6-0.1,1.3-0.1,1.9c0,0.6,0,1.2,0.1,1.8c0,1.1,0.1,2.2,0.2,3.2c0.1,1,0.2,1.9,0.3,2.7
						c0.1,0.8,0.2,1.5,0.3,2c0.1,0.6,0.2,1,0.2,1.3c0,0.3,0.1,0.5,0.1,0.5c0.6,3.6,1.6,7.1,2.9,10.5c1.3,3.4,2.9,6.7,4.7,9.8
						c1.9,3.1,4.1,6.1,6.5,8.9c2.4,2.8,5.1,5.3,8,7.7c8.9,7.3,19.8,12.3,31.4,14.3c2.9,0.5,5.8,0.8,8.8,0.9c2.9,0.1,5.9,0.1,8.8-0.2
						c2.9-0.2,5.9-0.7,8.8-1.3c1.4-0.3,2.9-0.7,4.3-1.1c0.7-0.2,1.4-0.4,2.1-0.6l0.5-0.2l0.1,0c-0.1,0-0.1,0-0.2,0.1
						c-0.1,0.1-0.2,0.1-0.3,0.2C225.4,191.7,225,192.4,225.1,193z"/>
					<path fill="#3D3D3D" d="M213.7,141.7c0,0-17.7-44.2-18.6-46.3c-0.6-1.5-9.9-23-13.4-31l-0.2-0.3c-1-2.2-3.6-3.2-5.8-2.3
						c-1.2,0.5-2.3,1-3.3,1.4c-1,0.4-2,0.8-2.8,1.3c-1.6,0.8-2.9,1.5-4,2c-2,1.2-2.8,1.7-2.8,1.7c-6.8,3.9-13.1,8.9-18.5,14.7
						c-0.9,0.9-1.7,1.8-2.5,2.8c-0.8,1-1.7,1.9-2.4,2.9c-1.5,2-3,4-4.3,6.2c-2.7,4.2-4.8,8.9-6.6,13.6c-2,5.9-3.1,12.1-3.5,18.3
						c-0.5,6.2,0,12.5,1.2,18.6c-1.4-5.9-2-11.9-1.9-18l0-2.3c0-0.8,0.1-1.5,0.2-2.3c0.2-1.5,0.2-3,0.5-4.5l0.8-4.5
						c0.3-1.5,0.7-3,1.1-4.4c4.2-12.8,11.9-24.4,21.9-33c0,0,0.2-0.2,0.6-0.5c0.4-0.3,0.9-0.8,1.6-1.3c0.7-0.5,1.5-1.1,2.4-1.8
						c0.4-0.3,0.9-0.7,1.4-1c0.5-0.4,1-0.7,1.5-1c1-0.7,2.1-1.4,3.1-2.1c1.1-0.7,2.2-1.2,3.2-1.8c2-1.2,3.8-2,4.9-2.6
						c0.8-0.4,1.8-1.1,3.2-1.7c1.3-0.6,2.9-1.3,4.5-2.1c2.9-1.3,6.3-0.1,7.7,2.8l0.3,0.7c2.5,5.4,5.5,11.8,6.4,14.2
						c1.5,3.7,11.1,26.3,12.2,28.9c1.1,2.6,6.1,17.8,6.1,17.8L213.7,141.7z"/>
					<path fill="#3D3D3D" d="M135.3,153.2c0.1,0.2,0.2,0.8,0.5,1.8c0.3,0.9,0.8,2.2,1.3,3.6c1.2,2.8,2.8,6.4,4.9,9.8
						c0.3,0.4,0.5,0.8,0.8,1.3c0.3,0.4,0.5,0.8,0.8,1.2c0.5,0.8,1.1,1.6,1.6,2.3c1.1,1.4,2.1,2.8,3.1,3.9c1,1.1,1.7,2,2.3,2.6
						c0.6,0.6,0.9,0.9,0.9,0.9c7.5,7.2,16.7,12.8,26.5,16.3c6.2,1.8,12.5,2.6,18.8,2.8c-10.4-1-20.6-4.3-29.6-9.5
						c-7.3-4-13.9-9.3-19.3-15.6c-2.8-3.1-5.2-6.5-7.3-10.1c-0.5-0.9-1.1-1.8-1.5-2.7l-1.4-2.8C136.9,157.1,136,155.2,135.3,153.2z"
						/>
					<path fill="#3D3D3D" d="M171.8,188.8c11.7,6.1,25.2,8.8,38.5,7.7c-4.1,0.8-8.4,1.1-12.7,1.2
						C188.4,196.3,179.6,193.3,171.8,188.8z"/>
				</g>
			</g>
		</g>
		<g>
			<g>
				<g>
					<path fill="#3D3D3D" d="M163.3,106.1l4.5,2l3.9,1.9c0,0,3.2,1.4,3.5,1.5s2.9,1.4,3.2,1.5c0.4,0.1,1.8,0.9,2.4,1.1
						c0.5,0.2,2,1.1,2,1.1s-4.7-2.1-5.3-2.4c-0.6-0.3-2.2-1-2.7-1.2c-0.5-0.3-1.7-0.8-2-1c-0.3-0.2-1.9-0.9-2.3-1.1
						c-0.4-0.2-2.8-1.3-3.2-1.4c-0.4-0.2-1-0.4-1.5-0.6C165.2,107.2,163.3,106.1,163.3,106.1z"/>
					<path fill="#3D3D3D" d="M163.2,106.3l1.8,0.9l0.3,0.2c0,0,2.2,1,2.5,1.1c0.3,0.1,2,0.9,2.4,1.1c0.4,0.2,1.4,0.7,1.7,0.8
						c0.2,0.1,2.2,1.1,2.2,1.1s1.9,0.9,2.2,1c0.3,0.1,2.1,0.9,2.1,0.9l2.5,1.2c0,0-3.1-1.3-3.3-1.4s-3.6-1.6-3.9-1.7
						c-0.3-0.1-3.7-1.8-3.7-1.8l-3-1.4L163.2,106.3z"/>
					<path fill="#3D3D3D" d="M159.2,104.8l0.5,0.2l6.3,2.9l3.8,1.7l3.1,1.4c0,0-3-1.2-3.4-1.4c-0.4-0.2-3.9-1.8-3.9-1.8l-3.4-1.6
						L159.2,104.8z"/>
					<polygon fill="#3D3D3D" points="171.9,110.8 174.1,111.6 175.6,112.4 177.3,113.1 175.7,112.6 174.4,112 					"/>
					<path fill="#3D3D3D" d="M156.7,103.9l0.4,0.2l6.2,2.8l4.1,1.9l6.2,2.9c0,0-3.5-1.5-4.1-1.8c-0.6-0.3-3.9-1.8-3.9-1.8l-3.5-1.6
						L156.7,103.9z"/>
					<path fill="#3D3D3D" d="M178.9,113.1c0,0-3.4-1.5-3.5-1.6c-0.2-0.1-3.4-1.5-3.4-1.5l-1.6-0.8l-2-1l-2.4-1.1l2.4,1l2.6,1.2
						c0,0,1.1,0.6,1.5,0.7c0.3,0.1,1.4,0.6,1.7,0.7c0.3,0.1,2.1,0.9,2.3,1c0.2,0.1,1.3,0.7,1.3,0.7L178.9,113.1z"/>
					<path fill="#3D3D3D" d="M165.1,107.3c-0.1-0.1-2.2-1.1-2.2-1.1l-2.2-1l-1.4-0.5l2.2,1.1L165.1,107.3z"/>
					<polygon fill="#3D3D3D" points="161.1,105.9 158.2,104.4 159.1,104.8 					"/>
				</g>
			</g>
		</g>
		<g>
			<g>
				<g>
					<path fill="#3D3D3D" d="M162.6,145.4l6.3-3l5.7-2.4c0,0,4.5-2.1,4.9-2.4c0.5-0.3,4.1-1.8,4.6-2.1c0.5-0.3,2.6-1.2,3.4-1.5
						c0.7-0.3,3-1.1,3-1.1s-6.6,3.1-7.5,3.5c-0.9,0.4-3.1,1.5-3.9,1.8c-0.8,0.3-2.4,1.1-2.9,1.3c-0.5,0.2-2.8,1.2-3.4,1.5
						c-0.6,0.2-4,1.9-4.5,2.1c-0.5,0.2-1.3,0.7-2.1,1C165.5,144.3,162.6,145.4,162.6,145.4z"/>
					<path fill="#3D3D3D" d="M162.7,145.6l2.6-1.1l0.5-0.2c0,0,3.2-1.5,3.5-1.6c0.4-0.2,2.8-1.4,3.4-1.6c0.6-0.2,2-0.9,2.4-1
						c0.4-0.1,3.1-1.3,3.1-1.3s2.7-1.3,3.1-1.5c0.4-0.2,3-1.4,3-1.4l3.6-1.6c0,0-4.2,2.1-4.6,2.3c-0.4,0.2-5.1,2.4-5.5,2.5
						c-0.4,0.2-5.4,2.4-5.4,2.4l-4.3,2L162.7,145.6z"/>
					<path fill="#3D3D3D" d="M157.4,148.5l0.7-0.3l8.9-4.1l5.4-2.5l4.4-2c0,0-4.1,2.1-4.6,2.3c-0.5,0.2-5.6,2.5-5.6,2.5l-4.9,2.3
						L157.4,148.5z"/>
					<polygon fill="#3D3D3D" points="175.7,140.4 178.6,138.8 180.7,137.9 183.1,136.8 181.1,138 179.3,138.8 					"/>
					<path fill="#3D3D3D" d="M154.2,150.4l0.5-0.3l8.8-4.1l5.8-2.6l8.8-4c0,0-4.9,2.4-5.7,2.8c-0.8,0.4-5.5,2.6-5.5,2.6l-5,2.2
						L154.2,150.4z"/>
					<path fill="#3D3D3D" d="M184.7,135c0,0-4.8,2.2-5,2.3c-0.2,0.1-4.7,2.3-4.7,2.3l-2.3,1l-2.9,1.2l-3.5,1.6l3.3-1.7l3.7-1.6
						c0,0,1.6-0.7,2.1-0.9c0.5-0.2,1.9-1,2.3-1.2c0.4-0.2,2.9-1.4,3.2-1.5s2-0.8,2-0.8L184.7,135z"/>
					<path fill="#3D3D3D" d="M165.6,144.6c-0.2,0.1-3.3,1.3-3.3,1.3l-3.1,1.4l-1.9,1l3.2-1.4L165.6,144.6z"/>
					<polygon fill="#3D3D3D" points="160.3,147.5 156,149.3 157.3,148.6 					"/>
				</g>
			</g>
		</g>
		<g>
			<g>
				<g>
					<path fill="#3D3D3D" d="M192.7,171.8l1.7-3.8l1.7-3.3c0,0,1.2-2.7,1.3-3c0.1-0.3,1.2-2.4,1.3-2.8c0.1-0.3,0.8-1.6,1-2
						c0.2-0.4,0.9-1.7,0.9-1.7s-1.8,4-2.1,4.5c-0.3,0.5-0.9,1.9-1.1,2.3c-0.2,0.4-0.7,1.4-0.8,1.7c-0.2,0.3-0.8,1.6-1,2
						c-0.2,0.4-1.1,2.4-1.2,2.7s-0.3,0.8-0.6,1.3S192.7,171.8,192.7,171.8z"/>
					<path fill="#3D3D3D" d="M192.9,171.9l0.7-1.5l0.1-0.3c0,0,0.9-1.9,1-2.1c0.1-0.2,0.8-1.7,0.9-2.1c0.2-0.3,0.6-1.2,0.7-1.4
						s0.9-1.8,0.9-1.8s0.7-1.6,0.8-1.9s0.8-1.8,0.8-1.8l1.1-2.1c0,0-1.1,2.6-1.2,2.8c-0.1,0.2-1.4,3.1-1.5,3.3
						c-0.1,0.2-1.6,3.2-1.6,3.2l-1.2,2.6L192.9,171.9z"/>
					<path fill="#3D3D3D" d="M191.6,175.3l0.2-0.4l2.5-5.3l1.5-3.2l1.3-2.6c0,0-1.1,2.6-1.2,2.9c-0.1,0.3-1.6,3.3-1.6,3.3l-1.4,2.9
						L191.6,175.3z"/>
					<polygon fill="#3D3D3D" points="196.9,164.5 197.6,162.6 198.2,161.4 198.9,160 198.4,161.3 197.9,162.4 					"/>
					<path fill="#3D3D3D" d="M190.8,177.4l0.2-0.3l2.5-5.3l1.7-3.4l2.5-5.3c0,0-1.3,3-1.6,3.5c-0.2,0.5-1.5,3.3-1.5,3.3l-1.4,2.9
						L190.8,177.4z"/>
					<path fill="#3D3D3D" d="M198.9,158.5c0,0-1.4,2.9-1.4,3c-0.1,0.1-1.3,2.9-1.3,2.9l-0.7,1.3l-0.9,1.7l-1,2.1l0.9-2l1.1-2.2
						c0,0,0.5-1,0.6-1.2c0.1-0.3,0.5-1.2,0.6-1.4s0.8-1.7,0.9-1.9s0.6-1.1,0.6-1.1L198.9,158.5z"/>
					<path fill="#3D3D3D" d="M193.8,170.3c-0.1,0.1-1,1.9-1,1.9l-0.9,1.9l-0.5,1.2l0.9-1.9L193.8,170.3z"/>
					<polygon fill="#3D3D3D" points="192.5,173.7 191.3,176.2 191.6,175.4 					"/>
				</g>
			</g>
		</g>
		<g>
			<g>
				<g>
					<path fill="#3D3D3D" d="M185,272.6c1.2,5.5,3,10.8,5.7,15.8l0.8,1.7l0.4,0.8c0.1,0.3,0.3,0.5,0.5,0.8l1.8,3.2
						c0.6,1.1,1.4,2.1,2,3.1l1.1,1.5c0.4,0.5,0.8,1,1.2,1.5c0,0,0.5,0.6,1.2,1.4c0.7,0.9,1.8,1.9,3,3c0.6,0.5,1.1,1.1,1.7,1.6
						c0.6,0.5,1.1,1,1.6,1.4c1,0.8,1.8,1.5,2.1,1.6c0.6,0.4,2.6,2.1,4.9,3.6c1.1,0.8,2.3,1.5,3.2,2.1c0.9,0.6,1.7,1,2,1.2
						c0.6,0.3,2.1,1.2,3.7,2c1.6,0.9,3.3,1.7,4.3,2.1c0.9,0.4,2.6,1.2,4.2,1.9c1.5,0.7,2.8,1.2,2.8,1.2s-1.1-0.3-2.7-0.8
						c-1.6-0.6-3.8-1.3-5.9-2.3c-4.3-1.9-8.7-4.5-9.6-5.1c-1-0.6-2.7-1.8-4.4-2.9c-1.6-1.2-3.3-2.4-4-3.1c-0.7-0.7-1.9-1.7-3-2.7
						c-1.1-1.1-2-2.1-2.5-2.6c-0.9-1-4.8-5.6-5.6-7.1c-0.2-0.4-0.7-1.1-1.3-2c-0.6-0.9-1.3-2-2-3.2c-0.7-1.1-1.3-2.3-1.8-3.2
						c-0.5-0.9-0.9-1.7-1-1.9c-0.1-0.3-0.3-0.6-0.5-1c-0.2-0.4-0.4-0.8-0.6-1.3c-0.2-0.5-0.4-0.9-0.6-1.4c-0.2-0.5-0.4-1-0.5-1.4
						c-0.4-0.9-1-3.3-1.4-5.4c-0.2-1.1-0.4-2.1-0.5-2.8C185.1,273,185,272.6,185,272.6z"/>
					<path fill="#3D3D3D" d="M184.3,272.7c0.2,1.1,0.4,2.2,0.7,3.3l0.4,1.7l0.5,1.6l0.3,1.2c0,0,0.2,0.5,0.5,1.3
						c0.3,0.8,0.6,1.8,1.1,2.8c0.2,0.5,0.4,1,0.6,1.5c0.2,0.5,0.5,1,0.7,1.4c0.4,0.8,0.7,1.5,0.8,1.7c0.2,0.4,1,2.2,2.2,3.8
						c0.5,0.8,1.1,1.7,1.5,2.4c0.4,0.7,0.9,1.3,1.1,1.6c0.4,0.7,1.2,1.8,2,2.8c0.8,1,1.6,1.9,1.9,2.3c0.1,0.2,0.5,0.7,1.1,1.3
						c0.5,0.7,1.2,1.4,1.9,2.1c0.7,0.7,1.3,1.4,1.8,1.9c0.5,0.5,0.9,0.8,0.9,0.8s0.4,0.3,0.9,0.8c0.5,0.4,1.2,1.1,2,1.7
						c1.6,1.2,3.2,2.5,3.6,2.7c0.4,0.3,2,1.4,3.6,2.4c0.8,0.5,1.6,1,2.2,1.3c0.6,0.4,1,0.6,1,0.6c2.8,1.6,5.6,3.1,8.6,4.4
						c0,0-2.7-1-5.5-2.3c-1.4-0.6-2.7-1.4-3.8-1.9c-1.1-0.6-1.9-1.1-2.1-1.2c-0.4-0.2-3.4-2.1-6.1-4.2c-0.7-0.5-1.4-1.1-2-1.6
						c-0.6-0.5-1.2-1-1.7-1.5c-1-0.9-1.8-1.6-2-1.7c-0.2-0.2-0.9-0.9-1.9-1.9c-0.5-0.5-1-1.1-1.6-1.7c-0.5-0.7-1.1-1.3-1.7-2
						c-0.5-0.7-1.1-1.3-1.6-2c-0.5-0.7-0.9-1.3-1.3-1.8c-0.7-1.1-1.2-1.7-1.2-1.7c-1.1-1.6-2-3.3-3-4.9l-2.6-5.2
						C186.3,282.1,185.1,277.4,184.3,272.7z"/>
					<path fill="#3D3D3D" d="M182.2,258.2c0,0.6,0,1.2,0,1.8c0,8.1,1.4,16.2,4.2,23.7c1.8,4.6,4.2,8.9,6.8,13l1.7,2.4
						c0.6,0.8,1.1,1.6,1.8,2.4c1.3,1.5,2.5,3.1,3.9,4.5c0,0-0.5-0.5-1.3-1.2c-0.8-0.8-1.8-1.9-2.8-3l-0.8-0.8
						c-0.2-0.3-0.5-0.6-0.7-0.9c-0.5-0.6-0.9-1.1-1.3-1.7c-0.8-1-1.4-1.8-1.6-2.1c-0.2-0.3-0.8-1.3-1.5-2.5
						c-0.4-0.7-0.9-1.3-1.2-2.1c-0.4-0.8-0.8-1.6-1.2-2.4c-0.4-0.8-0.8-1.6-1.2-2.4c-0.3-0.8-0.6-1.5-0.9-2.1
						c-0.3-0.6-0.4-1.1-0.6-1.5c-0.1-0.4-0.2-0.6-0.2-0.6c-1.5-4.2-2.6-8.5-3.3-13C181.8,265.9,181.9,262,182.2,258.2z"/>
					<path fill="#3D3D3D" d="M197.9,304.1c0.9,1,2,1.9,3,2.8l1.5,1.3l1.6,1.2c0.7,0.6,1.4,1.3,2.2,1.9l2.3,1.8
						c0.8,0.7,1.7,1.3,2.6,1.9c0.9,0.6,1.8,1.2,2.7,1.8c-0.9-0.4-1.7-0.9-2.6-1.4c-0.9-0.5-1.7-0.9-2.6-1.5l-1.9-1.5
						c-0.7-0.5-1.3-1-1.9-1.5C202.4,308.9,200.1,306.6,197.9,304.1z"/>
					<path fill="#3D3D3D" d="M181.9,248.8l-0.2,1.5c-1,8-0.7,16.2,1,24.1c0.2,1.3,0.6,2.6,0.9,3.9c0.4,1.3,0.7,2.6,1.2,3.8l0.6,1.9
						l0.7,1.9c0.5,1.3,1.1,2.4,1.6,3.6c3.5,7.3,8.4,14,14.3,19.6c0,0-0.2-0.1-0.4-0.4c-0.3-0.3-0.7-0.6-1.1-1.1
						c-0.9-0.9-2.3-2.1-3.5-3.6c-0.6-0.7-1.3-1.4-1.9-2.1c-0.6-0.7-1.1-1.4-1.6-2.1c-1-1.3-1.8-2.3-2.1-2.8c-0.3-0.5-1-1.6-1.8-2.9
						c-0.4-0.7-0.9-1.4-1.3-2.2c-0.4-0.8-0.8-1.6-1.2-2.4c-0.4-0.8-0.8-1.6-1.1-2.3c-0.3-0.7-0.6-1.4-0.8-2
						c-0.5-1.2-0.8-1.9-0.8-1.9c-1.5-4.3-2.6-8.8-3.2-13.4C180.5,263,180.7,255.8,181.9,248.8z"/>
					<path fill="#3D3D3D" d="M219.7,317.5c0,0-0.7-0.4-1.8-1c-1-0.6-2.4-1.4-3.8-2.3c-1.3-0.9-2.7-1.8-3.7-2.6
						c-1-0.8-1.7-1.3-1.9-1.4c-0.3-0.2-2.8-2.1-5.1-4.2c-1.1-1.1-2.3-2.1-3-2.9c-0.8-0.9-1.3-1.4-1.3-1.4c-0.6-0.8-1.3-1.5-1.9-2.3
						l-1.7-2.4c-0.3-0.5-0.7-1-1-1.6l-0.9-1.6c-0.6-1.1-1.3-2.2-1.8-3.3l-2-4.1c-0.3-0.7-0.6-1.4-0.9-2.1c-0.3-0.7-0.6-1.4-0.8-2.1
						c0.3,0.7,0.6,1.4,0.9,2c0.3,0.7,0.6,1.3,0.9,2l2.1,3.9c1.5,2.9,3.1,5.7,5.1,8.3c0,0,0.2,0.2,0.4,0.6c0.1,0.2,0.3,0.4,0.4,0.6
						c0.2,0.2,0.4,0.4,0.5,0.7c0.8,0.9,1.6,2,2.1,2.5c0.4,0.5,1.4,1.3,2.3,2.2c0.9,0.9,1.9,1.7,2.3,2c0.4,0.3,1.8,1.6,3.3,2.8
						c1.5,1.1,2.9,2.2,3.3,2.4c0.3,0.2,1.3,1,2.2,1.7c0.5,0.4,0.9,0.7,1.3,0.9c0.3,0.2,0.6,0.4,0.6,0.4l2,1.3L219.7,317.5z"/>
					<path fill="#3D3D3D" d="M185.5,280.1c0-0.2-0.6-2.3-1-4.4c-0.2-1-0.4-2.1-0.5-2.9c-0.1-0.8-0.2-1.3-0.2-1.3
						c-0.5-2.8-0.8-5.6-0.9-8.3c-0.2-1.7-0.3-3.4-0.4-5.1c-0.1,2.9-0.1,5.7,0.2,8.6C183.2,271.2,184.1,275.7,185.5,280.1z"/>
					<path fill="#3D3D3D" d="M181.7,265.8c-0.3-3.9-0.2-7.7,0.1-11.6c0,1.2,0,2.4,0.1,3.6C181.7,260.5,181.6,263.1,181.7,265.8z"/>
				</g>
			</g>
		</g>
	</g>
</g>
</svg>
