<?xml version="1.0" encoding="utf-8"?>
<!-- Generator: Adobe Illustrator 23.0.0, SVG Export Plug-In . SVG Version: 6.00 Build 0)  -->
<svg version="1.1" xmlns="http://www.w3.org/2000/svg" xmlns:xlink="http://www.w3.org/1999/xlink" x="0px" y="0px"
	 viewBox="0 0 512 512" enable-background="new 0 0 512 512" xml:space="preserve">
<g id="Layer_2" display="none">
	<rect display="inline" fill="#212121" width="512" height="512"/>
</g>
<g id="Layer_1">
	<g>
		<g>
			<g>
				<g>
					<path fill="#3D3D3D" d="M231,380.9l16.6,33.7l3.2,5.6l1.6,2.8c0.1,0.2,0.3,0.5,0.5,0.9l0.6,1c0.4,0.6,0.8,1.2,1.3,1.8
						c3.7,4.7,9.2,8,15.1,9.1c2.2,0.2,4.3,0,6.4-0.4c1-0.2,2-0.5,3-0.8c1-0.3,1.9-0.8,2.9-1.1l-2.5,0.2l4.4-0.2l2.2-0.1
						c0.8,0,1.7-0.1,2.5-0.1c3.4-0.3,6.6-1.2,9.6-2.4c3.9-0.8,7.7-2.4,11-4.7c1.7-1.1,3.3-2.4,4.7-3.9c0.7-0.7,1.4-1.5,2.1-2.3
						c0.6-0.8,1.3-1.7,1.8-2.3l10.9-16.4L332,388l10.9-8.2l18.5-27.9L328,381.8l-17.4,26.3l-2.5,4.6c-0.6,1.2-1.4,2.3-2.2,3.4
						c-1.7,2.1-3.8,4-6.3,5.4c-1.2,0.7-2.6,1.3-3.9,1.7c-1.4,0.5-2.8,0.8-4.3,1c-0.7,0.1-1.5,0.2-2.2,0.2c-0.8,0-1.4,0-2.4,0
						l-5.3-0.2l-0.7,0.1l-1.6,0.1l-0.1,0c-3.1,2-7.2,2.9-11.5,1.9c-2.1-0.4-4.2-1.3-6.1-2.6c-1-0.6-1.9-1.4-2.7-2.3
						c-0.9-0.9-1.6-1.8-2.3-2.6l-7.2-26.5l-25.4-35.4l6.3,22.5"/>
				</g>
			</g>
		</g>
		<g>
			<g>
				<g>
					<polyline fill="#3D3D3D" points="203,323.2 205.8,328.9 207.9,332.7 210.8,336.2 212.5,339.5 214.1,342.4 215.8,343.8 
						216.2,346.1 219,351 217.1,343.7 214.5,339.1 210.4,333.2 207.3,329.6 206.1,325.1 201.8,319.2 202.8,322.9 					"/>
				</g>
			</g>
		</g>
		<g>
			<g>
				<g>
					<polyline fill="#3D3D3D" points="276.8,422.7 273.5,414.6 270.9,409.2 267.3,404.1 265.3,399.4 263.3,395.3 261.1,393.1 
						260.7,389.9 257.3,382.9 259.3,393.1 262.5,399.8 267.5,408.3 271.5,413.5 272.8,419.8 278.1,428.5 277,423.1 					"/>
				</g>
			</g>
		</g>
		<g>
			<g>
				<g>
					<polyline fill="#3D3D3D" points="289.2,424.6 289.2,418.8 289,414.8 288.1,410.8 288.1,407.4 287.9,404.4 287.1,402.5 
						287.7,400.5 287.5,395.3 286.1,402.1 286.3,406.9 287.2,413.4 288.3,417.6 287.5,421.8 288.5,428.4 289.2,424.9 					"/>
				</g>
			</g>
		</g>
		<g>
			<g>
				<g>
					<polyline fill="#3D3D3D" points="303.3,421.3 305.4,412.7 306.4,406.7 306.5,400.3 307.6,395.2 308.4,390.6 307.9,387.4 
						309.5,384.6 310.9,376.8 306.4,386.5 305.1,393.8 304.2,403.9 304.4,410.6 301.7,416.5 300.9,426.8 303.2,421.8 					"/>
				</g>
			</g>
		</g>
		<g>
			<g>
				<g>
					<path fill="#3D3D3D" d="M302.9,441.1c0.1-0.3,0.2-0.6,0.3-0.9l0.2-0.9l0.1-1l0-0.8l0.2-3l0.4-6.1l0.2-2.5l-2.8-0.2l-2-0.1h-9.7
						l-10.1,1.7l-4.8-0.3l-1.3-0.1l-0.1,1.4l-0.2,3.4v3.7v1.9l0,0.9c0,0.4,0,0.7,0.1,1.1c0.8,1.9,2.3,3.2,3.8,3.9
						c0.7,1.5,2.1,2.9,4,3.7c0.3,0,0.6,0.1,0.9,0.1l0.8,0h1.6h3.2h6.3l-8.2-2.1l-2-0.5l-1-0.3l-0.5-0.1c-0.1-0.1-0.3-0.1-0.4-0.2
						c-1-0.4-1.8-1.1-2.3-1.9c-0.5-0.4-0.9-0.9-1.2-1.4c-0.3-0.5-0.5-1.1-0.6-1.7c-0.1-0.5,0-1.6,0-2.6v-3l-0.4-4.9l-2.4,2.4
						l11.1-0.9l10.4-2.2l5,1.3l-0.6-0.6l-1.3,5.1l0.4,4.1c0.1,0.7,0.1,1.2,0.1,1.8c0,0.6-0.1,1.1-0.3,1.7c-0.8,2.2-3,4.1-5.6,4.4
						c1.4,0.3,3,0.3,4.5-0.3c1.5-0.6,3-1.7,4-3.2"/>
				</g>
			</g>
		</g>
		<g>
			<g>
				<g>
					<path fill="#3D3D3D" d="M298.2,463.9l3.1,13.7l1.6,6.8l0.8,3.4l0.4,1.7l0.1,0.4l0,0l0,0c-0.8,0.2,7-2,3.7-1.1l0,0l0,0
						c0,0,0.1,0,0.1,0l0.1,0c0.1,0,0.1,0,0,0c-0.1-0.1,0-0.1,0,0c0,0.1-0.1,0.1,0.2-0.2l0,0l0,0l3.2-2.3l0,0l0,0l0-0.1l-0.1-0.1
						l-0.2-0.2l-0.4-0.5l-0.7-1l-2.8-3.9l-5.6-7.8l-0.4-0.4l-0.2-0.2L301,472l-0.1-0.1c0,0,0,0-0.1-0.1c-0.9-1.1-2.1-1.9-3.4-2.3
						c-2.6-0.9-5.5-0.2-7.3,1.7c-0.5,0.5-0.8,1-1.1,1.5l-0.2,0.4l0,0.1l-0.1,0.3l-0.4,1.2l-0.8,2.4l-1.6,4.8l-0.8,2.4l-0.1,0.3
						l0,0.1l0.9,0.5c0.1,0.1,0.1,0.1,0.1,0.1c0,0,0-0.2,0-0.1c0,0-0.1,0.1-0.1,0.1c0,0,0.1,0,0.1,0c0,0,0.1,0,0.1,0l0.7,0l0-0.5l0-2
						l0-4.1l0-4.1l0-2l0-1l0-0.3c0,0,0-0.1,0-0.2l0-0.3c0-0.4-0.1-0.8-0.3-1.1c-0.5-1.4-1.6-2.4-3-2.9c-0.7-0.3-1.4-0.4-2.1-0.3
						c-0.4,0-0.7,0.1-1.1,0.2c-0.2,0-0.3,0.1-0.5,0.2l-0.2,0.1l-3.5,1.3l-6.9,2.6l-3.9,3.3l-1,0.8c-0.2,0.2-0.5,0.4-0.8,0.5
						c-0.7,0.2-1.6-0.1-2.3-0.8c-0.1-1,0.3-1.8,1-2.2c0.7-0.5,1.3-1.1,2-1.6l4.1-3.1l13.8-20.8l-12.5,11.2l-6.3,5.6l-3.1,2.8
						c-1.1,1-2,1.8-3.2,3c-0.8,1.3-1.2,3.1-1,4.7c0.2,1.7,0.9,3.2,1.9,4.4c1,1.2,2.4,2.1,4.1,2.5c0.8,0.2,1.7,0.3,2.5,0.2
						c0.4,0,0.8-0.1,1.2-0.2l0.6-0.2l0.5-0.2l5.5-2.1l5.5-2.1l2.8-1l1.4-0.5l0.7-0.3l0.2-0.1l0,0l-0.1,0l-0.1,0
						c-0.2,0-0.3,0.1-0.5,0.1c-1,0.1-2-0.3-2.6-1c-0.3-0.3-0.6-0.7-0.7-1.2c-0.1-0.2-0.1-0.4-0.1-0.7l0-0.2l0-0.1c0,0,0,0,0,0l0,0.2
						l0.6,3.9l1.1,7.9l0.4,2.5c0.2,1.3,1.1,2.6,2.1,3.3c1.1,0.8,2.3,1.1,3.6,1c1.3-0.1,2.6-0.8,3.4-1.7c0.2-0.2,0.4-0.5,0.5-0.7
						c0.1-0.1,0.2-0.3,0.2-0.4l0-0.1l0.2-0.5l0.8-1.8l3.1-7.3l0.4-1.3l0.1-0.3c0,0,0,0-0.1,0c0,0-0.1,0-0.2,0
						c-0.2-0.1-0.2-0.4,0-0.4c0,0,0.1,0,0.2,0c0,0,0.1,0,0.1,0c0.1,0,0.2,0.1,0.2,0.2l1,0.9l1.9,1.8l7.8,7.1l0.9,2.4l0.4,1.1
						c0.2,0.3,0.5,0.5,0.9,0.5c0.4,0,0.9-0.2,1.2-0.6c0.2-0.2,0.3-0.5,0.3-0.8c0-0.1,0-0.3,0-0.4l0-0.3l-0.1-2.6l-0.3-10.3
						L297.2,445l0.7,17.5"/>
				</g>
			</g>
		</g>
		<g>
			<g>
				<g>
					<path fill="#3D3D3D" d="M272.4,258.5c-1.4-1.8-3.3-3.1-5.4-3.9c-2.2-0.8-4.6-1-6.9-0.5c-3.1,0.8-5.9,2.8-7.7,5.5
						c-1.4,3.1-1.5,6.5-0.4,9.3c0.4,2.4,1.5,4.7,3.3,6.5c0.8,0.8,1.8,1.4,2.8,1.9c1,0.5,2.1,0.8,3.2,1c1.5-0.2,2.9-0.8,4.1-1.5
						c1.4,0.2,2.9,0.1,4.4-0.4c1.6-1.1,2.9-2.6,3.8-4.3c0.9-1.7,1.4-3.6,1.4-5.6c-0.6,2.5-2,4.6-3.7,6c-1.7,1.4-3.8,2-5.6,2
						c-2.4,0.7-5.2,0.3-7.3-1.2c-1.5-0.8-2.8-2.2-3.5-3.9c-0.8-1.7-1-3.6-0.6-5.5c0.1-2.6,1.5-5.3,3.9-7.2c2.9-0.7,5.8-0.1,7.8,1.3
						c1.9,0.4,3.7,1.3,5.1,2.9c1.4,1.5,2.3,3.6,2.6,5.8c0.6-2.3,0.4-5-0.8-7.5"/>
				</g>
			</g>
		</g>
		<g>
			<g>
				<path fill="none" d="M288.5,263.1c-0.2-3.4-1-6.6-2.2-9.5c-2.4-5.8-6.5-10.5-11.6-13.1h0c-0.2-0.1-0.4-0.2-0.5-0.3
					c-2.7-1.3-5.8-2-8.9-2c-2.6,0-5.1,0.5-7.5,1.4c-2.3,0.9-4.4,2.2-6.3,3.8c-2.4,2-4.4,4.6-6,7.5c-0.7,1.3-1.3,2.6-1.8,4
					c-0.9,2.6-1.5,5.4-1.7,8.3c-0.1,0.7-0.1,1.4-0.1,2.2c0,1.3,0.1,2.6,0.2,3.9c0.5,4.2,1.9,8.2,3.9,11.5c0.4,0.6,0.7,1.2,1.1,1.7v0
					c3.4,4.8,8.1,8.3,13.5,9.5c1.5,0.4,3.1,0.5,4.7,0.5c2.3,0,4.6-0.4,6.7-1.1c0.6-0.2,1.3-0.5,1.9-0.8c0.6-0.3,1.1-0.5,1.6-0.8
					c0.2-0.1,0.3-0.2,0.5-0.3c0.1-0.1,0.3-0.2,0.4-0.2s0.3-0.2,0.4-0.2c0.5-0.3,1-0.7,1.5-1.1c0.3-0.2,0.5-0.4,0.8-0.7
					c0.6-0.5,1.1-1,1.7-1.6c0.2-0.2,0.5-0.5,0.7-0.8c0.2-0.2,0.4-0.4,0.6-0.7c0.2-0.2,0.4-0.5,0.6-0.8c0,0,0-0.1,0.1-0.1
					c0.2-0.3,0.4-0.5,0.6-0.8c0,0,0.1-0.1,0.1-0.1c0.2-0.3,0.4-0.6,0.6-0.9c0.2-0.3,0.4-0.6,0.6-0.9c0.1-0.1,0.1-0.2,0.2-0.3
					c0.4-0.7,0.7-1.4,1.1-2.1c1.8-3.9,2.9-8.3,2.9-13.1C288.6,264.6,288.6,263.8,288.5,263.1z M263.3,277.2
					c-5.9,0-10.6-4.8-10.6-10.6c0-5.9,4.8-10.6,10.6-10.6c5.9,0,10.6,4.8,10.6,10.6C273.9,272.4,269.1,277.2,263.3,277.2z"/>
				<g>
					<path fill="#3D3D3D" d="M281.4,278.5L281.4,278.5l0.3-0.4l-0.5,0.7c-0.3,0.4-0.6,0.8-0.9,1.2c-0.3,0.4-0.6,0.7-1.1,1.3l0.2-0.3
						c-4.7,5.3-11.4,7.5-17.2,5.8c-4.2-0.8-8.1-3.6-10.8-7.5l1,3.1v0v-1.6l-1-1.6l-0.6-0.9c-1.9-1.9-3.5-4.3-4.6-7
						c-0.3-0.7-0.6-1.4-0.8-2.1c-0.3-0.7-0.4-1.4-0.6-2.2c-0.2-0.7-0.4-1.5-0.5-2.2c-0.1-0.8-0.2-1.5-0.3-2.3
						c0.7-4.9,2.7-9.6,5.8-13.3c2.6-3.5,6.1-6.2,10.1-7.4c2.2-1.9,5.2-3.3,8.6-3.9c2.1,1.1,3.9,2.6,5.2,4.2l0.9,0.2l0,0l-0.9-0.2
						c0.6,0.7,1.2,1.5,1.7,2.2c3,2.1,5.4,4.9,7.1,8.2c1.7,3.3,2.7,6.9,3,10.7c0.9-4.3,0.9-9-0.5-13.7c-1.4-4.7-4.1-9.4-8.5-13
						l-2-0.5l0,0l2.1,0.5c-0.8-0.7-1.5-1.2-2.3-1.7c-0.8-0.5-1.6-1-2.4-1.4c-4.8-1.3-9.9-1.2-14.6,0.3c-2.3,0.7-4.6,1.8-6.6,3.1
						c-2,1.3-3.8,2.9-5.5,4.6c-2,2.5-3.6,5.2-4.8,8c-0.6,1.4-1.1,2.9-1.4,4.3c-0.4,1.5-0.7,2.9-0.9,4.4c-0.2,1.5-0.3,3-0.3,4.4
						l0.1,2.2c0,0.7,0.2,1.5,0.3,2.2c0.3,2.9,1,5.7,2.1,8.4c1.5,2.9,3.4,5.4,5.7,7.5l-0.2-0.7l0,0l0.1,0.6l0.1,0.1
						c3,2.9,6.6,5,10.2,6c2.4,2.2,5.4,3.9,8.9,4.7c1.7,0.4,3.6,0.6,5.5,0.6c0.9,0,1.9-0.1,2.9-0.3c1-0.2,1.9-0.3,2.9-0.6
						c0.4-0.3,0.9-0.6,1.2-0.8c0.4-0.3,0.9-0.7,1.3-1c0.8-0.7,1.5-1.3,2.2-2c0.7-0.7,1.3-1.5,2-2.2c0.6-0.7,1.2-1.6,1.7-2.3l0.1-0.2
						c0.2-0.3,0.5-0.9,0.8-1.4c0.3-0.6,0.6-1.1,0.8-1.6l-0.1,0.2c0.1-0.2,0.2-0.3,0.3-0.5c0.1-0.1,0.1-0.2,0.1-0.3l0.2-0.6l0.5-1.1
						c0.3-0.8,0.6-1.6,0.8-2.3c0.4-1.6,0.8-3.2,1-4.8c0.4-3.2,0.3-6.4-0.2-9.4c-1,5.8-3.5,10.9-7.1,14.5"/>
				</g>
				<g>
					<path fill="#3D3D3D" d="M271.3,275.7c1.8-1.4,3.1-3.3,3.9-5.4c0.8-2.2,1-4.5,0.5-6.9c-0.8-3.1-2.8-5.9-5.5-7.7
						c-3.1-1.4-6.5-1.5-9.3-0.4c-2.4,0.4-4.7,1.5-6.5,3.3c-0.8,0.8-1.4,1.8-1.9,2.8c-0.5,1-0.8,2.1-1,3.2c0.2,1.5,0.8,2.9,1.5,4.1
						c-0.2,1.4-0.1,2.9,0.4,4.4c1.1,1.6,2.6,2.9,4.3,3.8c1.7,0.9,3.6,1.4,5.6,1.4c-2.5-0.6-4.6-2-6-3.7c-1.4-1.7-2-3.8-2-5.6
						c-0.7-2.4-0.3-5.2,1.2-7.3c0.8-1.5,2.2-2.8,3.9-3.5c1.7-0.8,3.6-1,5.5-0.6c2.6,0.1,5.3,1.5,7.2,3.9c0.7,2.9,0.1,5.8-1.3,7.8
						c-0.4,1.9-1.3,3.7-2.9,5.1c-1.5,1.4-3.5,2.4-5.8,2.6c2.3,0.6,5,0.4,7.5-0.8"/>
				</g>
			</g>
		</g>
		<g>
			<g>
				<g>
					<path fill="#3D3D3D" d="M272.4,258.5c-1.4-1.8-3.3-3.1-5.4-3.9c-2.2-0.8-4.6-1-6.9-0.5c-3.1,0.8-5.9,2.8-7.7,5.5
						c-1.4,3.1-1.5,6.5-0.4,9.3c0.4,2.4,1.5,4.7,3.3,6.5c0.8,0.8,1.8,1.4,2.8,1.9c1,0.5,2.1,0.8,3.2,1c1.5-0.2,2.9-0.8,4.1-1.5
						c1.4,0.2,2.9,0.1,4.4-0.4c1.6-1.1,2.9-2.6,3.8-4.3c0.9-1.7,1.4-3.6,1.4-5.6c-0.6,2.5-2,4.6-3.7,6c-1.7,1.4-3.8,2-5.6,2
						c-2.4,0.7-5.2,0.3-7.3-1.2c-1.5-0.8-2.8-2.2-3.5-3.9c-0.8-1.7-1-3.6-0.6-5.5c0.1-2.6,1.5-5.3,3.9-7.2c2.9-0.7,5.8-0.1,7.8,1.3
						c1.9,0.4,3.7,1.3,5.1,2.9c1.4,1.5,2.3,3.6,2.6,5.8c0.6-2.3,0.4-5-0.8-7.5"/>
				</g>
			</g>
		</g>
		<g>
			<g>
				<g>
					<path fill="#3D3D3D" d="M275.3,239.3l-0.7,0.4l-0.5,0.3l-0.1,0.1l-0.2,0.1l0.2,0.1l0.3,0.1l0.2,0.1l0,0l0,0l0,0l0,0l0,0
						l0.1-0.1l0.2-0.3l0.1-0.2c0.1-0.1,0.2-0.1,0.2-0.2l0.4-0.6c-0.2,0.3-0.5,0.6-0.7,0.7c-0.1,0.1-0.2,0.3-0.3,0.4l-0.1,0.2
						l0.1-0.1l0,0l0.1,0l-0.6-0.2l0,0l0,0.1l0.4-0.4c0.2-0.1,0.3-0.1,0.4-0.2c0.2-0.2,0.5-0.4,0.7-0.6
						C275.6,239.2,275.5,239.2,275.3,239.3"/>
				</g>
			</g>
		</g>
		<g>
			<g>
				<g>
					<path fill="#3D3D3D" d="M363.1,186.4c-3.7-2.8-8-4.4-12.3-5.1c-1.1-0.2-2.2-0.3-3.4-0.3c-1.1,0-2.3,0-3.6,0.1
						c-2.6,0.3-5.2,1.2-7.2,2.2c-4,2-6.9,4.1-10,6.2c-3,2.1-5.8,4.2-8.7,6.3c-7.5,6.3-14.6,12.9-21.6,18.9l-0.6,0.7
						c-0.1,0.2-0.2,0.3-0.3,0.5l-0.5,0.6l-0.6,0.6c-0.8,0.8-1.7,1.7-2.6,2.6l-5.4,5.2l-10.9,10.4l-1.7,1l-0.3,0.2l-0.5,0.6l-1,1.2
						l-2.4,2.9l3.6,2.1c4.4,2.6,7.5,7,9.2,11.8l0.8,2.4l3,0.2c0.9,0.1,1.9,0.2,2.8,0.2c7.7,0.2,15.4-0.5,22.9-2
						c4.6-2.6,8.8-5.6,12.7-8.8c5.1,0,10.2-0.1,15.5-0.9c5.9-3,11.6-6.8,16.3-11.8c2.4-2.5,4.5-5.2,6.3-8.1c1.8-2.8,3.4-5.7,4.8-8.8
						c-1.4,1.8-2.8,3.5-4.3,5.1c-0.8,0.8-1.5,1.5-2.3,2.3c-0.8,0.8-1.6,1.5-2.4,2.2c-3.3,2.8-6.9,4.9-10.5,6.6
						c-3.7,1.7-7.5,2.8-11.3,3.6c-3.8,0.8-7.6,1.2-11.6,1.6l-2,0.7l-2,0.7c-1.3,0.4-2.5,0.8-3.8,1.2c-2.6,0.8-5.2,1.4-7.8,1.9
						c-5.3,1.1-10.7,1.6-16.1,1.7c-2.2,0.2-4.4,0.4-6.6,0.5l6.7,4.8c-3.3-6.8-8.8-12.6-15.9-15.8l2.1,9.3l1-1.6l-1.6,1.5l16.3-13
						c1.8-1.9,3.7-3.8,5.5-5.8c0.9-1,1.9-2.1,2.7-3.2l2.4-3.1l9.4-12.6c4.6-2.3,9.2-4.6,13.8-6.7c2.3-1.1,4.6-2.1,6.9-3.1
						c2.3-0.9,4.6-1.8,6.6-2.2c0.6-0.4,1.2-0.8,1.7-1.1c0.5-0.3,1.1-0.5,1.8-0.7c1.4-0.4,3.1-0.5,4.7-0.4c3.3,0.2,6.6,1.2,9.1,3.2
						c1.3,1,2.2,2.3,3,3.8c0.7,1.5,1.2,3.3,1.3,5.1c0.3,3.7-0.5,7.7-1.6,11.5c1.3-1.7,2.5-3.5,3.6-5.5c1.1-2,2-4.1,2.5-6.5
						c0.5-2.4,0.7-5,0.2-7.8c-0.2-0.7-0.3-1.4-0.5-2.1c-0.2-0.7-0.5-1.4-0.8-2c-0.6-1.3-1.4-2.6-2.3-3.8"/>
				</g>
			</g>
		</g>
		<g>
			<g>
				<g>
					<path fill="#3D3D3D" d="M357.6,234.7c-4.2-1-8.3-1.6-12.4-1.9l-1.4-0.1l-1.8,1.1c-6.2,3.6-13,5.9-20.5,7.9
						c-7.1,2.4-14.4,4-21.9,4.6c-4.2,1.2-8.6,2-13,2.6l-8,1.1l3.6,5.3c1.6,2.3,2.8,5.1,3.5,8l0.7,2.6l1.6,0.1l1.4,0.1l19.7,5.6
						c6.1,1.3,12.1,2.7,18.4,3.8c2.2-0.4,4.3-0.8,6.4-1.3c2.1-0.5,4.2-1.1,6.2-1.7c3.9,1.7,7.9,3.3,12.3,4.5
						c2.8-0.2,5.9-0.6,8.8-1.8c3-1.1,5.7-3,7.9-5.3c2.1-2.2,3.8-4.8,5.1-7.5c1.3-2.7,2.2-5.8,2.3-9.1c-0.5,2.1-1.4,4-2.4,5.6
						c-1,1.6-2.2,3.1-3.5,4.4c-2.6,2.6-5.6,4.6-8.7,5.5c-3.1,0.9-6.2,0.6-9.2,0l-1.2-0.2c-0.4-0.1-0.7-0.2-1.1-0.3
						c-0.5-0.1-0.9-0.2-1.2-0.3l-1.2-0.3c-1.6-0.5-3.2-1-4.8-1.5l-3.6-0.2l-3.6-0.2c-2.3-0.2-4.5-0.4-6.8-0.8
						c-4.6-0.7-9.4-1.8-14.2-2.9l-25.4-3.6l3.8,4.5c-0.5-3.8-1.6-7.4-3.3-10.8l-4,5.7c1.6-0.1,3.2-0.1,4.7-0.2
						c9-1.7,17.6-4.6,25.4-8.5c4.2,0,8.6-0.4,12.9-0.8c4.3-0.5,8.7-1.2,13.2-2.4c1.8-1.2,3.5-2.5,5.1-3.8l-2.5,0.7
						c5.6-0.5,11.3-0.6,16.6,0.6c2.6,0.6,5.2,1.5,7.3,3.1c1,0.8,1.9,1.8,2.5,2.9c0.6,1.2,0.9,2.5,1,3.9c0.5-1.7,0.7-3.6,0.3-5.5
						c-0.4-1.9-1.5-3.8-2.9-5.4c-2.8-3.2-6.4-5.3-10-7"/>
				</g>
			</g>
		</g>
		<g>
			<g>
				<g>
					<path fill="#3D3D3D" d="M351.8,292.2c-4,0.4-8,0.7-12,0.9c-2.7,0.3-5.4,0.5-8.1,0.6c-2.8,0.6-5.6,1-8.4,1.3
						c-2.3-0.3-4.6-0.7-6.8-1.2l-3.1-0.6l-3-0.8c-1.4,0.1-2.9,0.1-4.3,0.2c-1.2-0.9-2.2-1.9-3.3-2.8c-0.8-0.3-1.6-0.7-2.4-1.1
						c-0.8-0.4-1.6-0.7-2.4-1.1c-1.5-0.9-3.1-1.7-4.6-2.6c3.3,3.4,6.9,6.7,11.1,9.4c3.3,1.1,6.7,2.1,10.2,2.7
						c4.7,0.5,9.4,0.5,14,0.2c3-0.6,6-1.4,8.8-2.2c2.9,0.5,5.8,0.9,8.8,1.2c2.3-0.6,4.6-1.1,6.8-1.8c1.1-0.3,2.3-0.6,3.4-1.1
						c1.1-0.5,2.3-1.1,3-2.1c-1.1,0.7-2.3,0.8-3.5,0.9c-1.2,0-2.4-0.1-3.6-0.2"/>
				</g>
			</g>
		</g>
		<g>
			<g>
				<g>
					<polyline fill="#3D3D3D" points="350.7,273.2 350.7,273.2 350.7,273.2 350.7,273.2 350.7,273.2 350.7,273.2 350.7,273.2 
						350.7,273.2 350.7,273.2 350.7,273.2 350.7,273.2 350.7,273.2 350.7,273.2 350.7,273.2 350.7,273.2 350.7,273.2 					"/>
				</g>
			</g>
		</g>
		<g>
			<g>
				<g>
					<path fill="#3D3D3D" d="M328.5,325.1c-2.8-5.1-5.8-10-8.9-14.8c-3.1-4.8-6.4-9.5-9.7-14.1c-4-4.9-8.1-9.7-12.2-14.4l-0.7-0.8
						l-0.9-0.5c-1.1-0.7-2.2-1.4-3.2-2.1c-1.5-0.7-3.1-1.5-4.6-2.3l-6.8-3.8l-1.7,5.4c-1.4,4.4-4.3,8.6-8.7,11.2l-2.6,1.5l0.9,1.8
						l0.6,1.1c1.6,6.4,3.7,12.8,6.3,18.9c2.6,5.5,5.6,10.8,9.1,15.8c3.3,2.5,6.8,4.7,10.3,6.8c1.4,3.8,2.8,7.6,4.9,11.5
						c2,1.8,4.2,3.6,6.8,5c2.5,1.4,5.4,2.3,8.2,2.8c2.8,0.4,5.5,0.5,8.4,0.3c1.4-0.1,2.9-0.4,4.5-1c1.5-0.6,3.3-1.4,4.7-3.2
						c-1.1,1-2.3,1.6-3.3,1.9c-1.1,0.3-2.1,0.4-3.1,0.5c-1.9,0-3.7-0.2-5.4-0.6c-3.3-0.8-6.5-2.1-9-3.9c-2.5-1.8-4.4-4.2-6-6.8
						c-1.6-2.6-3-5.4-4.3-8.3l-2.2-2.6l-2.2-2.7c-1.4-1.7-2.7-3.5-3.9-5.3c-2.5-3.7-4.8-7.5-6.8-11.5c-4.1-6.5-7.6-13.4-10.4-20.7
						l-3,5.7c5.2-2.2,9.4-6.1,12.2-10.4c0.6-1.1,1.1-2.3,1.5-3.5l-4.4,0.8c3.1,1.7,6.2,3.1,9.4,4.3l-0.2-0.2
						c3.1,2.4,6.3,4.8,9.4,7.3c3.6,7.4,7,14.9,10,22.4c4.4,4.7,8.6,9.5,12.3,14.7c1.9,2.6,3.6,5.2,5,8c0.7,1.4,1.3,2.8,1.6,4.3
						c0.3,1.4,0.3,3-0.4,4.2c0.6-0.5,1.2-1.2,1.5-2c0.4-0.8,0.6-1.7,0.7-2.6c0.2-1.8,0.1-3.7-0.1-5.5c-0.5-3.7-1.4-7.2-2.5-10.7"/>
				</g>
			</g>
		</g>
		<g>
			<g>
				<g>
					<polyline fill="#3D3D3D" points="286.4,279.4 287.5,280.8 288.3,281.8 289.3,282.6 290,283.4 290.6,284.1 291.2,284.5 
						291.4,285.1 292.5,286.3 291.5,284.4 290.5,283.2 289,281.8 287.9,281 287.3,279.8 285.8,278.3 286.3,279.3 					"/>
				</g>
			</g>
		</g>
		<g>
			<g>
				<g>
					<path fill="#3D3D3D" d="M303.2,337.7c-1.6-2-3.2-4.1-4.7-6.2c-1.6-2.2-3-4.2-4.4-6.4c-2.7-4.3-5.1-8.9-7.2-13.6
						c-3.2-6.2-5.9-12.7-8-19.4l-1.2-2.4l-3.4-6.7l-4.2,2.8c-2.3,1.5-5.4,2.4-8.5,2.3l-5.1-0.1l0.2,3.6c0.2,3,0.5,6,0.9,9
						c-0.3,3.2-0.4,6.3-0.5,9.5c-0.1,3.2-0.1,6.4,0,9.6c0.5,5.9,1.6,11.7,3.4,17.4c2.4,3.3,5.1,6.3,7.9,9c0.5,3.9,1.2,7.8,2.4,11.7
						c1.5,2.1,3.1,4.1,5.1,6c2,1.9,4.2,3.6,7.2,4.7c2.9,1.1,6.6,1.2,9.5,0c3-1.2,5.3-3.1,7.1-5.3c-1.5,1.1-3.1,2.1-4.9,2.8
						c-1.7,0.7-3.6,1-5.4,0.8c-0.9-0.1-1.7-0.3-2.5-0.5c-0.8-0.3-1.5-0.6-2.2-1.1c-0.7-0.4-1.2-1-1.8-1.4c-0.5-0.6-1.1-1.1-1.5-1.7
						c-1.8-2.4-3.1-5.1-4.2-7.9c-1-2.8-1.9-5.7-2.5-8.7c-1-1.9-2-3.7-2.8-5.6l-0.6-1.4l-0.5-1.4c-0.4-1-0.7-1.9-1-2.9
						c-1.3-3.9-2.1-8-2.6-12.2c-1-4.7-1.6-9.6-2-14.6c-0.2-2.6-0.4-5-0.5-7.5c-0.1-2.5-0.2-5-0.1-7.5l-4.8,3.4
						c2.3,0.4,4.6,0.4,6.8,0.2c2.2-0.5,4.3-1.3,6.2-2.4l-2.9-1.5c2.9,5.5,6.2,10.8,9.8,15.7c1.3,7.7,3.4,15.5,6.5,23.1
						c1.9,2.2,4,4.2,5.9,6.2c2,2,4,3.9,6.2,5.8l-0.7-1.4c1,3.2,1.6,6.5,1.7,9.8c0,3.3-0.6,6.7-2.6,9.5c2.7-1.9,4.8-5,6-8.4
						c1.3-3.4,1.9-7.1,2.2-10.7"/>
				</g>
			</g>
		</g>
		<g>
			<g>
				<g>
					<path fill="#3D3D3D" d="M261.8,358.9c-2.1,1.6-5.1,2.6-7.2,2.4c-0.6,0-1.1-0.2-1.6-0.4l-0.7-0.3c-0.2-0.2-0.5-0.3-0.7-0.4
						c-0.9-0.7-1.8-1.6-2.6-2.6c-2.4-2.8-4.2-6.7-5.5-10.7c-1-2-2-4.1-2.9-6.2c-0.8-2.2-1.6-4.4-2.3-6.6c-0.2-3.8-0.2-7.6,0.1-11.3
						c0.1-3.4,0.3-6.9,0.8-10.2c-0.5-2.3-0.9-4.7-1.3-7.1c0.6-1,1.3-2,2-3c0.7-1,1.3-2,2.1-2.9c1.7-5.5,4-10.9,7-15.8
						c-2.8,2.7-5.4,5.7-7.8,8.9c-2.4,3.3-4.5,6.8-6.4,10.5c-0.7,2.9-1.2,5.8-1.6,8.7c-0.4,2.9-0.6,5.8-0.7,8.7
						c0.3,7.9,1.5,15.7,3.8,23.1c2.1,4.7,4.7,9.2,8.1,12.8c0.7,2.3,1.6,4.5,3.2,6.6c0.4,0.5,0.9,1,1.3,1.5c0.5,0.5,1,0.9,1.6,1.3
						c1.2,0.8,2.6,1.4,4.1,1.7c2.5-0.2,4.7-1,6.5-2.2c1.9-1.1,3.5-2.6,4.8-4.3c2.6-3.4,3.7-7.4,4-11.3c-1.7,3.8-4.3,7.1-7.4,8.8"/>
				</g>
			</g>
		</g>
		<g>
			<g>
				<g>
					<path fill="#3D3D3D" d="M231.1,266.8c-5.7,0.9-11.3,2-17,3.2c-5.6,1.2-11.3,2.5-17,4.1c-3.8,1.3-7.6,2.7-11.5,4.6
						c-1.9,0.9-3.9,2-5.9,3.4c-2,1.3-4,3.1-5.7,5.2c-0.8,1.2-1.3,2.3-1.8,3.4c-0.3,0.6-0.5,1.1-0.7,1.7c-0.2,0.6-0.4,1.1-0.6,1.7
						c-0.7,2.3-1.3,4.6-1.6,6.9c-0.3,2.4-0.3,4.8,0,7.3c0.4,2.4,1.2,4.9,2.8,7c1,1.8,2.3,3.5,3.9,4.7c1.6,1.2,3.4,2.1,5.2,2.7
						c3.6,1.2,7.2,1.7,10.7,1.8c3.2-0.1,6.4-0.4,9.5-0.9c3.1-0.5,6.2-1.3,9.2-2.2c3.5-2.6,6.6-5.5,9.2-8.7c4-0.8,8.1-2.2,12-4
						c3.9-3.7,7.3-7.9,10.1-12.4c1.5-2.2,2.8-4.5,4-6.9c0.6-1.2,1.2-2.4,1.7-3.6l0.4-0.9l0.2-0.4l0.3-0.8c0.4-1,0.7-2.1,0.9-3.2
						c-0.5,1.3-1.2,2.7-1.9,3.7l-1.7,2c-1.1,1.3-2.3,2.6-3.5,3.9c-2.4,2.5-4.9,4.8-7.5,6.9c-2.6,2.1-5.3,3.9-8.1,5.4
						c-2.8,1.5-5.6,2.8-8.5,3.6c-3.4,2.4-7.1,4.1-11.1,5.4c-4,1.3-8.3,2.1-12.5,2.5c-2.8,0.5-5.6,0.8-8.2,0.7
						c-2.6-0.1-4.9-0.6-6.4-1.6c-0.7-0.5-1.4-1-1.9-1.7c-0.5-0.7-0.8-1.7-1-2.9c-0.4-2.3,0-5.1,0.8-7.9c0.3-1.9,0.8-3.8,1.4-5.6
						c0.6-1.9,1.5-3.6,2.8-5.2c2.5-3.2,6.1-5.9,9.7-8.3c8.3-1.1,16.6-1.4,24.8-1.5c8.4-3.3,16.9-6.3,25.5-9l-2.1-1.5
						c0.5,2.1,1.2,4.2,2,6.1c0.4,1,0.9,1.9,1.5,2.8c0.3,0.5,0.5,0.9,0.8,1.3l0.4,0.7c0.1,0.2,0.2,0.3,0.4,0.4
						c-0.1-0.2-0.1-0.3-0.1-0.5l-0.2-0.8c-0.1-0.5-0.2-1-0.3-1.5c-0.2-1-0.3-2-0.4-3.1c-0.1-2-0.1-4,0.2-5.9l0.3-2l-3.3-0.1
						c-2.9-0.1-5.8-0.2-8.7-0.3"/>
				</g>
			</g>
		</g>
		<g>
			<g>
				<g>
					<path fill="#3D3D3D" d="M228,236.6c-5.2-2.8-10.4-5.4-15.7-7.9c-5.3-2.5-10.7-4.9-16.4-7c-2.3-0.7-4.7-1.4-7.2-1.9l-0.7-0.1
						h-0.7h0l1.4,0.2c-3-0.6-6.2-1.1-9.8-1.1c-3.5,0-7.4,0.7-11,2.3c-0.6,0.4-1.2,0.8-1.7,1.2c-0.3,0.2-0.5,0.4-0.8,0.7
						c-0.3,0.2-0.5,0.5-0.8,0.7c-1,0.9-1.8,1.8-2.7,2.8c-1.6,2-3.1,4.2-4.2,6.8c-0.5,1.3-0.9,2.7-1,4.2c-0.1,1.5-0.1,3,0.3,4.3
						c0.7,2.8,2.1,5,3.6,6.7c1.9,3.3,4.5,5.9,7.2,8.2c2.7,2.3,5.6,4.3,8.6,6.1l4.4,2.2l0.7,0.4l0.8,0l1.8-0.1l1.6,0
						c1.1,0,2.2,0,3.3,0l6.7,0.2l12-3.8l11.7,4.6l22.5,0.7l3.5,0.1l0.2-3.5c0.1-1.2,0.2-2.5,0.5-3.7c0.1-0.6,0.3-1.2,0.4-1.8
						l0.3-0.9l0.1-0.4c0.1-0.3,0.2-0.8,0.3-1.2c0-0.5,0-0.9,0-1.3c0.1,0.8-0.1,1.9-0.4,2.5l-0.3,0.4l-0.5,0.8
						c-0.3,0.6-0.7,1.1-1,1.7c-0.6,1.2-1.2,2.5-1.6,3.8l-0.6,1.6l-0.9-0.3l-31.3-9.2l-14-0.4l-7.1-0.2c-1.2,0-2.5,0-3.7,0l-1.9,0
						c-0.6,0-1.5,0-1.6,0.1l2.9,0.6l-0.9-0.4c-1.4-0.6-2.8-1.1-4.2-1.7c-1.4-0.6-2.7-1.2-4-1.9c-2.6-1.4-5-2.9-7-4.7
						c-2-1.8-3.5-3.8-4.1-5.5c-0.3-0.9-0.3-1.7-0.1-2.7c0.2-1,0.8-2.1,1.5-3.2c0.7-1.6,1.9-3.2,3.2-4.6c1.3-1.4,2.9-2.6,4.7-3.5
						c3.7-1.8,8.3-2.2,12.7-2.2l0.3,0.2l-0.3,0l0,0l0.3,0c3.8,1.9,7.3,4.1,10.8,6.3c3.4,2.3,6.8,4.7,10.1,7.1
						c8,2.2,15.9,4.8,23.7,7.7l-0.6-0.5c1.9,1.7,3.8,3.3,5.8,4.9c1,0.8,2,1.6,3,2.3l1.5,1.1l0.7,0.5c0.2,0.1,0.4,0.2,0.6,0.3
						c-0.1-0.1-0.2-0.3-0.4-0.5l-0.5-0.8l-1-1.6c-0.7-1.1-1.4-2.2-2-3.3c-1.3-2.2-2.6-4.4-3.7-6.6l-0.9-0.7c-1.6-1.4-3.2-2.7-4.8-4"
						/>
				</g>
			</g>
		</g>
		<g>
			<g>
				<g>
					<path fill="#3D3D3D" d="M248.3,222.8c-1.2-5-2.2-9.9-3.2-15.1c-0.5-2.6-1.1-5.3-1.8-8c-0.8-2.8-1.8-5.6-3.1-8.3
						c-1-1.8-2.1-3.5-3.2-5.2c-1.2-1.7-2.4-3.1-3.6-4.6c-1.3-1.5-2.6-2.9-4-4.4c-1.5-1.4-3-2.8-5-4.1c-1.1-0.5-2.3-1.1-3.7-1.5
						c-1.4-0.4-3.1-0.7-5-0.5c-0.5,0.1-1,0.2-1.5,0.3c-0.5,0.2-1,0.3-1.5,0.6c-0.9,0.5-1.8,1.1-2.4,1.7c-1.3,1.3-2,2.7-2.4,4
						c-0.8,2.5-0.9,4.6-1,6.7c0,2.1,0.2,4,0.4,6c-0.2,3.1-0.3,6.2-0.2,9.4c0.2,3.2,0.7,6.4,1.4,9.5c1.6,5.6,3.9,10.9,6.6,15.9
						c1.4,1.3,3,2.6,4.4,3.8c1.5,1.2,3,2.3,4.6,3.4c1,3.6,2.2,7.3,3.6,10.9l3,3.4l0.4,0.4l0.6,0.3l12.2,6.4l3,1.6l1.6-2.9
						c0.7-1.2,1.5-2.4,2.3-3.5c0.4-0.5,0.9-1.1,1.4-1.6c0.2-0.3,0.5-0.5,0.7-0.7l0.4-0.4c0.2-0.2,0.6-0.6,0.9-1
						c0.3-0.4,0.5-0.8,0.6-1.2c-0.3,0.7-1,1.6-1.6,2l-0.5,0.2c-0.3,0.2-0.7,0.3-1,0.5c-0.7,0.4-1.3,0.8-1.9,1.2
						c-1.3,0.9-2.5,1.9-3.6,3.1l-0.7,0.7l-0.4-0.4l-10.7-9.8l0.8,0.6c-0.9-1.9-1.9-3.8-2.8-5.7c-0.8-2-1.7-3.8-2.4-5.8
						c-2.5-3.3-4.7-6.8-6.7-10.4c-2-3.6-3.6-7.3-4.9-11c-1.1-2.5-2-5-2.7-7.6c-0.3-1.3-0.6-2.6-0.9-3.9c-0.1-0.7-0.2-1.3-0.3-2
						c-0.1-0.6-0.2-1.4-0.2-2.1c-0.3-2.8-0.5-5.6-0.3-8.2c0.1-1.3,0.2-2.6,0.5-3.7c0.2-1.1,0.7-2,0.9-2.3c0.1-0.3,0.1-0.6,0.6-0.8
						c0.4-0.2,1.2-0.2,1.9-0.1c1.6,0.3,3.3,1.1,5,2c3.3,1.9,6.5,4.3,9.5,7c0.4,0.9,0.7,1.8,1,2.8c0.3,0.9,0.7,1.8,0.9,2.7
						c0.5,1.8,0.9,3.7,1.1,5.5c0.5,3.7,0.5,7.3,0.5,11.1c2.1,5.7,4.3,11.5,6.8,17.1c1.3,2.8,2.6,5.6,3.9,8.3
						c0.7,1.4,1.4,2.7,2.1,4.1l1.1,2l0.6,1c0.2,0.4,0.3,0.5,0.5,0.7c-0.1-0.2-0.1-0.5-0.2-0.9l-0.2-1.2l-0.3-2.4
						c-0.2-1.6-0.4-3.2-0.6-4.8c-0.4-3.2-0.6-6.4-0.8-9.6"/>
				</g>
			</g>
		</g>
		<g>
			<g>
				<g>
					<polyline fill="#3D3D3D" points="251.5,243.8 251.7,244.3 251.9,244.7 252.2,245.1 252.3,245.4 252.4,245.7 252.6,245.9 
						252.6,246.1 252.8,246.6 252.7,245.9 252.5,245.4 252.2,244.8 251.9,244.4 251.8,244 251.4,243.3 251.5,243.7 					"/>
				</g>
			</g>
		</g>
		<g>
			<g>
				<g>
					<path fill="#3D3D3D" d="M267.4,155.7c-0.6-2.3-1.4-4.7-3.3-6.8c-0.9-1.1-2.4-2-3.7-2.5c-1.3-0.5-2.7-0.7-4-0.8
						c-1.8,0-3.5,0.3-5.2,0.8c-1.7,0.5-3.3,1.1-4.8,2c-1.4,1.2-2.7,2.6-3.7,4.1c-0.9,1.5-1.6,3.2-2,4.8c-1.2,2.4-2,4.9-2.8,7.4
						c-0.6,2.3-1,4.6-1.5,6.9l0.7,4.8l-2.5,4.2c-0.8,3.9-1.5,7.8-2.2,11.7c2.2-4.8,4.6-9.6,6.9-14.4c0.7-3.7,1.4-7.4,2.2-10.9
						c0.7-4.8,1.5-9.7,4.4-13.2c1.6-2.6,4.4-4.6,7.5-5.9c1.7,0.1,3.3,0.4,4.7,1c0.7,0.3,1.4,0.7,1.9,1.2c0.5,0.5,0.8,0.9,1.1,1.5
						c1.6,1.3,2.8,3.5,3.7,5.8c0.9,2.3,1.6,4.8,2,7.4c0.4-2.7,0.7-5.5,0.6-8.5"/>
				</g>
			</g>
		</g>
		<g>
			<g>
				<g>
					<path fill="#3D3D3D" d="M299.3,174.7c0.3-3.4,0.4-6.8,0.3-10.3c-0.1-3.5-0.4-7.1-1.3-10.8c-0.4-1.9-1-3.8-2-5.9
						c-1-2-2.3-4.3-4.9-6.3c-1.3-1-2.9-1.8-4.8-2.3c-0.9-0.2-1.8-0.3-2.7-0.4c-0.9,0-1.8,0-2.6,0.2c-3.3,0.6-5.7,2-7.6,3.4
						c-2.5,2-4.3,4.1-5.9,6.2c-1.6,2.1-2.9,4.2-4.1,6.4c-2.4,4.3-4.4,8.6-6.1,13c-2,9.7-2.9,19.2-3.1,28.7c-1.7,7.4-3,15-3.5,22.7
						c0,3.5,0.1,7.1,0.5,10.7c0.4,3.6,1,7.2,2.3,10.9l1.4,3.9l4-1.5l0,0c2.7-2.8,6.8-4.8,11.7-5.1c1.1,0.8,2.1,1.6,2.9,2.5l0.1,0.1
						l0.6-0.2l1.9-0.5l0.3-0.3c2.3-1.6,4.5-3.5,6.6-5.4c2.9-5.4,5.1-10.9,7-16.6c1.9-5.6,3.4-11.4,4.6-17.2c-3.3,6.7-7,13.1-11.1,19
						c-2.1,3-4.3,5.8-6.6,8.4c-2.3,2.6-4.7,5-7.2,6.9l1.7-1.7l-1.7,0.6l7.4-0.5l-0.7-0.5c-3.4-1.5-7.1-2.4-10.8-2.5
						c-3.7-0.1-7.5,0.6-10.9,1.9l10,4.5c-0.7-1.8-1.2-4-1.5-6.4c-0.3-2.3-0.5-4.8-0.6-7.3c-0.8-6.7-0.8-13.7-0.3-20.7
						c0.5-7,1.4-14.1,2.9-21.1c0.4-4.7,1-9.4,2-14.1c1-4.7,2.2-9.4,4.2-14c1.8-1.6,3.8-3.1,5.9-4.2c1.1-0.5,2.1-1,3.2-1.3
						c0.5-0.2,1.1-0.2,1.6-0.2c0.5,0,1,0,1.4,0.2c0.8,0.2,1.4,0.7,1.8,1.3c0.4,0.6,0.7,1.3,1,2.1c0.5,1.6,0.6,3.6,0.6,5.6
						c1.2,2.9,2.1,6.4,2.7,9.9c0.6,3.5,1,7.1,1.2,10.8c0.4,7.3,0.2,14.8-0.6,22.2c3.5-7.2,6.6-14.8,8.9-22.9"/>
				</g>
			</g>
		</g>
		<g>
			<g>
				<g>
					<path fill="#3D3D3D" d="M344.8,349.9c8.1,3.1,16.8,5.2,25.7,5.8c6.1,0.1,12.2-0.5,18.2-1.9c6-2.4,11.7-5.6,16.4-9.8l1.6-1
						l0.2-0.1l0.3-0.2c0.2-0.1,0.4-0.3,0.5-0.4c0.3-0.3,0.6-0.6,0.9-1c1.1-1.5,1.4-3.4,1.3-4.9c-0.1-1.6-0.5-2.9-0.9-4.2
						c-0.5-1.3-1-2.5-1.6-3.7c-2.4-4.1-5.2-7.6-8.1-11c-2.7-1.6-5.4-3-8.1-4.4c-1.2-2.8-2.5-5.6-4.1-8.3
						c-5.8-5.2-12.3-9.4-19.2-12.8c7.9,6.7,14.2,14.5,18.6,22.8c4.7,5,9.4,10.2,13,15.5c1.3,1.7,2.5,3.4,3.3,5
						c0.4,0.8,0.6,1.5,0.7,2c0,0.1,0.1,0.2,0,0.3c0,0.1,0,0.1,0,0.2c0,0.1,0,0.1,0,0.2c0,0.1-0.1,0.1,0,0.1c0,0-0.1,0.1-0.1,0.1
						l-0.2,0.1l-0.3,0.3c-0.4,0.3-0.9,0.7-1.3,1c-0.9,0.7-1.8,1.3-2.7,1.8c-1.9,1.2-3.9,2.2-6,3.1c-5.1,3.1-11,5.5-17.2,7.1
						c-6.1-1.2-11.9-3.1-17.3-5.6c-4.7-0.3-9.4-1-14-2c-4.6-1.2-9.2-2.6-13.7-4.4c2,1.7,3.9,3.5,6.1,5c2.1,1.6,4.3,3.2,6.6,4.6"/>
				</g>
			</g>
		</g>
		<g>
			<g>
				<g>
					<polyline fill="#3D3D3D" points="342.4,337 341,324.6 339.6,316.2 338.3,312.6 337.3,314.6 341.6,311.7 348.4,309.1 
						354.4,306.4 357.7,303.3 362.2,303 372.4,298.4 357.7,300.8 348,305.1 336,311.7 335,312.2 335.2,313.2 335.3,313.6 
						338.7,322.3 338,331.4 341.9,345.4 342.5,337.6 					"/>
				</g>
			</g>
		</g>
		<g>
			<g>
				<g>
					<polyline fill="#3D3D3D" points="370.7,344.1 366.5,334.5 363.2,328.2 361.1,325.4 360.7,327.2 363.4,324.3 368.4,320.9 
						372.8,317.6 374.9,314.4 378.5,313.3 386,307.7 374.4,312.4 367.4,317.7 359.1,325.1 358.3,325.8 358.8,326.6 359.2,327.2 
						364.1,333.3 365.8,340.7 372.4,350.9 372.5,351 372.6,351 372.6,351 372.6,351 372.4,350.9 372.4,350.9 370.9,344.6 					"/>
				</g>
			</g>
		</g>
		<g>
			<g>
				<g>
					<path fill="#3D3D3D" d="M295,293c6.2,5.2,12.6,10.1,19.3,14.7c2.4,1.5,4.7,2.9,7.1,4.3c2.4,1.4,4.9,2.7,7.3,4
						c2.8,0.9,5.5,1.9,8.3,2.8c2.8,0.9,5.5,1.7,8.3,2.5c4.1,2.2,8.2,4.3,12.4,6.3c3.9,1.6,7.8,3.2,11.8,4.6c2.9,0,5.8,0,8.7,0
						c2.3,1.8,4.6,3.6,6.9,5.3c6.9,2.1,13.8,4,20.8,5.7c-8.5-4.5-16.7-9.3-24.6-14.5c-6.3-2.1-12.5-4.4-18.6-6.9
						c-8.5-2.7-16.9-5.7-25.2-9.2l-8.6-2.6l-4.3-1.3c-1.4-0.5-2.8-0.9-4.3-1.4c-4.1-4.2-8.1-8.4-12-12.7c-4.2-2.2-8.4-4.6-12.5-7
						l-0.7-0.4l-0.4,0l0,0l1,0.3l-11.3-7l8.4,10.8l0.1,0.2l1.6,0.4l0,0l-1.8-0.6l0.8,1"/>
				</g>
			</g>
		</g>
		<g>
			<g>
				<g>
					<path fill="#3D3D3D" d="M332.9,102.3c-1.8-2.5-4.3-4.6-7.3-5.8c-3-1.2-6.4-1.5-9.6-0.8c-2.2,0.6-4.2,1.7-6,3.1
						c-1.7,1.4-3.2,3.1-4.3,5c-1.8,4.3-1.7,8.9-0.3,12.8c0.4,3.3,1.8,6.5,4.2,9.1c2.2,2.2,5.1,3.9,8.3,4.4c2.1-0.2,4.1-1,5.7-2.1
						c1.9,0.2,4,0,6-0.7c4.3-3.2,6.8-8.5,6.7-13.8c-0.8,3.4-2.6,6.4-4.9,8.4c-2.3,2-5.1,3.1-7.6,3.1c-1.6,0.6-3.3,0.7-5,0.4
						c-1.7-0.2-3.3-1-4.7-2.1c-2-1.3-3.7-3.3-4.6-5.7c-1-2.4-1.3-5.1-0.9-7.8c0.1-1.8,0.5-3.7,1.3-5.4c0.8-1.8,2-3.4,3.6-4.8
						c4-1.2,8-0.3,10.6,1.6c2.5,0.5,5,2.1,6.9,4.3c1.8,2.2,3.1,5.1,3.4,8.1c0.8-3.2,0.7-6.9-0.8-10.4"/>
				</g>
			</g>
		</g>
		<g>
			<g>
				<g>
					<path fill="#3D3D3D" d="M322.3,79.6c-0.5-9.5-1.9-19-4.3-28.4c-1-3.2-2.1-6.3-3.3-9.3c-1.2-3-2.4-6-3.8-9.1
						c-1-1.5-2.1-2.9-3.3-4.4c-0.6-0.7-1.2-1.5-2-2.2c-0.7-0.7-1.5-1.5-2.6-2.2c-0.6-0.4-1.1-0.7-2-1.1c-0.8-0.3-1.9-0.5-3-0.3
						c-1.1,0.2-2.1,0.7-2.7,1.3c-0.2,0.1-0.3,0.3-0.4,0.4l-0.3,0.4c-0.2,0.3-0.4,0.6-0.5,0.8c-1.1,2.1-1.3,3.9-1.6,5.7
						c-0.9,2.7-1.5,5.5-1.9,8.2c-0.4,2.7-0.7,5.5-0.9,8.3c-0.1,5,0.2,10.1,0.9,15.1c1.6,3.1,3.4,6,5.3,8.8c-0.2,3.3-0.2,6.8,0,10.2
						c1.6,4,3.5,7.8,5.7,11.5c1.1,1.9,2.2,3.7,3.4,5.5c1.2,1.8,2.4,3.5,3.7,5.3c-2.2-5.4-4-10.6-5.2-16c-1.3-5.3-1.9-10.7-2.1-15.9
						c-1.1-3.5-1.9-7-2.4-10.6c-0.5-3.6-0.8-7.2-0.8-10.9c-0.5-4.9-0.6-10-0.2-14.8c0.1-1.2,0.3-2.4,0.5-3.5
						c0.2-1.1,0.5-2.1,0.8-2.8c0.1-0.3,0.3-0.5,0-0.4c-0.1,0-0.4,0.1-0.6,0.1c-0.3,0-0.4-0.1-0.4-0.1c0-0.1,0.3,0.1,0.6,0.3
						c0.3,0.3,0.7,0.6,1.1,1c1.1,1,2.3,2.2,3.3,3.5c1.1,1.3,2.1,2.7,3.1,4.1c2,2.8,3.9,5.8,5.8,8.8c0.7,6.8,0.8,13.6,0.5,20.2
						c1.6,5,3,10.1,4.1,15.4c0.6,2.6,1,5.2,1.5,7.9l1.1,8c0.6-2.8,1.3-5.6,1.8-8.5c0.5-2.9,1-5.8,1.4-8.7"/>
				</g>
			</g>
		</g>
		<g>
			<g>
				<g>
					<path fill="#3D3D3D" d="M340,84.4c4.2-9.2,8.3-18.4,12.1-27.9c2.2-6.7,4.2-13.3,5.6-20.6c0.1-1.9,0.1-3.9-0.1-6
						c-0.1-1.1-0.2-2.1-0.4-3.2c-0.2-1.1-0.4-2.3-1-3.7c-0.1-0.3-0.3-0.7-0.5-1c-0.2-0.4-0.4-0.7-0.7-1.1c-0.6-0.7-1.4-1.5-2.5-2
						c-0.5-0.2-1-0.4-1.5-0.5c-0.2,0-0.5-0.1-0.7-0.1l-0.7,0c-0.9,0-1.5,0.2-2.2,0.5c-1.2,0.5-2.1,1-3,1.6c-0.8,0.6-1.6,1.2-2.3,1.9
						c-2.6,1.5-5.3,3.3-7.5,5.5c-2.3,2.2-4.2,4.7-5.9,7.4c-2.7,5-4.4,10.3-5.8,15.5c0.3,3.7,0.7,7.3,1.2,10.9
						c-1.9,3.1-3.7,6.3-5.5,9.5c-1.1,6.3-1.9,12.7-2.5,19.1l0,0.2v0.2v0l0-0.3l-0.7,7.9l2.7-7.7l0,0.1l0,0l0-0.1
						c3.2-8.7,6.9-17.2,10.9-25.4c1.6-8.1,3.4-16.1,6.5-23c1.7-4.7,4-8.9,7.6-12.1c1.9-1.7,4.2-3.5,5.7-4.2c0.3-0.2,0.6-0.2,0.5-0.3
						c-0.1,0-0.6-0.4-0.6-0.5c0-0.1,0.2,0.2,0.4,0.5c0.1,0.4,0.3,0.9,0.3,1.5c0.4,1.5,0.6,3.3,0.7,5.1c0.1,1.8,0.1,3.7,0.1,5.5
						c-0.1,3.7-0.3,7.5-0.7,11.3c-3.8,6.3-7.9,12.4-12,18.4c-1.4,5.6-2.9,11.2-4.5,16.8l-4.8,16.8c3.7-5,7.4-10.1,11-15.2"/>
				</g>
			</g>
		</g>
		<g>
			<g>
				<g>
					<path fill="#3D3D3D" d="M350.3,103.8c7.9-3.6,15.6-7.9,22.7-13.1c4.6-3.8,9-7.8,13.2-12.2c1.8-2.6,3.5-5.3,5.1-8.2
						c0.8-1.4,1.5-2.9,2.1-4.6c0.3-0.8,0.6-1.7,0.7-2.6c0.2-0.9,0.3-1.9,0.1-3.1c-0.1-1-0.5-2.1-1.4-3c-0.9-0.8-1.8-1.1-2.5-1.3
						c-1.5-0.4-2.9-0.4-4.2-0.5c-2.6,0-5.2,0.1-7.8,0.5c-4.6,1-9.1,2.6-13.2,4.8c-2.2,2.3-4.2,4.7-6.1,7.1c-3,0.7-6,1.6-8.9,2.5
						c-6.1,4.6-12,9.6-17.5,15c8.9-5,18.2-9.3,27.4-12.6c5.6-3.8,11.5-7,17.6-8.7c2-0.7,4.1-1.3,6.2-1.7c1.1-0.2,2.2-0.4,3.2-0.5
						c0.5-0.1,1-0.1,1.4-0.1c0.4,0,0.8,0,0.9,0c0,0,0,0-0.1-0.1c-0.1-0.1-0.3-0.3-0.4-0.5c-0.2-0.4-0.1-0.6,0-0.5
						c0.1,0.3-0.1,1.2-0.5,2.1c-0.7,1.8-2,3.8-3.3,5.7c-2.9,5.4-6.5,10.7-10.3,15.9c-5.6,2.9-11.2,5.3-17,7.2
						c-7.4,6.1-15.6,11.4-24.4,15.7c5.2-0.6,10.5-1.5,15.8-2.7"/>
				</g>
			</g>
		</g>
		<g>
			<g>
				<g>
					<path fill="#3D3D3D" d="M349.8,119.9c8.1,1.3,16.3,2,24.8,1.6c5.7-0.7,11.6-1.8,17.2-4.2c2.7-1.7,5.3-3.6,7.5-5.9
						c2.2-2.2,4.1-4.9,5.5-7.6c1.5-1.9,2.9-3.8,4.2-6c0.6-1.1,1.2-2.2,1.6-3.5c0.4-1.3,0.8-2.7,0.7-4.5c-0.1-0.8-0.4-1.6-0.8-2.4
						c-0.5-0.8-1.1-1.5-1.9-1.9c-1.5-0.9-2.9-1.2-4.1-1.3c-2.5-0.2-4.7,0.1-6.9,0.4c-2.7,1.4-5.1,2.9-7.6,4.3l-8.6-1.4l-21.1,3.7
						l28.6,2.3c3.3-0.6,6.6-1.3,9.7-1.8c1.5-0.2,3-0.4,4.3-0.4c0.3,0,0.6,0,0.8,0c0.3,0,0.4,0.1,0.6,0.1c0.3,0.1,0.3,0.2,0.1-0.1
						c-0.2-0.1-0.2-0.4-0.2-0.5c0-0.1,0.1-0.1,0.1,0.1c0.1,0.4,0,1.1-0.2,2c-0.4,1.7-1.3,3.6-2.2,5.4c-0.5,0.9-1,1.8-1.6,2.7
						c-0.3,0.5-0.5,0.9-0.8,1.3c-0.3,0.4-0.6,0.8-0.9,1.2c-1.2,1.6-2.8,3-4.4,4.3c-3.9,4-9.3,7-14.9,9.2c-5.9-0.4-11.6-1.6-17.1-3.1
						c-9,0.9-18.3,0.7-27.5,0c4.5,2.1,9.2,4,13.9,5.7"/>
				</g>
			</g>
		</g>
		<g>
			<g>
				<g>
					<path fill="#3D3D3D" d="M336.8,142.2c5.3,7.8,11.4,15.3,19.6,21.3c2.9,1.9,6,3.6,9.4,4.8c3.4,1.2,7,2,10.7,2.2
						c3.6-0.4,7-1,10.6-2.1c1.8-0.6,3.6-1.3,5.4-2.6c0.9-0.7,1.8-1.5,2.5-2.7c0.3-0.6,0.6-1.3,0.6-2c0.1-0.7,0-1.4-0.1-2
						c-0.3-2-1.1-3.3-1.9-4.6c-0.8-1.2-1.7-2.3-2.6-3.4c-1.8-2.1-3.6-4.1-5.6-6c-3.7-3.3-7.7-6.3-11.8-9c-3.3-0.8-6.6-1.5-9.8-2
						c-2.2-2.5-4.5-4.9-6.8-7.3l-21.9-11l12.3,10.9c4.1,3.6,8.3,7.2,12.1,10.9c6.6,3.5,12.8,7.4,18.3,12.1c2,1.4,3.9,2.9,5.9,4.4
						c1.9,1.5,3.7,3.2,5,4.7c0.3,0.4,0.5,0.7,0.7,0.9c0.2,0.2,0.2,0.3,0.2,0.2c0.1-0.1,0.2-0.3,0.2-0.2c0.1,0-0.1,0.2-0.3,0.4
						c-0.5,0.4-1.5,0.9-2.5,1.2c-1,0.3-2.2,0.6-3.4,0.8c-3,0.9-6.4,1.7-9.7,1.9c-3.3,0.2-6.8-0.2-10.3-1.1c-2.7-2.2-4.9-4.7-7-7.2
						c-2-2.6-3.8-5.3-5.4-8.1c-7.9-6.4-15-14.4-21.3-22.9c1.6,5.4,3.5,10.9,5.8,16.3"/>
				</g>
			</g>
		</g>
		<g>
			<g>
				<g>
					<path fill="#3D3D3D" d="M333.7,140.6c3.2,7.1,6.2,14.3,8.5,21.5c0.9,2.4,1.8,4.8,2.5,7.2c0.7,2.4,1.2,4.8,1.4,6.9
						c0.3,1.1,0.5,2.1,0.5,2.8c0,0.8,0,1.2-0.2,1.7c-0.3,0.5-1.2,0.9-2.3,1.1c-1.1,0.2-2.4,0.2-3.7,0.1c-1-0.3-2-0.7-2.9-1.2
						c-0.9-0.5-1.8-1-2.6-1.6c-1.6-1.2-3-2.7-4.2-4.3c-1.2-1.4-2.2-3.1-3.1-4.8c-0.9-1.7-1.6-3.5-2.3-5.4c-1.7-2.1-3.3-4.4-4.8-6.9
						c0.4-2.8,1-5.6,1.6-8.3c-0.7-6.8-0.8-13.8-0.2-20.5c-0.7,2.1-1.5,4.3-2.2,6.6c-0.6,2.2-1.2,4.5-1.7,6.8
						c-1,4.6-1.8,9.4-2.1,14.3c0.6,3.4,1.4,6.9,2.6,10.3c1.2,3.4,2.7,6.8,4.8,10c1.6,2,3.4,4,5.6,5.6l1.7,1.1c0.6,0.4,1.2,0.7,1.8,1
						c1.2,0.6,2.4,1.1,3.6,1.5c2.4,0.7,4.9,1.3,7.6,1.3c1.4,0,2.9-0.2,4.4-0.8c1.5-0.6,3-1.8,3.7-3.3c0.9-2,0.8-3.8,0.6-5.4
						c-0.2-1.6-0.7-3.1-1.2-4.5c-1.1-2.8-2.4-5.4-3.9-7.9c-0.4-5.7-1.4-11.5-2.5-17.2c-4.8-7.9-10-15.5-15.3-22.9
						c1.3,4.7,2.6,9.5,3.7,14.2"/>
				</g>
			</g>
		</g>
		<g>
			<g>
				<g>
					<path fill="#3D3D3D" d="M305.8,124.5c-1.7,1-3.4,2-5,3.1c-1.1,0.8-2.1,1.7-3.1,2.6c-0.9,1.1-1.7,2.3-2.5,3.4
						c-0.8,0.8-1.6,1.6-2.4,2.4c-0.7,0.8-1.3,1.6-1.9,2.4c-0.2,0.7-0.4,1.4-0.6,2c-0.6,0.4-1.1,0.8-1.7,1.3c-1,1.5-1.9,3-2.7,4.5
						c1.6-1.7,3.3-3.3,5.1-4.8c0.9-1.3,1.9-2.6,2.9-3.8c1.2-1.8,2.6-3.5,4.1-5.1c0.8-1.2,1.7-2.4,2.6-3.5c1.3-0.6,2.6-1.1,3.9-1.6
						c1.7-1.5,3.5-2.9,5.3-4.1c-1.2,0.3-2.3,0.6-3.5,1"/>
				</g>
			</g>
		</g>
		<g>
			<g>
				<g>
					<path fill="#3D3D3D" d="M299.9,185.8c1.6-1.3,3.1-2.7,4.6-4.2c1.4-1.5,2.9-3.1,4.1-4.8c0.4-0.6,0.8-1.2,1.2-1.8l1.1-1.9
						c0.4-0.6,0.8-1.2,1.1-1.9l1-1.9c0.9-2.9,1.5-5.8,2-8.7c0.4-1.1,0.8-2.2,1.2-3.4c0.4-1.1,0.7-2.3,1-3.4c0.4-2.1,0.8-4.2,1.1-6.4
						c-0.3-1.4-0.7-2.9-1-4.3c0.6-1.3,1.2-2.7,1.7-4.1c0.1-3.7,0-7.3-0.2-11c-0.9,4.8-2.1,9.5-3.6,13.9c-0.3,3.3-0.6,6.6-1.3,9.8
						c-0.5,4.4-1.4,8.8-2.9,13c-0.5,2.9-1.4,5.8-2.5,8.7c-1.1,1-2.2,2-3.3,2.9c-1.2,0.9-2.4,1.7-3.5,2.6c-2.6,3.7-5.7,7.2-9.2,10.4
						c2.3-1,4.6-2.1,6.9-3.3"/>
				</g>
			</g>
		</g>
		<g>
			<g>
				<g>
					<path fill="#3D3D3D" d="M240,130.5c-0.3,0.8-0.4,1.7-0.4,2.6c0,0.9,0.3,1.9,0.7,2.7c0.8,1.7,2.1,2.8,3.3,3.7
						c1.3,0.9,2.6,1.5,3.8,2c1.3,0.5,2.6,1,3.9,1.3c1.8,0.4,3.6,0.7,5.4,0.9l2.7,0.3c0.9,0.1,1.8,0.1,2.8,0.1l1.4-0.2l1.4-0.3
						c0.9-0.2,1.9-0.4,2.8-0.6l2.7-0.8c0.9-0.3,1.8-0.6,2.6-1c3-0.4,5.9-1.2,8.7-2.1c2.5-1,5-2.1,7.4-3.4c1.3-1.3,2.5-2.8,3.6-4.2
						c1.8-0.4,3.6-0.8,5.4-1.3c3.8-2.6,7.3-5.5,10.7-8.6c-2.7,1.4-5.4,2.7-8.2,3.9c-2.8,1.1-5.5,2.2-8.3,3
						c-3.5,2.2-7.1,4.1-10.8,5.6c-4.8,2.5-10.1,4.3-15.5,5.1c-3.5,1.1-7.3,1.5-11.1,1.7c-1.7-0.7-3.4-1.5-5-2.5c-1.5-0.9-3-2-4-3.1
						c-1.1-0.5-2-1.2-2.5-2c-0.5-0.8-0.5-2-0.1-3.2c0.4-1.2,1.1-2.5,1.9-3.6c0.8-1.2,1.8-2.3,2.8-3.3c-1.4,0.7-2.8,1.5-4.1,2.4
						c-1.3,0.9-2.6,2-3.7,3.7"/>
				</g>
			</g>
		</g>
		<g>
			<g>
				<g>
					<path fill="#3D3D3D" d="M300.8,110c-2.9-0.3-5.9-0.5-8.8-0.6c-2,0-4,0.2-6,0.3l-3.1,0.7l-3.1,0.8l-5.1,0.2
						c-1.5,0.2-3.1,0.4-4.6,0.6c-0.9,0.5-1.9,1-2.8,1.6c-1-0.2-2.1-0.3-3.2-0.4c-2.6,0.6-5.1,1.6-7.5,2.8c3.5-0.8,7-0.9,10.3-0.7
						c2.3-0.5,4.7-0.8,7.1-1.1c3.2-0.6,6.5-1.2,9.7-1.7l6.4-1.7c2.1,0.5,4.2,0.9,6.2,1.5c3.3-0.3,6.7-0.6,10.1-0.7
						c-1.7-0.6-3.5-1.1-5.2-1.6"/>
				</g>
			</g>
		</g>
		<g>
			<g>
				<g>
					<path fill="#3D3D3D" d="M263.2,98.8c2.3,2,4.8,4,7.3,5.7c1.8,1.1,3.7,2.1,5.6,3.1c2.1,0.6,4.3,1.2,6.4,1.7
						c1.6,0.7,3.2,1.4,4.9,2.1l2.3,0.8l0.1,0h0.2h0l-0.3,0l2.3,0.7c1.1-0.1,2.2-0.2,3.3-0.3c0.9,0.6,1.9,1.2,2.8,1.8
						c2.7,0.6,5.4,1,8.1,1.4c-3.4-1.4-6.7-2.9-9.8-4.6c-2-0.5-3.9-1-5.9-1.6l-0.3-0.1h-0.3h0l0.5,0.1l-1.4-0.4
						c-3.3-0.8-6.5-1.7-9.7-2.9c-2.2-0.5-4.4-1.1-6.6-1.8c-1.6-1.5-3.1-3.1-4.6-4.8c-1.5-0.8-3-1.7-4.5-2.7c-1.5-1-2.9-2-4.3-3
						c1.1,1.5,2.2,3.1,3.3,4.6"/>
				</g>
			</g>
		</g>
		<g>
			<g>
				<g>
					<path fill="#3D3D3D" d="M304.8,95.6c-3.8-2.4-7.6-4.9-11.4-7.5c-2.7-1.6-5.3-3.2-7.9-4.9c-3.1-1.3-6.2-2.5-9.4-3.5
						c-2.3-1.3-4.8-2.5-7.4-3.4c-2.4-0.7-4.8-1.2-7.3-1.6c-1.7,0.4-3.3,0.7-4.9,1.2c-1.5-0.6-3.1-1.2-4.9-1.4
						c-1.1,0.2-2.3,0.5-3.5,1.5c-0.6,0.5-1,1.2-1.3,1.9c-0.2,0.8-0.2,1.5-0.1,2.1c0.2,1.3,0.7,2.4,1.2,3.3c0.5,1,1.2,1.9,1.8,2.7
						c-0.5-1.3-1-2.7-1.3-4.1c-0.1-0.7-0.2-1.4-0.2-2.1c0.1-0.7,0.2-1.3,0.6-1.7c0.7-0.8,1.8-0.8,3-0.7c1.1,0.1,2.3,0.4,3.5,0.8
						c1.7,0,3.6,0.3,5.4,0.5c1.8,0.3,3.6,0.6,5.3,1c4.8,0.8,9.4,2.7,14,5c3.2,1.1,6.4,2.4,9.6,3.5c2.3,2.4,4.7,4.8,7.1,7.1
						c4.9,2.2,9.8,4.2,14.8,6.1c-2.1-1.9-4.3-3.8-6.3-5.7"/>
				</g>
			</g>
		</g>
		<g>
			<g>
				<g>
					<path fill="#3D3D3D" d="M414.9,189.2c-1.4-2.6-3.6-4.9-6.5-6.4c-1.5-0.7-3-1.2-4.7-1.4c-1.7-0.1-3.4,0-5,0.5
						c-2.2,0.8-4.1,2-5.6,3.6c-1.6,1.5-2.7,3.3-3.6,5.2c-1.3,4.2-1.1,8.5,0.1,12.3c0.3,3.2,1.4,6.4,3.3,9.1c1.9,2.4,4.5,4.3,7.7,5
						c2.2-0.1,4.1-0.9,5.6-2.1c1.8,0.1,3.9-0.4,5.8-1.3c1.9-1.8,3.3-4,4.2-6.4c0.9-2.4,1.4-4.9,1.3-7.4c-0.8,3.3-2.3,6.2-4.4,8.4
						c-2,2.2-4.6,3.6-7,3.7c-1.4,0.6-3,0.8-4.5,0.5c-1.5-0.3-2.9-1.2-4.1-2.4c-1.8-1.4-3.2-3.6-4.1-6.1c-0.8-2.4-1.1-5.2-0.8-7.8
						c0-3.6,1-7.5,3.8-10.5c1.9-0.8,3.8-1,5.6-0.8c0.9,0.1,1.7,0.4,2.5,0.7c0.4,0.2,0.7,0.4,1.1,0.6c0.3,0.3,0.7,0.4,0.9,0.7
						c2.4,0.7,4.6,2.5,6.2,4.8c1.6,2.3,2.6,5.2,2.9,8.1c0.8-3.1,0.9-6.6-0.2-10.1"/>
				</g>
			</g>
		</g>
		<g>
			<g>
				<g>
					<path fill="#3D3D3D" d="M436.7,160.1c0.5-2.3,0.9-4.6,1-7c0.1-1.2,0.1-2.4,0-3.8c-0.2-1.3-0.4-2.7-1.2-4.2
						c-0.6-1-1.5-2-2.6-2.6c-1.2-0.6-2.5-0.8-3.5-0.8c-2.2,0.1-3.9,0.8-5.4,1.5c-0.4,0.2-0.7,0.5-1.1,0.7c-0.3,0.2-0.7,0.5-1,0.8
						c-0.4,0.3-0.7,0.5-1.1,0.8l-1,0.9c-1.3,1.2-2.4,2.5-3.3,4c-1.9,1.9-3.5,4.1-4.9,6.4c-1.1,2.2-2.1,4.4-3,6.6
						c-0.1,1.6-0.1,3.3-0.1,4.9c-1,1.2-2.1,2.5-3,3.9c-1.2,3.9-2.2,7.9-2.8,11.9c2.2-5,4.9-9.6,7.8-13.9c1.3-3.5,2.6-7,4.1-10.2
						c1.7-4.5,4.2-8.6,8-11.5c1.1-1,2.5-2.1,3.9-3c1.4-0.8,3-1.7,4.9-1.4c0.8,0.5,1.4,1.3,1.6,2c0.3,0.8,0.4,1.6,0.4,2.3
						c0,1.6-0.3,3.1-0.7,4.6c0.3,2.4,0.2,5,0.1,7.6c-0.2,2.6-0.5,5.2-0.8,7.7l0.2-0.2l0,0l0,0l-0.2,0.2c1.3-2.5,2.6-5,3.7-7.6"/>
				</g>
			</g>
		</g>
		<g>
			<g>
				<g>
					<path fill="#3D3D3D" d="M449.5,178.2c2.1-1.5,4.1-3.1,5.9-5.2c0.5-0.8,1.1-1.6,1.4-2.7c0.3-1,0.5-2.2,0.1-3.4
						c-0.5-1.2-1.4-1.9-2.2-2.5c-0.9-0.6-1.8-0.9-2.7-1.2c-1.3-0.7-2.8-1.2-4.4-1.4c-1.4-0.1-2.9,0.2-4.2,0.7
						c-0.7,0.6-1.3,1.3-1.9,2c-0.9,0.2-1.8,0.3-2.7,0.5c-1,0.5-1.9,1-2.9,1.5c-1,0.5-2,0.8-3,1.2l0.3,0h0l0,0l-0.3,0
						c1.4-0.2,2.9-0.3,4.4-0.6c1.5-0.3,3-0.7,4.4-1.1c0.9-0.5,1.8-1,2.6-1.4c0.8-0.4,1.6-0.6,2.5-0.6c2.3-0.2,5.2,0.5,7.1,2.1
						c0.7,0.5,1.3,1.1,1.5,1.9c0.3,0.9,0.2,1.8-0.1,2.8c-1.2,1.4-2.8,2.4-4.3,3.3c-1.8,2.2-4,4.1-6.2,6c1.5-0.5,2.9-1.1,4.4-1.8"/>
				</g>
			</g>
		</g>
		<g>
			<g>
				<g>
					<path fill="#3D3D3D" d="M423.4,206.4c2.1,0.4,4.2,0.8,6.3,1l1.6,0.2l1.6,0.2c1,0.1,2.1,0.2,3.2,0.2c3-0.1,6-0.3,9-1
						c3-1.2,5.9-2.8,8.2-5c0.5-0.3,1.1-0.7,1.6-1.1c0.5-0.4,1-0.8,1.5-1.3c0.9-0.9,1.7-1.8,2.5-2.8c1.3-1.9,2.5-4,2.9-6.6
						c-0.2-1.7-1.3-3.4-2.7-3.9c-0.7-1.3-2-2.4-3.1-3.4c-3.5-1.4-7.1-2.5-10.6-3.8l6.2,4.2c1,0.7,2.1,1.4,3,2.1c1,0.7,2,1.5,2.5,2.2
						c0.2,0.2,0.4,0.3,0.5,0.4c0.1,0.1,0.2,0.2,0.2,0.4c0.2,0.3,0.2,0.8,0.1,1.3c-0.1,1.1-0.8,2.5-1.6,3.9c-0.9,1.9-2.2,3.8-3.6,5.2
						c-1.5,1.5-3.3,2.7-5.4,3.6c-2.5,1.6-5.5,2.7-8.5,3.5c-1.5-0.3-3-0.6-4.5-1c-0.7-0.2-1.5-0.4-2.2-0.6l-2.1-0.7
						c-4.8,0.2-9.6-0.1-14.4-0.6c2.3,1.1,4.7,2.2,7.2,3.2"/>
				</g>
			</g>
		</g>
		<g>
			<g>
				<g>
					<path fill="#3D3D3D" d="M444.9,235.4c2.3-0.3,4.4-1.1,6.3-2.5c1-0.7,1.9-1.5,2.6-2.6c0.7-1,1.3-2.3,1.5-3.7
						c0.2-1.9-0.3-3.7-1-5.2c-0.7-1.5-1.7-2.7-2.6-3.9c-2.4-2-4.9-3.5-7.5-4.9c-1.8-1.5-3.5-3-5.4-4.5c-1.7-1.2-3.5-2.4-5.4-3.4
						l-0.7-0.1l-0.5-0.1l0,0l0.5,0.1c-1.2-0.2-2.4-0.4-3.6-0.6c-1-1.1-2-2.1-3-3.1c-3.3-1.5-6.6-2.8-10.1-4
						c4.1,2.6,7.8,5.5,11.3,8.6c1.3,0.6,2.5,1.3,3.8,2l0.5,0.3h0.6h0l-1.2-0.3c1.6,0.9,3.1,1.9,4.6,2.9c1.9,1.1,3.8,2.2,5.7,3.5
						c1.9,1.2,3.7,2.4,5.4,3.8c1.2,0.7,2.4,1.6,3.5,2.5c1.1,1,2.1,2.1,2.9,3.5c0.1,1.6-0.4,3.1-1.2,4.1c-0.8,1.1-1.9,1.8-3.1,2.2
						c-1.4,1.4-3.3,2.5-5.4,2.9c-2.1,0.4-4.4,0.1-6.5-0.6l-0.1,0l0,0l0,0l0,0l0.1,0c1.9,1.6,4.3,2.8,7.1,3.1"/>
				</g>
			</g>
		</g>
		<g>
			<g>
				<g>
					<path fill="#3D3D3D" d="M422.7,241.5c1.4,1.7,3,3.2,4.9,4.4c1.3,0.8,2.6,1.4,4.1,2c1.6,0.3,3.2,0.5,4.8,0.1
						c0.7,0,1.4-0.1,2-0.5c0.7-0.3,1.1-1.1,1.3-1.8c0.2-1.3,0-2.4-0.1-3.5c-0.4-0.7-0.7-1.4-1.1-2c0.1-0.7,0.2-1.5,0.3-2.3l-1.2-5.5
						l-0.1-0.5H437h0l0,0l0.7,0.2l0,0.3c-0.1,2.5-0.2,5-0.4,7.5c0.3,1.7,0.6,3.5,0.6,5c0,0.5,0,0.8-0.1,1.1
						c-0.1,0.1-0.2,0.2-0.3,0.4c-0.2,0.1-0.3,0.2-0.5,0.3c-0.9,0.3-2,0.3-3.1,0.1c-1.5-0.1-3.1-0.4-4.6-0.8c-1.1-1-2.2-2.2-3.1-3.4
						c-2-1.2-3.7-2.9-5.2-4.9c0.4,1.2,0.9,2.5,1.5,3.7"/>
				</g>
			</g>
		</g>
		<g>
			<g>
				<g>
					<path fill="#3D3D3D" d="M400.5,222.7c-0.9,3.7-1.4,7.7-1.1,11.6c0.3,2.7,1,5.4,1.9,7.9c1.4,2.5,3,4.7,4.7,6.8
						c1.1,1.9,2.2,3.8,3.9,5.5c0.8,0.7,1.7,1.4,2.9,1.8c0.6,0.2,1.4,0.3,2.1,0c0.4-0.1,0.8-0.4,1.1-0.6c0.3-0.3,0.5-0.5,0.7-0.8
						c0.3-0.8,0.3-1.5,0.3-2.2c0-0.7,0-1.4,0-2c0.8-1.1,1.6-2.1,2.4-3.2c0.9-3.2,1.7-6.5,2.5-9.7c-2.2,3.9-4.2,7.9-6.6,11.5
						c-0.2,0.7-0.5,1.4-0.7,2.1c-0.3,0.6-0.6,1.3-0.8,1.7c-0.1,0.2-0.2,0.2,0,0.1c0.2-0.1,0.1-0.1,0.1-0.1c-0.1,0-0.6-0.2-1-0.5
						c-1.4-0.8-2.8-2.3-4-3.9c-1.2-1.6-2.4-3.3-3.3-5.1c-1.6-2.2-3-4.6-4.1-7.2c0.2-2.8,0.7-5.4,1.5-7.9c-0.3-4.1,0.2-8.4,1.2-12.6
						c-1.3,1.9-2.5,4-3.5,6.1"/>
				</g>
			</g>
		</g>
		<g>
			<g>
				<g>
					<path fill="#3D3D3D" d="M398.7,237.4c-1.1,2.2-2.1,4.4-2.9,6.6c-0.5,1.6-1,3.2-1.4,4.8c-0.2,1.7-0.3,3.4-0.5,5.1
						c-0.5,1.2-1.1,2.5-1.9,3.2c-0.7,0.7-1.7,0.7-2.7,0.3c-0.8,0-1.6-0.2-2.4-0.5c-0.4-0.8-0.8-1.5-1-2.3c-1.2-1.6-1.9-3.5-2-5.5
						c-0.3,1.3-0.3,2.7,0,4.2c0.3,1.4,0.9,2.9,1.8,4.2c0.8,0.8,1.7,1.5,2.9,2c1.1,0.5,2.7,0.7,4.1,0c0.9-0.5,1.4-1.3,1.8-2
						c0.4-0.7,0.6-1.4,0.8-2.1c0.4-1.4,0.7-2.7,0.9-4c0.1-1.8,0.2-3.6,0.3-5.4c0.9-1.5,1.8-3,2.8-4.4c0.7-2.6,1.5-5.3,2.5-7.9
						c-1,1.1-1.9,2.3-2.8,3.5"/>
				</g>
			</g>
		</g>
		<g>
			<g>
				<g>
					<path fill="#3D3D3D" d="M375.2,253c1.1-0.3,2.3-0.6,3.4-0.9c0.7-0.3,1.5-0.6,2.2-1c0.7-0.5,1.3-1,2-1.5c0.6-0.3,1.2-0.6,1.8-1
						c0.5-0.3,1-0.7,1.5-1.1c0.2-0.4,0.5-0.7,0.7-1.1c0.4-0.1,0.8-0.3,1.2-0.4c0.8-0.7,1.6-1.4,2.3-2.1c-1.2,0.7-2.4,1.3-3.7,1.9
						c-0.7,0.6-1.5,1.2-2.3,1.7c-1,0.8-2,1.6-3.1,2.3c-0.7,0.5-1.3,1.1-2.1,1.6c-0.8,0.1-1.7,0.2-2.5,0.3c-1.2,0.6-2.4,1-3.7,1.4
						c0.7,0,1.4,0,2.2,0"/>
				</g>
			</g>
		</g>
		<g>
			<g>
				<g>
					<path fill="#3D3D3D" d="M360.4,239.5l0.6-1l0.4-0.7l0.3-0.8l0.4-0.6l0.3-0.5l0.1-0.4l0.3-0.3l0.6-0.9l-1.1,1l-0.5,0.9l-0.6,1.2
						l-0.3,0.9l-0.6,0.6c-0.2,0.4-0.3,0.9-0.5,1.3L360.4,239.5"/>
				</g>
			</g>
		</g>
		<g>
			<g>
				<g>
					<path fill="#3D3D3D" d="M388.5,207.7l-5.1,1l-3.5,0.9l-3.4,1.6l-2.9,0.7l-2.6,0.8l-1.5,1.2l-1.9,0c-1.5,0.5-3,1-4.4,1.6
						c2.1-0.2,4.2-0.4,6.2-0.5c1.4-0.5,2.8-0.9,4.2-1.3c1.8-0.7,3.7-1.4,5.5-2.1l3.5-1.8l3.8,0l5.7-2.1l-3.3,0"/>
				</g>
			</g>
		</g>
		<g>
			<g>
				<g>
					<path fill="#3D3D3D" d="M354.6,231.8c0.5,0.3,1.1,0.5,1.6,0.7l1.1,0.4l1.3,0.2l1,0.3l0.9,0.3l0.6,0l0.5,0.4l1.5,0.4l-1.8-1
						l-1.4-0.4c-0.6-0.1-1.3-0.3-1.9-0.4l-1.3-0.2l-1.1-0.7c-0.7-0.2-1.3-0.4-1.9-0.6C354,231.3,354.3,231.5,354.6,231.8"/>
				</g>
			</g>
		</g>
		<g>
			<g>
				<g>
					<path fill="#3D3D3D" d="M363.7,191.8c1.8,0,3.6,0.1,5.5,0.3c1.2,0,2.5,0.1,3.7,0.2c1.3-0.1,2.6-0.2,3.9-0.3
						c1,0.2,2.1,0.4,3.1,0.6c0.9,0.2,1.9,0.3,2.8,0.5l2-0.3l1.7,1.1c1.6,0.4,3.2,0.8,4.7,1.3c-1.9-1.1-3.8-2.2-5.8-3.2
						c-1.5-0.3-3.1-0.6-4.6-0.9c-2.1-0.2-4.2-0.3-6.3-0.3c-1.4,0.2-2.8,0.3-4.1,0.6c-1.3-0.4-2.6-0.7-3.9-1.1
						c-2.1,0.2-4.3,0.6-6.4,0.9c1.1,0.2,2.3,0.4,3.4,0.6"/>
				</g>
			</g>
		</g>
		<g>
			<g>
				<g>
					<path fill="#3D3D3D" d="M353.9,175.3c2.1,1.4,4.1,2.9,6.1,4.4c1.4,0.9,2.9,1.9,4.3,2.8c1.6,0.7,3.3,1.5,4.9,2.3l3.4,2.7
						l3.2,2.3l2.6,0.8l1.5,2.2l5.3,4.1l-2.7-3.6c-0.9-1.2-1.8-2.4-2.8-3.5l-5.2-3.7c-2.5-1.5-4.9-3-7.3-4.4
						c-1.8-0.7-3.5-1.4-5.3-2.1c-1.2-1.4-2.5-2.7-3.8-4c-2.6-1.3-5.3-2.5-7.9-3.7l3.3,3.3"/>
				</g>
			</g>
		</g>
		<g>
			<g>
				<g>
					<path fill="#3D3D3D" d="M368.1,165.3l-4-1l-2.8-0.5l-2.9,0l-2.3-0.5l-2.1-0.3l-1.5,0.3l-1.3-0.7c-1.2-0.1-2.4-0.3-3.6-0.4
						c1.5,0.5,3.1,1.1,4.6,1.7l3.4,0.5l4.6,0.3l3.1-0.1l2.7,1.2l4.7,0.4l-2.3-1.1"/>
				</g>
			</g>
		</g>
		<g>
			<g>
				<g>
					<path fill="#3D3D3D" d="M375.9,137.3c0.9-1.3,2-2.4,3.3-2.8c0.8-0.3,1.7-0.3,2.6,0.1c1,0.2,2.1,0.6,3.1,1.2
						c0.7,0.6,1.3,1.3,1.8,2.1c0.5,0.7,1,1.4,1.4,2.1c0.4,0.4,0.9,0.8,1.3,1.2c0.1,0.6,0.1,1.2,0.1,1.8c0.5,1.3,0.8,2.7,1,4.2
						c0.2-1.9,0.2-3.9-0.1-5.9c-0.6-1.3-1.3-2.6-2.2-3.8c-1.3-1.5-2.8-2.8-4.6-3.6c-1.2-0.4-2.6-0.6-3.7-0.2
						c-1.1-0.2-2.4,0.3-3.5,0.9c-1.3,1.6-2,3.5-2.4,5.3c0.5-0.9,1.2-1.7,1.9-2.4"/>
				</g>
			</g>
		</g>
		<g>
			<g>
				<g>
					<path fill="#3D3D3D" d="M405.3,175.9c0.8-4.4,1.5-8.7,2.1-13.2c0.3-3,0.5-6.1,0.6-9.1c-0.4-3.2-0.9-6.4-1.5-9.5
						c0.1-2.6,0.1-5.2-0.2-7.8c-0.2-1.2-0.4-2.4-0.7-3.6c-0.3-1.2-0.7-2.4-1.5-3.6c-0.7-0.6-1.6-1.1-2.5-1.3c-0.9-0.2-1.8,0-2.5,0.3
						c-1.5-0.5-3.2-0.6-4.9-0.4c-2,0.8-3.8,2-5.3,3.6c-1.5,1.6-2.7,3.4-3.4,5.4c1.6-2.3,3.8-4.2,6.1-5.1c2.3-1,4.9-1.3,6.9-1
						c0.7-0.1,1.3-0.1,1.5,0c0.1,0,0.4,0.2,0.7,0.7c0.6,1,1.1,2.7,1.4,4.3c0.6,2.2,1,4.6,1.3,7c0.3,2.4,0.5,4.9,0.6,7.4
						c0.6,3.2,1.1,6.5,1.5,9.8c-1,3.1-2.1,6.1-3.2,9.1c0,5.1-0.1,10.2-0.2,15.4c1-2.6,2-5.1,3-7.7"/>
				</g>
			</g>
		</g>
		<g>
			<g>
				<g>
					<path fill="#3D3D3D" d="M230.4,123.1c-1.6-2.1-3.8-3.7-6.4-4.6c-2.5-0.9-5.4-1.2-8.1-0.6c-3.7,0.9-7,3.3-9.1,6.5
						c-1.7,3.6-1.8,7.7-0.5,11c0.2,1.4,0.7,2.8,1.3,4.1c0.6,1.3,1.6,2.5,2.6,3.5c2,1.8,4.5,3,7.2,3.4c1.8-0.3,3.5-0.9,4.8-1.8
						c1.6,0.2,3.4,0.1,5.1-0.4c1.9-1.3,3.5-3,4.5-5c1.1-2,1.6-4.3,1.6-6.6c-0.7,3-2.3,5.4-4.4,7c-2,1.6-4.5,2.4-6.7,2.3
						c-2.9,0.9-6.2,0.4-8.6-1.4c-0.4-0.3-0.9-0.5-1.3-0.9l-1.1-1c-0.7-0.8-1.3-1.7-1.8-2.7c-0.9-2-1.2-4.3-0.7-6.5
						c0.2-3,1.7-6.3,4.6-8.5c3.4-0.8,6.8-0.1,9.2,1.5c2.2,0.4,4.4,1.6,6.1,3.4c1.7,1.8,2.8,4.2,3.1,6.8c0.7-2.7,0.5-5.9-1-8.8"/>
				</g>
			</g>
		</g>
		<g>
			<g>
				<g>
					<path fill="#3D3D3D" d="M228.6,97.7c-1.8-3.1-4.5-5.8-8-7.5c-3.5-1.7-7.8-2-11.6-0.8c-5.2,1.9-9,6-11.1,10.6
						c-1.5,5.1-1.3,10.3,0.2,14.8c0.4,3.8,1.8,7.6,4.3,10.8c1.3,1.5,2.9,2.9,4.7,3.9l1.9,1.1l0.9-2.1c0.5-1.1,1.2-2.2,2-3.1
						c0.7-1.8,2-3.6,3.8-5c2.3,0.1,4.4,0.8,6,1.9c1.3,0.3,2.5,0.8,3.7,1.6l1.7,1.1l1.1-1.7c2.4-3.7,3.5-8.2,3.5-12.5
						c-1.1,4.3-3.2,8.2-6.2,10.8l1.6-0.3c-2.4-2.7-6.3-4.5-10.6-4.6c-2.6,0.5-5.1,1.6-7.2,3.3c-2.1,1.7-3.7,3.9-4.8,6.3l5.2-1.8
						c-0.7-0.4-1.4-0.9-2.1-1.5c-2.2-1.6-4-4.1-5.1-7c-1.1-2.9-1.5-6.1-1.1-9.4c-0.1-4.3,1.2-9,4.6-12.6c2.2-0.9,4.6-1.2,6.7-0.9
						c2.1,0.3,4,1.2,5.4,2.4c2.9,0.7,5.6,2.9,7.5,5.6c1,1.4,1.8,2.9,2.4,4.6c0.6,1.6,1,3.4,1.2,5.2c0.4-1.9,0.7-3.8,0.7-5.9
						c-0.1-2-0.4-4.1-1.1-6.2"/>
				</g>
			</g>
		</g>
		<g>
			<g>
				<g>
					<path fill="#3D3D3D" d="M191.7,118.9c-4.8,1.4-9.1,4.5-12.1,8.6c-0.9,1.5-1.7,3-2.3,4.6c-0.6,1.6-1.1,3.2-1.4,4.9
						c-0.1,1.8,0,3.6,0.4,5.4c0.3,1.8,0.9,3.5,1.8,5c0.5,1.4,1.3,2.7,2.5,3.7c1.2,1,2.7,1.5,4.1,1.9c2.6,0.4,5.2,0.1,7.6-0.4
						l1.1-0.7l1-0.7c0.7-0.5,1.3-1,2-1.5c1.6,0,3.3-0.1,5-0.3c2.5-1.3,5-2.7,7.3-4.3l-0.8,0.2h0h1.4v-1.4v0l-1.4,1.4h0h1.4v-1.4v0
						l-0.7,1.2l3.2-2.3l-3.8,1.5l0.2-0.4l0,0l-0.1,0.5l-0.3-0.1l0,0l0.4-0.4l0,0l-0.1,0.5l-0.3-0.1l0,0l0.2-0.1
						c-3.9,1.4-7.8,2.3-11.6,2.8c-3.3,1.3-6.8,2.2-10,2.1c-1,0-2.1-0.1-2.9-0.3c-0.9-0.3-1.5-0.7-2.1-1.4c-0.6-0.7-1.1-1.7-1.4-2.8
						c-0.3-1.1-0.5-2.2-0.6-3.4c-0.3-1.6-0.4-3.2-0.3-4.9c0.1-1.7,0.3-3.4,0.7-5.1c2.1-2.6,4.8-4.6,7.6-5.8c1.7-1.7,3.7-3.1,6-4
						c2.3-0.9,4.9-1.4,7.5-1.4c-2.6-1-5.6-1.5-8.6-1.3"/>
				</g>
			</g>
		</g>
		<g>
			<g>
				<g>
					<path fill="#3D3D3D" d="M231.4,150.7l0.3,1.7c0.1,0.6,0.1,1.2,0.2,1.8c0.1,1.2,0.1,2.4,0,3.6c-0.2,2.4-0.6,4.7-1.4,6.7
						c-0.9,2.8-2.5,5.2-4.9,6.4c-2.1,2-5.4,3-8.9,2.8c-1.3-0.4-2.6-1-3.8-1.7c-1.2-0.7-2.3-1.6-3.2-2.5c-1.8-1.7-3-3.7-3.4-6.1
						c-0.9-1.4-1.6-3.2-2.1-5c0.8-1.7,1.6-3.4,2.5-5c0.5-3.1,1.4-6,2.6-8.9l-1.5,1h0h0.7l0.5-0.5l0,0l0.2-0.2l0.1-0.3
						c0.5-1.2,1.1-2.4,1.7-3.5c-1,1-1.9,2-2.7,3.1l-0.1,0.2l0,0l-0.3,0.2l-0.1,0l0,0l0.5-0.3c-1.5,1.8-2.8,3.8-3.9,6
						c-0.6,1.1-1.1,2.2-1.6,3.4c-0.5,1.1-0.9,2.2-1.4,3.4c-0.2,2.3-0.4,4.8,0.2,7.4c0.5,2.6,1.7,5.2,3.4,7.2
						c2.5,2.5,5.5,4.2,8.7,5.1c1.6,0.4,3.2,0.7,4.9,0.7c1.6,0,3.3-0.2,4.9-0.6c2-0.8,3.8-2,5.1-3.5c1.3-1.5,2.3-3.2,2.8-5
						c2.5-2.7,4.2-6.4,5.1-10.3c-0.3-2.9-0.9-5.8-2.1-8.6l-0.4-1l-0.8,0.1l0,0l1.2,0.9c-1.3-3.1-3.3-5.9-5.6-8.2
						c1.4,2.9,2.2,6,2.3,8.9"/>
				</g>
			</g>
		</g>
		<g>
			<g>
				<g>
					<path fill="#3D3D3D" d="M244.1,114.1c-0.9-0.4-1.8-0.8-2.7-1.2c-0.6-0.2-1.3-0.4-1.9-0.5c-0.7,0-1.4,0-2.1,0
						c-0.5-0.1-1.1-0.2-1.7-0.2c-0.5,0-1,0-1.5,0c-0.3,0.1-0.7,0.2-1,0.4c-0.3-0.1-0.7-0.2-1-0.3c-0.9,0.1-1.7,0.2-2.6,0.4
						c1.2,0.1,2.3,0.2,3.4,0.4c0.8,0,1.6-0.1,2.3,0c1.1,0,2.1,0,3.2,0.1c0.7,0,1.4,0,2.1,0c0.6,0.3,1.2,0.7,1.8,1.1
						c1.1,0.3,2.1,0.6,3.2,1c-0.5-0.4-0.9-0.8-1.4-1.1"/>
				</g>
			</g>
		</g>
		<g>
			<g>
				<g>
					<path fill="#3D3D3D" d="M229.8,149.5c0.9,0.6,1.9,1.2,2.9,1.6l0.2,0.1l0.4,0l0,0l-0.6-0.1c2.4,1.1,5.1,1.7,7.8,1.8
						c1.3,0,2.7-0.2,4-0.5c1.3-0.3,2.6-0.8,3.8-1.3c2.3-1.5,4.2-3.5,5.7-5.7c1.5-1.4,2.8-3.2,3.8-5c0.8-1.8,1.4-3.7,1.6-5.6
						c-0.3-1.3-0.7-2.6-1.2-3.7c0.3-1.2,0.4-2.5,0.4-3.9c-0.6-1.6-1.4-3.1-2.3-4.4l0.2,0.6v0V123l-0.2-0.3c-0.9-1.3-2-2.5-3.2-3.6
						c0.9,1.4,1.6,2.8,2.2,4.3l0-0.1l0,0l0,0l0,0.1c0.9,2.4,1.2,4.9,0.9,7.1c0.4,2.5,0.1,5.1-0.9,7.5c-1,3.4-3.2,6.5-6.1,8.8
						c-0.9,0.9-1.9,1.7-2.9,2.4c-1.1,0.7-2.3,1.3-3.5,1.8c-2.6-0.2-5-1-7.1-2.2c-0.6-0.1-1.3-0.2-1.9-0.4l-0.3-0.1l-0.1,0l0,0
						l0.4,0.1c-3-0.8-5.9-2.5-8.3-4.8c0.9,2,2.2,3.8,3.8,5.5"/>
				</g>
			</g>
		</g>
		<g>
			<g>
				<g>
					<path fill="#3D3D3D" d="M194.4,104.7c-2.5-2.6-4.5-5.6-6.2-8.8c-1.3-2.1-2.4-4.3-3.2-6.5c-0.7-1.1-1.2-2.2-1.7-3.3
						c-0.4-1.1-0.8-2.3-0.7-3.4c0.5-1.4,2.7-0.7,4.5,0c1.7,0.7,3.5,1.6,5.1,2.5c1.3,0.2,2.7,0.5,4,0.8c0.8,1.1,1.7,2.2,2.5,3.3
						c2.8,1.9,5.5,3.9,8.1,5.9c-2.8-3.5-5.6-7-8.7-10.4c-2.7-1.7-5.5-3.4-8.6-4.8c-1.1-0.4-2.2-0.7-3.5-0.9l-1-0.1
						c-0.3,0-0.7,0-1.1,0c-0.4,0-0.8,0.1-1.2,0.3c-0.4,0.2-0.8,0.4-1.2,0.7c-0.8,0.6-1.2,1.5-1.3,2.2c-0.2,0.7-0.2,1.4-0.1,2
						c0.1,1.2,0.4,2.4,0.8,3.4c1.3,2.7,3,5,4.8,7.1c0.7,2.6,1.6,5.3,2.7,7.9c3.1,3.3,6.8,6,10.8,7.9c-1.6-1.7-3.1-3.5-4.3-5.4"/>
				</g>
			</g>
		</g>
		<g>
			<g>
				<g>
					<polyline fill="#3D3D3D" points="255.7,122.6 256.1,121.5 256.3,120.8 256.3,119.9 256.5,119.3 256.7,118.7 256.7,118.2 
						256.9,117.9 257.1,116.9 256.5,118.1 256.2,119.1 256,120.4 256,121.2 255.5,122 255.4,123.3 255.3,123.3 255.3,123.3 
						255.4,123.3 255.4,123.3 255.4,123.3 255.7,122.7 					"/>
				</g>
			</g>
		</g>
		<g>
			<g>
				<g>
					<path fill="#3D3D3D" d="M211.6,77.9c0.1-7.2,1.3-14.3,3.5-21.1l0.1-0.3l0-0.8l0,0l-0.1,1.1l0,0c1.2-4.7,2.8-9.3,5-13.5
						c0.7-2.4,1.6-4.7,2.8-6.8c0.6-1.1,1.2-2,2-3c0.8-0.9,1.6-1.7,2.5-2.3c0.9-0.3,1.7-0.4,2.5-0.3c0.2,0,0.4,0,0.6,0.1l0.6,0.2
						c0.4,0.1,0.8,0.3,1.2,0.4c1.6,0.7,3.1,2,4.4,3.5c2.6,2.5,4.8,5.7,6.7,9c2,1.7,4,3.6,5.9,5.5c0.3,2.7,0.4,5.4,0.4,8.1
						c1.2,3.1,2.2,6.2,3.1,9.4c0.5,1.6,0.9,3.2,1.2,4.8c0.4,1.6,0.7,3.2,1.1,4.9c0.1-2.3,0.2-4.5,0.2-6.7c0-2.2,0-4.5-0.1-6.8
						c-0.2-4.5-0.7-9.1-1.4-13.7c-2.7-6-5.8-12-10.5-17.4c-1.7-1.7-3.6-3.3-6-4.6c-0.6-0.3-1.2-0.6-1.8-0.9c-0.3-0.1-0.6-0.3-1-0.4
						l-1.1-0.3c-0.7-0.2-1.5-0.3-2.2-0.4c-0.7-0.1-1.5,0-2.3,0c-1.5,0.2-3,0.7-4.2,1.4c-1.2,0.6-2.3,1.4-3.2,2.3
						c-1.9,1.7-3.2,3.6-4.4,5.6c-2.5,5.5-3.6,11.1-4.2,16.7l-1.3,2.1l-1.2,2.2l0,0l0,0l0,0c-1.8,3.4-3.4,7-4.8,10.8
						c0,4.5,0.4,9.1,1.2,13.5c0.8,4.4,2.2,8.7,3.9,12.7c-0.3-4.7,0-9.3,0.8-13.7"/>
				</g>
			</g>
		</g>
		<g>
			<g>
				<g>
					<polyline fill="#3D3D3D" points="244.3,53.2 238.3,59.9 234.5,64.8 232.4,68.6 233.7,68.3 231.8,67.6 227.4,64.7 223.4,62.2 
						220.2,61.6 218.1,59 211.3,54.9 211.7,55.7 211.7,55.7 211.7,55.7 211.3,54.9 218.8,62.6 225.2,66.5 232.6,70.2 233.6,70.7 
						234.1,69.9 235.1,68.3 238.2,62.3 243.4,58.3 249,49.4 244.6,52.9 					"/>
				</g>
			</g>
		</g>
		<g>
			<g>
				<g>
					<polyline fill="#3D3D3D" points="257.5,76.1 257.6,76 257.6,76 257.6,75.9 257.6,75.9 257.7,75.9 257.7,75.8 257.7,75.8 
						257.7,75.8 257.7,75.8 257.6,75.9 257.6,76 257.6,76 257.5,76.1 257.5,76.1 257.5,76.1 					"/>
				</g>
			</g>
		</g>
		<g>
			<g>
				<g>
					<polyline fill="#3D3D3D" points="237.1,94.4 231.7,90.6 228,88.3 223.6,86.6 220.5,84.4 217.6,82.7 215.3,82.2 213.9,80.3 
						208.9,77.3 214.3,82.9 218.9,85.8 225.5,89.1 230.1,90.8 233.4,94.2 240.2,97.4 240.1,97.3 240.1,97.3 240.1,97.3 240.2,97.4 
						237.3,94.5 					"/>
				</g>
			</g>
		</g>
		<g>
			<g>
				<g>
					<path fill="#3D3D3D" d="M253.7,85.1c-0.3-0.4-0.6-0.8-0.9-1.3l-1.6-2.5l-2,2.5l-8.9,11.1l-1,1.5l4.2-0.9l-1.6-1l-7-4.3l2.4,7.9
						l2.1,6.9l5.1,10.3l2,8.3l0.6,2.3l2.1-1.5l0.5-0.4l3.7-2.9l-0.1,0.1l0.1-0.1l0.1-0.1c0.9-0.7,1.8-1.3,2.7-1.9
						c0.4-0.5,0.9-1.1,1.3-1.6l0.5-0.6l0-0.1c-0.2-1.2-0.3-2.4-0.5-3.6c1-1.7,1.9-3.4,2.8-5.1c0.3-2.4,0.5-4.8,0.7-7.2
						c0.1-1.2,0.1-2.4,0.1-3.6l0-1.8l0-0.9l0-0.4l0-0.2l0-0.1l0-0.1l0,0l0,0l0,0c0-0.1,0-0.2,0-0.2c0-0.2-0.1-0.3-0.1-0.5
						c0.1,0.2,0.1,0.4,0.1,0.6c0,0.1,0,0.1,0,0.1l0,0l0,0l0,0l0,0.1l0,0.1l-0.1,0.3l-0.1,0.6l-0.3,1.2l-0.6,2.3
						c-0.5,1.5-0.9,3-1.5,4.5c-1,3-2.2,5.9-3.5,8.6c-0.3,1.5-0.5,2.9-0.9,4.4l1.6-2.1c-1.8,0.9-3.6,2.1-5.2,3.4l0.2-0.1l-0.1,0.1
						l-0.2,0.1l-2.4,1.9l-1.8,1.6l4.7,1.4l-5.7-14.6l-5.5-10.2l-0.7-1.4l1.7,0.6l0.3,0.1L242,98l-0.4,0.1l7.6-6.5l3.1-5.5l-2.4,0
						c1.4,1.6,3,3,4.5,4.3c0.8,0.7,1.6,1.3,2.4,1.9l1.2,0.9l0.6,0.5c0.2,0.1,0.4,0.2,0.6,0.4l-1.3-2c-0.4-0.7-0.9-1.4-1.3-2.1
						c-0.8-1.4-1.6-2.8-2.3-4.2"/>
				</g>
			</g>
		</g>
		<g>
			<g>
				<g>
					<polyline fill="#3D3D3D" points="226.7,37.6 228.1,49.6 229.5,57.7 232.4,65.9 233.3,72.8 234.4,79.1 236.5,82.9 235.9,86.9 
						235.9,87 235.9,87.4 239,97.7 238.9,97.3 238.9,97.3 238.9,97.3 239,97.7 238.6,86.2 238.6,86.4 238.9,83.5 237.1,73.5 
						233.7,60.2 230.3,51.8 231,42.9 227.2,29.4 226.6,36.9 					"/>
				</g>
			</g>
		</g>
		<g>
			<g>
				<g>
					<path fill="#3D3D3D" d="M379,257.7c-2.2-0.9-4.4-1.6-6.7-2.2l-2.8-0.8l-1.5,3.1c-1.1,2.3-2.6,4.4-4.4,6.1
						c-1.8,1.7-3.7,2.7-5.9,3.3c-2.1,0.7-4.5,1.1-7.2,1.2l-12.1,0.4l9.1,8.1c1.8,1.6,3.5,3.3,4.9,5.2c1.5,1.3,2.9,2.8,3.9,4.2
						c0.5,0.7,0.9,1.5,1.1,2.1c0.2,0.6,0.3,1,0.3,1.3l-0.1,3.9l1,0.2c1.2,0.2,2.5,0.5,3.7,0.8c1.2,0.6,2.5,1.3,3.7,1.9l0.9,0.5
						l1.1-0.6c2.8-1.4,5.6-3.1,8.2-4.9l2.3-1.6l-2-2.3l-0.5-0.6l-9-9.3l-8-4l-0.5-1.1l0,0.1l7.2,2.6h21.2h0.9l0.7-0.6l0.3-0.3
						l0.2-0.1l0,0c0,0,0.2-0.2,0.3-0.2c0.2-0.2,0.4-0.4,0.5-0.6c-0.2,0.2-0.3,0.4-0.5,0.6c-0.1,0.1-0.2,0.2-0.3,0.2l0,0l-0.2,0.1
						l-0.4,0.2l-1.3,0.5l-0.2,0l-27.6-7.2h-0.8h-11.4l7.9,8.2l13.8,14.4l2.5,2.2l0.5-6.8c-2.1,1.9-4.4,3.7-6.8,5.4l3.6-0.1
						c-2.6-1-5.3-2-7.9-2.7l1.2,5.2c1.6-1.9,1.8-4.1,1.6-5.7c-0.2-1.7-0.8-3.1-1.4-4.3c-1.5-2.4-3.4-4.2-5.4-5.8c-2-1.6-4-3-6.1-4.2
						l-0.7-0.4l1-0.2c1.2-0.3,2.4-0.6,3.5-1c2.9,0.4,5.9,0.4,9-0.6c3.1-0.9,5.9-2.8,8.4-5.1c1.1-1.9,1.9-3.9,2.5-6l-3.1,1.7
						c3.6,0.4,7.2,1,10.4,2.4c1.6,0.7,3.1,1.7,4.1,3c0.3,0.3,0.5,0.7,0.7,1.1c0.2,0.4,0.4,0.8,0.5,1.2c0.1,0.4,0.2,0.9,0.3,1.3
						c0,0.2,0,0.4,0.1,0.7c0,0.2,0,0.5,0.1,0.5c0,0,0-0.1,0-0.1c0-0.1,0.1-0.1,0.1-0.2l0.1-0.4c0.1-0.3,0.2-0.6,0.2-0.9
						c0.1-0.6,0.2-1.3,0.1-2c-0.1-1.4-0.6-2.8-1.3-4c-1.5-2.5-3.8-4.4-6.1-6.1"/>
				</g>
			</g>
		</g>
		<g>
			<g>
				<g>
					<polyline fill="#3D3D3D" points="387.4,272.2 387.4,272.2 387.4,272.3 387.4,272.4 387.4,272.4 387.4,272.5 387.4,272.5 
						387.4,272.5 387.3,272.6 387.4,272.5 387.4,272.4 387.4,272.3 387.4,272.3 387.4,272.2 387.4,272.1 387.4,272.2 					"/>
				</g>
			</g>
		</g>
		<g>
			<g>
				<g>
					<path fill="#3D3D3D" d="M379.9,271.2l-13.4-1.1c-2.7,0-5.5-0.1-8.2-0.1l-6,0l4.1,4.3l0.8,0.8l7.5,5.5l4.9,5.6l3.8,4l0.9,0.9
						l1-0.8l1-0.8c0.9-1.3,1.6-2.7,2.4-4.1c1.4-0.6,2.8-1.3,4.2-2.1c1.3-1.5,2.6-3.2,3.6-5l0.2-0.3v-0.4v0l-0.2,0.7
						c0.5-0.9,0.9-1.8,1.3-2.7c0.2-0.5,0.4-0.9,0.5-1.4c0.1-0.2,0.1-0.5,0.2-0.7l0.1-0.4l0-0.2c0-0.1,0-0.3,0-0.5
						c0-0.3-0.1-0.6-0.3-0.9c0.1,0.2,0.2,0.5,0.2,0.9c0,0.2,0,0.3,0,0.4l0,0.1l0,0l0,0l-0.2,0.4c-0.1,0.2-0.2,0.5-0.4,0.7
						c-0.3,0.4-0.5,0.9-0.8,1.3c-0.6,0.8-1.2,1.5-1.9,2.2l0,0l0,0l0,0l0,0c-2.3,2.3-4.8,4-7.5,5.5c-1.5,1.5-3.1,2.8-4.8,4.1l3.4,0.3
						l-2.9-3l-10.9-9.7l-3.8-2.6l-0.3,0.7l5-1l8.3,2.2c4.9-0.6,10.1-1.1,15.5-1.5c-2.1-0.4-4.3-0.9-6.6-1.5"/>
				</g>
			</g>
		</g>
		<g>
			<g>
				<g>
					<polyline fill="#3D3D3D" points="419.6,283.5 413.6,280.8 409.4,279.3 404.7,278.4 401.2,276.9 398,275.7 395.6,275.7 
						393.8,274.1 388.3,272.1 394.7,276.6 399.9,278.5 407.1,280.5 411.9,281.3 415.9,284 423.3,285.9 419.9,283.6 					"/>
				</g>
			</g>
		</g>
		<g>
			<g>
				<g>
					<polyline fill="#3D3D3D" points="428.9,289.2 433.3,291.7 436.4,293.3 439.9,294.3 442.4,295.8 444.8,297 446.7,297.2 
						448,298.5 452,300.5 447.4,296.5 443.6,294.6 438.3,292.5 434.6,291.5 431.8,289.1 426.2,287 428.6,289.1 					"/>
				</g>
			</g>
		</g>
		<g>
			<g>
				<g>
					<path fill="#3D3D3D" d="M401.7,274.4c3.2-1.1,6.5-2.4,9.5-4.8c1-0.9,1.9-1.8,2.6-3.1c0.2-0.3,0.4-0.6,0.5-1
						c0.1-0.3,0.3-0.7,0.4-1l0.2-1.1c0.1-0.4,0.1-0.7,0.1-1c-0.2-1.4-0.4-2.8-1.2-4.1c-0.4-0.7-1-1.4-1.8-1.7
						c-0.8-0.4-1.7-0.3-2.3-0.1c-1.1,0.1-2.1,0.5-3,0.9c-0.9,0.4-1.8,0.9-2.7,1.4c-1.5,1-2.9,2-4.3,3.1l-2,3l-3.5,1.1l-7.2,5.3
						l11.1-4.4c2.3-1.7,4.5-3.4,6.8-4.9c1.4-1.1,2.9-2.3,4.3-3c0.7-0.3,1.3-0.5,1.7-0.3c0.4,0.1,0.8,0.6,1.1,1.4
						c0.5,0.9,0.8,2.2,0.8,3.4c0.1,1.2-0.3,2.5-0.9,3.6c-1,0.8-2.1,1.3-3.2,1.8c-1.1,0.5-2.2,0.8-3.4,1.1c-3.1,2.1-6.6,3.8-10.1,5.4
						c2.1-0.1,4.2-0.3,6.3-0.6"/>
				</g>
			</g>
		</g>
		<g>
			<g>
				<g>
					<polyline fill="#3D3D3D" points="383.5,275.2 383.8,275 384,274.8 384.2,274.7 384.3,274.5 384.5,274.4 384.5,274.3 
						384.6,274.3 384.9,274.1 384.5,274.3 384.3,274.4 384,274.7 383.8,274.9 383.6,275 383.3,275.3 383.5,275.2 					"/>
				</g>
			</g>
		</g>
		<g>
			<g>
				<g>
					<polyline fill="#3D3D3D" points="385.4,277.8 385.5,277.8 385.5,277.8 385.6,277.8 385.6,277.8 385.6,277.8 385.7,277.7 
						385.7,277.7 385.7,277.7 385.7,277.7 385.6,277.7 385.5,277.8 385.5,277.8 385.4,277.8 385.4,277.8 385.4,277.8 					"/>
				</g>
			</g>
		</g>
		<g>
			<g>
				<g>
					<path fill="#3D3D3D" d="M406,298.8c-0.2-5-1.7-10.3-4.1-14.9c-1.8-3.1-4-5.8-6.5-8.4c-0.5-0.4-1-0.8-1.6-1.1
						c-0.5-0.4-1.1-0.7-1.6-1l-3.2-2l-0.4-0.2l-0.1,0l-0.4-0.1l-0.5-0.1l0,0l-0.3,0.1l-1.5,0.3l0,1c0,0.7-0.1,1.4-0.2,2.2
						c-0.3,0.8-0.7,1.5-1.2,2.2l-0.2,0.4l0.1,0.5c0.4,2,0.8,3.8,1.4,5.7c0.8,2.5,1.8,4.9,2.8,7.2c1.2,1.3,2.5,2.5,3.7,3.8
						c0.2,1.7,0.5,3.5,0.8,5.2c1.1,1.9,2.3,3.8,3.6,5.6c0.7,0.9,1.4,1.8,2.2,2.7c0.4,0.4,0.9,0.8,1.5,1.2c0.3,0.2,0.7,0.4,1.1,0.5
						c0.4,0.1,1.1,0.2,1.7,0c-0.9,0.2-1.6-0.1-2-0.4c-0.5-0.3-0.7-0.6-1-0.9c-0.5-0.6-0.9-1.3-1.2-1.9c-0.7-1.3-1.2-2.7-1.7-4
						c-0.9-2.7-1.6-5.4-2.3-8.2c-1.8-3.5-3.5-7.1-4.8-10.8c-1-2.1-1.9-4.4-2.6-6.5l-0.2,1.6c0.7-1.7,1.3-3.5,1.6-5.5l-1.8,1.5l0.3,0
						l-0.6-0.1l0.4,0.1l-0.5-0.3l2.7,1.9c3.2,1.7,6,3.8,8.8,6.3c1.3,3.4,2.1,6.8,2.3,10.1c1.1,2.4,1.9,5,2.5,7.7
						c0.3,1.3,0.5,2.7,0.6,4.1c0,0.7,0,1.4,0,2c-0.1,0.6-0.3,1.3-0.7,1.6c0.3,0,0.6-0.2,0.9-0.5c0.3-0.3,0.5-0.6,0.6-1
						c0.4-0.7,0.6-1.5,0.8-2.2c0.4-1.5,0.7-3.1,0.9-4.6"/>
				</g>
			</g>
		</g>
		<g>
			<g>
				<g>
					<polyline fill="#3D3D3D" points="388,272.7 387.8,272.6 387.8,272.5 387.7,272.4 387.6,272.4 387.5,272.3 387.5,272.3 
						387.4,272.3 387.4,272.3 387.4,272.3 387.3,272.2 387.4,272.3 387.4,272.3 387.4,272.3 387.5,272.4 387.7,272.5 387.8,272.6 
						387.9,272.7 388,272.8 388,272.7 					"/>
				</g>
			</g>
		</g>
		<g>
			<g>
				<g>
					<path fill="#3D3D3D" d="M434.7,287.5c3.7-1.3,7.3-3.2,10.3-6.3c1.9-2.2,3.3-4.8,4.1-7.5c0.2-1.5,0.3-2.9,0.2-4.4
						c-0.1-0.8-0.2-1.5-0.4-2.3c-0.1-0.4-0.3-0.8-0.5-1.2c-0.1-0.2-0.3-0.4-0.5-0.6c-0.2-0.2-0.4-0.3-0.7-0.4
						c-0.8-0.5-1.6-0.4-2.2-0.3c-0.6,0.1-1.2,0.3-1.8,0.5c-1.1,0.5-2.1,1-3,1.6c-1.7,1.2-3.2,2.4-4.8,3.7c-0.7,1.2-1.4,2.4-2,3.6
						c-1.3,0.5-2.5,1.1-3.7,1.8c-1.2,1.3-2.2,2.6-3.3,3.9c-1,1.3-2,2.7-3,3.9c3.5-2.5,7-5.7,10.7-7.5c2.3-2.1,4.7-4.2,7.1-5.9
						c0.8-0.7,1.5-1.3,2.3-1.8c0.8-0.5,1.6-1,2.2-1.2c0.1-0.1,0.2-0.1,0.3-0.1c0,0,0-0.1,0-0.1c0-0.1,0.2,0.1,0.3,0.5
						c0.2,0.7,0.3,1.7,0.2,2.7c0.1,2.6-0.2,5.5-1.3,8.1c-2.1,1.9-4.5,3.2-6.9,4c-3.1,2.6-7.1,4.6-11.2,5.9c2.3,0.1,4.7,0,7.1-0.4"/>
				</g>
			</g>
		</g>
		<g>
			<g>
				<g>
					<path fill="#3D3D3D" d="M438.2,303.9c-1.5-3.6-3.2-6.9-5-10.2c-1.4-2.2-2.8-4.3-4.2-6.5l-1.2-1.2l-0.6-0.6l-0.2,0l-2-0.6
						l-0.2-0.1l-1.1-0.2l-2.4-0.5l0.6,1.9l0.9,3.1l0.8,6.5c0.4,1.9,0.9,3.9,1.5,5.8c0.8,1.1,1.7,2.2,2.6,3.2
						c0.1,1.3,0.3,2.7,0.8,4.1c0.6,0.7,1.3,1.4,2.1,1.9c0.7,0.5,1.5,1,2.3,1.4c0.8,0.4,1.6,0.7,2.6,1c0.5,0.1,1,0.2,1.5,0.2
						c0.6,0,1.3-0.1,1.9-0.7c-0.5,0.3-0.9,0.4-1.3,0.4c-0.4,0-0.7-0.1-1.1-0.2c-0.6-0.2-1.1-0.5-1.6-0.8c-1-0.6-1.8-1.4-2.5-2.1
						c-0.4-0.4-0.7-0.8-1-1.2c-0.3-0.4-0.5-0.8-0.7-1.3c-0.4-0.9-0.6-1.8-0.7-2.8c-1.2-2.6-2-5.5-2.7-8.5c-0.5-1.7-0.9-3.4-1.4-5.1
						c-0.2-0.9-0.5-1.7-0.7-2.6l-0.6-2.6l-1.8,1.4l1.1,0.3l-0.1-0.1l0.7,0.3l1.3,0.3l-0.4-0.3c1.7,1.7,3.4,3.3,5,5
						c0.9,2.6,1.7,5.2,2.4,7.8c1.3,1.7,2.5,3.5,3.6,5.3c0.5,0.9,1,1.8,1.4,2.8c0.1,0.2,0.2,0.5,0.3,0.7c0.1,0.2,0.1,0.5,0.2,0.7
						c0.1,0.5,0.1,1-0.2,1.4c0.5-0.2,0.7-0.9,0.8-1.5c0.1-0.6,0.1-1.2,0.1-1.8c-0.1-1.2-0.3-2.4-0.5-3.6"/>
				</g>
			</g>
		</g>
		<g>
			<g>
				<g>
					<polyline fill="#3D3D3D" points="424.4,284.7 424.7,285.2 425,285.5 425.3,285.8 425.4,286.1 425.6,286.4 425.8,286.5 
						425.8,286.7 426.1,287.1 425.9,286.5 425.6,286.1 425.2,285.5 424.9,285.2 424.7,284.8 424.3,284.3 424.4,284.7 					"/>
				</g>
			</g>
		</g>
		<g>
			<g>
				<g>
					<path fill="#3D3D3D" d="M482.6,305.2c0.1-0.6,0-1.3-0.1-2c-0.1-0.4-0.2-0.7-0.4-1c-0.1-0.4-0.3-0.7-0.6-0.9
						c-0.9-1.2-2-1.9-3-2.5c-2.2-1.1-4.3-1.6-6.5-1.9c-1.5-0.1-2.8-0.3-4.4-0.3c-1.6,0-3,0.2-4.3,0.3c-2.7,0.7-5.5,1.2-8.4,1.6
						c-0.6-0.1-1.1-0.1-1.8-0.2c-0.2,0-0.3,0-0.6,0c-0.2,0-0.6,0-1,0.4c-0.4,0.4-0.5,0.9-0.5,1.2c0,0.3,0.1,0.5,0.2,0.7
						c0.3,0.8,0.7,1.3,1,1.8c0.4,0.5,0.8,1,1.2,1.5c1.6,1.6,3.3,3,5.1,4.2c1.4,0.4,2.9,0.8,4.3,1c1,1.1,2,2.2,3.1,3.2
						c1.7,0.7,3.6,1.3,5.6,1.5c2,0.2,4.1,0,6.1-1c-1.4,0.4-2.8,0.4-4,0.2c-1.2-0.2-2.3-0.7-3.4-1.2c-2.1-1.1-3.9-2.5-5.5-4.1
						c-2.8-1.5-5.5-3.4-7.8-5.5c-0.8-0.6-1.6-1.3-2.3-2c-0.1-0.2-0.3-0.3-0.4-0.5l-0.1-0.1c0,0-0.1-0.1,0,0c0,0.1,0,0.1,0,0.3
						c0,0.2-0.1,0.4-0.2,0.6c-0.1,0.1-0.2,0.2-0.3,0.3c-0.1,0.1-0.1,0.1-0.2,0.1c-0.1,0-0.1,0.1-0.1,0.1c-0.3,0.1-0.3,0.1-0.4,0.1
						c-0.1,0,0.3-0.1,0.5-0.1c2.3-0.1,4.7-0.2,7-0.4c1.5-0.3,3-0.7,4.5-1.2c1.4-0.5,2.9-0.9,4.5-1.1c1.4,0.5,2.8,1,4.2,1.5
						c1.3,0.6,2.6,1.3,3.5,2.1c0.9,0.3,1.8,0.7,2.3,1.3c0.2,0.3,0.5,0.7,0.6,1.1c0.1,0.4,0.1,0.9,0.1,1.5c-0.2,2.1-1.2,4.3-3.1,5.6
						c1.2-0.3,2.3-1,3.3-2c1-0.9,1.8-2.1,2.3-3.6"/>
				</g>
			</g>
		</g>
		<g>
			<g>
				<g>
					<path fill="#3D3D3D" d="M221.7,231c-1.5-1.1-2.9-2.2-4.3-3.3l-3-2.2c-1.2-0.6-2.3-1.2-3.5-1.8c-0.8-0.7-1.6-1.4-2.4-2.1
						l-2.2-1.8l-1.9-0.6l-1-1.7l-3.8-3l3.9,5.2l3.6,2.9c1.7,1.2,3.4,2.3,5.2,3.4c1.2,0.6,2.5,1.1,3.7,1.7c0.9,1,1.7,2,2.6,3
						c1.9,1,3.8,2,5.7,2.9l-2.3-2.5"/>
				</g>
			</g>
		</g>
		<g>
			<g>
				<g>
					<path fill="#3D3D3D" d="M153.2,152.9c0.2,1.1,0.5,2.1,0.8,3.2c0.2,0.7,0.5,1.4,0.7,2.1c0.4,0.7,0.8,1.4,1.2,2l0.6,1.8l0.7,1.6
						l0.8,0.9l0.1,1.2c0.4,0.9,0.8,1.8,1.3,2.6c-0.3-1.3-0.5-2.5-0.7-3.8c-0.4-0.8-0.7-1.7-1.1-2.5c-0.6-1.1-1.1-2.2-1.6-3.3
						c-0.4-0.7-0.9-1.4-1.3-2.1c-0.1-0.8-0.1-1.6-0.2-2.4c-0.5-1.2-1-2.3-1.4-3.5l0.1,2"/>
				</g>
			</g>
		</g>
		<g>
			<g>
				<g>
					<path fill="#3D3D3D" d="M156.4,101.2l1-2l0.6-1.4l0.4-1.5l0.6-1.1l0.5-1.1l0.1-0.8l0.6-0.6l0.9-1.8c-0.6,0.6-1.2,1.3-1.8,2
						l-0.8,1.7c-0.3,0.8-0.6,1.6-0.9,2.4l-0.3,1.6l-1,1.3c-0.2,0.8-0.5,1.7-0.7,2.5l0.8-1.1"/>
				</g>
			</g>
		</g>
		<g>
			<g>
				<g>
					<path fill="#3D3D3D" d="M150.7,127.5l0.2-1.8l0.1-1.3l-0.1-1.3l0.2-1.1l0.1-1l-0.1-0.7l0.3-0.6l0.3-1.6c-0.3,0.7-0.6,1.4-0.9,2
						l-0.2,1.6l-0.1,2.1l0.2,1.4l-0.4,1.3c0,0.7,0.1,1.4,0.1,2.2L150.7,127.5"/>
				</g>
			</g>
		</g>
		<g>
			<g>
				<g>
					<polyline fill="#3D3D3D" points="174,190.3 175.2,191.9 176.1,193 177.2,193.9 177.9,194.8 178.7,195.6 179.3,196 179.6,196.7 
						180.8,198 179.7,195.9 178.5,194.6 176.9,193 175.7,192.1 175.1,190.7 173.4,189.1 173.9,190.2 					"/>
				</g>
			</g>
		</g>
		<g>
			<g>
				<g>
					<path fill="#3D3D3D" d="M178.6,168.3c-1.6-2.1-3.9-3.7-6.4-4.7c-2.6-0.9-5.4-1.2-8.2-0.6c-3.7,0.9-7,3.3-9.1,6.5
						c-1.7,3.6-1.8,7.7-0.5,11.1c0.5,2.8,1.8,5.6,3.9,7.7c1,0.9,2.1,1.7,3.3,2.3c0.6,0.3,1.2,0.5,1.9,0.8c0.7,0.2,1.3,0.4,2,0.4
						c1.8-0.3,3.5-0.9,4.9-1.8c1.6,0.2,3.4,0.1,5.2-0.4c1.9-1.3,3.5-3,4.6-5.1c1.1-2,1.6-4.3,1.7-6.6c-0.7,3-2.4,5.5-4.4,7.1
						c-2.1,1.6-4.5,2.4-6.7,2.3c-2.9,0.9-6.2,0.4-8.7-1.4c-1.8-1-3.3-2.6-4.2-4.6c-0.9-2-1.2-4.3-0.7-6.6c0.2-3.1,1.8-6.3,4.6-8.6
						c3.4-0.8,6.9-0.1,9.2,1.5c2.2,0.4,4.4,1.6,6.1,3.4c1.7,1.8,2.8,4.2,3.1,6.8c0.7-2.7,0.5-6-1-8.9"/>
				</g>
			</g>
		</g>
		<g>
			<g>
				<g>
					<path fill="#3D3D3D" d="M160.8,131.4c-1.4-1.8-3.4-3.3-5.7-4.1c-2.3-0.8-4.8-1-7.2-0.6c-3.3,0.8-6.2,2.9-8,5.7
						c-1.5,3.2-1.6,6.8-0.5,9.8c0.4,2.5,1.6,4.9,3.5,6.8c0.9,0.8,1.9,1.5,3,2c1.1,0.5,2.2,0.9,3.4,1.1c1.6-0.2,3.1-0.8,4.3-1.6
						c1.4,0.2,3,0.1,4.6-0.4c3.4-2.2,5.5-6.2,5.5-10.3c-0.6,2.6-2.1,4.8-3.9,6.2c-1.8,1.4-4,2.1-5.9,2.1c-0.6,0.2-1.3,0.3-2,0.3
						c-0.3,0-0.7,0.1-1,0c-0.3,0-0.7,0-1-0.1c-1.3-0.2-2.6-0.7-3.7-1.5c-1.6-0.9-2.9-2.3-3.7-4.1c-0.8-1.7-1-3.8-0.7-5.8
						c0.2-2.7,1.6-5.6,4.1-7.6c3-0.7,6-0.1,8.2,1.3c2,0.4,3.9,1.4,5.4,3c1.5,1.6,2.5,3.7,2.7,6c0.6-2.4,0.4-5.3-0.9-7.9"/>
				</g>
			</g>
		</g>
		<g>
			<g>
				<g>
					<path fill="#3D3D3D" d="M159.7,103.9c-1.1-1.3-2.5-2.4-4.1-3c-1.7-0.6-3.5-0.8-5.3-0.4c-2.4,0.6-4.5,2.1-5.9,4.2
						c-1.1,2.4-1.2,5-0.3,7.1c0.3,1.8,1.2,3.6,2.5,5c1.3,1.2,2.9,1.9,4.6,2.2c0.6-0.1,1.2-0.2,1.7-0.4c0.5-0.2,1-0.4,1.5-0.7
						c1.1,0.1,2.2,0.1,3.3-0.3c1.2-0.8,2.2-2,3-3.3c0.7-1.3,1.1-2.8,1.1-4.3c-0.5,1.9-1.5,3.5-2.9,4.6c-1.3,1.1-2.9,1.5-4.3,1.5
						c-0.9,0.3-1.9,0.3-2.9,0.2c-1-0.2-1.9-0.5-2.7-1.1c-1.2-0.6-2.1-1.7-2.7-3c-0.6-1.3-0.8-2.8-0.5-4.2c0.1-2,1.1-4.1,3-5.5
						c2.2-0.5,4.4-0.1,6,1c1.4,0.3,2.9,1,3.9,2.2c1.1,1.2,1.8,2.7,2,4.4c0.5-1.8,0.3-3.8-0.6-5.7"/>
				</g>
			</g>
		</g>
		<g>
			<g>
				<g>
					<path fill="#3D3D3D" d="M173.4,78.8c-1.1-1.3-2.5-2.4-4.2-3c-1.7-0.6-3.5-0.8-5.3-0.4c-2.4,0.6-4.5,2.1-5.9,4.2
						c-1.1,2.3-1.2,5-0.3,7.2c0.3,1.8,1.1,3.5,2.5,4.9l-0.3-0.7l0,0l0,0.4l0.3,0.3l0.1,0.1c1.3,1.2,2.9,2,4.7,2.2
						c1.2-0.2,2.2-0.6,3.1-1.2c1.1,0.1,2.2,0.1,3.3-0.3c1.2-0.8,2.2-2,2.9-3.3c0.7-1.3,1.1-2.8,1.1-4.3c-0.5,1.9-1.5,3.5-2.9,4.6
						c-1.3,1.1-2.9,1.5-4.3,1.5c-1.9,0.6-4,0.3-5.6-0.9c-0.2-0.1-0.5-0.3-0.7-0.5l0.5,1.2l0,0l-0.1-0.9l-0.5-0.4
						c-1-0.7-1.7-1.7-2.2-2.9c-0.5-1.2-0.6-2.5-0.3-3.8c0.1-2,1.1-4.1,3-5.5c2.2-0.5,4.4-0.1,6,1c1.4,0.3,2.9,1,3.9,2.2
						c1.1,1.2,1.8,2.7,2,4.4c0.4-1.8,0.3-3.9-0.6-5.7"/>
				</g>
			</g>
		</g>
		<g>
			<g>
				<g>
					<path fill="#3D3D3D" d="M202,195.8c-1.6-2.1-3.9-3.7-6.4-4.7c-2.6-0.9-5.4-1.2-8.2-0.6c-3.7,0.9-7,3.3-9.1,6.5
						c-1.7,3.6-1.8,7.7-0.5,11.1c0.5,2.8,1.8,5.6,3.9,7.7c1,0.9,2.1,1.7,3.3,2.2c0.6,0.3,1.2,0.5,1.9,0.8c0.7,0.2,1.3,0.4,2,0.4
						c1.8-0.3,3.5-0.9,4.9-1.8c1.6,0.2,3.4,0.1,5.2-0.4c1.9-1.3,3.5-3,4.6-5.1c1.1-2,1.6-4.3,1.7-6.6c-0.7,3-2.3,5.5-4.4,7.1
						c-2,1.7-4.5,2.4-6.7,2.3c-2.9,0.9-6.2,0.4-8.7-1.4c-1.8-1-3.3-2.6-4.2-4.6c-0.9-2-1.2-4.3-0.7-6.6c0.2-3.1,1.8-6.3,4.6-8.6
						c3.4-0.8,6.9-0.1,9.2,1.5c2.2,0.4,4.4,1.6,6.1,3.4c1.7,1.8,2.8,4.2,3.1,6.8c0.7-2.7,0.5-6-1-8.9"/>
				</g>
			</g>
		</g>
		<g>
			<g>
				<g>
					<path fill="#3D3D3D" d="M157.8,253.6c-4.7-1.4-9.2-3.4-13.3-5.9c-4.2-2.5-8.1-5.5-11.6-8.8c-5.1-4.2-9.8-9.1-13.4-14.4
						c-2.3-2.4-4.5-5-5.9-7.7c-0.7-1.4-1.2-2.8-1.4-4.1c-0.2-1.3,0-2.5,0.7-3.8c0.9-0.8,1.9-1.4,3.1-2c1.2-0.5,2.5-0.9,3.8-1.3
						c2.7-0.6,5.5-0.9,8.4-0.9c5.2-0.3,10.5,0.1,15.7,1.1c3.6-0.6,7.4-1,11.2-1.1c3.1,2.3,5.9,4.8,8.4,7.5c4.1,1.9,7.9,4.3,11.4,7
						c3.5,2.7,6.7,5.9,9.5,9.3c-2.4-5.5-5.7-10.8-10-15.6c-4.3-4.8-9.4-9.1-15-12.8c-4.5-1.6-9.1-2.8-13.8-3.7
						c-4.7-0.9-9.5-1.3-14.3-1.3c-3.3,0.3-6.6,0.7-9.9,1.6c-0.8,0.2-1.6,0.4-2.5,0.7l-1.2,0.4l-1.2,0.5c-0.8,0.3-1.6,0.7-2.5,1.1
						c-0.8,0.5-1.6,0.9-2.4,1.5c-1.6,1.1-3.2,2.4-4.4,4.3c-0.3,0.4-0.6,0.9-0.9,1.4c-0.3,0.5-0.5,1-0.7,1.5
						c-0.4,1.1-0.6,2.2-0.7,3.2c-0.3,4.2,0.9,7.6,2.3,10.6c2.3,3.7,5.2,6.7,8.2,9.4c3,2.7,6.2,5,9.5,7.1c4,6.4,9,12.6,15.2,17.9
						c6.1,2.4,12.4,3.9,18.8,4.4c6.3,0.5,12.6,0.1,18.7-1c-6.5-1.1-12.7-3-18.2-5.7"/>
				</g>
			</g>
		</g>
		<g>
			<g>
				<g>
					<path fill="#3D3D3D" d="M137.2,261.6c-4.2,1.9-8.4,3.7-12.6,5.7c-2.1,1.1-4.3,2.2-6.4,3.6c-2.1,1.4-4.2,3.1-6,4.9
						c-2.3,2.6-4.3,5.4-6,8.4c-1.7,2.9-3.2,6-4.4,9.3c-0.7,3.6-1,7.3-0.6,11c0.2,1.9,0.6,3.7,1.3,5.6c0.4,0.9,0.7,1.8,1.3,2.6
						c0.5,0.8,1,1.6,1.7,2.3c0.4,0.7,0.9,1.2,1.4,1.9c0.5,0.6,1.1,1.1,1.7,1.6c1.2,0.9,2.5,1.8,3.9,2.3c2.8,1.2,5.6,1.7,8.4,2
						c2.5,0.1,5,0,7.5-0.1c1.2-0.1,2.4-0.2,3.6-0.3c1.2-0.1,2.5-0.3,3.7-0.4c3-1.5,5.9-3.2,8.6-5.1c3.2,0.3,6.6,0.3,10,0.1
						c7.8-3.1,15-7.4,21.6-12.4c-10.2,4.4-20.8,6.9-30.9,7c-3.4,1-6.8,1.8-10.3,2.2l-2.6,0.3l-2.8,0.2c-1.8,0.1-3.6,0.2-5.3,0.3
						c-2.3,0.2-4.5,0.3-6.6,0.1c-2.1-0.2-3.9-0.7-5.3-1.6l-0.5-0.3l-0.5-0.4c-0.3-0.3-0.6-0.6-0.9-0.9c-0.1-0.2-0.2-0.3-0.4-0.5
						c-0.1-0.2-0.2-0.4-0.3-0.6c-0.3-0.4-0.4-0.9-0.6-1.3c-0.7-1.8-0.9-4.1-0.8-6.4c-0.3-3.1,0-6.4,0.7-9.6c0.7-3.3,1.7-6.5,3-9.7
						c2.5-2.2,5.2-4.2,8.1-5.6c2.9-1.4,5.8-2.4,8.9-3.2c4.2-2.9,8.6-5.8,12.9-8.6c4.4-2.8,8.9-5.5,13.5-8
						c-5.6,0.8-11.1,1.9-16.7,3.1"/>
				</g>
			</g>
		</g>
		<g>
			<g>
				<g>
					<polyline fill="#3D3D3D" points="155.5,311 156.1,307.1 156.3,304.4 156.1,301.5 156.4,299.3 156.6,297.2 156.2,295.8 
						156.8,294.5 157.1,291 155.5,295.4 155.2,298.7 155.2,303.2 155.6,306.2 154.6,309 154.7,313.6 155.5,311.2 					"/>
				</g>
			</g>
		</g>
		<g>
			<g>
				<g>
					<polyline fill="#3D3D3D" points="129.9,272.9 134.1,275.4 137,276.9 140.4,278 142.8,279.4 145.1,280.6 146.8,280.8 148,282.1 
						151.9,284.1 147.6,280.2 143.9,278.3 138.9,276.2 135.3,275.2 132.7,272.9 127.4,270.8 129.7,272.8 					"/>
				</g>
			</g>
		</g>
		<g>
			<g>
				<g>
					<path fill="#3D3D3D" d="M224.1,257.6l-36.6-3.3c-1.1,0-2.2,0-3.4,0l-1.7,0.1l-1.7,0.1c-2.4,0.2-4.7,0.4-7.1,0.9
						c-4.7,0.9-9.5,2.4-13.9,4.8l-1.5,1.2l-1.5,1.3c-0.9,0.8-1.8,1.7-2.7,2.6c-1.8,1.9-3.6,4.1-4.9,6.8c-0.6,1.3-1.1,2.8-1.4,4.3
						c-0.2,1.5-0.3,3.1-0.1,4.6c0.2,1.5,0.7,2.9,1.3,4.1c0.6,1.3,1.3,2.4,2.1,3.3c0.2,0.3,0.3,0.6,0.5,0.9l-0.5-1.6l0,0l0,0.7
						l0.5,0.8c1,1.7,2.2,3.2,3.6,4.6c1.5,1.5,3.3,2.6,5.2,3.4c3.8,1.6,7.7,2,11.4,2c2-0.1,3.9-0.3,5.8-0.7l1.7-0.3l1-1.6
						c0.5-0.8,1-1.7,1.6-2.4c0.6-0.7,1.2-1.4,1.8-2c1.4-1.2,3.1-2.3,4.9-3.3c2.7-3.1,6.1-6,9.5-8.8c4.4,0,8.8,0.2,13.2,0.5
						c5.2-1.5,10.4-2.9,15.6-4.2c2.6-0.6,5.2-1.3,7.9-1.8l3.9-0.9l2.1-0.5c1.5-0.3,3.1-1.1,4.2-1.9c-0.8,0.5-1.8,0.9-2.8,1.1
						c-0.5,0.1-1,0.2-1.4,0.3l-0.3,0c-0.1,0-0.1,0-0.2,0l-0.3,0l-2.7-0.1l-5.4-0.2c-3.6-0.1-7.3-0.2-10.9-0.2
						c-7.3,0-14.6,0.1-22.1,0.6c-4.8,1.6-9.6,3.3-14.5,5.8c-2.5,1.3-5,2.8-7.5,4.9c-1.2,1.1-2.5,2.3-3.5,3.6c-1,1.3-1.8,2.6-2.6,3.9
						l5.1-3.6l-1.4,0.2c-3.4,0.8-6.7,1.2-9.4,0.8c-1.3-0.2-2.5-0.5-3.4-1.1c-0.2-0.2-0.5-0.3-0.8-0.5c-0.3-0.2-0.6-0.5-0.9-0.7
						c-0.6-0.5-1.1-1-1.5-1.6l0.9,2.9l0,0l-0.2-2.1l-0.7-0.8c-0.7-0.8-1.2-1.6-1.5-2.4c-0.4-0.9-0.6-1.5-0.6-2.4
						c-0.1-1.6,0.6-3.4,2.1-5.2c0.9-1.6,2.3-3.2,3.9-4.8c1.5-1.5,3.2-2.9,5-4.2c3.7-2.5,8-4.4,12.5-5.7c4.5,0.7,8.8,1.9,13,3.2
						l12.9,3.7l36.3-2.7l-1.2-1.3l0.1,1.6c0,0.3,0,0.5,0.1,0.8l0.1,0.7l0.6,2.8c0.1-0.8,0.3-1.7,0.5-2.7c0.1-1.1,0.5-2,0.8-3
						l0.2-0.7l-1.1-0.3l-15.9-4.5"/>
				</g>
			</g>
		</g>
		<g>
			<g>
				<g>
					<polyline fill="#3D3D3D" points="112.3,310.6 120.9,306.8 126.6,303.9 132,299.9 137,297.6 138.8,296.7 138.3,296.8 
						138.3,296.8 138.6,296.8 138.8,296.7 141.4,295.4 143.7,292.9 147.1,292.4 154.5,288.6 143.6,291 137.5,294.2 138.3,294 
						138.3,294 137.9,294 137.5,294.2 136.6,294.6 127.5,300.3 122,304.7 115.3,306.2 106.2,312.2 111.9,310.9 					"/>
				</g>
			</g>
		</g>
		<g>
			<g>
				<g>
					<polyline fill="#3D3D3D" points="116.4,289.7 125.1,292.9 131.1,294.7 137.8,295.5 138.2,295.7 137.7,294.9 137.5,295.7 
						138.3,295 138.3,295 137.7,295 137.5,295.7 136.7,299.7 136,304.5 136.7,307.8 135.1,310.8 133.9,319 138.3,308.8 139.4,301 
						139.7,296 138.3,297.2 138.3,297.2 139.7,297.1 139.7,296 139.8,295.2 139.8,293.9 138.8,293.7 134.3,292.7 127.3,292.1 
						121.5,288.6 111,286.6 115.9,289.5 					"/>
				</g>
			</g>
		</g>
		<g>
			<g>
				<g>
					<path fill="#3D3D3D" d="M149.7,213.5l4.7,14.7l1.9,4.9l0.2,0.6l1.7-0.6l0,0l0.1,0c0,0,0,0,0,0c0,0-0.1,0-0.1,0c0,0,0,0,0,0.1
						c0,0,0,0,0,0c0,0,0-0.1,0-0.1l0.8-1.6l0,0l-0.1,0l-0.3-0.2l-1.2-0.6l-10.6-3.3l-7.7-4.5l-7.2-3.7l-5.5-0.7l-3.8-4.1l-12.2-6.3
						l13.7,12.3l11.5,5.9l16.1,6.7l5.6,1.6c0.2,0.1,0.6,0.2,0.9,0.1c0.3,0,0.6-0.2,0.8-0.4c0.4-0.4,0.5-1,0.3-1.4l-1.6-2.4
						l-1.3-11.2l-8.2-15.9l1.2,9.5"/>
				</g>
			</g>
		</g>
		<g>
			<g>
				<g>
					<polyline fill="#3D3D3D" points="154.7,235.6 150.6,237.9 148,239.7 145.5,242 143.2,243.3 141.2,244.7 140.1,246 138.5,246.4 
						135,248.7 140.3,246.9 143.6,244.8 147.7,241.5 150.2,239.1 153.4,238 157.6,234.5 154.9,235.5 					"/>
				</g>
			</g>
		</g>
		<g>
			<g>
				<g>
					<polyline fill="#3D3D3D" points="123.9,232.5 129.9,228.4 133.9,225.4 135.2,224 135.9,223.2 135.6,222.7 133.8,219.8 
						132.5,215.8 131.1,212.2 129.4,210.1 129.3,207.5 126.9,201.4 127.9,210.1 130.2,215.8 133.8,223.3 133.8,223.3 134.1,222.5 
						130.5,226.6 125.5,228.7 119.4,234.6 123.6,232.8 					"/>
				</g>
			</g>
		</g>
		<g>
			<g>
				<g>
					<path fill="#3D3D3D" d="M140.3,254.5c-5-1.8-10.2-3.1-15.5-4.1c-3.6-0.5-7.3-0.7-10.9-0.9c-3.8,0.5-7.5,1.1-11.2,1.8l-9.1-0.2
						c-2.8,0-5.5,0.2-8.2,0.3l-5.3,2.1c-1.8-0.5-3.6-1.1-5.5-1.6c-4,0.3-8,0.6-12,1.1l0.2,0h0h-0.1l-0.1,0l-2,0.2l2.1,0.3l0.1,0l0,0
						l-0.1,0c5.5,0.8,10.9,1.8,16.3,2.9l6.5-0.3c2.2-0.1,4.4-0.2,6.6-0.3l8.7-0.9c2.9-0.3,5.9-0.7,8.8-0.8c1.9-0.4,3.8-0.7,5.8-1
						c1.9-0.3,3.9-0.6,5.8-0.8c3.6,1.3,7.1,2.8,10.5,4.4c5.9,0.5,11.8,1.7,17.7,3.2c-2.7-1.9-5.4-3.6-8.3-5.3"/>
				</g>
			</g>
		</g>
		<g>
			<g>
				<g>
					<polyline fill="#3D3D3D" points="116.5,257.7 116.6,257.8 116.6,257.8 116.7,257.8 116.7,257.8 116.8,257.8 116.8,257.8 
						116.8,257.9 116.8,257.9 116.8,257.8 116.7,257.8 116.7,257.8 116.6,257.8 116.6,257.7 116.5,257.7 116.5,257.7 					"/>
				</g>
			</g>
		</g>
		<g>
			<g>
				<g>
					<path fill="#3D3D3D" d="M113.9,237.5c-2.1-5.3-5.1-10.4-9.1-14.7c-1.4-1.4-3-2.7-4.5-3.9c-1.6-1.2-3.2-2.3-5-3.4
						c-1-0.4-2.1-0.7-3.2-1c-1.1-0.3-2.3-0.5-3.8-0.4c-0.7,0.1-1.6,0.2-2.4,0.7c-0.8,0.5-1.4,1.3-1.7,2c-0.3,0.7-0.3,1.4-0.3,2
						c0,0.6,0.1,1.2,0.2,1.7c0,1.7,0.3,3.4,0.7,5c0.4,1.6,0.9,3.2,1.4,4.7c1.1,2.7,2.4,5.4,4,8c1.6,1.3,3.2,2.4,4.9,3.5
						c0.7,1.9,1.5,3.7,2.4,5.5c3.6,3.5,7.7,6.5,12.1,9c-4.9-4.7-8.8-9.9-11.4-15.5c-2.8-3.3-5.1-6.8-6.8-10.8
						c-1.4-2.6-2.6-5.3-3.4-7.9c-0.2-0.7-0.3-1.3-0.4-1.9c-0.1-0.6-0.1-1.2,0-1.4c0-0.1,0-0.2,0-0.2c0,0,0-0.1,0.1-0.1
						c0.3-0.1,0.8-0.1,1.5,0c1.7,0.1,3.7,0.7,5.6,1.4c1.9,0.7,3.8,1.6,5.6,2.6c2.4,3.3,4.3,6.8,5.5,10.4c4,4.5,7,10.1,9.1,16.1
						c0-3.4-0.2-6.9-0.8-10.4"/>
				</g>
			</g>
		</g>
		<g>
			<g>
				<g>
					<path fill="#3D3D3D" d="M113.1,265.1c-1.4,6.1-3.9,11.7-7.9,15.7c-1.2,1.5-2.7,2.7-4.3,3.9c-1.6,1.2-3.4,2.3-5.1,3.2
						c-0.8,0.6-1.7,1.2-2.5,1.7c-0.8,0.5-1.7,0.9-2.2,1c-0.1,0-0.2,0.1-0.2,0.1c-0.2,0.4-0.3,0.6-0.4,0.7c0.1-0.1,0.1-0.1,0.2-0.1
						c0,0,0.1-0.1,0.2-0.1c0.1,0,0.1,0,0,0l0,0c0,0-0.1,0-0.1-0.1c0-0.1-0.1-0.1-0.1-0.2c-0.3-0.6-0.3-1.8-0.2-2.8
						c0.6-1.7,1.4-3.3,2.2-5c0.8-1.7,1.7-3.3,2.6-4.9c1.6-2.9,3.4-5.7,5.5-8.3c0.7-2.2,1.5-4.4,2.4-6.7l6.1-3.8
						c1.6-2,3.2-3.9,4.7-5.9l2.3-3l0.6-0.8l0.1-0.1l0,0l0,0l0,0l0,0c1.3,1-1.8-1.3-1.5-1.1c0,0-0.1-0.1-0.1-0.1
						c-0.1-0.1,0-0.1-0.1,0c0,0-0.2,0.1-0.3,0.1c-0.1,0-0.4,0.1-0.6,0.1c-0.2,0-0.5,0-0.7,0l-0.4,0l0,0l0,0l0,0.1l0,0.2l-0.1,0.9
						l0,0.6c0,0.1,0,0.2,0,0.4c0,0.1,0,0.2,0.1,0.6c0,0.2,0.2,0.5,0.4,0.7l0.1,0.1c0.1,0.1,0.1,0.1,0.2,0.2c0.2,0.1,0.4,0.3,0.6,0.3
						c0.2,0.1,0.4,0.1,0.6,0.1c0.2,0,0.3,0,0.4,0c0.3,0,0.6-0.2,0.8-0.3c0.1,0,0.1-0.1,0.2-0.1l0,0l0.1-0.1c0.1-0.1,0.2-0.2,0.3-0.3
						l-3.7-1.1c0.1,0.4,0,0.7,0.4,1.4c0.1,0.1,0.3,0.4,0.5,0.6c0.2,0.2,0.6,0.4,0.8,0.5c0.7,0.2,0.9,0.2,1,0.2l0,0l0,0l0-0.4
						l0.1-0.8c0-0.1,0-0.2,0-0.3c0-0.1,0-0.1,0-0.1l0,0l0,0c0,0,0,0,0,0c0,0,0,0,0,0c0,0-0.1,0.1-0.1,0.1c-0.1,0-0.3,0.1-0.5,0.2
						c-0.1,0-0.2,0-0.3,0.1c-0.1,0-0.3,0.1-0.4,0.1c-0.4,0.1-0.2,0-0.3,0l0,0.1l0.1-0.1l0,0c0,0,0,0,0.2,0c0.1,0,0.3-0.1,0.4-0.1
						c0.1,0,0.2,0,0.3-0.1c0.2-0.1,0.4-0.2,0.5-0.2c0,0,0.1-0.1,0.1-0.1c0,0,0,0,0,0c0,0,0,0,0,0l0,0l0,0c0,0,0,0,0,0.1
						c0,0.1,0,0.2,0,0.3l-0.1,0.8l0,0.1l0,0l0,0l0,0l0,0c0,0-0.3,0-0.8-0.2c-0.5-0.2-0.9-0.7-1-1c-0.3-0.6-0.2-0.9-0.2-1.2l2.5,0.7
						c-0.1,0.1-0.2,0.2-0.3,0.3c-0.2,0.1-0.4,0.3-0.7,0.3c-0.2,0-0.7,0-1-0.3c-0.1-0.1-0.2-0.1-0.2-0.2c-0.1-0.1-0.1-0.1-0.1-0.1
						c0-0.1-0.1-0.1-0.1-0.2c-0.1-0.1-0.1-0.3-0.1-0.3c0-0.1,0-0.2,0-0.2c0-0.2,0-0.3,0-0.4c0-0.2,0.1-0.3,0.1-0.4
						c0.1-0.2,0.1-0.4,0.2-0.6l0.2-0.6l0.1-0.3c0,0,0-0.1,0-0.1c0,0,0,0,0,0s0,0,0,0l0.2,0c0.1,0,0.2,0,0.3,0c0.1,0,0.2,0,0.2-0.1
						c0.1,0,0,0,0,0c0,0,0.1,0.1,0.1,0.1l0,0c0.7,0.6,0.2,0.2,0.4,0.3l0,0l0,0l0,0l-0.1,0.1l-0.3,0.2l-0.5,0.4l-1,0.8
						c-1.4,1.1-2.7,2.2-4.1,3.2l-8.3,6.2c-1.7,2.1-3.5,4.2-5.3,6.5c-1.8,2.3-3.5,4.7-4.9,7.2c-0.9,1.8-1.6,3.6-2.3,5.5
						c-0.6,1.8-1.3,3.6-1.8,5.5c-0.3,1-0.5,2-0.7,3c-0.2,1.1-0.3,2.2-0.2,3.6l0.1,0.5l0.1,0.6c0.1,0.4,0.3,0.8,0.5,1.2
						c0.2,0.4,0.6,0.9,1,1.2c0.4,0.3,0.9,0.6,1.3,0.7c0.9,0.3,1.6,0.3,2.2,0.2c0.6-0.1,1.2-0.2,1.7-0.3c2.7-1.1,4.6-2.7,6.5-4.3
						c1.9-1.7,3.6-3.4,5-5.4c2.1-1,4.1-2.3,6-4c1.9-1.6,3.6-3.5,5.1-5.6c1.2-3.9,1.7-7.9,1.8-11.8c0.1-2,0-3.9-0.1-5.8
						c-0.1-1.9-0.4-3.8-0.6-5.7c-0.5,2-0.9,4-1.5,5.9c-0.6,1.9-1.2,3.8-2,5.6"/>
				</g>
			</g>
		</g>
		<g>
			<g>
				<g>
					<path fill="#3D3D3D" d="M89.7,260.3c-0.5,3.6-1.7,7.2-3.4,10.3c-1,2.2-2.3,4.3-3.9,5.6c-0.7,0.8-1.3,1.4-2,1.5
						c-0.8,0.1-2-0.4-3-1.2c-1.2-1.6-2-3.7-2.4-5.7c-0.5-1.8-0.4-3.6,0-5.4c-0.2-1.3-0.1-2.7,0.1-4.1c1-0.9,2.2-1.7,3.3-2.4
						c2.1-2.5,4.8-4.6,7.6-6.3c-2.1,0.6-4.3,1.4-6.4,2.5c-2.1,1.1-4.1,2.5-5.9,4.3c-1,1.5-1.7,3.3-2.2,5.1c-0.5,1.8-0.6,3.8-0.3,5.7
						c0.6,2.5,1.7,4.7,3.2,6.7c0.8,1,1.6,1.9,2.8,2.6c1.1,0.7,2.6,1.2,4.1,1c1.9-0.6,2.9-1.9,3.7-3.1c0.8-1.3,1.3-2.6,1.8-4
						c1.9-2,3.6-4.4,5-7c0.7-4.6,0.5-9.4-0.9-13.7c-0.1,2.4-0.5,4.8-1.2,6.9"/>
				</g>
			</g>
		</g>
		<g>
			<g>
				<g>
					<path fill="#3D3D3D" d="M86.2,242.8c-1.1-5.2-3.8-10.2-7.2-14.2c-2.5-2.7-5.3-5-8.5-7c-1.8-0.7-3.7-1.4-5.8-1.6
						c-1.1-0.1-2.2-0.2-3.6,0.4c-0.7,0.3-1.5,1.1-1.6,1.8c-0.2,0.7-0.2,1.3-0.1,1.9c0,1.7,0.4,3.2,0.8,4.6c0.2,0.7,0.5,1.4,0.7,2.1
						c0.2,0.7,0.5,1.4,0.8,2.1c1.3,2.6,3,4.7,4.8,6.7c1.6,0.9,3.3,1.7,4.9,2.4c0.9,1.6,1.8,3.2,2.7,4.7c1.8,1.4,3.6,2.8,5.4,4.1
						c1.9,1.3,3.7,2.5,5.8,3.7c-1.2-1.1-2.2-2.2-3.2-3.3c-1-1.1-2-2.2-2.9-3.4c-1.9-2.3-3.6-4.6-5.2-7c-1.5-1.3-2.9-2.7-4.3-4.2
						c-1.3-1.4-2.5-3-3.5-4.5c-0.4-0.5-0.7-1-1-1.5c-0.2-0.2-0.3-0.6-0.5-0.9l-0.5-0.9c-0.6-1.2-1.2-2.4-1.5-3.5
						c-0.2-0.5-0.3-1.1-0.3-1.5c0-0.1,0-0.2,0-0.2c0,0,0-0.1,0-0.1c0,0,0,0,0,0c0,0,0,0.1-0.1,0.1c-0.1,0-0.1,0.1-0.1,0
						c-0.1-0.1,0.4-0.2,0.9-0.1c0.5,0,1.1,0.2,1.8,0.3c1.7,0.2,3.4,0.8,5.1,1.5c1.7,0.7,3.4,1.5,5,2.5c2,3.1,3.6,6.4,4.5,9.7
						c3.3,4.3,5.2,9.8,5.6,15.5c0.8-2.9,1.3-6.1,1.2-9.4"/>
				</g>
			</g>
		</g>
		<g>
			<g>
				<g>
					<path fill="#3D3D3D" d="M55.4,257.1c-1.9,0.7-3.9,1.2-5.8,1.5c-2,0.2-3.9,0.2-5.7-0.1c-2.5-0.2-4.9-1.2-6.7-2.7
						c-1.1-0.6-2.2-1.5-3.2-2.5c-0.9-1-1.8-2.1-2-3.3c0.1-1.6,2.8-1.7,5.1-1.5c2.1,0.1,4.3,0.5,6.5,1c1.5-0.2,3.1-0.3,4.6-0.4
						c1.3,0.9,2.5,1.8,3.8,2.8c1.8,0.6,3.6,1.2,5.5,1.8l2.7,1l1.3,0.4c0.1,0,0.1-0.3,0.6-0.5c-0.2,0.1-0.3,0.3-0.3,0.3
						c-0.1,0,0-0.1-0.4-0.3l-1.6-1.1l-3.2-2.1c-2.2-1.4-4.4-2.8-6.6-4.1c-3.6-1-7.2-1.9-11.1-2.4c-1.3,0-2.7,0-4.1,0.2
						c-0.7,0.1-1.5,0.3-2.3,0.6c-0.8,0.3-1.7,0.8-2.4,1.8c-0.7,0.9-0.9,2.1-0.8,3c0.1,0.9,0.3,1.6,0.6,2.3c0.6,1.3,1.4,2.4,2.3,3.4
						c1.3,1.2,2.7,2.2,4.3,2.8c1.5,0.6,3.1,1,4.7,1.1c2.6,1.6,5.9,2.4,9.3,2.5c2.6-0.8,5-1.9,7.2-3.3c0.6-0.3,1.1-0.7,1.6-1.1
						c0.5-0.4,1-0.7,1.5-1.2l0.7-0.6l0.4-0.3l0.4-0.4c0.5-0.5,1-1,1.4-1.4c-0.7,0.5-1.4,0.8-2,1c-0.5,0.2-1.2,0.4-1.8,0.6
						c-0.6,0.2-1.3,0.4-1.9,0.5l-0.9,0.2l-0.9,0.2"/>
				</g>
			</g>
		</g>
		<g>
			<g>
				<g>
					<polyline fill="#3D3D3D" points="225.7,319.6 226.7,316.8 227.3,314.9 227.7,312.8 228.3,311.2 228.8,309.7 228.8,308.6 
						229.5,307.8 230.3,305.3 228.3,308.2 227.5,310.6 226.7,313.8 226.5,316.1 225.3,317.9 224.7,321.3 225.6,319.7 					"/>
				</g>
			</g>
		</g>
		<g>
			<g>
				<g>
					<polyline fill="#3D3D3D" points="215,366.3 214.5,368.8 214.4,370.6 214.5,372.4 214.3,373.8 214.2,375.1 214.4,376 214,376.9 
						213.9,379.1 214.8,376.3 215,374.1 215,371.3 214.9,369.4 215.5,367.7 215.6,364.7 215,366.2 					"/>
				</g>
			</g>
		</g>
		<g>
			<g>
				<g>
					<polyline fill="#3D3D3D" points="214.6,409.8 214.6,406.8 214.5,404.7 214.1,402.5 214.1,400.7 214.1,399.1 213.7,398.1 
						214,397 214,394.3 213.1,397.8 213.2,400.4 213.6,403.9 214.1,406.1 213.7,408.3 214.3,411.9 214.6,410 					"/>
				</g>
			</g>
		</g>
		<g>
			<g>
				<g>
					<path fill="#3D3D3D" d="M220.2,337.4l-0.7,2.4l-0.4,1.7l-0.1,1.8l-0.4,1.4l-0.3,1.3l0.1,0.9l-0.5,0.8c-0.2,0.7-0.3,1.5-0.4,2.2
						c0.4-0.9,0.8-1.8,1.3-2.7l0.4-2.1l0.4-2.8l0-1.9l0.8-1.6l0.3-2.9l-0.7,1.4"/>
				</g>
			</g>
		</g>
		<g>
			<g>
				<g>
					<path fill="#3D3D3D" d="M228.7,322.9c-0.9-1.3-2.3-2.3-3.8-3c-1.5-0.6-3.2-0.9-4.9-0.6c-2.3,0.5-4.3,1.8-5.7,3.7
						c-1.1,2.2-1.3,4.6-0.6,6.7c0.2,1.7,1,3.4,2.2,4.7c1.2,1.1,2.7,1.9,4.3,2.2c1.1-0.1,2.1-0.5,3-0.9c1,0.2,2.1,0.1,3.1-0.1
						c1.2-0.7,2.2-1.7,2.9-2.9c0.7-1.2,1.1-2.6,1.2-3.9c-0.5,1.8-1.6,3.2-2.8,4.2c-1.3,0.9-2.8,1.3-4.1,1.3
						c-1.8,0.5-3.8,0.1-5.2-1.1c-2.1-1.3-3.4-4.1-2.7-6.9c0.2-1.8,1.2-3.8,3-5.1c2.1-0.4,4.1,0.1,5.5,1.2c1.4,0.3,2.6,1.1,3.6,2.2
						c1,1.1,1.6,2.6,1.7,4.2c0.5-1.6,0.4-3.6-0.4-5.4"/>
				</g>
			</g>
		</g>
		<g>
			<g>
				<g>
					<path fill="#3D3D3D" d="M222.1,351.2c-0.5-0.6-1.1-1.2-1.8-1.6l0.6,1.1l0,0l0-0.6l-0.6-0.4c-0.5-0.4-1-0.7-1.6-0.9
						c-0.5-0.2-1.1-0.4-1.8-0.5c-1.2-0.2-2.5-0.2-3.7,0c-2.2,0.6-4.2,2.1-5.4,4c-1,2.2-1,4.7-0.2,6.7c0.3,1.7,1.2,3.4,2.5,4.6
						c1.2,1.1,2.8,1.8,4.4,2l0.6-0.1l0.3-0.1c0.1,0,0.1-0.1,0.2-0.1l0.1,0c0.7-0.2,1.3-0.5,1.8-0.9c1,0.1,2.1,0,3.1-0.3
						c2.3-1.6,3.7-4.3,3.6-7.1l-0.3,0.7c0-0.1,0.1,0,0.2-0.4c0-0.1,0-0.1,0-0.2c0-0.1,0-0.2,0-0.3c0-0.2-0.2-0.4-0.3-0.5
						c-0.1-0.1-0.2-0.1-0.3-0.1l-0.1,0l0,0l0,0l0.6,0.3l-0.6-0.3l0,0l0,0l0.1,0c0.1,0,0.2,0,0.3,0.1c0.1,0.1,0.3,0.3,0.3,0.5
						c0,0.1,0,0.2,0,0.3c0,0.1,0,0.1,0,0.2c-0.1,0.3-0.2,0.3-0.2,0.4l0.3-0.7c-0.4,1.9-1.4,3.3-2.6,4.4c-1.2,1-2.7,1.5-4,1.5
						c-0.6,0.2-1.3,0.3-2,0.3l0.2,0l-0.5,0l-0.2,0c-0.1,0-0.3,0-0.4,0c-0.3-0.1-0.6-0.1-0.8-0.2c-0.6-0.2-1.1-0.4-1.6-0.8
						c-1.1-0.6-2-1.6-2.6-2.7c-0.6-1.2-0.8-2.6-0.5-4c0.1-1.8,1-3.8,2.7-5.2c2.1-0.5,4.1-0.2,5.6,0.8c0.6,0.1,1.2,0.3,1.7,0.5
						l-0.4-0.8l0,0l0.1,0.6l0.4,0.2c1,0.5,1.9,1.2,2.6,2.2c0.3,0.5,0.6,1,0.9,1.6c0.1,0.3,0.2,0.6,0.3,0.9l0.2,1
						c0-0.6,0.1-0.9,0.1-1.4c0-0.4,0-0.9,0-1.4c-0.1-0.9-0.4-1.8-0.8-2.7"/>
				</g>
			</g>
		</g>
		<g>
			<g>
				<g>
					<path fill="#3D3D3D" d="M221.2,381.2c-1.6-2.2-4.3-3.6-7.1-3.7l-1.4,0l-0.1,1.6l0,0l1.5-1.6c-0.5,0-1,0-1.5,0.1
						c-2.3,0.5-4.3,1.8-5.7,3.7c-1.1,2.2-1.3,4.6-0.6,6.7c0.2,1.7,1,3.4,2.2,4.7c1.2,1.1,2.7,1.9,4.3,2.3c1.1-0.1,2.1-0.4,3-1
						c1,0.2,2.1,0.1,3.1-0.1c1.2-0.7,2.2-1.7,2.9-2.9c0.7-1.2,1.1-2.6,1.2-4c-0.5,1.8-1.5,3.2-2.8,4.2c-1.3,0.9-2.8,1.3-4.1,1.3
						c-0.4,0.1-0.9,0.2-1.3,0.2c-0.2,0-0.4,0-0.7,0l-0.7-0.1c-0.9-0.2-1.7-0.6-2.5-1.1c-1-0.7-1.9-1.7-2.4-2.9
						c-0.5-1.2-0.6-2.6-0.3-4c0.2-1.8,1.2-3.8,3-5.1c1.1-0.2,2.1-0.2,3.1,0l0.3,0.1l0.1-0.5l0,0l-0.4,0.4c0.9,0.2,1.8,0.6,2.4,1.1
						c1.3,0.3,2.6,1.1,3.6,2.2c1,1.1,1.6,2.6,1.7,4.2c0.5-1.6,0.4-3.6-0.4-5.4"/>
				</g>
			</g>
		</g>
	</g>
</g>
</svg>
