<?xml version="1.0" encoding="utf-8"?>
<!-- Generator: Adobe Illustrator 23.0.0, SVG Export Plug-In . SVG Version: 6.00 Build 0)  -->
<svg version="1.1" id="Layer_1" xmlns="http://www.w3.org/2000/svg" xmlns:xlink="http://www.w3.org/1999/xlink" x="0px" y="0px"
	 viewBox="0 0 512 512" enable-background="new 0 0 512 512" xml:space="preserve">
<g>
	<g>
		<g>
			<path fill="#FFFFFF" d="M384.7,398.2c0-4-0.7-34.2-0.7-37.6s0.7-31.6,0.7-31.6s-0.3-19.5-0.3-23.5s-0.5-20.1-0.5-20.1l0.7,4
				l0.3-12.1l0.2,32.2l1,23.5l-0.5,21.5c0,0-0.5,8.1-0.5,11.4c0,3.4,0,18.1,0,18.1L384.7,398.2z"/>
			<path fill="#FFFFFF" d="M385.7,398.2h-2c0-2.1-0.2-11.3-0.4-20.2c-0.2-8.1-0.3-15.8-0.3-17.4c0-3.3,0.6-30.4,0.7-31.6
				c0-0.2-0.3-19.5-0.3-23.5s-0.5-19.9-0.5-20.1l0.8-0.1l0.2-8h2l0.2,32.2l1,23.5l-0.5,21.5c0,0.1-0.5,8.1-0.5,11.4V384L385.7,398.2
				z"/>
		</g>
	</g>
	<g>
		<g>
			<path fill="#FFFFFF" d="M335.5,454.8c-5.3,0-45.3,2.7-49.7,2.7c-4.4,0-41.7-2.7-41.7-2.7s-25.7,1.3-31.1,1.3s-26.6,2-26.6,2
				l5.3-2.7l-16-1.3l42.6-0.7l31.1-4l28.4,2c0,0,10.6,2,15.1,2c4.4,0,24,0,24,0L335.5,454.8z"/>
		</g>
	</g>
	<g>
		<g>
			<path fill="#FFFFFF" d="M215.5,217.6c-20.8,11.5-47.7,24.2-75.7,37.2c35.3-13.9,82.5-37.2,111.1-52.3l5.1-2.7l6.4,2.7
				c9.3,4,16.8,7.1,21.6,8.9l-21-10.2l-6.3-3.1l-6.4,3l-24.6,11.6c-1.1-3.5,21.1-11.6,12.3-13.5c-17.9,9.6-100.5,43.9-115.7,57.6
				C166.2,236.3,188.5,223.4,215.5,217.6z"/>
			<path fill="#FFFFFF" d="M120.7,257.8l1.3-1.1c10.5-9.4,52.7-28.6,83.5-42.6c14.3-6.5,26.6-12.1,32.2-15.1h0.1h0.1
				c1.4,0.3,2.2,0.8,2.3,1.5c0.3,1.7-3.4,3.9-7.3,6.3c-3.2,2-6.9,4.2-7.1,5.6l30.8-14.5l6.4,3.1l21,10.2l-0.2,0.5
				c-5-1.9-12.7-5-21.7-8.9l-6.3-2.7l-5,2.6c-29.3,15.5-76,38.5-111.1,52.3l-0.2-0.5c26.1-12.1,53.2-24.8,74.1-36.3
				c-20,4.6-37.8,13.2-64.3,25.9c-8,3.9-17.1,8.3-27.3,13L120.7,257.8z M237.9,199.5c-5.7,3-18,8.6-32.2,15.1
				c-29.5,13.4-69.5,31.5-81.9,41.2c9.4-4.4,18-8.5,25.5-12.2c27.3-13.1,45.3-21.8,66.1-26.3l1.7-0.4l-1.5,0.8
				c-18.8,10.4-42.8,21.9-66.7,33c33.7-13.9,75.1-34.4,101.9-48.6l5.2-2.7l6.5,2.8c5.9,2.6,11.3,4.8,15.7,6.6l-21.5-10.4l-31.1,14.7
				l-0.1-0.3c-0.5-1.7,3.1-3.9,7.3-6.5c3.4-2.1,7.3-4.5,7.1-5.8C239.6,200.1,239,199.8,237.9,199.5z"/>
		</g>
		<g>
			<path fill="#FFFFFF" d="M330.1,232.3c10.7,9.4,33.8,14.2,55.6,27l20.2,9.8C379.6,255,342.9,233.1,330.1,232.3z"/>
			<path fill="#FFFFFF" d="M405.8,269.3l-20.2-9.8c-10.2-6-20.8-10.3-30.2-14c-10.6-4.3-19.8-8-25.5-13l-0.5-0.5h0.7
				c10.2,0.6,34.7,14.1,58.4,27.2c6.2,3.4,12.1,6.7,17.6,9.6L405.8,269.3z M330.8,232.6c5.7,4.7,14.5,8.3,24.7,12.4
				c9.4,3.8,20,8,30.2,14.1l10.4,5c-2.6-1.4-5.3-2.9-8-4.4C366.2,247.6,341.4,233.8,330.8,232.6z"/>
		</g>
		<g>
			<path fill="#FFFFFF" d="M291,222.7c-10.6-5.2-21.1-10.2-31.2-15l-3.3-1.6l-3.2,1.5c-23.9,11.6-45.7,22.7-64.2,33.2
				c14.7-7.1,42.8-20.7,64.9-31.6l2.4-1.2l2.6,1.2C279.7,218.8,295.5,225.8,291,222.7z"/>
			<path fill="#FFFFFF" d="M189.2,241.1l-0.2-0.4c16.9-9.6,37.9-20.4,64.2-33.2l3.3-1.6l3.4,1.6c9.5,4.5,19.7,9.4,31.2,15l0,0
				c0.7,0.5,1,0.8,0.8,1c-0.2,0.4-0.6,1-33-14l-2.5-1.2l-2.3,1.1c-16.1,8-35.1,17.2-50.4,24.6C198.2,236.7,193.2,239.1,189.2,241.1z
				 M256.5,206.4l-3.1,1.5c-22.5,10.9-41.1,20.4-56.5,28.9c2.1-1,4.3-2.1,6.7-3.2c15.3-7.4,34.3-16.6,50.4-24.6l2.5-1.2l2.7,1.3
				c22.6,10.4,30.1,13.5,32,14.1c-0.1-0.1-0.2-0.1-0.3-0.2c-11.5-5.6-21.7-10.5-31.2-15L256.5,206.4z"/>
		</g>
		<g>
			<path fill="#FFFFFF" d="M187.6,250.9c16.5-7.9,31-15.4,39.5-21.7C209.8,237.2,191.5,245.5,187.6,250.9z"/>
			<path fill="#FFFFFF" d="M186.9,251.5l0.6-0.8c3.6-5.1,20.2-12.8,36.2-20.2l5.6-2.6l-2,1.5c-7.4,5.5-19.5,12.2-39.5,21.7
				L186.9,251.5z M224.8,230.5l-0.9,0.4c-15.1,7-30.7,14.2-35.3,19.2C206.1,241.7,217.4,235.6,224.8,230.5z"/>
		</g>
		<g>
			<path fill="#FFFFFF" d="M287.3,230.3c-13.3-6.8-23.6-11.9-31-15.3h0.4c-21.2,10.4-18.5,11,0.8,1.6h-1.9
				C263.3,220.2,274,224.9,287.3,230.3z"/>
			<path fill="#FFFFFF" d="M287.2,230.5c-14.1-5.7-24.3-10.3-30.7-13.2c-4.1,2-7.7,3.6-10.4,4.7c-4.2,1.8-4.4,1.5-4.5,1.2
				s-0.5-1,14.2-8.2l-0.8-0.4h2.6l-0.7,0.3c8.3,3.9,18.7,9.1,30.3,15L287.2,230.5z M257.1,217c5.5,2.6,13.8,6.2,24.8,10.8
				c-9.7-4.9-18.4-9.2-25.4-12.5c-0.7,0.3-1.3,0.7-1.9,1h4l-1,0.5C257.4,216.8,257.3,216.9,257.1,217z M254.5,216.3
				c-7.7,3.8-11,5.8-12,6.5c1.4-0.4,5.6-2,13.5-5.8c-0.2-0.1-0.4-0.2-0.5-0.2L254.5,216.3z"/>
		</g>
		<g>
			<path fill="#FFFFFF" d="M152.1,267.6c49.7-26-18,5.4-40.1,20.4C137.5,276.7,139.2,274.4,152.1,267.6z"/>
			<path fill="#FFFFFF" d="M112.1,288.3l-0.2-0.4c15.9-10.8,56.9-31.1,58.1-30.4l0.1,0.1v0.2c0,0.3,0,0.8-17.9,10.2
				c-3.9,2-6.7,3.7-9.5,5.2C136.1,276.8,129.9,280.4,112.1,288.3z M168.7,258.3c-6.4,2.5-37.7,17.9-54,28.3
				c15.7-7,21.6-10.4,27.8-13.9c2.8-1.6,5.7-3.2,9.5-5.3l0,0C162.9,261.6,167.1,259.3,168.7,258.3z"/>
		</g>
		<g>
			<path fill="#FFFFFF" d="M115.6,295.7c26.6-12.7,44.8-23.7,75.7-37.2C181.1,257.9,131.6,283.9,115.6,295.7z"/>
			<path fill="#FFFFFF" d="M115.7,295.9l-0.3-0.4c16.4-12.1,65.7-37.9,75.8-37.2l1,0.1l-1,0.4c-18.6,8.1-32.8,15.5-46.6,22.6
				C135.7,286,126.3,290.9,115.7,295.9z M190,258.8c-11.8,1.2-54.3,23.3-71.9,35.4c9.5-4.6,18.1-9,26.5-13.3
				C158,273.9,171.9,266.7,190,258.8z"/>
		</g>
		<g>
			<path fill="#FFFFFF" d="M221.1,242.9c70.9-33.3,23.3-14.7-25.4,12C211.6,250.4,208.6,248.7,221.1,242.9z"/>
			<path fill="#FFFFFF" d="M193.7,255.6l1.9-1c28.4-15.6,60.6-30.5,61.6-29.8l0.1,0.1v0.2c-0.1,1-22.6,11.7-36.1,18l0,0
				c-4.7,2.2-7.2,3.8-9.4,5.2c-3.6,2.3-6.2,4-16,6.7L193.7,255.6z M255.8,225.6c-5.8,2.2-31,13.7-58,28.4c8-2.4,10.5-3.9,13.7-6.1
				c2.2-1.4,4.7-3,9.5-5.3l0,0C243.4,232.1,252.9,227.3,255.8,225.6z"/>
		</g>
		<g>
			<path fill="#FFFFFF" d="M205,261.3c17.3-8.9,43.8-19.7,60.2-28.4l-17.5-0.1c4.5,1.9,8.4,3.3,11.5,4.1c-2.2-1.4-5.9-3.5-10.5-6
				l15.7,0.1C243.4,239.4,206.4,255.7,205,261.3z"/>
			<path fill="#FFFFFF" d="M204.6,261.8l0.1-0.5c1.2-4.8,27.4-17.1,48.4-26c-1.7-0.6-3.6-1.4-5.6-2.3l-1.1-0.5h4.8
				c-0.9-0.5-1.8-1-2.7-1.5l-0.9-0.5l17.9,0.1l-1.2,0.5c-1.1,0.5-2.3,0.9-3.5,1.5h5.4l-0.9,0.5c-2,1.1-4.2,2.2-6.5,3.3
				c0.1,0.1,0.3,0.2,0.4,0.3l1.4,0.8l-1.6-0.4c-0.3-0.1-0.7-0.2-1.1-0.3c-7.3,3.6-15.7,7.4-23.9,11.1c-10.2,4.6-20.7,9.4-28.9,13.6
				L204.6,261.8z M253.9,235.5c-19.5,8.3-45.3,20.2-48.4,25.3c8.2-4.2,18.4-8.8,28.3-13.3c8-3.6,16.2-7.3,23.4-10.8
				C256.2,236.3,255.1,236,253.9,235.5z M254.5,235.2c1,0.4,2,0.7,2.9,0.9c-0.7-0.4-1.4-0.8-2.1-1.3
				C255,235,254.8,235.1,254.5,235.2z M255.9,234.7c0.9,0.5,1.7,1,2.5,1.4c2.1-1,4-2,5.9-3h-4.6
				C258.4,233.6,257.2,234.1,255.9,234.7z M248.9,233.1c1.8,0.7,3.5,1.4,5,1.9c0.3-0.1,0.6-0.3,0.9-0.4c-0.8-0.5-1.8-1-2.7-1.5
				H248.9z M253.1,233.1c0.8,0.4,1.5,0.9,2.3,1.3c1-0.4,2-0.8,3-1.3H253.1z M252.2,232.6h7.3c1.2-0.5,2.4-1,3.5-1.4l-13.4-0.1
				C250.5,231.6,251.3,232.1,252.2,232.6z"/>
		</g>
		<g>
			<path fill="#FFFFFF" d="M194.2,264.8l-76.2,36C130.9,301.7,179.1,273.4,194.2,264.8z"/>
			<path fill="#FFFFFF" d="M118.7,301c-0.2,0-0.5,0-0.7,0l-0.9-0.1l77.1-36.3l0.2,0.4c-1.5,0.8-3.2,1.8-5.3,3
				C170.2,278.8,131.2,301,118.7,301z M188.4,267.9L119,300.5C131.7,300.1,169.6,278.6,188.4,267.9z"/>
		</g>
	</g>
	<g>
		<g>
			<path fill="#FFFFFF" d="M238.1,296.5c3.9,4.1,9.8,7.4,16.5,7.8c6.6,0.5,14-2,19-7.2c-4.2,4-10.5,6.8-17.1,6.7
				c-6.6,0-13.2-3-17.4-7.7c-4.4-4.6-6.3-10.7-6.5-15.8c-0.1-5.1,1.3-9.2,2.4-11.5c-1.9,3.6-2.9,7.6-2.9,11.6s1,8.1,2.9,11.6
				c-0.6,0.2-2.2-2.3-3-4.7c-0.9-2.4-1.4-4.5-2.2-2.5c0.5,2.6,1.8,7.6,5.6,12.5c1.9,2.4,4.4,4.7,7.4,6.5s6.5,3.1,10.1,3.6
				c3.6,0.5,7.3,0.2,10.7-0.7c3.4-0.9,6.4-2.5,8.8-4.4c4.9-3.7,7.1-8.3,7.6-10.8c-2.7,5.6-6.9,9.5-11.2,11.9
				c-4.4,2.3-8.9,3.3-12.9,3.1C247.8,306.2,241.4,302.1,238.1,296.5z"/>
			<path fill="#FFFFFF" d="M256.5,307.8c-1.2,0-2.4-0.1-3.6-0.2c-3.6-0.5-7.1-1.7-10.2-3.6c-2.8-1.7-5.4-3.9-7.4-6.5
				c-2.8-3.5-4.6-7.6-5.6-12.5l0,0l0,0c0.2-0.6,0.5-0.9,0.7-0.9l0,0c0.4,0,0.7,0.8,1.2,2.1c0.1,0.4,0.3,0.8,0.5,1.2
				c0.8,2.2,2,4.3,2.7,4.6c-1.8-3.5-2.8-7.5-2.8-11.5c0-4.1,1-8.1,3-11.7l0.2,0.1c-0.9,2-2.5,6.2-2.4,11.5
				c0.2,5.7,2.6,11.6,6.4,15.7c4.3,4.7,10.9,7.7,17.3,7.7c0,0,0,0,0.1,0s0.2,0,0.3,0c6,0,12.2-2.5,16.7-6.7l0.2,0.2
				c-4.8,5-12.2,7.7-19.1,7.2c-5.8-0.4-11.5-2.9-15.8-7c3.7,5.4,10,8.7,17.1,9c4.3,0.2,8.7-0.9,12.8-3.1c3.4-1.9,8.1-5.5,11.1-11.8
				l0.5-1l-0.3,1.1c-0.6,2.8-3,7.3-7.7,10.8c-2.6,2-5.6,3.5-8.8,4.4C261.3,307.5,258.9,307.8,256.5,307.8z M230,284.9
				c1,4.8,2.8,8.9,5.5,12.4c2,2.6,4.6,4.8,7.3,6.5c3.1,1.8,6.5,3.1,10.1,3.5c3.5,0.5,7.2,0.2,10.6-0.7c3.2-0.9,6.2-2.4,8.7-4.3
				c3.9-3,6.2-6.6,7.2-9.4c-3,5.6-7.4,8.9-10.6,10.7c-4.2,2.2-8.6,3.3-12.9,3.1c-7.6-0.3-14.4-4.1-18-10.1l-0.6-1l0.8,0.8
				c4.3,4.5,10.3,7.4,16.4,7.8c4.6,0.4,9.3-0.7,13.3-2.9c-3.4,1.7-7.3,2.7-11,2.7c-0.1,0-0.2,0-0.3,0c0,0,0,0-0.1,0
				c-6.4,0-13.1-3-17.5-7.7c-3.9-4.1-6.3-10.1-6.5-15.9c-0.1-2.9,0.4-5.4,0.9-7.5c-0.8,2.4-1.2,5-1.2,7.6c0,4,1,8,2.9,11.6l0.1,0.1
				H235c-0.1,0-0.2,0-0.4,0c-0.8-0.4-2.1-2.8-2.8-4.8c-0.2-0.4-0.3-0.9-0.5-1.2c-0.3-0.9-0.7-1.9-1-1.9l0,0
				C230.4,284.2,230.2,284.3,230,284.9z"/>
		</g>
		<g>
			<path fill="#FFFFFF" d="M254.5,255.6c3.3,0.5,7.8,0.5,12.6,2.5c4.8,1.8,9.7,5.9,12.1,11.7c1.6,3.3,2.4,7,2.4,10.6
				c0.1-3.6-0.6-7.8-2.4-11.6c-1.7-3.8-4.6-7.2-7.8-9.6c-3.2-2.4-6.9-3.7-9.9-4.2C258.3,254.7,255.9,255.1,254.5,255.6z"/>
			<path fill="#FFFFFF" d="M281.6,280.5h-0.3c0-3.6-0.8-7.3-2.4-10.6c-2.1-5.2-6.5-9.5-12-11.6c-3.8-1.6-7.4-1.9-10.3-2.3
				c-0.8-0.1-1.5-0.2-2.2-0.3l-0.5-0.1l0.5-0.2c0.7-0.3,3.2-1.1,7-0.5c2,0.3,6.1,1.3,10,4.2c3.4,2.5,6.2,5.9,7.8,9.6
				C280.9,272.4,281.7,276.6,281.6,280.5z M255,255.6c0.5,0.1,1.1,0.1,1.7,0.2c2.9,0.3,6.6,0.7,10.4,2.3c5.5,2.1,10,6.5,12.1,11.8
				c0.6,1.2,1,2.4,1.4,3.6c-0.4-1.5-0.9-3-1.6-4.4c-1.6-3.6-4.4-7-7.7-9.5c-3.9-2.9-7.8-3.9-9.9-4.2
				C258.3,254.8,256.1,255.2,255,255.6z"/>
		</g>
		<g>
			<path fill="#FFFFFF" d="M240.1,266.1c-2.8,3.2-4.6,7.1-5.1,11.2c-0.6,4,0.1,8.1,1.6,11.6c3.1,7,9.8,11.3,15.9,12
				c-3.1-0.5-7.6-2.3-11.2-6c-3.6-3.6-5.9-9-5.9-14c-0.1-2.5,0.3-4.9,0.9-6.9c0.6-2,1.4-3.7,2.2-5C240,266.4,241,265.4,240.1,266.1z
				"/>
			<path fill="#FFFFFF" d="M252.5,301c-6.8-0.7-13.1-5.5-16-12c-1.6-3.8-2.2-7.8-1.6-11.6c0.5-4.1,2.3-8.1,5.1-11.2l0,0
				c0.3-0.2,0.4-0.3,0.5-0.2c0.1,0.1,0.1,0.2-0.4,0.9c-0.4,0.5-0.9,1.3-1.5,2.3c-0.9,1.6-1.6,3.2-2.2,5c-0.6,2.2-0.9,4.6-0.9,6.9
				c0.1,5,2.3,10.4,5.9,13.9C245.7,299.5,251,300.7,252.5,301L252.5,301z M240,266.4c-2.6,3.1-4.4,7-4.9,10.9
				c-0.6,3.8,0,7.8,1.6,11.5c2.3,5.1,6.7,9.1,11.7,10.9c-2.2-0.9-4.8-2.4-7.2-4.8c-3.6-3.6-5.9-9-6-14.1c-0.1-2.3,0.2-4.7,0.9-6.9
				c0.5-1.8,1.3-3.4,2.2-5c0.6-1,1.2-1.8,1.5-2.3C239.9,266.5,240,266.5,240,266.4z"/>
		</g>
		<g>
			<path fill="#FFFFFF" d="M255.1,298c-3.2-0.2-6-1.3-8.4-2.6c-2.3-1.3-4.1-3-5.5-4.3c1,1.5,2.2,2.7,3.5,3.9
				c1.3,1.1,2.8,1.9,4.1,2.5C251.6,298.6,254,298.5,255.1,298z"/>
			<path fill="#FFFFFF" d="M253.2,298.5c-1.2,0-2.8-0.3-4.4-1c-1.3-0.5-2.7-1.4-4.2-2.5c-1.4-1.2-2.6-2.5-3.6-3.9l-0.7-1l0.9,0.8
				c1.4,1.4,3.2,3,5.5,4.3c2.7,1.5,5.5,2.4,8.3,2.6h0.5l-0.4,0.2C254.7,298.4,254,298.5,253.2,298.5z M242.1,292.2
				c0.8,0.9,1.6,1.8,2.7,2.7c1.4,1.1,2.8,1.9,4.1,2.4c2.4,1,4.5,1.1,5.6,0.8c-2.6-0.3-5.3-1.1-7.8-2.6
				C244.8,294.5,243.3,293.3,242.1,292.2z"/>
		</g>
		<g>
			<path fill="#FFFFFF" d="M242.4,268.2c-2.3,2.5-3.5,5.3-4.1,7.7c-0.6,2.4-0.6,4.4-0.5,5.9c0.4,3.1,1.1,4.2,1.1,3.9
				c0.1-0.3-0.5-2-0.5-5.1C238.4,277.6,238.9,272.8,242.4,268.2z"/>
			<path fill="#FFFFFF" d="M238.9,285.9c-0.3,0-0.9-1.6-1.2-4.1c-0.2-1.2-0.2-3.3,0.5-6c0.8-3,2.2-5.6,4.2-7.7l0.2,0.2
				c-2.7,3.5-4,7.6-4,12.3c0,2,0.3,3.4,0.4,4.2c0.1,0.6,0.1,0.8,0.1,0.9C239.1,285.9,239,285.9,238.9,285.9L238.9,285.9z
				 M240.6,270.8c-1,1.6-1.7,3.3-2.2,5.1c-0.6,2.7-0.6,4.7-0.5,5.9c0.2,1.9,0.6,3.1,0.8,3.6c0-0.1-0.1-0.3-0.1-0.5
				c-0.1-0.8-0.4-2.3-0.4-4.3C238.3,276.9,239,273.7,240.6,270.8z"/>
		</g>
		<g>
			<path fill="#FFFFFF" d="M267.7,294.1c-3.7,3.2-6,3.5-6,3.8c-0.1,0.2,1.6-0.2,3.9-1.6c1.2-0.7,2.4-1.6,3.6-2.8
				c1.1-1.2,2.2-2.6,3-4.2c1.5-3.1,1.9-6.6,1.4-8.8c-0.3,4.7-1.5,7-2.4,8.8C270.3,291.1,269.6,292.4,267.7,294.1z"/>
			<path fill="#FFFFFF" d="M261.8,298c-0.1,0-0.1,0-0.2,0l-0.1-0.1l0.1-0.1c0-0.1,0.2-0.2,0.6-0.3c0.9-0.4,2.8-1.2,5.5-3.5
				c1.9-1.8,2.6-3.1,3.5-4.8c0.1-0.1,0.1-0.3,0.2-0.5c0.8-1.7,1.9-4,2.1-8.3l0.1-1l0.2,1c0.4,2,0.2,5.5-1.4,8.9
				c-0.7,1.4-1.7,2.8-3,4.2c-1.1,1.2-2.4,2.1-3.6,2.9C264.1,297.3,262.3,298,261.8,298z M273.7,281.8c-0.4,3.5-1.3,5.6-2.1,7.1
				c-0.1,0.2-0.1,0.3-0.2,0.5c-0.9,1.6-1.6,3-3.6,4.8l0,0c-2.5,2.1-4.3,3-5.3,3.4c0.7-0.2,1.8-0.6,3.1-1.4c1.2-0.7,2.4-1.7,3.6-2.8
				c1.3-1.4,2.3-2.8,2.9-4.2C273.4,286.5,273.8,283.7,273.7,281.8z"/>
		</g>
		<g>
			<path fill="#FFFFFF" d="M270.5,280.5c0,4-1.4,7.5-3.9,10.3c-2.5,2.7-6.4,4.7-11.3,4.2c0.6,0.5,2.2,0.9,4.2,0.7
				c2-0.2,4.5-1.2,6.6-2.9c2.1-1.7,3.5-4.1,4.2-6.4C271,283.9,270.8,281.8,270.5,280.5z"/>
			<path fill="#FFFFFF" d="M258.3,295.8c-1.4,0-2.6-0.4-3.1-0.8l-0.3-0.3h0.4c4.2,0.5,8.3-1.1,11.2-4.1c2.6-2.8,3.9-6.2,3.9-10.2v-1
				l0.2,1c0.2,0.8,0.6,3-0.2,5.8c-0.7,2.5-2.3,4.9-4.3,6.5s-4.4,2.8-6.6,3C259.1,295.7,258.7,295.8,258.3,295.8z M255.9,295.1
				c0.7,0.3,2,0.6,3.6,0.4c2.1-0.2,4.6-1.3,6.5-2.9s3.5-3.9,4.2-6.3c0.5-1.8,0.5-3.4,0.4-4.5c-0.2,3.5-1.6,6.6-3.9,9.2
				C263.9,293.8,260,295.4,255.9,295.1z"/>
		</g>
		<g>
			<path fill="#FFFFFF" d="M246.3,291.5c-2.2-1.9-3.2-4.1-3.9-5.7s-0.9-2.9-1-3.7c-0.2-1.6-0.3-1.4-0.3,0.1c0.1,1.5,0.6,4.3,2.7,7.2
				c2,2.8,5.7,5.3,9.8,5.8c-2.2-1-3-1.5-4-1.8C248.8,293.1,247.9,292.9,246.3,291.5z"/>
			<path fill="#FFFFFF" d="M254.4,295.4l-0.8-0.1c-3.8-0.4-7.7-2.7-9.9-5.8c-1.9-2.6-2.6-5.4-2.7-7.2c0-1.3,0.1-1.4,0.2-1.4
				c0.1,0,0.2,0,0.4,1.2c0,0.1,0.1,0.3,0.1,0.5c0.2,0.8,0.4,1.8,0.9,3.2c0.7,1.6,1.7,3.7,3.9,5.6l0,0c1.2,1.1,2.1,1.4,2.8,1.7
				c0.2,0.1,0.3,0.1,0.5,0.2c0.5,0.1,1,0.4,1.7,0.7c0.6,0.3,1.3,0.6,2.2,1.1L254.4,295.4z M241.3,281.9c0,0.1,0,0.3,0,0.4
				c0.1,1.7,0.8,4.5,2.7,7.1c2,2.8,5.4,5,8.8,5.6c-0.6-0.3-1.1-0.5-1.5-0.7c-0.7-0.4-1.2-0.6-1.7-0.7c-0.2-0.1-0.3-0.1-0.5-0.2
				c-0.8-0.3-1.6-0.6-2.9-1.7l0,0c-2.2-2-3.2-4.1-3.9-5.7c-0.6-1.3-0.8-2.4-0.9-3.2c0-0.2-0.1-0.3-0.1-0.5
				C241.3,282.1,241.3,282,241.3,281.9z"/>
		</g>
		<g>
			<path fill="#FFFFFF" d="M253.1,291.3c-2.7-0.6-5.7-3.2-6.9-6.2c-1.4-3-1.1-6.1-1.2-7.9c-0.4,0.7-0.8,2.2-0.8,4.1
				c-0.1,1.9,0.5,4.1,1.6,5.9c1.1,1.9,2.8,3.2,4.2,3.9C251.6,291.7,252.7,291.7,253.1,291.3z"/>
			<path fill="#FFFFFF" d="M252.2,291.7c-0.6,0-1.3-0.2-2.1-0.5c-1.7-0.8-3.3-2.3-4.3-3.9c-1.1-1.8-1.7-4-1.7-6
				c0-1.8,0.4-3.3,0.8-4.1l0.2-0.4v0.5c0,0.4,0,0.8,0,1.2c0,1.8,0,4.3,1.1,6.7c1.2,2.9,4.1,5.5,6.8,6.1h0.2l-0.2,0.2
				C253,291.6,252.7,291.7,252.2,291.7z M245,277.8c-0.3,0.8-0.6,2.1-0.6,3.5c-0.1,1.9,0.5,4.1,1.6,5.8c0.9,1.6,2.5,3,4.2,3.8
				c1.2,0.6,2.2,0.6,2.6,0.4c-2.7-0.7-5.5-3.3-6.7-6.2c-1.1-2.4-1.1-4.9-1.1-6.7C245,278.2,245,278,245,277.8z"/>
		</g>
		<g>
			<path fill="#FFFFFF" d="M255.5,292.3c3.3,0.3,6.6-0.9,9-3.1s3.9-5.4,3.9-8.7c-0.7,0.7-1,1.9-1.6,3.2c-0.6,1.4-1.4,3-2.7,4.4
				c-1.2,1.4-2.8,2.6-4.4,3.3C258.1,292,256.5,292.3,255.5,292.3z"/>
			<path fill="#FFFFFF" d="M256.5,292.5c-0.3,0-0.7,0-1,0v-0.3c0.5,0,2.1-0.1,4.2-0.9c1.5-0.6,3.1-1.8,4.4-3.2
				c1-1.2,1.9-2.7,2.6-4.3c0.2-0.4,0.3-0.8,0.5-1.2c0.3-0.9,0.6-1.6,1.1-2.1l0.2-0.2v0.3c0,3.3-1.4,6.5-3.9,8.8
				C262.4,291.3,259.5,292.5,256.5,292.5z M268.3,280.8c-0.3,0.4-0.6,1.1-0.8,1.8c-0.1,0.4-0.3,0.8-0.5,1.2
				c-0.7,1.7-1.6,3.2-2.7,4.4c-1.3,1.5-2.9,2.7-4.5,3.3c-0.8,0.3-1.6,0.6-2.3,0.7c2.6-0.2,5-1.3,6.9-3.1
				C266.8,287,268.2,283.9,268.3,280.8z"/>
		</g>
	</g>
	<g>
		<g>
			<path fill="#FFFFFF" d="M219.3,333.9c11.6-0.5,23.8-1.3,36.3-1.9l2.3-0.1l0.1,2.5l3.3,72.6l-3.3,46.8l-0.2,2.5l-2.2-0.2l-4.9-0.4
				l-30.8,2.9l-4.4,0.4l-0.5-5.3l-0.8-8.9c0-17,0.2-34,0.4-51.1l0.4-22.9c1-13.2,1.9-26.1,2.6-38.8c1.1,4.5,2.3,8.9,3.6,13.3
				c0.7,15.2,1.6,30.2,2.5,44.9c0,0,0.7,8.1,1.2,17.7c0.6,9.7,0.9,20.9,0.4,28c-0.3,3.2-0.3,9.6-0.3,17.8l-5-5
				c10.2,0,23.1-0.2,35.7-0.4l-5.4,5.4c-0.3-22.6-0.6-44.3,0-49.2c0.7-5.9,2.8-42.7,4.3-70.1l1,1c-9.9-0.5-19-1-25.6-1.3
				C223.4,334,219.3,333.9,219.3,333.9z"/>
		</g>
	</g>
	<g>
		<g>
			<path fill="#FFFFFF" d="M255.1,333.9c11.6-0.5,23.8-1.3,36.3-1.9l2.3-0.1l0.1,2.5l3.3,72.6l-3.3,46.8l-0.2,2.5l-2.2-0.2l-4.9-0.4
				l-30.8,2.9l-4.4,0.4l-0.5-5.3l-0.8-8.9c0-17,0.2-34,0.4-51.1l0.4-22.9c1-13.2,1.9-26.1,2.6-38.8c1.1,4.5,2.3,8.9,3.6,13.3
				c0.7,15.2,1.6,30.2,2.5,44.9c0,0,0.7,8.1,1.2,17.7c0.6,9.7,0.9,20.9,0.4,28c-0.3,3.2-0.3,9.6-0.3,17.8l-5-5
				c10.2,0,23.1-0.2,35.7-0.4l-5.4,5.4c-0.3-22.6-0.6-44.3,0-49.2c0.7-5.9,2.8-42.7,4.3-70.1l1,1c-9.9-0.5-19-1-25.6-1.3
				C259.1,334,255.1,333.9,255.1,333.9z"/>
		</g>
	</g>
	<g>
		<g>
			<path fill="#FFFFFF" d="M168.4,207.3c0.5,8.3,0.6,18.6,0.5,29.3c1.1-17.2,0.2-43.2-0.5-50.8c0,5.9,0,11.7,0,17.6
				c-1.3-0.2-0.5-8.4-2.4-5.9c0.4,7.1-1.1,38.1,1,44.9C167,225.6,166.3,216.7,168.4,207.3z"/>
			<path fill="#FFFFFF" d="M167.2,244.2l-0.5-1.6c-1.4-4.7-1.2-20.8-1-32.6c0.1-5.4,0.1-10.1,0-12.4v-0.1l0.1-0.1
				c0.1-0.2,0.5-0.7,1-0.6c0.6,0.2,0.8,1.4,1,3.4c0.1,0.7,0.2,1.8,0.4,2.5v-16.9h0.5c0.7,7.2,1.6,33.3,0.5,50.8h-0.5
				c0.1-9.5,0.1-19.4-0.4-27.4c-1.3,6.6-1.2,13.2-1.1,22.8c0,3.1,0.1,6.6,0,10.5V244.2z M166.2,197.7c0.1,2.3,0,6.9,0,12.3
				c-0.1,10.1-0.3,23.5,0.5,30c0-2.9,0-5.5,0-7.9c-0.1-10.5-0.1-17.5,1.5-24.7l0.4-1.7l0.1,1.7c0.3,4.5,0.4,9.7,0.5,15.1
				c0.1-10.3-0.1-21-0.5-28.5v9.8h-0.3c-0.7-0.1-0.9-1.3-1.1-3.4c-0.1-1.1-0.3-2.8-0.7-2.9C166.6,197.3,166.5,197.4,166.2,197.7z"/>
		</g>
		<g>
			<path fill="#FFFFFF" d="M167.9,168.3c1.3-4.8-0.7-12.7,0-21.5c0-2.6,0-5.2,0-7.8C167.5,149.3,166.3,164.1,167.9,168.3z"/>
			<path fill="#FFFFFF" d="M168,169l-0.3-0.7c-1.4-3.3-0.9-13.1-0.4-22.5c0.1-2.5,0.3-4.8,0.3-7h0.5v7.8c-0.3,4.1-0.1,8.1,0.2,11.6
				c0.3,4,0.5,7.4-0.2,10L168,169z M167.6,151.9c-0.3,6.3-0.4,12.4,0.3,15.4c0.4-2.4,0.2-5.5,0-8.9
				C167.7,156.4,167.6,154.2,167.6,151.9z"/>
		</g>
		<g>
			<path fill="#FFFFFF" d="M170.9,181.9c0,13.7,0.2,26.6,1,37.1C171.7,208.2,171.5,178,170.9,181.9z"/>
			<path fill="#FFFFFF" d="M171.6,219.1c-0.7-9.2-1-20.7-1-37.1l0,0c0-0.3,0.1-0.6,0.4-0.6c0.4,0,0.7,0.1,1,32.1
				c0,2.2,0,4.1,0.1,5.7L171.6,219.1z M171.1,187.7c0,7.5,0.1,14,0.3,19.5C171.4,200.6,171.3,192.9,171.1,187.7z"/>
		</g>
		<g>
			<path fill="#FFFFFF" d="M174.8,221c0-6.3-0.3-12-1-15.6C173.8,212,173.7,219,174.8,221z"/>
			<path fill="#FFFFFF" d="M175,222l-0.5-0.8c-1.1-1.9-1.1-8-1-14.5V203l0.5,2.4c0.6,3.1,0.9,8,1,15.7V222z M174,208.7
				c0,4.2,0,8.3,0.5,10.6C174.5,214.8,174.3,211.4,174,208.7z"/>
		</g>
		<g>
			<path fill="#FFFFFF" d="M173.8,181.9C173.2,207.8,175.3,203.8,173.8,181.9L173.8,181.9z"/>
			<path fill="#FFFFFF" d="M174.1,200.1l-0.2-0.1c-0.6-0.4-0.6-11.6-0.4-18.1h0.5c0.6,8.5,0.8,17.8,0.2,18.1L174.1,200.1z
				 M173.9,189.1c0,3.9,0,6.6,0.1,8.3C174.1,195.7,174.1,192.9,173.9,189.1z"/>
		</g>
		<g>
			<path fill="#FFFFFF" d="M174.8,234.7c-0.8-19.5-1,6.5,0.5,15.6C175.5,240.6,175,239.7,174.8,234.7z"/>
			<path fill="#FFFFFF" d="M175,250.4c-0.9-5.9-1.4-22.5-0.9-22.9l0.1-0.1l0.1,0.1c0.2,0.1,0.3,0.2,0.6,7.3l0,0
				c0.1,1.5,0.2,2.7,0.2,3.8c0.2,2.6,0.4,5.1,0.2,11.9L175,250.4z M174.4,232.3c0,4,0.2,9.8,0.7,14.3c0-4-0.1-6-0.3-8.1
				c-0.1-1.1-0.2-2.3-0.2-3.8l0,0C174.5,233.8,174.5,233,174.4,232.3z"/>
		</g>
		<g>
			<path fill="#FFFFFF" d="M178.2,250.3c0-10.2-0.8-17.6-0.5-29.3C176,224.1,176.9,243.6,178.2,250.3z"/>
			<path fill="#FFFFFF" d="M178,250.4c-1.4-7-2.2-26.4-0.5-29.5l0.5-0.9v1c-0.2,7,0,12.6,0.2,18c0.1,3.6,0.3,7.2,0.3,11.3L178,250.4
				z M177.4,223.1c-0.7,4.9-0.3,16.5,0.5,23.6c-0.1-2.7-0.1-5.2-0.2-7.6C177.5,234.2,177.3,229.2,177.4,223.1z"/>
		</g>
		<g>
			<path fill="#FFFFFF" d="M177.2,209.3c0-27.2-1.2-9.5,0,9.8C178.2,213.4,177.2,214.1,177.2,209.3z"/>
			<path fill="#FFFFFF" d="M177.1,221.2L177,219c-0.6-10-0.7-23.6-0.2-24l0.1-0.1l0.1,0.1c0.2,0.1,0.4,0.2,0.4,14.2
				c0,1.8,0.1,2.8,0.3,3.7c0.2,1.5,0.3,2.6-0.3,6.1L177.1,221.2z M177.2,212.5c0,1.3,0.1,2.6,0.2,4c0.1-1.6,0-2.4-0.1-3.4
				C177.2,212.9,177.2,212.7,177.2,212.5z M177.1,209.3h0.2H177.1z M177,202.9c0,0.5,0,1,0,1.6C177,204,177,203.4,177,202.9z"/>
		</g>
		<g>
			<path fill="#FFFFFF" d="M180.6,217.1c-0.3-8.5,0.6-22.1-0.5-27.4C179.7,194.6,178.7,215.5,180.6,217.1z"/>
			<path fill="#FFFFFF" d="M180.9,217.7l-0.4-0.4c-2.1-1.7-0.9-24-0.6-27.6l0.2-1.6l0.3,1.6c0.7,3.3,0.6,9.9,0.5,16.3
				c-0.1,3.9-0.1,7.9,0,11.1V217.7z M180.2,192c-0.5,6.8-0.8,20.1,0.1,24c-0.1-3,0-6.5,0-10C180.5,200.8,180.6,195.5,180.2,192z"/>
		</g>
		<g>
			<path fill="#FFFFFF" d="M180.2,221c0,9.8,0,19.5,0,29.3C182.4,246.4,180.6,227.1,180.2,221z"/>
			<path fill="#FFFFFF" d="M179.9,251.3V221h0.5c0,0.6,0.1,1.3,0.2,2.1c0.6,7.7,1.9,23.8-0.2,27.4L179.9,251.3z M180.4,227.6v21.3
				C181.4,244.8,180.9,234.7,180.4,227.6z"/>
		</g>
	</g>
	<g>
		<g>
			<path fill="#FFFFFF" d="M341.9,181.9c-0.5-8.3-0.6-18.6-0.5-29.3c-1.1,17.2-0.2,43.2,0.5,50.8c0-5.9,0-11.7,0-17.6
				c1.3,0.2,0.5,8.4,2.4,5.9c-0.4-7.1,1.1-38.1-1-44.9C343.3,163.7,344.1,172.6,341.9,181.9z"/>
			<path fill="#FFFFFF" d="M341.7,203.5c-0.7-7.2-1.6-33.3-0.5-50.8h0.5c-0.1,9.5-0.1,19.4,0.4,27.4c1.3-6.6,1.2-13.2,1.1-22.8
				c0-3.1-0.1-6.6,0-10.5v-1.7l0.5,1.6c1.4,4.7,1.2,20.8,1,32.6c-0.1,5.4-0.1,10.1,0,12.4v0.1l-0.1,0.1c-0.1,0.2-0.5,0.7-1,0.6
				c-0.6-0.2-0.8-1.4-1-3.4c-0.1-0.7-0.2-1.8-0.4-2.5v16.9H341.7z M341.2,166.8c-0.1,10.3,0.1,21,0.5,28.5v-9.8h0.3
				c0.7,0.1,0.9,1.3,1.1,3.4c0.1,1.1,0.3,2.8,0.7,2.9c0,0,0.2,0,0.4-0.3c-0.1-2.3,0-6.9,0-12.3c0.1-10.1,0.3-23.5-0.5-29.9
				c0,2.9,0,5.5,0,7.9c0.1,10.5,0.1,17.5-1.5,24.7l-0.4,1.7l-0.1-1.7C341.4,177.4,341.2,172.2,341.2,166.8z"/>
		</g>
		<g>
			<path fill="#FFFFFF" d="M342.4,221c-1.3,4.8,0.7,12.7,0,21.5c0,2.6,0,5.2,0,7.8C342.8,240,344.1,225.2,342.4,221z"/>
			<path fill="#FFFFFF" d="M342.6,250.3h-0.5v-7.8c0.3-4.1,0.1-8.1-0.2-11.6c-0.3-4-0.5-7.4,0.2-10l0.2-0.7l0.3,0.7
				c1.4,3.3,0.9,13.1,0.4,22.5C342.9,245.9,342.7,248.2,342.6,250.3z M342.4,222c-0.4,2.4-0.2,5.5,0,8.9c0.1,2,0.3,4.2,0.3,6.4
				C343.1,231,343.2,224.9,342.4,222z"/>
		</g>
		<g>
			<path fill="#FFFFFF" d="M339.5,207.3c0-13.7-0.2-26.6-1-37.1C338.6,181.1,338.8,211.2,339.5,207.3z"/>
			<path fill="#FFFFFF" d="M339.4,207.9C339.4,207.9,339.3,207.9,339.4,207.9c-0.5,0-0.7-0.1-1.1-32.1c0-2.2,0-4.1-0.1-5.7h0.5
				c0.7,9.2,1,20.7,1,37.1l0,0C339.7,207.6,339.6,207.9,339.4,207.9z M338.9,182c0.1,6.6,0.2,14.3,0.3,19.5
				C339.2,194,339.1,187.6,338.9,182z"/>
		</g>
		<g>
			<path fill="#FFFFFF" d="M335.6,168.3c0,6.3,0.3,12,1,15.6C336.6,177.2,336.7,170.3,335.6,168.3z"/>
			<path fill="#FFFFFF" d="M336.8,186.3l-0.5-2.4c-0.6-3.1-0.9-8-1-15.7v-1l0.5,0.8c1.1,1.9,1.1,8,1,14.5V186.3z M335.8,169.9
				c0.1,4.5,0.2,8,0.5,10.6C336.3,176.3,336.3,172.2,335.8,169.9z"/>
		</g>
		<g>
			<path fill="#FFFFFF" d="M336.5,207.3C337.1,181.5,335.1,185.5,336.5,207.3L336.5,207.3z"/>
			<path fill="#FFFFFF" d="M336.3,207.4c-0.6-8.5-0.8-17.8-0.2-18.1l0.1-0.1l0.2,0.1c0.6,0.4,0.6,11.6,0.4,18.1H336.3z M336.3,191.8
				c0,1.8,0,4.6,0.1,8.3C336.4,196.2,336.4,193.5,336.3,191.8z"/>
		</g>
		<g>
			<path fill="#FFFFFF" d="M335.6,154.6c0.8,19.5,1-6.5-0.5-15.6C334.8,148.6,335.3,149.5,335.6,154.6z"/>
			<path fill="#FFFFFF" d="M336.1,161.9l-0.1-0.1c-0.2-0.1-0.3-0.2-0.6-7.3l0,0c-0.1-1.5-0.2-2.7-0.2-3.8c-0.2-2.6-0.4-5.1-0.2-11.9
				h0.5c0.9,5.9,1.4,22.5,0.9,22.9L336.1,161.9z M335.3,142.7c0,4,0.1,6,0.3,8.1c0.1,1.1,0.2,2.3,0.2,3.8l0,0c0,0.9,0.1,1.7,0.1,2.5
				C335.9,153.1,335.7,147.3,335.3,142.7z"/>
		</g>
		<g>
			<path fill="#FFFFFF" d="M332.1,138.9c0,10.2,0.8,17.6,0.5,29.3C334.3,165.1,333.5,145.7,332.1,138.9z"/>
			<path fill="#FFFFFF" d="M332.3,169.3v-1c0.2-7,0-12.6-0.2-18c-0.1-3.6-0.3-7.2-0.3-11.3h0.5c1.4,7,2.2,26.4,0.5,29.5L332.3,169.3
				z M332.4,142.6c0.1,2.7,0.1,5.2,0.2,7.6c0.2,4.8,0.4,9.8,0.3,15.9C333.7,161.3,333.3,149.7,332.4,142.6z"/>
		</g>
		<g>
			<path fill="#FFFFFF" d="M333.1,180c0,27.2,1.2,9.5,0-9.8C332.1,175.9,333.1,175.2,333.1,180z"/>
			<path fill="#FFFFFF" d="M333.4,194.2l-0.1-0.1c-0.2-0.1-0.4-0.2-0.4-14.2l0,0c0-1.8-0.1-2.8-0.3-3.7c-0.2-1.5-0.3-2.6,0.3-6.1
				l0.4-2.1l0.1,2.2c0.6,10,0.7,23.6,0.2,24L333.4,194.2z M333.4,184.8c0,0.6,0,1.1,0,1.6C333.4,185.8,333.4,185.3,333.4,184.8z
				 M333,172.8c-0.1,1.6,0,2.4,0.1,3.4c0,0.2,0.1,0.4,0.1,0.6C333.1,175.5,333.1,174.2,333,172.8z"/>
		</g>
		<g>
			<path fill="#FFFFFF" d="M329.7,172.2c0.3,8.5-0.6,22.1,0.5,27.4C330.6,194.7,331.6,173.7,329.7,172.2z"/>
			<path fill="#FFFFFF" d="M330.3,201.2l-0.3-1.6c-0.7-3.3-0.6-9.9-0.5-16.3c0.1-3.9,0.1-7.9,0-11.1v-0.6l0.4,0.4
				c2.1,1.7,0.9,24,0.6,27.6L330.3,201.2z M330,173.3c0.1,3,0,6.5,0,10c-0.1,5.1-0.2,10.4,0.2,14C330.6,190.5,330.9,177.1,330,173.3
				z"/>
		</g>
		<g>
			<path fill="#FFFFFF" d="M330.2,168.3c0-9.8,0-19.5,0-29.3C328,142.9,329.7,162.2,330.2,168.3z"/>
			<path fill="#FFFFFF" d="M329.9,168.3c0-0.6-0.1-1.3-0.2-2.1c-0.6-7.7-1.9-23.8,0.2-27.4l0.5-0.8v30.3H329.9z M329.9,140.3
				c-1,4.2-0.5,14.2,0,21.3V140.3z"/>
		</g>
	</g>
	<g>
		<g>
			<path fill="#FFFFFF" d="M229.1,94.5c-13.1,8.6-30,18.2-47.7,28c22.4-10.8,52.1-28.3,70.1-39.6l3.9-2.4l4.8,2.5
				c6,3.1,10.7,5.5,13.8,6.9l-13.3-7.8l-4.8-2.8l-4.8,2.7l-15.5,8.7c-0.9-2.2,13.3-8.6,7.4-9.5c-11.3,7.2-63.7,33.6-73,43.4
				C197.7,109.2,211.7,99.7,229.1,94.5z"/>
			<path fill="#FFFFFF" d="M168.5,125.8l1.2-1.2c6.4-6.7,33.1-21.3,52.7-31.9c9-4.9,16.8-9.2,20.4-11.5h0.1h0.1
				c1,0.1,1.5,0.4,1.6,0.9c0.3,1.1-1.9,2.7-4.5,4.6c-1.8,1.3-4,2.9-4.3,3.8l20.1-11.3l4.9,2.9l13.3,7.8l-0.2,0.4
				c-3.2-1.5-8.1-3.9-13.8-6.9l-4.6-2.4l-3.8,2.4c-18.4,11.6-47.9,28.9-70.1,39.6l-0.2-0.4c16.3-9.1,33.1-18.6,46.2-27
				c-12.6,4-23.8,10.4-40.2,19.9c-5.1,2.9-10.8,6.2-17.2,9.8L168.5,125.8z M242.9,81.7c-3.6,2.3-11.4,6.5-20.3,11.4
				c-18.2,9.9-42.7,23.3-51,30.4c5.7-3.2,10.8-6.2,15.4-8.8c17.2-9.9,28.6-16.5,42-20.5l1.6-0.5l-1.4,0.9
				c-10.8,7.1-24.5,15-38.3,22.8c20.6-10.6,44.5-24.8,60.4-34.7l4-2.5l4.9,2.6c2.8,1.5,5.4,2.8,7.7,3.9l-12.1-7l-20.4,11.5l-0.1-0.3
				c-0.5-1.1,1.8-2.8,4.5-4.7c2-1.4,4.5-3.3,4.3-4.1C244,82,243.6,81.8,242.9,81.7z"/>
		</g>
		<g>
			<path fill="#FFFFFF" d="M303.1,105.9c6.5,6.7,21.5,11,35.1,20.4l12.8,7.4C334.4,123.2,311.4,107,303.1,105.9z"/>
			<path fill="#FFFFFF" d="M350.8,133.9l-12.8-7.4c-6.4-4.4-13.1-7.8-19.1-10.7c-6.7-3.3-12.6-6.2-16.1-9.8l-0.5-0.5l0.7,0.1
				c6.7,0.9,22,11,36.9,20.7c3.9,2.5,7.6,5,11,7.2L350.8,133.9z M303.8,106.3c3.5,3.3,9,6,15.3,9.1c5.9,2.9,12.7,6.3,19.1,10.7
				l3.7,2.1c-0.7-0.5-1.5-1-2.2-1.4C326.2,117.9,310.8,107.8,303.8,106.3z"/>
		</g>
		<g>
			<path fill="#FFFFFF" d="M278,97.7c-6.8-3.9-13.4-7.7-19.8-11.4l-2.5-1.4l-2.4,1.4c-15,8.7-28.8,17-40.3,24.8
				c9.2-5.4,26.9-15.7,40.9-23.8l1.8-1.1l2,1.1C270.8,94.6,280.8,99.9,278,97.7z"/>
			<path fill="#FFFFFF" d="M213.1,111.3l-0.3-0.4c10.6-7.1,23.7-15.2,40.3-24.8l2.5-1.5l7.1,4.1l15.3,8.8c0.4,0.3,0.7,0.6,0.5,0.8
				c-0.2,0.3-0.4,0.7-21.1-10.8l-1.8-1L213.1,111.3z M255.7,85.1l-2.3,1.3c-12.6,7.3-23.2,13.7-32.2,19.5l34.5-20.1l2.1,1.2
				c11.8,6.6,17.1,9.4,19.3,10.4L255.7,85.1z"/>
		</g>
		<g>
			<path fill="#FFFFFF" d="M212.5,117.7c10.4-6,19.5-11.6,24.8-16.1C226.3,107.7,214.7,114,212.5,117.7z"/>
			<path fill="#FFFFFF" d="M211.8,118.4l0.5-0.8c2.1-3.5,12.2-9.1,22.8-15l4.3-2.4l-1.9,1.6c-4.6,3.9-12.2,8.9-24.8,16.2
				L211.8,118.4z M234.9,103.2c-9.1,5.1-18.4,10.3-21.5,13.7C223.6,111,230.4,106.7,234.9,103.2z"/>
		</g>
		<g>
			<path fill="#FFFFFF" d="M275.2,102.5c-8.4-5.2-14.9-9-19.6-11.6h0.3c-13.2,7.7-11.5,8,0.6,1H255
				C259.9,94.6,266.7,98.2,275.2,102.5z"/>
			<path fill="#FFFFFF" d="M275.1,102.7c-8.9-4.4-15.3-7.9-19.3-10.1c-8.9,5.1-9.2,4.6-9.3,4.4s-0.4-0.6,7.6-5.4H254h0.1
				c0.4-0.2,0.7-0.4,1.1-0.7l-0.6-0.4h2.2l-0.6,0.3c5.2,3,11.8,6.9,19.1,11.3L275.1,102.7z M256.2,92.3c3.1,1.8,7.7,4.2,13.6,7.2
				c-4.8-2.9-9.2-5.5-12.9-7.6l-0.3,0.2C256.5,92.1,256.4,92.2,256.2,92.3z M254.6,91.9c-4,2.4-6.1,3.8-7,4.5
				c1.2-0.5,3.7-1.8,7.7-4.1c-0.1-0.1-0.3-0.1-0.4-0.2L254.6,91.9z M255.1,91.6h1.3c-0.2-0.1-0.5-0.3-0.7-0.4
				C255.5,91.3,255.3,91.5,255.1,91.6z"/>
		</g>
		<g>
			<path fill="#FFFFFF" d="M190,130.4c31.3-19.5-11.5,4.4-25.2,15.3C180.9,137.1,181.9,135.4,190,130.4z"/>
			<path fill="#FFFFFF" d="M164.9,145.9l-0.3-0.4c9.2-7.3,35.7-23.2,36.7-22.7l0.1,0.1v0.2c0,0.2,0,0.5-11.3,7.6l0,0
				c-2.4,1.5-4.2,2.7-6,3.9C180,137.3,176.2,139.9,164.9,145.9z M199.3,124.1c-5.6,3-22.4,12.9-31.9,19.9c9.1-5,12.7-7.4,16.4-9.9
				c1.7-1.2,3.6-2.4,6-3.9l0,0C195.1,126.9,197.9,125.1,199.3,124.1z"/>
		</g>
		<g>
			<path fill="#FFFFFF" d="M167.5,150.5c16.8-9.6,28.2-17.7,47.7-28C208.5,122.6,177.4,142,167.5,150.5z"/>
			<path fill="#FFFFFF" d="M167.6,150.7l-0.3-0.4c10.2-8.7,41.2-28,47.9-28.1h1l-0.9,0.5c-11.8,6.2-20.7,11.7-29.4,17
				C180.2,143.3,174.3,146.9,167.6,150.7z M213.8,123c-8.1,1.9-32.7,17.1-43.8,25.8c5.6-3.3,10.7-6.4,15.7-9.4
				C194,134.2,202.7,128.9,213.8,123z"/>
		</g>
		<g>
			<path fill="#FFFFFF" d="M234,110.8c44.8-25.2,14.5-10.8-16.1,9.1C228.1,116.2,226.1,115.3,234,110.8z"/>
			<path fill="#FFFFFF" d="M216,120.9l1.8-1.2c18.3-11.8,38.3-22.9,39-22.5l0.1,0.1v0.2c0,0.2,0,0.8-22.8,13.6l0,0
				c-3,1.7-4.5,2.9-5.9,3.9c-2.2,1.7-3.9,2.9-10.2,5.2L216,120.9z M254.7,98.5c-5.1,2.6-19.3,10.5-34.7,20.3c4.5-1.8,6-2.9,7.9-4.3
				c1.4-1,2.9-2.2,6-3.9l0,0C245.9,103.8,252,100.2,254.7,98.5z"/>
		</g>
		<g>
			<path fill="#FFFFFF" d="M224.4,123.7c10.8-6.7,27.7-15,37.9-21.5l-13.3-0.1c2.9,1.5,5.4,2.6,7.4,3.3c-1.4-1-3.8-2.6-6.7-4.5
				l11.9,0.1C248.3,107.5,225,120,224.4,123.7z"/>
			<path fill="#FFFFFF" d="M224,124.2l0.1-0.5c0.6-3.4,18.9-13.4,29.6-19c-1.4-0.6-3-1.4-4.9-2.3l-0.9-0.5h2.8
				c-0.4-0.3-0.8-0.5-1.2-0.8l-0.7-0.5l13.8,0.1l-0.9,0.5c-0.5,0.3-1,0.5-1.5,0.8h3l-0.7,0.5c-1.6,1-3.4,2.1-5.3,3.2l0.7,0.5
				l-1.1-0.3c-4.3,2.5-9.2,5.2-14,7.8c-6.4,3.5-13.1,7.1-18.3,10.3L224,124.2z M254.3,104.9c-14,7.2-27.2,14.9-29.4,18.1
				c5.1-3.1,11.5-6.6,17.6-9.9c4.6-2.5,9.4-5.1,13.6-7.6C255.6,105.4,255,105.2,254.3,104.9z M255.4,104.4c0.4,0.3,0.8,0.6,1.2,0.8
				l0.1,0.1c1.7-1,3.3-1.9,4.8-2.9h-2.2C257.9,103.1,256.6,103.7,255.4,104.4z M250.1,102.4c1.6,0.8,3,1.5,4.3,2h0.1
				c-0.8-0.6-1.8-1.2-2.9-1.9L250.1,102.4z M252.4,102.4c0.9,0.6,1.7,1.2,2.5,1.7c1.2-0.6,2.3-1.2,3.2-1.6L252.4,102.4z
				 M251.7,101.9h7.4c0.6-0.3,1.1-0.5,1.5-0.7l-10-0.1C250.9,101.4,251.3,101.6,251.7,101.9z"/>
		</g>
		<g>
			<path fill="#FFFFFF" d="M217.5,126.5l-48.2,27.2C177.8,153.8,208,132.9,217.5,126.5z"/>
			<path fill="#FFFFFF" d="M169.3,154L169.3,154h-1l49-27.7l0.3,0.4c-0.9,0.6-2,1.4-3.3,2.2C202.2,137.1,177.1,154,169.3,154z
				 M211.9,129.9l-41.5,23.5C178.6,152.1,199.9,138,211.9,129.9z"/>
		</g>
	</g>
	<g>
		<g>
			<path fill="#FFFFFF" d="M237.2,178.4c3.9,4.1,9.8,7.4,16.5,7.8c6.6,0.5,14-2,19-7.2c-4.2,4-10.5,6.8-17.1,6.7
				c-6.6,0-13.2-3-17.4-7.7c-4.4-4.6-6.3-10.7-6.5-15.8c-0.1-5.1,1.3-9.2,2.4-11.5c-1.9,3.6-2.9,7.6-2.9,11.6s1,8.1,2.9,11.6
				c-0.6,0.2-2.2-2.3-3-4.7c-0.9-2.4-1.4-4.5-2.2-2.5c0.5,2.6,1.8,7.6,5.6,12.5c1.9,2.4,4.4,4.7,7.4,6.5s6.5,3.1,10.1,3.6
				s7.3,0.2,10.7-0.7s6.4-2.5,8.8-4.4c4.9-3.7,7.1-8.3,7.6-10.8c-2.7,5.6-6.9,9.5-11.2,11.9c-4.4,2.3-8.9,3.3-12.9,3.1
				C247,188.1,240.6,184,237.2,178.4z"/>
			<path fill="#FFFFFF" d="M255.7,189.8c-1.2,0-2.4-0.1-3.6-0.2c-3.6-0.5-7.1-1.7-10.2-3.6c-2.8-1.7-5.4-3.9-7.5-6.6
				c-2.8-3.5-4.6-7.7-5.6-12.6v-0.1v-0.1c0.2-0.5,0.4-1,0.8-1l0,0c0.5,0,0.8,0.8,1.3,2.2c0.1,0.4,0.3,0.8,0.5,1.2
				c0.7,1.9,1.6,3.4,2.2,4.1c-1.7-3.4-2.5-7.2-2.6-10.9c0-4.1,1-8.1,3-11.8l0.4,0.2c-0.9,2-2.5,6.2-2.4,11.4
				c0.2,5.7,2.5,11.5,6.4,15.6c4.3,4.7,10.9,7.6,17.2,7.6c0,0,0,0,0.1,0c6.1,0.1,12.4-2.4,16.9-6.6l0.4,0.4
				c-4.9,5-12.2,7.8-19.2,7.2c-5.4-0.3-10.7-2.6-14.9-6.2c3.7,4.7,9.6,7.6,16.3,7.9c4.2,0.2,8.6-0.9,12.7-3
				c3.4-1.9,8.1-5.5,11.1-11.8l1-2.1l-0.5,2.2c-0.6,2.8-3.1,7.4-7.7,10.9c-2.6,2-5.7,3.5-8.9,4.4
				C260.5,189.5,258.1,189.8,255.7,189.8z M229.2,166.8c1,4.8,2.8,8.8,5.5,12.3c2,2.6,4.5,4.8,7.3,6.4c3,1.8,6.5,3.1,10,3.5
				c3.5,0.5,7.2,0.2,10.6-0.7c3.1-0.9,6.2-2.4,8.7-4.3c3-2.3,5.1-5,6.3-7.4c-2.9,4.5-6.7,7.3-9.6,8.9c-4.2,2.2-8.7,3.3-13,3.1
				c-7.7-0.3-14.4-4.1-18.1-10.1l-1.2-2l1.6,1.7c4.3,4.5,10.2,7.3,16.4,7.7c1,0.1,2,0.1,2.9,0c-0.3,0-0.7,0-1,0c0,0,0,0-0.1,0
				c-6.5,0-13.2-3-17.6-7.8c-3.9-4.2-6.4-10.1-6.5-15.9c0-0.7,0-1.4,0-2c-0.1,0.7-0.1,1.4-0.1,2.1c0,4,1,8,2.9,11.5l0.1,0.3
				l-0.3,0.1c-0.1,0.1-0.3,0-0.4,0c-0.9-0.4-2.2-2.8-2.9-4.9c-0.2-0.4-0.3-0.9-0.5-1.2c-0.3-0.8-0.6-1.8-0.9-1.9
				C229.6,166.2,229.5,166.3,229.2,166.8z"/>
		</g>
		<g>
			<path fill="#FFFFFF" d="M253.6,137.5c3.3,0.5,7.8,0.5,12.6,2.5c4.8,1.8,9.7,5.9,12.1,11.7c1.6,3.3,2.4,7,2.4,10.6
				c0.1-3.6-0.6-7.8-2.4-11.6c-1.7-3.8-4.6-7.2-7.8-9.6c-3.2-2.4-6.9-3.7-9.9-4.2C257.5,136.6,255,137,253.6,137.5z"/>
			<path fill="#FFFFFF" d="M280.8,162.4h-0.5c0-3.6-0.8-7.3-2.4-10.5c-2.1-5.2-6.5-9.5-11.9-11.6c-3.8-1.6-7.4-1.9-10.3-2.2
				c-0.8-0.1-1.5-0.2-2.2-0.3l-1-0.1l0.9-0.3c0.7-0.3,3.2-1.1,7.1-0.5c2.1,0.3,6.1,1.3,10,4.3c3.4,2.5,6.2,6,7.9,9.6
				C280.1,154.3,281,158.4,280.8,162.4z M254.8,137.4c0.3,0,0.7,0.1,1,0.1c2.9,0.3,6.6,0.7,10.4,2.3c3.4,1.3,6.4,3.5,8.8,6.2
				c-1.3-1.7-2.9-3.2-4.7-4.5c-3.8-2.9-7.8-3.8-9.8-4.2C257.9,136.9,256,137.1,254.8,137.4z"/>
		</g>
		<g>
			<path fill="#FFFFFF" d="M239.2,148c-2.8,3.2-4.6,7.1-5.1,11.2c-0.6,4,0.1,8.1,1.6,11.6c3.1,7,9.8,11.3,15.9,12
				c-3.1-0.5-7.6-2.3-11.2-6c-3.6-3.6-5.9-9-5.9-14c-0.1-2.5,0.3-4.9,0.9-6.9c0.6-2,1.4-3.7,2.2-5
				C239.1,148.3,240.2,147.3,239.2,148z"/>
			<path fill="#FFFFFF" d="M251.6,183c-6.9-0.8-13.2-5.5-16.1-12.1c-1.6-3.8-2.2-7.9-1.6-11.7c0.5-4.1,2.4-8.1,5.2-11.3l0,0
				c0.3-0.2,0.5-0.4,0.7-0.2s0.1,0.3-0.4,1.1c-0.4,0.5-0.9,1.3-1.5,2.3c-0.9,1.5-1.6,3.2-2.2,4.9c-0.6,2.2-0.9,4.6-0.9,6.8
				c0.1,5,2.3,10.3,5.9,13.9c4.3,4.5,9.5,5.7,11,5.9L251.6,183z M236.3,152.9c-1,2-1.6,4.2-1.9,6.4c-0.6,3.8,0,7.7,1.6,11.4
				c1.1,2.5,2.8,4.8,4.7,6.6c-0.1-0.1-0.2-0.2-0.4-0.4c-3.6-3.7-6-9.1-6-14.2c-0.1-2.3,0.2-4.7,0.9-7
				C235.5,154.8,235.9,153.8,236.3,152.9z"/>
		</g>
		<g>
			<path fill="#FFFFFF" d="M254.2,179.9c-3.2-0.2-6-1.3-8.4-2.6c-2.3-1.3-4.1-3-5.5-4.3c1,1.5,2.2,2.7,3.5,3.9
				c1.3,1.1,2.8,1.9,4.1,2.5C250.7,180.5,253.2,180.4,254.2,179.9z"/>
			<path fill="#FFFFFF" d="M252.3,180.5c-1.2,0-2.8-0.3-4.4-1c-1.3-0.5-2.7-1.4-4.2-2.5c-1.5-1.2-2.7-2.6-3.6-3.9l-1.4-2l1.7,1.7
				c1.4,1.4,3.2,2.9,5.5,4.3c2.7,1.5,5.5,2.4,8.3,2.6l0.9,0.1l-0.8,0.4C253.8,180.4,253.1,180.5,252.3,180.5z M242.7,175.4
				c0.4,0.4,0.9,0.8,1.3,1.2c1.4,1.1,2.8,1.9,4.1,2.4c1.8,0.8,3.5,1,4.6,0.9c-2.3-0.4-4.7-1.2-7-2.5
				C244.6,176.9,243.5,176.2,242.7,175.4z"/>
		</g>
		<g>
			<path fill="#FFFFFF" d="M241.6,150.1c-2.3,2.5-3.5,5.3-4.1,7.7s-0.6,4.4-0.5,5.9c0.4,3.1,1.1,4.2,1.1,3.9c0.1-0.3-0.5-2-0.5-5.1
				C237.5,159.5,238,154.7,241.6,150.1z"/>
			<path fill="#FFFFFF" d="M238.1,167.9c-0.5,0-1.1-2.2-1.3-4.2c-0.2-1.2-0.2-3.3,0.5-6c0.8-3,2.2-5.6,4.2-7.8l0.4,0.3
				c-2.7,3.5-4,7.5-4,12.3c0,1.9,0.3,3.4,0.4,4.2c0.1,0.5,0.1,0.8,0.1,1v0.2H238.1L238.1,167.9z M238,156.5
				c-0.1,0.4-0.3,0.9-0.4,1.3c-0.6,2.6-0.6,4.6-0.5,5.8c0.1,0.8,0.2,1.4,0.3,1.9c-0.1-0.8-0.2-1.8-0.3-3.1
				C237.3,160.4,237.5,158.4,238,156.5z"/>
		</g>
		<g>
			<path fill="#FFFFFF" d="M266.9,176c-3.7,3.2-6,3.5-6,3.8c-0.1,0.2,1.6-0.2,3.9-1.6c1.2-0.7,2.4-1.6,3.6-2.8
				c1.1-1.2,2.2-2.6,3-4.2c1.5-3.1,1.9-6.6,1.4-8.8c-0.3,4.7-1.5,7-2.4,8.8C269.4,172.9,268.7,174.3,266.9,176z"/>
			<path fill="#FFFFFF" d="M260.9,180c-0.1,0-0.2,0-0.3-0.1l-0.1-0.2l0.1-0.1c0.1-0.1,0.3-0.2,0.6-0.4c0.9-0.4,2.8-1.2,5.4-3.4
				c1.9-1.7,2.6-3.1,3.5-4.7l0.2-0.4c0.8-1.7,1.9-4,2.1-8.3l0.1-2.1l0.4,2c0.4,2,0.2,5.5-1.5,8.9c-0.7,1.4-1.7,2.9-3,4.3
				c-1.1,1.2-2.4,2.2-3.6,2.9C263.6,179.1,261.6,180,260.9,180z M272.6,165.7c-0.5,2.4-1.2,3.9-1.8,5.1l-0.2,0.5
				c-0.9,1.7-1.7,3.1-3.6,4.9l0,0c-0.9,0.8-1.8,1.4-2.5,1.9c0.1,0,0.1-0.1,0.2-0.1c1.2-0.7,2.4-1.7,3.5-2.8c1.3-1.4,2.2-2.8,2.9-4.2
				C272,169.2,272.5,167.3,272.6,165.7z"/>
		</g>
		<g>
			<path fill="#FFFFFF" d="M269.6,162.4c0,4-1.4,7.5-3.9,10.3c-2.5,2.7-6.4,4.7-11.3,4.2c0.6,0.5,2.2,0.9,4.2,0.7s4.5-1.2,6.6-2.9
				s3.5-4.1,4.2-6.4C270.1,165.8,270,163.7,269.6,162.4z"/>
			<path fill="#FFFFFF" d="M257.4,177.8c-1.5,0-2.6-0.4-3.2-0.8l-0.7-0.5l0.9,0.1c4.2,0.4,8.2-1,11.1-4.1c2.5-2.8,3.8-6.2,3.8-10.1
				v-2l0.5,1.9c0.2,0.8,0.6,3.1-0.2,5.9c-0.7,2.5-2.4,4.9-4.3,6.5c-2,1.7-4.5,2.8-6.7,3C258.2,177.8,257.8,177.8,257.4,177.8z
				 M255.9,177.1c0.7,0.2,1.6,0.2,2.7,0.1c2.1-0.2,4.5-1.3,6.4-2.9c1.9-1.5,3.4-3.9,4.2-6.3c0.3-1.1,0.4-2,0.5-2.9
				c-0.5,2.9-1.7,5.5-3.8,7.7C263.3,175.6,259.7,177.1,255.9,177.1L255.9,177.1z"/>
		</g>
		<g>
			<path fill="#FFFFFF" d="M245.5,173.4c-2.2-1.9-3.2-4.1-3.9-5.7c-0.7-1.6-0.9-2.9-1-3.7c-0.2-1.6-0.3-1.4-0.3,0.1
				c0.1,1.5,0.6,4.3,2.7,7.2c2,2.8,5.7,5.3,9.8,5.8c-2.2-1-3-1.5-4-1.8C247.9,175,247,174.8,245.5,173.4z"/>
			<path fill="#FFFFFF" d="M254.3,177.5l-1.6-0.2c-3.8-0.4-7.7-2.7-10-5.9c-1.9-2.6-2.7-5.5-2.7-7.3c0-1.3,0-1.5,0.3-1.5
				s0.3,0.2,0.5,1.3c0,0.1,0.1,0.3,0.1,0.5c0.2,0.8,0.4,1.8,0.9,3.1c0.7,1.6,1.7,3.7,3.8,5.6l0,0c1.2,1.1,2,1.4,2.8,1.7
				c0.2,0.1,0.3,0.1,0.5,0.2c0.5,0.1,1,0.4,1.7,0.7c0.6,0.3,1.3,0.6,2.2,1.1L254.3,177.5z M247.3,175c1.1,0.7,2.4,1.2,3.6,1.5
				c-0.2-0.1-0.3-0.2-0.5-0.2c-0.7-0.4-1.2-0.6-1.7-0.7c-0.2-0.1-0.3-0.1-0.5-0.2C247.9,175.2,247.6,175.1,247.3,175z M241.2,167.5
				c0.4,1.2,1.1,2.5,1.9,3.7c0.3,0.5,0.7,0.9,1.1,1.4c-1.5-1.7-2.4-3.4-3-4.8C241.3,167.7,241.3,167.6,241.2,167.5z"/>
		</g>
		<g>
			<path fill="#FFFFFF" d="M252.2,173.2c-2.7-0.6-5.7-3.2-6.9-6.2c-1.4-3-1.1-6.1-1.2-7.9c-0.4,0.7-0.8,2.2-0.8,4.1
				c-0.1,1.9,0.5,4.1,1.6,5.9c1.1,1.9,2.8,3.2,4.2,3.9C250.7,173.6,251.9,173.6,252.2,173.2z"/>
			<path fill="#FFFFFF" d="M251.3,173.7c-0.6,0-1.4-0.2-2.2-0.6c-1.7-0.8-3.4-2.3-4.3-4c-1.1-1.8-1.7-4-1.7-6c0-1.9,0.5-3.4,0.9-4.2
				l0.4-0.9l0.1,1c0,0.4,0,0.8,0,1.2c0,1.8,0,4.2,1.1,6.6c1.2,2.9,4.1,5.5,6.7,6l0.4,0.1l-0.3,0.3
				C252.2,173.6,251.8,173.7,251.3,173.7z M244,160.5c-0.2,0.7-0.3,1.7-0.4,2.7c-0.1,1.9,0.5,4,1.6,5.8c0.9,1.6,2.5,3,4.1,3.8
				c0.8,0.4,1.5,0.5,2,0.5c-2.6-0.9-5.1-3.3-6.2-6.1C244,164.8,244,162.3,244,160.5z"/>
		</g>
		<g>
			<path fill="#FFFFFF" d="M254.6,174.2c3.3,0.3,6.6-0.9,9-3.1c2.4-2.2,3.9-5.4,3.9-8.7c-0.7,0.7-1,1.9-1.6,3.2
				c-0.6,1.4-1.4,3-2.7,4.4c-1.2,1.4-2.8,2.6-4.4,3.3C257.3,173.9,255.7,174.2,254.6,174.2z"/>
			<path fill="#FFFFFF" d="M255.7,174.5c-0.3,0-0.7,0-1,0V174c0.9,0,2.5-0.3,4.1-0.9c1.5-0.6,3.1-1.8,4.4-3.2c1-1.2,1.9-2.7,2.6-4.3
				c0.2-0.4,0.3-0.8,0.5-1.2c0.3-0.9,0.6-1.6,1.1-2.1l0.4-0.4v0.6c0,3.4-1.4,6.6-3.9,8.9C261.6,173.4,258.7,174.5,255.7,174.5z
				 M267.3,163.2c-0.2,0.4-0.4,0.8-0.6,1.3c-0.1,0.4-0.3,0.8-0.5,1.2c-0.7,1.7-1.6,3.2-2.7,4.4c-1.4,1.5-3,2.7-4.5,3.3
				c-0.1,0-0.2,0.1-0.2,0.1c1.8-0.5,3.4-1.4,4.8-2.7C265.7,168.9,267.1,166.1,267.3,163.2z"/>
		</g>
	</g>
	<g>
		<g>
			<path fill="#FFFFFF" d="M252.2,60.9c0.4,5.7,0.4,12.8,0.3,20.2c0.8-11.9,0.1-29.8-0.3-35.1c0,4,0,8.1,0,12.1
				c-0.9-0.1-0.4-5.8-1.7-4c0.2,4.9-0.7,26.3,0.7,31C251.2,73.5,250.7,67.4,252.2,60.9z"/>
			<path fill="#FFFFFF" d="M251.4,86.9l-0.5-1.6c-1-3.3-0.8-14.4-0.7-22.5c0.1-3.8,0.1-7,0-8.5v-0.1l0.1-0.1
				c0.1-0.1,0.4-0.5,0.8-0.4c0.5,0.1,0.6,1,0.8,2.4c0,0.3,0.1,0.6,0.1,0.9V46.1h0.5c0.5,5,1.1,23,0.3,35.1h-0.5
				c0-6.3,0-12.8-0.2-18.3c-0.7,4.3-0.7,8.8-0.7,15.1c0,2.1,0,4.6,0,7.3L251.4,86.9z M250.8,54.2c0.1,1.6,0,4.8,0,8.5
				c-0.1,6.3-0.2,14.3,0.2,19.1c0-1.4,0-2.7,0-3.9c-0.1-7.3-0.1-12.1,1-17.1l0.4-1.7l0.1,1.7c0.1,1.2,0.1,2.5,0.2,3.8
				c0-3.2-0.1-6.3-0.2-9.1v2.9h-0.3c-0.5-0.1-0.7-1-0.8-2.4c-0.1-0.7-0.2-1.8-0.4-2C250.9,54.1,250.9,54.1,250.8,54.2z"/>
		</g>
		<g>
			<path fill="#FFFFFF" d="M251.9,33.9c0.9-3.3-0.5-8.8,0-14.8c0-1.8,0-3.6,0-5.4C251.6,20.9,250.7,31.1,251.9,33.9z"/>
			<path fill="#FFFFFF" d="M251.9,34.7l-0.3-0.7c-0.9-2.3-0.6-9-0.3-15.5c0.1-1.7,0.2-3.3,0.2-4.8h0.5v5.4c-0.2,2.8,0,5.6,0.1,8
				c0.2,2.8,0.4,5.1-0.1,6.9L251.9,34.7z M251.6,24.7c-0.1,3.3-0.1,6.4,0.2,8.1c0.2-1.6,0.1-3.5-0.1-5.7
				C251.7,26.3,251.6,25.5,251.6,24.7z"/>
		</g>
		<g>
			<path fill="#FFFFFF" d="M253.9,43.4c0,9.5,0.1,18.4,0.7,25.6C254.5,61.5,254.3,40.7,253.9,43.4z"/>
			<path fill="#FFFFFF" d="M254.3,69c-0.5-6.4-0.7-14.3-0.7-25.6l0,0c0-0.2,0.1-0.5,0.3-0.4c0.4,0,0.5,0,0.8,22.2c0,1.5,0,2.8,0,3.9
				L254.3,69z"/>
		</g>
		<g>
			<path fill="#FFFFFF" d="M256.6,70.3c0-4.4-0.2-8.3-0.7-10.8C255.9,64.1,255.8,69,256.6,70.3z"/>
			<path fill="#FFFFFF" d="M256.8,71.3l-0.5-0.8c-0.8-1.3-0.7-5.6-0.7-10v-3.3l0.5,2.4c0.4,2.2,0.6,5.5,0.7,10.8V71.3z M256.1,63.8
				c0,1.5,0,2.9,0.2,4.1C256.3,66.3,256.2,65,256.1,63.8z"/>
		</g>
		<g>
			<path fill="#FFFFFF" d="M255.9,43.4C255.5,61.2,256.9,58.4,255.9,43.4L255.9,43.4z"/>
			<path fill="#FFFFFF" d="M256.1,56l-0.1-0.1c-0.6-0.3-0.4-9.7-0.3-12.6h0.5c0.3,5,0.6,12.3,0.1,12.6L256.1,56z"/>
		</g>
		<g>
			<path fill="#FFFFFF" d="M256.6,79.8c-0.6-13.4-0.7,4.5,0.3,10.8C257.1,83.9,256.7,83.3,256.6,79.8z"/>
			<path fill="#FFFFFF" d="M256.7,90.6c-0.6-3.8-1-15.6-0.6-15.9l0.1-0.1l0.1,0.1c0.2,0.1,0.3,0.1,0.5,5.1l0,0c0,1,0.1,1.8,0.2,2.6
				c0.1,1.8,0.3,3.5,0.2,8.2L256.7,90.6z M256.5,83c0,0.9,0.1,1.8,0.1,2.6C256.7,84.5,256.6,83.7,256.5,83z"/>
		</g>
		<g>
			<path fill="#FFFFFF" d="M258.9,90.6c0-7.1-0.6-12.1-0.3-20.2C257.4,72.5,258,85.9,258.9,90.6z"/>
			<path fill="#FFFFFF" d="M258.7,90.6c-0.9-4.3-1.6-18.1-0.3-20.4l0.5-0.9v1c-0.1,4.9,0,8.7,0.1,12.4c0.1,2.5,0.2,5,0.2,7.8
				L258.7,90.6z M258.3,73.4c-0.2,3.3-0.1,8.5,0.3,12.5c0-1.1-0.1-2.2-0.1-3.2C258.4,79.9,258.3,76.9,258.3,73.4z"/>
		</g>
		<g>
			<path fill="#FFFFFF" d="M258.3,62.2c0-18.8-0.8-6.6,0,6.7C258.9,65.1,258.3,65.6,258.3,62.2z"/>
			<path fill="#FFFFFF" d="M258.1,71.2L258,69c-0.4-5.9-0.5-16.3-0.1-16.6l0.1-0.1l0.1,0.1c0.2,0.1,0.3,0.2,0.3,9.8l0,0
				c0,1.2,0.1,1.9,0.2,2.6c0.1,1,0.2,1.8-0.2,4.2L258.1,71.2z"/>
		</g>
		<g>
			<path fill="#FFFFFF" d="M260.6,67.6c-0.2-5.9,0.4-15.2-0.3-18.9C260,52.1,259.3,66.6,260.6,67.6z"/>
			<path fill="#FFFFFF" d="M260.9,68.2l-0.4-0.4c-1.6-1.3-0.6-17.6-0.4-19.1l0.2-1.6l0.3,1.6c0.5,2.3,0.4,6.8,0.3,11.3
				c0,2.7-0.1,5.4,0,7.7V68.2z M260.3,51.5c-0.2,4.4-0.4,11.3,0,14.4c0-1.9,0-3.9,0-5.9C260.4,56.9,260.5,53.8,260.3,51.5z"/>
		</g>
		<g>
			<path fill="#FFFFFF" d="M260.3,70.3c0,6.7,0,13.5,0,20.2C261.8,87.9,260.6,74.5,260.3,70.3z"/>
			<path fill="#FFFFFF" d="M260,91.5V70.3h0.5c0,0.4,0.1,0.9,0.1,1.5c0.4,5.3,1.3,16.4-0.1,18.9L260,91.5z M260.5,77.3v11.5
				C260.9,86.1,260.8,81.4,260.5,77.3z"/>
		</g>
	</g>
	<g>
		<g>
			<path fill="#FFFFFF" d="M250.5,37.1c-3.3,0.2-7.5,0.2-11.8,0.2c6.9,0.5,17.5,0.1,20.5-0.2c-2.4,0-4.7,0-7.1,0
				c0.1-0.5,3.4-0.2,2.4-1c-2.9,0.1-15.4-0.4-18.2,0.4C243.1,36.6,246.7,36.3,250.5,37.1z"/>
			<path fill="#FFFFFF" d="M246.5,37.8c-2.7,0-5.5-0.1-7.9-0.2v-0.5c3.3,0,6.7,0,9.6-0.1c-2.2-0.3-4.6-0.2-7.7-0.2
				c-1.3,0-2.7,0-4.2,0h-1.7l1.6-0.5c1.9-0.6,8.5-0.5,13.2-0.4c2.2,0,4.1,0.1,5,0h0.1l0.1,0.1c0.2,0.2,0.3,0.4,0.3,0.6
				c-0.1,0.2-0.2,0.3-0.5,0.4h4.8v0.5C257.3,37.6,252,37.8,246.5,37.8z M246.7,36.4c1.4,0.1,2.6,0.2,3.9,0.5l1.3,0.3v-0.1
				c0.1-0.4,0.7-0.5,1.5-0.6c0.2,0,0.6-0.1,0.9-0.1c-1,0-2.7,0-4.7,0C248.6,36.4,247.6,36.4,246.7,36.4z"/>
		</g>
		<g>
			<path fill="#FFFFFF" d="M266.3,36.9c1.9,0.5,5.1-0.3,8.7,0c1.1,0,2.1,0,3.2,0C273.9,36.8,268,36.3,266.3,36.9z"/>
			<path fill="#FFFFFF" d="M268,37.4c-0.7,0-1.3,0-1.8-0.2l-0.7-0.2l0.7-0.3c1.4-0.6,5.3-0.4,9.1-0.2c1,0.1,1.9,0.1,2.8,0.1v0.5H275
				c-1.7-0.1-3.3,0-4.7,0.1C269.5,37.3,268.7,37.4,268,37.4z M268.8,36.9c-0.2,0-0.3,0-0.5,0C268.5,36.9,268.7,36.9,268.8,36.9z"/>
		</g>
		<g>
			<path fill="#FFFFFF" d="M260.8,38.1c-5.6,0-10.8,0.1-15,0.4C250.2,38.5,262.3,38.4,260.8,38.1z"/>
			<path fill="#FFFFFF" d="M245.8,38.8v-0.5c3.7-0.3,8.4-0.4,15-0.4l0,0c0.1,0,0.4,0.1,0.3,0.3c0,0.4,0,0.4-13.1,0.6L245.8,38.8z"/>
		</g>
		<g>
			<path fill="#FFFFFF" d="M245,39.7c2.6,0,4.9-0.1,6.3-0.4C248.6,39.3,245.8,39.2,245,39.7z"/>
			<path fill="#FFFFFF" d="M244,40l0.8-0.5c0.8-0.5,3.3-0.4,5.9-0.4h3l-2.4,0.5c-1.3,0.3-3.2,0.4-6.4,0.4H244z"/>
		</g>
		<g>
			<path fill="#FFFFFF" d="M260.8,39.3C250.3,39.1,252,39.9,260.8,39.3L260.8,39.3z"/>
			<path fill="#FFFFFF" d="M255.4,39.8c-1.1,0-2-0.1-2.1-0.2l-0.1-0.1l0.1-0.1c0.1-0.1,0.2-0.4,7.5-0.2v0.5
				C260.6,39.6,257.5,39.8,255.4,39.8z"/>
		</g>
		<g>
			<path fill="#FFFFFF" d="M239.5,39.7c7.9-0.3-2.6-0.4-6.3,0.2C237.1,40,237.4,39.8,239.5,39.7z"/>
			<path fill="#FFFFFF" d="M234.9,40.2c-0.5,0-1.1,0-1.8,0v-0.5c1.7-0.3,9.1-0.7,9.4-0.3l0.1,0.1l-0.1,0.1c-0.1,0.2-0.1,0.2-3.1,0.3
				l0,0c-0.6,0-1.1,0.1-1.5,0.1C237.2,40.1,236.4,40.2,234.9,40.2z"/>
		</g>
		<g>
			<path fill="#FFFFFF" d="M233.1,41.1c4.1,0,7.1-0.3,11.8-0.2C243.7,40.2,235.9,40.5,233.1,41.1z"/>
			<path fill="#FFFFFF" d="M233.1,41.3v-0.5c2.6-0.5,10.6-0.9,12-0.2l0.9,0.5h-1c-2.8-0.1-5.1,0-7.3,0.1
				C236.3,41.3,234.8,41.3,233.1,41.3z"/>
		</g>
		<g>
			<path fill="#FFFFFF" d="M249.7,40.7c11,0,3.8-0.5-3.9,0C248.1,41.1,247.8,40.7,249.7,40.7z"/>
			<path fill="#FFFFFF" d="M247.4,41.1c-0.4,0-0.9,0-1.6-0.2l-2.1-0.4l2.2-0.1c2.4-0.1,9.6-0.4,9.8,0l0.1,0.1l-0.1,0.1
				c-0.1,0.2-0.1,0.3-5.9,0.2l0,0c-0.7,0-1.1,0.1-1.5,0.1C248,41.1,247.7,41.1,247.4,41.1z"/>
		</g>
		<g>
			<path fill="#FFFFFF" d="M246.6,42.1c3.4-0.1,8.9,0.3,11.1-0.2C255.7,41.7,247.2,41.3,246.6,42.1z"/>
			<path fill="#FFFFFF" d="M253.8,42.4c-0.9,0-1.8,0-2.8,0c-1.6,0-3.2-0.1-4.5,0h-0.6l0.4-0.4c0.8-1,11.2-0.3,11.3-0.3l1.6,0.2
				l-1.6,0.3C256.8,42.3,255.4,42.4,253.8,42.4z"/>
		</g>
		<g>
			<path fill="#FFFFFF" d="M245,41.9c-3.9,0-7.9,0-11.8,0C234.7,42.8,242.5,42,245,41.9z"/>
			<path fill="#FFFFFF" d="M236.8,42.6c-1.8,0-3.2-0.1-3.8-0.5l-0.8-0.5H245v0.5l-0.9,0.1C241.5,42.4,238.9,42.6,236.8,42.6z"/>
		</g>
	</g>
	<g>
		<g>
			<path fill="#FFFFFF" d="M307.4,469.8c-26.4,0.9-53.5,2.5-81.5,3.8l-20.3-1.4l-3.1-0.2l0.2-2.7l1.1-15.6l0.1-1.9l1.7,0.1l3.7,0.3
				l29.7-2.8h37.1h16.7l14.2,0.9l3.6,0.2l-0.2,3.2c-0.3,6-1,12-1.7,17.3c-0.7-3.5-1.7-6.9-2.9-9.7c-0.2-2.6-0.4-5.1-0.6-7.6l1.7,1.7
				l-25.3,1.4c0,0-24.1,1.9-35.3,0.9c-5.6-0.5-23.5-0.2-40.9,0l4.1-4.1c0.1,5.4,0.1,10.7,0.2,15.6l-4.2-4.2
				c10.3-0.1,18.4-0.1,20.9,0.3c3.7,0.5,23.3,1.8,42.7,2.8c9.7,0.5,19.2,0.9,26.4,1.2C302.7,469.6,307.4,469.8,307.4,469.8z"/>
		</g>
	</g>
	<g>
		<g>
			<path fill="#FFFFFF" d="M330.9,492.7c-19.3,0.7-38.8,1.6-58.7,2.6l-60.4,3l-29.7-2l-4.5-0.3l0.3-3.9l1.6-22.7l0.2-2.8l2.4,0.2
				l5.4,0.4L231,463h54.3h24.4l20.7,1.3l5.3,0.3l-0.2,4.7c-0.2,4.4-0.6,8.8-1,13c-0.4,4.3-1,8.3-1.4,12.3c-1-5.2-2.5-10-4.2-14.1
				c-0.3-3.8-0.6-7.5-0.8-11.1l2.5,2.5l-37,2.1c0,0-35.3,2.7-51.6,1.4c-8.2-0.7-34.4-0.3-59.7,0l5.9-5.9c0.1,7.9,0.2,15.6,0.3,22.7
				l-6.2-6.2c15-0.2,27-0.1,30.6,0.4c2.7,0.3,11.2,1,22.6,1.7c11.4,0.7,25.7,1.6,39.8,2.3c14.1,0.7,28.1,1.4,38.5,1.8
				C324.1,492.4,330.9,492.7,330.9,492.7z"/>
		</g>
	</g>
	<g>
		<g>
			<path fill="#FFFFFF" d="M177.6,459.2v6.8v0.4l0,0l-69.1,0.4h-0.3v-0.3l-0.2-35.9l0.6-35.8l0,0c3.2-0.8,6.7-0.7,9.9,0
				c7.5,1.4,13.9,7.2,16.2,14.7c0,0,0.1,0.5,0.1,1.5c0,0.9,0,2.2-0.2,3.8c-0.3,3.1-1.5,6.8-3.4,10l-1.5,2.5l3.1,0.1
				c4.9,0.1,9.3,1.7,12.8,1.7c1.5-0.1,3.7,1,5.8,3.1s4,5.5,4.8,9.4l-3-2c4-0.4,8.4,0.2,12,2.1c3.7,1.8,6.6,4.6,8.4,7.4
				c3.7,5.6,3.3,10.6,3.4,10.3c-1.5-5.6-5.7-10.4-10.6-12.7c-1.5-0.8-6.3-2.9-12.3-2l-2.3,0.4l-0.5-2.3c-0.9-3.9-3.4-7.9-6.9-10.5
				c-3.5-2.7-7.8-3.9-11.5-3.9h-4.5l2.1-4c1.4-2.7,2-5.3,2.1-7.2c0.1-1.8,0-2.9,0-2.9c-0.2-5.5-3-10.8-7.4-14.2
				c-4.4-3.4-10.5-4.7-16-3.4l1.4-1.8l-0.6,28.9l-0.4,42.7l-0.8-0.8l69.1,0.7l-0.1,0.1L177.6,459.2z"/>
			<path fill="#FFFFFF" d="M176.5,468.8v-1.5l-66.2,0.3v1.1l-1-1h-2.1v-2.1l-1.1-1.1h1.1l-0.2-34l0.5-32.6l-1,0.2l1.1-1.4v-0.8
				l-1.6,0.4l3.6-4.6v1.7c0.2,0,0.4-0.1,0.6-0.1l1.3-1.7v1.6c2.4-0.2,4.8,0,7.2,0.5c7.8,1.5,14.6,7.7,16.9,15.3v0.2
				c0,0,0.1,0.6,0.1,1.6c0.1,1,0,2.4-0.2,3.9c-0.3,3.4-1.7,7.3-3.5,10.4l-0.6,1.1h1.4c2.7,0.1,5.2,0.5,7.4,1
				c1.9,0.4,3.8,0.7,5.3,0.7l0,0c1.9-0.1,4.3,1.2,6.5,3.4c1.8,1.8,3.3,4.2,4.3,7c3.3,0.1,6.5,0.9,9.3,2.3c3.5,1.7,6.6,4.4,8.8,7.7
				c2.9,4.5,3.5,8.6,3.5,10.7v0.1h0.7v6.1h1.4l-0.1,0.1h0.2L176.5,468.8l0.1-0.2L176.5,468.8z M110.4,464.6l66.2,0.7v-5
				c-0.2-0.1-0.6-0.2-0.7-0.7l0,0c-1.4-5.2-5.3-9.8-10.1-12c-3.8-1.9-7.9-2.5-11.8-1.9l-3.2,0.5L150,443c-0.9-3.9-3.4-7.6-6.5-10
				c-3-2.3-7-3.7-10.9-3.7l0,0h-6.2l2.9-5.5c1.4-2.6,1.9-5.1,2-6.8c0.1-1.7,0-2.7,0-2.8c-0.2-5.3-2.8-10.3-7.1-13.5
				c-3.7-2.8-8.4-4.1-13.1-3.6l-0.6,26.5L110.4,464.6z M177.8,458.9v0.1v0.1C177.8,459.1,177.8,459,177.8,458.9z M157.5,443.4
				c3.1,0.1,6.2,0.9,9.2,2.3c2.6,1.2,5,3.1,6.9,5.4c-0.3-0.5-0.6-1-0.9-1.6c-1.9-3-4.8-5.5-8-7c-2.4-1.2-5.1-1.9-7.8-2.1
				c0.1,0.3,0.1,0.6,0.2,0.9L157.5,443.4z M150.9,439.3c0.5,1,0.8,2.1,1.1,3.2l0.3,1.4l1.4-0.2c1.1-0.2,2.2-0.3,3.3-0.3L150.9,439.3
				z M142.2,429.7c0.9,0.5,1.8,1.1,2.6,1.7c2.5,1.9,4.6,4.5,5.9,7.4l2.3-0.2c0.4,0,0.8-0.1,1.1-0.1c-0.9-2.2-2.1-4.1-3.6-5.6
				c-2.1-2.1-4-2.8-5-2.8S143.4,429.9,142.2,429.7z M133.4,414.2c0,0,0,0.2,0,0.6c0-0.1,0-0.1,0-0.2c0.1-1.3,0.2-2.7,0.2-3.6
				c0-0.7,0-1.1-0.1-1.3c-1.9-6.3-7.1-11.4-13.3-13.4c1.9,0.7,3.7,1.7,5.3,2.9C130.3,402.8,133.2,408.4,133.4,414.2L133.4,414.2z"/>
		</g>
	</g>
	<g>
		<g>
			<path fill="#FFFFFF" d="M402.7,394.8v6.8l0.3,64.8v0.3h-0.3l-40.5,0.2l-28.6-0.5h-0.1v-0.1l0.1-7.2l0,0c0.7-3.3,2.2-6.3,4.3-8.9
				c2.2-3,5.3-5.4,8.8-6.8c3.5-1.5,7.4-2,11.1-1.5l-0.3,0.2l0.1-0.3c0,0,0.5-1.2,1.6-2.9c1.1-1.7,2.8-3.9,5-5.7
				c2.2-1.9,4.8-3.4,7.3-4.5c2.5-1.2,5-1.9,7-2.9l0.3-0.1l-0.1-0.1c-0.4-0.3-0.9-0.6-1.4-0.9c-1.9-1-4.2-5.1-3.9-10.6
				c0.1-2.7,0.8-5.7,2.2-8.4c1.4-2.7,3.4-5.2,5.9-7.1c4.8-3.9,10.8-4.9,14.7-4.5c2,0.2,3.6,0.6,4.7,0.9c0.5,0.2,0.9,0.3,1.2,0.5
				c0.2,0.1,0,0,0,0c0-0.1,0-0.1,0-0.1c0,0.1,0,0.2,0.1,0.2c0,0-0.1,0-0.2,0l-0.5-0.1l-1.1-0.1c-0.7,0-1.5-0.1-2.2,0
				c-1.5,0.1-2.9,0.3-4.3,0.6c-2.8,0.7-5.3,2-7.4,3.8c-1.2,1-4.5,3.6-6.4,8.4c-1,2.3-1.5,5.1-1.4,8s0.9,5.8,2.3,8.3l2.1,3.8
				l-4.4,0.1c-2.7,0-5.4,0.7-7.6,1.7s-4.1,2.4-5.4,3.8c-1.4,1.3-2.3,2.7-2.8,3.6c-0.3,0.5-0.5,0.8-0.6,1.1c-0.1,0.3-0.2,0.4-0.2,0.4
				c-0.7,1.2-1.1,2.6-1.5,4l-0.7,2.4l-2.2-0.4c-4.7-0.8-9.8,0.2-13.8,2.9c-4,2.7-7.1,7-8.1,11.9v-0.4l-0.2,7.2l-1.7-1.7l21.7,0.5
				l47.4,0.5l-0.8,0.8L402.7,394.8z"/>
			<path fill="#FFFFFF" d="M401,468.8v-1.1l-38.7,0.2l-25.9-0.4v1.2l-1.3-1.3H333l-0.3,1.3v-1.3h-0.1l-0.1-1V465l-1.4-1.4h1.4
				l0.1-4.5h0.9l-0.9-0.2c0.7-3.4,2.3-6.6,4.5-9.3c2.4-3.1,5.5-5.6,9.2-7.1c3.3-1.4,6.9-2,10.7-1.7c0.3-0.5,0.7-1.4,1.4-2.5
				c0.8-1.3,2.5-3.7,5.2-5.9c2-1.8,4.6-3.4,7.6-4.7c1.2-0.6,2.5-1.1,3.6-1.5c0.7-0.3,1.4-0.5,2-0.8c-2.3-1.3-4.6-5.7-4.4-11.4
				c0.1-3,1-6.1,2.3-8.9c1.5-2.9,3.6-5.5,6.1-7.5c5.1-4.1,11.3-5.2,15.5-4.8c1.6,0.1,3.3,0.5,4.9,1c0.6,0.2,1,0.4,1.3,0.5
				c0.2,0.1,0.4,0.2,0.5,0.4h0.7v6.8l0.3,63.1h1.1l-1.1,1.1v2h-2L401,468.8z M336.4,463.7l19,0.4l45.6,0.5l0.7-68.2l-1.4-0.1
				c-0.7,0-1.4,0-2,0c-1.4,0.1-2.8,0.3-4,0.6c-2.6,0.7-5,1.9-7.1,3.6l-0.2,0.1c-1.3,1.1-4.2,3.6-6,7.8c-1,2.2-1.4,4.9-1.4,7.6
				c0.1,2.7,0.8,5.5,2.1,7.9l2.8,5.3l-6,0.1c-2.5,0-5,0.6-7.2,1.6c-1.8,0.8-3.6,2.1-5.1,3.6c-1.2,1.2-2,2.3-2.7,3.4l-0.8,1.4
				c-0.7,1.3-1.1,2.6-1.5,3.8l-1,3.2l-3.1-0.5c-4.6-0.8-9.4,0.2-13.1,2.8c-3.8,2.6-6.6,6.6-7.7,11L336.4,463.7z M355.1,442.8
				c-2.8,0-5.6,0.5-8.1,1.6c-2.7,1.1-5.1,2.8-7,4.9c0.9-0.9,1.9-1.7,3-2.4c3.7-2.6,8.5-3.7,13.1-3.3l0.2-0.8
				C356,442.8,355.5,442.8,355.1,442.8z M357.1,443.7c0.2,0,0.3,0.1,0.5,0.1l1.4,0.2l0.5-1.5c0-0.2,0.1-0.3,0.1-0.5L357.1,443.7z
				 M359.1,441.1l0.7,0.1c0.3-0.9,0.7-1.9,1.2-2.9l0.3-0.6c-0.5,0.7-0.9,1.3-1.2,1.8C359.7,440.1,359.4,440.7,359.1,441.1z
				 M380.6,425.8l-1.6,0.8c-0.4,0.2-0.9,0.4-1.4,0.6c0.3,0,0.6,0,0.9,0h2.7L380.6,425.8z M393.7,394.9c-3.4,0.2-7.9,1.4-11.6,4.4
				c-2.3,1.8-4.2,4.2-5.6,6.8c-1.3,2.5-2,5.3-2.1,8c-0.2,5,1.8,8.8,3.4,9.6c0.5,0.3,1,0.6,1.5,1l1.1,0.8l-0.4-0.7
				c-1.5-2.7-2.3-5.7-2.4-8.8c-0.1-3,0.4-5.9,1.5-8.4c1.9-4.7,5.1-7.4,6.5-8.6l0.2-0.1C388.1,397,390.8,395.7,393.7,394.9
				L393.7,394.9z M402.3,394.8h0.7c-0.1-0.1-0.2-0.2-0.3-0.2l0.3,0.2c-0.1-0.2-0.4-0.3-0.7-0.4V394.8z"/>
		</g>
	</g>
	<g>
		<g>
			<path fill="#FFFFFF" d="M126.4,308.7l-0.6,0.2c0.1,6.9,0.3,20.1,0.3,20.1s-0.7,28.2-0.7,31.6s0.7,33.6,0.7,37.6l0.3-14.1
				c0,0,0-14.8,0-18.1s0.5-11.4,0.5-11.4l0.5-21.5l-1-23.5L126.4,308.7z"/>
			<path fill="#FFFFFF" d="M127.1,398.2h-2c0-2.1-0.2-11.3-0.4-20.2c-0.2-8.1-0.3-15.8-0.3-17.4c0-3.3,0.6-30.4,0.7-31.6
				c0,0-0.2-13.2-0.3-20.1v-0.7l2.6-0.9v2.2l1,23.5l-0.5,21.5c0,0.1-0.5,8.1-0.5,11.4V384L127.1,398.2z"/>
		</g>
	</g>
</g>
</svg>
