<?xml version="1.0" encoding="utf-8"?>
<!-- Generator: Adobe Illustrator 23.0.0, SVG Export Plug-In . SVG Version: 6.00 Build 0)  -->
<svg version="1.1" xmlns="http://www.w3.org/2000/svg" xmlns:xlink="http://www.w3.org/1999/xlink" x="0px" y="0px"
	 viewBox="0 0 512 512" enable-background="new 0 0 512 512" xml:space="preserve">
<g id="Layer_2" display="none">
	<rect display="inline" fill="#212121" width="512" height="512"/>
</g>
<g id="Layer_1">
	<g>
		<g>
			<g>
				<g>
					<path fill="#3D3D3D" d="M289.3,53.6c-2.2-2.7-4.9-5-7.7-7c-2.9-2-6.1-3.5-9.4-4.7l-2.5-0.7c-0.4-0.1-0.8-0.2-1.3-0.3l-1.3-0.2
						c-0.9-0.1-1.7-0.3-2.6-0.4l-2.6-0.2c-0.4,0-0.9-0.1-1.3-0.1l-1.3,0c-0.9,0-1.8,0-2.6,0.1c-1.7,0.3-3.5,0.4-5.2,0.9
						c-9.4,2.3-17.9,8.3-23.1,16.5c-5.1,8.7-6.4,19.3-3.9,28.6c1.5,7.7,5.4,15.1,11.3,20.4c1.3,1.3,2.8,2.3,4.2,3.4
						c1.6,0.9,3.1,1.9,4.7,2.7c1.6,0.9,3.3,1.4,5,2c1.8,0.4,3.5,1,5.3,1.2c4.7,0.2,9.4-0.5,13.7-1.9c4.5-0.4,9.1-1.7,13.2-3.9
						c5.1-3.5,9.3-8.1,12.2-13.6c2.9-5.4,4.4-11.6,4.4-17.7c-0.4,4-1.3,7.8-2.8,11.4c-1.5,3.6-3.7,6.8-6.1,9.7
						c-4.9,5.7-11.7,9.5-18.7,11c-9.9,3-21.2,1.4-29.5-4.8c-2.9-1.9-5.5-4.3-7.7-7.1c-2.2-2.7-4-5.8-5.2-9.1c-2.5-6.6-2.9-14.1-1-21
						c1-4.6,3-9,5.8-13c2.8-3.9,6.5-7.3,10.7-9.9c8.9-3.7,18.8-3.6,27.1-0.1c7,2,13.5,6.1,18.1,12c2.3,2.9,4.2,6.2,5.5,9.7
						c1.3,3.5,2,7.3,2.2,11.1c0.3-4,0-8.1-1-12c-0.3-1-0.5-2-0.9-3l-1.1-2.9l-1.4-2.8c-0.5-0.9-1.1-1.8-1.6-2.7"/>
				</g>
			</g>
		</g>
		<g>
			<g>
				<g>
					<path fill="#3D3D3D" d="M370.3,72.8c-4.5-5.3-10.5-9.4-17.1-11.6c-6.7-2.2-14-2.6-20.9-1c-9.4,2.3-17.9,8.3-23.2,16.5
						c-5.1,8.7-6.4,19.3-3.9,28.6c1.5,7.7,5.4,15.1,11.3,20.4c1.3,1.3,2.8,2.3,4.2,3.4c1.6,0.9,3.1,1.9,4.7,2.7c1.6,0.9,3.3,1.4,5,2
						c1.8,0.4,3.5,1,5.3,1.2l1.8,0.1c0.6,0,1.2-0.1,1.8-0.1c1.2-0.1,2.3-0.1,3.5-0.3c2.3-0.3,4.5-0.9,6.7-1.6
						c4.5-0.4,9-1.8,13.2-3.9c2.6-1.7,4.9-3.8,7-6c1-1.1,2-2.4,2.9-3.6c0.9-1.2,1.7-2.6,2.4-3.9c2.9-5.4,4.4-11.6,4.4-17.7
						c-0.7,8-3.9,15.5-8.9,21.1c-5,5.7-11.7,9.5-18.7,11c-2.5,0.8-5,1.2-7.6,1.4c-1.3,0.1-2.6,0.1-3.9,0l-1.9-0.1l-1.9-0.3
						c-5.1-0.8-10-2.8-14.2-5.8c-2.9-1.9-5.5-4.3-7.7-7.1c-2.2-2.7-4-5.8-5.2-9.1c-2.5-6.6-2.9-14.1-1-21c1-4.6,3-9,5.8-13
						c2.8-3.9,6.5-7.3,10.7-9.9c8.9-3.7,18.9-3.6,27.1-0.1c7,1.9,13.5,6.2,18.1,12c4.6,5.8,7.4,13.2,7.7,20.9
						c0.7-8-1.4-16.4-6.1-23.4"/>
				</g>
			</g>
		</g>
		<g>
			<g>
				<g>
					<path fill="#3D3D3D" d="M370.2,120.1c-0.5,0.6-1,1.2-1.5,1.8c-0.4,0.4-0.7,0.8-1.1,1.2l-0.1,0.1l-0.3,0.4l0.4-0.1l1.5-0.4
						l1.3-0.2l1.2-0.2l0.1,0l0.1,0l0-0.1l-0.2-0.7l0-0.9l-0.3-2.1c0.1,1,0.2,2,0.2,2.8l0.1,0.8l0.1-0.2l-1.1,0.2l-2.6,0.6l-0.4,0.1
						l0,0.1l0.8-1c0.4-0.4,0.8-0.8,1.2-1.2c0.6-0.7,1.1-1.5,1.6-2.2C370.9,119.3,370.6,119.7,370.2,120.1"/>
				</g>
			</g>
		</g>
		<g>
			<g>
				<g>
					<path fill="#3D3D3D" d="M409.2,109.5c1.4-2,2.7-4.2,3.5-6.5c0.8-2.3,1.4-4.8,1.5-7.3c0.1-0.6,0-1.2,0-1.9c0-0.6,0-1.3-0.1-1.9
						l-0.2-1.9l-0.3-1.7c-0.5-2.4-1.1-4.9-2.3-7.2c-3.1-6.2-8.8-11-15.3-13.1c-3.5-0.9-7.1-1-10.6-0.5c-1.8,0.3-3.3,0.7-5,1.1
						l-4.8,1.2l-8.3,1.4l-1.6,0.3l1.1,1.2c1.8,1.8,3.3,3.9,4.6,6c2.6,4,4.3,8.6,5.1,13.3c0.9,3,1.3,6.2,1.4,9.4
						c-0.7,3.2-1.8,6.2-3.3,8.9c-0.3,0.8-0.6,1.6-1,2.3l-0.3,0.5l0.3,0.5l5.5,7.6l0.4,0.5l0.6-0.1l12.9-2.5l-13.1,1.3l0.2,0.1
						l-4.9-8.1l0.1,1c1.7-3,3.1-6.2,3.9-9.6c1.4-8.2,0-16.8-3.9-24.1c-1.9-3.3-4.2-6.3-6.9-8.9l-0.8,2.6l10.3-2.2l5.1-1.1
						c1.7-0.4,3.3-0.6,5-0.7c6.6-0.6,13.6,2.1,18.6,7.1c2,2.7,3.4,5.9,4.1,9.1c0.2,0.8,0.3,1.6,0.4,2.4c0.1,0.8,0.2,1.7,0.2,2.5
						c0,0.8,0.1,1.6,0.1,2.4c-0.1,0.8,0,1.6-0.2,2.4c0.1,5.1-1.8,10.3-5.1,14.4c-3.3,4.2-8,7.1-13.3,8.3c5.6-0.6,11.2-3.3,15.3-7.6"
						/>
				</g>
			</g>
		</g>
		<g>
			<g>
				<g>
					<path fill="#3D3D3D" d="M410.2,159.4l-21.9-31.4l-11.7-16.1l-2.5-3.5l-1.8,3.9c-0.8,1.8-1.8,3.4-2.9,5l-0.1,0.2l-0.6,1l0.2,0.8
						l5.3,26.5l2.7,22l2.8,20l3.4,12.8c0,1.1,0,2.2,0.1,3.3c0.1,1.1,0.7,2.3,1.6,3.1c0.9,0.8,2.1,1.4,3.4,1.5
						c1.3,0.1,2.7-0.3,3.9-1.1c0.2-0.1,0.4-0.3,0.5-0.4l0.4-0.4l0.8-0.8l1.5-1.5l3-3l6.1-6.1l12.1-12.1l-17.1,14.3l-8.5,7.2
						c-0.2,0.1-0.4,0.3-0.5,0.4c-0.1,0.1-0.3,0.2-0.4,0.3c-0.3,0.1-0.6,0.2-0.8,0.3c-0.6,0.1-1.2,0-1.7-0.2
						c-1.1-0.4-1.7-1.4-1.7-2.3l-4.5-31.8l-7.2-42.8l-2.1-9.7l-0.1,0.5c1.2-1.9,2.2-3.9,3-5.9l-0.4,0l7.6,9.1l14.1,23.4l13.7,17.5
						l3.4,4.4l1.7,2.2c0.6,0.8,1.1,1.4,1.5,2.2c0.8,1.5,1.2,3.3,0.9,5.1c-0.2,1.8-1,3.4-2.3,4.8c1.4-1.2,2.5-3,3-4.9
						c0.4-2,0.2-4.1-0.7-6c-0.5-1-1-1.8-1.5-2.6l-1.5-2.5l-3-5"/>
				</g>
			</g>
		</g>
		<g>
			<g>
				<g>
					<path fill="#3D3D3D" d="M409.5,367.8c-3-11.1-6.3-22.1-9.9-33c-3.7-10.9-7.7-21.7-12.1-32.3c-4.3-10.7-9.1-21.2-14.1-31.5
						c-2.5-5.2-5.2-10.3-7.8-15.4l-7.9-15.1l-8.1-14.6l-2.9-5.3l-6,0.8l-53.6,6.8l-8.9,1.1l1.2,8.9l0.2,1.6l1.8-6.6l-12.6,16.5
						l-6.8,10c-2.3,3.4-4.6,6.8-6.8,10.2c-4.5,6.9-8.8,13.8-12.9,20.8c-8.3,14-16,28.4-23.1,43c-6.6,11.4-12.8,23.1-18.7,35
						c-5.8,11.8-11.2,24-16.3,36.2L171,438.2l-1.7,4.2l-0.8,2.1c-0.1,0.3-0.4,1-0.5,1.5c-0.2,0.6-0.3,1.1-0.4,1.7
						c-0.4,2.3-0.1,4.8,0.8,6.9c0.9,2.2,2.4,4.1,4.2,5.5c0.5,0.4,1,0.7,1.5,1c0.5,0.3,1,0.6,1.6,0.8c0.6,0.2,1.1,0.4,1.7,0.5
						l0.9,0.2l0.6,0.1l4.4,0.8l8.8,1.6l11.7,0.7c3.9,0.2,7.9,0.4,11.8,0.6c2,0.1,3.9,0.1,5.9,0.2l5.9,0.1c2,0.1,3.9,0,5.9,0l5.9,0
						c15.2,3.4,30.7,6,46.5,7.7c10.3-0.1,20.5-0.5,30.8-1.4c10.2-0.8,20.4-2,30.6-3.5c5.1-0.8,10.1-1.6,15.2-2.6
						c2.5-0.5,5-0.9,7.6-1.5l7.5-1.7c2.5-0.5,5-1.2,7.5-1.8l7.5-1.9l14.7-3.9c-13,2.2-26.1,4.6-39.2,6.1
						c-13.1,1.5-26.3,2.4-39.4,2.7c-26.2,0.6-52.3-1.3-77.8-5.6l-7-0.6c-2.3-0.2-4.6-0.5-7-0.7c-2.3-0.3-4.7-0.5-7-0.8l-6.9-1
						c-2.3-0.3-4.6-0.7-6.9-1.1l-6.9-1.1l-14.1-2.5l-13.7-2.5c0.4,0.1,0.5,0.4,0.4,0.8l10.6-26.5l6.7-18.1c2.2-6,4.5-11.9,6.8-17.7
						c4.8-11.7,9.9-23.3,15.4-34.7c11.1-22.8,23.7-45,37.7-66.2c4.8-8.1,9.9-15.9,15.1-23.8l15.6-23.7l0.2-0.4l-0.1-0.3l-0.3-1.6
						l-0.7,0.9l41.4-8.2l12-0.5l0.8,0l0.3,0.6l8.6,19.4c2.9,6.5,5.8,13,8.6,19.4c5.5,13,10.5,26.1,15,39.4
						c11.2,23.5,20.6,47.8,28.2,72.8c3.8,12.5,7.1,25.1,10,37.9l2.2,9.6l0.5,2.4c0.2,0.8,0.4,1.6,0.5,2.3c0.3,1.5,0.3,3,0.2,4.5
						c-0.3,3-1.6,5.9-3.5,8.3c-1,1.2-2.1,2.2-3.4,3.1c-1.3,0.8-2.7,1.5-4.2,2c3.2-0.6,6.4-2.2,8.9-4.6c2.5-2.4,4.2-5.8,4.9-9.3
						c0.3-1.8,0.3-3.7,0.1-5.5l-0.5-5.1l-1.1-10.3c-1.5-13.8-3.5-27.5-6-41.2"/>
				</g>
			</g>
		</g>
		<g>
			<g>
				<g>
					<path fill="#3D3D3D" d="M356,189.7c1.3-5.7,1.2-11.7-0.3-17.5c-1.5-5.7-4.3-11.1-8.2-15.6c-3.9-4.5-8.9-8-14.5-10.3
						c-0.7-0.3-1.4-0.5-2.1-0.8L329,145l-3.8-1.3l-7.6-2.6l-42.1-13.6l-44.5-11.7l-17.7-6.1l-4.4-1.5l-2.2-0.8
						c-0.9-0.3-1.8-0.5-2.7-0.6c-1.8-0.2-3.7-0.1-5.5,0.4c-1.8,0.5-3.5,1.4-4.9,2.5c-2.6,2.1-4.4,5.2-5,8.6
						c-0.6,3.3,0.1,6.9,1.9,9.8c0.4,0.7,1,1.4,1.5,2c0.3,0.3,0.6,0.6,0.9,0.9c0.3,0.3,0.6,0.6,1,0.8c0.7,0.5,1.4,1,2.1,1.4l1.9,1
						l7.6,3.9l20.8,7.9l18.4,12.5l51.4,26.7l-63.4-40.3l-24.2-12.6l-6-3.1l-3-1.6l-0.4-0.2l-0.2-0.1c-0.2-0.1-0.3-0.2-0.5-0.3
						c-0.3-0.2-0.6-0.4-0.8-0.7c-1.2-1.1-1.9-2.3-2.3-3.7c-0.4-1.4-0.4-2.9,0.1-4.3c0.5-1.9,1.8-3.6,3.6-4.6c1.7-1,3.9-1.3,5.9-0.8
						l17.5,5.1l35.1,10.3l46.4,11.6l21.3,8.9l5.3,2.2c1.7,0.8,3.3,1.6,4.8,2.7c3,2,5.7,4.5,7.8,7.3c4,4.1,6.9,9.3,8.2,15
						c0.6,2.8,1,5.8,0.8,8.7c0,1.5-0.2,2.9-0.5,4.4c-0.1,0.7-0.3,1.4-0.5,2.2l-0.6,2.3l-8.8,36.4l0,0.1l0.1,0.1l0,0.1l0-0.1
						l-0.1-0.1l0-0.1l13.7-36.7"/>
				</g>
			</g>
		</g>
		<g>
			<g>
				<g>
					<polyline fill="#3D3D3D" points="280.4,181.8 281.6,192.7 282.6,200.2 284,207.8 284.8,214.1 285.5,219.9 286.5,223.5 
						286.5,227.3 287.8,237 287.3,224.3 286,215.1 284.1,202.9 282.4,194.9 282.1,187.1 280,174.6 280.3,181.3 					"/>
				</g>
			</g>
		</g>
		<g>
			<g>
				<g>
					<path fill="#3D3D3D" d="M163.8,142.2L143.2,181l-0.1,0.2l-0.2,0.4c-2.1,5.1-2.6,11-1.3,16.4c1.3,5.4,4.3,10.5,8.7,14.2
						c2.2,1.8,4.6,3.4,7.2,4.5c2.6,1.1,5.4,1.8,8.3,2c2.8,0.3,5.7,0,8.5-0.6c1.4-0.3,2.8-0.7,4.1-1.3l3-1.2c1-0.4,1.7-0.7,3.2-1.4
						c1.3-0.6,2.6-1.4,3.7-2.2c2.4-1.7,4.5-3.7,6.2-6c0.4-0.6,0.9-1.2,1.2-1.8c0.2-0.3,0.4-0.6,0.6-0.9l0.5-0.9l1.5-2.7l2.9-5.3
						l11.7-21.2l2.6-4.9l-17.4-4.9l-1.5,22.6l-0.7,11.3l-0.4,5.6l-0.2,2.6l-0.3,2.6c-1.6,13.9-5.9,27.4-12.5,39.7L139,337.9
						l-40.9,70.5l-4.6,8.2c-1.7,3.2-2.8,6.5-3.6,9.9c-0.7,3.4-1.2,7-0.8,10.8c0.2,1.9,0.6,3.8,1.2,5.7c0.7,1.9,1.6,3.8,2.9,5.5
						c1.3,1.7,2.9,3.2,4.6,4.3c1.7,1.1,3.6,2,5.4,2.5c0.9,0.3,1.8,0.5,2.7,0.7c0.9,0.2,1.8,0.3,2.7,0.4c0.9,0.1,1.8,0.2,2.7,0.2
						l1.3,0c0.4,0,0.8,0,1.4,0c4-0.1,7.7-1.3,10.9-2.8c3.2-1.5,6.1-3.4,8.8-5.4c6.3-6,11.2-12.7,15.7-19.5c4.5-6.8,8.5-13.9,12.3-21
						c10.7-12.1,20.6-25,30.2-38.1c7.6-13.4,14.7-27,21.6-40.8c6.9-13.8,13.5-27.6,19.7-41.7l-9.6-1.7l2.1,34.1l0.9-34.3l3.8,0.7
						c-10.5,18.9-21.6,37.4-33.1,55.5c-11.6,18.1-23.7,35.8-36.7,52.4c-5.3,8.1-10.8,16-16.7,23.4c-2.9,3.7-6,7.3-9.1,10.6
						c-3.2,3.3-6.4,6.4-9.8,9c-1.7,1.2-3.4,2.4-5,3.2c-1.6,0.9-3.2,1.5-4.6,1.8c-0.3,0-0.6,0.1-1,0.2c-0.3,0-0.6,0-0.9,0.1
						c-0.1,0-0.4,0-0.6,0l-0.7,0c-0.5,0-0.9,0-1.3-0.1c-1.7-0.2-3.3-0.5-4.3-1c-1.1-0.5-1.7-1-2.2-1.6c-0.5-0.6-0.9-1.5-1.1-2.8
						c-0.5-2.6-0.1-6.5,1.1-10c0.4-1.2,0.8-2.4,1.3-3.4l0.4-0.8l0.6-1.1l1.2-2.2l4.6-8.8l9.2-17.7l18.4-35.3l36.9-70.7l11.1-23.5
						l2.8-5.9l1.4-2.9l1.4-3c1.8-4,3.3-8.2,4.6-12.4c2.6-8.4,4.3-17,5-25.6c0.4-4.3,0.5-8.6,0.4-12.9l-0.1-13l3.6-23.9l0.2,0
						l-20.6,32.1l-0.6,1c-0.2,0.3-0.4,0.5-0.6,0.8c-0.4,0.5-0.8,1-1.3,1.5c-0.9,0.9-1.9,1.7-3,2.4c-1.1,0.7-2.2,1.1-3.5,1.6
						l-2.3,0.8l-1.1,0.4l-0.6,0.2l-0.3,0.1l-0.2,0.1c-4.6,1.4-9.6,0.3-12.8-2.6c-2.6-1.5-4.6-3.9-5.7-6.8c-1.1-2.9-1.2-6.2-0.1-9.2
						l-0.2,0.5l21.7-47l0.1-0.3l0,0c1.1-3,3.3-5.6,6.2-7.1c2.9-1.5,6.5-1.8,9.7-0.8c3.2,1,6.1,3.3,7.8,6.5c1.7,3.1,2.1,6.9,1.1,10.4
						l0.1-0.2l-13.8,32.5l17.6-30.8l0.1-0.2c1.8-4.3,1.9-9.5,0-14.2c-1.8-4.6-5.6-8.6-10.4-10.7c-2.4-1.1-5-1.7-7.7-1.7
						c-2.7-0.1-5.4,0.4-8,1.4c-5.1,1.9-9.6,6-12.1,11.2l0.2-0.5l-0.3,0.4"/>
				</g>
			</g>
		</g>
		<g>
			<g>
				<g>
					<polyline fill="#3D3D3D" points="256.1,183 250.3,209.1 246.7,227 246.3,229.7 247,228.7 234.2,238.6 221.3,247.1 209.8,255 
						202.8,261.1 194.7,265.3 175,278.8 202,263.6 220.5,250.9 245,233.2 248.3,230.6 248.5,230.4 248.6,230.2 250.5,214.8 
						255.8,196.6 260.8,166.1 256.4,181.7 					"/>
				</g>
			</g>
		</g>
		<g>
			<g>
				<g>
					<polyline fill="#3D3D3D" points="260.5,268.7 258.2,261 256.6,255.8 254.6,250.5 253.3,246 252,242 250.9,239.5 250.3,236.8 
						248.2,230 250.2,239 252.2,245.5 255.2,254 257.3,259.5 258.6,265.1 261.7,273.8 260.6,269.1 					"/>
				</g>
			</g>
		</g>
	</g>
</g>
</svg>
