<?xml version="1.0" encoding="utf-8"?>
<!-- Generator: Adobe Illustrator 23.0.0, SVG Export Plug-In . SVG Version: 6.00 Build 0)  -->
<svg version="1.1" xmlns="http://www.w3.org/2000/svg" xmlns:xlink="http://www.w3.org/1999/xlink" x="0px" y="0px"
	 viewBox="0 0 512 512" enable-background="new 0 0 512 512" xml:space="preserve">
<g id="Layer_2" display="none">
	<rect display="inline" fill="#212121" width="512" height="512"/>
</g>
<g id="Layer_1">
	<g>
		<g>
			<g>
				<g>
					<path fill="#3D3D3D" d="M131.4,185.4c1.9,2,9.2,9.2,18.9,19.2c9.7,9.9,21.8,22.6,33.1,35.1c11.4,12.5,22.2,24.8,29.9,34
						c7.8,9.2,12.7,15.1,12.7,15.1c17.8,18.9,35.2,37.7,52.1,56.3l4.4,4.8l-5.8,2.3l-69.6,27.9l64.8-38.5l-2.2,11.7l-20.7-16.5
						c-22.4-23.6-44.4-47.6-66.7-72.2C169,238.2,151.5,211.3,131.4,185.4z"/>
					<path fill="#3D3D3D" d="M239,336.1c8.4,7.3,17,14.7,25.9,22.2l4.3-23.1L79.8,439.5l-43.3,19.4l-8.1,3.6l3.3-8.2
						c14-34.5,28-69,42.2-103.4c20.9-48.7,41.5-96.9,61.6-144.9c0,0-1,3.1-2.9,8.6c-1.8,5.5-4.4,13.4-7.3,22.9
						c-6,18.9-13.4,44.2-20.2,69.3c-6.8,25.1-13.1,49.9-18.1,69c-5.1,19.2-9.1,32.9-11.2,36.7c-3.1,5.6-12.2,25.9-23.4,50.3
						l-25.1-24.2c41.1-16.3,90.9-36.6,90.9-36.6l149.9-69.2l-5.1,27.4C254.9,352.1,246.9,344.1,239,336.1z"/>
				</g>
			</g>
		</g>
		<g>
			<g>
				<g>
					<path fill="#3D3D3D" d="M124.6,234.7c0.8,0.5,11.4,6.5,11.4,6.5l14.2,6.6l-10.4-3l-9.8-4.3L124.6,234.7z"/>
					<path fill="#3D3D3D" d="M138.6,245.1l25.3,8.2l15.3,6.4l15.1,6.6l-0.1,0l0,0c0,0,0,0,0,0l0.1,0c-0.1,0-4.9-1.4-10-2.7
						c-5-1.4-10.2-3-11.1-3.4c-1.7-1-15-7.1-15-7.1L138.6,245.1z"/>
				</g>
			</g>
		</g>
		<g>
			<g>
				<g>
					<path fill="#3D3D3D" d="M112.7,264.2c1.7,1.1,23.6,13.4,23.6,13.4l29.4,13.7l-21.5-6.2l-20.4-8.9L112.7,264.2z"/>
					<path fill="#3D3D3D" d="M141.7,285.7l52.4,17l31.6,13.3l31.4,13.7l-0.1,0l0,0c0,0,0,0,0,0l0.1,0c0,0-2.6-0.7-6.4-1.7
						c-3.8-1.1-8.9-2.5-14.2-3.9c-10.4-2.9-21.3-6.1-23.1-7.2c-3.6-2.1-31-14.7-31-14.7L141.7,285.7z"/>
				</g>
			</g>
		</g>
		<g>
			<g>
				<g>
					<path fill="#3D3D3D" d="M247.8,364.1c-1.8-1.1-24.3-13.8-24.3-13.8l-30.2-14.1l22.1,6.4l21,9.2L247.8,364.1z"/>
					<path fill="#3D3D3D" d="M218,342l-53.8-17.5l-32.5-13.6l-32.3-14.1c0,0,41.2,11.1,44.9,13.2c3.7,2.1,31.9,15.1,31.9,15.1
						L218,342z"/>
				</g>
			</g>
		</g>
		<g>
			<g>
				<g>
					<path fill="#3D3D3D" d="M205.3,382.4c-1.4-0.9-19.4-11-19.4-11l-24.1-11.3l17.7,5.1l16.8,7.3L205.3,382.4z"/>
					<path fill="#3D3D3D" d="M181.4,364.7l-43.1-14l-26-10.9l-25.8-11.3c0,0,33,8.9,35.9,10.6c3,1.7,25.5,12.1,25.5,12.1
						L181.4,364.7z"/>
				</g>
			</g>
		</g>
		<g>
			<g>
				<g>
					<path fill="#3D3D3D" d="M169.9,397.6c-1.1-0.7-15.4-8.7-15.4-8.7l-19.1-8.9l14,4.1l13.3,5.8L169.9,397.6z"/>
					<path fill="#3D3D3D" d="M151,383.6l-34.1-11.1l-20.6-8.6l-20.5-8.9c0,0,26.1,7,28.5,8.4c2.3,1.3,20.2,9.6,20.2,9.6L151,383.6z"
						/>
				</g>
			</g>
		</g>
		<g>
			<g>
				<g>
					<path fill="#3D3D3D" d="M127.4,415.9c-0.8-0.5-10.5-6-10.5-6l-13.1-6.1l9.6,2.8l9.1,4L127.4,415.9z"/>
					<path fill="#3D3D3D" d="M114.5,406.3l-23.4-7.6L77,392.8l-14-6.1c0,0,17.9,4.8,19.5,5.7c1.6,0.9,13.8,6.5,13.8,6.5L114.5,406.3
						z"/>
				</g>
			</g>
		</g>
		<g>
			<g>
				<g>
					<path fill="#3D3D3D" d="M85.7,433.8c-0.4-0.3-5.8-3.3-5.8-3.3l-7.2-3.4l5.3,1.5l5,2.2L85.7,433.8z"/>
					<path fill="#3D3D3D" d="M78.6,428.5l-12.8-4.2l-7.7-3.2l-7.7-3.4c0,0,9.8,2.6,10.7,3.1c0.9,0.5,7.6,3.6,7.6,3.6L78.6,428.5z"/>
				</g>
			</g>
		</g>
		<g>
			<g>
				<g>
					<path fill="#3D3D3D" d="M239.9,51.3c0.3,1,1.1,3.4,1.6,6.9c0.4,3.5,0.5,8-0.7,12.9c-0.6,2.4-1.5,5-2.7,7.5
						c-1.2,2.5-2.9,5-4.8,7.1c-1.9,2.1-4,4-6.2,5.5c-2.1,1.5-4.3,2.8-6.4,3.9c-2.1,1.1-4.1,2.1-6,2.9c-1.9,0.9-3.8,1.8-5.7,2.6
						c-3.8,1.7-7.5,3.1-10.8,4.1c-3.3,1-6.1,1.6-8.1,1.8c-1,0.1-1.8,0.2-2.3,0.3c-0.5,0-0.8,0.1-0.8,0.1c-1.9,0.2-4,0.4-6,0.3
						c-2-0.1-4-0.3-6-0.8c-2-0.4-3.9-1.1-5.7-1.9c-1.9-0.8-3.6-1.9-5.3-3.1c-1.7-1.2-3.1-2.7-4.4-4.3c-1.3-1.6-2.3-3.5-3-5.5
						c-0.7-2-1.1-4.1-1-6.3c0.1-2.2,0.6-4.4,1.8-6.4c1.2-2,3-3.5,5-4.4c1.9-0.9,4-1.3,5.9-1.5c2-0.2,3.9,0,5.7,0.2
						c1.9,0.2,3.7,0.6,5.5,1.2c7.2,2.1,13.5,6.2,18.6,11.2c-2-1.5-4.2-2.7-6.3-3.9c-2.2-1.1-4.4-2-6.8-2.7c-2.3-0.7-4.6-1.2-7-1.4
						c-1.2-0.2-2.3-0.2-3.5-0.2c-0.6,0-1.2,0-1.7,0.1c-0.6,0-1.1,0-1.7,0.1c-2.2,0.3-4.3,0.9-5.8,1.8c-1.5,1-2.2,2.2-2.4,3.5
						c-0.2,1.3,0.1,3,0.7,4.4c0.6,1.4,1.7,2.8,3,3.9c2,2.6,5.4,4.5,9.2,5.5c1.9,0.5,3.9,0.7,5.8,0.7c1.9,0,4-0.3,6-0.8
						c4.1-0.9,8.2-2.7,12.3-4.8c2.1-1.1,4.1-2.2,6.2-3.4c2.1-1.2,4.2-2.5,6.1-3.7c3.4-0.4,6.7-1,10.1-2.1c1.7-0.6,3.3-1.3,4.9-2.3
						c1.6-1,3.2-2.2,4.6-3.6c2.9-2.9,5.3-6.6,6.8-10.9C239.9,61.6,240.6,56.6,239.9,51.3z"/>
					<path fill="#3D3D3D" d="M171.4,90.6c-1.5-0.7-2.7-1.6-3.5-2.7c-0.5-0.6-0.7-1-1-1.6c-0.2-0.5-0.3-1.1-0.4-1.4
						c0-0.2-0.1-0.3-0.1-0.4c0-0.1-0.1-0.1-0.1-0.2c0-0.1,0-0.4,0.4-0.7c0.8-0.7,2.9-1.3,5.2-1.4c4.8-0.3,9.9,0.9,14.7,3.1
						c4.8,2.3,9.4,5.6,13.3,9.6c3.9,4,7.4,8.7,9.9,13.8c2.4,5.1,3.9,10.9,3.5,16.7c-0.3,2.9-0.9,5.8-2.2,8.6
						c-1.2,2.7-2.9,5.3-5.1,7.5c-1.1,1.1-2.3,2.1-3.6,2.9c-1.3,0.8-2.8,1.6-4.3,2.1c-3,1.1-6.2,1.5-9.2,1.9
						c-1.9,0.1-3.7,0.2-5.5,0.4c-1.8,0.2-3.8,0.4-5.8,0.4c-2,0-4.1-0.1-6.3-0.8c-2.1-0.7-4.1-2-5.5-3.8c-1.4-1.8-2.3-3.9-2.7-6
						c-0.4-2.1-0.4-4.3,0.1-6.4c0.5-2.1,1.4-4.2,2.7-5.9c1.3-1.7,2.9-3.1,4.7-4.2c3.6-2.2,7.7-3.2,11.7-3.4
						c4.1-0.1,8.1,0.7,11.8,1.9c3.7,1.2,7.2,2.9,10.6,4.5c3.4,1.7,6.9,3.4,10.1,5.9c3.1,2.6,5.8,6,6.9,10.2c0.5,2.1,0.6,4.3,0.1,6.4
						c-0.5,2.1-1.5,4.1-2.7,5.7c-2.5,3.3-5.7,5.6-8.6,7.9c-3,2.2-5.7,4.6-8.1,7.4c-9.7,11-14.2,26.5-11.7,41.1c0,0-0.1-0.4-0.3-1.2
						c-0.2-0.8-0.6-1.9-0.9-3.3c-0.7-2.9-1.4-7.2-1.2-12.6c0.1-1.3,0.1-2.8,0.3-4.2c0.1-0.7,0.2-1.5,0.3-2.2
						c0.1-0.7,0.3-1.5,0.4-2.3c0.1-0.4,0.1-0.8,0.2-1.2c0.1-0.4,0.2-0.8,0.3-1.2c0.2-0.8,0.4-1.6,0.6-2.4c0.5-1.6,1-3.3,1.7-4.9
						c0.6-1.7,1.4-3.3,2.3-4.9c0.9-1.6,1.8-3.3,2.9-4.9c0.5-0.8,1.1-1.6,1.7-2.4c0.6-0.8,1.2-1.6,1.8-2.3c0.7-0.7,1.3-1.5,2-2.2
						c0.7-0.7,1.3-1.4,2-2.1c2.6-2.6,4.9-5,6.1-7c1.2-2.1,0.9-3.2,0.5-3.9c-0.4-0.8-1.4-2-2.7-2.9c-1.3-0.9-3.1-1.8-5.3-2.7
						c-1.1-0.4-2.2-0.9-3.4-1.3c-1.2-0.4-2.4-0.9-3.5-1.3c-2.2-0.8-4-1.3-5.5-1.8c-3-0.8-4.7-1-5.5-1.3c-0.4-0.1-1-0.3-1.6-0.4
						c-0.6-0.1-1.3-0.2-2.1-0.2c-0.8,0-1.7,0.1-2.5,0.3c-0.8,0.2-1.6,0.5-2.1,0.8c-0.2,0.2-0.5,0.3-0.7,0.5
						c-0.1,0.1-0.1,0.1-0.1,0.1c0,0-0.1,0-0.1,0c0,0-0.1,0.1-0.2,0.2c-0.1,0.1-0.2,0.4-0.3,0.7c-0.1,0.3-0.1,0.6-0.1,0.8
						c0,0.2,0,0.4,0,0.5c0,0-0.1,0-0.3,0c-0.2-0.1-0.2,0,0,0.1c0.2,0.1,0.7,0.2,1.5,0.3c1.5,0.1,3.9,0,6.8-0.2
						c3-0.1,5.5-0.1,7.6-0.2c2-0.1,3.6-0.2,4.7-0.5c1.1-0.3,2.1-0.7,3-1.3c1.9-1.1,3.2-2.8,4-4c0.8-1.2,1.2-2,1.2-2
						c0.7-1.5,1.1-3.1,1.4-4.7c0.2-1.5,0.3-3.3,0.1-5.1c-0.3-3.5-1.4-7.2-3.2-10.8c-3.5-7.2-9-13.8-15.5-18.1
						c-3.2-2.2-6.7-3.8-10.1-4.7c-1.7-0.4-3.5-0.7-5.2-0.8c-1.6-0.1-3,0.1-3.8,0.4c-0.4,0.1-0.5,0.3-0.5,0.3c0,0,0.1-0.1,0.2-0.2
						c0.1-0.1,0.1-0.2,0.1-0.1c0,0.1,0,0.4,0,0.7c0,0.3,0.2,0.7,0.3,1.1c0.2,0.4,0.4,0.9,0.7,1.3C169.5,89,170.3,89.8,171.4,90.6z"
						/>
				</g>
			</g>
		</g>
		<g>
			<g>
				<g>
					<path fill="#3D3D3D" d="M247.5,306.9c0.1-0.5,0.3-1.3,0.6-2.4c0.3-1.1,0.7-2.5,1.3-4c1.2-3.1,3-6.9,5.8-10.7
						c2.7-3.8,6.2-7.6,10.2-10.8c4.1-3.3,8.6-6,13.2-8.1c9.2-4.2,18.4-6.1,25-7.2c3.4-0.5,6.1-0.9,8.1-1.1c1.9-0.2,3-0.3,3-0.3
						c7.5-1.3,15.1-2,22.7-2.2c3.8-0.1,7.6,0,11.3,0.2c3.7,0.2,7.6,0.4,11.6,1.4c2,0.5,3.9,1.3,5.7,2.2c1.8,0.9,3.4,2,5,3.1
						c3.1,2.2,5.9,4.7,8.8,6.9c2.8,2.2,6.1,4.1,9,6.7c2.9,2.6,4.9,6.3,5.8,10c-1-2.5-2.4-4.7-4.2-6.5c-1.8-1.8-4-3.1-6.2-4.3
						c-2.2-1.1-4.6-2.2-6.9-3.5l-6.7-3.8c-2.2-1.2-4.3-2.3-6.5-3c-2.2-0.7-4.2-1.1-6.4-1.2c-2.2-0.1-4.5,0.1-7,0.3
						c-2.5,0.2-4.9,0.5-7.3,0.9c-9.7,0.1-19.5,1.2-29.1,3.2c-4.8,1-9.5,2.3-14.1,3.8c-4.6,1.5-9,3.3-13.2,5.5
						c-6.9,0.3-14.2,1.9-21.3,5.7c-3.5,1.9-7,4.4-10.1,7.5C252.5,298.4,249.7,302.3,247.5,306.9z"/>
					<path fill="#3D3D3D" d="M338.3,273.9c2.9-0.4,5.8-0.8,8.7-1c1.5-0.1,3-0.2,4.4-0.3c1.4-0.1,2.8-0.1,4-0.1
						c1.2,0,2.4,0.1,3.4,0.2c1,0.1,2,0.4,3.1,0.8c2.2,0.8,4.6,2.1,7.1,3.7l4,2.5c1.4,0.9,2.9,1.8,4.4,2.6c2.9,1.5,5.4,2.8,7.2,4.2
						c0.9,0.7,1.7,1.4,2.3,2.3c0.7,0.9,1.3,1.9,1.8,3c1,2.2,1.6,5,1.9,7.8c0.3,2.9,0.4,5.9,0.4,9c0,3-0.1,6-0.8,8.6
						c-0.3,1.3-0.8,2.5-1.5,3.6c-0.4,0.5-0.8,1-1.2,1.5l-0.7,0.7l-0.8,0.6c-2.2,1.5-5.2,2-8.2,1.9c-3-0.1-6.1-0.8-9.1-1.7
						c-3-1-5.9-2-8.8-3.5c-2.8-1.4-5.6-3.3-7.8-5.9c-2.2-2.6-3.6-5.9-4.4-9.1c-0.3-2.1-0.5-4.1-0.6-6.1c-0.1-2-0.2-4-0.1-6
						c0-4,0.3-8,1-12c1.3-8,4.2-15.9,9.1-22.5c1.2-1.6,2.6-3.2,4.3-4.6c1.6-1.4,3.6-2.6,5.6-3.4c2-0.8,4-1.3,6-1.7
						c1-0.2,2-0.4,3-0.5c1-0.1,2-0.3,3-0.3c8.1-0.6,16.4,0.7,24,3.8c3.8,1.6,7.3,3.6,10.6,6c3.3,2.4,6.2,5.3,8.8,8.3
						c5.2,6.1,9.2,12.9,14,18.9c2.4,3,5,5.8,8,8.2c2.9,2.4,6.3,4.2,9.8,5.7c7.1,2.9,14.9,4.1,22.6,5c0,0-1.8,0.1-4.9,0.1
						c-3.1,0-7.6,0-13.1-0.8c-2.7-0.4-5.7-1-8.9-2c-3.1-1-6.5-2.5-9.6-4.5c-6.4-4-11.9-10-16.9-15.4c-2.5-2.7-5-5.3-7.5-7.6
						c-0.6-0.6-1.2-1.1-1.8-1.6c-0.6-0.5-1.2-1-1.8-1.5c-0.6-0.5-1.2-0.9-1.8-1.3l-0.9-0.6l-1-0.5c-5-3-10.4-4.5-15-5.2
						c-4.7-0.6-8.8-0.4-11.8,0c-3.1,0.4-5.1,1-6.1,1c-1,0-2.9,0.3-3.8,0.6c-0.4,0.1-0.9,0.3-1.7,0.9c-0.4,0.3-0.8,0.7-1.3,1.2
						c-0.5,0.5-1,1.2-1.5,1.8c-2,2.6-3.9,6.1-5.2,10.2c-0.7,2.1-1.2,4.3-1.6,6.6c-0.4,2.3-0.7,4.7-0.8,7.1c-0.2,2.4-0.2,4.9-0.1,7.2
						c0.1,2.3,0.2,4.2,0.6,5.6c0.2,0.7,0.3,1.3,0.5,1.7c0.2,0.5,0.4,0.9,0.7,1.3c0.6,0.9,1.6,1.8,2.6,2.6c2.2,1.7,4.8,3,6.7,3.9
						c1.8,0.8,2.7,1.2,2.7,1.2c1.9,0.7,3.8,1.1,5.3,1.3c0.8,0.1,1.5,0.1,2.1,0.1c0.5-0.1,1-0.2,1.3-0.3c0.3-0.1,0.5-0.2,0.7-0.4
						c0.2-0.1,0.3-0.3,0.5-0.6c0.4-0.6,0.8-1.8,1.2-3.6c0.3-1.7,0.5-3.9,0.6-6.4c0.1-2.4,0.2-4.6,0.2-6.7c-0.1-2-0.3-3.9-0.7-5.4
						c-0.4-1.5-0.9-2.7-1.6-3.6c-0.3-0.4-0.6-0.8-1.2-1.3c-0.5-0.4-1.1-0.9-1.9-1.5c-1.6-1.1-3.7-2.3-6.1-3.9
						c-4.8-3.2-8.5-6.3-11.7-8c-0.8-0.4-1.6-0.8-2.3-1.1c-0.7-0.3-1.4-0.5-2.1-0.6c-1.5-0.3-3.4-0.5-5.6-0.6c-1.1,0-2.3,0-3.4,0
						c-1.2,0-2.3,0-3.5,0C343,273.6,340.6,273.8,338.3,273.9z"/>
				</g>
			</g>
		</g>
		<g>
			<g>
				<g>
					<path fill="#3D3D3D" d="M437.5,125.5c-0.1,0.4-0.2,2-0.8,4.1c-0.6,2-1.8,4.4-3.4,6.4c-1.6,2-3.5,3.5-5,4.4
						c-0.4,0.2-0.7,0.4-1,0.6c-0.3,0.2-0.6,0.3-0.8,0.4c-0.5,0.2-0.7,0.3-0.7,0.3c-3.6,1.8-7.6,2.4-11.4,1.6
						c-3.8-0.6-7.3-2.6-9.9-5.4c4.1,3.2,9.4,4.3,14,3.3c4.7-0.4,9.1-3,11.8-6.9c1.5-0.9,3-2.1,4.2-3.6
						C435.6,129.4,436.6,127.6,437.5,125.5z"/>
					<path fill="#3D3D3D" d="M419.4,140.1l-1,0.3c-0.3,0.1-0.7,0.1-1,0.2c-0.7,0.1-1.4,0.1-2.1,0.2c-1.4,0-2.8-0.1-4.1-0.6
						c-0.7-0.1-1.3-0.5-2-0.7c-0.6-0.3-1.3-0.6-1.9-1c-1.3-0.7-2.4-1.7-3.4-2.8c-1.1-1.1-1.9-2.3-2.6-3.7c-0.7-1.4-1.2-2.8-1.5-4.4
						c-0.3-1.5-0.4-3.1-0.3-4.7c0.1-1.6,0.4-3.2,1-4.7c1.6-3.7,4.7-6.8,8.3-8.6c3.6-1.9,7.9-2.3,11.9-1.5c4,0.9,7.6,3.2,10.1,6.4
						c2.5,3.2,3.8,7.2,3.8,11.2c0,0-0.1-0.4-0.2-1.2c-0.1-0.4-0.2-0.9-0.3-1.4c-0.1-0.3-0.2-0.5-0.2-0.8c-0.1-0.3-0.2-0.6-0.4-0.9
						c-1-2.5-3.1-5.4-5.9-7.3c-1.4-0.9-2.9-1.7-4.4-2.1c-1.5-0.4-3-0.6-4.3-0.6c-2.6,0-4.4,0.6-4.9,0.6c-0.6,0.1-2.1,0.3-3.8,1.1
						c-1.8,0.8-3.7,2.3-5.2,4.2c-1.5,1.9-2.3,4.1-2.7,5.8c-0.1,0.4-0.2,0.8-0.2,1.2c0,0.3-0.1,0.7-0.1,0.9c0,0.2,0,0.4-0.1,0.6
						c0,0.1,0,0.2,0,0.2c0.1,4.4,2.2,8.7,5.6,11.4C410.6,139.8,415.1,140.9,419.4,140.1z"/>
				</g>
			</g>
		</g>
		<g>
			<g>
				<g>
					<path fill="#3D3D3D" d="M301,195.8c-0.2,0.8-0.4,3.7-1.6,7.5c-1.2,3.8-3.4,8.2-6.3,11.9c-2.9,3.7-6.5,6.5-9.3,8.2
						c-0.7,0.4-1.4,0.8-1.9,1.1c-0.6,0.3-1.1,0.5-1.6,0.7c-0.9,0.4-1.3,0.6-1.3,0.6c-3.3,1.6-6.8,2.7-10.4,3.2
						c-3.6,0.6-7.3,0.4-10.8-0.2c-0.9-0.2-1.8-0.3-2.6-0.6l-2.6-0.8l-2.5-1c-0.8-0.3-1.6-0.8-2.4-1.2c-3.1-1.7-5.9-3.9-8.3-6.4
						c3.8,3,8.2,5,12.7,6c4.5,1,9.1,1,13.3,0c8.6-0.7,16.9-5.5,21.9-12.7c2.8-1.6,5.5-3.9,7.9-6.6C297.5,203,299.5,199.6,301,195.8z
						"/>
					<path fill="#3D3D3D" d="M267.4,222.9l-1.8,0.5c-0.6,0.2-1.2,0.2-1.9,0.3c-1.3,0.3-2.5,0.2-3.8,0.3c-2.6-0.1-5.2-0.3-7.7-1.1
						l-1-0.3c-0.3-0.1-0.6-0.2-0.9-0.3l-1.9-0.7c-1.2-0.6-2.4-1.1-3.6-1.9c-2.3-1.4-4.4-3.1-6.3-5.1l-1.4-1.6l-1.2-1.7
						c-0.2-0.3-0.4-0.6-0.6-0.9l-0.5-0.9c-0.3-0.6-0.7-1.2-1.1-1.8c-0.6-1.3-1.3-2.6-1.7-3.9c-0.2-0.7-0.5-1.3-0.7-2l-0.5-2.1
						c-0.2-0.7-0.2-1.4-0.3-2.1c-0.1-0.7-0.2-1.4-0.2-2.2c0-1.5-0.1-2.9,0-4.4c0.1-3,0.8-5.9,1.8-8.8c3-6.9,8.6-12.6,15.3-16
						c6.7-3.5,14.6-4.4,22-2.9c7.4,1.7,14,6,18.7,11.8c4.7,5.9,7.1,13.3,7,20.7c0,0-0.2-0.8-0.4-2.3c-0.1-0.4-0.1-0.8-0.2-1.2
						c-0.1-0.4-0.3-0.9-0.4-1.4c-0.1-0.5-0.3-1-0.5-1.5c-0.2-0.5-0.4-1.1-0.7-1.7c-1.8-4.6-5.7-10.1-10.9-13.6
						c-2.6-1.8-5.4-3.2-8.3-3.9c-0.7-0.2-1.4-0.3-2.1-0.5c-0.3-0.1-0.7-0.2-1-0.2c-0.3,0-0.7-0.1-1-0.1c-0.7-0.1-1.3-0.2-1.9-0.2
						c-0.6,0-1.3,0-1.8,0c-0.6-0.1-1.2,0-1.7,0.1c-0.5,0-1.1,0.1-1.6,0.1c-1,0.2-1.9,0.3-2.7,0.4c-0.8,0.2-1.4,0.3-2,0.4
						c-0.3,0-0.5,0.1-0.7,0.1c-0.2,0-0.4,0.1-0.5,0.1c-1.1,0.1-3.9,0.5-7.1,2.1c-3.3,1.5-6.9,4.3-9.6,7.8c-2.7,3.5-4.3,7.6-5,10.7
						c-0.2,0.8-0.3,1.5-0.4,2.1c-0.1,0.6-0.1,1.2-0.1,1.7c0,0.5-0.1,0.8-0.1,1.1c0,0.2,0,0.4,0,0.4c0.2,8.2,4.1,16.1,10.4,21.1
						c3.2,2.5,6.8,4.3,10.7,5.3C259.4,223.5,263.5,223.6,267.4,222.9z"/>
				</g>
			</g>
		</g>
		<g>
			<g>
				<g>
					<path fill="#3D3D3D" d="M261.6,254.3c-0.1,0.3-0.2,1.7-0.7,3.3c-0.5,1.7-1.5,3.7-2.8,5.3c-1.3,1.6-2.9,2.9-4.1,3.7
						c-0.3,0.2-0.6,0.4-0.9,0.5c-0.3,0.1-0.5,0.2-0.7,0.3c-0.4,0.2-0.6,0.3-0.6,0.3c-2.9,1.4-6.3,1.9-9.4,1.4
						c-3.2-0.5-6-2.2-8.2-4.4c3.4,2.7,7.8,3.6,11.5,2.7c3.8-0.3,7.5-2.4,9.7-5.6c1.2-0.7,2.4-1.7,3.5-3
						C260.1,257.4,260.9,255.9,261.6,254.3z"/>
					<path fill="#3D3D3D" d="M246.7,266.3c-4.3,1.3-9.5-0.1-12.8-3.7c-0.9-0.9-1.5-1.9-2.2-3c-0.6-1.1-1-2.3-1.3-3.6
						c-0.5-2.5-0.4-5.2,0.6-7.8c1.3-3.1,3.8-5.6,6.8-7.1c3-1.6,6.5-1.9,9.8-1.3c3.3,0.7,6.2,2.7,8.3,5.3c2.1,2.6,3.1,5.9,3.1,9.2
						c0,0-0.1-0.4-0.2-1c0-0.3-0.1-0.7-0.3-1.1c-0.1-0.2-0.1-0.4-0.2-0.7c-0.1-0.2-0.2-0.5-0.3-0.7c-0.8-2-2.5-4.5-4.9-6
						c-1.2-0.8-2.4-1.4-3.7-1.7c-1.3-0.3-2.4-0.5-3.5-0.5c-2.1,0-3.6,0.5-4.1,0.5c-0.5,0.1-1.7,0.2-3.2,0.9
						c-1.5,0.7-3.1,1.9-4.3,3.5c-1.2,1.5-1.9,3.4-2.2,4.7c-0.1,0.3-0.1,0.7-0.2,1c0,0.3,0,0.5-0.1,0.7c0,0.2,0,0.4,0,0.5
						c0,0.1,0,0.2,0,0.2c0.1,3.6,1.8,7.1,4.6,9.4C239.5,266,243.2,266.9,246.7,266.3z"/>
				</g>
			</g>
		</g>
		<g>
			<g>
				<g>
					<path fill="#3D3D3D" d="M312.9,50.7c0.5,0.4,1.8,1.6,3.7,3.3c1.9,1.7,4.3,3.9,6.8,6.5c2.6,2.6,5.2,5.6,7.5,8.6
						c2.3,3,4.2,5.8,5.8,8.2l-4.1-1.7c12.2-0.1,19.8,0,19.8,0l8.3-0.5l5.2-0.3l-2.8,4.1l-15.8,23.2l0.1-1.3l7.6,19.5l-10.5-18.2
						l-0.4-0.7l0.5-1.1l8-16.8l5.2-8l3.6,5.9l-27.9,2.3l-1.9,0.2l-1.1-1.4l-1-1.2c-1-4.3-2.5-9.4-5.3-14.8
						C321.4,61.2,317.4,55.7,312.9,50.7z"/>
					<path fill="#3D3D3D" d="M352.1,79.3L341.9,99l-1.3,2.6l1,1.9l13.3,24.8l2.9-3.5l-27.8-4.5l-0.1,0l-0.1,0.1L316.8,134l-6.8,6.1
						l-2.1,1.8l-0.2-2.8l-2-28l0.7,1.1l-20.2-11.9l-3.9-2.4l-2.3-1.4l2.4-0.9l26.1-10.1l-0.5,0.6c2.2-9.4,4.6-18.6,6.8-27.6
						c0,0-0.2,0.9-0.4,2.5c-0.3,1.6-0.6,3.9-0.9,6.6c-0.3,2.7-0.6,5.9-0.8,9.2c-0.2,3.3-0.4,6.7-0.7,10.2l-0.1,1.2l-1.8,1
						c-8,4.5-16.9,9.4-24.7,13.7l0.9-11.7c10.9,4.9,19.7,9,21.6,10.5c0.6,0.5,1.7,1.3,3.3,2.3l4,2.7l0,3.8c0,6,0.3,17.2,0.7,28
						l-11.3-4.6c10.9-8.9,21.2-17.4,21.7-17.8l2.4-2l2.8,0.7c0.5,0.1,0.5,0.1,0.5,0.1l26.8,6.3l-7.1,8.4l-11.5-25.6l-1.4-3l1.8-2.9
						L352.1,79.3z"/>
				</g>
			</g>
		</g>
		<g>
			<g>
				<g>
					<path fill="#3D3D3D" d="M382.3,156.9c0,1.2,0.2,6.2-0.1,12.7c-0.2,3.2-0.6,6.8-1.1,10c-0.6,3.3-1.3,6.3-1.9,8.7l-1.4-3.7
						c7.4,7.9,11.8,12.9,11.8,12.9l5.3,5.2l3.3,3.2l-4.4,0.6l-24.6,3.6l0.9-0.7l-8.2,16.6l5.5-17.8l0.2-0.6l1-0.3l15.7-4.9l8.3-1.4
						l-1.7,5.9l-18.2-16.9l-1.2-1.1l0.2-1.5l0.2-1.4c2.2-3.2,4.7-7.3,6.5-12.3C380.5,168.6,381.7,162.8,382.3,156.9z"/>
					<path fill="#3D3D3D" d="M387.1,199.5l-18.9,5.2l-2.5,0.7l-0.6,1.8l-8.2,23.5l4-0.2l-13.7-20.8l-0.1-0.1l-0.1,0l-16.8-0.3
						l-8.1-0.8l-2.4-0.3l1.7-1.8l17.1-18l-0.3,1.1l-4.4-20.3l-0.8-4l-0.5-2.3l2.1,1l22.3,11l-0.7,0c7.4-4.2,14.9-8.2,22.1-12.1
						c0,0-0.7,0.4-1.9,1.2c-1.2,0.8-2.9,1.9-4.9,3.4c-2,1.4-4.2,3.2-6.5,5c-2.3,1.8-4.7,3.8-7.1,5.7l-0.9,0.7l-1.7-0.6
						c-7.7-2.5-16.3-5.4-23.7-7.9l8.2-6.5c3.3,10,5.9,18.3,6.1,20.4c0.1,0.7,0.2,1.9,0.5,3.6l0.6,4.2l-2.5,2.3
						c-3.9,3.6-11,10.5-17.9,17.2l-3.8-10.2c12.4,1.7,24.1,3.4,24.6,3.5l2.7,0.4l1.2,2.3c0.2,0.4,0.2,0.4,0.2,0.4l11.9,21.3
						l-9.7,0.4l9.8-22.8l1.2-2.7l3-0.6L387.1,199.5z"/>
				</g>
			</g>
		</g>
	</g>
</g>
</svg>
