<?xml version="1.0" encoding="utf-8"?>
<!-- Generator: Adobe Illustrator 23.0.0, SVG Export Plug-In . SVG Version: 6.00 Build 0)  -->
<svg version="1.1" xmlns="http://www.w3.org/2000/svg" xmlns:xlink="http://www.w3.org/1999/xlink" x="0px" y="0px"
	 viewBox="0 0 512 512" enable-background="new 0 0 512 512" xml:space="preserve">
<g id="Layer_2" display="none">
	<rect display="inline" fill="#212121" width="512" height="512"/>
</g>
<g id="Layer_1">
	<g>
		<g>
			<g>
				<g>
					<g>
						<path fill="#3D3D3D" d="M169.1,167.8c6,9.6,12.2,19.5,18.3,29.5c6.1,10,12.1,20.2,17.9,30.4l1.1,1.9c0.1,0.1,0.3,0.5,0.4,0.8
							c0.2,0.3,0.3,0.7,0.5,1.1c0.3,0.7,0.5,1.5,0.6,2.2c0.5,3-0.1,6.2-1.7,8.8c-0.8,1.3-1.9,2.5-3.1,3.4c-0.3,0.2-0.6,0.4-1,0.6
							l-0.5,0.3l-0.2,0.1l-0.9,0.5l-3.6,2l-14.2,8.1l-28.5,16.2L103.1,301l-12.8,6.8l-6.4,3.4l-0.9,0.5c-0.5,0.3-1.1,0.5-1.7,0.7
							c-1.2,0.4-2.4,0.6-3.7,0.6c-2.5,0-4.9-0.9-6.8-2.4c-1-0.8-1.8-1.7-2.5-2.7l-0.5-0.8l-0.2-0.4l-0.4-0.8l-1.7-3.2l-3.4-6.4
							l-6.8-12.8c0,0-9.5-16.6-20.4-35.8c-1.5-2.6-0.6-6,2.1-7.5l0.1,0c15.9-9.1,33.6-19.2,44.2-25.3c2.9-1.7,6.7-0.7,8.3,2.3
							c1,1.7,1,3.7,0.3,5.4l-0.1,0.2c-1.8,4.1-2.1,7.3-2.3,8.6c-0.1,1.1-0.3,2.9-0.2,5.4c0.1,2.5,0.6,5.6,1.8,8.9
							c1.2,3.3,3.2,6.9,6,10c2.8,3.1,6.4,5.7,10.5,7.5c4.1,1.8,8.5,2.5,12.7,2.4c4.2-0.1,8.2-1.2,11.4-2.7c3.3-1.5,5.9-3.4,7.8-5.1
							c1.9-1.7,3.1-3.2,3.7-4.1c1.2-1.7,3.4-5,4.9-9.7c1.5-4.6,2-10.6,0.6-16.4c-0.3-1.5-0.8-2.9-1.4-4.3c-0.6-1.4-1.2-2.8-2-4
							c-1.5-2.6-3.3-4.9-5.3-6.7c-4-3.8-8.4-5.9-11.6-6.9c-1.5-0.5-3.4-1-5.5-1.3l-0.3,0c-2.7-0.4-4.6-3-4.2-5.8
							c0.3-1.6,1.3-3,2.6-3.7c8.8-4.7,21.5-10.7,31.5-15.3c9.8-4.6,17.5-8.2,17.5-8.2s-5.3,2.8-14,7.4c-8.6,4.6-20.7,11.1-33.7,18.5
							l0,0c-1.1,0.6-1.5,2.1-0.9,3.2c0.4,0.7,1.1,1.1,1.8,1.2c4.7,0.6,9.4,2.2,13.6,4.7c4.2,2.6,7.9,6.1,10.6,10.2
							c2.7,4.1,4.5,8.9,5.2,13.6c0.7,4.8,0.4,9.5-0.8,13.8c-1.2,4.3-3.1,8.2-5.5,11.3c-2.4,3.2-5.1,5.6-7.7,7.5
							c-5.3,3.7-10.1,4.9-12.5,5.4c-2.1,0.4-4.6,0.7-7.4,0.7c-1.4,0-2.9-0.1-4.4-0.3c-1.5-0.2-3.1-0.6-4.7-1
							c-1.6-0.5-3.2-1.1-4.8-1.8c-1.6-0.7-3.1-1.6-4.6-2.6c-3-2-5.7-4.5-8-7.4c-2.3-2.9-4-6.2-5.2-9.5c-1.2-3.3-1.8-6.7-1.9-9.9
							c-0.2-6.4,1.5-11.7,3-14.9c0.1-0.1,0.1-0.3,0.2-0.4c0.6-1.3,0-2.7-1.2-3.3c-0.7-0.3-1.5-0.3-2.2,0.1l-0.1,0
							c-11.3,5.9-32.3,17.9-44.7,24.4c-1.4,0.7-1.9,2.5-1.2,3.9l0,0l0.1,0.1c1.5,2.8,2.7,5.2,3.5,6.9c2.2,4.7,9,17.1,15.9,29.8
							c3.5,6.3,7,12.8,10,18.3c0.7,1.4,1.5,2.7,2.1,4l0.3,0.5l0.1,0.2l0.1,0.1l0.1,0.2c0.3,0.5,0.6,1,1,1.5c0.8,0.9,1.7,1.6,2.6,2.2
							c1.9,1.1,4,1.4,5.9,1.3c0.9-0.1,1.8-0.3,2.6-0.6c0.4-0.1,0.7-0.3,1.1-0.5c0.2-0.1,0.4-0.2,0.6-0.3
							c11.6-5.6,71.7-40.4,80.7-45.4c4.5-2.5,10.6-6.1,17.2-10c3.3-2,6.8-4,10.3-6c1.7-1,3.5-2,5.2-3c0.9-0.5,1.7-1,2.6-1.5l0.6-0.4
							l0.2-0.1l0.2-0.1l0.5-0.3c0.6-0.4,1.2-1,1.7-1.5c1-1.2,1.9-2.8,2.1-4.8c0.1-1,0.1-2.1-0.2-3.2c-0.1-0.6-0.3-1.1-0.6-1.6
							l-0.2-0.4l-0.1-0.3c-0.1-0.2-0.2-0.3-0.3-0.5c-1.5-2.9-3.2-6.2-5.1-9.7c-3.7-7.2-8-15.5-12.3-23.4
							c-4.2-7.9-8.4-15.4-11.4-20.8C171,171.3,169.1,167.8,169.1,167.8z"/>
						<path fill="#3D3D3D" d="M168.1,171.1c9.4,16.4,18.7,33,27.7,49.5l4.8,9c0,0,0.5,1,1.5,2.7c0.6,1.1,1,2.7,0.8,4.5
							c-0.2,1.8-1.2,3.7-3,5.1c-0.2,0.2-0.5,0.3-0.7,0.5c-0.2,0.1-0.4,0.2-0.6,0.3c-0.4,0.2-0.8,0.4-1.1,0.6
							c-0.8,0.4-1.6,0.9-2.4,1.3c-1.7,0.9-3.4,1.9-5.2,2.9c-3.6,2-7.5,4.2-11.5,6.4c-15.8,8.9-32.5,18.2-35.9,20.1
							c-3.4,1.9-16.8,9.6-30.7,17.5c-7,4-14.1,8-20.2,11.4c-3.1,1.7-5.8,3.3-8.2,4.6c-0.6,0.3-1.2,0.6-1.7,0.9
							c-0.7,0.4-1.6,0.7-2.4,0.9c-1.6,0.3-3,0.1-4.1-0.3c-1.1-0.4-2.2-1-3.2-2c-0.5-0.5-0.9-1-1.2-1.6c-0.1-0.2-0.2-0.3-0.2-0.4
							l-0.2-0.3c-0.1-0.2-0.2-0.5-0.4-0.7c-1-1.8-2.1-3.9-3.2-6c-2.3-4.2-4.8-8.9-7.3-13.4c-4.9-9-9.5-17.5-11.2-21
							c-1.1-2.3-4.9-9.5-9.6-18.2l0,0c-0.3-0.6-0.1-1.3,0.5-1.7c17.3-9.3,40.7-21.9,40.7-21.9s0.2-0.1,4-2.3
							c0.3-0.2,0.6-0.1,0.8,0.2c0.1,0.1,0.1,0.3,0,0.5l0,0.1c-0.3,0.8-2,4.2-2.8,9.5c-0.4,2.6-0.6,5.7-0.2,8.9
							c0.3,3.2,1.2,6.6,2.5,9.9c1.4,3.2,3.2,6.3,5.3,8.9c2.1,2.6,4.5,4.8,6.9,6.4c4.7,3.4,9.1,4.7,10.7,5.2
							c1.8,0.5,6.6,1.8,12.8,1.3c3.1-0.2,6.5-1,9.9-2.3c3.3-1.3,6.6-3.2,9.5-5.5c2.9-2.3,5.3-5,7.1-7.8c1.9-2.8,3.2-5.6,4-8.1
							c0.9-2.5,1.3-4.7,1.5-6.2c0.1-0.8,0.2-1.3,0.2-1.7c0-0.4,0.1-0.6,0.1-0.6c0.4-4.5,0-9.1-1.3-13.4c-1.3-4.4-3.4-8.4-6.2-12
							c-5.6-7.2-14.2-12-23.3-13.3c-0.1,0-0.1-0.1-0.1-0.1c0,0,0-0.1,0.1-0.1l19-10.2c0,0-7.4,4.3-18.6,10.9l-0.2-1.2
							c3.4,0.4,7.1,1.2,10.7,2.7c1.8,0.8,3.6,1.7,5.4,2.8c1.7,1.1,3.4,2.4,5,3.8c3.1,2.8,5.9,6.3,7.9,10c2.1,3.8,3.4,7.8,4.1,11.9
							c0.3,2,0.5,4,0.5,6c0,1.9-0.1,3.8-0.4,5.6c-0.5,3.6-1.5,6.8-2.7,9.5c-2.3,5.4-5.1,8.6-6,9.6c-6,6.9-14.5,11.5-23.6,12.7
							c-9.1,1.3-18.5-0.9-26.1-5.9c-7.7-5-13.4-12.8-15.9-21.5c-2.6-8.8-1.8-18.4,2-26.7l3,2.8l-13,7.3c-2,1.1-11.7,6.4-31.6,17.2
							l0.7-2.5c6.2,11.6,15.6,29.1,23.5,43.8c2,3.7,3.8,7.2,5.6,10.3c0.9,1.6,1.7,3.1,2.4,4.5c0.2,0.4,0.4,0.7,0.6,1
							c0.2,0.3,0.3,0.6,0.5,0.8c0.4,0.5,0.9,0.9,1.4,1.2c1,0.6,2.2,0.7,3.1,0.6c1-0.1,1.6-0.5,2.3-0.9c1.3-0.7,2.1-1.1,2.1-1.1
							l81-44.7l25.6-13.4l6.4-3.4l1.6-0.8c0.5-0.3,1-0.5,1.7-0.9c1.1-0.8,2.1-1.9,2.5-3.3c0.5-1.3,0.5-2.8,0-4.2
							c-0.1-0.3-0.3-0.7-0.4-1l-0.4-0.8l-0.8-1.6l-3.4-6.5C187.5,206.3,177.9,188.6,168.1,171.1z"/>
						<path fill="#3D3D3D" d="M169.4,179.7l4.9,9.1l15.9,29.6l8,14.7l0.5,0.9c0.1,0.3,0.2,0.4,0.3,0.7c0.2,0.4,0.2,0.9,0.2,1.4
							c0,0.9-0.5,1.9-1.1,2.5c-0.4,0.3-0.6,0.5-1.4,0.9l-1.9,1l-3.7,2l-59.7,32.7l-35.9,20l-9,5l-4.5,2.5l-2.2,1.3l-0.5,0.3
							c-0.1,0-0.2,0.1-0.3,0.2c-0.2,0.1-0.4,0.2-0.7,0.2c-0.9,0.2-1.9-0.2-2.6-0.8c-0.2-0.2-0.3-0.3-0.4-0.5L75,303l-0.1-0.3
							l-0.3-0.6l-1.3-2.2l-5-9l-25.8-47.5l-1.2,4.3l11.3-6.1c0,0-4.4,2.6-11,6.6l1.4-5c9.7,16.2,27.5,46.1,30.2,50.9
							c0.5,0.8,1.5,2.6,2.8,5.1c0.3,0.6,0.7,1.3,1.1,2l0.1,0.3c0.1,0.1,0.1,0.2,0.1,0.2c0,0,0,0,0,0c0,0,0,0,0.1,0.1
							c0.1,0.1,0.3,0.1,0.4,0.1c7.1-3.9,15.9-8.8,24.5-13.5c17.7-9.8,34.6-19.1,34.6-19.1l32.6-18.2l16.3-9.1l8.1-4.5l1.9-1.1
							c0.1-0.1,0.2-0.1,0.2-0.2c0.1-0.2,0.2-0.4,0.1-0.6c0,0,0-0.1,0-0.1c0,0,0,0,0-0.1l0,0l0-0.1l-0.1-0.2l-0.8-1.7l-1.7-3.5
							l-3.3-7l-6.7-14.1C178.9,199.3,174.3,189.5,169.4,179.7z"/>
						<path fill="#3D3D3D" d="M51.6,253.2l-6.7-11l-2.3,8L86,223.5l-5.2-4.8l-0.2,0.5c-3.5,7.7-4.5,16.6-2.7,25
							c1.8,8.4,6.4,16.1,12.8,21.8c7.2,6.3,16.7,9.8,26.2,9.8c9.6,0.1,19-3.5,26.3-9.7c-6.2,5.9-14.5,9.9-23.3,10.9
							c-8.8,1.1-18.1-0.8-26.1-5.3c-6.4-4.1-11.7-10-15.2-16.8c-1.7-3.4-3-7-3.8-10.8c-0.8-3.7-1-7.6-0.8-11.4
							c0.3-5.3,1.7-10.5,3.9-15.3l9.4,8.7l-44.6,24.6l2.5-8.8L51.6,253.2z"/>
						<path fill="#3D3D3D" d="M172.4,248l-4.5,2.5l-71.9,40.1l-11.9,6.3l-6,3.2l-0.7,0.4l-0.2,0.1c-0.1,0-0.2,0.1-0.1,0.1
							c0,0,0,0,0.1,0c0.1-0.1,0.2-0.1,0.3-0.1c0.2-0.1,0.5,0,0.7,0.1c0.1,0.1,0.2,0.1,0.3,0.2c0,0,0.1,0.1,0.1,0.1c0,0,0,0,0.1,0.1
							l0,0l0,0l0,0l0-0.1l-1.6-3l-3.2-6l-6.3-11.9l-20.9-38.7L43.6,252l33.7-18.2c0,0-19.3,11.3-33,19.4l3.6-12.8
							c3.7,6.4,6.7,11.5,7.9,13.6c3.8,6.7,25,44.9,25,44.9l0.3,0.5c-0.1-0.2-0.2-0.3-0.3-0.4c-0.2-0.3-0.5-0.5-0.8-0.7
							c-0.6-0.4-1.2-0.6-1.9-0.7c-0.7-0.1-1.4,0-2,0.3c-0.2,0.1-0.3,0.1-0.4,0.2l0.6-0.3l1.3-0.7l10.2-5.4l20.5-10.8L172.4,248z"/>
						<path fill="#3D3D3D" d="M145,226.8c0,0,0.1,0.3,0.3,0.9c0.2,0.6,0.4,1.5,0.6,2.6c0.2,1.1,0.4,2.5,0.4,4.1c0,1.6,0,3.4-0.3,5.4
							c-0.3,2-0.8,4-1.6,6.2c-0.8,2.1-1.9,4.3-3.4,6.3c-2.8,4.1-7,7.6-11.9,9.8c-4.9,2.2-10.4,2.9-15.4,2.3c-5.1-0.6-9.6-2.6-13-5
							c-3.4-2.4-5.8-5.1-7.3-7.3c-1.5-2.2-2.2-3.8-2.4-4.3c-0.2-0.6-1.4-2.6-2.3-6.7c-0.4-2-0.7-4.6-0.5-7.6c0.2-3,0.9-6.5,2.5-10.2
							l0.1-0.2c1.5-3.5-0.1-7.6-3.6-9.1c-2.1-0.9-4.4-0.7-6.2,0.4C69,221,45,234.9,36.8,239.7l-0.1,0.1c-2.9,1.7-3.8,5.3-2.2,8.2
							C43,263,45,266.7,45,266.7l11.6,21.5l5.8,10.7l2.9,5.4l1.5,2.7l0.2,0.3l0.1,0.2l0.2,0.4c0.3,0.5,0.6,0.9,0.9,1.3
							c0.7,0.9,1.5,1.6,2.4,2.3c2.2,1.6,5,2.4,7.8,2.2c1.4-0.1,2.8-0.4,4.1-1c0.3-0.1,0.6-0.3,0.9-0.5L84,312l0.8-0.4l6.8-3.6
							l13.5-7.2l27.1-14.4l65.8-36.2l-62.8,36.5l-35.2,19l-8.8,4.8l-4.4,2.4l-2.2,1.2c-1.8,1-4,1.6-6.1,1.7
							c-4.3,0.3-8.5-1.5-11.4-4.7c-0.7-0.8-1.3-1.7-1.8-2.6l-0.6-1.1l-1.2-2.2l-4.8-8.8c0,0-16.4-31-21.4-39.6
							c-1.1-1.8-2.6-4.5-4.6-7.7c-2.2-3.7-1-8.5,2.8-10.7l0.3-0.2c11.7-7,30.4-18.2,36.4-21.6c0.9-0.5,2.4-1.4,7.5-4.2
							c4.4-2.5,10-0.9,12.4,3.5c1.4,2.5,1.5,5.4,0.5,7.9l-0.2,0.5c-0.4,1.1-1,2.5-1.5,4.2c-0.4,1.7-0.8,3.7-0.9,5.9
							c-0.1,2.2,0.1,4.5,0.6,6.8c0.5,2.3,1.4,4.6,2.5,6.7c1.1,2.1,2.5,4,3.9,5.6c1.5,1.6,3,2.9,4.5,3.9c3,2.1,5.6,3,6.5,3.3
							c1.1,0.4,3.4,1.2,6.5,1.6c3.1,0.4,6.8,0.3,10.3-0.6c3.5-0.9,6.6-2.5,8.8-4c1.1-0.7,1.9-1.4,2.5-1.9c0.6-0.5,0.9-0.8,0.9-0.8
							c3.6-3.4,6.4-7.9,7.7-12.8c0.7-2.4,1.1-5,1.1-7.6C146,231.9,145.6,229.3,145,226.8z"/>
					</g>
				</g>
			</g>
			<g>
				<g>
					<g>
						<path fill="#3D3D3D" d="M166.5,164.8l4.1,7.2c1,1.8,0.4,4.1-1.4,5.1l-0.1,0l-45.6,26c-0.8,0.4-1.6,0.6-2.5,0.5l-0.1,0
							c-4.4-0.5-9-0.1-13.2,1.3c-4.3,1.2-8.4,3.4-11.8,6.2c-3.5,2.9-6.3,6.5-8.3,10.6l-0.1,0.2c-0.3,0.7-0.9,1.2-1.5,1.6l-32.3,17.2
							c0,0-5.2,2.9-12.4,7.1c-1.5,0.8-3.4,0.3-4.2-1.2l0,0c-1-1.7-2.1-3.6-3.2-5.6c-0.3-0.5-0.6-1-0.8-1.5l-0.1-0.2l-0.2-0.3
							c-0.1-0.2-0.2-0.4-0.3-0.6c-0.2-0.4-0.3-0.8-0.4-1.3c-0.5-1.8-0.3-3.7,0.4-5.4c0.7-1.7,1.9-3.3,3.5-4.2l0.3-0.2l0.2-0.1
							l0.4-0.2l0.8-0.4l1.5-0.9c2-1.2,4-2.3,5.9-3.4c7.6-4.4,14-8,15.7-9c0.8-0.5,2.5-1.4,4.8-2.7l-1.9,2.9
							c0.4-3.3,0.9-7.8,1.4-12.6l0.1-0.9c0-0.3,0.1-0.8,0.2-1.2c0.2-0.8,0.4-1.7,0.7-2.5c0.6-1.6,1.6-3.1,2.8-4.3
							c0.6-0.6,1.3-1.2,2-1.7c0.4-0.2,0.7-0.5,1.1-0.7l0.5-0.3l0.4-0.2c1.1-0.6,2.3-1.2,3.4-1.8c8.9-4.8,16.8-9.2,19-10.5
							c1-0.6,2.6-1.5,4.6-2.6c0.5-0.3,1-0.6,1.6-0.9c0.3-0.2,0.6-0.3,0.9-0.5c0.4-0.2,0.8-0.4,1.2-0.6c1.7-0.7,3.6-1,5.6-0.9
							c1,0,2,0.2,3,0.5c0.5,0.1,1,0.3,1.5,0.5l0.4,0.1l0.3,0.1l0.5,0.2c1.4,0.6,2.9,1.3,4.3,1.9c2.9,1.3,5.7,2.6,8.3,3.7l-2.7,0.1
							c3-1.6,5.6-3,7.5-4.1c3.9-2.2,11.6-6,18.3-9.3c0.8-0.4,1.7-0.8,2.5-1.2c0.4-0.2,0.8-0.4,1.2-0.6c0.2-0.1,0.4-0.2,0.6-0.3
							l0.3-0.1l0.4-0.2c2-0.9,4.2-0.7,5.7-0.1c1.5,0.6,2.5,1.6,3.1,2.3c0.3,0.4,0.5,0.7,0.6,0.9c0.1,0.2,0.2,0.3,0.2,0.3
							s-0.1-0.1-0.2-0.3c-0.1-0.2-0.3-0.4-0.5-0.7c-0.5-0.6-1.3-1.4-2.6-2c-1.3-0.6-3.2-0.9-5.1-0.2c-0.2,0.1-0.5,0.2-0.7,0.3
							c-0.2,0.1-0.5,0.2-0.6,0.3c-0.4,0.2-0.8,0.4-1.2,0.6c-0.8,0.4-1.6,0.9-2.5,1.4c-7,3.9-16.3,9.1-25.8,14.4l1.2-0.1
							c-4.7-2-9.5-4-14.1-6c-2.6-1-5.5-0.9-8,0.1c-0.6,0.2-1.2,0.5-1.7,0.8c-0.5,0.3-1,0.6-1.5,0.8c-1,0.5-1.9,1.1-2.9,1.6
							c-7.4,4.1-13.1,7.3-15.4,8.5c-1.6,0.9-3.7,2-6.1,3.3c-1.2,0.7-2.4,1.4-3.7,2.1c-1.5,0.8-2.9,2-3.9,3.5c-1,1.5-1.8,3.2-2,5.1
							c-0.1,0.5-0.1,0.9-0.1,1.3l-0.1,1.2c-0.1,0.8-0.2,1.6-0.2,2.4c-0.3,3.2-0.6,6.3-0.9,9.2l0.7-1.1c-4.2,2.4-7.8,4.3-10.1,5.5
							c-4,2.1-10.1,5.5-16,8.8c-0.7,0.4-1.5,0.8-2.2,1.2c-0.4,0.2-0.7,0.4-1.1,0.6c-0.2,0.1-0.4,0.2-0.6,0.4
							c-0.2,0.1-0.4,0.3-0.6,0.4c-1.6,1.3-2.5,3.2-2.7,5c-0.1,0.9,0,1.8,0.2,2.6c0.1,0.4,0.2,0.8,0.4,1.1c0.1,0.2,0.2,0.3,0.2,0.5
							c0.1,0.1,0.1,0.3,0.2,0.4c0.5,1,0.9,1.8,1.3,2.5c0.5,1,1.3,2.5,2.3,4.5c0.5,1,1.8,1.4,2.7,0.8l0.1,0
							c8.8-4.7,25.5-14.1,31-16.7c2.2-1.1,7.5-4,13.8-7.5l0,0c0.5-0.3,0.9-0.7,1.1-1.2c1.4-3.1,3.4-6.2,5.8-8.9
							c2.5-2.7,5.4-4.9,8.3-6.6c5.8-3.3,11.4-4.1,13.2-4.2c1.9-0.2,4.4-0.3,7.2,0l0.1,0c0.4,0,0.9-0.1,1.2-0.3
							c4.6-2.7,10.1-6,15.2-8.9c5.4-3,21.5-11,31.1-15.8c1.5-0.8,2.2-2.6,1.4-4.1l-0.1-0.3C168,167.9,166.5,164.8,166.5,164.8z"/>
						<path fill="#3D3D3D" d="M164.7,165.8l4,7.3l0,0c0.4,0.7,0.1,1.7-0.6,2.1l-20.7,11.2l-5.1,2.7c0,0-9.5,5.3-20.2,11.3
							c-0.2,0.1-0.5,0.2-0.7,0.1c-4.2-0.5-8.9-0.2-12.5,0.8c-3.7,0.9-6.4,2.2-7.3,2.7c-1.1,0.6-4.1,2.1-7.3,5
							c-3.2,2.8-6.6,7.1-8.6,11.8c-0.1,0.3-0.3,0.5-0.6,0.6l0,0c-6.9,3.9-13.5,7.6-16.3,9.1c-6.6,3.4-22.2,12.1-26.2,14.1
							c-0.4,0.2-1.1,0.6-2.1,1.1l0,0c-0.4,0.2-1,0.1-1.2-0.4c-0.5-1-1.2-2.2-1.9-3.6c-0.4-0.7-0.8-1.4-1.2-2.2
							c-0.4-0.8-0.9-1.5-1.3-2.6c-0.7-2-0.2-4.6,1.4-6.2c0.4-0.4,0.8-0.8,1.3-1.1c0.5-0.3,0.9-0.5,1.4-0.7c0.9-0.5,1.8-1,2.7-1.4
							c7-3.8,13.1-7.1,13.1-7.1s4.2-2.3,12.6-7.1l-0.2,0.3c0.3-3.5,0.9-8.8,1.3-13.6c0.2-2.6,1.5-4.8,2.8-6.2
							c1.3-1.4,2.8-2.1,3.3-2.4c2-1.1,10.1-5.6,17.7-9.9c3.8-2.1,7.5-4.2,10.3-5.7c0.7-0.4,1.3-0.8,1.9-1c0.6-0.3,1.2-0.4,1.6-0.6
							c0.9-0.2,1.5-0.3,1.5-0.3c1.7-0.2,3.5,0.1,5.1,0.8l4.5,2l9.1,4l-0.2,0l21.9-11.8c0,0-10.1,5.9-21.5,12.6
							c-0.2,0.1-0.4,0.1-0.5,0l0,0c-3.4-1.4-6.8-2.8-10.2-4.1c-0.8-0.3-1.7-0.7-2.5-1c-0.8-0.3-1.6-0.6-2.3-0.8
							c-1.5-0.3-3-0.3-4.4,0.1c-0.7,0.2-1.3,0.4-1.9,0.7c-0.6,0.3-1.2,0.7-1.8,1c-1.1,0.7-2.2,1.3-3.1,1.8c-1.8,1-3.1,1.8-3.6,2.1
							l-21,11.7l-0.6,0.4c-0.2,0.1-0.4,0.2-0.6,0.3c-0.4,0.2-0.7,0.5-1,0.8c-0.7,0.6-1.2,1.3-1.7,2c-0.5,0.8-0.8,1.6-1,2.4
							c-0.1,0.4-0.2,0.8-0.2,1.3l-0.2,1.5l-1.2,12c0,0.4-0.3,0.8-0.6,1l-17.8,9.9c-0.8,0.5-4.1,2.2-8.8,4.8c-0.6,0.3-1.2,0.7-1.8,1
							c-0.3,0.2-0.6,0.3-1,0.5c-0.3,0.2-0.5,0.3-0.8,0.5c-1,0.8-1.6,2.1-1.7,3.5c0,0.7,0.2,1.4,0.5,2.1c0.4,0.8,0.8,1.6,1.3,2.4
							c0.9,1.6,1.8,3.3,2.7,5l-1.2-0.3c14.5-7.8,32.3-17.4,32.3-17.4l12.5-6.9l-0.1,0.1c1.4-3,3.2-5.8,5.4-8.3
							c2.2-2.5,4.6-4.7,7.4-6.6c5.5-3.7,12-5.8,18.6-6.1c2.1,0,4.2,0.1,6.2,0.4c0,0,0,0,0,0l46.5-24.3c0.7-0.4,1-1.2,0.6-1.9l0-0.1
							L164.7,165.8z"/>
						<path fill="#3D3D3D" d="M164,169.6l2.6,4.7l0.3-1.1l-0.6,0.3l-45.5,24.9l0.8-0.1c-4.6-0.6-9.4-0.3-13.9,0.8
							c-4.6,1.1-8.9,3.2-12.7,5.9c-5.2,3.8-9.4,8.9-12.1,14.7l0.6-0.7l-25.4,14.2l-19.1,10.4l2.3,0.7l-4-7.4
							c-0.4-0.9-0.5-1.9-0.2-2.8c0.3-0.9,0.9-1.7,1.7-2.1c0,0-0.3,0.2-0.7,0.6c-0.4,0.4-0.9,1.1-0.9,2.1c0,0.5,0,1,0.2,1.5
							c0.1,0.1,0.1,0.3,0.2,0.4l0.1,0.2l0.2,0.3c0.2,0.4,0.5,0.8,0.8,1.3c1,1.7,2.2,3.6,3.3,5.6l-3.3-0.9c9-5.3,19.2-11.4,21.3-12.6
							c2.1-1.1,14.1-7.8,22.9-12.6l-1.2,1.3c3-6.5,7.4-11.1,10.9-13.9c1.7-1.4,3.2-2.3,4.2-3c1-0.6,1.6-0.9,1.6-0.9
							c7.1-3.9,15.5-5.6,23.5-4.5l-1.7,0.3l18-10l28.7-14l-0.4,1.5L164,169.6z"/>
						<path fill="#3D3D3D" d="M42,241.4l-2.4-4l-1-1.6c-0.1-0.3-0.2-0.6-0.2-0.9c0-0.6,0.2-1.3,0.7-1.8c0.1-0.1,0.1-0.1,0.2-0.2
							l0.1-0.1c0,0,0.1-0.1,0.2-0.1l1-0.6l2-1.2l15.9-9.8l10.1-5.5c0.6-0.4,1-1,1.1-1.7l0-0.1l0.9-7.6l0.4-3.8l0.2-1.9
							c0-0.4,0.1-0.5,0.1-0.8c0-0.2,0.1-0.5,0.2-0.7c0.5-1.8,1.7-3.5,3.3-4.5l6.4-3.6l13-7.3L82.7,191l-5.7,3.6l-1.4,0.9
							c-0.3,0.2-0.6,0.4-0.8,0.7c-0.5,0.5-0.9,1.1-1.2,1.7c-0.5,0.8-0.8,1.7-0.9,2.6l-0.5,4.5l-1,9.1c-0.1,1.3-0.9,2.4-2,3l-3.5,2
							l-19.6,10.8l-4.9,2.7l-1.2,0.7l-0.3,0.2c0,0-0.1,0-0.1,0.1c-0.1,0-0.1,0.1-0.2,0.1c-0.2,0.2-0.4,0.4-0.5,0.7
							c-0.1,0.3-0.2,0.6-0.1,0.9c0,0.1,0,0.3,0.1,0.4c0,0.1,0.1,0.1,0.1,0.2l0.3,0.6L42,241.4z"/>
						<path fill="#3D3D3D" d="M120.9,195.6l-1.2,0.7l2.2-0.4c-0.6-0.1-1.2-0.1-1.8-0.2c-8-0.7-16.3,1.3-23.2,5.4
							c-7,4.1-12.7,10.3-16,17.7l1.5-1.6l-3.2,1.8l-27.7,14.6l-14.1,7.6l6.1,1.7l-3.8-7l-0.1-0.2c0-0.1-0.1-0.2-0.1-0.1
							c0,0,0-0.1,0-0.1c0-0.1,0-0.1,0-0.2c0-0.1,0-0.2,0-0.3c0-0.2,0.2-0.4,0.3-0.5l13-7c0,0-5.8,3.4-12,7.1l-0.6,0.3c0,0,0,0,0,0
							c0,0,0,0,0,0.1c0,0,0,0.1,0,0.1c0,0,0,0.1,0.1,0.1c0,0,0,0,0,0c0.2,0.3,0.4,0.7,0.6,1c1.6,2.7,2.8,4.9,3.4,5.9l0.2,0.4
							l-7.6-2.2l25.7-14.3l19.1-10l-2.1,2.3c0.9-1.8,1.9-3.6,3-5.2c4.3-6.3,10.5-11.3,17.4-14.2c6.9-3,14.6-4,21.9-2.8l-2.2,0.4
							L120.9,195.6z"/>
						<path fill="#3D3D3D" d="M116.8,172.6c0,0-0.9-0.4-2.4-1c-1.9-0.9-5.5-1.8-9.3-0.8c-1,0.2-2,0.6-2.9,1.1
							c-0.5,0.3-0.8,0.4-1.2,0.6c-0.3,0.2-0.7,0.4-1.1,0.6c-1.4,0.8-2.9,1.6-4.5,2.5c-3.1,1.7-6.5,3.6-9.8,5.5
							c-3.4,1.9-6.8,3.7-10,5.5c-0.8,0.4-1.6,0.9-2.4,1.3c-0.4,0.2-0.8,0.4-1.2,0.6l-0.3,0.2l-0.4,0.2c-0.3,0.2-0.5,0.3-0.8,0.5
							c-2,1.4-3.5,3.2-4.5,5.1c-0.5,0.9-0.9,1.9-1.1,2.9c-0.1,0.5-0.2,0.9-0.3,1.4c-0.1,0.5-0.1,1-0.2,1.2c-0.1,1.3-0.3,2.4-0.4,3.3
							c-0.2,1.9-0.3,3.2-0.4,3.5c0,0.3-0.1,1.2-0.6,6.4l2.1-3.2c-3.2,1.8-13.7,7.9-23.7,13.6c-1.2,0.7-2.5,1.4-3.7,2.1
							c-0.6,0.3-1.2,0.7-1.8,1c-0.9,0.5-1.8,1.3-2.5,2.1c-1.4,1.7-2.1,3.8-2.2,5.8c0,1,0.1,2,0.4,2.9c0.2,0.4,0.3,0.9,0.5,1.3
							c0.1,0.2,0.2,0.4,0.3,0.6l0.2,0.4c2.1,3.7,3.6,6.3,3.9,6.8l0,0.1c0.9,1.6,3,2.2,4.6,1.3c2.4-1.4,2.6-1.4,2.6-1.4l24.9-13.5
							l17.4-9.2c0.8-0.4,1.3-1,1.7-1.7L88,222c2.1-4.2,5-7.9,8.6-10.8c3.3-2.8,7.3-4.9,11.4-6.1c4.2-1.2,8.6-1.5,12.8-1
							c1,0.1,2-0.1,2.8-0.5l0,0l12-6.6l-11.9,6.9c-0.9,0.5-1.9,0.7-2.9,0.6l-0.2,0c-8.1-0.9-16.4,1.7-22.6,6.8
							c-3.9,2.9-7.1,6.8-9.2,11.3l-0.1,0.1c-0.5,1-1.2,1.8-2.1,2.3l-25.6,13.8c0,0-12.2,6.4-19.2,10.3l0,0c-2.2,1.2-4.9,0.4-6.1-1.8
							c-0.9-1.6-1.6-2.9-2.1-3.8c-0.4-0.6-0.8-1.4-1.4-2.4c-0.1-0.2-0.3-0.5-0.4-0.7c-0.1-0.1-0.2-0.3-0.2-0.4
							c-0.1-0.2-0.2-0.5-0.4-0.7c-0.5-1-0.8-2.2-0.9-3.4c-0.3-2.4,0.4-5.2,2.1-7.4c0.4-0.5,0.9-1,1.4-1.5c0.3-0.2,0.5-0.4,0.8-0.6
							l0.4-0.3l0.4-0.2c0.6-0.4,1.3-0.8,2-1.2c5.2-3.1,10.4-6.2,12.6-7.4c1.8-1,7.4-4.2,14.6-8.3l-2.7,4.2c0.2-2.3,0.4-4.7,0.7-7.2
							c0.1-1.2,0.2-2.4,0.3-3.6c0.1-0.6,0.1-1.2,0.2-1.7c0-0.3,0.1-0.6,0.1-0.8l0-0.5l0.1-0.6c0.5-3.4,2.1-6.1,3.7-7.9
							c1.6-1.8,3.1-2.8,3.8-3.2c0.4-0.2,0.5-0.3,0.9-0.5c0.3-0.2,0.7-0.4,1.1-0.6c0.8-0.4,1.8-0.9,2.8-1.5c2.1-1.1,4.7-2.4,7.2-3.7
							c4.9-2.5,9.4-4.8,9.4-4.8l5-2.6l2.5-1.3l1.3-0.6l0.7-0.3c0.3-0.1,0.6-0.3,0.9-0.4c2.5-1.1,5.2-1.4,7.9-1
							c1.3,0.2,2.6,0.6,3.8,1.1L116.8,172.6z"/>
					</g>
				</g>
			</g>
			<g>
				<g>
					<g>
						<path fill="#3D3D3D" d="M60.5,213l2,3.5c0.2,0.3,0.1,0.8-0.3,1l0,0l-8.6,4.9l-10.8,5.8c0,0-0.3,0.2-0.9,0.5
							c-0.3,0.2-0.6,0.1-0.8-0.2l0,0c-0.3-0.5-0.7-1.3-1.2-2.1c-0.2-0.4-0.5-0.9-0.8-1.3c-0.3-0.5-0.5-1-0.6-1.6
							c-0.3-1.1-0.2-2.2,0-3.1c0.2-0.8,0.5-1.4,0.7-1.6c0.2-0.3,0.6-1,1.4-1.6c0.8-0.7,1.8-1.1,2.8-1.7c2-1.1,4-2.2,4.4-2.4
							c0.5-0.3,1.7-1,3.1-1.7c0.7-0.3,1.3-0.7,2-1c0.7-0.3,1.4-0.4,1.8-0.4c0.9-0.1,2.7,0.3,3.8,1.2c0.6,0.5,1,1,1.3,1.4
							c0.3,0.4,0.4,0.7,0.4,0.7s-0.1-0.2-0.4-0.6c-0.2-0.3-0.6-0.8-1.2-1.2c-1.1-0.9-3.2-1.6-5.1-1c-0.5,0.1-1,0.3-1.4,0.6
							c-0.4,0.2-0.8,0.5-1.3,0.7c-0.8,0.5-1.6,0.9-2.3,1.3c-1.4,0.8-2.5,1.4-2.9,1.6c-0.8,0.4-2.3,1.3-3.8,2.1
							c-0.8,0.4-1.4,1-1.9,1.6c-0.5,0.6-0.7,1.2-0.9,1.6c-0.3,0.8-0.5,2.2-0.2,3.4c0.1,0.6,0.4,1.2,0.7,1.7c0.2,0.5,0.4,0.8,0.6,1.1
							c0.2,0.4,0.6,1.2,1.2,2.2c0.1,0.2,0.3,0.3,0.5,0.2l0,0c1.6-0.9,3.5-1.9,4.3-2.3c1.2-0.6,7.6-4.3,8.6-4.8
							c0.9-0.5,2.7-1.5,4-2.3c0.6-0.4,2.1-1.1,3.5-1.8c0.2-0.1,0.3-0.4,0.2-0.6l0,0C61.4,214.8,60.5,213,60.5,213z"/>
						<path fill="#3D3D3D" d="M60.2,213.2l1.9,3.5l0,0c0.1,0.1,0,0.3-0.1,0.3l-1.6,0.9l-0.9,0.5c0,0-6.4,3.6-7.1,4
							c-0.7,0.4-5.7,3.3-6.9,3.9c-1,0.5-2.6,1.4-3.8,2.1l0,0c-0.1,0.1-0.2,0-0.3-0.1l0,0c-0.2-0.4-0.4-0.8-0.5-1
							c-0.1-0.2-0.4-0.7-0.7-1.3c-0.3-0.6-0.8-1.4-1.1-2.2c-0.3-0.8-0.3-1.6-0.3-2.3c0.1-0.6,0.2-1,0.2-1s0.1-0.4,0.3-0.9
							c0.2-0.6,0.7-1.3,1.3-1.8c0.6-0.6,1.4-1,2-1.3c0.6-0.3,1.1-0.6,1.3-0.7c0.7-0.4,6-3.3,6-3.3l1.8-1c0.6-0.3,1.2-0.7,1.9-0.8
							c1.3-0.3,2.8-0.2,4,0.5c0,0-0.5-0.3-1.5-0.5c-0.9-0.2-2.2-0.1-3.3,0.4c-2.2,1.2-4.5,2.6-4.9,2.8c-0.4,0.2-2.9,1.6-5.5,3.1
							c-0.7,0.4-1.2,0.7-1.7,1.2c-0.5,0.5-0.8,1-1.1,1.5c-0.5,1-0.5,1.8-0.5,2c0,0.2-0.1,1.3,0.4,2.5c0.6,1.2,1.4,2.7,2.1,3.9
							l-0.2-0.1c2.6-1.4,4.5-2.4,4.5-2.4l8.6-4.7l7.3-3.8c0.1,0,0.1-0.2,0.1-0.3l0,0L60.2,213.2z"/>
						<path fill="#3D3D3D" d="M60,213.9l0.5,1l1.1,2.1l0.1-0.2l-10.6,5.8l-7.6,4.2l-2.1,1.1l0.4,0.1l-1.1-2.1
							c-0.4-0.7-0.8-1.4-1.1-2c0,0,0.1,0.1,0.2,0.4c0.1,0.2,0.3,0.6,0.5,0.9c0.5,0.8,1.1,1.8,1.6,2.7l-0.7-0.2
							c1.2-0.7,2.3-1.3,2.5-1.5c0.7-0.4,7.9-4.3,7.9-4.3l6.9-3.9l3-1.5l-0.1,0.5L60,213.9z"/>
						<path fill="#3D3D3D" d="M41.2,226.1l-0.9-1.5c-0.3-0.5-0.5-0.9-0.7-1.4c-0.3-1-0.3-2.1,0-3.1c0.3-0.7,0.7-1.4,1.2-1.9
							c0.5-0.5,1.2-0.9,1.9-1.3l4.8-2.7l-4.1,2.6c-0.6,0.3-1.2,0.7-1.7,1c-0.5,0.3-0.9,0.8-1.2,1.3c-0.7,1-1,2.2-0.8,3.4
							c0.1,0.6,0.3,1.2,0.6,1.7L41.2,226.1z"/>
						<path fill="#3D3D3D" d="M55.5,219.6l-0.5,0.3l-7.6,4.2l-5.1,2.7l-1.2,0.6l1.1,0.3l-1.8-3.2c-0.6-1-0.8-2-0.7-3
							c0,0,0,0.3,0,0.7c0,0.4,0.1,0.9,0.3,1.4c0.1,0.3,0.2,0.5,0.4,0.8c0.2,0.3,0.3,0.6,0.5,0.8c0.3,0.5,0.5,0.9,0.6,1.1l0.8,1.4
							l-1.4-0.4l3.3-1.9l4.3-2.3L55.5,219.6z"/>
						<path fill="#3D3D3D" d="M50.9,211.1c0,0-2.4,1.3-4.9,2.7c-1.2,0.7-2.5,1.4-3.4,1.9c-0.5,0.3-0.9,0.5-1.2,0.7
							c-0.3,0.2-0.6,0.3-0.6,0.4c-0.1,0.1-0.8,0.6-1.5,1.6c-0.7,1-1.2,2.5-1,4c0.1,0.8,0.3,1.5,0.6,2.1c0.3,0.6,0.6,1.1,0.9,1.5
							c0.5,0.9,0.8,1.4,0.8,1.4l0.5,0.9c0.2,0.3,0.6,0.4,0.9,0.3l0,0l3.6-2l5.7-3l7-3.8l-6.7,3.9l-7.5,4c0,0-1.1,0.6-2.1,1.1l0,0
							c-0.4,0.2-0.9,0.1-1.1-0.3c-0.4-0.8-0.9-1.7-1.1-2.1c-0.1-0.2-0.3-0.6-0.6-1c-0.2-0.4-0.6-1-0.8-1.6c-0.4-1.2-0.4-2.6-0.3-3.1
							c0.1-0.3,0.2-0.9,0.5-1.6c0.3-0.7,0.9-1.5,1.6-2.2c0.4-0.3,0.8-0.6,1.1-0.8c0.3-0.2,0.6-0.4,0.9-0.5c0.6-0.3,1-0.6,1.1-0.6
							c0.6-0.3,3.9-2,3.9-2L50.9,211.1z"/>
					</g>
				</g>
			</g>
			<g>
				<g>
					<g>
						<path fill="#3D3D3D" d="M109.1,271.2l-9.5,5.4l-8.5,4.5c0,0-6.7,3.8-7.4,4.3s-6.2,3.4-6.9,3.8c-0.7,0.4-4,2.1-5.1,2.8
							c-1.1,0.6-4.4,2.2-4.4,2.2s9.9-5.6,11.2-6.3c1.3-0.7,4.7-2.6,5.8-3.2c1.1-0.6,3.6-2,4.3-2.3c0.8-0.4,4.1-2.3,5.1-2.7
							c1-0.5,6-3.4,6.7-3.8c0.7-0.4,2-1.2,3.2-1.8C104.6,273.3,109.1,271.2,109.1,271.2z"/>
						<path fill="#3D3D3D" d="M108.9,270.9l-4,2.2l-0.7,0.4c0,0-5,2.8-5.6,3.1s-4.5,2.6-5.4,3.1s-3.2,1.7-3.8,2
							c-0.6,0.3-4.9,2.6-4.9,2.6s-4.3,2.4-4.9,2.7s-4.7,2.6-4.7,2.6l-5.7,3c0,0,6.7-3.9,7.2-4.2s8.1-4.5,8.6-4.8
							c0.6-0.3,8.5-4.6,8.5-4.6l6.8-3.7L108.9,270.9z"/>
						<path fill="#3D3D3D" d="M108.4,270.8l-0.8,0.4l-10,5.5l-6,3.3l-4.9,2.7c0,0,4.6-2.8,5.2-3.1c0.6-0.3,6.2-3.4,6.2-3.4l5.4-3
							L108.4,270.8z"/>
						<polygon fill="#3D3D3D" points="88.5,281.4 83.9,284.2 80.6,286.1 76.8,288.1 80.1,286.1 82.9,284.5 						"/>
						<path fill="#3D3D3D" d="M101.1,274.4l-0.4,0.2l-6,3.3l-4,2.1l-6,3.3c0,0,3.3-2,3.9-2.3s3.7-2.1,3.7-2.1l3.4-1.8L101.1,274.4z"
							/>
						<path fill="#3D3D3D" d="M74.2,290.7c0,0,7.6-4.2,7.9-4.4c0.4-0.2,7.5-4.3,7.5-4.3l3.6-1.9l4.5-2.4l5.5-3l-5.2,3l-5.9,3.2
							c0,0-2.6,1.4-3.3,1.8c-0.7,0.4-3,1.8-3.7,2.2c-0.6,0.4-4.5,2.6-5,2.8c-0.5,0.3-3.1,1.6-3.1,1.6L74.2,290.7z"/>
					</g>
				</g>
			</g>
			<g>
				<g>
					<g>
						<path fill="#3D3D3D" d="M194.9,223.3l-9.8,5.6l-8.8,4.7c0,0-6.9,3.9-7.7,4.4c-0.8,0.5-6.4,3.5-7.2,4c-0.8,0.5-4.1,2.2-5.3,2.9
							c-1.2,0.6-4.6,2.3-4.6,2.3s10.2-5.7,11.6-6.5c1.4-0.7,4.8-2.7,6-3.3c1.2-0.6,3.7-2.1,4.5-2.4c0.8-0.4,4.3-2.3,5.3-2.8
							c1-0.5,6.2-3.5,7-3.9c0.8-0.4,2.1-1.2,3.3-1.9C190.3,225.6,194.9,223.3,194.9,223.3z"/>
						<path fill="#3D3D3D" d="M194.7,223.1l-4.2,2.3l-0.8,0.4c0,0-5.2,2.9-5.7,3.2c-0.6,0.3-4.6,2.6-5.6,3.2c-1,0.5-3.3,1.8-3.9,2.1
							c-0.6,0.3-5.1,2.7-5.1,2.7s-4.4,2.5-5,2.8c-0.6,0.3-4.8,2.7-4.8,2.7l-5.9,3.1c0,0,6.9-4,7.5-4.4c0.6-0.3,8.3-4.6,8.9-5
							c0.6-0.3,8.8-4.7,8.8-4.7l7-3.9L194.7,223.1z"/>
						<path fill="#3D3D3D" d="M194.2,223l-0.8,0.4l-10.3,5.6l-6.2,3.5l-5.1,2.7c0,0,4.8-2.8,5.3-3.2c0.6-0.3,6.4-3.5,6.4-3.5
							l5.6-3.1L194.2,223z"/>
						<polygon fill="#3D3D3D" points="173.6,233.9 168.9,236.8 165.4,238.7 161.5,240.9 164.9,238.8 167.8,237.1 						"/>
						<path fill="#3D3D3D" d="M186.6,226.7l-0.4,0.2l-6.2,3.5l-4.1,2.2l-6.2,3.4c0,0,3.4-2,4-2.4c0.6-0.3,3.9-2.2,3.9-2.2l3.5-1.9
							L186.6,226.7z"/>
						<path fill="#3D3D3D" d="M158.8,243.5c0,0,7.8-4.3,8.2-4.6c0.4-0.2,7.8-4.5,7.8-4.5l3.7-2l4.7-2.5l5.7-3.1l-5.4,3.1l-6.1,3.3
							c0,0-2.7,1.4-3.4,1.8c-0.7,0.4-3.1,1.9-3.8,2.3c-0.7,0.4-4.7,2.7-5.2,2.9c-0.5,0.3-3.2,1.6-3.2,1.6L158.8,243.5z"/>
					</g>
				</g>
			</g>
			<g>
				<g>
					<g>
						<path fill="#3D3D3D" d="M150.9,216.6c2.3,4,3.9,8.5,4.6,13.1c0.7,4.6,0.6,9.3-0.3,13.9c-1.8,9.2-7.1,17.6-14.6,23.3
							c-6.7,4.8-15,7.5-23.2,7.4c-8.2-0.1-16.3-2.8-22.7-7.7c0,0-0.5-0.3-1.3-1c-0.9-0.6-2-1.6-3.4-2.9c-1.3-1.3-2.8-2.9-4.2-4.8
							c-1.4-1.9-2.7-4.1-3.8-6.4c-2.2-4.7-3.3-9.9-3.5-14.2c-0.2-4.3,0.3-7.5,0.5-8.6c0.1-1.1,0.7-3.8,2-7.2
							c1.3-3.4,3.6-7.4,6.5-10.8c2.9-3.4,6.5-6.2,9.6-8.1c3.1-1.9,5.8-2.8,6.8-3.2c1-0.4,2.9-1,5.3-1.5c2.4-0.5,5.3-0.8,8.3-0.7
							c3,0.1,6,0.6,8.6,1.2c2.6,0.7,4.8,1.6,6.3,2.2c1.5,0.7,3.6,1.8,5.7,3.3c2.1,1.5,4.3,3.5,6,5.5c1.7,2,3.1,4,4,5.6
							c0.5,0.8,0.8,1.4,1,1.9c0.2,0.4,0.4,0.7,0.4,0.7s-0.4-0.7-1.2-2.1c-0.9-1.3-2.1-3.1-3.9-5c-1.8-1.9-4.1-4.1-7-5.9
							c-2.8-1.8-6.2-3.4-9.7-4.5c-3.5-1-7.3-1.6-10.9-1.6c-3.6,0-7.1,0.6-10.1,1.5c-6,1.7-10.1,4.6-11.6,5.6c-1.5,1-3.5,2.7-5.5,4.8
							c-2,2.1-3.9,4.8-5.4,7.6c-1.5,2.8-2.6,5.8-3.3,8.5c-0.7,2.7-1,5-1.1,6.6c-0.2,1.6-0.2,3.6,0,5.8c0.2,2.2,0.6,4.6,1.3,6.9
							c0.6,2.3,1.5,4.4,2.3,6.2c0.9,1.8,1.7,3.2,2.2,4.1c0.5,0.9,1.6,2.6,3.2,4.5c1.6,1.9,3.8,3.9,6.2,5.7c2.4,1.8,5.1,3.2,7.5,4.2
							c2.4,1,4.5,1.6,5.8,2c1.3,0.4,4,1,7.6,1.1c3.5,0.1,7.8-0.4,11.9-1.6c4.1-1.2,7.8-3.2,10.6-5.1c2.8-1.9,4.6-3.8,5.4-4.5
							c1.5-1.5,3.4-3.8,5-6.5c1.7-2.7,3.1-5.9,4-8.9c0.5-1.5,1.3-4.1,1.7-7.3c0.5-3.2,0.6-6.9,0.1-10.3c-0.4-3.5-1.3-6.7-2.2-9
							c-0.4-1.1-0.8-2.1-1.1-2.7C151.1,216.9,150.9,216.6,150.9,216.6z"/>
						<path fill="#3D3D3D" d="M149.7,217.2c3.6,6.6,5.1,14.3,4.3,21.7c-0.1,0.7-0.2,1.3-0.3,2c-0.1,0.7-0.2,1.3-0.4,2
							c0,0-0.1,0.4-0.3,1.2c-0.1,0.4-0.2,0.8-0.3,1.3c-0.2,0.5-0.3,1.1-0.5,1.7c-0.8,2.5-2.3,5.8-4.3,8.9c-2,3.1-4.6,5.8-7,7.8
							c-2.4,1.9-4.4,3.2-5,3.5c-0.7,0.4-2.4,1.4-4.7,2.4c-1.2,0.5-2.6,1-4,1.4c-1.5,0.4-3.1,0.8-4.7,1c-3.2,0.5-6.6,0.5-9.4,0.2
							c-2.8-0.3-5.1-0.9-6.4-1.3c-1.2-0.4-2.9-1-4.7-1.8c-1.8-0.8-3.7-1.9-5.4-3.1c-1.7-1.2-3.3-2.5-4.5-3.6
							c-1.2-1.2-2.1-2.2-2.6-2.8c-0.5-0.6-1.8-2.2-3.2-4.5c-1.4-2.3-2.8-5.2-3.8-8.2c-1-3-1.4-6.1-1.6-8.3c-0.1-2.3-0.1-3.7-0.1-3.7
							s0-1.5,0.2-3.7c0.2-2.2,0.8-5.3,1.9-8.2c1-3,2.5-5.9,4-8.1c1.5-2.2,2.9-3.7,3.4-4.3c0.5-0.6,1.9-2,3.9-3.6
							c2-1.6,4.6-3.3,7.4-4.6c2.7-1.3,5.6-2.2,7.7-2.6c2.1-0.5,3.5-0.6,3.5-0.6c10.3-1.1,20.9,2.4,28.4,9.3c0,0-0.1-0.1-0.3-0.3
							c-0.2-0.2-0.5-0.4-0.9-0.7c-0.8-0.6-2-1.5-3.5-2.4c-3-1.8-7.3-3.7-11.9-4.6c-4.6-0.9-9.5-0.8-13.2,0c-3.7,0.7-6.3,1.8-7,2.1
							c-0.7,0.3-3.6,1.4-7.1,3.7c-3.5,2.3-7.4,6.1-10.2,10.7c-2.8,4.6-4.4,9.8-4.9,14c-0.5,4.2-0.2,7.3-0.1,8
							c0.1,0.7,0.3,3.9,1.7,8.1c1.3,4.1,4,9.1,7.8,13.1c3.7,4,8.4,6.9,12.1,8.5c1.9,0.8,3.5,1.3,4.6,1.6c0.6,0.2,1,0.3,1.3,0.3
							c0.3,0.1,0.5,0.1,0.5,0.1c6,1.2,12.2,1,18.1-0.8c5.8-1.8,11.2-5.1,15.4-9.5c5.4-5.4,9.1-12.6,10.3-20.3
							C154.8,232.3,153.4,224.2,149.7,217.2z"/>
						<path fill="#3D3D3D" d="M149.2,219.8c0.3,0.6,0.6,1.2,0.8,1.9c0.2,0.6,0.5,1.3,0.7,1.9c2.9,8.4,2.5,17.8-1.1,25.9
							c-3.5,8.1-10.2,14.7-18.3,18.2c-4.8,2.1-10.2,3.2-15.5,3c-5.3-0.2-10.5-1.6-15.2-4c-3.8-2.1-7.2-4.8-10-8c-2.8-3.3-5-7-6.4-11
							c0,0,0.1,0.4,0.4,1c0.3,0.6,0.7,1.5,1.3,2.5c1.1,2.1,2.9,4.7,5,7.1c2.2,2.4,4.8,4.4,7.1,5.9c2.3,1.4,4.2,2.2,4.8,2.5
							c0.7,0.3,2.8,1.3,5.8,2.1c3,0.8,6.9,1.3,10.7,1c3.8-0.2,7.4-1.2,10-2.2c1.3-0.5,2.3-1,3-1.3c0.7-0.4,1.1-0.6,1.1-0.6
							c8.2-4.5,14.4-12.4,16.7-21.5C152.8,236.3,152.5,227.6,149.2,219.8z"/>
						<path fill="#3D3D3D" d="M90,255.4c-5-6.2-7.8-14.2-7.6-22.4c0.4-5.9,2.4-11.6,5.7-16.5c3.5-5.5,8.6-9.9,14.6-12.6
							c-5.2,2.8-9.5,6.8-12.6,11.6c-2.8,3.8-4.8,8.2-5.7,12.8c-1,4.6-1,9.4-0.1,14.1C85.2,247.2,87.2,251.6,90,255.4z"/>
						<path fill="#3D3D3D" d="M144.7,254.9c-0.4,0.5-0.7,1-1.1,1.5c-6.3,8-16.3,12.9-26.5,12.8c-6.7-0.2-13.2-2.4-18.6-6.2
							c-4.1-2.9-7.5-6.7-9.9-11c-2.4-4.3-3.9-9.2-4.2-14.1c0,0,0,0.3,0.1,0.7c0.1,0.5,0.1,1.1,0.3,1.9c0.3,1.6,0.8,3.7,1.6,5.8
							c1.5,4.2,4.4,8.2,5.3,9.2c0.8,1.1,3.8,4.6,7.4,6.9c1.8,1.2,3.6,2.1,4.9,2.7c0.7,0.3,1.3,0.5,1.7,0.7c0.4,0.2,0.6,0.2,0.6,0.2
							c5.1,2,10.8,2.7,16.3,1.9C131.1,266.7,139.3,262,144.7,254.9z"/>
						<path fill="#3D3D3D" d="M118.3,196.4c0,0-0.7,0-1.9,0c-1.2,0-3,0.1-5,0.4c-4.2,0.6-9.6,2.2-14.5,5.2c-4.9,2.9-9,7.1-11.6,10.8
							c-2.6,3.7-3.8,6.6-4,7.1c-0.2,0.5-1.4,3.3-2.3,7.5c-0.4,2.1-0.7,4.5-0.7,7.1c0,2.6,0.2,5.3,0.7,7.9c0.5,2.6,1.3,5.2,2.3,7.5
							c1,2.3,2.1,4.3,3.2,6c1.1,1.7,2.1,3,2.8,3.8c0.4,0.4,0.7,0.8,0.9,1c0.2,0.2,0.3,0.3,0.3,0.3c4.5,5.2,10.5,9.1,17.1,11.3
							c8.2,2.8,17.5,2.7,25.8-0.3c5-1.9,9.7-4.9,13.6-8.6c3.9-3.8,6.9-8.4,9-13.4c-1.9,4.9-4.7,9.4-8.4,13.2
							c-3.7,3.8-8.1,6.9-12.9,9c-5.4,2.2-11.3,3.1-17.1,2.8c-5.8-0.4-11.5-2-16.6-4.7c0,0-0.8-0.5-2.1-1.2c-1.3-0.8-2.9-2-4.6-3.4
							c-1.6-1.4-3.3-3-4.6-4.6c-0.6-0.8-1.3-1.5-1.7-2.2c-0.5-0.7-0.9-1.2-1.2-1.7c-1.2-1.7-3.7-5.7-5.2-10
							c-0.8-2.1-1.3-4.4-1.6-6.3c-0.3-1.9-0.4-3.5-0.5-4.5c0-0.5,0-1.3,0-2.3c0.1-1,0.1-2.3,0.3-3.6c0.3-2.8,1-6.1,2.2-9.3
							c1.1-3.2,2.7-6.1,4.2-8.3c1.5-2.2,2.8-3.7,3.2-4.2c0.4-0.5,1.5-1.6,2.8-2.8c1.4-1.2,3.1-2.5,4.9-3.6c3.5-2.2,7.1-3.5,7.1-3.5
							C107.1,196.9,112.8,196,118.3,196.4z"/>
					</g>
				</g>
			</g>
			<g>
				<g>
					<g>
						<path fill="#3D3D3D" d="M109.1,263.8c-6.8-1.8-13-6.2-16.9-12.2c-1.7-2.7-2.9-5.6-3.6-8.6c-0.8-3-1-6.2-0.8-9.2
							c0,0,0-0.2,0-0.6c0-0.4,0.1-1,0.2-1.7c0-0.4,0.1-0.7,0.1-1.1c0.1-0.4,0.2-0.8,0.3-1.3c0.1-0.4,0.2-0.9,0.3-1.4
							c0.1-0.5,0.3-0.9,0.4-1.4c1.2-3.8,3.4-7.3,3.9-8c0.4-0.7,2.6-3.4,5.2-5.6c2.6-2.2,5.8-3.7,6.5-4c0.7-0.4,2.8-1.2,5-1.7
							c2.2-0.5,4.6-0.7,5.8-0.8c1.2-0.1,3.6,0.1,5.6,0.5c1,0.2,1.9,0.5,2.6,0.6c0.7,0.2,1.1,0.3,1.1,0.3s-0.3-0.1-0.9-0.2
							c-0.6-0.1-1.4-0.3-2.4-0.5c-1-0.2-2.2-0.3-3.5-0.3c-1.3,0-2.7,0-4.2,0.2c-1.4,0.2-2.9,0.4-4.2,0.8c-1.4,0.4-2.6,0.8-3.7,1.3
							c-1.1,0.5-2.1,1-2.8,1.4c-0.7,0.4-1.3,0.8-1.6,1c-0.3,0.2-0.7,0.4-1.1,0.7c-0.4,0.3-0.8,0.6-1.2,1c-0.9,0.7-1.8,1.6-2.7,2.4
							c-0.5,0.4-0.8,0.9-1.2,1.4c-0.4,0.5-0.8,0.9-1.1,1.3c-0.6,0.9-1.1,1.6-1.5,2.1c-0.3,0.5-0.7,1.2-1.1,2
							c-0.4,0.7-0.8,1.6-1.2,2.5c-0.7,1.7-1.2,3.4-1.4,4.1c-0.1,0.4-0.4,1.1-0.5,2.1c-0.1,0.5-0.1,1-0.2,1.5c0,0.3-0.1,0.5-0.1,0.8
							c0,0.3,0,0.6,0,0.9c0,0.6-0.1,1.2-0.1,1.7c0,0.6,0,1.1,0.1,1.6c0,0.5,0,1,0.1,1.4c0,0.4,0.1,0.7,0.1,1c0.1,1,0.7,4.3,2,7.3
							c0.7,1.5,1.4,2.9,2.1,4c0.7,1.1,1.3,1.9,1.6,2.2c1,1.3,3,3.4,4.9,4.9c0.9,0.8,3.3,2.6,5.7,3.9c1.2,0.6,2.3,1.1,3.2,1.5
							C108.6,263.6,109.1,263.8,109.1,263.8z"/>
						<path fill="#3D3D3D" d="M109.3,263.3c-2.8-0.8-5.5-2.1-7.9-3.7c-0.4-0.3-0.9-0.6-1.3-0.9c0,0-2.2-1.6-4.2-3.7
							c-2-2.1-3.6-4.7-3.8-5.2c-0.2-0.3-0.5-0.9-1-1.8c-0.5-0.9-0.9-2-1.4-3.2c-0.3-0.6-0.4-1.2-0.6-1.8c-0.2-0.6-0.3-1.2-0.4-1.7
							c-0.2-1.1-0.3-2-0.4-2.5c0-1-0.2-2.7-0.1-4.4c0-0.4,0-0.8,0.1-1.2c0-0.4,0.1-0.7,0.1-1.1c0.1-0.6,0.2-1.1,0.2-1.5
							c0.1-0.6,0.7-3.2,1.6-5.5c0.5-1.1,1-2.2,1.4-3c0.4-0.8,0.7-1.3,0.7-1.3s0.1-0.1,0.2-0.3c0.1-0.2,0.3-0.5,0.6-0.9
							c0.5-0.7,1.1-1.7,2-2.7c0.4-0.5,0.8-1,1.2-1.4c0.4-0.4,0.9-0.8,1.2-1.2c0.7-0.8,1.4-1.2,1.6-1.4c0.3-0.2,0.8-0.7,1.7-1.2
							c0.9-0.5,1.9-1.2,2.9-1.7c2.1-1.1,4.2-1.8,4.2-1.8c3.9-1.2,8-1.6,11.9-1.1c0,0-0.2,0-0.6-0.1c-0.4,0-1-0.1-1.6-0.1
							c-1.4,0-3.2,0.1-5.1,0.4c-3.7,0.6-7.3,2.3-7.8,2.5c-0.5,0.2-4.4,2.2-7.5,5.2c-0.8,0.7-1.5,1.5-2.1,2.3
							c-0.7,0.7-1.2,1.6-1.7,2.2c-0.5,0.7-0.8,1.3-1.1,1.8c-0.3,0.5-0.5,0.8-0.5,0.9c-0.2,0.2-0.7,1.4-1.4,3
							c-0.3,0.8-0.7,1.7-0.9,2.7c-0.2,1-0.6,2.1-0.7,3.1c-0.1,0.5-0.2,1.1-0.2,1.6c-0.1,0.5-0.1,1-0.1,1.5c0,0.5-0.1,1-0.1,1.4
							c0,0.5,0,0.9,0.1,1.3c0,0.8,0.1,1.5,0.1,1.9c0.1,0.5,0.1,0.7,0.1,0.7c0.3,2.4,1.1,4.7,1.9,6.9c0.5,1.1,1,2.2,1.6,3.2
							c0.6,1,1.3,2,2,3C98.2,257.8,103.4,261.5,109.3,263.3z"/>
						<path fill="#3D3D3D" d="M108.7,262.4c-0.5-0.2-1-0.3-1.5-0.5c-6.6-2.5-12.1-7.5-15.1-13.9c-1.9-3.8-2.9-8-3-12.2
							c0-3.4,0.6-6.9,1.9-10c0,0-0.2,0.6-0.5,1.5c-0.2,0.4-0.3,1-0.4,1.6c-0.1,0.6-0.3,1.2-0.4,1.9c-0.1,1.3-0.3,2.6-0.3,3.7
							c0,0.5,0,1,0,1.4c0,0.4,0.1,0.7,0.1,0.8c0,0.6,0.1,3.8,1.1,6.8c0.2,0.7,0.5,1.4,0.7,2.1c0.1,0.3,0.2,0.7,0.4,1
							c0.1,0.3,0.3,0.6,0.4,0.8c0.5,1,0.8,1.7,0.8,1.7c1.8,3.3,4.3,6.2,7.3,8.5C102.7,259.5,105.6,261.2,108.7,262.4z"/>
						<path fill="#3D3D3D" d="M90.3,229.6c0.5-3.2,1.6-6.3,3.3-9.2c1.4-1.9,2.8-3.8,4.6-5.4c0.9-0.9,2-1.7,3-2.5
							c1.1-0.7,2.2-1.4,3.4-2c-1,0.6-2,1.3-2.9,2c-0.5,0.3-0.9,0.8-1.3,1.1c-0.4,0.4-0.9,0.7-1.3,1.2c-1.4,1.3-2.8,2.7-3.9,4.3
							C92.7,222.3,91.1,225.9,90.3,229.6z"/>
						<path fill="#3D3D3D" d="M96.7,253.9c-0.2-0.2-0.4-0.4-0.5-0.6c-2.7-3.2-4.6-6.9-5.7-10.9c-0.4-1.3-0.5-2.7-0.7-4
							c0-1.4-0.1-2.7,0-4c0.2-4.1,1.4-8.2,3.4-11.7c0,0-0.1,0.1-0.1,0.3c-0.1,0.2-0.2,0.4-0.3,0.7c-0.2,0.6-0.6,1.4-0.9,2.3
							c-0.3,0.9-0.6,1.8-0.8,2.6c-0.2,0.8-0.3,1.4-0.4,1.7c-0.1,0.3-0.2,0.9-0.3,1.6c-0.1,0.4-0.1,0.8-0.2,1.2c0,0.4,0,0.9-0.1,1.3
							c0,0.4,0,0.9,0,1.3c0,0.4,0,0.8,0.1,1.1c0,0.6,0.1,1,0.1,1c0,0.6,0.1,1.1,0.2,1.7c0.1,0.6,0.1,1.1,0.2,1.7l0.4,1.7
							c0.1,0.3,0.1,0.6,0.2,0.8l0.3,0.8c0.5,1.7,1.3,3.3,2.1,4.9C94.5,251,95.5,252.5,96.7,253.9z"/>
						<path fill="#3D3D3D" d="M110.1,206.7c0,0-1,0.2-2.5,0.7c-1.5,0.5-3.5,1.3-5.3,2.4c-3.8,2.1-6.9,5.4-7.1,5.7
							c-0.1,0.1-0.3,0.3-0.6,0.7c-0.3,0.4-0.8,0.9-1.2,1.6c-0.9,1.3-2,3.1-2.9,5c-0.4,0.9-0.8,1.9-1.1,2.8c-0.3,0.9-0.6,1.7-0.7,2.5
							c-0.2,0.7-0.3,1.3-0.4,1.8c-0.1,0.2-0.1,0.4-0.1,0.5c0,0.1,0,0.2,0,0.2c-0.5,2.6-0.5,5.2-0.3,7.9c0.3,3.3,1.1,6.5,2.5,9.6
							c1.7,3.7,4.2,7,7.2,9.8c-3-2.6-5.5-5.7-7.3-9.3c-1.9-4-2.9-8.3-2.9-12.7c0,0,0.1-1.4,0.2-3.1c0.1-0.8,0.2-1.7,0.4-2.4
							c0.1-0.8,0.3-1.4,0.4-1.8c0.1-0.4,0.2-1,0.4-1.7c0.2-0.7,0.5-1.5,0.7-2.4c0.3-0.8,0.7-1.6,0.9-2.2c0.3-0.7,0.6-1.2,0.8-1.5
							c0.3-0.6,1.6-2.9,3.3-4.8c0.4-0.5,0.8-1,1.2-1.4c0.4-0.4,0.8-0.8,1.2-1.1c0.7-0.7,1.3-1.2,1.5-1.3c0.4-0.3,1.8-1.4,3.1-2.1
							c0.7-0.4,1.3-0.8,1.8-1c0.5-0.2,0.8-0.4,0.8-0.4C106,207.8,108,207.1,110.1,206.7z"/>
					</g>
				</g>
			</g>
		</g>
		<g>
			<g>
				<g>
					<g>
						<path fill="#3D3D3D" d="M194.3,262.7c-3.2,0-6.3,2-7.5,4.9c-0.3,0.7-0.6,1.5-0.7,2.2c-0.1,0.4-0.1,0.8-0.1,1.2l0,1.3l0,5.4
							l-0.4,18.9c0,0,0,0.9,0,2.4c0,0.7,0,1.6,0,2.5c0,0.4,0,0.9,0.1,1.3c0.1,0.5,0.1,0.9,0.2,1.4c0.4,1.8,1.2,3.6,2,5
							c0.8,1.3,1.6,2.2,1.9,2.5c0.5,0.6,2.9,3,5.9,4.1c1.5,0.7,3.1,0.9,4.4,1.1c1.3,0.1,2.4,0.1,2.8,0.1c1.7,0,8.8,0.3,11.3,0.3
							c2.5,0,9.7,0.6,9.7,0.6s-5.6-0.1-11.5-0.2c-3,0-6-0.1-8.5-0.1c-2.5,0-4.4-0.1-5.1-0.3c-1.4-0.2-3.9-0.9-6-2.3
							c-2.2-1.3-3.9-3.2-4.5-4.2c-0.4-0.5-0.8-1.2-1.2-1.9c-0.4-0.8-0.8-1.6-1.1-2.5c-0.6-1.7-0.8-3.5-0.8-4.3c0-0.8,0-3.1,0-5.5
							c0-2.4,0-4.8,0.1-5.8c0.1-2.1-0.1-13.4-0.1-15.1c0-0.8,0-2-0.1-3.3c0-1.3-0.1-2.5,0.3-3.7c0.2-0.6,0.5-1.5,1.2-2.5
							c0.7-1,1.7-1.9,2.8-2.4c1.1-0.6,2.3-0.9,3.1-1c0.4-0.1,0.8-0.1,1,0C194.2,262.7,194.3,262.7,194.3,262.7z"/>
						<path fill="#3D3D3D" d="M194.3,262.2c-2.9,0-5.7,1.4-7.4,3.7c-0.3,0.4-0.6,0.9-0.8,1.3c0,0-0.3,0.6-0.6,1.6
							c-0.3,1-0.3,2.4-0.3,3.9c0,3,0,6.1,0,6.7c0,1.3,0.1,10.1,0.1,12.2c-0.1,2.1-0.1,7.1-0.1,8.4c0,0.6-0.1,3.4,0.6,5.8
							c0.2,0.6,0.4,1.2,0.6,1.7c0.2,0.5,0.5,1,0.7,1.4c0.5,0.8,0.8,1.3,0.8,1.3s0.1,0.1,0.2,0.3c0.2,0.2,0.4,0.5,0.7,0.9
							c0.3,0.4,0.7,0.7,1.1,1.2c0.4,0.4,0.9,0.8,1.4,1.3c2,1.6,4.5,2.7,5.1,2.8c0.3,0.1,1.1,0.3,2.1,0.6c0.5,0.1,1.1,0.2,1.7,0.3
							c0.6,0,1.2,0.1,1.8,0.1c2.5,0,4.8,0.1,4.8,0.1l12.6,0.4c0,0-15.2,0-16.4,0.1c-0.3,0-1.6,0-3.4-0.2c-1.8-0.2-4-0.9-6-2
							c-2-1.1-3.7-2.7-4.9-4.1c-1.1-1.4-1.7-2.6-1.9-2.9c-0.1-0.3-0.8-1.5-1.3-3.3c-0.1-0.5-0.2-0.9-0.3-1.4
							c-0.1-0.5-0.1-1.1-0.2-1.6c0-0.6,0-1.1-0.1-1.7c0-0.6,0-1.1,0-1.7c0.1-4.6,0.1-9,0.1-9l0.1-15.1c0.1-1.6,0.1-3.2,0.2-4.7
							c0.1-1.6,0.7-3.1,1.6-4.3c0.9-1.3,2.1-2.3,3.4-3C191.3,262.5,192.8,262.1,194.3,262.2z"/>
						<path fill="#3D3D3D" d="M193.5,261.5c-0.6,0.1-1.1,0.1-1.7,0.3c-1.8,0.5-3.5,1.5-4.8,3c-1.3,1.4-2.1,3.2-2.3,5.2
							c-0.1,1-0.1,1.9-0.1,2.8l0,2.8l0,5.6v13.4l-0.1,5.5c0,0.9,0,1.8,0.1,2.8c0.1,0.9,0.2,1.9,0.5,2.8c0,0,0-0.2-0.1-0.5
							c-0.1-0.3-0.2-0.7-0.3-1.2c-0.1-0.5-0.2-1.1-0.3-1.8c-0.1-0.7-0.1-1.4-0.1-2.1c-0.1-2.8-0.1-5.7-0.2-6.4
							c0-1.3,0.1-13.9,0.1-13.9v-6.1c0-1,0-2,0-3.1c0-1.1,0.3-2.2,0.7-3.2C186.3,264,189.9,261.6,193.5,261.5z"/>
						<path fill="#3D3D3D" d="M183.9,301.3c0.2,3.7,1.6,7.3,3.9,10.1c1.5,2.1,3.5,3.9,5.9,5.1c2.6,1.3,5.5,2.1,8.4,2
							c-2.6,0.2-5.3-0.2-7.8-1.3c-2-0.9-3.9-2.3-5.4-3.9C185.7,310.2,183.9,305.8,183.9,301.3z"/>
						<path fill="#3D3D3D" d="M183.9,273.1v0.8v13.4l-0.2,8.8l0,3.4c0,0.6,0,1.1,0,1.7c0,0.6,0,1.2,0.1,1.8c0.2,2.4,1,4.8,2.1,6.9
							c0,0-0.1-0.1-0.2-0.3c-0.1-0.2-0.3-0.5-0.4-0.8c-0.2-0.3-0.4-0.8-0.6-1.2c-0.2-0.5-0.4-1-0.5-1.5c-0.1-0.5-0.3-1.1-0.4-1.6
							c-0.1-0.5-0.2-1.1-0.3-1.5c-0.1-1-0.1-1.8-0.1-2.1c0-1.3,0-8.4,0-8.4l0.2-7.6L183.9,273.1z"/>
						<path fill="#3D3D3D" d="M208.9,316.9c0,0-1.1,0-2.7,0c-0.8,0-1.7,0-2.7,0c-0.5,0-1,0-1.6,0c-0.5,0-1-0.1-1.5-0.1
							c-2-0.2-4-0.8-5.4-1.5c-1.4-0.7-2.3-1.4-2.5-1.5c-0.1-0.1-0.3-0.2-0.7-0.5c-0.3-0.3-0.9-0.7-1.4-1.3c-1.1-1.1-2.3-2.7-3.1-4.4
							c-0.8-1.8-1.2-3.7-1.4-5.1c0-0.7-0.1-1.3-0.1-1.8c0-0.4,0-0.7,0-0.7l0.1-8l0.2-10l0-6.1l0-3.1l0-1.5c0-0.4,0-0.9,0.1-1.3
							c-0.1,0.4-0.1,0.8-0.1,1.3l0,1.5l0.1,3l0.1,5.9l-0.2,13.1c0,0,0,1.4-0.1,3.1c0,1.6-0.1,3.5,0,4.2c0,0.8,0.3,2.3,0.8,3.8
							c0.5,1.5,1.3,2.8,1.7,3.4c0.3,0.6,1.7,2.5,3.5,3.9c1.8,1.4,3.9,2.3,4.3,2.4c0.2,0.1,0.7,0.3,1.3,0.4c0.3,0.1,0.6,0.2,1,0.3
							c0.3,0.1,0.7,0.1,1.1,0.2c0.7,0.2,1.4,0.1,1.9,0.2c0.5,0,0.9,0.1,0.9,0.1L208.9,316.9z"/>
					</g>
				</g>
			</g>
			<g>
				<g>
					<g>
						<path fill="#3D3D3D" d="M397.8,260l34.8-0.3c1.3,0,2.5,0,3.9,0.1l2,0.1c0.7,0,1.3,0.1,2,0.2c1.3,0.2,2.6,0.4,3.9,0.7
							c1.3,0.4,2.6,0.7,3.9,1.1c5.1,1.7,9.8,4.4,13.8,7.7c0,0,0.1,0.1,0.2,0.2c0.2,0.1,0.4,0.3,0.6,0.5c0.5,0.5,1.3,1.1,2.2,1.9
							c0.5,0.4,0.9,0.9,1.4,1.4c0.5,0.5,1,1.1,1.5,1.6c0.5,0.5,1,1.2,1.5,1.8c0.5,0.7,1,1.3,1.5,2c0.4,0.7,0.9,1.4,1.3,2.1
							c0.4,0.7,0.9,1.4,1.2,2.2c0.4,0.7,0.7,1.4,1.1,2.1c0.2,0.3,0.3,0.7,0.5,1c0.1,0.3,0.3,0.7,0.4,1c0.5,1.3,1,2.4,1.2,3.4
							c0.3,0.9,0.5,1.6,0.5,2c0.1,0.3,0.3,1,0.5,1.8c0.1,0.8,0.3,1.9,0.5,3c0.2,1.2,0.2,2.5,0.3,3.9c0,0.7,0.1,1.4,0.1,2.2
							c0,0.8-0.1,1.5-0.2,2.3c-0.4,3-1.6,5.9-3,8c-1.3,2.1-2.7,3.4-3.3,3.9c-0.5,0.5-1.5,1.4-3,2.3c-1.4,0.9-3.2,1.7-5.2,2.2
							c-2,0.5-4.1,0.7-5.9,0.7c-1.7,0-3.2-0.1-4.2-0.1c-4.1-0.1-15.7-1-15.7-1s9.1,0.1,18.7,0.3c1.2,0,2.4,0.1,3.7-0.1
							c1.2-0.1,2.5-0.4,3.6-0.8c2.3-0.7,4.4-1.9,6-3.2c3.3-2.6,4.9-5.6,5.5-6.7c0.6-1.1,1.2-2.7,1.6-4.7c0.2-1,0.3-2,0.3-3.1
							c0-1.1-0.1-2.1-0.1-3.2c0-0.5-0.1-1.1-0.1-1.6c0-0.5-0.2-1-0.2-1.5c-0.2-1-0.3-2-0.5-2.9c-0.5-1.8-0.8-3.3-1.1-4.3
							c-0.3-1-0.8-2.3-1.3-3.6c-0.6-1.3-1.3-2.8-2-4.2c-0.4-0.7-0.8-1.3-1.2-2c-0.4-0.6-0.7-1.2-1.1-1.8c-0.8-1.1-1.4-1.9-1.8-2.5
							c-0.4-0.6-1.3-1.5-2.3-2.8c-0.5-0.6-1.2-1.2-1.9-1.8c-0.7-0.6-1.4-1.3-2.2-1.9c-0.8-0.6-1.6-1.2-2.3-1.8
							c-0.8-0.6-1.6-1-2.3-1.5c-1.4-1-2.7-1.6-3.5-2c-1.5-1-6.8-3-12.3-3.7c-0.7-0.1-1.4-0.2-2-0.3c-0.7,0-1.4-0.1-2-0.1
							c-0.7,0-1.3,0-1.9-0.1c-0.6,0-1.2,0-1.7,0c-2.2,0-3.8,0-4.5,0c-2.7,0-7.5,0.2-11.6,0.2C413.5,260.8,397.8,260,397.8,260z"/>
						<path fill="#3D3D3D" d="M397.8,260.9l14.6,0.2l2.7,0c0,0,18.2,0,20.3,0c0.5,0,1.8,0.1,3.5,0.1c0.9,0,1.8,0.2,2.8,0.3
							c1,0.2,2.1,0.2,3.1,0.6c4.3,0.8,8.4,2.8,9.9,3.6c0.8,0.4,1.7,1,2.9,1.7c0.5,0.4,1.2,0.7,1.7,1.1c0.6,0.4,1.1,0.8,1.7,1.3
							c1.1,0.8,2.1,1.7,2.9,2.5c0.8,0.8,1.5,1.4,1.8,1.8c0.3,0.4,1.3,1.4,2.4,2.8c0.5,0.7,1.1,1.5,1.7,2.4c0.3,0.4,0.6,0.9,0.8,1.3
							l0.8,1.4c0.3,0.5,0.5,0.9,0.8,1.3c0.2,0.5,0.4,0.9,0.6,1.4c0.4,0.9,0.8,1.7,1.1,2.4c0.5,1.4,0.8,2.4,0.8,2.4s0.1,0.2,0.2,0.6
							c0.2,0.4,0.4,1,0.6,1.7c0.2,0.7,0.4,1.6,0.7,2.5c0.1,0.5,0.2,1,0.3,1.5c0.1,0.5,0.2,1,0.2,1.5l0.2,1.6c0.1,0.5,0.1,1,0.1,1.6
							c0.1,1,0.1,2,0.2,2.9c0,1.8-0.2,3.2-0.3,3.7c-0.1,0.5-0.4,1.8-1,3.4c-0.6,1.6-1.7,3.4-3,5c-1.3,1.6-2.8,2.8-4.1,3.6
							c-1.2,0.8-2.1,1.2-2.1,1.2c-1.6,0.7-3.2,1.3-4.9,1.5c-1.7,0.3-3.4,0.2-5.1,0.2l-10.2-0.3c0,0,6.1,0,12.5-0.1
							c3.2-0.1,6.3-1.2,8.4-2.5c2.2-1.3,3.5-2.7,3.8-3c0.3-0.4,1.8-1.8,3.1-4.3c1.3-2.5,2.3-6,2-9.6c0-0.9-0.1-1.8-0.1-2.7
							c-0.1-0.9-0.3-1.8-0.4-2.6c-0.2-1.7-0.7-3.3-1-4.6c-0.1-0.3-0.2-0.7-0.3-1c-0.1-0.3-0.2-0.6-0.3-0.9c-0.2-0.6-0.4-1.1-0.6-1.5
							c-0.3-0.9-0.5-1.5-0.7-1.7c-0.1-0.2-0.4-0.8-0.8-1.7c-0.2-0.4-0.4-0.9-0.7-1.5c-0.3-0.6-0.7-1.1-1-1.8c-0.4-0.6-0.8-1.3-1.2-2
							c-0.5-0.7-1-1.4-1.5-2.1c-0.3-0.4-0.5-0.7-0.8-1.1c-0.3-0.3-0.6-0.7-0.9-1c-0.6-0.7-1.2-1.4-1.8-2c-1.4-1.2-2.6-2.6-4-3.5
							c-0.7-0.5-1.3-1-2-1.5c-0.7-0.4-1.3-0.8-1.9-1.2c-0.6-0.4-1.1-0.7-1.6-1c-0.5-0.2-0.9-0.5-1.3-0.6c-0.7-0.4-1.1-0.6-1.1-0.6
							c-3.7-1.7-7.6-3-11.7-3.4c-0.5-0.1-1-0.2-1.5-0.2l-1.5-0.1c-1,0-2-0.1-3.1-0.1l-6.1,0L397.8,260.9z"/>
						<path fill="#3D3D3D" d="M399.2,262.1l2.8,0l18.1,0.1l9,0.1c3,0,6.1,0,9,0.2l1.3,0.1c0.4,0.1,0.9,0.1,1.3,0.2l2.7,0.4
							c0.9,0.2,1.7,0.4,2.6,0.7l1.3,0.3c0.4,0.1,0.8,0.3,1.3,0.4l2.5,0.9c0.8,0.4,1.6,0.8,2.4,1.2l1.2,0.6c0.4,0.2,0.8,0.5,1.2,0.7
							l2.3,1.4c4.8,3.3,8.8,7.7,11.8,12.6c0,0-0.1-0.2-0.4-0.6c-0.1-0.2-0.3-0.4-0.5-0.7c-0.2-0.3-0.4-0.5-0.7-0.9
							c-0.5-0.6-1.1-1.4-1.7-2.1c-0.7-0.7-1.5-1.5-2.2-2.3l-0.6-0.6l-0.6-0.5c-0.4-0.4-0.8-0.7-1.2-1.1c-0.4-0.3-0.8-0.7-1.2-1
							c-0.4-0.3-0.8-0.6-1.2-0.8c-0.7-0.5-1.4-1-1.9-1.4c-0.6-0.3-1-0.6-1.2-0.7c-0.8-0.6-5.5-3.4-10.6-4.7c-2.5-0.8-5-1.1-6.9-1.3
							c-1.9-0.1-3.1-0.2-3.1-0.2c-6.6-0.1-13.2,0-19.8,0L399.2,262.1z"/>
						<path fill="#3D3D3D" d="M465.4,277.2c3.8,3.9,6.8,8.7,8.7,13.9c1.1,3.8,1.8,7.8,1.8,11.8c0.2,4.3-1.4,8.6-4.2,11.9
							c2.4-3.1,3.5-6.9,3.5-10.6c0-0.8,0-1.6-0.1-2.4l-0.1-2.4l-0.4-2.4c-0.1-0.8-0.2-1.6-0.5-2.4l-0.6-2.4
							c-0.2-0.8-0.5-1.5-0.8-2.3c-0.3-0.8-0.5-1.6-0.9-2.3l-1.1-2.2c-0.3-0.8-0.8-1.5-1.2-2.1l-1.3-2.1l-1.5-2l-0.7-1
							C466,277.8,465.7,277.5,465.4,277.2z"/>
						<path fill="#3D3D3D" d="M425,263.4h1.4h5.5c1.8,0,3.7,0,5.4,0.1c3.5,0.1,7,0.9,10.3,1.8c4.4,1.5,8.4,3.8,11.9,6.6l1,0.8l1,0.9
							l1.9,1.8l1.7,2c0.3,0.3,0.6,0.6,0.9,1l0.8,1.1c0.5,0.7,1,1.4,1.5,2.1l1.3,2.2c0.5,0.7,0.8,1.5,1.2,2.3
							c0.3,0.8,0.8,1.6,1.1,2.4c0,0,0-0.2-0.2-0.5c-0.1-0.3-0.4-0.7-0.6-1.2c-0.3-0.5-0.6-1.1-0.9-1.7c-0.3-0.6-0.8-1.3-1.2-1.9
							c-0.4-0.6-0.8-1.4-1.3-2c-0.5-0.6-0.9-1.2-1.4-1.7c-0.8-1.1-1.6-1.8-1.9-2.2c-0.6-0.7-2.8-3.1-5.2-4.8
							c-0.6-0.4-1.2-0.9-1.7-1.3c-0.6-0.4-1.1-0.7-1.5-1c-0.9-0.5-1.5-0.9-1.5-0.9c-3.3-1.9-6.9-3.4-10.7-4.4
							c-1.5-0.4-3-0.6-4.4-0.9c-1.5-0.1-3-0.3-4.6-0.4L425,263.4z"/>
						<path fill="#3D3D3D" d="M463.7,323.1c0,0,0.5-0.1,1.3-0.4c0.8-0.3,1.9-0.7,3.2-1.4c2.5-1.3,5.6-3.8,7.7-7.1
							c2.1-3.3,3.1-7.3,3.1-10.3c0-1.5-0.1-2.7-0.1-3.6c0-0.9-0.1-1.5-0.1-1.7c0-0.2-0.1-0.7-0.3-1.6c-0.1-0.4-0.2-0.9-0.3-1.5
							c-0.1-0.3-0.1-0.6-0.2-0.9c-0.1-0.3-0.2-0.6-0.3-1c-0.2-0.7-0.4-1.4-0.6-2.1c-0.1-0.4-0.2-0.8-0.3-1.1
							c-0.1-0.4-0.3-0.8-0.4-1.2c-0.3-0.8-0.6-1.6-0.9-2.4c-0.3-0.8-0.8-1.6-1.1-2.4c-1.5-3.2-3.6-6-5.2-8c-0.4-0.5-0.8-0.9-1.1-1.3
							c-0.4-0.4-0.7-0.7-0.9-1c-0.5-0.5-0.8-0.9-0.8-0.9c-3.1-3.2-6.7-6-10.6-8.2c-4.9-2.8-10.4-4.5-16.1-5.2l-2.6-0.1
							c-0.9,0-1.8-0.1-2.6-0.1l-5,0l-10,0l9.6-0.2c3.2,0,6.4-0.2,9.8,0c0.9,0,1.9,0.2,2.8,0.4c0.9,0.2,1.9,0.3,2.8,0.5l2.7,0.7
							c0.5,0.1,0.9,0.2,1.4,0.4l1.3,0.5l2.6,1l2.5,1.2l1.3,0.6l1.2,0.7l2.4,1.5c0,0,0.1,0.1,0.3,0.3c0.2,0.2,0.5,0.4,0.9,0.7
							c0.4,0.3,0.8,0.6,1.3,1c0.2,0.2,0.5,0.4,0.8,0.6c0.3,0.2,0.5,0.5,0.8,0.7c0.5,0.5,1,1,1.6,1.5c0.3,0.2,0.5,0.5,0.8,0.7
							c0.2,0.2,0.5,0.5,0.7,0.7c0.9,1,1.6,1.8,2.1,2.3c0.9,1.1,2.8,3.4,4.3,5.9c0.9,1.2,1.4,2.6,2,3.6c0.6,1.1,1,2.1,1.2,2.6
							c0.4,1.1,2,5.3,2.5,9.6c0.1,0.5,0.2,1.1,0.3,1.6c0.1,0.5,0.1,1,0.1,1.6c0.1,1,0.1,2,0.2,2.8c0.1,1.8-0.2,3.2-0.2,3.6
							c-0.1,0.5-0.3,1.5-0.7,2.7c-0.4,1.2-1,2.6-1.7,3.8c-0.7,1.2-1.5,2.3-2.2,3.1c-0.7,0.8-1.1,1.2-1.1,1.2
							C470.8,320.4,467.4,322.3,463.7,323.1z"/>
					</g>
				</g>
			</g>
			<g>
				<g>
					<g>
						<path fill="#3D3D3D" d="M385.8,322l-25.1-0.2l-22.1-0.8c0,0-17.7-0.1-19.7-0.1c-2,0-16.2-0.4-18.2-0.4c-2,0-10.3-0.3-13.3-0.4
							c-2.9,0-11.3-0.7-11.3-0.7s26.1,0.3,29.5,0.5c3.4,0.1,12.3,0.1,15.2,0.2c2.9,0.1,9.3,0.1,11.3,0.3c2,0.2,10.8,0.2,13.3,0.4
							c2.5,0.2,15.7,0.2,17.7,0.2c2,0,5.4-0.1,8.4,0C374.5,321.2,385.8,322,385.8,322z"/>
						<path fill="#3D3D3D" d="M385.9,321.3l-10.5-0.3l-1.9-0.1c0,0-13.1-0.2-14.6-0.2c-1.5,0-11.8,0-14.3-0.1
							c-2.5-0.1-8.4-0.2-9.8-0.3c-1.5-0.1-12.8-0.4-12.8-0.4s-11.3-0.1-12.8-0.1s-12.3-0.2-12.3-0.2l-14.7-0.4
							c0,0,17.7-0.1,19.2-0.1s21.1,0.3,22.6,0.3s22.1,0.6,22.1,0.6l17.7,0.3L385.9,321.3z"/>
						<path fill="#3D3D3D" d="M384.9,320.5l-2,0l-26-0.6l-15.7-0.2l-12.8-0.3c0,0,12.3-0.2,13.8-0.2s16.2,0.3,16.2,0.3l14.3,0.2
							L384.9,320.5z"/>
						<polygon fill="#3D3D3D" points="333.3,318.7 321,319.1 312.1,318.8 302.3,318.7 311.2,318.3 318.5,318.4 						"/>
						<path fill="#3D3D3D" d="M366.3,319.3l-1,0l-15.7-0.2l-10.3-0.4l-15.7-0.5c0,0,8.9-0.1,10.3-0.1s9.8,0.2,9.8,0.2l8.8,0.4
							L366.3,319.3z"/>
						<path fill="#3D3D3D" d="M294.2,320.7c0,0,19.9,0.3,20.8,0.4c1,0,19.9,0.1,19.9,0.1l9.3,0.3l11.7,0.4l14.4,0.3l-13.9,0
							l-15.3-0.5c0,0-6.7-0.2-8.6-0.2c-1.9,0-8.1,0.1-9.8,0.1c-1.7,0-12-0.1-13.2-0.1c-1.2,0-7.9-0.4-7.9-0.4L294.2,320.7z"/>
					</g>
				</g>
			</g>
			<g>
				<g>
					<g>
						<path fill="#3D3D3D" d="M295.7,257l97.7-0.9l4.4,0.1l-3.4,9.8l-31.6-25.9l-2-1.6l-1.9-1.5c-0.6-0.5-1.2-1-1.9-1.4l-2-1.3
							c-2.7-1.8-5.5-3.3-8.4-4.7c-5.8-2.8-12-4.6-18.4-5.6c0,0-1-0.1-2.8-0.3c-1.8-0.1-4.4-0.3-7.5-0.2c-0.4,0-0.8,0-1.2,0
							c-0.4,0-0.8,0.1-1.2,0.1c-0.8,0.1-1.7,0.1-2.6,0.2c-0.9,0.1-1.8,0.2-2.7,0.4c-0.9,0.2-1.9,0.2-2.9,0.5
							c-3.9,0.7-7.9,1.9-12,3.4c-17,6.6-34.8,13.6-38.3,15.1c-6.1,2.6-46,17-61.2,22.7l-1.5-8.5c2.6,0,4.6,0,5.6-0.1
							c7.7-0.3,40.2,0.6,51.7,0.6c11.5,0,44.1,2,44.1,2s-70.7,0.2-101.4,0.1l0.6,3.4c6.3-2.4,10.6-4,12.7-4.7
							c12.6-4.5,44.7-17.2,55.5-21c5.4-1.9,13.9-5.1,22-8.1c2-0.8,4-1.5,5.9-2.2c1.9-0.7,3.7-1.4,5.4-1.9c0.8-0.3,1.6-0.5,2.4-0.8
							c0.8-0.2,1.5-0.4,2.2-0.5c1.4-0.3,2.5-0.6,3.4-0.7c0.9-0.1,2.2-0.4,3.8-0.6c1.6-0.1,3.5-0.5,5.7-0.5c1.1,0,2.2-0.2,3.4-0.1
							c1.2,0,2.4,0,3.6,0c1.2,0.1,2.5,0.2,3.8,0.2c1.3,0.1,2.5,0.3,3.8,0.5c5.1,0.7,10.2,2.1,14.4,3.7c1,0.4,2,0.8,3,1.2
							c0.9,0.4,1.8,0.9,2.6,1.3c0.8,0.4,1.5,0.8,2.2,1.1c0.6,0.4,1.2,0.7,1.7,1c0.7,0.5,1.7,1,2.9,1.9c1.2,0.8,2.7,1.7,4.2,2.9
							c0.8,0.6,1.6,1.1,2.5,1.8c0.9,0.7,1.8,1.4,2.7,2.2c1.9,1.5,3.9,3.1,6,4.7c8.4,6.5,17.9,13.8,25.1,19.4l1.9-5.6
							c-6.7,0.1-11.9,0.1-14,0.1c-7.7,0-21.1,0.6-32.6,0.6S295.7,257,295.7,257z"/>
						<path fill="#3D3D3D" d="M295.7,259.6l41,0.5l7.5,0.1c0,0,45.5-0.1,53.7-0.1l-1,2.8c-1.9-1.5-2.3-1.8-2.6-2
							c-2.3-1.8-11.4-8.8-20.8-16.1c-2.4-1.8-4.8-3.7-7.1-5.5c-1.2-0.9-2.3-1.8-3.4-2.6c-1.1-0.9-2.2-1.6-3.2-2.4
							c-4.1-2.9-7.8-4.9-9.9-6c-2.1-1.1-4.9-2.4-8.2-3.6c-0.8-0.3-1.7-0.6-2.5-0.9c-0.9-0.3-1.8-0.5-2.7-0.7
							c-1.8-0.5-3.7-0.9-5.5-1.2c-0.9-0.2-1.8-0.3-2.7-0.4c-0.9-0.1-1.8-0.2-2.7-0.3c-1.8-0.1-3.4-0.3-4.9-0.3c-1.5,0-2.9,0-4.1,0
							c-1.2,0.1-2.1,0.1-2.8,0.1c-0.4,0-0.9,0-1.5,0c-0.6,0.1-1.4,0.1-2.2,0.2c-0.9,0.1-1.8,0.2-2.9,0.4c-1,0.2-2.2,0.4-3.4,0.6
							c-2.4,0.5-5,1.2-7.7,2.1c-1.3,0.4-2.7,0.9-4.1,1.4c-1.4,0.5-2.8,1-4.2,1.5c-11,4-21.4,7.7-21.4,7.7s-41.1,15.8-46.5,17.9
							l-25.2,9.5l-0.2-1.4h20.9l57.5,0.9c0,0-68.9,1.4-74.7,1.4h-3.7c-0.9,0-1.6-0.7-1.6-1.6c0-0.7,0.4-1.3,1-1.5l79-29.8
							c1.3-0.5,7.1-2.6,14.9-5.5c2-0.7,4-1.5,6.3-2.3c1.1-0.4,2.3-0.7,3.5-1.1c1.2-0.4,2.4-0.6,3.6-1c4.9-1.2,10.2-1.9,15.5-2.1
							c5.3-0.1,10.5,0.4,15.3,1.3c4.8,0.8,9.1,2.3,12.7,3.6c3.6,1.4,6.4,2.8,8.4,3.9c1.9,1.1,3,1.7,3,1.7c3.8,2.3,7.4,5,10.8,7.8
							l10.4,8.2l20.8,16.5c0.1,0.1,0.1,0.2,0,0.3c0,0.1-0.1,0.1-0.2,0.1l-15.9-0.1L295.7,259.6z"/>
						<path fill="#3D3D3D" d="M299.5,262.7l7.7,0.1l90.5,0.7c1,0,1.8-0.8,1.8-1.8c0-0.6-0.3-1.1-0.7-1.4l0,0l-8.5-6.8l-24.1-19
							c-4-3.2-8.4-6.3-13.1-8.6c-4.7-2.4-9.6-4.3-14.6-5.7l-3.1-0.8c-1-0.3-2.1-0.4-3.1-0.7c-2.1-0.5-4.2-0.7-6.3-1
							c-1.1-0.1-2.1-0.2-3.2-0.2l-1.6-0.1c-0.5,0-1.1,0-1.6,0l-3.2,0l-3.2,0.2l-1.6,0.1l-1.6,0.2l-3.2,0.4l-3.2,0.6
							c-0.5,0.1-1.1,0.2-1.6,0.3l-1.6,0.4c-1,0.3-2.1,0.5-3.1,0.8l-3.1,1c-1,0.3-2,0.7-3,1l-2.9,1.1c0,0,0.7-0.3,1.9-0.8
							c0.6-0.3,1.4-0.6,2.2-0.9c0.9-0.3,1.9-0.7,3-1.1c4.4-1.7,10.7-3.4,17.3-4.1c6.6-0.8,13.5-0.5,19,0.3c1.4,0.2,2.7,0.4,3.9,0.6
							c1.2,0.3,2.3,0.5,3.2,0.7c1,0.2,1.8,0.4,2.4,0.7c0.7,0.2,1.2,0.4,1.6,0.5c0.4,0.1,0.9,0.3,1.7,0.5c0.7,0.3,1.6,0.6,2.7,1
							c0.5,0.2,1.1,0.4,1.7,0.7c0.6,0.2,1.2,0.5,1.8,0.8c1.3,0.6,2.7,1.2,4.1,2c1.4,0.8,3,1.6,4.5,2.6c0.8,0.5,1.5,1,2.3,1.5
							c0.8,0.5,1.5,1.1,2.3,1.7c0.8,0.6,1.6,1.2,2.3,1.7c0.7,0.6,1.5,1.2,2.2,1.7c1.5,1.2,3,2.4,4.4,3.5c11.8,9.4,23,18.3,23,18.3
							l4.1,3.2c1.6,1.2,1.8,3.5,0.6,5.1c-0.7,0.9-1.8,1.4-2.8,1.4h-50.4L299.5,262.7z"/>
						<path fill="#3D3D3D" d="M307,215.7c-4.2,0.9-8.3,2-12.2,3.6c-1,0.4-2,0.8-2.9,1.1l-2.8,1.2l-5.5,2.4l-22,9.4l-32.4,11.9
							l-35.8,13.5l31.5-14.1l26.9-10.2l26.9-10l13.5-5C297,217.8,302,216.5,307,215.7z"/>
						<path fill="#3D3D3D" d="M372.1,266.3h3.8h21.9c2.6,0,4.6-2.1,4.6-4.6c0-1.5-0.7-2.8-1.8-3.6l-31-24.4l-1.9-1.6
							c-0.6-0.5-1.3-1.1-2-1.6l-2.1-1.6l-1.1-0.8l-1.1-0.7c-1.5-1-3-2-4.5-2.9l-2.3-1.3c-0.8-0.4-1.6-0.8-2.4-1.2
							c-6.4-3.2-13.3-5.5-20.4-6.8c-10.8-1.9-22.1-1.5-32.8,1.3l-2,0.5c-0.7,0.2-1.3,0.4-2,0.6l-2,0.6c-0.7,0.2-1.3,0.4-1.9,0.6
							l-7.2,2.6l-14.4,5.2c0,0,8-3.2,16.6-6.8c1.1-0.4,2.2-0.9,3.3-1.3c1.1-0.4,2.1-0.9,3.4-1.3c1.2-0.4,2.4-0.9,3.5-1.3
							c1.2-0.3,2.3-0.7,3.3-1c4.3-1.2,7.8-1.8,9.4-2c1.6-0.2,5-0.6,9.2-0.7c4.3-0.2,9.3,0.3,14.1,1.1c1.2,0.2,2.4,0.4,3.5,0.7
							c1.2,0.2,2.3,0.6,3.3,0.8c2.2,0.5,4.1,1.2,5.7,1.7c0.8,0.3,1.6,0.5,2.2,0.8c0.6,0.3,1.2,0.5,1.7,0.7c0.9,0.4,1.4,0.6,1.4,0.6
							c5.8,2.6,11.2,5.9,16.1,9.8c0.6,0.5,1.3,1,1.8,1.4l1.7,1.4l3.3,2.8l6.6,5.5l21.4,18l0.3,0.2c2.3,1.9,2.6,5.3,0.7,7.6
							c-1.1,1.3-2.7,2-4.3,1.9L372.1,266.3z"/>
						<path fill="#3D3D3D" d="M225.6,256.5c0,0-11.5,0-31.2,0l1.9,10.3c16.3-6.1,44.5-16.7,46.7-17.5c1.7-0.7,19.7-7.7,37.3-14.6
							c4.4-1.7,8.8-3.4,12.8-5c1-0.4,2-0.8,3-1.2c0.9-0.3,1.8-0.7,2.7-1c0.9-0.3,1.8-0.6,2.6-0.8c0.8-0.2,1.7-0.5,2.4-0.7
							c1.6-0.3,3.1-0.7,4.3-0.9c1.3-0.2,2.4-0.4,3.4-0.5c0.9-0.2,1.7-0.2,2.2-0.2c0.5,0,0.8-0.1,0.8-0.1c11.4-0.7,22.8,1.6,33,6.5
							c0.8,0.4,1.6,0.8,2.4,1.2l2.3,1.3l1.1,0.7c0.4,0.2,0.7,0.5,1.1,0.7l2.2,1.5c0.7,0.5,1.4,1.1,2.1,1.6c0.7,0.6,1.4,1,2.1,1.7
							l4.4,3.6l17.6,14.5l11.3,9l3.6-10.5l-41.5-0.2l41.5-0.8l-4.2,12.2l-10-7.6l-23.2-18.8c-1-0.8-1.8-1.4-2.8-2.1l-1.3-1
							c-0.5-0.3-0.9-0.6-1.4-0.9c-1-0.6-1.9-1.3-2.8-1.8l-2.9-1.7c-4-2.1-8.2-3.8-12.6-5.1c0,0-0.4-0.1-1-0.3
							c-0.6-0.2-1.6-0.5-2.7-0.7c-1.1-0.2-2.5-0.6-4-0.8c-0.8-0.1-1.5-0.2-2.3-0.3c-0.4-0.1-0.8-0.1-1.2-0.2c-0.4,0-0.8-0.1-1.3-0.1
							c-0.9-0.1-1.7-0.1-2.6-0.2c-0.9-0.1-1.7,0-2.6,0c-1.7-0.1-3.4,0.1-5.1,0.2c-3.2,0.2-6,0.7-7.6,1.1c-0.8,0.2-1.9,0.4-3.1,0.8
							c-1.2,0.4-2.6,0.7-4.1,1.3c-0.7,0.3-1.5,0.6-2.3,0.9c-0.8,0.3-1.7,0.7-2.5,1c-1.8,0.7-3.6,1.5-5.4,2.2c-7.2,3-14.3,5.9-17.4,7
							c-6.1,2.4-43.5,16.8-47.8,18.5c-3.6,1.4-21.1,7.3-26.9,9.2l-2.2-12.2c1.5,0.1,2.3,0.1,2.3,0.1L225.6,256.5z"/>
					</g>
				</g>
			</g>
			<g>
				<g>
					<g>
						<path fill="#3D3D3D" d="M278.3,322c0,6.7-2.4,13.4-6.8,18.6c-2.2,2.6-4.9,4.7-7.8,6.4c-3,1.6-6.3,2.7-9.6,3.2
							c-3,0.3-6,0.3-8.9-0.4c-2.9-0.6-5.7-1.7-8.3-3.1c-2.6-1.5-4.9-3.4-6.9-5.5c-0.5-0.6-1-1.1-1.4-1.7l-1.3-1.8
							c-0.8-1.3-1.5-2.5-2.1-3.9c0,0-0.2-0.4-0.5-1.1c-0.1-0.4-0.3-0.8-0.5-1.3c-0.2-0.5-0.4-1.1-0.6-1.7c-0.8-2.6-1.3-6.2-1.1-9.9
							c0.3-3.7,1.4-7.5,2.8-10.2c1.4-2.8,2.9-4.7,3.3-5.3c0.2-0.3,0.7-0.8,1.3-1.5c0.3-0.3,0.7-0.7,1.1-1.1c0.4-0.4,0.9-0.8,1.4-1.2
							c2-1.7,4.9-3.4,7.9-4.5c3.1-1.1,6.3-1.6,8.9-1.7c0.3,0,0.6,0,1,0c0.3,0,0.6,0,0.9,0c0.6,0,1.1,0.1,1.6,0.1
							c0.9,0.1,1.6,0.2,2,0.2c0.4,0,0.9,0.1,1.6,0.3c0.7,0.2,1.5,0.3,2.3,0.6c0.8,0.3,1.8,0.6,2.7,1c0.5,0.2,0.9,0.4,1.4,0.7
							c0.5,0.3,0.9,0.5,1.4,0.8c1,0.5,1.8,1.2,2.7,1.8c0.8,0.7,1.6,1.3,2.3,2c1.4,1.4,2.5,2.7,3.2,3.6c0.3,0.5,0.7,1.1,1.2,1.7
							c0.4,0.7,0.8,1.5,1.3,2.3c0.8,1.7,1.5,3.7,1.8,5.6c0.1,0.5,0.2,0.9,0.3,1.4c0.1,0.5,0.1,0.9,0.1,1.3c0,0.4,0.1,0.8,0.1,1.2
							c0,0.4,0,0.7,0,1.1c0,1.3,0,2.1,0,2.1s0-0.6-0.1-1.7c0-0.6,0-1.2-0.2-2c-0.1-0.8-0.2-1.6-0.5-2.6c-0.1-0.5-0.2-1-0.4-1.5
							c-0.2-0.5-0.4-1-0.5-1.5c-0.3-1.1-0.9-2.1-1.4-3.2c-1.2-2.2-2.7-4.3-4.6-6.2c-3.7-3.9-8.8-6.5-13.2-7.4
							c-4.4-1.1-8-0.7-9.3-0.5c-2.6,0.2-7.4,1.4-11.2,4c-2,1.2-3.7,2.8-5.1,4.2c-1.4,1.5-2.4,2.8-3,3.8c-1.3,1.8-2.9,5.1-3.7,8.5
							c-0.8,3.3-0.8,6.6-0.8,8.1c-0.1,0.8,0.1,2.2,0.4,4c0.4,1.7,1,3.8,1.9,5.8c0.2,0.5,0.5,1,0.7,1.5c0.3,0.5,0.6,0.9,0.8,1.4
							c0.5,0.9,1.2,1.7,1.7,2.5c1.2,1.5,2.3,2.7,3,3.3c0.3,0.3,0.9,0.9,1.6,1.5c0.4,0.3,0.8,0.6,1.2,0.9c0.5,0.3,1,0.6,1.5,1
							c2.2,1.3,5,2.6,8.1,3.2c3,0.6,6,0.7,8.5,0.5c1.2-0.1,2.3-0.3,3.1-0.5c0.8-0.2,1.5-0.4,1.9-0.5c1.5-0.4,3.5-1.2,5.5-2.3
							c0.5-0.3,1-0.6,1.5-0.9l0.8-0.5c0.2-0.2,0.5-0.4,0.7-0.5c0.5-0.4,0.9-0.7,1.4-1.1c0.4-0.4,0.9-0.8,1.3-1.2
							c0.2-0.2,0.5-0.4,0.7-0.7c0.3-0.3,0.6-0.6,0.9-0.9c0.3-0.3,0.7-0.7,1-1.1c0.3-0.4,0.7-0.8,1-1.3c1.4-1.8,2.8-4.1,3.7-6.5
							c0.5-1.2,0.8-2.4,1.2-3.4c0.3-1.1,0.4-2.1,0.6-3C278.1,323.1,278.3,322,278.3,322z"/>
						<path fill="#3D3D3D" d="M277.3,322c-0.1,2.7-0.5,5.4-1.3,8c-0.9,2.6-2.1,5-3.6,7.2c-0.6,0.8-1.2,1.6-1.8,2.3
							c0,0-0.2,0.2-0.6,0.6c-0.2,0.2-0.4,0.5-0.7,0.7c-0.3,0.3-0.6,0.6-1,0.9c-1.4,1.3-3.5,2.9-5.9,4.1c-2.3,1.3-5,2-7.2,2.5
							c-1.1,0.1-2.1,0.4-2.8,0.4c-0.8,0-1.3,0.1-1.6,0.1c-0.1,0-0.3,0-0.6,0c-0.2,0-0.5,0-0.9,0c-0.7,0-1.5,0-2.4-0.2
							c-0.9-0.2-2-0.2-3-0.5c-0.5-0.1-1.1-0.3-1.7-0.4c-0.5-0.2-1.1-0.4-1.7-0.6c-4.5-1.5-8.3-4.9-9.6-6.3c-1.3-1.4-3.3-3.9-4.6-6.6
							c-0.3-0.7-0.7-1.3-0.9-2c-0.2-0.7-0.5-1.3-0.7-1.9c-0.4-1.2-0.5-2.1-0.7-2.7c-0.2-1.1-1-6,0.1-10.5c0.2-1.1,0.5-2.2,0.8-3.2
							c0.3-1,0.7-1.9,1-2.6c0.4-0.7,0.7-1.3,0.9-1.8c0.1-0.2,0.2-0.4,0.3-0.5c0.1-0.1,0.1-0.2,0.1-0.2s0.1-0.2,0.4-0.6
							c0.2-0.4,0.6-1,1.1-1.6c0.9-1.4,2.4-3,4.1-4.6c1.7-1.5,3.7-2.8,5.4-3.7c0.9-0.4,1.7-0.7,2.3-1c0.6-0.3,1.1-0.4,1.4-0.5
							c0.5-0.2,1.9-0.6,3.7-0.9c0.9-0.1,1.9-0.3,3-0.3c0.5,0,1.1-0.1,1.6-0.1c0.5,0,1.1,0.1,1.6,0.1c0.5,0,1.1,0.1,1.6,0.2
							c0.5,0.1,1,0.1,1.5,0.2c1,0.2,1.9,0.4,2.6,0.6c0.7,0.3,1.4,0.5,1.8,0.6c0.4,0.1,0.7,0.3,0.7,0.3c3.4,1.5,6.5,3.7,9.1,6.4
							c2.5,2.7,4.4,6,5.6,9.5c0,0-0.1-0.4-0.4-1.1c-0.1-0.3-0.3-0.7-0.6-1.2c-0.2-0.4-0.4-1-0.8-1.5c-1.2-2.2-3.3-4.9-5.9-7.1
							c-2.6-2.2-5.8-3.8-8.4-4.7c-2.6-0.9-4.6-1.1-5.2-1.2c-0.3,0-0.9-0.2-1.9-0.2c-0.5,0-1.1-0.1-1.7-0.1c-0.6,0-1.4,0.1-2.1,0.1
							c-3,0.2-6.8,1.3-10.2,3.2c-3.4,1.9-6.2,4.7-8,7.1c-1.8,2.5-2.7,4.5-2.9,5c-0.1,0.3-0.4,0.9-0.7,1.9c-0.3,1-0.8,2.3-1,3.8
							c-0.7,3.1-0.6,7.2,0.3,11c0.9,3.9,2.8,7.4,4.7,9.6c0.4,0.6,0.9,1.1,1.3,1.5c0.4,0.4,0.7,0.8,1.1,1.1c0.6,0.6,1,0.9,1,0.9
							c3.3,2.9,7.4,4.9,11.7,5.8c4.3,0.9,8.9,0.7,13.1-0.6c5.3-1.6,10.2-4.7,13.6-9.2c1.7-2.2,3.1-4.7,4.1-7.4
							C276.6,327.7,277.1,324.9,277.3,322z"/>
						<path fill="#3D3D3D" d="M276,323.4c0,0.5,0,1-0.1,1.5l-0.2,1.4c-1.1,6.3-4.7,12.1-9.8,16c-5.1,3.9-11.6,5.7-17.9,5.1
							c-7.6-0.6-14.9-5-19-11.5c-1.7-2.6-2.9-5.5-3.5-8.6c-0.2-0.8-0.2-1.5-0.3-2.3c-0.1-0.8-0.1-1.5-0.1-2.3
							c-0.1-1.5,0.1-3.1,0.3-4.6c0,0-0.1,0.3-0.1,0.8c0,0.5-0.1,1.2-0.1,2c0,1.7,0.2,4,0.7,6.3c0.6,2.3,1.5,4.5,2.4,6.2
							c0.9,1.7,1.8,2.9,2.2,3.3c0.2,0.2,0.5,0.7,1,1.3c0.3,0.3,0.6,0.6,0.9,1c0.3,0.4,0.7,0.8,1.1,1.1c1.6,1.6,3.9,3.2,6.4,4.4
							c2.5,1.2,5.1,1.9,7.1,2.1c1,0.2,1.8,0.2,2.4,0.2c0.6,0,0.9,0.1,0.9,0.1c3.4,0,6.8-0.6,9.9-2c3.1-1.3,5.9-3.3,8.3-5.8
							c2.1-2,4-4.4,5.3-7C274.8,329.4,275.6,326.5,276,323.4z"/>
						<path fill="#3D3D3D" d="M226.1,325.1c-1-5.6,0.1-11.7,3.1-16.8c2.4-3.5,5.6-6.5,9.4-8.4c4.1-2.2,8.9-3.2,13.6-2.8
							c-1.1,0-2.1,0-3.2,0.2c-1.1,0.1-2.1,0.3-3.1,0.5c-2,0.5-4,1.2-5.8,2.2c-3.1,1.4-5.9,3.5-8.1,6.1c-2.3,2.6-4,5.6-5,8.9
							l-0.4,1.2c-0.1,0.4-0.2,0.8-0.3,1.3c-0.1,0.4-0.2,0.8-0.2,1.3c-0.1,0.4-0.1,0.9-0.1,1.3C225.8,321.7,225.9,323.4,226.1,325.1z
							"/>
						<path fill="#3D3D3D" d="M260.8,344c-0.4,0.2-0.8,0.4-1.2,0.6c-6.8,2.8-14.9,2.4-21.3-1.3c-4.1-2.5-7.5-6.1-9.5-10.4
							c-1.6-3.3-2.4-6.9-2.4-10.5c0-1.8,0.2-3.6,0.6-5.3c0.1-0.4,0.2-0.9,0.3-1.3l0.4-1.3c0.3-0.8,0.6-1.7,1-2.5
							c0,0-0.1,0.2-0.2,0.5c-0.1,0.3-0.3,0.8-0.5,1.3c-0.2,0.5-0.4,1.2-0.6,1.9c-0.2,0.7-0.3,1.5-0.4,2.3c-0.2,0.8-0.2,1.6-0.2,2.4
							c0,0.8,0,1.6,0,2.3c0.1,0.7,0.1,1.3,0.1,1.8c0.1,0.5,0.2,0.9,0.2,1.1c0.1,1,0.8,4.2,2.3,7c0.7,1.4,1.5,2.6,2.2,3.4
							c0.6,0.9,1.1,1.4,1.1,1.4l1,1.1l1.1,1l0.5,0.5l0.6,0.5l1.2,0.9c1.7,1.1,3.4,2.2,5.3,2.8C248.1,346.7,254.9,346.6,260.8,344z"
							/>
						<path fill="#3D3D3D" d="M264.7,297.8c0,0-0.4-0.2-1.2-0.7c-0.2-0.1-0.4-0.2-0.6-0.4c-0.2-0.1-0.5-0.2-0.8-0.4
							c-0.6-0.2-1.2-0.6-1.9-0.8c-2.8-1.1-6.9-2-11-1.8c-4.1,0.1-8.2,1.3-11.1,2.7c-1.4,0.7-2.7,1.4-3.5,2c-0.4,0.3-0.8,0.5-1,0.7
							c-0.3,0.2-0.4,0.3-0.5,0.4c-0.1,0.1-0.7,0.5-1.4,1.2c-0.7,0.7-1.7,1.6-2.7,2.8c-2,2.3-4.1,5.8-5.3,9.5
							c-0.3,0.9-0.5,1.9-0.7,2.8c-0.2,0.9-0.4,1.9-0.5,2.8c-0.2,1.8-0.2,3.5-0.1,4.9c0,1.4,0.3,2.6,0.4,3.4c0.1,0.8,0.3,1.3,0.3,1.3
							l0.4,1.8c0.1,0.6,0.4,1.2,0.6,1.8c0.4,1.2,1,2.3,1.5,3.4c0.3,0.6,0.6,1.1,0.9,1.6c0.3,0.5,0.6,1.1,1,1.6l1.1,1.5l1.2,1.4
							c4.2,4.6,10.1,7.9,16.4,8.9c3.9,0.6,7.8,0.3,11.6-0.7c3.8-1,7.3-2.8,10.4-5.3c-2.9,2.4-6.3,4.3-10,5.4
							c-3.6,1.1-7.5,1.5-11.3,1.1c-8.4-1.1-16.2-6-20.6-13.1c0,0-0.3-0.6-0.9-1.5c-0.3-0.5-0.5-1-0.8-1.7c-0.3-0.6-0.6-1.3-0.9-2.1
							c-0.2-0.7-0.6-1.5-0.8-2.3c-0.2-0.8-0.4-1.5-0.5-2.2c-0.2-1.4-0.5-2.7-0.5-3.5c0-0.4-0.1-0.9-0.1-1.5c0-0.6-0.1-1.2-0.1-2
							c0-1.4,0.1-3.1,0.4-4.7c0.6-3.3,1.8-6.3,2.5-7.5c0.1-0.2,0.2-0.4,0.3-0.6c0.1-0.2,0.3-0.5,0.5-0.8c0.4-0.6,0.8-1.4,1.4-2.2
							c1.1-1.7,2.8-3.5,4.6-5.1c1.8-1.6,3.9-2.9,5.6-3.8c1.7-0.9,3.1-1.4,3.5-1.5c0.9-0.4,4.1-1.2,7.1-1.4c0.8,0,1.5,0,2.2,0
							c0.7,0,1.3,0.1,1.8,0.1c0.5,0,1,0.1,1.3,0.1c0.3,0.1,0.5,0.1,0.5,0.1C257.5,294.2,261.3,295.6,264.7,297.8z"/>
					</g>
				</g>
			</g>
			<g>
				<g>
					<g>
						<path fill="#3D3D3D" d="M440.1,322c0,6.7-2.4,13.4-6.8,18.6c-2.2,2.6-4.9,4.7-7.8,6.4c-3,1.6-6.3,2.7-9.6,3.2
							c-3,0.3-6,0.3-8.9-0.4c-2.9-0.6-5.7-1.7-8.3-3.1c-2.6-1.5-4.9-3.4-6.9-5.5c-0.5-0.6-1-1.1-1.4-1.7l-1.3-1.8
							c-0.8-1.3-1.5-2.5-2.1-3.9c0,0-0.2-0.4-0.5-1.1c-0.1-0.4-0.3-0.8-0.5-1.3c-0.2-0.5-0.4-1.1-0.6-1.7c-0.8-2.6-1.4-6.2-1-9.9
							c0.2-3.7,1.4-7.4,2.8-10.2c1.3-2.8,2.9-4.6,3.3-5.3c0.2-0.3,0.7-0.9,1.3-1.5c0.3-0.3,0.7-0.7,1.1-1.1c0.4-0.4,0.9-0.8,1.4-1.2
							c2.1-1.7,4.9-3.4,7.9-4.5c3.1-1.1,6.3-1.7,8.9-1.7c0.3,0,0.6,0,1,0c0.3,0,0.6,0,0.9,0c0.6,0,1.1,0.1,1.6,0.1
							c0.9,0.1,1.6,0.2,2,0.2c0.8,0,2.2,0.4,3.9,0.9c0.8,0.3,1.8,0.6,2.7,1c0.5,0.2,0.9,0.5,1.4,0.7l0.7,0.4l0.7,0.4l1.4,0.9
							c0.5,0.3,0.9,0.6,1.3,1c0.9,0.6,1.6,1.3,2.3,2c1.4,1.4,2.5,2.7,3.2,3.6c0.7,0.8,1.4,2.1,2.2,3.5c0.3,0.8,0.7,1.5,1,2.4
							c0.3,0.8,0.6,1.7,0.8,2.5c0.2,0.9,0.4,1.7,0.5,2.5c0.1,0.8,0.2,1.6,0.3,2.3c0.1,1.4,0,2.5,0.1,3l0-0.1c0,0.3,0,0.5,0,0.5
							s0,0,0-0.5l0,0.1c0-0.3-0.1-1.1-0.2-2.3c0-0.6-0.2-1.3-0.3-2.1c-0.1-0.8-0.4-1.7-0.6-2.6c-1-3.8-3.5-8.4-7.3-12
							c-1.9-1.8-4.1-3.3-6.3-4.4c-0.6-0.3-1.1-0.5-1.7-0.8c-0.6-0.3-1.1-0.4-1.7-0.6c-1.1-0.5-2.2-0.6-3.3-0.9
							c-4.2-1-7.6-0.5-8.9-0.4c-0.7,0.1-1.5,0.2-2.3,0.3c-0.9,0.2-1.8,0.4-2.8,0.8c-1,0.3-2,0.7-3.1,1.2c-1.1,0.4-2,1.1-3,1.7
							c-1.9,1.3-3.7,2.7-5.1,4.2c-0.7,0.7-1.3,1.4-1.8,2.1c-0.5,0.6-0.9,1.2-1.2,1.7c-1.3,1.8-3,5.1-3.7,8.5
							c-0.2,0.8-0.4,1.7-0.5,2.5c-0.1,0.8-0.2,1.6-0.2,2.3c-0.1,1.4,0,2.6-0.1,3.4c0,0.4,0,0.9,0.1,1.6c0.1,0.7,0.2,1.5,0.4,2.4
							c0.4,1.7,1,3.8,1.9,5.8c0.2,0.5,0.5,1,0.7,1.5c0.3,0.5,0.6,0.9,0.8,1.4c0.5,0.9,1.2,1.7,1.7,2.5c1.2,1.5,2.3,2.7,3,3.3
							c0.3,0.3,0.9,0.9,1.6,1.5c0.4,0.3,0.8,0.6,1.2,0.9c0.5,0.3,1,0.6,1.5,1c2.2,1.3,5,2.6,8.1,3.2c3,0.6,6,0.7,8.5,0.5
							c1.2-0.1,2.3-0.3,3.1-0.5c0.8-0.2,1.5-0.4,1.9-0.5c1.5-0.4,3.5-1.2,5.5-2.3c0.5-0.3,1-0.6,1.5-0.9l0.8-0.5
							c0.2-0.2,0.5-0.4,0.7-0.5c0.5-0.4,0.9-0.7,1.4-1.1c0.4-0.4,0.9-0.8,1.3-1.2c0.2-0.2,0.5-0.4,0.7-0.7c0.3-0.3,0.6-0.6,0.9-0.9
							c0.3-0.3,0.7-0.7,1-1.1c0.3-0.4,0.7-0.8,1-1.3c1.4-1.8,2.8-4.1,3.7-6.5c0.5-1.2,0.8-2.4,1.2-3.4c0.3-1.1,0.4-2.1,0.6-3
							C440,323.1,440.1,322,440.1,322z"/>
						<path fill="#3D3D3D" d="M439.1,322c-0.1,2.7-0.5,5.4-1.3,8c-0.9,2.6-2.1,5-3.6,7.2c-0.6,0.8-1.2,1.6-1.8,2.3
							c0,0-0.2,0.2-0.6,0.6c-0.2,0.2-0.4,0.5-0.7,0.7c-0.3,0.3-0.6,0.6-1,0.9c-1.4,1.3-3.5,2.9-5.9,4.1c-2.3,1.3-5,2-7.2,2.5
							c-1.1,0.1-2,0.4-2.8,0.4c-0.8,0-1.3,0.1-1.6,0.1c-0.1,0-0.3,0-0.6,0c-0.2,0-0.5,0-0.9,0c-0.7,0-1.5,0-2.4-0.2
							c-0.9-0.2-2-0.2-3-0.5c-0.5-0.1-1.1-0.3-1.7-0.4c-0.5-0.2-1.1-0.4-1.7-0.6c-4.5-1.5-8.3-4.9-9.6-6.3c-1.3-1.4-3.3-3.9-4.6-6.6
							c-0.3-0.7-0.7-1.3-0.9-2c-0.2-0.7-0.5-1.3-0.7-1.9c-0.4-1.2-0.5-2.1-0.7-2.7c-0.1-0.3-0.1-0.8-0.2-1.5
							c-0.1-0.7-0.2-1.5-0.2-2.5c-0.2-1.9,0.1-4.3,0.5-6.5c0.4-2.3,1.2-4.3,1.9-5.8c0.3-0.8,0.7-1.3,0.9-1.7
							c0.2-0.4,0.4-0.7,0.4-0.7s0-0.1,0.1-0.2c0.1-0.1,0.2-0.3,0.3-0.5c0.3-0.4,0.6-1,1.1-1.7c1-1.3,2.4-3.1,4.1-4.5
							c0.8-0.8,1.8-1.4,2.7-2.1c0.5-0.3,0.9-0.6,1.4-0.9c0.5-0.3,0.9-0.6,1.3-0.7c0.9-0.4,1.6-0.8,2.3-1c0.6-0.2,1.1-0.4,1.4-0.5
							c0.3-0.1,0.7-0.3,1.4-0.4c0.3-0.1,0.7-0.2,1.1-0.3c0.2,0,0.4-0.1,0.6-0.2c0.2,0,0.4-0.1,0.7-0.1c0.9-0.1,1.9-0.3,3-0.3
							c0.5,0,1.1-0.1,1.6-0.1c0.5,0,1.1,0.1,1.6,0.1c1.1,0,2.2,0.3,3.1,0.4c1,0.2,1.9,0.5,2.6,0.6c0.8,0.2,1.4,0.5,1.8,0.6
							c0.4,0.2,0.7,0.2,0.7,0.2c6.9,2.9,12.3,8.9,14.7,15.8c0,0-0.2-0.4-0.4-1.1c-0.2-0.7-0.8-1.6-1.3-2.7c-1.3-2.2-3.3-4.9-6-7.1
							c-2.6-2.2-5.8-3.8-8.4-4.7c-0.3-0.1-0.6-0.2-0.9-0.3c-0.3-0.1-0.6-0.1-0.9-0.2c-0.6-0.1-1.1-0.3-1.5-0.4
							c-0.9-0.1-1.5-0.2-1.8-0.3c-0.1,0-0.4-0.1-0.7-0.1c-0.3,0-0.8,0-1.3-0.1c-0.5,0-1.1-0.1-1.7-0.1c-0.6,0-1.4,0.1-2.1,0.1
							c-0.8,0.1-1.6,0.2-2.4,0.3c-0.8,0.2-1.7,0.4-2.6,0.6c-0.9,0.3-1.8,0.6-2.6,1c-0.9,0.4-1.8,0.8-2.6,1.3c-3.4,1.9-6.2,4.6-8,7.1
							c-0.9,1.2-1.6,2.3-2,3.3c-0.2,0.4-0.4,0.8-0.6,1.1c-0.1,0.3-0.2,0.5-0.3,0.7c-0.1,0.3-0.4,0.9-0.8,1.9
							c-0.2,0.5-0.3,1.1-0.5,1.7c-0.2,0.6-0.3,1.4-0.5,2.1c-0.2,0.8-0.2,1.6-0.3,2.5c-0.1,0.4-0.1,0.9-0.1,1.3c0,0.5,0,0.9,0,1.4
							c0,0.9,0,1.9,0.2,2.9c0.1,0.5,0.1,1,0.2,1.5l0.3,1.4c0.9,3.9,2.8,7.3,4.7,9.6c0.4,0.6,0.9,1.1,1.3,1.5
							c0.4,0.4,0.7,0.8,1.1,1.1c0.6,0.6,1,0.9,1,0.9c3.3,2.9,7.4,4.9,11.7,5.8c4.3,0.9,8.9,0.7,13.1-0.6c5.3-1.6,10.2-4.7,13.6-9.2
							c1.7-2.2,3.1-4.7,4.1-7.4C438.5,327.7,439,324.9,439.1,322z"/>
						<path fill="#3D3D3D" d="M437.8,323.4c0,0.5,0,1-0.1,1.5l-0.2,1.4c-1.1,6.3-4.7,12.1-9.8,16c-5.1,3.9-11.6,5.7-17.9,5.1
							c-7.6-0.6-14.9-5-19-11.5c-1.7-2.6-2.9-5.5-3.5-8.6c-0.2-0.8-0.2-1.5-0.3-2.3c-0.1-0.8-0.1-1.5-0.1-2.3
							c-0.1-1.5,0.1-3.1,0.3-4.6c0,0,0,0.1,0,0.2c0,0.1,0,0.3,0,0.6c0,0.5-0.1,1.2-0.1,2.1c0,1.7,0.2,4,0.7,6.2
							c0.6,2.3,1.5,4.5,2.4,6.2c0.9,1.7,1.8,2.9,2.2,3.3c0.2,0.2,0.5,0.7,1,1.3c0.3,0.3,0.6,0.6,0.9,1c0.3,0.4,0.7,0.8,1.1,1.1
							c1.6,1.6,3.9,3.2,6.4,4.4c2.5,1.2,5.1,1.9,7.1,2.1c1,0.2,1.8,0.2,2.4,0.2c0.6,0,0.9,0.1,0.9,0.1c3.4,0,6.8-0.6,9.9-2
							c3.1-1.3,5.9-3.3,8.3-5.8c2.1-2,4-4.4,5.3-7C436.6,329.4,437.5,326.5,437.8,323.4z"/>
						<path fill="#3D3D3D" d="M387.9,325.1c-0.2-0.7-0.2-1.4-0.3-2.1c0-0.4-0.1-0.7-0.1-1.1l0-1l0.1-2.2c0.1-0.7,0.2-1.4,0.3-2.2
							c0.5-2.9,1.6-5.6,3.1-8.2c2.3-3.6,5.6-6.4,9.4-8.4c2.1-1.1,4.3-1.9,6.6-2.4c0.6-0.1,1.2-0.2,1.7-0.3l0.9-0.1l0.9,0
							c0.6,0,1.2-0.1,1.8-0.1l1.8,0.1c-4.2,0-8.4,0.9-12,2.9c-3.1,1.4-5.9,3.5-8.2,6.1c-2.3,2.6-4,5.6-5,8.9l-0.4,1.2l-0.3,1.3
							c-0.1,0.4-0.2,0.8-0.2,1.3l-0.1,1.3c-0.1,0.9-0.2,1.7-0.1,2.5l0.1,1.3C387.8,324.3,387.8,324.7,387.9,325.1z"/>
						<path fill="#3D3D3D" d="M422.6,344c-0.4,0.2-0.8,0.4-1.2,0.6c-6.8,2.8-14.9,2.4-21.2-1.3c-4.1-2.5-7.5-6.1-9.6-10.4
							c-1.6-3.3-2.4-6.9-2.4-10.5c0-0.5,0-0.9,0-1.3c0-0.4,0.1-0.9,0.1-1.4c0.1-0.5,0.1-0.9,0.2-1.4l0.3-1.3c0.4-1.8,1-3.4,1.7-5.1
							c0,0-0.3,0.7-0.7,1.8c-0.4,1.1-0.8,2.6-1,4.2c-0.2,0.8-0.1,1.7-0.2,2.5c-0.1,0.8-0.1,1.5,0,2.2c0.1,0.7,0.1,1.3,0.1,1.8
							c0.1,0.5,0.2,0.9,0.2,1.1c0.1,1,0.8,4.2,2.3,6.9c0.7,1.4,1.5,2.6,2.2,3.4c0.6,0.9,1.1,1.4,1.1,1.4l1,1.1l1.1,1l0.5,0.5
							l0.6,0.5l1.2,0.9c1.7,1.1,3.4,2.2,5.3,2.8C409.9,346.7,416.7,346.6,422.6,344z"/>
						<path fill="#3D3D3D" d="M426.5,297.8c0,0-0.4-0.3-1.2-0.7c-0.4-0.2-0.9-0.4-1.4-0.7c-0.3-0.1-0.6-0.3-0.9-0.4
							c-0.3-0.1-0.7-0.2-1-0.4c-2.8-1.1-6.9-2-11-1.8c-4.1,0.1-8.2,1.3-11.1,2.7c-0.4,0.2-0.7,0.3-1.1,0.5c-0.3,0.2-0.6,0.4-0.9,0.5
							c-0.6,0.4-1.1,0.6-1.5,0.9c-0.8,0.6-1.4,1-1.5,1.1c-0.2,0.1-0.7,0.5-1.4,1.2c-0.8,0.6-1.7,1.6-2.7,2.7c-2,2.3-4.1,5.8-5.3,9.5
							c-0.6,1.9-1,3.8-1.2,5.5c-0.1,0.9-0.2,1.7-0.2,2.6c0,0.9,0,1.6,0.1,2.3c0,1.4,0.3,2.6,0.4,3.4c0.1,0.8,0.3,1.3,0.3,1.3
							l0.4,1.8c0.1,0.6,0.4,1.2,0.6,1.8c0.4,1.2,1,2.3,1.5,3.4c0.3,0.6,0.6,1.1,0.9,1.6c0.3,0.5,0.6,1.1,1,1.6l1.1,1.5l1.2,1.4
							c4.2,4.6,10.1,7.9,16.4,8.9c3.9,0.6,7.8,0.3,11.6-0.7c3.8-1,7.3-2.8,10.4-5.3c-2.9,2.4-6.3,4.3-9.9,5.4
							c-3.6,1.1-7.5,1.5-11.3,1.1c-8.4-1.1-16.2-6-20.6-13.1c0,0-0.3-0.6-0.9-1.5c-0.3-0.5-0.5-1-0.8-1.7c-0.3-0.6-0.6-1.3-0.9-2.1
							c-0.2-0.7-0.6-1.5-0.8-2.3c-0.2-0.8-0.4-1.5-0.5-2.2c-0.2-1.4-0.5-2.7-0.5-3.5c0-0.4-0.1-0.9-0.1-1.5c0-0.3,0-0.6-0.1-0.9
							c0-0.3,0-0.7,0-1.1c0.1-1.4,0.1-3,0.5-4.7c0.6-3.2,1.8-6.3,2.5-7.5c0.2-0.3,0.4-0.8,0.8-1.5c0.4-0.6,0.9-1.4,1.4-2.2
							c1.2-1.6,2.8-3.5,4.6-5.1c3.6-3.3,8.2-5.1,9.1-5.3c0.9-0.4,4.1-1.2,7.1-1.4c0.8,0,1.5,0,2.2,0c0.7,0,1.3,0.1,1.8,0.1
							c0.5,0,1,0.1,1.3,0.1c0.3,0,0.5,0.1,0.5,0.1C419.3,294.2,423.1,295.6,426.5,297.8z"/>
					</g>
				</g>
			</g>
			<g>
				<g>
					<g>
						<path fill="#3D3D3D" d="M276.8,230.5l4.5,7.1l3.8,6.3c0,0,3.1,5,3.5,5.5c0.4,0.5,2.8,4.6,3.2,5.2c0.4,0.5,1.8,2.9,2.3,3.8
							c0.5,0.8,1.8,3.3,1.8,3.3s-4.6-7.4-5.2-8.3c-0.6-1-2.2-3.5-2.7-4.3c-0.5-0.8-1.6-2.6-1.9-3.2c-0.3-0.6-1.9-3.1-2.3-3.8
							c-0.4-0.7-2.8-4.4-3.1-5c-0.3-0.6-1-1.5-1.5-2.3C278.6,233.8,276.8,230.5,276.8,230.5z"/>
						<path fill="#3D3D3D" d="M276.6,230.6l1.8,3l0.3,0.5c0,0,2.3,3.7,2.6,4.1c0.3,0.4,2.1,3.3,2.5,4c0.4,0.7,1.4,2.4,1.7,2.8
							c0.2,0.4,2.2,3.7,2.2,3.7s2,3.2,2.3,3.6c0.3,0.4,2.2,3.5,2.2,3.5l2.5,4.2c0,0-3.2-4.9-3.5-5.4c-0.3-0.4-3.7-6-4-6.4
							s-3.8-6.3-3.8-6.3l-3.1-5L276.6,230.6z"/>
						<path fill="#3D3D3D" d="M276.5,231l0.3,0.6l4.5,7.4l2.8,4.4l2.2,3.6c0,0-2.3-3.4-2.5-3.8c-0.3-0.4-2.8-4.6-2.8-4.6l-2.5-4
							L276.5,231z"/>
						<polygon fill="#3D3D3D" points="285.3,245.8 287.6,249.2 289.2,251.7 290.9,254.5 289.2,252.1 287.9,250 						"/>
						<path fill="#3D3D3D" d="M279.5,236.4l0.2,0.3l2.8,4.4l1.8,3l2.7,4.5c0,0-1.6-2.5-1.9-2.9s-1.7-2.8-1.7-2.8l-1.5-2.5
							L279.5,236.4z"/>
						<path fill="#3D3D3D" d="M292.9,256.4c0,0-3.5-5.6-3.6-5.9c-0.2-0.3-3.6-5.6-3.6-5.6l-1.6-2.7l-2-3.4l-2.5-4.1l2.5,3.9l2.6,4.4
							c0,0,1.1,1.9,1.5,2.5c0.3,0.5,1.5,2.3,1.8,2.7c0.3,0.5,2.1,3.4,2.3,3.7c0.2,0.3,1.3,2.3,1.3,2.3L292.9,256.4z"/>
					</g>
				</g>
			</g>
		</g>
	</g>
</g>
</svg>
