<?xml version="1.0" encoding="utf-8"?>
<!-- Generator: Adobe Illustrator 23.0.0, SVG Export Plug-In . SVG Version: 6.00 Build 0)  -->
<svg version="1.1" xmlns="http://www.w3.org/2000/svg" xmlns:xlink="http://www.w3.org/1999/xlink" x="0px" y="0px"
	 viewBox="0 0 512 512" enable-background="new 0 0 512 512" xml:space="preserve">
<g id="Layer_2" display="none">
	<rect display="inline" fill="#212121" width="512" height="512"/>
</g>
<g id="Layer_1">
	<g>
		<g>
			<g>
				<g>
					<g>
						<path fill="#3D3D3D" d="M393.3,214.1l-70.5,1l-15.8-0.5c-2.5-0.1-4.9-1-6.9-2.5c-2-1.5-3.5-3.5-4.4-5.8
							c-0.4-1.1-0.7-2.4-0.8-3.6c0-0.6,0-1.3,0-1.5l0-1l0.1-3.9l1-31.1c0,0,0-3.1-0.1-7.9c0-3.3,1.1-7.2,3.7-10.5
							c2.6-3.3,6.7-5.9,11.4-6.4c0.6-0.1,1.2-0.1,1.7-0.1c0.3,0,0.5,0,0.7,0l0.6,0c0.8,0,1.6,0,2.5,0c1.6,0,3.3-0.1,4.9-0.1
							c3.2-0.1,6.2-0.1,9-0.2c5.4-0.1,9.6-0.2,11-0.3c2.8-0.2,14.2,0,25.6,0.2c5.7,0.1,11.4,0.2,16,0.2c1.2,0,2.2,0,3.2,0
							c0.5,0,1,0,1.4,0c0.6,0,1.3,0.1,1.8,0.1c2.3,0.2,4,0.9,4.9,1.2c0.5,0.2,1,0.4,1.6,0.7c0.6,0.3,1.3,0.7,2,1.2
							c1.4,1,2.9,2.4,4.2,4.2c1.3,1.8,2.3,4.1,2.8,6.6c0.1,0.6,0.2,1.3,0.2,1.9l0,1c0,0.3,0,0.7,0,0.9c0,0.9-0.1,1.9-0.1,2.8
							c-0.2,7.6-0.5,15.6-0.5,19.7c0,4.1-0.6,12.1-1.2,19c-0.1,0.9-0.2,1.8-0.2,2.7c-0.1,1.2-0.5,2.3-1,3.3c-1,2-2.5,3.3-4,4.1
							c-1.4,0.8-2.7,1-3.6,1.1c-0.4,0-0.8,0-1,0c-0.2,0-0.4,0-0.4,0s0.4,0,1.1-0.1c0.7-0.1,1.8-0.3,3-0.9c1.2-0.6,2.5-1.6,3.5-3.2
							c0.5-0.8,0.9-1.7,1.1-2.8c0.1-0.5,0.2-1.1,0.2-1.6l0-0.4l0-0.3c0-0.2,0-0.4,0-0.7c0-7-0.1-16.5-0.1-26.3c0-4.9,0-9.8,0-14.6
							c0-0.6,0-1.2,0-1.8c0-0.3,0-0.6,0-1c0-0.3,0-0.7-0.1-1c-0.2-1.4-0.5-2.7-1-3.9c-1-2.4-2.7-4.5-4.6-5.9
							c-1.9-1.5-4.1-2.4-6.1-2.7c-0.5-0.1-1-0.2-1.5-0.2c-0.5,0-1-0.1-1.4-0.1c-0.8,0-1.6,0-2.3,0c-2.9,0-5.1-0.1-6.3-0.1
							c-9.7-0.3-34.6,0.3-42.9,0c-4.1-0.2-10.7-0.2-16.9-0.2c-1.6,0-3.1,0-4.6,0c-0.4,0-0.7,0-1.1,0c-0.4,0-0.8,0-1.2,0
							c-0.4,0-0.8,0.1-1.2,0.1c-0.4,0.1-0.8,0.1-1.2,0.2c-3.1,0.6-5.4,2.2-6.7,3.2c-0.7,0.5-1.6,1.3-2.5,2.6
							c-0.9,1.2-1.8,2.9-2.4,4.8c-0.1,0.5-0.3,1-0.3,1.5c0,0.3-0.1,0.5-0.1,0.8c0,0.3,0,0.5-0.1,0.8c0,0.3,0,0.5,0,0.8
							c0,0.2,0,0.4,0,0.7c0,0.5,0,0.9,0,1.4c0,1.9,0,3.8-0.1,5.7c-0.1,7.8-0.2,15.7-0.5,19.2c-0.2,1.7-0.2,5.4-0.2,9.9
							c0,1.1,0,2.3,0,3.6c0,0.6,0,1.3,0,1.9c0,0.3,0,0.6,0,1l0,0.5l0,0.3l0,0.4c0.1,2.1,0.9,4.2,2.2,6c1.3,1.7,3.2,3,5.3,3.7
							c1,0.3,2.1,0.5,3.2,0.5c0.7,0,1.4,0,2.1,0c1.3,0,2.7,0,4-0.1c2.6-0.1,5-0.1,7.2-0.1c4.4-0.1,7.8-0.2,9.1-0.2
							c5.5,0,15.2-0.7,23.5-0.7S393.3,214.1,393.3,214.1z"/>
						<path fill="#3D3D3D" d="M393.3,211l-29.6-0.6l-5.4-0.2c0,0-36.9,0.1-41.1,0.1c-1,0-3.6,0.1-7,0.1c-0.9,0-1.8,0-2.7,0
							c-1.2,0-2.5-0.2-3.7-0.8c-1.2-0.5-2.3-1.4-3.2-2.4c-0.9-1.1-1.5-2.4-1.8-3.8c-0.1-0.4-0.1-0.7-0.2-1.1c0-0.3,0-0.8,0-1l0-1.6
							c0-1.1,0-2.2,0-3.2c0-2.1,0-4.2,0-6c0-3.8,0-6.9,0.1-8.6c0.2-3.5,0.3-9.3,0.3-14.9c0.1-2.8,0.1-5.4,0.1-7.7c0-0.6,0-1.1,0-1.6
							c0-0.5,0.1-1.1,0.1-1.6c0.1-0.5,0.2-0.9,0.3-1.3c0.1-0.4,0.2-0.7,0.3-1c0.2-0.6,0.6-1.6,1.3-2.8c0.7-1.2,1.8-2.6,3.4-3.8
							c1.5-1.2,3.5-2.2,5.7-2.6c0.5-0.1,1.1-0.2,1.7-0.2c0.6,0,1.2,0,1.7,0c1.1,0,2.1,0.1,3.2,0.1c8.5,0.2,16.4,0.4,16.4,0.4
							s31.8-0.3,36-0.3c2.1,0,10.7,0,18.9,0c2.2,0,4.3,0.6,6,1.5c1.8,0.9,3.1,2.2,4.1,3.4c1,1.2,1.5,2.4,1.9,3.2
							c0.2,0.4,0.3,0.8,0.4,1c0.1,0.2,0.1,0.4,0.1,0.4c0.5,1.8,0.5,3.7,0.4,5.4l-0.1,5.2l-0.3,10.4l-0.5,20.7c0,0-0.4-12.5-0.9-25.4
							c-0.1-3.2-0.2-6.5-0.3-9.6c-0.1-1.6-0.1-3.1-0.2-4.3c-0.2-1.3-0.6-2.4-1.2-3.4c-1.1-2-2.7-3.3-3.9-4.1c-1.3-0.8-2.3-1-2.7-1.1
							c-0.4-0.1-1.5-0.4-3.2-0.4c-1.9,0-4.4,0-7.4,0c-5.8,0-13.3,0-20.7,0c-14.9,0-29.7,0-31.8,0c-1,0-5.4-0.1-11.5-0.2
							c-1.5,0-3.2-0.1-4.6,0c-1.5,0.2-2.9,0.7-4.3,1.5c-2.7,1.6-4.8,4.7-5.2,8.1c0,0.4-0.1,0.8-0.1,1.3l0,1.4c0,0.9,0,1.9-0.1,2.8
							c0,1.8-0.1,3.6-0.1,5.4c-0.1,3.5-0.2,6.7-0.2,9.5c-0.1,5.5-0.2,9.1-0.2,9.1l-0.1,12.4l0,3.1c0,1,0.2,1.9,0.6,2.8
							c0.8,1.8,2.5,3.1,4.5,3.5c0.9,0.2,2,0.1,3,0.1l3.1,0l6.2,0l12.4,0.1L393.3,211z"/>
						<path fill="#3D3D3D" d="M390.5,207.2l-5.6-0.1l-73.3-1h-2.8h-1.4c-0.4,0-0.6,0-0.9-0.1c-1.2-0.2-2.3-1-2.9-2
							c-0.3-0.5-0.5-1.1-0.6-1.7c0-0.1,0-0.3,0-0.5l0-0.2v-0.3v-1.4v-5.5v-22.1l0.2-9l0.1-4.5l0-1.1l0.1-0.9
							c0.1-0.6,0.2-1.2,0.4-1.7c0.7-2.3,2.2-4.2,4.2-5.4c1-0.6,2.1-1,3.2-1.2l0.9-0.1l0.9,0c0.6,0,1.5,0,2.2,0c0,0-0.5,0-1.5,0.1
							c-0.5,0-0.9,0.1-1.4,0.1c-0.5,0.1-1,0.2-1.6,0.4c-1.1,0.4-2.4,1.1-3.4,2.2c-1.1,1.1-1.8,2.5-2.2,4.1c-0.2,0.8-0.2,1.6-0.2,2.3
							c0.1,1.1,0.1,2.3,0.1,3.4c0.1,2.2,0.2,4.4,0.3,6.3c0.2,3.8,0.3,6.8,0.3,7.8c0,2.1-0.1,13.5-0.2,24.4c0,0.7,0,1.4,0,2l0,0.2
							l0,0.1c0,0.1,0,0.1,0,0.2c0,0.1,0,0.2,0.1,0.3c0.1,0.4,0.3,0.8,0.7,1.1c0.3,0.3,0.7,0.5,1.1,0.6c0.1,0,0.2,0,0.3,0
							c0,0,0.1,0,0.1,0l0,0l0.1,0l0.2,0c0.5,0,1.1,0,1.5,0c4,0,6.5,0.1,6.5,0.1h40.1L390.5,207.2z"/>
						<path fill="#3D3D3D" d="M307.6,153.9c0.7-1.4,2-2.6,3.6-3.2c0.4-0.2,0.8-0.3,1.2-0.4c0.2,0,0.4-0.1,0.7-0.1l1.1-0.1l4.3-0.3
							l17.3-1.2l24.9,0.3l27.5,0l-24.7,2.4h-20.7l-20.7-0.2l-5.2,0l-2.6,0l-0.6,0l-0.3,0c-0.1,0-0.2,0-0.3,0c-0.2,0-0.5,0-0.7,0
							C310.4,151.4,308.7,152.4,307.6,153.9z"/>
						<path fill="#3D3D3D" d="M338.1,202.8h-2.8h-22.1h-5.5c-0.3,0-0.3,0-0.3,0c0,0-0.1,0-0.1,0c-0.1,0-0.2,0-0.2-0.1
							c-0.1-0.1-0.3-0.1-0.4-0.3c-0.1-0.1-0.2-0.3-0.3-0.4c0-0.1-0.1-0.1-0.1-0.2c0,0,0-0.1,0-0.1c0-0.1,0,0,0-0.3v-5.5l1-29
							l0.1-5.5c0.1-1.7,0.1-4.1,0.2-4.5c0.3-1.6,1.4-3,2.8-3.7c0.7-0.4,1.4-0.5,2.2-0.5c0.1,0,0.2,0,0.3,0l0.1,0l0.2,0l0.3,0l1.4,0
							l2.8,0.1l11.1,0.3c0,0-6.2,0.2-13,0.5c-0.8,0-1.7,0.1-2.5,0.1c-0.3,0-0.3,0-0.3,0c-0.1,0-0.1,0-0.2,0c-0.1,0-0.3,0.1-0.4,0.1
							c-0.5,0.2-0.9,0.4-1.3,0.7c-0.4,0.3-0.6,0.6-0.8,0.9c-0.2,0.3-0.3,0.5-0.4,0.6c-0.2,0.3-0.4,0.8-0.4,1.8c0,2.8,0,6.1,0,9.3
							c0,6.4,0,12.3,0,12.3l-0.5,12.4l-0.3,6.2l-0.1,3.1l0,0.4l0,0.2l0,0c0,0,0-0.1,0-0.1c0-0.1-0.1-0.1-0.1-0.2
							c-0.2-0.2-0.4-0.2-0.5-0.2c-0.1,0-0.2,0-0.2,0.1c-0.4,0,0.9,0.1,1.6,0.1l9.7,0.5L338.1,202.8z"/>
						<path fill="#3D3D3D" d="M406.4,161.6c0,0,0-0.9,0-2.4c0-0.4,0-0.8,0-1.3c0-0.2,0-0.6,0-1c0-0.4,0-0.8-0.1-1.2
							c-0.2-1.6-0.5-3.4-1.3-5.3c-1.5-3.7-4.6-7.5-9.2-9.7c-2.3-1.1-4.9-1.7-7.5-1.8l-0.5,0l-0.3,0l-0.7,0l-1.3,0
							c-0.9,0-1.8,0-2.7,0c-14.3,0-28.9-0.1-30.3-0.1c-1.3,0-15.3,0.3-28.9,0.6c-3.4,0.1-6.8,0.1-10,0.2l-0.6,0l-0.8,0
							c-0.6,0-1.1,0.1-1.7,0.2c-1.1,0.2-2.1,0.5-3.1,0.8c-2,0.7-3.7,1.7-5.1,2.9c-2.9,2.3-4.4,4.9-5.3,6.9c-0.4,1-0.7,1.8-0.8,2.3
							c-0.1,0.5-0.2,0.8-0.2,0.8c-0.2,0.8-0.3,1.5-0.4,2.3l-0.1,1.2l0,0.6l0,0.4l-0.1,3.3l-0.1,6.6l-0.3,13.1l-0.6,16.5l-0.1,4.1
							c0,1.3,0.1,2.7,0.5,4c0.4,1.3,1,2.6,1.7,3.7c1.5,2.3,3.7,4.1,6.3,5.1c1.3,0.5,2.7,0.8,4.1,0.9c0.8,0.1,1,0,1.4,0.1l1,0
							l40.4,0.3l-39,1.2l-2.7-0.1l-1,0c-0.5,0-1-0.1-1.5-0.2c-1-0.1-2-0.4-2.9-0.8c-3.8-1.4-6.9-4.3-8.6-8c-0.8-1.8-1.3-3.8-1.3-5.8
							c0-0.6,0-0.7,0-0.9l0-0.7l0-1.3l0.1-5.4l0.5-21.5c0,0,0.1-4.7,0.3-10.1c0-1.3,0.1-2.7,0.1-4.1l0-0.6l0-0.8
							c0-0.5,0.1-1.1,0.2-1.6c0.1-1,0.4-2,0.7-3c1.2-3.8,3.4-6.6,4.8-8.1c1.4-1.5,4-3.7,7.8-5c0.9-0.3,1.9-0.6,3-0.8
							c0.5-0.1,1-0.2,1.6-0.2l0.8-0.1l0.7,0c1.4-0.1,2.8-0.1,4.2-0.2c5.6-0.3,11.2-0.5,13.5-0.5c4.7-0.1,33.7-0.5,37-0.5
							c1.7,0,7.2,0.3,12.4,0.6c2.6,0.2,5,0.3,6.8,0.4c0.2,0,0.5,0,0.7,0c0.3,0,0.6,0.1,0.9,0.1c0.6,0,1.1,0.1,1.5,0.2
							c0.8,0.2,1.3,0.3,1.3,0.3c5.5,1.3,10.2,5,12.7,9.8c1.3,2.4,2.1,5.1,2.2,7.7c0,0.7,0,1.3,0,2l-0.1,1.3L406.4,161.6z"/>
					</g>
				</g>
			</g>
			<g>
				<g>
					<g>
						<path fill="#3D3D3D" d="M416.2,288.7l-91.8,1.4l-20.3-0.7l-10.1-0.3l-5.1-0.2l-2.5-0.1l-1.3,0l-0.7,0c-0.4,0-0.9,0-1.3-0.1
							c-3.5-0.4-6.9-2.2-9.1-4.8c-1.1-1.3-2-2.9-2.6-4.5c-0.3-0.8-0.5-1.7-0.6-2.5c-0.1-0.4-0.1-0.9-0.1-1.3l0-0.6l0-0.3l0-0.2
							l0.3-10.1l0.7-20.3c0,0-0.1-4.1-0.1-10.2c0-0.8,0-1.6,0-2.4c0-0.4,0-0.8,0-1.3c0-0.2,0-0.6,0-0.9c0-0.3,0-0.7,0-1
							c0.2-2.7,1.1-5.5,2.6-8c1.5-2.6,3.7-4.8,6.5-6.5c2.7-1.7,6-2.6,9.2-2.7c8.6-0.2,17.4-0.3,24.5-0.5c7.1-0.1,12.5-0.3,14.3-0.4
							c7.2-0.4,59.4,0.9,66.6,0.4c1.8-0.1,5.1-0.1,9.1,0c1,0,2.1,0,3.2,0.1c0.6,0,1.1,0,1.7,0c0.3,0,0.6,0,0.9,0l0.4,0l0.6,0
							c3.6,0.1,7.4,1.4,10.5,3.7c3.1,2.3,5.4,5.5,6.6,9c0.3,0.9,0.5,1.8,0.7,2.7c0.1,0.9,0.3,1.8,0.3,2.7l0,0.7c0,0.2,0,0.5,0,0.6
							c0,0.3,0,0.6,0,0.9c0,0.6,0,1.2,0,1.7c-0.1,4.5-0.2,8.4-0.2,11.1c0,5.4-0.8,15.8-1.6,24.8c-0.2,2.3-0.4,4.6-0.6,6.6
							c-0.3,3.1-2.1,5.6-3.8,7c-1.8,1.4-3.6,1.9-4.9,2.1c-0.6,0.1-1.1,0.1-1.4,0.1c-0.3,0-0.5,0-0.5,0s0.1,0,0.4,0
							c0.3,0,0.6,0,1.1-0.1c1-0.2,2.5-0.5,4-1.6c1.5-1.1,3.1-2.9,3.8-5.5c0.2-0.6,0.3-1.3,0.3-2c0-0.4,0-0.6,0-0.9
							c0-0.3,0-0.5,0-0.8c0-1,0-2.1,0-3.3c0-9.1-0.1-21.5-0.1-34.2c0-1.6,0-3.2,0-4.8l0-1.2l-0.1-1.4c0-0.5-0.1-1-0.2-1.4
							c-0.1-0.5-0.2-0.9-0.3-1.4c-1.1-3.7-3.7-6.9-7-8.8c-1.6-0.9-3.5-1.5-5.3-1.8c-0.5-0.1-0.9-0.1-1.4-0.1l-0.7,0l-0.6,0
							c-0.7,0-1.5,0-2.2,0c-2.9,0-5.8,0-8.4,0c-10.7,0-19-0.1-22.2-0.2c-12.6-0.5-45,0.4-55.8,0c-5.4-0.2-14-0.2-22.1-0.3
							c-2,0-4,0-5.9-0.1c-1,0-1.9,0-2.8,0c-0.2,0-0.4,0-0.7,0c-0.3,0-0.6,0-0.8,0c-0.6,0-1.1,0.1-1.6,0.2c-4.3,0.6-7.4,2.9-9.1,4.4
							c-0.9,0.8-2,2.1-3,3.9c-1,1.9-1.8,4.4-1.8,7.2c-0.1,4.2-0.2,9.2-0.2,14.3c-0.1,10.1-0.2,20.5-0.7,25c-0.1,1.1-0.2,2.9-0.2,5.1
							c0,0.2,0,0.8,0,1.3c0,0.5,0.1,1,0.2,1.6c0.2,1.1,0.6,2.2,1.2,3.2c1.1,2.1,3,4,5.4,5.2c1.2,0.6,2.5,1,3.9,1.2
							c1.7,0.1,2.1,0.1,3,0.1c1.6,0,3.3,0,5,0c3.4,0,7-0.1,10.5-0.1c14.2-0.2,28.1-0.6,31.7-0.6c7.2,0,19.8-0.9,30.6-0.9
							C374.8,285.1,416.2,288.7,416.2,288.7z"/>
						<path fill="#3D3D3D" d="M416.2,284.7l-38.5-0.8l-7-0.2c0,0-48.1,0.1-53.5,0.1c-2.7,0-13.5,0.2-24.8,0.4c-1.4,0-2.8,0-4.2,0.1
							c-0.7,0-1.4,0-2.1,0l-1,0l-0.5,0l-0.7,0c-2-0.1-3.9-0.9-5.4-2.1c-1.5-1.2-2.6-2.8-3.1-4.4c-0.3-0.8-0.5-1.7-0.5-2.5l0-0.6
							l0-0.4c0-0.3,0-0.6,0-0.8c0-1.1,0-2.1,0-3.1c0-1.9,0.1-3.5,0.1-4.6c0.5-9,0.4-30.6,0.9-36.1c0.1-0.8,0.2-2.2,0.9-4
							c0.6-1.8,1.8-3.9,3.8-5.7c1.9-1.8,4.6-3.2,7.6-3.5c0.7-0.1,1.5-0.1,2.2-0.1c0.7,0,1.4,0,2.1,0.1c1.4,0,2.8,0.1,4.1,0.1
							c11,0.3,21.4,0.5,21.4,0.5s41.4-0.4,46.8-0.4c5.4,0,45,0,45,0c1.1,0,2.4,0.1,3.6,0.3c1.2,0.3,2.3,0.7,3.4,1.3
							c1.1,0.6,2.1,1.3,2.9,2.1c0.5,0.4,0.8,0.9,1.2,1.3c0.3,0.5,0.7,1,1,1.5c1.2,2.1,1.8,4.4,1.8,6.8l-0.2,6.8l-0.7,27
							c0,0-0.6-16.2-1.1-33.1c0.1-3.9-2-7.4-5-9.3c-1.5-0.9-3.1-1.4-4.7-1.6c-0.4-0.1-0.8,0-1.2,0c-0.5,0-0.9,0-1.4,0
							c-0.9,0-1.8,0.1-2.6,0.1c-6.8,0.2-11.9,0.4-13.2,0.4c-5.4,0-77.4,0-82.8,0c-1.4,0-7.1-0.1-14.9-0.3c-1,0-2,0-3-0.1
							c-0.5,0-1,0-1.6,0c-0.5,0-1.1,0-1.5,0c-1.8,0-3.7,0.6-5.4,1.7c-1.7,1.1-3,2.7-3.9,4.6c-0.4,1-0.7,2-0.8,3l-0.1,0.8
							c0,0.3,0,0.6,0,0.9l0,1.8c-0.5,19.6-0.9,38.5-0.9,38.5c0,1.3,0,2.7,0,4c0.1,1.2,0.5,2.4,1.3,3.4c0.8,1,1.8,1.7,3,2.1
							c0.6,0.2,1.2,0.3,1.8,0.3l2,0l16.2,0.1l32.4,0.2L416.2,284.7z"/>
						<path fill="#3D3D3D" d="M412.6,279.7l-7.3-0.1l-95.4-1.3h-14.4h-7.2h-3.6h-0.2l-0.1,0l-0.3,0c-0.2,0-0.3,0-0.5-0.1
							c-0.3-0.1-0.6-0.2-0.9-0.4c-1.2-0.7-2-2-2-3.3l0-7.2V253l0.5-23.3c0.1-1.4,0.5-2.8,1.2-4c0.7-1.2,1.7-2.2,2.9-3
							c1.2-0.7,2.5-1.2,3.8-1.3c0.3-0.1,0.7,0,1,0l1.4,0l2.9,0.1c0,0-0.7,0-1.9,0.1c-0.6,0-1.4,0.1-2.2,0.1c-0.4,0-0.6,0.1-1,0.1
							c-0.3,0.1-0.7,0.1-1,0.3c-1.3,0.4-2.8,1.3-3.9,2.7c-1.1,1.4-1.7,3.1-1.6,4.9c0.3,5.9,0.5,12,0.8,16.9c0.2,5,0.4,8.8,0.4,10.2
							c0,1.4,0,5.7-0.1,11.6c0,1.5,0,3,0,4.6c0,0.6,0,1.2,0,1.9c0,0.1,0,0.2,0.1,0.3c0.1,0.2,0.3,0.4,0.4,0.4c0,0,0.1,0,0.2,0
							c0,0,0.1,0,0.1,0l0,0l0.2,0l0.3,0l2.7,0c14.2,0.1,27.7,0.2,27.7,0.2h52.2L412.6,279.7z"/>
						<path fill="#3D3D3D" d="M285.7,227.7c0.4-1.5,1.6-2.8,3.2-3.4c0.2,0,0.4-0.1,0.6-0.2l0.3-0.1c0.1,0,0.1,0,0.2,0l0.4,0l2.8-0.2
							l5.6-0.4l22.5-1.6l32.4,0.4h36l-32.4,3.2h-27l-27-0.2l-13.4-0.1C288.3,225.1,286.6,226.2,285.7,227.7z"/>
						<path fill="#3D3D3D" d="M344.4,274.1h-3.6l-56.1,0c0.1,0,0.3,0,0.4,0.1c0.1,0,0.1,0.1,0.2,0.2c0,0,0,0.1,0.1,0.1
							c0,0,0,0,0,0.1c0,0,0,0,0,0l0,0l0-0.1l0-0.1l0.3-9.5l0.7-18.9l0.3-14.4l0-1.7c0-0.2,0-0.3,0.1-0.5c0.1-0.3,0.2-0.6,0.4-0.9
							c0.1-0.3,0.3-0.5,0.6-0.7c0.2-0.2,0.5-0.4,0.8-0.5c0.3-0.1,0.5-0.2,0.8-0.3c0.1,0,0.3,0,0.4,0c0.1,0,0.1,0,0.2,0
							c0.1,0,0,0,0.2,0l0.5,0l7.2,0.2l14.4,0.3c0,0-8.1,0.3-16.9,0.7c-1.1,0-2.2,0.1-3.3,0.1c-0.6,0-1.1,0-1.7,0.1
							c-0.4,0-0.3,0-0.4,0c0,0-0.1,0-0.1,0c-0.2,0.1-0.4,0.2-0.5,0.4c-0.2,0.4-0.3,0.6-0.3,0.7c0,0.1,0,0.1,0,0.3c0,0,0,0,0,0
							c0,0,0,0.1,0,0.2v0.3c0,0.4,0,0.8,0,1.2c0,0.8,0,1.7,0,2.6c0,3.6,0,8,0,12.1c0,8.3,0,16,0,16l-0.3,8.1l-0.2,4.1l0,0.2l0-0.1
							c0-0.1,0-0.2,0-0.3c0-0.2-0.1-0.4-0.2-0.6c-0.1-0.4-0.3-0.7-0.6-1c-0.5-0.6-1.1-1.1-1.8-1.3c-0.5-0.3-2.4-0.2-0.1-0.1l8.1,0.3
							L344.4,274.1z"/>
						<path fill="#3D3D3D" d="M424,214.3c0,0-0.3-0.3-1.1-0.8c-0.7-0.5-1.8-1.3-3.3-2c-1.5-0.8-3.4-1.4-5.7-1.8
							c-0.6-0.1-1.2-0.2-1.8-0.2c-0.3,0-0.6,0-0.9,0l-0.5,0l-0.3,0c-0.8,0-1.6,0-2.5,0c-6.9,0-16.1,0-25.4-0.1
							c-18.6-0.1-37.7-0.1-39.4-0.1c-1.8,0-19.9,0.4-37.7,0.8c-4.4,0.1-8.8,0.2-13,0.3c-0.5,0-1,0-1.5,0l-0.8,0
							c-0.4,0-0.8,0-1.1,0.1c-1.6,0.1-3.1,0.4-4.5,0.8c-2.9,0.9-5.3,2.4-7.2,4.1c-1.9,1.7-3.3,3.7-4.3,5.5c-1,1.9-1.5,3.6-1.8,5.1
							c-0.1,0.7-0.2,1.4-0.3,2c-0.1,0.6-0.1,1.1-0.1,1.5c0,0.9,0,1,0,1l-0.7,34.2l-0.2,5.4l-0.1,2.7l0,1.3l0,0.7c0,0.1,0,0.4,0,0.6
							l0,0.7c0.2,3.9,2.1,7.7,5.1,10.2c1.5,1.3,3.3,2.3,5.2,2.9c1,0.3,1.9,0.5,2.9,0.6c0.5,0,1,0.1,1.5,0.1l0.7,0l21.5,0.8l52.6,0.4
							l-50.8,1.5l-14-0.3l-7-0.2l-1.8,0l-0.9,0l-0.7,0c-0.4,0-0.7,0-1.1-0.1c-3-0.3-5.9-1.4-8.3-3.1c-2.4-1.7-4.4-4.1-5.6-6.8
							c-0.6-1.3-1.1-2.8-1.3-4.2c-0.1-0.7-0.2-1.5-0.2-2.2l0-0.5l0-0.4l0-0.4l0.2-7l0.3-14c0,0,0.2-6.1,0.4-13.1
							c0.1-3.6,0.2-7.5,0.3-10.9c0.1-2.8,0.9-5.5,1.8-7.6c0.9-2.1,2.1-3.8,3-5c1-1.2,2.3-2.7,4.1-4c1.8-1.4,4.1-2.7,6.9-3.5
							c0.7-0.2,1.4-0.4,2.1-0.5c0.7-0.1,1.5-0.3,2.2-0.3c0.4,0,0.8-0.1,1.1-0.1l0.7,0c0.4,0,0.9,0,1.3-0.1c1.8-0.1,3.6-0.2,5.5-0.3
							c7.3-0.4,14.6-0.7,17.6-0.7c6.1-0.1,43.8-0.6,48.2-0.7c4.4,0,28.9,1.5,28.9,1.5l13.6,0.8l3.4,0.2l1.9,0.1
							c1,0.1,1.9,0.2,2.9,0.4C417.7,209.9,421.2,211.8,424,214.3z"/>
					</g>
				</g>
			</g>
			<g>
				<g>
					<g>
						<path fill="#3D3D3D" d="M446,363.4l-118.4,1.7l-52.2-1.7l-13.1-0.4l-6.5-0.2l-0.8,0l-0.7,0l-0.9-0.1c-1.2-0.1-2.5-0.4-3.7-0.9
							c-2.4-0.9-4.5-2.3-6.2-4.1c-1.7-1.8-2.9-4.1-3.5-6.5c-0.3-1.2-0.5-2.4-0.5-3.7l0-0.4l0-0.2l0-0.4l0-0.8l0.2-6.5l0.4-13.1
							c0,0-0.1-5.2-0.2-13.2c0-2-0.1-4.2-0.1-6.5c0-0.6,0-1.2,0-1.8l0-0.4l0-0.2l0-0.3c0-0.5,0-1,0.1-1.5c0.2-2,0.6-4.1,1.4-6
							c0.8-2,1.9-3.8,3.3-5.5c1.4-1.7,3.1-3.2,5-4.4c1.9-1.2,4-2.1,6.3-2.6c2.1-0.5,5-0.6,5.9-0.6c22.1-0.4,45.3-0.8,49.9-1.1
							c9.3-0.6,76.6,1.2,85.9,0.6c4.6-0.3,16.8,0,29.6,0.4c3.2,0.1,6.4,0.2,9.6,0.3c0.8,0,1.6,0,2.4,0.1c0.4,0,0.8,0,1.2,0l0.8,0
							l0.9,0.1c2.5,0.2,5,1,7.1,2c2.2,1.1,4,2.5,5.6,4c1.5,1.6,2.7,3.3,3.6,5.1c0.9,1.8,1.4,3.6,1.8,5.3c0.1,0.9,0.3,1.7,0.3,2.5
							c0,0.8,0.1,1.7,0.1,2c0,7-1,20.3-2,31.9c-0.3,2.9-0.5,5.7-0.7,8.3c-0.1,0.6-0.1,1.3-0.2,1.9c0,0.3-0.1,0.7-0.1,1
							c0,0.5-0.1,1-0.2,1.5c-0.4,1.9-1.3,3.5-2.3,4.8c-2.1,2.5-4.6,3.5-6.3,3.8c-0.9,0.2-1.5,0.2-2,0.2c-0.5,0-0.7,0-0.7,0
							s0.2,0,0.5,0c0.4,0,0.9-0.1,1.6-0.2c1.4-0.3,3.4-1,5.3-2.9c0.9-0.9,1.8-2.2,2.3-3.6c0.3-0.7,0.5-1.6,0.6-2.4
							c0.1-0.4,0.1-0.9,0.1-1.3c0-0.3,0-0.6,0-0.9c0-2.4,0-5.1,0-8c0-5.9,0-12.8-0.1-20.3c0-3.7,0-7.6,0-11.6l0-1.5l0-0.8
							c0-0.2,0-0.6,0-0.9c0-1.3-0.3-2.6-0.6-3.8c-0.8-2.5-2.2-4.8-4-6.7c-1.9-1.8-4.2-3.2-6.8-4c-0.6-0.2-1.3-0.3-1.9-0.4
							c-0.7-0.1-1.3-0.2-2-0.2l-0.5,0l-0.4,0l-0.8,0l-1.5,0c-4.1,0-8.2,0-12.2,0c-8,0-15.7,0-22.6,0c-13.8,0-24.6-0.1-28.6-0.2
							c-16.2-0.6-58,0.6-72,0c-7-0.3-18-0.3-28.4-0.4c-2.6,0-5.2,0-7.7-0.1c-1.2,0-2.4,0-3.6-0.1c-1.2,0-2.1-0.1-3.8,0
							c-2.9,0.2-5.6,1.2-7.6,2.4c-2.1,1.2-3.6,2.6-4.7,3.8c-1.1,1.2-2.5,3.2-3.3,6c-0.2,0.7-0.4,1.5-0.5,2.2
							c-0.1,0.4-0.1,0.8-0.1,1.2c0,0.4-0.1,0.9-0.1,1.2c0,1.2-0.1,2.5-0.1,3.8c-0.1,5.4-0.2,11.9-0.3,18.4
							c-0.1,6.5-0.1,13.1-0.3,18.8c0,0.4,0,0.7,0,1.1l0,0.5c0,0.2,0,0.3,0,0.7c0,1.3,0.2,2.6,0.6,3.7c0.7,2.4,2.1,4.4,3.8,5.8
							c1.6,1.5,3.5,2.4,5.3,2.9c0.9,0.3,1.8,0.4,2.6,0.5c0.5,0,1,0.1,1.5,0.1c11.6,1.2,74.3-0.6,83.6-0.6c9.3,0,25.5-1.2,39.5-1.2
							C392.6,358.8,446,363.4,446,363.4z"/>
						<path fill="#3D3D3D" d="M446,358.2l-49.7-1.1l-9-0.3c0,0-62,0.2-69,0.2c-3.5,0-17.4,0.3-31.9,0.5c-7.3,0.1-14.7,0.2-21,0.2
							c-3.2,0-6,0-8.5,0c-0.6,0-1.2,0-1.8,0c-0.1,0-0.3,0-0.4,0c-0.2,0-0.4,0-0.6,0c-0.4,0-0.8-0.1-1.2-0.2
							c-1.5-0.3-2.8-0.9-3.7-1.5c-1.9-1.2-3.7-3.4-4.4-6.2c-0.2-0.7-0.3-1.4-0.3-2.2l0-0.5l0-0.4c0-0.3,0-0.5,0-0.8
							c0-1,0-2.1,0.1-3.2c0.1-4.4,0.2-9.1,0.2-13.8c0.1-9.3,0.3-18,0.6-21.5c0-0.4,0.1-1.1,0.1-1.8c0.1-0.8,0-1.6,0.2-2.9
							c0.3-2.5,1.3-5.6,3.7-8.2c2.3-2.6,6-4.6,10-4.7c1,0,1.8,0,2.7,0c0.9,0,1.8,0,2.7,0.1c1.8,0,3.6,0.1,5.3,0.1
							c14.2,0.3,27.6,0.7,27.6,0.7s53.4-0.5,60.4-0.6c7,0,58,0,58,0l17.4,0.4l4.4,0.1l2.2,0.1c0.4,0,0.8,0,1.1,0.1
							c0.4,0,0.8,0.1,1.1,0.1c3,0.5,5.9,2.1,7.8,4.5c1.9,2.3,3,5.3,3,8.3l-0.2,8.7l-0.4,17.4c0,0-0.2-5.2-0.5-13.2
							c-0.1-2-0.1-4.1-0.2-6.4c0-1.1-0.1-2.3-0.1-3.5c0-0.6,0-1.2-0.1-1.8l0-0.9l-0.1-0.9c-0.2-2.3-1.2-4.5-2.8-6.2
							c-1.6-1.7-3.7-2.9-6-3.4c-1.2-0.2-2.2-0.2-3.7-0.1c-1.4,0-2.7,0.1-4.1,0.1c-2.7,0.1-5.4,0.2-8,0.3c-5.2,0.2-10.2,0.3-14.6,0.5
							c-8.8,0.3-15.3,0.5-17.1,0.5c-7,0-99.8,0-106.8,0c-1.7,0-9.1-0.1-19.3-0.4c-2.5-0.1-5.2-0.1-8.1-0.2c-0.8,0-1.3,0-1.8,0
							l-0.8,0.1l-0.8,0.2c-1.1,0.3-2.2,0.8-3.2,1.5c-2,1.4-3.5,3.6-3.9,6.1c-0.1,0.6-0.2,1.2-0.2,2l-0.1,2.4l-0.1,4.7
							c-0.3,12.6-0.6,25-0.8,34.3c0,0.6,0,1.1,0,1.7c0,0.5,0,0.9,0.1,1.3c0.2,0.8,0.6,1.6,1.1,2.2c1,1.2,2.3,1.9,3.4,2
							c0.3,0.1,0.6,0.1,0.8,0.1c0.3,0,0.6,0,0.8,0c0.5,0,1,0,1.3,0c0.7,0,1.1,0,1.1,0l83.6,0.6L446,358.2z"/>
						<path fill="#3D3D3D" d="M441.3,351.8l-9.4-0.1l-123-1.6h-37.1h-9.3h-4.6h-2.3H255l-0.3,0l-0.1,0c-0.2,0-0.3,0-0.5-0.1
							c-0.7-0.1-1.3-0.5-1.7-1.1c-0.2-0.3-0.4-0.6-0.5-0.9c0-0.2-0.1-0.3-0.1-0.5c0-0.1,0-0.2,0-0.3l0-0.1l0-0.1l0-0.1v-9.3
							l0.6-30.2l0.1-3.7c0-0.8,0.2-1.6,0.5-2.3c0.6-1.5,1.5-2.8,2.8-3.7c1.3-0.9,2.8-1.4,4.3-1.4l7.4,0.1c0,0-0.9,0-2.5,0.1
							c-0.8,0-1.8,0.1-2.9,0.1c-0.6,0-1.2,0.1-1.8,0.1c-0.4,0.1-0.7,0.1-1.1,0.2c-1.5,0.4-3.1,1.4-4.1,3c-0.5,0.8-0.8,1.7-0.9,2.6
							c0,0.2-0.1,0.5,0,0.7l0,0.9c0,1,0.1,1.9,0.1,2.9c0.7,15.4,1.5,31.6,1.5,35.1c0,0.8,0,2.4,0,4.7c0-0.4-0.4-0.9-1-1
							c7.4,0.1,16.5,0.1,25.5,0.2c18.3,0.1,35.7,0.3,35.7,0.3h67.3L441.3,351.8z"/>
						<path fill="#3D3D3D" d="M257.7,303.2c-0.1-1.1,0.7-2.5,2.1-3c0.1-0.1,0.2,0,0.3-0.1c0.1,0,0.1-0.1,0.5-0.1l1.8-0.1l3.6-0.3
							l7.3-0.5l29-2l41.8,0.6h46.4l-41.8,4.1h-34.8l-34.8-0.3l-17.4-0.1l-1.1,0l-0.3,0c-0.1,0,0,0-0.1,0c0,0-0.1,0-0.1,0
							c-0.1,0-0.2,0-0.2,0c-0.1,0-0.2,0-0.2,0c-0.3,0.1-0.6,0.2-0.8,0.3C258.3,302,257.9,302.6,257.7,303.2z"/>
						<path fill="#3D3D3D" d="M353.4,344.5h-4.6h-74.3l-12.2-0.4l-6.1-0.2l-0.8,0l-0.4,0c-0.1,0-0.3,0-0.2,0c0.2,0,0.5,0,0.7,0
							c0.5,0.1,1,0.3,1.4,0.6c0.4,0.3,0.8,0.7,1,1.2c0.1,0.2,0.2,0.5,0.3,0.8c0.1,0.1,0.1,0.3,0.1,0.4c0,0.1,0,0.1,0,0.2l0,0.1
							l0-0.2l0.2-6.1l0.4-12.2l0.4-18.6c0.1-2.8,0.1-7.5,0.3-6.3c0.1-0.1,0.2-0.2,0.4-0.2c0.1,0,0.1,0,0.1,0.1c0,0,0,0,0,0
							c0,0,0,0,0,0l2.3,0.1l9.3,0.2l18.6,0.4c0,0-10.4,0.4-21.8,0.9c-2.8,0.1-5.6,0.2-8.4,0.3c0.2,0,0.4,0.1,0.6,0
							c0.2,0,0.4-0.1,0.6-0.2c0.7-0.3,1-1.2,1-1.4c0,3.4,0,14.6,0,24.9c0,5.4,0,10.5,0,14.3c0,1,0,1.8,0,2.6c0,0.4,0,0.7,0,1.1v0.1
							l0,0.1l0-0.1c0-0.1,0-0.2,0-0.3c0-0.2,0-0.3,0-0.5c-0.1-0.6-0.2-1.1-0.3-1.4c-0.1-0.3-0.2-0.5-0.2-0.5
							c-0.8-1.9-2.3-3.3-4.1-4.1c-0.9-0.4-1.9-0.6-2.9-0.6c-0.1,0-0.2,0-0.4,0l0.3,0l0.7,0l1.3,0.1l10.4,0.4l20.9,0.9L353.4,344.5z"
							/>
						<path fill="#3D3D3D" d="M428.6,281c0,0-93.8-0.3-98.3-0.3c-2.3,0-25.7,0.5-48.6,1c-5.7,0.1-11.4,0.2-16.7,0.4
							c-1.3,0-2.6,0.1-3.9,0.1c-0.4,0-0.7,0-1.1,0c-0.6,0-1.1,0.1-1.6,0.1c-1.1,0.1-2.2,0.3-3.2,0.6c-4.2,1.1-7.7,3.3-10.2,6
							c-2.5,2.7-4.2,5.7-5,8.6c-0.2,0.7-0.4,1.4-0.5,2.1c-0.1,0.7-0.2,1.3-0.3,2c-0.1,1.2-0.1,2.7-0.1,3.1c0.1,2.4,0.1,3.8,0.1,3.8
							l-0.4,22l-0.2,11l-0.1,5.5c0,0.1,0,0.8,0,1.3c0,0.6,0.1,1.1,0.2,1.7c0.2,1.1,0.5,2.2,0.9,3.2c0.8,2.1,2,4,3.6,5.6
							c2,2,4.4,3.6,7.2,4.4c1.4,0.4,2.8,0.6,4.2,0.7l1.9,0.1l6.9,0.2l13.8,0.5l27.7,1l67.8,0.6l-65.5,2l-36.1-0.8l-9-0.2l-4.5-0.1
							l-2.3-0.1l-1,0c-0.5,0-1.1-0.1-1.6-0.1c-1.1-0.1-2.2-0.4-3.2-0.7c-4.2-1.3-8-4-10.5-7.6c-1.2-1.8-2.2-3.8-2.8-5.9
							c-0.3-1.1-0.5-2.1-0.6-3.2c-0.1-1-0.1-2.5-0.1-2.6l0.2-9c0,0,0.2-7.9,0.5-16.9c0.1-4.5,0.2-9.3,0.3-13.6c0-1.1,0-2.1,0-3.1
							c0-0.1,0-0.7,0-1.2c0-0.5,0.1-0.9,0.1-1.4c0.1-0.9,0.2-1.8,0.4-2.6c0.7-3.3,2-6,3.1-7.9c1.1-1.9,2.8-4.2,5.4-6.3
							c2.5-2.1,5.9-4,10-5c1-0.2,2-0.4,3.1-0.5c0.5,0,1.1-0.1,1.6-0.1c0.3,0,0.7,0,1-0.1c1.1-0.1,2.2-0.1,3.4-0.2
							c2.3-0.1,4.7-0.2,7-0.3c9.5-0.5,18.8-0.9,22.7-0.9c7.9,0,56.5-0.8,62.1-0.8s37.3,2,37.3,2L428.6,281z"/>
					</g>
				</g>
			</g>
			<g>
				<g>
					<g>
						<path fill="#3D3D3D" d="M205.7,359.2l66.2-1l58.4,1.9c0,0,46.7-0.6,51.9-1c5.2-0.3,42.8,0.6,48,0.3c5.2-0.3,27.2,0.6,35,0.6
							c7.8,0,29.8,2.3,29.8,2.3s-68.8,0.3-77.8,0c-9.1-0.3-32.4,0.3-40.2,0c-7.8-0.3-24.6,0-29.8-0.6c-5.2-0.6-28.5-0.3-35-1
							c-6.5-0.6-41.5,0.3-46.7,0.3c-5.2,0-14.3,0.6-22.1,0.6S205.7,359.2,205.7,359.2z"/>
						<path fill="#3D3D3D" d="M205.7,362.1l27.8,0.6l5.1,0.2c0,0,34.6-0.1,38.5-0.1s31.1-0.6,37.6-0.3c6.5,0.3,22.1,0.3,25.9,0.6
							c3.9,0.3,33.7,1,33.7,1s29.8-0.3,33.7-0.3s32.4,0,32.4,0l38.9,1c0,0-46.7,1.6-50.6,1.6s-55.8,0-59.7,0
							c-3.9,0-58.4-1.3-58.4-1.3l-46.7-0.3L205.7,362.1z"/>
						<path fill="#3D3D3D" d="M208.3,365.7l5.2,0.1l68.7,0.9h41.5l33.7,0.6c0,0-32.4,1.6-36.3,1.6c-3.9,0-42.8-0.3-42.8-0.3h-37.6
							L208.3,365.7z"/>
						<polygon fill="#3D3D3D" points="344.5,369.9 377,367.6 400.3,367.9 426.2,367.9 402.9,370.2 383.4,370.2 						"/>
						<path fill="#3D3D3D" d="M257.5,369.7h2.6h41.5l27.2,1l41.5,1c0,0-23.4,1-27.2,1c-3.9,0-25.9,0-25.9,0l-23.3-1L257.5,369.7z"/>
						<path fill="#3D3D3D" d="M447.5,358.6c0,0-52.4-0.2-54.9-0.2c-2.5,0-52.4,1.1-52.4,1.1l-24.6-0.5l-30.9-1.1l-37.9-0.3l36.6-1.1
							l40.4,0.9c0,0,17.7,0.6,22.7,0.5c5.1-0.2,21.5-1.1,25.9-1.1s31.6-0.5,34.7-0.5s20.8,1.1,20.8,1.1L447.5,358.6z"/>
					</g>
				</g>
			</g>
			<g>
				<g>
					<g>
						<g>
							<path fill="#3D3D3D" d="M318.5,114.7c2-1.1,4.4-1.5,6.6-1.1c2.2,0.4,4.2,1.4,5.8,2.7l-3.3,1.7c-0.2-2.3,0.1-4.8,1.3-7
								c1.2-2.2,3.2-4,5.7-4.8c2.3-0.7,4.9-0.4,7,0.6c2.1,1,3.7,2.7,4.9,4.4l0.1,0.1l0,0.1l1.4,2.9l0.1,0.2l0,0.1
								c0.7,2.3,0.4,4.8-0.4,6.9c0,0-0.3,1.1-1.1,2.5c-0.7,1.3-1.8,3.1-2.7,4.9c-0.9,1.8-1.5,3.7-1.9,5.3c-0.2,0.8-0.3,1.5-0.3,2
								c0,0.6,0,0.8,0,0.8l3.2,7.1l-6.3-5.5c0,0-0.1,0-0.1-0.1c-0.1-0.1-0.3-0.2-0.6-0.4c-0.4-0.2-0.9-0.5-1.5-0.7
								c-1.2-0.5-2.9-1-4.6-1.3c-1.6-0.4-3.5-0.4-5.1-0.5c-1.6-0.1-2.8-0.3-3.3-0.4c-0.5-0.1-1.4-0.3-2.5-0.7
								c-1.1-0.5-2.4-1.2-3.4-2.3c-1-1.1-1.8-2.5-2.2-3.6c-0.5-1.2-0.7-2.2-0.9-3c-0.1-0.7-0.2-1.9-0.1-3.2c0.2-1.3,0.6-2.6,1.4-3.7
								c0.7-1.1,1.6-1.9,2.3-2.4c0.7-0.5,1.2-0.7,1.2-0.7s-0.4,0.2-1,0.6c-0.6,0.4-1.3,1.2-2,2.2c-0.7,1.1-1.1,2.5-1.2,4.1
								c-0.1,1.6,0.2,3.2,0.8,4.8c0.6,1.5,1.4,3.1,2.7,4.3c1.2,1.2,2.7,1.9,4.1,2.2c1.4,0.4,2.6,0.5,3.6,0.6c1,0.1,1.7,0.2,2.1,0.2
								c0.7,0.1,1.5,0.1,2.5,0.2c1,0.1,2.1,0.3,3.2,0.5c1.1,0.3,2.2,0.6,3.2,1c1,0.4,1.9,0.9,2.4,1.4l1.6,1.6l-0.4-2.2
								c-0.1-0.5,0-1,0.1-1.4c0.2-1.3,0.8-3.3,1.5-5.1c0.4-0.9,0.8-1.8,1.2-2.5c0.4-0.7,0.8-1.3,1.1-1.7c0.3-0.3,0.7-1,1.2-1.8
								c0.5-0.8,1.1-1.9,1.6-3.1c0.5-1.2,0.8-2.5,0.9-3.8c0.1-1.3-0.2-2.4-0.4-3.1l-0.1-0.2c-0.1-0.1-0.1-0.3-0.2-0.4
								c-0.2-0.5-0.6-1.4-1.2-2.5l0-0.1l-0.1-0.1c-0.7-1-1.6-2.1-2.9-3c-1.3-0.9-2.8-1.6-4.4-1.7c-1.5-0.2-3,0.1-4.1,0.5
								c-1.1,0.4-1.8,0.9-2.1,1.1c-0.9,0.6-1.9,1.6-2.6,3c-0.7,1.3-1.2,2.9-1.3,4.4c-0.1,0.5-0.1,1.3-0.1,2.3l1.7-0.9
								c-0.8-0.7-1.8-1.5-3-2.1c-1.2-0.6-2.6-1-4-1.1C320.5,113.6,318.4,114.8,318.5,114.7z"/>
							<path fill="#3D3D3D" d="M319,115.6c1.6-0.8,3.4-1.1,5.2-0.9c1.7,0.2,3.4,0.9,4.7,1.9c0.4,0.3,0.8,0.6,1.1,0.9l-1,0.5l0-0.4
								c0,0-0.1-0.8,0.1-2c0.1-1.2,0.6-2.8,1.5-4.3c0.9-1.4,2.3-2.6,3.6-3.2c1.3-0.6,2.4-0.7,2.8-0.7c0.5,0,2.1-0.1,3.9,0.6
								c1.8,0.7,3.5,2.3,4.6,3.9l0,0l0,0c0.6,1.1,1.1,2.1,1.5,2.8l0,0.1l0,0c0.1,0.2,0.1,0.4,0.1,0.5c0.1,0.6,0.3,1.4,0.2,2.3
								c0,0.9-0.2,1.9-0.5,2.8c-0.6,1.8-1.5,3.3-1.9,3.8c-0.2,0.3-0.7,1-1.3,2c-0.6,1-1.4,2.2-1.9,3.4c-0.6,1.2-1,2.5-1.3,3.4
								c-0.3,0.9-0.4,1.6-0.4,1.6s0,0.1-0.1,0.5c0,0.4-0.2,1-0.1,2l0.1,0.6l-0.4-0.4c-0.5-0.5-2.3-1.5-4.2-2
								c-1.9-0.6-3.8-0.8-4.3-0.9c-0.3-0.1-1.2-0.1-2.3-0.2c-1.1-0.1-2.5-0.1-3.8-0.3c-1.3-0.2-2.6-0.5-3.5-0.8
								c-0.9-0.3-1.5-0.7-1.5-0.7c-1-0.6-1.9-1.4-2.5-2.4c-0.7-1-1.1-2-1.5-3.1c-0.7-2.2-0.8-4.5,0-6.7c0,0-0.1,0.2-0.2,0.7
								c-0.1,0.4-0.2,1.1-0.2,1.8c0,1.5,0.4,3.6,1.4,5.4c0.5,0.9,1.1,1.8,1.8,2.4c0.7,0.7,1.5,1.1,2.2,1.5c1.5,0.6,2.7,0.8,3,0.8
								c2.6,0.5,5.4,0.3,8.2,0.9c1.4,0.2,2.8,0.6,4.1,1c0.7,0.2,1.3,0.5,2,0.8c0.6,0.3,1.3,0.7,1.9,1.2l-1.1,0.6
								c-0.2-0.9,0-1.6,0.1-2.4c0.1-0.7,0.3-1.5,0.5-2.2c0.1-0.3,0.5-1.6,1.2-3.3c0.7-1.7,2-3.7,3.2-5.6c1.2-1.9,2.1-4,2.3-5.7
								c0.2-1.7-0.2-2.9-0.3-3.1l0,0c-0.4-0.7-0.4-0.8-0.4-0.8l-1.1-2.1l0,0c-1.3-1.9-3.1-3.5-5.3-4.1c-2.2-0.6-4.7-0.1-6.5,1.3
								c-1.3,0.9-2.2,2.2-2.9,3.6c-0.6,1.5-0.9,3.1-0.8,4.7l0.6-0.3c-1.4-1.2-3.1-2.3-5-2.7C322.9,114.5,320.8,114.7,319,115.6z"/>
							<path fill="#3D3D3D" d="M320.3,116.3c0.5-0.2,1.1-0.3,1.7-0.4c2.6-0.4,5.2,0.8,7.3,2.5l0.9,0.8l-0.1-1.3
								c-0.2-2.5,0.5-5,2.1-6.8c1.6-1.8,4.1-2.7,6.4-2.2c2.3,0.4,4.3,1.9,5.6,3.9l0-0.1l1.5,2.8l0-0.1c0.3,1,0.4,2.2,0.3,3.3
								c-0.3,1.8-1.1,3.5-2.2,5.1l-1.5,2.5c-0.5,0.8-1,1.7-1.4,2.6c0,0,0.3-0.7,0.7-1.7c0.5-1,1.2-2.3,1.8-3.6
								c0.7-1.3,1.3-2.6,1.5-3.7c0.3-1.1,0.3-1.8,0.3-2.1c0-0.2,0.1-0.8-0.3-2.2l0.1,0.2c-0.1-0.2-0.7-1.4-1.4-2.8l0.1,0.2
								c-1-1.5-2.5-2.8-3.8-3.3c-0.7-0.3-1.3-0.4-1.7-0.4c-0.4,0-0.7,0-0.7,0c-1.8,0-3.5,0.8-4.7,2.2c-1.2,1.4-1.8,3.2-1.8,5.2
								c0,0.3-0.1,0.7-0.1,1.1l-0.1,3.1l-2-2c-1.1-1.1-2.4-2-3.8-2.5C323.5,116,321.9,115.9,320.3,116.3z"/>
							<path fill="#3D3D3D" d="M342.2,124.5L341,127c-0.4,0.9-0.8,1.9-1.1,2.8c-0.6,1.9-1.1,3.8-1.2,5.8c-0.1,0.6-0.2,1.2,0,2l1.9-1
								c-0.5-0.5-1.1-0.8-1.6-1.1c-0.5-0.3-1-0.5-1.6-0.8c-1.1-0.5-2.1-0.8-3.2-1.1c-1.5-0.3-3.1-0.6-4.7-0.7
								c-1.5-0.1-3-0.2-4.4-0.4c1.3,0,2.6,0,4-0.1c0.7,0,1.4,0,2.1,0l2.2,0.2c1.2,0.2,2.4,0.6,3.5,1c1.2,0.5,2.2,0.9,3.5,1.7
								c0.2,0.2,0.5,0.4,0.7,0.6l-3.3,1.8c-0.1-0.5-0.1-0.9-0.1-1.3c0-0.4,0-0.7,0.1-1c0.1-0.6,0.2-1.2,0.3-1.8
								c0.3-1.1,0.6-2.2,1-3.3c0.4-1.1,0.9-2.1,1.4-3.1C341.1,126.3,341.7,125.5,342.2,124.5z"/>
							<path fill="#3D3D3D" d="M332.8,112.4c0.1-0.2,0.3-0.4,0.4-0.5c1.2-1.4,3.1-2.2,4.9-1.9c1.8,0.2,3.5,1.3,4.8,2.9
								c0.2,0.2,0.3,0.4,0.4,0.6l-0.1-0.2l1.4,2.9l-0.1-0.3c0.2,0.6,0.3,1.3,0.2,2c0,0.3-0.1,0.7-0.2,1c-0.1,0.4-0.2,0.7-0.3,1
								c-0.3,0.9-0.8,1.9-1.4,2.9l-1.9,3.1l-0.5,0.8l-0.5,0.9c-0.3,0.6-0.6,1.2-0.8,1.8c-0.5,1.2-1,2.4-1.3,3.7c0,0,0.5-2.2,1.4-4.4
								c0.4-1.1,1-2.3,1.5-3.1c0.5-0.8,0.8-1.5,1-1.8c0.2-0.3,0.5-0.9,1-1.7c0.4-0.7,0.8-1.6,1-2.3c0.1-0.4,0.2-0.8,0.3-1.1
								c0-0.3,0.1-0.6,0.1-0.8c0-0.5-0.1-0.8-0.1-0.8c0-0.3-0.1-0.6-0.1-0.9l0.2,0.4l-1.3-2.9l0.2,0.3c-0.5-0.8-1.1-1.5-1.8-2.1
								c-1.2-1-2.6-1.6-4.1-1.5C335.3,110.3,333.8,111.1,332.8,112.4z"/>
							<path fill="#3D3D3D" d="M316.8,132.2c0,0,0.2,0.3,0.7,0.7c0.5,0.4,1.2,1,2.1,1.5c1.9,1,4.5,1.5,6.9,1.7
								c1.2,0.1,2.3,0.2,3.4,0.2c1,0.1,1.9,0.3,2.8,0.4c1.6,0.3,2.7,0.8,2.9,0.9c0.1,0,0.3,0.1,0.8,0.3c0.3,0.1,0.5,0.2,0.9,0.4
								c0.4,0.2,0.7,0.4,0.9,0.6l3.5-1.9c-0.1-0.1,0-1.5,0.3-2.8c0.3-1.4,0.8-2.9,1.4-4.2c0.3-0.7,0.6-1.3,0.9-1.9
								c0.3-0.6,0.6-1.2,0.9-1.6c0.5-0.9,0.8-1.5,0.8-1.5c0.7-1.2,1.5-2.6,2-4.2c0.5-1.6,0.7-3.4,0.3-5.1c-0.1-0.3-0.1-0.7-0.2-1
								l0-0.1l-0.1-0.2l-1.4-2.9l0-0.1l-0.1-0.2c-1.4-2.2-3.5-4.2-6.3-5.1c-2.7-0.8-5.9-0.3-8.2,1.3c-2.4,1.6-4,4.2-4.5,6.8
								c0.5-2.6,1.9-5.2,4.2-6.9c2.2-1.7,5.3-2.4,8.2-1.8c3.2,0.8,5.7,3,7.2,5.4l0.1,0.2l0,0.1l1.4,2.9l0.1,0.2l0,0.1
								c0.5,1.6,0.6,3.2,0.4,4.7c0,0-0.1,0.5-0.3,1.2c-0.2,0.7-0.5,1.7-1,2.6c-0.4,0.9-0.9,1.8-1.4,2.5c-0.4,0.7-0.8,1.3-1,1.7
								c-0.2,0.4-0.5,1-0.9,1.7c-0.3,0.6-0.6,1.4-0.9,2.2c-0.6,1.6-0.9,3.2-1.1,3.8c0,0.2-0.1,0.5-0.2,0.9c0,0.2-0.1,0.5-0.1,0.7
								c0,0.1,0,0.3,0,0.4l0,0.1l0,0l0,0l-0.1,0l-4.4,2.4c-0.1,0-0.2-0.1-0.4-0.3c-0.2-0.1-0.6-0.3-0.9-0.4
								c-0.7-0.3-1.5-0.6-2.2-0.8c-1.5-0.5-2.9-0.6-3.2-0.7c-0.4-0.1-2.1-0.3-3.8-0.5c-0.9-0.1-1.7-0.2-2.4-0.3
								c-0.6-0.1-1.1-0.2-1.1-0.2c-1.2-0.3-2.5-0.7-3.8-1.3C318.9,134.2,317.7,133.3,316.8,132.2z"/>
						</g>
					</g>
				</g>
			</g>
			<g>
				<g>
					<g>
						<g>
							<path fill="#3D3D3D" d="M340.1,101.4c0.7-0.9,1.4-1.8,2.3-2.6c0.9-0.8,1.9-1.5,2.9-2c2.1-1.1,4.6-1.7,7.1-1.5
								c1.2,0.1,2.4,0.4,3.6,0.9c0.5,0.2,1.1,0.5,1.6,0.9c0.5,0.3,1,0.7,1.5,1.1c1.9,1.6,3.3,3.8,4,6c0.7,2.2,0.8,4.4,0.7,6.5
								l-3.6-1.7c2.3-1.9,5.1-3.3,8.2-3.7c3-0.4,6.3,0.3,8.8,2.1c0,0,0.6,0.4,1.5,1.1c0.9,0.8,2,2,2.8,3.7c0.8,1.7,1.3,3.7,1.2,5.7
								c0,2-0.4,3.8-0.8,5.3l0,0.1l-0.1,0.1c-0.8,1.7-1.4,3-1.5,3.4c-0.1,0.1-0.1,0.3-0.2,0.5l0,0.1l-0.1,0.2
								c-0.5,0.8-1.6,2.1-3.2,3.2c-1.6,1.1-3.6,1.9-5.6,2.3c-1,0.2-1.9,0.4-2.8,0.5c-0.9,0.1-1.7,0.2-2.4,0.3
								c-1.4,0.2-2.5,0.3-3,0.4c-0.2,0-0.6,0.1-1,0.1c-0.4,0.1-0.8,0.1-1.3,0.2c-1,0.2-2.2,0.4-3.4,0.7c-2.5,0.6-4.9,1.6-6,2.3
								c-0.4,0.2-0.9,0.5-1.2,0.8l-3.9,3.6l1.2-4.8c0.1-0.6,0.1-1.5,0-2.5c-0.1-1-0.3-1.9-0.5-2.8c-0.4-1.7-0.8-3.1-0.8-3.1
								s0.4,0.9,0.9,2.4c0.3,0.8,0.5,1.7,0.8,2.7c0.2,1,0.5,2.2,0.3,3.3l-0.3,2.3l1.6-1.7c0.5-0.6,1.4-1,2.2-1.5
								c0.9-0.4,1.8-0.8,2.7-1.2c1.9-0.7,3.8-1.3,5.6-1.6c1.8-0.4,3.5-0.5,4.8-0.7c1.3-0.1,2.3-0.2,2.9-0.3c1.3-0.1,3.6-0.4,5.8-1.3
								c1.1-0.5,2.2-1.1,3.2-1.8c0.9-0.8,1.7-1.6,2.3-2.5l0,0l0-0.1c0.5-0.9,0.8-1.7,1.1-2.2c0.2-0.5,0.5-1,0.8-1.6l0,0l0-0.1
								c0.6-1.6,1-3.6,0.9-5.4c0-1.8-0.4-3.5-0.7-4.3c-0.1-0.5-0.5-1.4-1.2-2.5c-0.7-1-1.7-2.1-3-3c-1.3-0.8-2.7-1.4-4-1.7
								c-1.3-0.3-2.4-0.3-3.1-0.4c-0.7,0-2.2,0.1-3.9,0.7c-1.7,0.6-3.6,1.8-5.2,3.2l2.3,1.1c0.1-2-0.2-3.9-0.7-5.5
								c-0.5-1.5-1.1-2.6-1.3-3.1c-0.5-0.9-1.4-2.1-2.7-3.1c-1.2-1-2.8-1.8-4.4-2.2c-0.8-0.2-2.1-0.6-3.7-0.5
								c-1.6,0-3.5,0.4-5.1,1.2c-1.6,0.7-3,1.7-3.9,2.6C340.7,100.9,340.1,101.4,340.1,101.4z"/>
							<path fill="#3D3D3D" d="M341,102.1c2.2-2.8,5.5-5,9.2-5.3c0.7,0,1.3,0,2,0.1c0,0,0.9,0,2.1,0.4c1.3,0.4,2.9,1.2,4.2,2.4
								c1.3,1.2,2.3,2.8,2.9,4.2c0.6,1.4,0.8,2.5,0.8,2.9c0.1,0.5,0.4,2,0.3,4l-1.2-0.6c1.4-1.2,3.3-2.5,5.2-3.1
								c1.9-0.7,3.7-0.7,4.5-0.7c1.3,0.1,3.5,0.5,5.2,1.6c1.8,1,3,2.6,3.4,3.3c0.2,0.3,0.6,0.9,0.9,1.9c0.4,0.9,0.7,2.1,0.8,3.4
								c0.2,2.5-0.5,5.2-0.9,6.3l0,0l0,0c-0.3,0.5-0.4,0.8-0.4,0.8s-0.4,0.8-1.5,3.1l0,0l0,0c-0.5,0.8-1.9,2.4-3.6,3.4
								c-1.7,1-3.5,1.4-4,1.6c-0.4,0.1-1.3,0.3-2.5,0.5c-1.2,0.1-2.6,0.3-4,0.5c-1.4,0.2-2.8,0.3-3.8,0.5c-1,0.2-1.6,0.3-1.6,0.3
								c-1.8,0.4-3.6,0.9-5.3,1.5c-0.9,0.3-1.7,0.7-2.5,1.1c-0.8,0.4-1.7,0.8-2.3,1.5l0,0l0-0.1c0.2-1.1,0-2.2-0.2-3.3
								c0,0,0.1,0.3,0.2,0.9c0.1,0.6,0.3,1.4,0.2,2.5l-0.3-0.1c0.9-1,2.3-1.7,3.7-2.4c1.5-0.7,3-1.3,4.5-1.8c1.5-0.5,2.9-0.8,4-1
								c1.1-0.2,1.9-0.3,2.1-0.3c2.8-0.4,5.6-0.5,8.2-1.2c1.3-0.4,2.6-0.9,3.7-1.6c1.1-0.7,2.1-1.6,2.8-2.7l-0.1,0.1l1.9-3.9l0,0.1
								c0.1-0.3,0.2-0.7,0.3-1c0.1-0.3,0.5-1.8,0.6-3.8c0.1-2-0.5-4.6-2.1-6.6c-1.5-2-3.9-3.2-5.7-3.6c-0.9-0.2-1.7-0.3-2.2-0.3
								c-0.5,0-0.9,0-0.9,0c-2.9,0.2-5.6,1.6-7.7,3.4l-0.2,0.2l0-0.3c0.1-2.8-0.4-5.8-1.9-8.2c-0.9-1.6-2.1-2.9-3.7-3.9
								c-1.6-1-3.4-1.5-5.3-1.5C347,97,343.4,99.2,341,102.1z"/>
							<path fill="#3D3D3D" d="M342.7,102.2c0.4-0.5,0.8-0.9,1.3-1.3c1.5-1.3,3.4-2.3,5.4-2.7c2-0.4,4.1-0.1,5.8,0.8
								c1.8,0.9,3.3,2.4,4.2,4.1c1,1.7,1.5,3.8,1.6,5.8c0,0.6,0,1.2,0,1.8l-0.1,1.8l1.4-1.2c1.6-1.4,3.5-2.5,5.6-3
								c2-0.5,4.2-0.5,6.2,0.3c1.8,0.7,3.4,1.9,4.4,3.5c1.1,1.6,1.6,3.5,1.6,5.4c0,0,0-0.7-0.3-1.7c-0.2-1-0.8-2.3-1.6-3.4
								c-0.8-1.1-2-2-3-2.5c-1-0.5-1.9-0.7-2.2-0.8c-0.2-0.1-0.9-0.2-1.8-0.3c-0.9-0.1-2.1,0-3.2,0.3c-2.3,0.5-4.5,2.1-5.2,2.8
								l-2.7,2.3l0.1-3.5c0-1.3,0-2-0.1-2.5c-0.1-0.4-0.1-0.6-0.1-0.6c-0.3-2.1-1.1-4-2.4-5.6c-1.3-1.5-3.1-2.6-5-2.9
								C349.4,98.1,345.4,99.4,342.7,102.2z"/>
							<path fill="#3D3D3D" d="M378.2,113.7c1.5,2.4,1.7,5.6,0.9,8.7l0.1-0.1l-0.7,1.7l-1.1,2.2l0.1-0.2c-1.1,1.5-2.6,2.6-4.3,3.3
								c-1.3,0.6-2.8,0.9-4.3,1.2c-1.5,0.2-3.2,0.4-4.8,0.6l4.2-0.9c1.3-0.3,2.6-0.8,3.7-1.3c0.5-0.2,1-0.4,1.4-0.6
								c0.4-0.2,0.8-0.5,1.2-0.8c0.8-0.6,1.5-1.3,2-2l-0.2,0.3l0-0.1l1.9-3.8l-0.1,0.2C379.3,119.2,379.4,116.2,378.2,113.7z"/>
							<path fill="#3D3D3D" d="M357,101.8c0.2,0.2,0.4,0.4,0.5,0.6c1.8,2.2,2.5,5.2,2.4,8.2l-0.2,4.5l3.4-2.9c1.2-1,2.5-1.9,3.9-2.4
								c2.7-0.9,5.7-0.7,7.9,0.8c1.7,1.1,2.9,2.7,3.4,4.7c0.5,1.9,0.3,4.1-0.3,6.1c0,0,0.1-0.4,0.2-1.1c0.1-0.7,0.2-1.6,0.1-2.5
								c-0.1-1.9-0.9-3.5-1.2-3.9c-0.2-0.5-1.2-1.9-2.6-2.6c-1.4-0.8-2.9-1-2.9-1c-2.1-0.4-4.4,0.1-6.4,1.3
								c-0.6,0.3-1.1,0.7-1.7,1.1l-4.8,3.6l0.6-5.6C359.6,107.4,359,104.1,357,101.8z"/>
							<path fill="#3D3D3D" d="M357.2,135.9c0,0,1.1-0.4,2.8-0.7c0.4-0.1,0.9-0.2,1.4-0.3c0.5-0.1,1-0.2,1.6-0.2
								c1.1-0.1,2.4-0.3,3.6-0.4c2.4-0.2,5.2-0.7,7.3-1.5c1-0.4,1.9-0.8,2.6-1.2c0.6-0.4,1-0.7,1.1-0.8c0.1-0.1,0.3-0.2,0.7-0.6
								c0.4-0.4,1.1-1.1,2-2.3l0.3-0.4l-0.1,0.1c0,0,0.2-0.4,0.5-1.1c0.3-0.7,0.8-1.7,1.3-2.8l0.1-0.2l0-0.1
								c0.4-1.3,0.7-2.8,0.8-4.4c0.1-1.5-0.1-3.1-0.4-4.4c-0.3-1.3-0.9-2.4-1.3-3.2c-0.4-0.7-0.7-1.1-0.7-1.1c-2-3-5.5-4.9-9.1-5.2
								c-2.1-0.2-4.1,0.1-6.1,0.8c-1.9,0.7-3.7,1.7-5.2,3l4,1.9c0-0.4,0-0.8,0-1.1c0-2.7-0.6-5.4-1.9-7.9c-1.3-2.5-3.5-4.6-6.2-5.8
								c2.7,1.1,4.9,3,6.3,5.4c1.5,2.4,2.2,5.1,2.3,7.8c0,0.6,0,1.2,0,1.7l-4.8-2.3c2-1.7,4.4-3,7.1-3.7c2.7-0.6,5.6-0.5,8.2,0.5
								c0,0,0.5,0.2,1.2,0.5c0.7,0.4,1.7,0.9,2.5,1.7c0.9,0.8,1.7,1.7,2.3,2.6c0.6,0.9,1,1.8,1.2,2.3c0.5,1,1.3,3.3,1.3,5.7
								c0.1,2.3-0.5,4.5-0.8,5.5l-0.1,0.2l-0.1,0.2c0,0,0,0.1,0,0.1c-0.2,0.5-0.8,1.7-1.8,3.8l-0.1,0.1l-0.2,0.2
								c-1,1.6-2.9,3.3-4.8,4.4c-1.9,1-3.5,1.4-3.9,1.6c-0.6,0.2-2.9,0.6-4.6,0.6c-1.8,0.1-3.4,0.2-3.4,0.2l-1.8,0.1
								c-0.5,0-1.1,0.1-1.7,0.2C359.4,135.4,358.3,135.6,357.2,135.9z"/>
						</g>
					</g>
				</g>
			</g>
			<g>
				<g>
					<g>
						<path fill="#3D3D3D" d="M301.6,169.5c2.1,0.7,4.3,1,6.4,0.6c2.1-0.3,4.2-1.2,6-2.4c1.9-1.2,3.5-2.9,5-4.7
							c1.5-1.8,2.7-3.9,3.8-6c0.7-1.2,1.3-2.5,2-3.8l2.9-5.8l2.2,5.8c1.3,3.4,2.9,6.6,4.9,9.4c1,1.4,2.2,2.7,3.4,3.9
							c1.3,1.1,2.7,2.2,4.2,2.9c0,0,0.3,0.1,0.8,0.3c0.5,0.2,1.2,0.5,2.1,0.6c0.9,0.2,1.9,0.3,3.1,0.3c1.1-0.1,2.4-0.2,3.5-0.5
							c2.4-0.7,4.6-2.1,6.3-3.5c1.6-1.4,2.7-2.7,3-3.2c0.4-0.5,1.5-1.8,2.6-3.6c1.2-1.8,2.5-4.2,3.5-6.6l2.2-5.1l2.2,5.1
							c0.4,1,0.8,1.9,1.2,2.8c0.4,0.9,0.9,1.7,1.2,2.4c0.8,1.4,1.5,2.4,1.8,2.8c0.4,0.4,1,1.2,1.7,2.3c0.4,0.5,0.9,1,1.3,1.5
							c0.5,0.5,1.1,1,1.6,1.6c0.5,0.5,1.2,0.9,1.8,1.4c0.6,0.5,1.2,0.8,1.8,1.1c1.2,0.6,2.3,1.1,3.1,1.2c0.4,0.1,0.8,0.3,1.4,0.3
							c0.5,0.1,1.1,0.3,1.8,0.3c0.6,0,1.3,0.1,2,0l1.1-0.1c0.3-0.1,0.7-0.1,1-0.2c0.3-0.1,0.7-0.1,1-0.2c0.3-0.1,0.6-0.2,0.9-0.3
							c0.6-0.2,1.1-0.4,1.6-0.6c0.9-0.4,1.4-0.7,1.4-0.7s-0.4,0.2-1.1,0.7c-0.4,0.2-0.8,0.5-1.3,0.7c-0.3,0.1-0.6,0.2-0.9,0.4
							c-0.2,0.1-0.3,0.1-0.5,0.2c-0.2,0-0.3,0.1-0.5,0.2c-0.7,0.2-1.4,0.5-2.3,0.6c-0.4,0.1-0.8,0.1-1.3,0.2c-0.4,0-0.9,0-1.3,0
							c-1.8-0.1-3.8-0.4-5.7-1.3l-0.7-0.3l-0.7-0.4c-0.4-0.3-0.9-0.5-1.3-0.8c-0.8-0.6-1.7-1.1-2.4-1.9c-0.4-0.3-0.7-0.7-1.1-1
							c-0.3-0.3-0.7-0.7-1-1.1c-0.3-0.4-0.6-0.7-0.9-1c-0.3-0.4-0.6-0.7-0.8-1.1c-0.3-0.3-0.5-0.7-0.8-1c-0.2-0.3-0.4-0.7-0.6-1
							c-0.4-0.7-0.8-1.2-1.1-1.8c-0.6-1.1-1-2-1.2-2.4c-0.4-0.8-0.8-1.9-1.4-3.2l-1-2.2l-0.9,2.2c-1,2.3-2.3,5-3.7,7.3
							c-1.5,2.3-3.1,4.2-4.1,5.1c-1.3,1.2-3.4,3-5.8,4c-2.3,1.1-4.7,1.4-5.9,1.3c-1.1-0.1-4.2-0.2-7-1.7c-2.8-1.3-5.2-3.7-6.1-4.8
							c-0.6-0.7-1.9-2.2-3.3-4.3c-1.4-2.1-2.8-4.7-3.9-7.2l-1.7-3.8l-1.5,3.8c-1.3,3.2-2.7,5.8-3.2,6.6c-0.1,0.3-0.3,0.5-0.5,0.8
							c-0.2,0.3-0.4,0.6-0.6,0.9c-0.4,0.6-0.9,1.3-1.4,2c-0.3,0.3-0.5,0.7-0.8,1.1l-0.9,1c-0.6,0.7-1.3,1.2-1.9,1.8
							c-0.7,0.5-1.9,1.3-3.5,2c-1.6,0.6-3.4,1.1-5.1,1.1c-1.7,0-3.3-0.3-4.4-0.7c-0.6-0.2-1-0.4-1.3-0.5
							C301.7,169.6,301.6,169.5,301.6,169.5z"/>
						<path fill="#3D3D3D" d="M301.1,170.8c3.8,1.5,8.1,1.4,11.8-0.3c0.7-0.3,1.3-0.7,2-1c0,0,0.2-0.1,0.5-0.4
							c0.3-0.3,0.9-0.6,1.4-1.1c0.6-0.5,1.3-1,1.9-1.7c0.3-0.3,0.7-0.7,1-1.1c0.3-0.4,0.7-0.8,1-1.2c2.7-3.2,4.5-7.3,4.9-8.1
							c0.1-0.3,0.4-1,0.8-1.9l0.8-1.8l0.8,1.8c0.8,1.9,2.2,4.7,3.9,7.2c1.6,2.5,3.5,4.5,4.3,5.3c1,1.1,2.9,2.7,4.9,3.8
							c2,1.1,4.2,1.6,5,1.8c0.4,0.1,1.6,0.3,3.1,0.3c1.5,0,3.4-0.4,5-1c1.7-0.6,3.2-1.6,4.3-2.3c0.5-0.4,1-0.7,1.3-1
							c0.3-0.3,0.4-0.4,0.4-0.4s0.2-0.1,0.4-0.4c0.3-0.3,0.7-0.7,1.1-1.1c0.9-1,2-2.4,3-3.9c2-3.1,3.6-6.7,4-7.5l0.3-0.6l0.4-0.8
							l0.3,0.8c1.8,4.4,4.3,8.6,7.5,12.1c2,2.2,4.4,4.1,7.1,5.3c2.7,1.2,5.8,1.7,8.9,1.2c0,0-0.3,0.1-0.9,0.2
							c-0.6,0.2-1.5,0.1-2.5,0.2c-2.1,0-4.9-0.6-7.5-2c-2.6-1.3-4.9-3.2-6.5-5c-0.9-0.8-1.4-1.7-1.9-2.3c-0.5-0.6-0.8-1.1-0.9-1.3
							c-1.8-2.5-3.1-5.3-4.3-8.1l1.6,0c-2.4,5.9-5.9,11.5-11.1,15.5c-0.2,0.1-0.7,0.5-1.5,1c-0.4,0.2-0.9,0.5-1.4,0.7
							c-0.5,0.3-1.1,0.5-1.8,0.8c-1.3,0.5-2.8,0.9-4.5,1c-1.6,0.1-3.4,0-5-0.4c-3.3-0.8-6.2-2.6-8-4.2c-0.5-0.4-0.9-0.8-1.2-1.1
							c-0.4-0.3-0.7-0.6-0.9-0.9c-0.5-0.5-0.7-0.8-0.7-0.8c-1.5-1.7-2.8-3.6-4-5.5c-1.2-2-2.1-4-3-6.1l0.3,0c-1.1,2.5-2.3,5-3.8,7.3
							c-1.3,1.8-2.8,3.6-4.5,5.1c-1.7,1.5-3.5,2.9-5.5,3.8c-2,0.9-4.2,1.5-6.3,1.5C305.2,172.1,303,171.6,301.1,170.8z"/>
						<path fill="#3D3D3D" d="M301.7,172.7c0.8,0.3,1.6,0.4,2.5,0.6c2.7,0.4,5.6,0.1,8.1-0.9c2.6-1,4.9-2.5,6.9-4.3
							c4-3.7,6.8-8.5,9-13.4l-1.8,0l0.1,0.3c1.3,3,2.8,6,4.8,8.7c1.9,2.7,4.2,5.2,7.1,7.1c2.2,1.6,4.8,2.8,7.6,3.2
							c2.8,0.5,5.7,0.2,8.4-0.8c0,0-0.2,0.1-0.7,0.3c-0.4,0.2-1,0.3-1.8,0.6c-1.5,0.4-3.7,0.7-5.9,0.4c-2.2-0.2-4.4-0.9-6.1-1.7
							c-0.8-0.4-1.6-0.8-2.1-1.1c-0.5-0.3-1-0.6-1.1-0.8c-0.2-0.1-0.5-0.4-1-0.8c-0.5-0.4-1.1-1-1.7-1.6c-1.3-1.3-2.7-3.1-4-5
							c-2.5-3.7-4.1-7.8-4.4-8.3l3.5,0c-0.6,1.3-0.7,1.4-0.7,1.4c-0.6,1.4-1.3,2.7-2,4.1c-0.8,1.3-1.6,2.6-2.5,3.9
							c-1.8,2.5-4,4.8-6.6,6.6c-2.4,1.4-5,2.4-7.7,2.7C306.8,174.1,304.1,173.7,301.7,172.7z"/>
						<path fill="#3D3D3D" d="M347.9,175.4c3-0.1,5.8-1,8.2-2.3c2.5-1.3,4.6-3.1,6.3-5.1c2.7-2.7,4.9-5.8,6.7-9.1
							c0.7-1.3,1.3-2.7,1.9-4l-3,0c0.6,1.2,1.1,2.5,1.7,3.7c0.7,1.2,1.2,2.4,2,3.5c-0.9-1.1-1.6-2.2-2.3-3.4
							c-0.7-1.2-1.4-2.4-2.1-3.6l4.4,0c-0.4,1-0.7,2.1-1.1,3.1c-1.4,2.9-3.1,5.7-5.1,8.2c-2.1,2.5-4.6,4.8-7.6,6.5
							C355,174.5,351.4,175.5,347.9,175.4z"/>
						<path fill="#3D3D3D" d="M323.7,165.6c0.3-0.3,0.5-0.7,0.8-1.1c2.1-2.9,3.7-6.1,5.1-9.3l-4.5,0c1.3,3,2.8,5.9,4.6,8.6
							c2.5,3.8,5.6,7.4,9.9,9.7c1.7,0.9,3.4,1.5,5.3,2c1.9,0.4,3.8,0.5,5.8,0.3c3.9-0.4,7.5-2,10.4-4.3c0,0-0.1,0.1-0.4,0.4
							c-0.3,0.2-0.7,0.5-1.2,0.9c-1,0.7-2.4,1.6-4.1,2.3c-1.6,0.7-3.5,1.2-5,1.4c-0.8,0.1-1.5,0.1-2.1,0.2c-0.6,0-1,0-1.3,0
							c-0.3,0-0.7-0.1-1.3-0.1c-0.6-0.1-1.2-0.2-2-0.4c-1.5-0.3-3.1-1-4.6-1.7c-1.5-0.8-2.8-1.7-3.7-2.4c-0.5-0.4-0.8-0.7-1.1-0.9
							c-0.2-0.2-0.4-0.3-0.4-0.3c-3-2.9-5.3-6.3-7.1-9.8c-0.9-1.8-1.7-3.7-2.4-5.6l5.6,0C328.4,159,326.3,162.5,323.7,165.6z"/>
						<path fill="#3D3D3D" d="M381.2,166.5c0,0-0.5-0.4-1.3-1.2c-0.4-0.3-0.8-0.8-1.3-1.4c-0.2-0.3-0.5-0.5-0.8-0.8
							c-0.2-0.3-0.5-0.6-0.7-1c-2.1-2.7-4-6.4-5-9.1l-2.6-6.2l-2.7,6.2c-0.9,2.2-1.7,3.7-2.3,4.8c-0.6,1.1-1,1.6-1.1,1.8
							c-0.1,0.1-0.3,0.5-0.7,1.1c-0.4,0.5-0.9,1.4-1.6,2.2c-1.3,1.7-3.2,3.7-5.4,5.1c-2.2,1.4-4.6,2.2-6.5,2.4
							c-0.9,0.1-1.7,0.1-2.2,0.1c-0.5-0.1-0.8-0.1-0.8-0.1c-3.2-0.6-6.2-2.4-8.7-4.8c-3-3.1-5.3-7.1-7-11.3l-0.5-1.2l-2.8-6.4
							l-2.9,6.4c-1,2.3-2.2,4.6-3.5,6.7c-1.4,2.1-2.9,4-4.7,5.6c1.7-1.7,3.2-3.6,4.4-5.7c1.3-2.1,2.3-4.4,3.2-6.8l3.1-7.7l3.7,7.7
							l0.3,0.7c1.1,2.7,2.4,5.3,4,7.6c1.6,2.3,3.5,4.4,5.7,5.9c0,0,1.4,1.1,3.2,1.8c1.8,0.8,3.9,1,4.9,0.9c0.9,0,2.9-0.4,4.7-1.4
							c1.8-0.9,3.4-2.3,4-2.8c0.7-0.5,3-2.8,4.7-5.6c1.8-2.7,3.1-5.8,3.3-6.4c0.1-0.2,0.2-0.5,0.5-0.9l3.7-7.8l3.2,7.8
							c0.5,1.1,1.1,3.1,1.9,4.5c0.2,0.4,0.3,0.7,0.5,1.1c0.2,0.3,0.3,0.6,0.5,0.8c0.3,0.5,0.4,0.8,0.4,0.8
							C377.6,162.4,379.3,164.6,381.2,166.5z"/>
					</g>
				</g>
			</g>
			<g>
				<g>
					<g>
						<path fill="#3D3D3D" d="M378.5,317.8c-5.4-5.1-8.9-11.6-11.2-18.2l7.8,0c-1.5,4.7-3.5,9.4-6.6,13.7c-1.6,2.1-3.4,4.2-5.7,5.9
							c-2.3,1.7-5.1,3.1-8.3,3.6c-3.4,0.4-6.9-0.3-9.7-1.8c-2.8-1.5-5.1-3.5-7-5.7c-3.7-4.4-5.9-9.4-7.6-14.4l6.6,0
							c-1.6,4-3.6,7.9-6.4,11.4c0,0-0.1,0.1-0.2,0.3c-0.2,0.2-0.4,0.5-0.7,0.9c-0.6,0.8-1.6,2-3,3.2c-1.4,1.2-3.1,2.6-5.4,3.6
							c-2.3,1-5.1,1.6-7.9,1.3c-2.8-0.3-5.5-1.4-7.7-2.7c-2.2-1.4-3.9-3.1-5.3-4.6c-2.8-3.1-4.2-5.8-4.7-6.7
							c-0.5-0.9-1.8-3.3-2.9-6.5l7.2,0c-0.9,2.3-2.1,5-3.6,7.7c-1.6,2.7-3.5,5.3-5.8,7.5c-2.3,2.2-5,3.8-7.3,4.7
							c-2.4,0.9-4.4,0.9-5.3,1c-1.2,0.1-3.5-0.1-5.9-1.1c-2.5-1-5-2.7-7-4.9c-2-2.1-3.7-4.6-4.9-6.8c-1.2-2.2-2.1-4.2-2.7-5.6
							c-0.4-0.8-0.7-1.8-1.1-3l5.7,0c-1.4,3.3-3.8,7.6-6.4,10.6c-1.3,1.5-2.5,2.8-3.5,3.6c-1,0.8-1.6,1.3-1.6,1.3s0.4-0.4,1.1-1.1
							c0.7-0.7,1.6-1.8,2.6-3.1c2.1-2.8,4.4-7,6.2-11.9l-2.7,0c1.3,3.5,3,7.2,5.4,10.6c2.3,3.3,5.4,6.3,9,7.9
							c1.8,0.8,3.6,1.2,5.4,1.2c1.7,0,3.3-0.3,4.7-0.7c2.7-0.9,4.4-2.2,5.2-2.8c1.7-1.3,4-3.5,5.8-6.4c1.9-2.9,3.4-6.3,4.6-9.6
							l-2.7,0c1.6,4.1,3.5,7.7,4.7,9.6c1.5,2.5,4.5,6.3,8.6,8.5c2.1,1.1,4.3,1.7,6.3,1.8c2,0.1,3.7-0.2,4.7-0.4
							c1-0.2,2.8-0.8,4.7-2.1c1.9-1.2,3.8-3.1,5.5-5.2c3.3-4.2,5.5-9.2,6.6-11.9l-4.9,0c0.1,0.3,0.2,0.6,0.3,0.9
							c0.3,1.2,1.2,3.6,2.8,6.5c1.6,2.9,3.9,6.2,7.1,8.9c1.6,1.3,3.4,2.4,5.4,3.2c1.9,0.7,3.9,1.1,5.7,1c3.6-0.2,6.1-1.5,7-2
							c1.9-1,4.2-2.9,6.1-5.3c1.9-2.4,3.5-5.2,4.8-7.8c0.7-1.4,2-3.9,3.2-6.9l-4.4,0c1.1,4.2,3,9.1,5.1,12.8c1.1,1.8,2.2,3.3,3,4.4
							c0.4,0.5,0.8,0.9,1,1.2C378.3,317.7,378.5,317.8,378.5,317.8z"/>
						<path fill="#3D3D3D" d="M379.9,316.3c-4.9-4.9-8-11.2-10-17.6l2.5,0l-0.1,0.2c-0.5,1.2-0.9,2.3-1.4,3.4c0,0-0.1,0.4-0.4,1
							c-0.3,0.6-0.7,1.6-1.2,2.7c-1.1,2.2-2.8,5-5.1,7.6c-2.3,2.6-5.4,4.7-8.3,5.5c-2.9,0.9-5.3,0.5-6,0.4c-0.4,0-1-0.2-1.8-0.4
							c-0.4-0.1-0.8-0.3-1.3-0.5c-0.5-0.2-1-0.4-1.5-0.7c-2.1-1-4.3-2.9-6.2-5c-3.8-4.4-6.2-10-7.1-12.7l2.9,0
							c-0.2,0.4-0.3,0.7-0.4,0.9c-0.9,2.2-2.7,5.9-4.9,9.1c-1.1,1.6-2.3,3-3.5,4.1c-0.6,0.6-1.1,1-1.6,1.4c-0.5,0.4-0.9,0.6-1.2,0.8
							c-0.7,0.3-2.3,1.5-4.8,2.1c-2.5,0.7-5.7,0.6-8.5-0.6c-2.8-1.1-4.9-3.1-6.3-4.6c-1.4-1.5-2.2-2.7-2.2-2.7s-0.9-1.1-2-3
							c-1.2-1.9-2.6-4.7-3.8-7.9l0.9,0c-0.8,2.2-1.8,4.7-2.9,6.7c-1.1,2-2.1,3.5-2.5,4.1c-0.4,0.6-1.5,2.1-3.2,3.7
							c-1.7,1.6-4.2,3.4-7,4.1c-2.8,0.8-5.7,0.4-7.6-0.2c-0.5-0.2-0.9-0.4-1.3-0.5c-0.4-0.2-0.7-0.4-0.9-0.5
							c-0.5-0.3-0.8-0.5-0.8-0.5c-1.5-1-2.8-2.2-4-3.5c-0.6-0.6-1.1-1.4-1.7-2c-0.5-0.7-1-1.4-1.5-2.2c-1.8-3-3.2-6.2-4.3-9.5l0.1,0
							c-0.9,2.2-1.9,4.4-3.1,6.5c0,0,1.3-2.5,2.7-6.6l0.3-0.9l0.4,0.9c0.9,2.2,2.1,4.8,3.7,7.4c0.8,1.3,1.7,2.5,2.6,3.7
							c1,1.1,2,2.2,3.1,3.1c2.1,1.8,4.5,2.8,6.3,3.2c1.8,0.4,3.2,0.2,3.6,0.2c4-0.4,7.6-3,10.3-6.3c2.7-3.3,4.6-7.3,6.2-11.4
							l1.2-3.2l1.2,3.2c1.8,4.8,4.2,9.6,7.8,13.2c0.4,0.4,2.2,2.4,5.4,3.9c1.6,0.7,3.5,1.1,5.6,0.9c2.1-0.2,4.2-1,6.1-2.3
							c3.8-2.5,6.5-6.5,8.2-9.6c1.7-3.1,2.6-5.5,2.8-5.9l0.4-0.8l0.3,0.8c0.6,1.6,0.7,1.7,0.7,1.7c1,2.6,2.2,5.1,3.7,7.4
							c1.5,2.3,3.2,4.5,5.4,6.2c1.1,0.9,2.2,1.6,3.5,2.2c1.3,0.5,2.6,1,4,1.1c1.4,0.1,2.8,0,4.1-0.3c1.3-0.4,2.6-0.9,3.8-1.6
							c3.2-1.8,5.8-4.6,7.9-7.7c2.1-3.1,3.8-6.5,5.1-10l-1.6,0C372.1,305,375.1,311.3,379.9,316.3z"/>
						<path fill="#3D3D3D" d="M380.4,313.2c-0.8-0.9-1.6-1.9-2.3-2.9c-2.7-3.7-4.6-8-6-12.4l-1-3l-1.1,3c-1,2.7-2.1,5.4-3.5,7.9
							c-1.4,2.5-3,4.8-5,6.8c-1,1-2.1,1.8-3.2,2.5c-1.2,0.7-2.4,1.2-3.7,1.5c-2.5,0.6-5.2,0.3-7.6-1c-1.5-0.7-2.9-1.7-4.2-2.9
							c-1.2-1.2-2.4-2.6-3.4-4c-2-2.9-3.5-6.2-4.8-9.6l-1.4-3.9l-1.5,3.9c-0.9,2.3-1.8,4.5-3,6.6c-1.9,3.3-4.4,6.5-7.4,8.5
							c-3,2.1-6.6,2.8-9.9,1.7c0,0,0.3,0.1,0.8,0.2c0.3,0,0.6,0.1,1,0.1c0.4,0,0.8,0,1.2,0c0.9-0.1,2-0.3,3.1-0.7
							c1.1-0.4,2.2-1.1,3.2-1.9c2.1-1.7,3.9-3.9,5.1-5.9c1.2-2,2-3.7,2.3-4.3c0.1-0.2,0.3-0.6,0.6-1.3c0.2-0.4,0.4-0.8,0.6-1.4
							c0.2-0.6,0.5-1.3,0.8-2.1l3-7.6l2.9,7.6c0.5,1.4,1.3,3.5,2.4,5.7c1.1,2.2,2.6,4.5,4.2,6.3c1.6,1.8,3.3,3.1,4.7,3.7
							c0.7,0.4,1.2,0.5,1.6,0.7c0.4,0.1,0.6,0.2,0.6,0.2c3.4,0.9,6.9-0.4,9.8-3c2.9-2.6,5.1-6.2,6.9-10.1c0.4-0.7,0.8-1.5,1.2-2.3
							l1.1-2.4l3.1-6.6l1.5,6.6C374.7,303.1,376.9,308.6,380.4,313.2z"/>
						<path fill="#3D3D3D" d="M318.6,313.6c-2.5,1.5-5.3,1.8-8.2,0.6c-2.9-1.1-5.6-3.6-7.8-6.4c-1.7-2.7-3.1-5.7-4.2-8.9l-2.1-5.9
							l-2.4,5.9c-0.8,1.9-1.5,3.8-2.5,5.5c-1.3,2.6-3,5-4.9,7c-1,1-2,1.9-3.1,2.6c-1.1,0.7-2.3,1.3-3.5,1.5c2.1-0.8,4-2.3,5.5-4.1
							c1.5-1.8,2.8-4,3.8-6.3c1.2-2.1,2.3-4.4,3.2-6.8l3.8-10.1l3.9,10.1c0.6,1.6,1.3,3.3,2.1,4.8c1.8,3.8,4.3,7.2,7.3,9.4
							c1.5,1,3,1.7,4.6,1.9C315.4,314.6,317,314.4,318.6,313.6z"/>
						<path fill="#3D3D3D" d="M360,310.8c-0.4,0.3-0.7,0.7-1.1,1c-3.1,2.7-6.7,3.6-10,2.2c-3.4-1.3-6.4-4.7-8.6-8.6
							c-1.2-2.3-2.2-4.7-3-7.2l-3.4-10.3l-4.3,10.3c-1.3,3.2-2.9,6.2-4.8,8.8c-2.5,3.5-5.8,6.1-8.8,6.4c-1.5,0.2-3-0.1-4.4-0.8
							c-1.5-0.7-2.9-1.9-4.2-3.4c0,0,0.2,0.1,0.4,0.4c0.3,0.3,0.7,0.6,1.1,1c1,0.7,2.3,1.5,3.6,1.9c1.3,0.4,2.5,0.3,3.6,0
							c1-0.3,1.9-0.8,2.3-1c0.2-0.1,0.5-0.3,0.9-0.5c0.4-0.3,0.9-0.6,1.4-1.1c1-0.9,2.2-2.2,3.2-3.7c1-1.5,1.8-3,2.4-4.2
							c0.3-0.6,0.5-1.1,0.7-1.5c0.2-0.4,0.2-0.6,0.2-0.6c0.4-0.7,0.7-1.5,1-2.2l6.3-13.8l4.5,13.8c0.6,2,1.4,4,2.2,5.8
							c0.9,1.8,1.9,3.6,3,5.1c2.1,2.9,4.7,4.9,7.4,5.4c1.4,0.2,2.8,0.1,4.2-0.5C357.2,313,358.6,312,360,310.8z"/>
						<path fill="#3D3D3D" d="M263.6,316.1c0,0,0.1,0.1,0.3,0.4c0.2,0.2,0.6,0.6,1,1c0.9,0.8,2.3,2,4.3,3.1c2,1.1,4.7,2,7.7,2.1
							c3.1,0.1,6.3-0.8,9-2.3c2.7-1.5,4.8-3.5,6.6-5.5c1.7-2,3.1-4.1,4.1-5.9c2.1-3.7,3-6.4,3.2-6.8c0,0,0-0.1,0.3-0.8l-8.2,0
							c0.3,0.6,1.2,3.3,3.1,6.7c1,1.7,2.2,3.6,3.7,5.5c1.5,1.9,3.4,3.8,5.6,5.3c2.2,1.6,4.8,2.7,7.5,3.1c2.7,0.4,5.2,0.1,7.2-0.5
							c2-0.6,3.5-1.4,4.4-2.1c0.5-0.3,0.8-0.6,1.1-0.7c0.2-0.2,0.4-0.3,0.4-0.3c2.9-2.1,5.1-4.6,6.9-7.3c1.8-2.7,3.3-5.6,4.5-8.5
							l0.7-1.6l-7.5,0c1.1,3.5,2.6,6.9,4.6,10.3c2,3.3,4.6,6.5,8.3,9c2.4,1.5,5.4,2.7,8.6,2.9c3.2,0.2,6.4-0.5,9-1.9
							c2.7-1.4,4.9-3.2,6.7-5.2c1.8-2,3.4-4.1,4.6-6.4c-1.2,2.2-2.6,4.3-4.3,6.3c-1.7,2-3.8,3.9-6.3,5.4c-2.5,1.5-5.6,2.5-8.8,2.6
							c-3.2,0.1-6.4-0.8-9-2.2c-4.2-2.5-7.2-5.9-9.4-9.4c-2.2-3.5-3.9-7.2-5.1-10.9l9.8,0c-1,2.5-2.2,5-3.6,7.5c0,0-0.1,0.2-0.3,0.5
							c-0.2,0.3-0.5,0.8-0.9,1.4c-0.8,1.2-1.9,2.8-3.4,4.4c-1.4,1.6-3.2,3.2-5,4.4c-1.8,1.2-3.6,2-4.7,2.4c-1.1,0.4-3,1.1-5.4,1.2
							c-2.3,0.2-5.1-0.3-7.5-1.2c-2.4-0.9-4.5-2.3-6-3.6c-1.6-1.3-2.6-2.5-3.3-3.2c-0.7-0.8-2.1-2.7-3.6-5.1c-1.5-2.5-2.9-5.5-4-8.3
							l10.7,0c-1,2.8-2.2,5.4-3.2,7.5c-1.1,2-2,3.4-2.4,4c-0.4,0.5-1.3,1.7-2.5,3c-1.3,1.3-3,2.8-4.9,4.1c-1.9,1.2-4,2.1-5.7,2.5
							c-0.8,0.2-1.5,0.4-2,0.4c-0.5,0.1-0.8,0.1-0.8,0.1c-3.3,0.4-6.7-0.4-9.5-1.7C267.6,320.1,265.4,318.2,263.6,316.1z"/>
					</g>
				</g>
			</g>
			<g>
				<g>
					<g>
						<path fill="#3D3D3D" d="M451,313.9c-3.6-4-5.9-8.6-7.8-13.4l4.8,0c-1.7,4.7-3.8,9.3-7.2,13.4c-1.6,1.7-3.4,3.3-5.6,4.6
							c-2.1,1.2-4.6,2.1-7.1,2.2c-2.5,0.1-5.1-0.4-7.3-1.5c-2.2-1.1-4.1-2.6-5.7-4.3c0,0-0.5-0.4-1.2-1.2c-0.3-0.4-0.8-0.9-1.2-1.4
							c-0.4-0.6-0.9-1.2-1.4-1.9c-1.9-2.8-3.8-6.6-5.1-9.8l4.1,0c-1.1,3.2-2.3,5.7-2.6,6.4c-0.5,1.1-2.9,5.5-6.8,9
							c-1.9,1.7-4.3,3.1-6.4,3.8c-2.1,0.7-3.8,0.8-4.5,0.9c-0.7,0.1-1.9,0-3.4-0.3c-1.5-0.3-3.1-1-4.6-1.9c-1.5-0.9-2.8-2.1-3.9-3.2
							c-0.5-0.6-1-1.1-1.4-1.6c-0.4-0.5-0.8-0.9-1-1.3c-1.1-1.4-2.8-4.5-3.8-7.2c-0.5-1.4-0.9-2.7-1.2-3.6c-0.3-0.9-0.4-1.5-0.4-1.5
							s0.2,0.4,0.5,1.2c0.3,0.8,0.8,1.9,1.4,3.2c1.3,2.6,3.2,6.2,6.1,9.2c1.4,1.5,3.1,2.9,4.9,3.9c1.8,1,3.8,1.6,5.6,1.7
							c1.8,0.2,3.4-0.1,4.7-0.4c1.2-0.3,2.1-0.7,2.6-1c1-0.4,2.2-1.2,3.5-2.3c1.3-1.1,2.5-2.4,3.6-3.8c2.2-2.9,3.7-6,4.5-7.5
							c0.3-0.5,0.5-1.1,0.9-1.8c0.3-0.7,0.6-1.4,0.9-2.2l-1.9,0c1.1,3.3,2.9,6.7,3.6,8.2c0.5,1.1,2.2,3.9,4.6,6.3
							c1.2,1.2,2.5,2.3,3.9,3.1c0.6,0.4,1.3,0.7,1.8,1c0.6,0.2,1,0.5,1.4,0.6c0.7,0.3,2.4,0.8,4.5,0.8c2.1,0,4.7-0.7,6.8-2
							c2.2-1.2,3.9-2.9,5.2-4.3c0.7-0.7,1.1-1.4,1.6-1.9c0.4-0.5,0.7-1,0.9-1.2c0.7-1,1.5-2.4,2.3-4c0.8-1.6,1.5-3.3,2.1-5
							c0.2-0.4,0.4-1,0.7-1.7l-2.4,0c0.7,2.4,2,5.9,3.4,8.8C449.3,311.8,451,313.9,451,313.9z"/>
						<path fill="#3D3D3D" d="M451.9,313.1c-2.7-3.2-4.6-7-6.2-10.8c-0.3-0.7-0.5-1.4-0.8-2.1c0,0,0,0-0.1-0.3l1.4,0
							c0,0.1-0.4,1-0.9,2.3c-0.3,0.7-0.6,1.4-1,2.3c-0.4,0.8-0.8,1.7-1.3,2.6c-0.9,1.8-2.1,3.4-3.1,4.7c-1,1.3-2,2.2-2.3,2.5
							c-0.3,0.3-1.1,1.1-2.3,2c-1.2,0.9-2.8,1.8-4.6,2.4c-1.8,0.6-3.8,0.8-5.4,0.6c-1.7-0.2-3-0.7-3.6-1c-1.4-0.6-3.6-2-5.2-3.6
							c-1.7-1.6-3-3.4-3.4-4.2c-0.3-0.5-1.4-2.2-2.4-4.2c-1-2-2-4.5-2.6-6.4l0.5,0c-0.4,0.9-0.7,1.6-0.9,2.1
							c-0.2,0.5-0.4,0.8-0.4,0.8s-0.1,0.2-0.2,0.5c-0.1,0.3-0.3,0.8-0.6,1.4c-0.5,1.1-1.3,2.7-2.3,4.1c-0.9,1.5-2,2.9-3,4.1
							c-1,1.1-1.9,1.9-2.2,2.1c-0.3,0.3-1.2,1-2.4,1.7c-1.2,0.7-2.9,1.4-4.6,1.7c-1.7,0.3-3.4,0.3-4.6,0c-0.6-0.1-1.1-0.3-1.4-0.4
							c-0.3-0.1-0.5-0.2-0.5-0.2c-1.4-0.5-2.6-1.3-3.8-2.1c-1.1-0.9-2.2-1.8-3.1-2.9c-1.9-2.1-3.4-4.6-4.7-7.1c0,0,0.2,0.3,0.5,0.8
							c0.3,0.5,0.7,1.2,1.3,2c1.1,1.6,2.7,3.6,4.7,5.3c1,0.9,2.1,1.6,3.2,2.2c1.1,0.5,2.2,1,3.2,1.2c2,0.5,3.5,0.3,3.9,0.3
							c0.4,0,2-0.1,4.1-1.1c2.1-0.9,4.4-2.7,6.3-5.1c1.9-2.3,3.4-4.9,4.5-7c0.5-1,0.9-2,1.2-2.7c0.3-0.7,0.5-1.2,0.6-1.4
							c0-0.1,0.1-0.1,0.3-0.8l0.7-1.9l0.7,1.9c0.2,0.5,0.8,2.3,1.8,4.5c1,2.2,2.4,4.8,4.1,7.1c1.7,2.3,3.9,4.2,5.7,5.3
							c0.5,0.2,0.9,0.5,1.3,0.7c0.4,0.2,0.7,0.3,1,0.4c0.3,0.1,0.5,0.2,0.7,0.2c0.2,0,0.2,0.1,0.2,0.1c1.6,0.5,3.3,0.6,5,0.3
							c1.7-0.2,3.3-0.8,4.7-1.7c2.9-1.7,5.3-4.2,7.2-7c2.2-2.9,3.9-6.2,5.3-9.6l-0.8,0C446.7,304.5,448.7,309.1,451.9,313.1z"/>
						<path fill="#3D3D3D" d="M452.4,311.2c-0.5-0.6-0.9-1.2-1.3-1.8c-2-3.1-3.6-6.5-4.8-9.9l-0.6-1.8l-0.7,1.8
							c-1.1,2.9-2.4,5.7-4.1,8.3c-1.7,2.6-3.6,5-6,6.8c-2.3,1.8-5,2.9-7.8,2.9c-2.8,0-5.6-1.1-7.8-2.8c-3.7-2.9-6.3-7.1-8.2-11.5
							c0,0,0.1,0.2,0.3,0.5c0.2,0.3,0.5,0.8,0.8,1.4c0.7,1.1,1.6,2.6,2.7,4c1.1,1.4,2.4,2.7,3.5,3.6c0.3,0.2,0.5,0.4,0.8,0.6
							c0.3,0.2,0.5,0.3,0.7,0.5c0.4,0.3,0.7,0.5,0.9,0.6c0.3,0.2,1.3,0.9,2.8,1.4c1.5,0.6,3.4,0.8,5.3,0.5c1.9-0.3,3.6-1.2,4.8-2
							c1.2-0.8,1.9-1.5,1.9-1.5c1.9-1.7,3.5-3.8,4.8-6c1.3-2.2,2.5-4.7,3.4-7.1l0.3-0.6l2.1-4.2l1.1,4.2
							C448.4,303.3,449.9,307.5,452.4,311.2z"/>
						<path fill="#3D3D3D" d="M414.6,307.4c-1.9-2.5-3.4-5.3-4.8-8.2l-1.9-4.1l-1.2,4.1c-0.4,1.3-0.8,2.7-1.3,4
							c-1.4,3-3.2,5.8-5.3,8.2c-2.4,2.6-5.3,4.8-8.6,5.3c2.9-0.8,5.3-2.8,7.2-5.3c1.8-1.8,3.3-4,4.5-6.4c1.1-2,2-4,2.8-6.2l2.4-6.1
							l2.2,6.1C411.6,301.9,412.9,304.8,414.6,307.4z"/>
						<path fill="#3D3D3D" d="M440.3,305.8l-0.5,0.9c-1.5,2.4-3.2,4.6-5.3,6.4c-1,0.8-2.2,1.5-3.3,2.1c-1.2,0.5-2.4,0.8-3.6,0.9
							c-3.2,0.1-6.3-1.6-8.7-4.1c-3.5-3.5-5.9-8.3-7.6-13.3l-2.6-7.6l-3.2,7.6l-0.5,1.2c0,0,0.2-0.4,0.4-1.3l2.6-7.5l3.4,7.5
							c0.3,0.6,0.6,1.3,1,2.2c0.4,0.8,0.9,1.8,1.4,2.6c0.9,1.7,2,3.2,2.3,3.7c0.4,0.6,1.9,2.7,3.5,4.2c0.4,0.4,0.8,0.7,1.2,1
							c0.2,0.1,0.4,0.3,0.5,0.4c0.2,0.1,0.3,0.2,0.5,0.3c0.3,0.2,0.6,0.4,0.7,0.4c0.2,0.1,0.3,0.1,0.3,0.1c2.3,1.3,4.8,1.7,7.3,1
							c2-0.6,3.9-1.7,5.7-3.3C437.4,309.9,438.9,307.9,440.3,305.8z"/>
						<path fill="#3D3D3D" d="M381.4,318.6c0,0,0.3,0.2,1,0.6c0.6,0.4,1.6,0.8,2.9,1.2c1.2,0.4,2.8,0.7,4.4,0.7
							c1.7,0,3.4-0.3,5.1-0.9c3.3-1.2,6-3.4,7.7-5.3c1.8-1.9,2.7-3.4,2.9-3.6c0.2-0.2,1.1-1.6,2.1-3.5c1-2,2.1-4.5,3-7.1l-4.6,0
							c1.1,2.9,2.5,5.7,3.8,7.7c1.2,2,2.2,3.2,2.2,3.2c1.1,1.6,2.4,3.1,3.8,4.4c1.5,1.4,3.1,2.6,5,3.5c2.4,1.1,5.1,1.7,7.9,1.5
							c2.7-0.3,5.3-1.3,7.6-2.7c2.7-1.8,4.8-4.1,6.6-6.6c1.8-2.5,3.2-5.1,4.4-7.7c-1.1,2.6-2.3,5.2-3.9,7.7
							c-1.6,2.5-3.6,4.8-6.1,6.8c-1.5,1-3,1.9-4.8,2.5c-1.8,0.6-3.6,0.9-5.5,0.8c-3.8-0.1-7.3-1.7-10-3.8c0,0-1.8-1.4-3.4-3.3
							c-1.6-1.9-3-4.2-3.7-5.2c-0.5-0.8-1.4-2.1-2.2-3.7c-0.4-0.8-0.8-1.6-1.2-2.4c-0.4-0.8-0.7-1.6-1-2.3l6.2,0
							c-0.3,1-0.6,1.8-0.8,2.3c-0.4,0.9-1.8,4.4-3.8,7.5c-1,1.6-2.1,3.1-3.1,4.2c-0.5,0.6-1,1.1-1.4,1.4c-0.4,0.4-0.7,0.6-0.8,0.8
							c-0.6,0.5-2.8,2.2-5.2,3.1c-0.6,0.2-1.2,0.4-1.8,0.6c-0.6,0.1-1.1,0.3-1.6,0.3c-0.9,0.1-1.5,0.2-1.5,0.2
							c-1.8,0.1-3.6-0.1-5.3-0.6C384.3,320.3,382.8,319.5,381.4,318.6z"/>
					</g>
				</g>
			</g>
			<g>
				<g>
					<g>
						<path fill="#3D3D3D" d="M277.5,243.6c3.3-0.6,6.3-2.7,8.6-5.5c2.4-2.8,4.1-6.1,5.5-9.6c0.4-0.8,0.7-1.5,1-2.3l2.3-5.3l1.7,5.3
							c1.8,5.5,4.5,11,8.7,14.8c0,0,0.2,0.2,0.5,0.4c0.3,0.3,0.8,0.6,1.5,1c1.2,0.7,3,1.5,4.9,1.6c1.9,0.2,3.8-0.3,5.3-1
							c0.7-0.3,1.3-0.7,1.8-1c0.4-0.3,0.8-0.6,1-0.7c0.3-0.3,1.2-0.9,2.2-1.9c1-1,2.2-2.3,3.2-3.9c2.1-3,3.5-6.4,3.8-7.3
							c0.2-0.6,0.7-1.8,1.2-3.2l1.9-5.1l1.5,5.1c0.8,2.9,2.3,6.5,3.2,8.1c0.6,1.2,1.8,3.5,3.1,5.4c1.2,1.9,2.5,3.4,2.5,3.4
							s-0.5-0.5-1.3-1.3c-0.8-0.9-1.9-2.1-3-3.7c-2.2-3.1-4.3-7.5-5.6-11.4l-0.7-2l-0.7,2c-1.2,3.7-2.6,6.5-3.2,7.4
							c-0.8,1.4-2.2,3.9-3.9,6c-1.7,2.2-3.9,3.8-5.1,4.4c-1.2,0.6-3.1,1.5-5.1,1.6c-2,0.2-3.8-0.3-4.6-0.6c-0.8-0.4-3-1.3-4.8-2.9
							c-1.9-1.6-3.5-3.6-4-4.6c-0.4-0.6-1.3-2.1-2.4-4c-1-1.9-2-4.2-2.8-6.2l-1.3-3.3l-1.2,3.3c-0.8,2.2-1.5,3.9-1.8,4.5
							c-0.7,1.6-2.1,4.5-3.8,6.7c-0.8,1.1-3.1,3.4-5.6,4.7c-1.2,0.6-2.4,1-3.3,1.2c-0.4,0.1-0.8,0.1-1.1,0.1
							C277.6,243.6,277.5,243.6,277.5,243.6z"/>
						<path fill="#3D3D3D" d="M277.6,244.7c3.1-0.4,5.9-2.1,8.3-4.3c0.4-0.4,0.9-0.8,1.2-1.2c0,0,0.5-0.6,1.2-1.5
							c0.7-0.9,1.6-2.2,2.4-3.6c1.6-2.8,2.8-6,3.1-6.6c0.1-0.1,0.1-0.4,0.3-0.7l0.6-1.5l0.6,1.5c0.5,1.2,1.5,3.7,2.7,5.9
							c1.2,2.2,2.6,4.3,3.2,5.1c0.3,0.5,0.8,1.1,1.3,1.7c0.6,0.6,1.2,1.3,1.9,1.9c1.3,1.2,2.8,2.1,3.4,2.4c0.2,0.1,0.4,0.2,0.8,0.4
							c0.4,0.2,0.9,0.4,1.4,0.6c1.1,0.4,2.5,0.6,3.9,0.6c1.4,0,2.7-0.3,3.7-0.6c0.9-0.3,1.5-0.6,1.5-0.6s0.1-0.1,0.4-0.2
							c0.2-0.2,0.6-0.3,1-0.6c0.8-0.6,1.9-1.4,2.9-2.4c2-2,3.6-4.5,4-5.1c2-3.2,3.5-6.7,4.7-10.3l0.3-0.8l0.3,0.8l0.1,0.2
							c1.4,4.4,3.3,8.7,5.9,12.5c0,0-0.4-0.4-0.9-1.2c-0.5-0.7-1.3-1.8-2-3c-1.5-2.5-3-5.7-3.9-8.2l1,0c-0.3,1-0.6,1.9-0.8,2.5
							c-0.3,0.7-0.4,1.1-0.5,1.3c-0.3,0.6-2.1,5.4-5.3,9.4c-1.6,2-3.5,3.8-5.2,4.9c-1.7,1.1-3.1,1.6-3.5,1.7c-0.3,0.1-1.8,0.7-4,0.7
							c-2.1,0-4.8-0.7-7-2c-2.2-1.3-4-3.2-5.2-4.6c-0.3-0.4-0.6-0.7-0.8-1c-0.2-0.3-0.4-0.6-0.6-0.8c-0.3-0.4-0.5-0.7-0.5-0.7
							c-2.1-3.1-3.7-6.6-5-10.1l0.2,0c-0.7,1.7-1.3,3.4-2.2,5c-1.7,3.1-3.7,6-6.2,8.3C284,242.6,280.9,244.3,277.6,244.7z"/>
						<path fill="#3D3D3D" d="M278.8,245.7c0.6-0.1,1.3-0.3,1.9-0.5c3.8-1.4,6.9-4.3,9.2-7.5c2.4-3.2,4.1-6.8,5.6-10.5l-1.4,0l0.4,1
							c0.9,2.3,1.9,4.6,3.2,6.8c1.3,2.2,2.8,4.3,4.5,6.1c1.4,1.5,3.1,2.9,4.9,3.9c1.9,1,4,1.6,6.2,1.7c0,0-0.2,0-0.5,0
							c-0.4,0-0.8,0-1.4-0.1c-1.2-0.1-2.8-0.5-4.3-1.2c-3.1-1.3-5.6-3.9-6.1-4.4c-0.1-0.1-0.4-0.4-0.7-0.8c-0.3-0.4-0.8-0.9-1.2-1.6
							c-0.9-1.2-1.9-2.9-2.8-4.5c-0.4-0.8-0.8-1.6-1.2-2.4c-0.3-0.8-0.7-1.5-0.9-2.1c-0.5-1.3-0.8-2.1-0.8-2.2l2.7,0
							c-0.1,0.3-0.1,0.3-0.1,0.3c-1.6,4.3-3.7,8.5-6.7,12.2c-1.4,1.5-3,2.8-4.8,3.8C282.7,244.7,280.8,245.5,278.8,245.7z"/>
						<path fill="#3D3D3D" d="M308.1,246.5c2.1,0.7,4.4,0.9,6.5,0.6c2.2-0.3,4.2-1.2,5.9-2.3c2.6-1.4,4.7-3.6,6.5-5.8
							c2-2.6,3.5-5.4,4.8-8.3c-0.9,2.7-2,5.4-3.5,8c-1.4,2-3.1,3.9-5.2,5.5c-2,1.6-4.5,2.8-7.1,3.3
							C313.3,247.9,310.5,247.5,308.1,246.5z"/>
						<path fill="#3D3D3D" d="M293.1,234.9l0.5-0.9c1.1-2.1,2.1-4.3,2.9-6.5l-3.5,0c1,2.6,2.1,5.1,3.4,7.6c1.6,3,3.5,5.9,6.2,8.4
							c1,0.9,2.2,1.7,3.4,2.5c1.3,0.7,2.6,1.3,4,1.7c2.8,0.8,6,0.6,8.8-0.4c0,0-0.1,0.1-0.4,0.2c-0.3,0.1-0.6,0.2-1.1,0.4
							c-0.5,0.1-1,0.3-1.6,0.4c-0.6,0.1-1.3,0.2-2,0.2c-0.7,0-1.4,0-2.1-0.1c-0.3,0-0.7-0.1-1-0.1c-0.3-0.1-0.6-0.1-0.9-0.2
							c-0.6-0.1-1.1-0.3-1.5-0.4c-0.4-0.1-0.7-0.3-0.9-0.3c-0.2-0.1-0.5-0.2-0.9-0.4c-0.4-0.2-0.8-0.4-1.3-0.7c-0.5-0.3-1-0.6-1.5-1
							c-0.5-0.4-1-0.7-1.5-1.2c-0.9-0.8-1.7-1.6-2.3-2.3c-0.5-0.6-0.9-1.1-0.9-1.1c-1.9-2.5-3.3-5.1-4.5-7.8c-0.4-0.8-0.7-1.7-1-2.6
							l-0.9-2.6l4.3,0C295.8,230.2,294.6,232.6,293.1,234.9z"/>
						<path fill="#3D3D3D" d="M335.3,227.3c0,0,0-0.1-0.2-0.4c-0.1-0.3-0.4-0.9-0.7-2l-2-5.8l-2.1,5.8c-0.3,1-1.6,4.7-3.4,7.9
							c-1.7,3.3-4.1,5.8-4.3,6c-0.1,0.1-0.3,0.3-0.7,0.7c-0.4,0.4-0.9,0.8-1.5,1.4c-1.2,1-3,2.1-4.9,2.5c-1.9,0.5-3.8,0.4-5.2,0
							c-0.4-0.1-0.7-0.2-0.9-0.3c-0.3-0.1-0.5-0.2-0.7-0.3c-0.4-0.2-0.6-0.3-0.6-0.3c-2.3-1.3-4.2-3.2-5.9-5.4c-2-2.8-3.5-6-4.7-9.3
							l-0.7-1.7l-2.2-5.8l-2.2,5.8c-1.3,3.5-2.9,6.8-5,9.7c2-3,3.4-6.4,4.6-9.9l2.3-6.9l3,6.9l0.5,1.3c1.5,4.3,3.7,8.4,6.6,11.6
							c0,0,0.9,1.1,2.2,2c1.2,1,2.8,1.8,3.5,1.9c0.7,0.2,2.3,0.5,3.7,0.3c1.5-0.2,2.9-0.7,3.4-1c0.3-0.1,1-0.5,1.8-1
							c0.4-0.3,0.8-0.6,1.3-1c0.2-0.2,0.4-0.4,0.7-0.6l0.6-0.6c1.7-1.7,3-3.9,3.3-4.3c0.3-0.4,1.3-1.8,2.1-3.2
							c0.4-0.7,0.8-1.4,1.1-1.9c0.3-0.5,0.4-0.9,0.4-0.9c0.6-1.2,1.2-2.5,1.7-3.8l2.6-6.2l1.7,6.2
							C334.8,225.7,335,226.5,335.3,227.3z"/>
					</g>
				</g>
			</g>
			<g>
				<g>
					<g>
						<path fill="#3D3D3D" d="M320.7,240.3c3.9-3.8,6.7-9,8.6-14.5l2.8-8l3.1,8c1,2.5,2.1,5,3.5,7.3c1.4,2.3,3,4.3,4.8,5.9
							c3.1,3.2,7.2,4.5,11.1,3c2-0.7,3.8-2.1,5.5-3.7c1.7-1.7,3.1-3.6,4.4-5.8c0,0,1.4-2.6,2.7-6.3l2.2-6.2l2.4,6.2
							c1.3,3.4,3.3,7.4,5.6,10.3c2.3,2.9,4.6,4.4,5.3,4.7c0.5,0.3,1.8,1,3.5,1.4c0.9,0.2,1.9,0.3,2.9,0.2c1-0.1,2.1-0.4,3.2-0.9
							c1.1-0.5,2.1-1.2,3-1.9c0.9-0.8,1.7-1.6,2.4-2.4c1.4-1.6,2.3-3,2.6-3.6c0.7-1.2,2.5-4.4,4-8l2.6-6.7l2.2,6.7
							c1.1,3.3,2.6,6.5,3.6,8.1c1,1.7,2.9,4.9,5.3,7.1c1.2,1.1,2.4,1.9,3.4,2.4c0.5,0.3,0.9,0.4,1.2,0.5c0.3,0.1,0.4,0.2,0.4,0.2
							s-0.2-0.1-0.5-0.1c-0.4-0.1-0.9-0.3-1.5-0.5c-1.2-0.5-3-1.5-4.7-3c-3.5-3.1-6.7-8.6-8.6-14.1l-1-2.7l-1,2.7
							c-1.3,3.5-2.9,6.7-4.5,9.1c-1.6,2.4-3.1,3.9-3.7,4.5c-0.9,0.8-2.1,1.8-3.7,2.7c-1.6,0.9-3.5,1.5-5.4,1.6
							c-1.9,0.1-3.9-0.3-5.4-1.1c-1.6-0.7-2.7-1.7-3.5-2.3c-1.5-1.3-3.6-3.7-5.2-6.3c-1.6-2.6-2.7-5.3-3-6.6c-0.1-0.4-0.3-1-0.5-1.7
							l-1.4-3.9l-1.6,3.9c-0.8,2-2.2,5.1-3.9,7.8c-1.7,2.7-3.7,4.9-4.8,5.6c-0.6,0.5-1.9,1.5-3.7,2.4c-1.8,0.9-4.1,1.4-6.3,1.1
							c-2.3-0.3-4.4-1.5-6-2.7c-1.6-1.2-2.6-2.4-3-3c-1.7-1.9-4.4-5.8-5.9-9.7c-0.2-0.4-0.4-1-0.6-1.8l-1.3-3.8l-1.6,3.7
							c-0.6,1.3-1.3,3-2.3,4.6c-1,1.7-2.1,3.3-3.2,4.8c-1.1,1.4-2.3,2.6-3.1,3.3C321.3,239.8,320.7,240.3,320.7,240.3z"/>
						<path fill="#3D3D3D" d="M321.8,241.4c3.5-3.2,6.2-7.3,8.3-11.8c0.4-0.8,0.8-1.6,1.1-2.4c0,0,0,0,0.2-0.6l0.7-1.9l1,1.9
							c0.1,0.2,1.6,4.5,4,8.4c1.2,2,2.6,3.8,4,5.1c1.3,1.3,2.5,2.1,2.9,2.4c0.4,0.3,1.5,1,3,1.5c1.5,0.5,3.5,0.9,5.5,0.5
							c2-0.3,3.9-1.2,5.3-2.2c1.5-1,2.6-2,3.2-2.6c1.2-1.1,3.1-3.4,4.4-5.7c1.4-2.3,2.4-4.7,2.9-5.6c0.1-0.3,0.4-0.8,0.7-1.5
							l0.7-1.7l0.6,1.7c0.7,2.2,2.2,6,4.1,9c0.9,1.5,1.9,2.8,2.6,3.7c0.8,0.9,1.3,1.4,1.3,1.4s0.2,0.2,0.5,0.5
							c0.3,0.3,0.8,0.7,1.4,1.1c1.2,0.9,3,1.9,5,2.4c1,0.3,2.1,0.4,3.1,0.4c0.5,0,1,0,1.5-0.1c0.5-0.1,0.9-0.1,1.3-0.3
							c1.7-0.4,2.9-1.1,3.3-1.4c0.4-0.2,1.6-0.9,2.9-2c1.3-1.1,2.7-2.7,3.9-4.3c1.2-1.6,2.2-3.4,2.8-4.7c0.7-1.3,1-2.2,1-2.2
							c0.6-1.2,1.1-2.4,1.6-3.5l0.3-0.8l0.3,0.8c0.9,2.7,2,5.3,3.4,7.8c1.4,2.5,3,4.9,5.1,6.8c0,0-1.9-1.5-3.9-4.2c-1-1.3-2-3-3-4.7
							c-1-1.7-1.8-3.6-2.5-5.4l1.3,0c-0.8,2.5-1.7,4.7-2.6,6.3c-0.4,0.8-0.8,1.5-1.1,2c-0.3,0.5-0.5,0.9-0.6,1.1
							c-0.3,0.5-1.5,2.3-3.6,4.6c-1.1,1.1-2.4,2.3-4,3.3c-1.6,1-3.5,1.8-5.5,2.1c-2,0.3-4.1,0.1-5.9-0.5c-1.8-0.6-3.4-1.5-4.7-2.4
							c-2.5-1.9-3.9-3.6-4.2-4c-0.1-0.2-0.5-0.6-0.9-1.2c-0.2-0.3-0.5-0.7-0.8-1.1c-0.3-0.4-0.6-0.9-0.9-1.4
							c-1.3-2.1-2.7-5.1-3.9-8.6l1.3,0c-1.4,3.6-3.5,7.7-5.7,10.4c-1,1.4-2.1,2.5-2.9,3.3c-0.4,0.4-0.7,0.6-0.9,0.8
							c-0.2,0.2-0.3,0.3-0.3,0.3c-1.6,1.4-3.5,2.5-5.5,3.1c-2,0.6-4.2,0.8-6.3,0.3c-2.1-0.4-4-1.4-5.7-2.7c-1.7-1.3-3.2-2.8-4.5-4.5
							c-2.5-3.6-4.3-7.6-5.6-11.7l-0.4-1.2l-0.5,1.2C329.5,232.3,326.3,237.6,321.8,241.4z"/>
						<path fill="#3D3D3D" d="M324.1,241.8c0.7-0.7,1.3-1.4,1.9-2.1c3.1-3.7,5.3-8,7-12.5l-1.6,0c1.3,3.6,2.9,7.2,5.1,10.5
							c2.2,3.2,5.1,6.2,8.8,8c1.8,0.8,3.9,1.2,5.9,1.2c2-0.1,4-0.6,5.8-1.5c1.8-0.9,3.4-2.1,4.8-3.5c1.4-1.4,2.6-2.9,3.7-4.5
							c2.1-3.1,3.8-6.4,5.1-9.8l-2.5,0c0.8,2.4,1.8,4.7,3,7c0,0-0.1-0.2-0.3-0.5c-0.2-0.3-0.5-0.8-0.8-1.4c-0.7-1.2-1.5-2.9-2.3-4.9
							l3.5,0c-0.8,2.5-1.8,5.1-2.9,7.3c-1,2.2-2.1,3.7-2.5,4.3c-0.2,0.2-0.5,0.7-1.1,1.4c-0.5,0.7-1.3,1.4-2.2,2.3
							c-1.8,1.7-4.5,3.6-7.6,4.5c-3.1,1-6.5,0.5-8.7-0.2c-0.5-0.2-1-0.4-1.5-0.6c-0.4-0.2-0.8-0.4-1.1-0.5c-0.6-0.3-0.9-0.5-0.9-0.5
							c-1.6-1-3.1-2.2-4.4-3.6c-1.3-1.3-2.4-2.8-3.4-4.3c-2-3-3.5-6.2-4.7-9.5l-0.2-0.5l4,0C331.8,232.9,328.5,238,324.1,241.8z"/>
						<path fill="#3D3D3D" d="M367,228.4c1.3,2.8,2.7,5.5,4.5,8c1.8,2.5,3.9,4.9,6.4,6.8c1.7,1.5,3.7,2.8,6,3.5
							c2.3,0.7,4.8,0.9,7.1,0.5c2.6-0.5,5-1.8,7-3.4c2-1.6,3.7-3.5,5.1-5.5c-1.1,1.9-2.4,3.8-4.1,5.5c-1.7,1.7-3.6,3.2-6.1,4.2
							c-2,0.7-4.3,0.9-6.5,0.7c-2.2-0.2-4.3-1-6.1-2c-3.7-2.1-6.3-5.1-8.5-8.2C369.9,235.3,368.3,231.9,367,228.4z"/>
						<path fill="#3D3D3D" d="M334,237l0.8,1.3c1.2,1.7,2.4,3.3,3.9,4.7c1.5,1.5,3.2,2.8,5.2,3.8c2,1,4.2,1.6,6.5,1.7
							c2.3,0.1,4.6-0.4,6.7-1.3c2.7-1.1,5-2.8,7-4.8c2-1.9,3.6-4.1,5-6.4c1.5-2.5,2.7-5.1,3.8-7.7l-6.6,0c1.7,4.8,3.9,9.5,7.4,13.8
							c0,0-0.1-0.2-0.4-0.4c-0.2-0.3-0.6-0.7-1-1.2c-0.8-1-1.9-2.4-2.8-4c-1.9-3.1-3.5-6.6-3.9-7.9l8.2,0c-0.1,0.2-0.1,0.3-0.1,0.4
							c-0.4,1.1-1.8,4.6-3.6,7.7c-0.9,1.6-1.9,3-2.7,4.1c-0.4,0.5-0.8,0.9-1,1.2c-0.2,0.3-0.4,0.5-0.4,0.5c-1.7,1.8-3.6,3.4-5.9,4.7
							c-2.3,1.3-4.9,2.2-7.7,2.3c-2.2,0.1-4.3-0.3-6.3-1c-1.9-0.7-3.7-1.8-5.2-3C337.8,243,335.7,240,334,237z"/>
						<path fill="#3D3D3D" d="M403.8,225.9c0,0-0.2,0.4-0.4,1.1c-0.3,0.7-0.7,1.6-1.2,2.8c-1,2.3-2.7,5.2-4.8,7.5
							c-1,1.2-2.2,2.2-3.3,3c-1.2,0.8-2.3,1.3-3.3,1.6c-2,0.6-3.5,0.3-3.8,0.3c-0.2,0-1.5-0.1-3.2-0.9c-0.9-0.4-1.8-1-2.8-1.8
							c-1-0.8-1.9-1.7-2.8-2.8c-1.8-2.1-3.3-4.6-4.3-6.7c-1-2.1-1.6-3.6-1.8-4l-2.8-5.8l-2.2,5.8c-0.6,1.6-0.7,1.7-0.7,1.7
							c-1.7,3.9-3.8,7.5-6.5,10.3c-1.7,1.7-3.7,3.1-5.7,3.7c-2,0.7-4,0.6-5.9-0.2c-2.4-0.8-4.6-2.6-6.5-4.9c-1.9-2.3-3.4-5-4.7-7.9
							c1.3,2.7,2.9,5.3,4.8,7.4c1.8,2.1,4,3.8,6.2,4.5c2.3,1,4.7,0.9,7.1-0.3c2.4-1.2,4.7-3.4,6.5-6c0,0,0.9-1.3,2-3
							c1-1.8,2-4.1,2.7-5.7l3.2-8.4l3.4,8.4c0.2,0.5,0.4,1,0.5,1.3c0.5,1.2,1.7,3.6,3.1,5.7c1.4,2.2,3.1,3.9,3.7,4.6
							c0.3,0.4,1.1,1.2,2.2,1.9c1.1,0.8,2.5,1.5,3.8,1.8c1.4,0.3,2.7,0.2,3.7-0.1c0.3-0.1,0.5-0.2,0.7-0.2c0.2-0.1,0.4-0.2,0.6-0.3
							c0.4-0.1,0.6-0.3,0.8-0.4c0.3-0.1,0.9-0.4,1.6-0.9c0.7-0.5,1.6-1.1,2.4-1.8c0.4-0.3,0.8-0.7,1.1-1.1c0.4-0.4,0.7-0.7,0.9-1
							c0.3-0.3,0.5-0.6,0.6-0.7c0.1-0.2,0.2-0.3,0.2-0.3C400.9,231.9,402.5,229,403.8,225.9z"/>
					</g>
				</g>
			</g>
		</g>
		<g>
			<g>
				<g>
					<g>
						<path fill="#3D3D3D" d="M108.5,240.6c-1.5,6.2-6.3,33.4-17.5,58.9c-2.8,6.4-6,12.6-9.8,18.4c-1.9,2.9-4,5.6-6.2,8.2
							c-2.3,2.5-4.8,4.9-7.8,6.9c-3,1.9-6.6,3.5-10.6,3.9c-1,0-2,0.1-3,0c-1-0.1-2-0.2-2.9-0.4c-0.9-0.3-1.8-0.5-2.6-0.8
							c-0.8-0.4-1.6-0.7-2.3-1.1c-1.3-0.8-2.6-1.7-3.5-2.5c-1-0.8-1.7-1.6-2.4-2.4c-0.7-0.7-1.1-1.4-1.5-1.9c-0.4-0.6-0.8-1.1-1-1.4
							c-1-1.5-2.4-4.6-3.6-8.5c-1.2-3.9-2-8.8-2.5-14.1c-0.9-10.7-0.1-23.4,1.6-35.4c1.7-12.1,4.4-23.5,6.7-31.9
							c1.1-4.2,2.2-7.6,2.9-10c0.7-2.4,1.2-3.7,1.2-3.7s1.7-9.2,4.7-20.5c1.5-5.7,3.4-11.9,5.4-17.7c2-5.9,4.2-11.4,6.1-15.8
							l1.6-3.6l4.2,0.9c10.5,2.2,15.8,3.3,18.6,4c5.4,1.3,18.2,3.4,31,5.3l5.3,0.8l0.5,6.6c0.6,8.5,0.7,17,0.5,23.4
							c-0.2,6.4-0.4,10.6-0.4,10.6c-1.5-4.7-3-9.3-4.7-13.8c-2.4,12.8-5.7,25.4-9.6,37.6c4.1-19,6.8-38.4,6.6-57.8l0.1,0.1L70.6,173
							l-6.3-0.7l1.8-0.8c-3.7,10.8-6.4,21.8-8.4,32.9c-2,11.1-3.4,22.2-4.2,33.3c-3,10.6-5.4,21.4-7,32.3
							c-0.8,5.4-1.4,10.9-1.7,16.4c-0.3,5.5-0.4,10.9,0,16.3c0,0-0.1,1.5-0.1,4c0.1,2.4,0.2,5.8,1,9.3c0.4,1.8,0.9,3.5,1.7,5.2
							c0.7,1.7,1.8,3.2,3,4.3c1.3,1.2,2.8,1.9,4.3,2.2c1.5,0.2,3,0.1,4.2-0.3c2.4-0.6,6.6-3.2,10.6-7.4c4-4.2,8-9.8,11.3-15.4
							c3.3-5.6,6-11.1,7.9-15.3c1.9-4.1,3-6.8,3-6.8C98.6,269,104,255,108.5,240.6z"/>
					</g>
				</g>
			</g>
			<g>
				<g>
					<g>
						<path fill="#3D3D3D" d="M64.7,170.5c1.6,0.4,14.1,2.5,15.5,2.8c1.4,0.3,12.6,3.9,12.6,3.9s8,1.5,9.6,1.9s8.3,1.3,8.3,1.3
							l-1.8,0.4l4.8,1.6l-13.1-2.9l-9.8-1l-8.6-2.7c0,0-3.1-1.4-4.5-1.7c-1.4-0.3-7.4-1.7-7.4-1.7L64.7,170.5z"/>
					</g>
				</g>
			</g>
			<g>
				<g>
					<g>
						<path fill="#3D3D3D" d="M51.4,204.1c1,0.2,5.5,0.8,9.9,2.2c4.3,1.3,8.5,3.2,9.2,3.7c0.4,0.2,1.5,0.9,2.8,1.9
							c1.3,1,2.9,2.3,4.4,3.6c1.5,1.3,2.9,2.5,4,3.4c1.1,0.9,1.8,1.5,1.8,1.5s0.5,0.3,1.4,0.8c0.9,0.5,2,1.1,3.3,1.8
							c2.5,1.3,5.3,2.4,6.3,2.8c1,0.4,3.5,1.2,5.7,1.6c2.3,0.5,4.3,0.7,4.3,0.7c-0.7,0.2-1.5,0.4-2.3,0.6c2,0.7,4,1.3,6.1,1.8
							c-5.6-0.8-11.1-2.2-16.2-4.5c-4-1.2-7.8-3-11.5-5c-2.9-2.4-5.7-4.9-8.6-7.2c0,0-0.8-0.7-1.7-1.6c-1-0.8-2.2-1.7-3-2.1
							c-0.8-0.4-2.9-1.4-4.9-2.2c-2-0.8-3.8-1.4-3.8-1.4C56.2,205.5,53.8,204.8,51.4,204.1z"/>
					</g>
				</g>
			</g>
			<g>
				<g>
					<g>
						<path fill="#3D3D3D" d="M33.6,410.4c0.6-2.7,4.1-23.6,4.7-25.9c0.5-2.3,6.4-21.1,6.4-21.1s2.5-13.4,3.1-16.1
							c0.6-2.7,2.2-13.9,2.2-13.9l0.7,3.1l2.6-8l-4.8,22l-1.7,16.4l-4.5,14.3c0,0-2.3,5.2-2.9,7.5c-0.5,2.3-2.9,12.3-2.9,12.3
							L33.6,410.4z"/>
					</g>
				</g>
			</g>
			<g>
				<g>
					<g>
						<path fill="#3D3D3D" d="M17.1,406.2c1.1,0.3,9.8,1.7,10.8,1.9c0.9,0.2,8.8,2.7,8.8,2.7s5.6,1,6.7,1.3c1.1,0.3,5.8,0.9,5.8,0.9
							l-1.3,0.3l3.3,1.1l-9.1-2l-6.8-0.7l-6-1.9c0,0-2.2-1-3.1-1.2c-0.9-0.2-5.1-1.2-5.1-1.2L17.1,406.2z"/>
					</g>
				</g>
			</g>
			<g>
				<g>
					<g>
						<path fill="#3D3D3D" d="M212.2,224.3c1.8,6.2,11,32.1,13.8,59.9c0.7,6.9,1,14,0.5,20.8c-0.2,3.4-0.7,6.8-1.4,10.2
							c-0.7,3.3-1.7,6.6-3.4,9.8c-1.6,3.2-4,6.3-7.3,8.6c-0.9,0.5-1.7,1.1-2.6,1.5c-0.9,0.4-1.8,0.8-2.7,1c-0.9,0.2-1.8,0.5-2.7,0.6
							c-0.9,0.1-1.7,0.1-2.5,0.2c-1.6-0.1-3.1-0.2-4.2-0.5c-1.3-0.2-2.3-0.6-3.2-0.9c-1-0.3-1.6-0.7-2.3-0.9
							c-0.6-0.3-1.2-0.5-1.6-0.8c-1.6-0.9-4.4-2.8-7.3-5.6c-3-2.9-6.1-6.6-9.1-11.1c-6.1-8.8-11.6-20.3-16.1-31.6
							c-4.4-11.3-7.7-22.6-9.9-31c-1.1-4.2-1.9-7.7-2.4-10.1c-0.5-2.4-0.8-3.8-0.8-3.8s-3.1-8.8-6-20.2c-1.5-5.7-2.9-12-4.1-18.1
							c-1.1-6.1-2-12-2.4-16.7l-0.4-4l4.1-1.3c10.3-3.2,15.4-4.9,18.2-5.7c5.4-1.6,17.5-6,29.6-10.6l5-1.9l3.7,5.5
							c4.8,7.1,9,14.5,12,20.1c3,5.6,4.8,9.4,4.8,9.4c-3.6-3.4-7.2-6.6-10.9-9.7c4.3,12.3,7.6,24.9,10.2,37.5
							c-5.8-18.6-13-36.7-22.7-53.5l0.1,0.1l-42.2,13l-5.8,2.5l1.2-1.6c2.1,11.2,5.2,22.1,8.9,32.7c3.7,10.6,8,21,12.8,31
							c2.7,10.7,5.9,21.3,9.9,31.5c2,5.1,4.2,10.2,6.6,15.1c2.4,4.9,5,9.7,8,14.1c0,0,0.7,1.4,1.9,3.5c1.2,2.1,3,4.9,5.5,7.6
							c1.2,1.4,2.6,2.6,4,3.7c1.5,1.1,3.1,1.9,4.8,2.3c1.7,0.4,3.4,0.3,4.8-0.2c1.4-0.6,2.7-1.4,3.5-2.4c1.8-1.7,4.2-6,5.6-11.7
							c1.4-5.6,2.1-12.5,2.2-18.9c0.1-6.5-0.2-12.7-0.6-17.2c-0.4-4.5-0.8-7.4-0.8-7.4C217.5,253.9,215.3,239,212.2,224.3z"/>
					</g>
				</g>
			</g>
			<g>
				<g>
					<g>
						<path fill="#3D3D3D" d="M139.5,184.9c1.6-0.5,13.5-4.8,14.8-5.2c1.3-0.4,12.9-2.9,12.9-2.9s7.7-2.7,9.3-3.1
							c1.6-0.5,7.9-2.9,7.9-2.9L183,172l5-1l-12.9,4l-9.1,3.9l-8.8,1.9c0,0-3.4,0.3-4.7,0.7c-1.3,0.4-7.3,2.1-7.3,2.1L139.5,184.9z"
							/>
					</g>
				</g>
			</g>
			<g>
				<g>
					<g>
						<path fill="#3D3D3D" d="M144.5,220.7c1-0.4,5.2-2,9.6-3c4.4-1,8.9-1.4,9.8-1.3c0.5,0,1.7,0.1,3.4,0.3c1.7,0.2,3.7,0.5,5.6,0.9
							c1.9,0.4,3.8,0.7,5.2,1c1.4,0.2,2.3,0.4,2.3,0.4s0.6,0,1.6,0c1,0,2.3,0,3.7-0.1c2.8-0.1,5.8-0.5,6.8-0.7
							c1-0.1,3.6-0.7,5.8-1.4c2.2-0.7,4.1-1.5,4.1-1.5c-0.5,0.5-1.1,1.1-1.7,1.6c2.1-0.4,4.1-0.9,6.1-1.5
							c-5.2,2.1-10.7,3.5-16.3,4.1c-4,0.9-8.3,1.3-12.5,1.3c-3.8-0.7-7.4-1.5-11.1-2c0,0-1-0.3-2.3-0.5c-1.3-0.2-2.8-0.4-3.6-0.4
							c-0.9,0-3.2,0.2-5.4,0.5c-2.1,0.3-4,0.7-4,0.7C149.3,219.6,146.9,220.1,144.5,220.7z"/>
					</g>
				</g>
			</g>
			<g>
				<g>
					<g>
						<path fill="#3D3D3D" d="M230.6,409c-0.8-2.7-8-22.6-8.7-24.8c-0.7-2.3-4.8-21.5-4.8-21.5s-4.5-12.9-5.2-15.6
							s-4.9-13.2-4.9-13.2l2.1,2.3l-1.7-8.3l6.6,21.5l6.6,15.2l3.2,14.7c0,0,0.6,5.7,1.2,7.9c0.7,2.3,3.5,12.1,3.5,12.1L230.6,409z"
							/>
					</g>
				</g>
			</g>
			<g>
				<g>
					<g>
						<path fill="#3D3D3D" d="M214.2,413.5c1.1-0.3,9.4-3.3,10.3-3.6s9-2,9-2s5.3-1.9,6.5-2.2c1.1-0.3,5.5-2.1,5.5-2.1l-1,0.9
							l3.5-0.7l-8.9,2.8l-6.3,2.7l-6.1,1.3c0,0-2.4,0.2-3.3,0.5c-0.9,0.3-5.1,1.5-5.1,1.5L214.2,413.5z"/>
					</g>
				</g>
			</g>
			<g>
				<g>
					<g>
						<path fill="#3D3D3D" d="M96.1,135.7c0.5,0.5,4.8,4.4,5.2,4.9c0.4,0.5,3.9,4.6,3.9,4.6s2.7,2.5,3.2,3.1
							c0.5,0.5,2.9,2.5,2.9,2.5l-0.8-0.3l1.5,1.8l-4.3-4.3l-3.5-2.8l-2.6-3.1c0,0-0.9-1.3-1.3-1.8c-0.4-0.5-2.4-2.5-2.4-2.5
							L96.1,135.7z"/>
					</g>
				</g>
			</g>
			<g>
				<g>
					<g>
						<path fill="#3D3D3D" d="M131.3,117.4c0,1.1,0.5,9.1,0.5,9.9s-0.5,8.3-0.5,8.3s0.3,5.1,0.3,6.2c0,1.1,0.4,5.3,0.4,5.3l-0.5-1.1
							l-0.3,3.2l-0.1-8.5l-0.8-6.2l0.4-5.7c0,0,0.4-2.1,0.4-3c0-0.9,0-4.8,0-4.8L131.3,117.4z"/>
					</g>
				</g>
			</g>
			<g>
				<g>
					<g>
						<path fill="#3D3D3D" d="M166.5,136c-0.5,0.5-4.4,4.9-4.9,5.4s-4.6,4-4.6,4s-2.5,2.8-3.1,3.3c-0.5,0.5-2.5,3-2.5,3l0.3-0.8
							l-1.8,1.5l4.3-4.5l2.8-3.6l3.1-2.7c0,0,1.3-0.9,1.8-1.4c0.5-0.5,2.5-2.5,2.5-2.5L166.5,136z"/>
					</g>
				</g>
			</g>
		</g>
	</g>
</g>
</svg>
