<?xml version="1.0" encoding="utf-8"?>
<!-- Generator: Adobe Illustrator 23.0.0, SVG Export Plug-In . SVG Version: 6.00 Build 0)  -->
<svg version="1.1" id="Layer_1" xmlns="http://www.w3.org/2000/svg" xmlns:xlink="http://www.w3.org/1999/xlink" x="0px" y="0px"
	 viewBox="0 0 512 512" style="enable-background:new 0 0 512 512;" xml:space="preserve">
<style type="text/css">
	.st0{fill:#DCC0B5;}
	.st1{fill:#424242;}
	.st2{fill:#6C93C5;}
	.st3{fill:#212121;}
	.st4{fill:#5E86AF;}
	.st5{fill:#FFEACB;}
	.st6{fill:#F3D6B5;}
	.st7{fill:#A77E62;}
	.st8{fill:#FFFFFF;}
	.st9{fill:#956853;}
	.st10{fill:#7A5144;}
	.st11{fill:#E3909A;}
	.st12{fill-rule:evenodd;clip-rule:evenodd;fill:#BB977B;}
</style>
<path class="st0" d="M300.1,439.7c24.1,3.6,40.7,10.9,40.7,19.3c0,12-34,21.7-75.9,21.7c-41.9,0-75.9-9.7-75.9-21.7
	c0-7.7,13.9-14.4,34.9-18.3c0.3,1,0.6,2,0.9,3c0.9,3.1,1.9,6.2,3,9.3c0.5,1.6,1.1,3.1,1.6,4.6c0.2,0.8,0.4,1.5,0.6,2.3
	c0.1,0.4,0.1,0.8,0.3,1.1c-0.3,1.2,0.4,2.5,1.9,3.2c2,1,4.6,0.8,6.7,0.5c2-0.3,4-0.8,5.8-1.5c1.5-0.6,2.9-1.4,4.1-2.3
	c0.9-0.7,2.3-2,2.5-3.2c0.8-1.3,1.1-2.7,1.4-4.1c0.4-2,0.5-4,0.6-6c0-2,0-3.9-0.1-5.8c0-1.5-0.1-2.9-0.2-4.3c3.9-0.2,8-0.3,12.1-0.3
	c3.5,0,6.8,0.1,10.1,0.2c-0.1,2.7-0.2,5.4-0.1,8.1c0.1,3.3,0.3,7.2,2.1,10.3c0,0,0,0-0.1,0.1c-0.8,1.8,2.8,3.5,4.4,4.2
	c0.6,0.2,1.2,0.5,1.8,0.7c1.3,0.9,3.2,1.2,4.9,1.4c1.9,0.3,4.1,0.4,6.1-0.1c2-0.6,3-1.7,3.3-3.4c0.2-0.8,0.3-1.8,0.2-2.7
	c0.8-2,0.9-4.2,1.2-6.2c0.4-2.3,0.8-4.7,1-7.1C299.9,441.7,300,440.7,300.1,439.7L300.1,439.7z"/>
<path class="st1" d="M321.7,267.5c-0.6-1.5-1.3-2.9-2.1-4.4c-1.3-2.6-2.9-5.1-4.5-7.6c-2.8-4.6-5.4-9.5-8.2-14.2
	c-2.5-4.3-5.2-8.6-8.5-12.5c-2.7-3.2-5.6-6.2-9.3-8.1c-1.8-0.9-3.7-1.7-5.5-2.5c-0.2,0.6-0.4,1.2-0.6,1.7c-0.8,1.9-1.7,3.7-2.9,5.3
	c-1.3,1.7-3,3.1-4.8,4.2c-4,2.4-8.5,3.7-13.2,4.2c-6.8,0.9-14,0.1-20.3-2.9c-2.8-1.3-5.5-3.2-7.4-5.6c-1.4-1.8-2.7-4-3.1-6.3
	c-1.1,0.5-2.2,0.8-3.1,1.3c-0.2,0.1-0.4,0.2-0.7,0.3c0,0,0,0-0.1,0l0,0h0c0,0,0,0-0.1,0h0c0,0,0,0,0,0c0,0,0,0,0,0l0,0l0,0
	c-0.1,0-0.2,0.1-0.3,0.1c-0.2,0.1-0.3,0.2-0.5,0.2c0,0,0,0,0,0c0,0-0.1,0-0.2,0.1c-1.1,0.5-2.2,1.2-3.3,1.8
	c-0.4,0.3-0.8,0.5-1.2,0.8l0,0c-0.2,0.2-0.5,0.4-0.8,0.5c-0.1,0.1-0.2,0.2-0.4,0.3c-1.2,0.9-2.4,1.9-3.5,3c-0.2,0.2-0.4,0.4-0.7,0.7
	c-3.3,3.4-6.1,7.2-8.7,11.1c-1.9,3-3.8,6.1-5.5,9.3c-0.4,0.6-0.7,1.2-1,1.9c-0.3,0.6-0.7,1.3-1,1.9c-0.3,0.7-0.6,1.3-0.9,1.9l0,0
	c-1.3,2.8-2.6,5.5-3.7,8.3c-0.3,0.8-0.6,1.6-1,2.4c-0.2,0.5-0.4,1-0.6,1.4c0,0.2-0.1,0.4-0.2,0.5c0,0.2-0.1,0.3-0.2,0.5
	c0,0.1-0.1,0.3-0.2,0.4c-0.1,0.3-0.3,0.6-0.5,0.9c-0.3,0.4-0.5,0.9-0.8,1.3l0,0c0.4,0.5,0.7,1.2,1,1.5c1,1.1,2.2,1.9,3.5,2.5
	c0.1,0,0.3,0.1,0.4,0.2c0.9-6.6,4.1-13,7.7-18.5c2.4-3.8,5.1-7.5,8.4-10.6c1.9-1.8,5.2-4.7,8.1-3.5c1.6,0.6,2.5,2.1,2.9,3.8
	c0.7,2.5,0.6,5.2,0.4,7.8c-0.4,6-2,11.8-3.4,17.6c-0.7,2.9-1.3,5.8-1.8,8.7c-0.4,3.1-0.6,6.1-0.8,9.2c-0.3,6.4-0.1,12.9,0.1,19.4
	c0.2,6.4,0.4,12.8,0.4,19.2c0,3.2,0.1,6.4,0.4,9.5c0.3,2.8,0.7,5.5,1.1,8.3c1.2,0.3,2.3,0.6,3.4,0.8c6.4,1.4,12.9,2.1,19.4,2.4
	c4.9,0.3,9.7,0.7,14.6,0.6c6.1-0.1,12.1-0.7,18.1-1.9c6-1.1,11.9-2.8,17.7-4.8c2.6-0.9,5.3-1.8,7.8-2.9c2.1-0.9,4.2-2,6.1-3.2
	c-0.1-4.7-0.3-9.4-0.6-14.1c-0.5-8.6-1.3-17.1-2.5-25.7c-0.5-3.9-1.1-7.7-1.8-11.6c-1-6.2-2.3-12.3-3.6-18.4
	c-1.2-6.1-2.7-12.1-3.8-18.3c-0.1-0.3,0.3-0.4,0.4-0.1c0.3,0.6,0.5,1.2,0.8,1.9c0.1,0,0.2,0,0.3,0.1c1.8,1.9,3.6,3.9,5.2,6
	c1.6,2.2,3.2,4.5,4.8,6.8c1.5,2.3,3,4.5,4.5,6.8c1.2,1.9,2.5,3.8,3.5,5.8c0.9-0.3,1.9-0.6,2.7-0.9c1.2-0.4,3-1.3,3.8-2
	c0.6-0.5,0.8-0.7,1.1-1.3c0,0,0.1-0.4,0.1-0.4c0-0.1,0-0.2,0-0.3l0,0C322.6,269.6,322.2,268.5,321.7,267.5L321.7,267.5z"/>
<path class="st2" d="M304.2,358.9c-2.1-0.5-4.1-1.5-5.9-2.8c-0.9-0.7-1.7-1.4-2.5-2.2c-1.5,0.7-3.1,1.2-4.7,1.6
	c-3.4,0.9-6.8,1.4-10.1,2.1c-6,1.2-12.2,2-18.3,2.6c-0.1,0-0.3,0-0.4,0c2.8-0.1,5.7,0.3,8.4,1c3.5,1,6.6,2.9,8.8,5.9
	c2,2.6,3,5.8,3.5,9c0.6,3.9,0.7,7.7,0.7,11.6c0,4.5,0.2,8.9,0.2,13.4c0,6.5-0.2,13.1-0.5,19.6c-0.1,3.3-0.4,6.5-0.6,9.8
	c0,0.7-0.1,1.4-0.1,2.1c-0.2,2.5-0.4,5.1-0.9,7.5c0,0,0,0,0,0c1.3,0.6,2.7,1,4,1.2c1.6,0.3,3.3,0.4,4.9,0.2c0.8-0.1,1.6-0.3,2.4-0.6
	c1.2-0.4,2-1.2,3.2-0.9c0-0.6,0.1-1.2,0.2-1.8c0.1-1.3,0.2-2.6,0.3-3.9c0.3-4.6,0.6-9.1,1-13.6c0.4-5.9,1.1-11.7,2.3-17.5
	c0.4-1.8,0.8-3.6,1.3-5.4c0.1-0.4,0.1-0.9,0.2-1.3c2.2-12.5,5.6-24.6,6.2-37.4C306.5,359.5,304.9,359.1,304.2,358.9L304.2,358.9z"/>
<path class="st2" d="M237,359.9c-3.7-0.6-7.5-1.3-10.9-2.8c-1.1-0.4-2.1-0.9-3.1-1.5c-0.7,1.3-1.6,2.5-2.6,3.6
	c-0.1,0.1-0.2,0.2-0.3,0.3c0,0.4,0,0.7,0.1,1c0.3,3.7,0.7,7.4,1.2,11c1.6,12.1,4.1,24,6.5,35.9c1.2,6,2.5,12.1,3.6,18.1
	c0.5,3,1.2,5.9,1.7,9c0,0.1,0,0.2,0.1,0.4c0.4,2.5,1.1,5.1,1.5,7.6c3.7,0.5,7.8-0.2,11.1-1.9c-0.5-2.4-0.6-4.9-0.8-7.4
	c0,0,0-0.1,0-0.2c-0.3-3.1-0.5-6.3-0.8-9.5c-0.5-6.5-0.8-13-0.7-19.4c0-6.5,0.4-13,1.2-19.4c0.8-6,1.5-12.1,3.7-17.8
	c0.1-0.4,0.4-0.7,0.7-0.9c0.8-1.2,2-2.1,3.1-2.8c1.7-1.1,3.7-1.9,5.7-2.2c0.6-0.1,1.1-0.2,1.7-0.3C252.2,361,244.6,361,237,359.9
	L237,359.9z"/>
<path class="st3" d="M311.7,269.7c-1.5-2.3-3-4.6-4.5-6.8c-1.6-2.3-3.1-4.6-4.8-6.8c-1.5-2.2-3.4-4.1-5.2-6
	c-0.1-0.1-0.2-0.1-0.3-0.1c0.4,0.9,0.7,1.8,1,2.8c0.5,1.3,0.9,2.6,1.3,3.8c2.1,7.1,3.9,14.3,5.4,21.5c0.9-0.6,2.4-0.7,3.4-0.8
	c1.4-0.2,2.8-0.5,4.2-0.8c1-0.3,2.1-0.5,3.1-0.8C314.2,273.6,312.9,271.7,311.7,269.7L311.7,269.7z"/>
<path class="st3" d="M221.5,241.7c-3-1.2-6.2,1.7-8.2,3.5c-3.3,3.1-6,6.8-8.4,10.6c-3.6,5.5-6.8,11.9-7.7,18.5
	c0.6,0.3,1.2,0.6,1.9,0.9c2.5,1.1,5.2,1.8,7.9,2.4c0.8,0.2,1.2,0.2,1.7,0.3c0,0,0,0,0,0c0.8-4.8,1.7-9.6,2.8-14.3
	c1.4-5.9,3.1-11.8,5.8-17.1c0-0.1,0.1-0.1,0.1-0.1c0.3-0.2,0.7,0.1,0.6,0.4c-1.1,5.1-2.6,10.2-3.7,15.3c-1.2,5.1-2.1,10.4-2.9,15.6
	c-0.9,6.1-1.6,12.2-2.1,18.4c-0.5,6.2-1.1,12.4-1.2,18.7c-0.1,2.7-0.1,5.5,0,8.2c0.1,5.7,0.5,11.4,1.1,17.1c2.7,1.7,5.8,3.1,8.9,4.1
	c0.9,0.3,1.9,0.6,2.8,0.9c-0.4-2.7-0.8-5.5-1.1-8.2c-0.3-3.2-0.3-6.4-0.4-9.6c-0.1-6.4-0.3-12.8-0.4-19.2
	c-0.2-6.5-0.4-12.9-0.1-19.4c0.1-3.1,0.3-6.2,0.8-9.2c0.4-2.9,1.1-5.8,1.8-8.7c1.4-5.8,3-11.6,3.4-17.6c0.2-2.6,0.2-5.3-0.4-7.8
	C224,243.9,223.1,242.4,221.5,241.7L221.5,241.7z"/>
<path class="st4" d="M308.1,340.1c-2.4,1.7-5.3,2.9-8.2,3.9c-2,0.7-4,1.5-6.1,2.1c0,0,0,0,0,0.1c0,1.6,0.5,3.2,1.4,4.6
	c0.6,0.9,1.3,1.7,2,2.4c0.7,0.7,1.5,1.3,2.3,1.8c1.6,1,3.4,1.8,5.3,2.2c0.8,0.2,1.6,0.2,2.5,0.3c0.1,0,0.3,0,0.4,0
	C308,351.7,308.1,345.9,308.1,340.1L308.1,340.1z"/>
<path class="st4" d="M294,351.5c-0.9-1.6-1.2-3.2-1-5.1c-2,0.7-4,1.3-6.1,1.9c-8.8,2.4-18,3.9-27.1,4.1c-5,0.1-10.1-0.3-15.1-0.6
	c-4.7-0.3-9.4-0.7-14-1.4c-2-0.3-4-0.7-6.1-1.1c0,1.6-0.3,3.2-0.9,4.8l0,0c-0.2,0.5-0.4,1-0.7,1.4c1,0.6,2,1.1,3.1,1.5
	c3.5,1.5,7.2,2.2,10.9,2.8c7.5,1.1,15.2,1.1,22.7,0.6c-0.6,0.1-1.1,0.2-1.7,0.3c-2,0.4-4,1.1-5.7,2.2c-1.1,0.7-2.3,1.6-3.1,2.8
	c-0.3,0.2-0.5,0.5-0.7,0.9c-2.2,5.7-2.9,11.8-3.7,17.8c-0.8,6.4-1.2,12.9-1.2,19.4c0,6.5,0.2,13,0.7,19.4c0.2,3.1,0.5,6.3,0.8,9.5
	c0,0.1,0,0.2,0,0.2c0.2,2.4,0.3,5,0.8,7.4c0.2-0.1,0.4-0.2,0.5-0.3c0.5-0.3,1-0.6,1.4-0.9c0.4-0.3,0.7-0.6,1.1-0.9
	c0.1-0.1,0.3-0.3,0.4-0.4c0-1.8-0.1-3.6-0.1-5.4c-0.3-8.6-0.5-17.3-0.8-26c-0.2-6.5-0.2-12.9,0.2-19.4c0.2-3.1,0.5-6.3,0.9-9.4
	c0.2-1.6,0.5-3.3,0.9-4.9c0-0.1,0-0.2,0.1-0.3c0.2-0.7,0.3-1.3,0.5-1.9c0.2-0.8,0.7-1.4,0.9-2.1c0.2-0.6,1-0.6,1.2-0.1
	c0.4-0.4,0.8-0.6,1.2-0.6c0.9-0.2,1.8-0.1,2.7,0c1.7,0,3.4,0,5.1-0.1c1.8-0.1,3.6-0.3,5.5-0.3c0.8,0,1.7,0,2.6,0
	c0.6,0.1,1,0.2,1.4,0.4c2.1,0,2.6,3.3,2.4,5.6c0.4,1,0.5,2.2,0.6,3.3c0.2,1.9,0.3,3.7,0.4,5.5c0.3,3.6,0.7,7.2,1.1,10.9
	c1.6,12.3,2.7,24.8,2.4,37.2c0,0.7,0,1.4,0,2.1c0,1.9-0.1,3.9-0.2,5.9c0.6,0.5,1.2,0.9,1.9,1.2c0.4,0.3,1,0.5,1.5,0.8c0,0,0,0,0,0
	c0.5-2.5,0.7-5,0.9-7.5c0-0.7,0.1-1.4,0.1-2.1c0.2-3.3,0.4-6.5,0.6-9.8c0.4-6.6,0.6-13.1,0.5-19.6c0-4.5-0.2-8.9-0.2-13.4
	c0-3.9,0-7.8-0.7-11.6c-0.5-3.2-1.5-6.4-3.5-9c-2.2-2.9-5.3-4.8-8.8-5.9c-2.7-0.7-5.5-1.1-8.4-1c0.1,0,0.3,0,0.4,0
	c6.2-0.5,12.3-1.4,18.3-2.6c3.4-0.7,6.8-1.2,10.1-2.1c1.6-0.4,3.2-1,4.7-1.6C295.1,353.2,294.5,352.5,294,351.5
	C294,351.6,294,351.5,294,351.5L294,351.5z"/>
<path class="st4" d="M247.6,442.7c-0.2,0.1-0.4,0.3-0.7,0.4C247.2,443.2,247.5,443,247.6,442.7L247.6,442.7z"/>
<path class="st4" d="M233.2,434.5c-0.5-3-1.2-6-1.7-9c-1.1-6.1-2.4-12.1-3.6-18.1c-2.4-11.9-4.9-23.9-6.5-35.9
	c-0.5-3.7-0.9-7.4-1.2-11c0-0.4-0.1-0.7-0.1-1c-0.8,0.7-1.6,1.4-2.3,2.1c-0.7,0.5-1.4,1-2.1,1.5c-0.8,0.5-1.8,1.1-2.8,1.5
	c1.7,9,3.5,17.8,5.2,26.8c1.2,6.3,2.3,12.7,3.6,19c0.8,4.1,1.6,8.2,2.3,12.3c0.6,1.9,1.1,3.8,1.6,5.7c0.6,2.4,1.2,4.9,1.8,7.3
	c0.4,1.4,0.7,2.8,1.1,4.2c0.9,0.7,2,1.3,3.1,1.7c1,0.4,2,0.7,3.1,0.9c0.1,0,0.3,0,0.4,0c-0.5-2.5-1.1-5.1-1.5-7.6
	C233.3,434.7,233.3,434.6,233.2,434.5L233.2,434.5z"/>
<path class="st4" d="M232.3,443.7L232.3,443.7c0-0.1,0-0.1,0-0.1C232.3,443.6,232.3,443.7,232.3,443.7L232.3,443.7z"/>
<path class="st4" d="M231.7,443.7c0,0,0-0.1,0-0.1C231.7,443.6,231.7,443.6,231.7,443.7L231.7,443.7L231.7,443.7z"/>
<path class="st4" d="M217.7,359.9c0.6-0.4,1.1-0.9,1.6-1.4c0.3-0.3,0.5-0.5,0.7-0.8c0.8-0.8,1.5-1.8,2-2.8c0.2-0.4,0.5-0.9,0.7-1.4
	c0.6-1.4,1.1-2.9,1.2-4.5c-1.5-0.4-3-0.8-4.4-1.2c-3.6-1.2-7.1-2.9-10-5.2c0.4,3.5,0.8,6.9,1.4,10.4c0.5,3.2,1.1,6.4,1.6,9.6
	c0.8-0.3,1.6-0.6,2.3-1C215.8,361.1,216.8,360.5,217.7,359.9L217.7,359.9z"/>
<path class="st5" d="M242.5,204.1L242.5,204.1c0,0.2,0,0.3,0,0.4c0,0.1,0,0.2,0,0.3c0,0,0,0.1,0,0.1c0,0,0,0,0,0.1
	c0,0.2,0,0.4,0,0.6v0c0,0.1,0,0.2,0,0.3c0,0.3-0.1,0.5-0.1,0.8c0,0.1,0,0.2,0,0.2c0,0,0,0.1,0,0.1c0,0,0,0,0,0
	c0,0.2-0.1,0.3-0.1,0.5c0,0.2-0.1,0.4-0.1,0.5l0,0c0.1,0.9,0,1.7-0.2,2.5c0,0.1,0,0.2-0.1,0.3c0,0,0,0,0,0.1c0,0,0,0.1,0,0.2l0,0
	c0,0.1-0.1,0.3-0.2,0.4c-0.1,0.3-0.3,0.5-0.4,0.8c0,0.1-0.1,0.2-0.2,0.3c0,0.1,0,0.1-0.1,0.1c-0.1,0.1-0.2,0.2-0.2,0.3l0,0
	c-0.1,0.1-0.2,0.2-0.3,0.3c-0.2,0.2-0.4,0.4-0.5,0.6c-0.1,0.1-0.3,0.3-0.4,0.4c0,0-0.1,0.1-0.1,0.1c-0.2,0.2-0.4,0.4-0.6,0.5
	c-0.2,0.1-0.4,0.3-0.6,0.4c-0.1,0.1-0.2,0.1-0.3,0.2c-0.1,0-0.2,0.1-0.3,0.1c-0.1,0.1-0.2,0.1-0.3,0.2c-0.2,0.1-0.3,0.2-0.4,0.3
	c-0.1,0-0.2,0.1-0.2,0.1c-0.2,0.1-0.4,0.2-0.7,0.4c-0.1,0.1-0.2,0.1-0.4,0.2c-0.2,0.1-0.4,0.2-0.6,0.3c-0.1,0.1-0.3,0.1-0.4,0.2
	c-0.3,0.1-0.5,0.3-0.8,0.4c0.3,0.6,0.5,1.2,0.8,1.8c0,0.1,0.1,0.3,0.2,0.4c0.2,0.4,0.4,0.7,0.5,1c0.3,0.4,0.6,0.9,0.9,1.3
	c0.1,0.1,0.3,0.3,0.4,0.5c0.6,0.7,1.3,1.4,2,2c1.1,0.9,2.3,1.7,3.6,2.4c1.9,1,3.9,1.6,6,2.2c5.4,1.3,11.4,1.3,16.9,0.1
	c0.3,0,0.5-0.1,0.8-0.2c0.4-0.1,0.8-0.2,1.2-0.3c0.2,0,0.4-0.1,0.6-0.2c1.8-0.6,3.8-1.4,5.5-2.3c0.1-0.1,0.3-0.2,0.4-0.3
	c0.1,0,0.1-0.1,0.2-0.1c0.5-0.3,1-0.7,1.4-1c0,0,0.1-0.1,0.2-0.2c0.2-0.2,0.3-0.3,0.5-0.4c0.1-0.1,0.1-0.1,0.2-0.2
	c0.5-0.5,1-1.1,1.4-1.6c0.3-0.4,0.5-0.7,0.7-1.1c0-0.1,0.1-0.2,0.2-0.3c0.2-0.3,0.3-0.6,0.5-0.9c0.4-0.9,0.8-1.9,1.2-2.9
	c0-0.1,0-0.1,0-0.2c0-0.1,0-0.1,0.1-0.2c0-0.1,0-0.3,0.1-0.4c-0.3-0.1-0.5-0.3-0.8-0.4c-0.2-0.1-0.5-0.3-0.8-0.5
	c-1.1-0.7-2.3-1.5-3.2-2.5c-0.4-0.4-0.7-0.8-1-1.2c-0.1-0.1-0.1-0.2-0.2-0.3c0,0-0.1,0-0.1,0c-0.3,0.1-0.7,0.1-1.1-0.2
	c-2.1-1.7-3.2-4.6-3.6-7.4H242.5z"/>
<path class="st5" d="M334.1,336.4c-0.5-2.9-1.3-5.8-2.1-8.7c-1.5-5.7-2.8-11.5-4.2-17.2c-1.4-5.9-2.7-11.8-4.2-17.6
	c-0.6-2.3-1.2-4.5-1.8-6.7c0,0.1-0.1,0.2-0.2,0.4c-1.2,1.9-2.7,3.5-4.3,5c-1.8,1.5-3.7,2.8-5.7,4c-0.8,0.5-1.7,1-2.6,1.5
	c-0.4,0.2-0.7,0.4-1.1,0.6c0,0.5,0.1,1.1,0.2,1.6c0.2,0.1,0.3,0.2,0.4,0.4c1.2,1.9,1.8,4.1,2.6,6.1c2,5,4.1,10,6.1,15
	c1.9,4.7,3.8,9.5,6.2,14c1.1,2.2,2.3,4.3,3.7,6.3c1,1.5,2.1,3.1,3.6,4.1c0.7,0.4,1.2,0.7,2.1,0.8c0.5,0.1,0.9,0.2,1.4,0
	c0.1,0,0.4-0.2,0.4-0.3c0,0,0.3-0.3,0.3-0.4c0.1-0.4,0.3-0.8,0.4-1.2c-0.4-1.1-0.5-2.2-0.8-3.3C334.6,339.3,334.3,337.8,334.1,336.4
	L334.1,336.4z"/>
<path class="st5" d="M200.3,293.2c-0.6-0.7-1.2-1.5-1.8-2.2c-1.4,9.6-4.3,19-7.1,28.4c-1.6,5.6-3.2,11.2-4.3,16.9
	c-0.6,3-1.2,6.1-1.9,9.1c-0.3,1.6-0.7,3.1-1.2,4.7c-0.3,0.9-0.6,1.9-1.1,2.7c0.1,0.6,0.4,1.1,1,1.4c1.2,0.6,3.1,0,4.1-0.6
	c2.7-1.8,4.7-5.4,6.2-8.3c1.8-3.3,3.3-6.8,5.1-10.1c1.1-1.9,2.3-3.7,3.3-5.7c0.6-1.2,1.1-2.4,1.6-3.7c0.2-0.5,0.4-1,0.7-1.5
	c0-1.7,0-3.4,0-5.1c0.1-6.3,0.7-12.6,1.2-18.9c0-0.9,0.1-1.8,0.2-2.7c-1-0.3-2-0.9-2.8-1.5C202.3,295.1,201.2,294.2,200.3,293.2
	L200.3,293.2z"/>
<path class="st6" d="M320.7,281.9c-0.4-1.4-0.8-2.8-1-4.2c-2.2,0.9-4.5,1.5-6.7,2c-2.2,0.5-4.4,1.2-6.6,1.2c-0.4,0-0.8,0-1.2-0.1
	c0.8,4.1,1.5,8.1,2.2,12.3c0,0.3,0.1,0.5,0.1,0.7c0.2,1.2,0.4,2.5,0.5,3.7c0.4-0.2,0.7-0.4,1.1-0.6c0.8-0.5,1.7-1,2.6-1.5
	c1.9-1.2,3.9-2.6,5.7-4c1.7-1.4,3.2-3.1,4.3-5c0-0.1,0.1-0.3,0.2-0.4c-0.2-0.7-0.4-1.3-0.5-2C321.1,283.4,320.9,282.6,320.7,281.9
	L320.7,281.9z"/>
<path class="st6" d="M238.9,204.1c0,1.1-0.1,2.1-0.1,3.1c0.2-1,0.4-2.1,0.4-3.1H238.9z"/>
<path class="st6" d="M199.2,278.6c0.2,2,0.1,4.1,0,6.1c0,0.4,0,0.8-0.1,1.3c-0.1,1.7-0.3,3.3-0.6,5c0.5,0.7,1.1,1.5,1.8,2.2
	c1,1,2,2,3.2,2.8c0.8,0.6,1.9,1.2,2.8,1.5c0.1-1.1,0.2-2.2,0.4-3.3c0.4-4.2,0.9-8.3,1.5-12.4c0-0.3,0-0.5,0.1-0.7
	c-1,0-2.1-0.4-2.9-0.5C203.3,280,201.2,279.4,199.2,278.6L199.2,278.6z"/>
<path class="st7" d="M334.3,62.1c-0.9-0.3-1.8-0.7-2.7-1c0,0-0.1,0-0.1,0l0,0l0,0c-0.7-0.3-1.3-0.5-2-0.8c-2.5-1.1-5.1-2.2-7.5-3.5
	c-3.2-1.7-6.2-3.6-9.4-5.4c-2.8-1.6-5.7-3-8.6-4.3c-0.1,0-0.2-0.1-0.2-0.1c-1.1-0.5-2.2-0.9-3.2-1.3l0,0c-9.8-3.8-20.3-5.8-30.8-6.2
	c-6.3-0.2-12.6,0-18.8,1c-3.1,0.5-6.2,1.2-9.2,2.1c-3,0.9-5.9,2.2-9,2.9c-0.2,0-0.4,0-0.6-0.1c-0.4,1.1-2.1,0.9-2.7,0
	c-0.7-1-0.6-2.7-0.5-3.9c0.2-1.3,0.4-2.7,0.9-3.9c0,0,0-0.1,0.1-0.1c-1.4,1.2-2.7,2.5-3.9,3.9c-1.6,1.9-3.2,3.8-4.3,6.1
	c-0.4,0.9-0.9,1.9-1.2,2.9c-0.2,0.9-0.3,1.9-0.6,2.8c-0.1,0.5-0.7,0.7-1.1,0.5c-0.5,0.7-1.5,0.9-2.3,0.1c-0.5-0.5-0.9-1.1-1.5-1.5
	c-0.6-0.4-1.3-0.8-2-1.2c-1.4-0.6-2.8-1.1-4.2-1.6c-1.4-0.5-2.9-1.1-4.1-2.2c0,0,0,0.1,0,0.1c0.1,1.1,0.3,2.2,0.7,3.3
	c0.4,1,0.8,2,1.6,2.8c0.2,0.2,0.3,0.3,0.5,0.5h0c0.7,0.6,1.5,1.1,2,1.7c0.3,0.4,0.3,0.9,0,1.2c-0.1,0.1-0.4,0.3-0.6,0.3
	c-0.1,0-0.2,0-0.3,0c-1.2,0.8-2.4,1.7-3.6,2.5c-1.5,1-3,2-4.4,3.2c-1.2,1-2.4,1.9-3.6,3c-0.3,0.2-0.6,0.5-0.8,0.8c-1,1-2,1.9-3,2.9
	c0,0,0,0,0,0.1c-0.2,0.5-0.4,0.9-0.4,1.4l0,0c-0.5,0.8-1.1,1.5-1.6,2.3C189,77,187,81,185.6,85.2c-1.3,3.9-2.3,8.1-2.3,12.3
	c0,1.8,0.3,3.6,0.8,5.3c0.3,1,0.8,1.9,1.2,2.8c2-3.7,4.6-7.1,7.6-10.1c3.2-3.3,7-6,11.3-7.5c0.3-0.1,0.5-0.1,0.8-0.2
	c1.6-0.4,2.7,1.6,1.6,2.7c-0.2,0.2-0.4,0.4-0.5,0.5c-3.3,3.5-5.8,7.4-7.8,11.8c-1,2.2-1.9,4.4-2.7,6.7c-0.4,1.2-0.8,2.5-1.3,3.7
	c1.1-0.3,2.1-0.7,3.1-1.1c3.2-1.2,6.4-2.8,9.4-4.7c3-1.8,5.8-3.8,8.4-6.2c0.2-0.2,0.4-0.4,0.6-0.6c0,0,0,0,0.1-0.1
	c1.6-2,3-4.2,4-6.5c0.5-1.2,0.9-2.5,1.3-3.8c0.4-1.3,0.7-2.4,1.8-3.3c0.1-0.1,0.1-0.1,0.2-0.1c0.4-0.5,1.2-0.4,1.2,0.3
	c0,0.1,0,0.2,0,0.4c0.5,0.8,0.6,1.8,0.4,2.8c0.8,3,2.8,5.6,5.1,7.8c5.8,5.7,12.8,10.1,19.9,14c2.7,1.6,5.4,3,8.1,4.4
	c2.4,1.2,4.7,2.3,7.3,3c1.5,0.4,3,0.8,4.5,1c0.2,0,0.4,0.1,0.7,0.1c-0.8-1.1-1.4-2.2-1.8-3.5c-0.5-1.4-0.8-2.8-1-4.2
	c-0.2-1.5-0.6-3.1-0.4-4.6c0.3-1.6,2.4-1.2,2.9,0c0.1,0.2,0.1,0.4,0.2,0.7c3,4,7.5,7,11.7,9.3c1.5,0.8,3.1,1.6,4.7,2.3
	c0.6,0.2,1.2,0.4,1.8,0.7c0,0-0.1-0.1-0.1-0.1c-0.2-0.2-0.4-0.4-0.6-0.7c-1.8-1.9-3.5-3.9-5-6.1c-3.2-4.6-6.1-9.7-7-15.2
	c-0.1-0.9,0.4-2,1.5-1.9c6.7,0.8,12.5,3.8,18,7.5c4.7,3.1,9.1,6.4,14,9.1c-0.4-1.5-0.8-3-1.4-4.4c-1.2-3.1-2.7-6.1-4.5-8.9
	c-3.6-5.6-8.3-10.5-13.5-14.6c-0.4-0.4-0.1-1,0.4-1.1c-0.4-0.3,0-0.9,0.5-0.7c1.7,1,3.3,2,5,3.1c1,0.4,1.9,0.9,2.8,1.4
	c1.6,0.9,3.2,1.8,4.8,2.7c3.8,2.2,7.5,4.3,11.4,6.2c3.2,1.5,6.6,3,10,3.8c2.8,0.7,5.7,1.1,8.3,0.2c1.1-0.3,2.1-0.9,2.9-1.7
	c0.9-0.9,1.6-2.1,2.1-3.4c0.8-2.1,1.1-4.3,1.1-6.5c0-1.6-0.2-3.2-0.5-4.8c-0.2-1.5-0.6-2.9-0.6-4.4c0-0.4,0.2-0.8,0.5-0.9
	c-0.2-0.5-0.4-1-0.6-1.5c-1-2.5-2.1-5-3.5-7.4c-0.8-1.2-1.5-2.5-2.3-3.7c-0.2-0.3-0.4-0.5-0.5-0.8v0l0,0c-0.3-0.4-0.6-0.9-0.9-1.3
	c-0.7-0.2-1.4-0.6-2-1c-0.5-0.4-0.8-0.9-0.8-1.5c0-0.5,0.3-0.9,0.7-1.1c0.7-0.4,1.7-0.3,2.4-0.1c0.2,0,0.4,0.1,0.6,0.1l0,0
	C332.7,61.8,333.5,62,334.3,62.1L334.3,62.1z"/>
<path class="st8" d="M281,135c-0.1,0-0.3,0-0.4,0c-0.7,0-1.3,0.4-1.7,0.9c-0.2,0.3-0.3,0.5-0.3,0.8c0,0.1,0,0.2,0,0.3
	c0,0.9,0.5,1.6,1.3,1.9c0.2,0.1,0.4,0.1,0.7,0.1c0.1,0,0.2,0,0.3,0c0.4-0.1,0.8-0.3,1.1-0.6c0.4-0.4,0.6-0.9,0.6-1.4
	C282.6,136,281.9,135.1,281,135L281,135z"/>
<path class="st8" d="M237.1,136.6c-0.2-0.7-0.8-1.2-1.4-1.4c-0.4,0-0.8-0.1-1.1,0c-0.3,0.1-0.5,0.2-0.7,0.4c-0.1,0-0.1,0.1-0.2,0.1
	c-0.2,0.3-0.4,0.6-0.5,0.9c0,0.1,0,0.2,0,0.3c0,0.1,0,0.2,0,0.3c0,0.4,0.1,0.8,0.4,1.2c0.1,0.1,0.1,0.2,0.2,0.3c0,0,0.1,0.1,0.1,0.1
	c0.3,0.2,0.6,0.4,0.9,0.4c0.1,0,0.3,0,0.4,0c0.3,0,0.5,0,0.8-0.1c0.3-0.1,0.5-0.3,0.7-0.4c0.3-0.3,0.4-0.6,0.5-0.9
	C237.2,137.4,237.2,137,237.1,136.6C237.1,136.6,237.1,136.6,237.1,136.6L237.1,136.6z"/>
<path class="st5" d="M183.8,158c1.1,0,2.2-0.2,3.2-0.1c0-0.1,0-0.2,0-0.4c-0.3,0.1-0.6,0.1-1-0.2c-0.1-0.1-0.3-0.2-0.4-0.3
	c-0.3,0.1-0.6,0.2-1,0.1c-2.3-0.5-4.2-1.9-5.8-3.5c-1.1-0.5-2.1-1.2-2.7-2c-0.1,0-0.2,0-0.3-0.1c-3.1-2.8-5.7-7.3-5.1-11.6
	c0.3-2.1,1.1-3.9,2.8-5.2c0.9-0.7,1.9-1.1,3-1.3c0.5-0.1,1.2-0.3,1.9-0.3c-0.1-0.5-0.2-1.1-0.2-1.7c-2.8-1-6,1.3-7.9,3.2
	c-1.2,1.2-2.4,2.5-3.2,4.1c-0.4,0.7-0.7,1.6-0.9,2.7c-0.2,1-0.2,2-0.1,3.1c0.5,4.3,3.5,8.3,7,10.6c2.1,1.4,4.3,2.3,6.8,2.7
	C181.1,158,182.5,158.1,183.8,158L183.8,158z"/>
<path class="st5" d="M284.9,141.5c-1,3-4.2,7-7.8,5.9c-3.2-1-4.6-4.8-4.6-7.9c0-0.3,0-0.5,0-0.8c-0.4-2.5,0.4-5.1,3.1-6.1
	c0.2-0.1,0.3-0.1,0.4-0.1c2.3-0.6,4.8,0.4,6.6,1.8C284.7,135.9,285.7,138.9,284.9,141.5L284.9,141.5z M241.1,221h32
	c-1.9-2.4-2.7-5.8-2.9-8.8c-0.1-0.9,0-1.8,0-2.7c0.1-0.5,0.1-1,0.3-1.5c-0.2-2.2,0.8-3.9,2.1-5.7c2.3-3,5.4-4.8,8.8-6.2
	c2.8-1.1,5.8-2,8.7-2.8c3.5-0.9,7.3-1.7,10.5-3.2c3.5-1.6,5.8-3.6,8-6.8c3.4-4.9,5.6-10.1,7.4-15.7c1.8-5.8,2.6-11.7,2.8-17.8
	c-0.4,0.1-0.8,0.2-1.3,0.2c-0.3,0.1-0.5,0.2-0.8,0.3c-0.7,0.1-1.4-0.3-1.4-1.1c0-1.2,0.8-2.3,1.4-3.3c0.3-0.4,0.5-0.9,0.7-1.4
	c-0.3-0.8-0.5-1.6-0.8-2.3c-0.6-1.2-1.3-2.4-2.2-3.5c-1.6-1.9-3.6-3.4-5.8-4.6c-3.2-1.9-7-3.7-9.9-6.2c-0.7,1-2.2,0.6-3-0.2
	c-0.5-0.5-1.2-2.8-1.8-3.3c0,0-0.1-0.1-0.2-0.2l0,0c-1.7,0-3.5-0.6-4.8-1.1c-0.6-0.2-0.9,1.3-1.6,1.1l-5.1-2.3
	c-0.6-0.3-1.2-0.6-1.9-1c-2.7-1.6-5.4-3.5-7.7-5.6c-0.6-0.6-1.2-1.3-1.8-1.9c0.1,0.9,0.4,1.9,0.6,2.8c0.4,1.1,0.8,2.3,1.4,3.2
	c0.6,0.9,1.6,1.7,1.8,2.9c0,0.2-0.1,0.4-0.3,0.5c0,0.3-0.2,0.5-0.5,0.7c-1.9,0.8-4.2,0.7-6.2,0.4c-1.4,0.9-3.5,0.7-5.1,0.7
	c-2-0.1-3.9-0.3-5.9-0.7c-3.9-0.8-7.7-2-11.3-3.7c-6.9-3.1-13.1-7.5-18.5-12.7c-2.9,2.5-6.2,4.5-9.7,6.1c-2.1,0.9-4.3,1.6-6.6,1.9
	c-1.3,0.2-2.7,0.3-4.1,0c-2,1.9-4,3.7-5.9,5.7c-0.2,0.8-0.4,1.6-0.7,2.4c-0.4,1.2-0.8,2.4-1.2,3.6c-0.8,2.7-1.5,5.4-2,8.1
	c-1.1,5.5-1.8,11.2-1.9,16.8c-0.1,10.7,1.6,21.7,8.8,30c1.8,2,3.7,4,6,5.5c2.3,1.5,4.9,2.6,7.5,3.3c5.1,1.5,10.7,2.3,15.3,5.2
	c4.3,2.7,7.7,6.4,8.8,11.5c0,0.3,0.1,0.6,0.2,0.9c0.2,1.1,0.4,2.3,0.4,3.5l0,0c0,0.1,0.1,0.3,0.1,0.4c0,0.2,0.1,0.4,0.1,0.6
	c0,0.1,0,0.1,0,0.2c0,0.1,0,0.2,0,0.2c0,0.1,0,0.2,0,0.3c0,0.3,0,0.7,0,1c0,0.1,0,0.3,0,0.4c0,0,0,0.1,0,0.2c0,0,0,0.1,0,0.2v0
	c0,0.3,0,0.5,0,0.7c0,0,0,0,0,0c0,0.1,0,0.2,0,0.3c0,0.3-0.1,0.6-0.1,0.9c0,0,0,0.1,0,0.2c0,0,0,0,0,0.1c0,0,0,0,0,0
	c0,0.2-0.1,0.4-0.1,0.5c0,0.2-0.1,0.4-0.1,0.6l0,0C241.3,219.4,241.3,220.2,241.1,221L241.1,221z M234.3,147.9
	c-3.7,1.5-6.2-2-6.7-5.3c-0.1-0.5-0.2-1.1-0.2-1.7c-0.2-1.6,0.1-3.4,0.9-4.9c1-1.9,3-3.5,5.3-3.3c2.4,0.2,4.3,1.9,4.9,4.2
	C239.6,140.9,238.4,146.2,234.3,147.9L234.3,147.9z M248.7,161.6c0.4-0.7,0.8-1.3,1.4-1.9c1.2-1.1,2.8-2.3,4.5-2.4
	c1.2-0.4,2.7-0.3,3.8-0.1c1.5,0.3,3,1.1,3.9,2.3c2,2.6,2,6.2-0.1,8.7c-2.6,2.9-7.4,3.7-10.9,2.3c-1.8-0.8-3.6-1.9-4.2-3.9
	C246.5,164.7,247.3,163,248.7,161.6L248.7,161.6z"/>
<path class="st5" d="M273.8,211.8c0-0.1,0-0.2,0.1-0.3c0,0,0,0,0,0c0-0.1,0-0.3,0.1-0.4v0c0-0.1,0.1-0.2,0.1-0.3
	c0-0.1,0.1-0.2,0.1-0.4c0-0.1,0.1-0.2,0.1-0.3c0.1-0.1,0.1-0.3,0.2-0.4c0,0,0-0.1,0-0.1c-0.2,0-0.5,0-0.8,0
	C273.9,210.3,273.8,211.1,273.8,211.8L273.8,211.8z"/>
<path class="st5" d="M342.6,133.4c-1.2-1.1-2.8-1.9-4.5-2.1c-1.4-0.2-2.7,0.3-4,0.7c-0.2,1.5-0.6,2.9-1.2,4.3
	c1.1-0.6,2.4-0.8,3.5-0.8c1.8,0,3.5,0.7,4.7,2c2.2,2.5,2,5.7,0.3,8.1v0c0,0.6-0.3,1.3-0.5,1.9c-0.5,1.2-1.5,2.3-2.6,3.2
	c-1.1,0.9-2.3,1.7-3.5,2.4c-1.2,0.7-2.7,1.5-4,1.8c-0.2,0-0.4,0-0.7,0c0,0,0,0,0,0.1c1.5-0.2,3.1,0,4.4-0.2c2-0.2,3.9-1,5.4-2.3
	c2.8-2.4,4.9-5.8,5.6-9.5C346.3,139.5,345.4,135.9,342.6,133.4L342.6,133.4z"/>
<path class="st9" d="M341.8,95.5c0-0.5-0.1-1-0.1-1.4c-0.5-4.8-1.5-9.6-3-14.1c-0.3,0.2-0.5,0.5-0.5,0.9c0,1.5,0.4,2.9,0.6,4.4
	c0.3,1.6,0.5,3.2,0.5,4.8c0,2.2-0.4,4.4-1.1,6.5c-0.4,1.3-1.2,2.5-2.1,3.4c-0.8,0.8-1.9,1.4-2.9,1.7c-2.6,0.8-5.5,0.5-8.3-0.2
	c-3.5-0.8-6.8-2.3-10-3.8c-3.9-1.9-7.6-4.1-11.4-6.2c-1.6-0.9-3.2-1.9-4.8-2.7c-0.9-0.5-1.9-1.1-2.8-1.4c3.7,2.4,7.4,5,10.8,7.8
	c1.3,1.1,2.7,2.3,3.9,3.5c5.8,5.3,10.8,11.6,13.5,19c1.7,4.5,2.4,9.3,1.9,14.1c-0.3,2.7-0.8,5.4-1.8,7.9c-0.7,1.6-1.6,3.5-2.8,5.1
	c0,0,0,0.1-0.1,0.2c0,0.2-0.1,0.4-0.2,0.6c0.4-0.3,0.7-0.6,1-0.9c3.5-3.1,7-6.9,8.2-11.6c0.3-1.1,0.4-2.3,0.4-3.4
	c0-1.1-0.3-2.2-0.2-3.4c0.1-1.8,2.1-1.8,3-0.5c0,0.1,0.1,0.3,0.2,0.4c0,0,0.1-0.1,0.1-0.2c0.3-2.1,0.3-4.2,0.1-6.3
	c-0.4-4.2-1.6-8.4-3.5-12.1c-0.3-0.7,0.6-1.2,0.9-0.6c2.3,3.9,3.9,8.2,4.3,12.6c0.3,2.3,0.3,4.6-0.1,6.8c-0.1,0.7-0.3,1.4-0.4,2
	c0.5-0.2,1-0.3,1.5-0.4c-0.2-0.6-0.1-1.3,0.4-1.9c0.1-0.1,0.2-0.2,0.3-0.3c1.5-2.2,2.3-4.6,2.9-7.2c0.6-2.6,1.1-5.3,1.4-7.9
	C342,105.7,342.2,100.6,341.8,95.5L341.8,95.5z"/>
<path class="st9" d="M321.9,139.2c0.3-0.7,0.6-1.5,0.8-2.2c0.8-2.7,1.2-5.5,1.1-8.3c-0.1-9.7-4.8-18.4-11.1-25.6
	c-2.5-2.9-5.3-5.5-8.1-7.9c-2.2-1.9-4.5-3.6-6.9-5.3c-1.1-0.8-2.2-1.5-3.3-2.3c-1.4-0.9-2.7-1.8-4.1-2.7l0,0
	c-0.5,0.1-0.8,0.7-0.4,1.1c5.2,4.2,9.9,9,13.5,14.6c1.8,2.8,3.3,5.8,4.5,8.9c0.5,1.4,1,2.9,1.4,4.4c-4.9-2.7-9.4-6-14-9.1
	c-5.5-3.8-11.3-6.8-18-7.5c-1.1-0.1-1.6,1-1.5,1.9c0.9,5.5,3.8,10.6,7,15.2c1.6,2.1,3.2,4.2,5,6.1c0.2,0.3,0.4,0.5,0.6,0.7
	c0,0,0.1,0,0.1,0.1c0.4,0.1,0.9,0.3,1.3,0.4c1.1,0.4,2.3,0.7,3.5,0.8c0.1,0,0.1,0,0.2,0c-0.3-0.5-0.6-0.9-0.8-1.4
	c0,0-0.1-0.1-0.1-0.1c0,0,0,0,0.1,0c-0.2-0.4-0.4-0.8-0.5-1.1c-0.4-1.2-0.7-2.5-0.7-3.8c0-1.1-0.1-2.6,0.8-3.4
	c0.1,0,0.1-0.1,0.2-0.1c0.2-0.3,0.7-0.5,1-0.3c1.6,1.2,3.1,2.4,4.8,3.3c1.9,0.9,3.7,1.7,5.6,2.4c4.1,1.6,8.1,3.9,11.2,7.1
	c3.3,3.3,5.8,7.6,6.6,12.2C321.8,138,321.9,138.6,321.9,139.2L321.9,139.2z"/>
<path class="st9" d="M293.8,125.8C293.8,125.8,293.8,125.8,293.8,125.8C293.8,125.8,293.8,125.8,293.8,125.8L293.8,125.8z"/>
<path class="st9" d="M206.8,107.4c-3,1.9-6.2,3.5-9.4,4.7c-1.1,0.4-2.1,0.8-3.1,1.1c0.4-1.2,0.8-2.5,1.3-3.7
	c0.8-2.3,1.7-4.5,2.7-6.7c2-4.3,4.5-8.3,7.8-11.8c0.2-0.2,0.4-0.4,0.5-0.5c1.1-1.1,0-3.1-1.6-2.7c-0.2,0.1-0.5,0.1-0.8,0.2
	c-4.3,1.5-8.2,4.2-11.3,7.5c-3,3-5.6,6.4-7.6,10.1c-0.4-0.9-0.9-1.9-1.2-2.8c-0.6-1.7-0.8-3.5-0.8-5.3c-0.1-4.2,0.9-8.3,2.3-12.3
	c1.4-4.2,3.4-8.2,5.7-11.9c0.5-0.8,1-1.6,1.6-2.3c0.1-0.5,0.3-0.9,0.4-1.4c0,0,0,0,0-0.1c-0.3,0.3-0.5,0.5-0.8,0.8
	c-3.2,3.5-6.2,7.3-8.7,11.4c-3,4.8-5.4,9.9-7,15.3c-1.5,4.8-2.4,9.7-2.5,14.8c0,2.5,0.1,5.1,0.5,7.6c0.3,1.6,0.6,3.2,1,4.9
	c0.4,1.3,0.8,2.7,0.9,4.1c0.4,0,0.8,0.1,1.2,0.2c0-0.7,0.2-1.3,0.7-1.7c0.2-0.2,0.6-0.4,0.9-0.3c1.3,0.4,1.6,2,1.8,3.2
	c0.2,1.4,0.3,2.7,0.6,4.1c0.6,2.3,1.4,4.6,2.4,6.7c1.1,2.2,2.3,4.4,3.7,6.4c0.4,0.7,0.9,1.4,1.4,2c-0.4-1.3-0.6-2.6-0.8-3.7
	c-0.4-2.2-0.5-4.5-0.4-6.7c0-1.7,0-3.4,0-5c0.1-4.6,0.6-9.1,1.6-13.6c0.2-1,0.4-2,0.7-3c0.2-1,0.5-1.9,0.8-2.9
	c0.4-1.3,0.8-2.5,1.3-3.8c2.2-5.5,5.1-10.8,8.7-15.6c0.3-0.4,1,0,0.7,0.4c-4.1,5.7-7.1,12-9.2,18.6c-0.3,0.9-0.6,1.9-0.8,2.9
	c0,0.1,0,0.2,0,0.3c-0.3,1.2-0.6,2.3-0.8,3.5c-0.6,3.2-0.9,6.5-1.1,9.8c1.1-2.8,2.6-5.3,4.5-7.7c2.8-3.6,6.1-6.8,9.4-9.9
	c0.5-0.5,1-0.9,1.4-1.3c3.7-3.4,7.4-6.7,10.6-10.7c-0.2,0.2-0.4,0.4-0.6,0.6C212.6,103.6,209.8,105.5,206.8,107.4L206.8,107.4z"/>
<path class="st6" d="M259.2,121.3c-0.5-0.2-1.1-0.5-1.6-0.7c-1.9-1-3.9-2-5.8-3c-7.1-3.8-14.1-8-20.2-13.3c-2.8-2.5-5.6-5.3-7.4-8.6
	c-0.3-0.5-0.5-1-0.8-1.5c0,0.1,0,0.2-0.1,0.3c-0.9,2.2-1.9,4.2-3.3,6.2c-3.2,4.6-7.3,8.4-11.3,12.2c-0.9,0.8-1.8,1.6-2.7,2.5
	c1.3,0.3,2.7,0.2,4.1,0c2.3-0.3,4.5-1,6.6-1.9c3.5-1.5,6.8-3.5,9.7-6c5.4,5.2,11.7,9.6,18.5,12.7c3.6,1.7,7.4,2.9,11.3,3.7
	c1.9,0.4,3.9,0.6,5.9,0.7c1.5,0,3.7,0.2,5.1-0.7c-0.4,0-0.9-0.1-1.3-0.2C263.8,123,261.5,122.3,259.2,121.3L259.2,121.3z"/>
<path class="st6" d="M296.4,121.5c0.6,0.8,1.5,1.5,1.6,2.5c0,0,0,0,0,0c0,0.1,0,0.3-0.1,0.4c0.8,0.8,1.3,1.8,1,2.9
	c0,0.2-0.1,0.4-0.3,0.6c2.9,2.5,6.7,4.3,9.9,6.2c2.2,1.3,4.2,2.7,5.8,4.6c0.9,1,1.6,2.2,2.2,3.5c0.3,0.7,0.5,1.6,0.8,2.3
	c0.2-0.5,0.4-1,0.6-1.5c0.4-1.5,0.4-3,0.2-4.5c-0.1-0.6-0.2-1.2-0.4-1.7c-1.1-4.2-3.5-7.7-6.8-10.4c-3.1-2.7-6.8-4.2-10.5-6
	c-1.8-0.9-4.1-1.9-5.8-3.5c0,0.7,0.2,1.3,0.4,1.9C295.4,119.8,295.8,120.6,296.4,121.5L296.4,121.5z"/>
<path class="st6" d="M240.5,206.4c-1.3-4.6-4.5-8-8.6-10.5c-4.6-2.9-10.1-3.7-15.3-5.2c-2.6-0.8-5.1-1.8-7.5-3.3
	c-2.3-1.5-4.2-3.5-6-5.5c-7.1-8.3-8.9-19.3-8.8-30c0.1-5.6,0.8-11.3,1.9-16.8c0.5-2.7,1.2-5.4,2-8.1c0.4-1.2,0.8-2.4,1.2-3.6
	c0.3-0.8,0.5-1.6,0.7-2.4c-0.1,0.1-0.2,0.2-0.3,0.3l0,0h0l0,0v0l0,0l0,0l0,0l0,0l0,0l0,0l0,0h0l0,0v0l0,0l0,0l0,0l0,0l0,0l0,0l0,0v0
	l0,0h0l0,0l0,0l0,0v0l0,0h0l0,0v0l0,0h0l0,0l0,0l0,0v0l0,0h0l0,0v0l0,0l0,0l0,0h0v0l0,0l0,0l0,0l0,0l0,0l0,0l0,0l0,0l0,0l0,0l0,0v0
	l0,0h0l0,0v0l0,0h0l0,0l0,0v0h0v0l0,0l0,0h0v0l0,0l0,0l0,0l0,0l0,0l0,0l0,0l0,0l0,0l-0.1,0.1l0,0l-0.1,0.1c0,0-0.1,0.1-0.2,0.2l0,0
	v0l0,0l0,0l0,0l0,0l0,0l0,0l0,0l0,0l0,0l0,0l0,0l0,0l0,0l0,0l0,0l0,0l0,0v0l0,0h0l0,0v0l0,0l0,0l0,0l0,0h0v0l0,0l0,0l0,0l0,0l0,0
	l0,0l0,0v0l0,0h0l0,0l0,0.1l0,0l0,0l0,0l0,0l0,0l0,0l0,0l0,0l0,0l0,0.1l0,0h0l0,0l-0.1,0.1l0,0l-0.1,0.1l0,0v0l0,0l-0.3,0.3l0,0
	l-0.2,0.3l-0.1,0.1l0,0l-0.3,0.3l-0.1,0.2l0,0l-0.1,0.1l0,0l-0.1,0.2l-0.1,0.1l-0.1,0.1l-0.1,0.2l0,0l-0.1,0.1l0,0l-0.1,0.2
	l-0.1,0.1l0,0l-0.1,0.2l0,0l-0.2,0.3l0,0c-0.1,0.2-0.2,0.3-0.3,0.5l0,0c-0.1,0.1-0.2,0.3-0.3,0.5l0,0c-0.1,0.1-0.2,0.3-0.3,0.5
	l-0.1,0.1l0,0l-0.1,0.2l0,0l-0.1,0.2l0,0l-0.2,0.3l0,0l-0.2,0.4l0,0l-0.1,0.2l0,0l-0.1,0.1l0,0l-0.1,0.2l0,0l-0.1,0.2l0,0l0,0.2l0,0
	l-0.1,0.2l0,0l-0.1,0.2l0,0l-0.1,0.1l0,0l0,0.2l0,0l-0.1,0.2l0,0l-0.1,0.2l0,0l0,0.2l0,0l-0.1,0.2l0,0l0,0.2l0,0l-0.1,0.2l0,0l0,0.2
	l0,0l-0.1,0.2l0,0l0,0.2l0,0l0,0.2l0,0l-0.1,0.2l0,0l0,0.2l0,0l0,0.2l0,0l0,0.2l0,0l-0.1,0.2l0,0l0,0.2l0,0l0,0.2l0,0l0,0.2l0,0
	l0,0.2l0,0l-0.1,0.4l0,0l0,0.2l0,0l-0.1,0.4c0,0.1,0,0.3-0.1,0.4l0,0l0,0.3l0,0v0.2l0,0l0,0.1l0,0v0.1l0,0.1l0,0v0.1l0,0v0.1l0,0
	l0,0.1v0.2l0,0.1l0,0v0.1l0,0v0.1l-0.1,0.1l0,0v0.1v0.1v0.2l0,0.1v0.1v0.1v0.1l0,0.1l0,0v0.1v0.2v0.1v0.1v0.1v0.1v0.1l0,0v0.2l0,0
	l0,0.1l0,0v0.1v0.1l0,0v0.1l0,0v0.1v0.2l0,0c0,0.2,0,0.4,0,0.5l0,0v0.3l0,0v0.4l0,0c0,0.4,0,0.8,0,1.3l0,0c0,0.3,0,0.6,0.1,1v0l0,0
	l0,0.2l0,0v0l0,0v0.1l0,0v0l0,0v0.1l0,0v0v0.1l0,0l0,0l0,0v0.1l0,0v0v0.1l0,0v0l0,0v0.1l0,0.1v0l0,0v0.1v0l0,0v0.1v0l0,0l0,0.1v0.1
	l0,0v0v0.1l0,0l0,0l0,0v0.1v0l0,0v0.1l0,0v0l0,0l0,0.1v0v0.1l0,0v0l0,0v0.1l0,0l0,0l0,0v0.1l0,0v0l0,0v0.1l0,0l0,0l0,0v0.1l0,0v0
	v0.1l0,0v0l0,0l0,0.1l0,0v0l0,0v0.1l0,0v0l0,0l0,0.1l0,0v0l0,0v0.1l0,0v0l0,0l0,0.1l0,0v0l0,0v0.1l0,0l0,0.1l0,0v0l0,0l0,0.2
	c0,0.1,0,0.3,0.1,0.4v0.1l0,0l0,0.1l0,0v0.1l0,0v0l0,0l0,0l0,0v0l0,0v0.1l0,0v0l0,0v0l0,0l0,0l0,0v0l0,0v0.1l0,0v0l0,0v0l0,0v0l0,0
	v0.1l0,0v0l0,0l0,0l0,0v0v0.1v0l0,0v0l0,0l0,0v0l0,0v0.1v0l0,0v0.1h0v0.1l0,0v0l0,0v0l0,0v0.1l0,0v0.1l0,0v0l0,0l0,0l0,0v0.1l0,0
	v0.1l0,0v0.1l0,0v0.1l0,0c0,0.3,0,0.6,0,0.9l0,0l0,0l0,0v0l0,0h0l0,0v0l0,0l0,0l0,0v0l0,0h0l0,0v0l0,0l0,0l0,0v0l0,0l0,0v0l0,0l0,0
	v0l0,0l0,0l0,0v0l0,0l0,0l0,0v0l0,0l0,0v0l0,0l0,0l0,0v0l0,0l0,0l0,0l0,0l0,0l0,0l0,0v0l0,0l0,0l0,0v0l0,0h0l0,0v0l0,0l0,0h0v0l0,0
	l0,0l0,0l0,0l0,0v0l0,0h0l0,0l0,0l0,0l0,0l0,0l0,0l0,0l0,0l0,0l0,0l0,0l0,0h0l0,0l0,0l0,0h0l0,0l0,0l0,0l0,0h0l0,0h0l0,0l0,0l0,0h0
	l0,0l0,0l0,0h0l0,0l0,0c0,0-0.1,0-0.1,0c0,0,0,0-0.1,0l0,0l0,0l0,0l0,0l0,0l0,0l0,0l0,0l0,0l0,0l0,0l0,0l0,0l0,0l0,0l0,0l0,0l0,0
	l0,0l0,0h0l0,0l0,0l0,0l0,0l0,0l0,0l0,0l0,0l0,0l0,0l0,0l0,0l0,0l0,0l0,0l0,0l0,0h0l0,0l0,0l0,0v0l0,0l0,0l0,0l0,0l0,0l0,0l0,0l0,0
	l0,0h0l0,0l0,0l0,0l0,0l0,0l0,0l0,0l0,0l0,0l0,0l0,0l0,0l0,0v0l0,0l0,0h0l0,0l0,0l0,0l0,0l0,0l0,0l0,0l0,0l0,0l0,0l0,0l0,0l0,0l0,0
	l0,0l0,0l0,0h0l0,0v0l0,0l-0.1,0l0,0l0,0l0,0l0,0h0v0l0,0h0v0l0,0h0l0,0l0,0l0,0l0,0l0,0l0,0l0,0l0,0h0v0l0,0l-1.3-1.1
	c0,0.8,0,1.7,0,2.6c0.1,6.2,1.7,12.1,3.9,18c1.9,5.3,4.4,10.2,7.8,14.7c3.4,4.5,7.6,8.4,12.5,11.2c2.7,1.5,5.5,2.7,8.4,3.7
	c1.3,0.4,2.6,0.8,3.9,1.1l0,0l0,0l0,0l0,0l0,0h0l0,0l0,0l0,0l0,0h0.1l0,0l0,0l0,0l0,0h0l0,0l0,0l0,0l0,0h0l0,0l0,0l0,0l0,0l0,0h0
	l0,0l0,0h0l0,0l0,0l0,0l0.4,0.1c1.3,0,5.3,0.2,6.6,0.4c2,0.3,3.9,0.9,5.6,1.9c0.4,0.2,0.9,0.5,1.3,0.8L240.5,206.4z"/>
<path class="st6" d="M341.6,145.6c-0.4,0.7-1,1.2-1.7,1.8c-0.3,0.3-0.9-0.1-0.6-0.5c0.4-0.6,0.8-1.2,1.1-2c0.8-2,0.9-4.3-0.9-5.9
	c-0.9-0.7-2.2-1.1-3.4-1c-1.6,0.1-2.9,1-4.4,1c0,0,0,0-0.1,0c-0.7,1.1-1.4,2.1-2.2,3.1c0,0.1,0.1,0.1,0.1,0.2
	c0.7,1.7,0.6,3.7,0.7,5.5c0,1.4,0.1,2.7,0.2,4.1c0,0.5,0,1.1,0,1.6c0,0.4,0,0.9,0,1.4c0.2,0,0.4,0,0.7,0c1.4-0.3,2.8-1.2,4-1.8
	c1.3-0.7,2.4-1.5,3.5-2.4c1-0.8,2-2,2.6-3.2C341.3,147,341.6,146.3,341.6,145.6L341.6,145.6L341.6,145.6z"/>
<path class="st6" d="M326.8,157L326.8,157L326.8,157L326.8,157L326.8,157v-0.2v-1.1l0,0v0l0,0v-0.1l0,0l0-0.1l0,0v0l0,0v-0.2l0,0
	v-0.1l0,0v0l0,0V155l0,0v-0.1l0,0v0l0,0v-0.1l0,0v-0.1l0,0v-0.1l0,0v0l0,0v-0.1l0,0v-0.1l0,0v-0.1l0,0v0l0,0v-0.1l0,0v-0.1l0,0v0
	l0,0v-0.1l0,0v-0.1l0,0v-0.1l0,0v0l0,0v-0.1l0,0v-0.1l0,0v0l0,0v-0.1l0,0v-0.1l0,0v-0.1l0,0v0l0,0v-0.1l0,0V153l0,0l0,0l0,0v-0.1
	l0,0v-0.1l0,0v-0.1l0,0v0l0,0v-0.1l0,0v-0.1l0,0v0l0,0v-0.1l0,0v-0.1l0,0v-0.1l0,0v0l0,0V152l0,0v-0.1l0,0v-0.1v0l0,0v-0.1v-0.1l0,0
	v-0.1v-0.1v-0.1l0,0v-0.1v0v-0.1V151l0,0V151v-0.2v-0.1l0,0v0l0,0v-0.1v-0.1v-0.1l0,0v-0.1l0,0v-0.1l0,0v-0.1l0,0v0l0,0v-0.4l0,0
	c0-1,0-2,0-3v-0.4v0l0,0v0l0,0l0,0l0,0v0l0,0v0l0,0v0l0,0v0l0,0l0-0.1l0,0v0v0l0,0v-0.1l0,0v0l0,0v0l0,0v-0.2l0,0l0,0l0,0v0l0,0
	v-0.1l0,0l0,0l0,0v0l0,0v0l0,0v0l0,0v0l0,0l0,0l0,0v0l0,0v0l0,0v0l0,0l0,0l0,0v0l0,0l0,0l0,0v0l0,0v0l0,0l0,0l0,0v0v0l0,0l0,0v0v0
	l0,0v0l0,0l0,0l0,0l0,0l-0.1,0l0,0.1l0,0l-0.1,0l0,0l0,0l0,0l0,0.1l-0.1,0l0,0l0,0l-0.1,0l0,0l0,0l-0.1,0.1l0,0l0,0l-0.1,0l0,0l0,0
	l0,0l-0.1,0l0,0l0,0l0,0l0,0l-0.1,0.1l0,0l0,0l0,0l0,0l-0.1,0l0,0l0,0l0,0l-0.1,0l0,0l0,0l0,0l-0.1,0l0,0l0,0l0,0l0,0l-0.1,0l0,0
	l-0.1,0l-0.1,0.1l0,0l-0.1,0l0,0l0,0l0,0l-0.1,0l0,0l0,0l-0.1,0l0,0l0,0l0,0l0,0l-0.1,0l0,0l0,0l-0.1,0l0,0l0,0l-0.1,0l0,0l0,0l0,0
	l-0.1,0l0,0l0,0l0,0l-0.1,0l0,0l0,0l0,0l-0.1,0l0,0h0l-0.1,0l0,0l-0.1,0l0,0l-0.1,0l0,0v0l0,0h0l0,0l0,0l0,0l0,0l0,0h0l0,0l0,0l0,0
	l0,0l0,0h0l0,0v0l0,0h0l0,0l0,0l0,0l0,0l0,0h0l0,0l0,0l0,0l0,0l0,0l0,0l0,0l0,0l0,0h0l0,0l0,0l0,0l0,0l0,0l0,0h0l0,0l0,0l0,0l0,0
	h-0.1l0,0v0h0l0,0l0,0l0,0h0l0,0l0,0l0,0l0,0l0,0h-0.1l0,0v0l0,0h0l0,0h0v0h0l0,0l0,0l0,0h-0.1v0h0l0,0h0l0,0v0l0,0h0l0,0h0l0,0v0
	l0,0h0l0,0l0,0l0,0l0,0l0,0h0l0,0l0,0l0,0l0,0l0,0l-0.3,0.2c-0.4,0.2-0.9,0.4-1.4,0.6c-0.4,0.1-0.7,0.3-1.1,0.4
	c-0.2,6-1.1,12-2.8,17.8c-1.7,5.6-4,10.8-7.4,15.7c-2.2,3.2-4.5,5.2-8,6.8c-3.1,1.5-7,2.3-10.5,3.2c-3,0.7-5.9,1.6-8.7,2.8
	c-3.4,1.4-6.5,3.2-8.8,6.2c-2,2.7-3.2,5.1-0.8,9.4c0-0.4,0-0.9,0.3-1.4c0.1-0.3,0.3-0.5,0.4-0.7c1.1-1.9,2.7-3.3,4.7-4.1
	c3.4-1.3,12.5-2.4,16.1-3.5c2.9-0.9,5.8-2,8.5-3.5c4.8-2.7,9.2-6.6,12.9-10.7c3.7-4.1,7.3-9,9-14.3c1-3,1.6-6,1.9-9.1
	c0.2-1.5,0.3-3.1,0.6-4.6c0.1-0.7,0.3-1.5,0.4-2.2C326.6,157.4,326.7,157.2,326.8,157L326.8,157z"/>
<path class="st6" d="M258.4,157.3c-1.1-0.2-2.6-0.3-3.8,0.1c0.1,0,0.3,0,0.4,0c1.2,0.1,1.3,1.6,0.3,2c-0.7,0.3-1.4,0.4-2,0.7
	c-0.1,0-0.2,0.1-0.3,0.1c-0.6,0.4-1.1,0.8-1.5,1.2c-0.5,0.4-1,1-1.5,1.5c-0.5,0.6-0.9,1.2-1.1,1.9c-0.3,0.7-1.3,0.5-1.2-0.3
	c0.2-1,0.5-2,1-2.9c-1.4,1.3-2.2,3.1-1.6,5.1c0.6,1.9,2.4,3.1,4.2,3.9c3.5,1.5,8.3,0.7,10.9-2.3c2.2-2.5,2.2-6.1,0.1-8.7
	C261.4,158.4,259.9,157.6,258.4,157.3L258.4,157.3z"/>
<path class="st6" d="M185.7,148c-1.6-2-3.1-4.1-4.3-6.3c-1-1.9-1.9-4-2.5-6.1c-0.6,0.1-1.2,0-1.8,0.2c-0.8,0.2-1.7,0.4-2.4,1
	c-1.2,0.9-1.8,2.4-1.8,3.8c-0.2,3.5,1.2,7.5,3.8,10c0.2,0.2,0.2,0.4,0.2,0.5c-0.1,0.3-0.4,0.6-0.8,0.5c0.6,0.9,1.6,1.5,2.7,2
	c1.6,1.6,3.5,3,5.8,3.5c0.4,0.1,0.7,0,1-0.1c0.1,0.1,0.3,0.2,0.4,0.3c0.4,0.3,0.7,0.3,1,0.2c0-0.6,0-1.2,0-1.7c0-2.1,0-4.2,0.2-6.3
	C186.7,149,186.2,148.5,185.7,148L185.7,148z"/>
<path class="st10" d="M282.1,138.3c-0.3,0.3-0.7,0.5-1.1,0.6c-0.1,0-0.2,0-0.3,0c-0.2,0-0.4,0-0.7-0.1c-0.8-0.3-1.3-1-1.3-1.9
	c0-0.1,0-0.2,0-0.3c0-0.3,0.1-0.5,0.3-0.8c0.4-0.5,1-0.9,1.7-0.9c0.1,0,0.2,0,0.4,0c0.9,0.2,1.6,1,1.6,1.9
	C282.6,137.5,282.4,138,282.1,138.3L282.1,138.3z M280.2,139C280.2,139,280.2,139,280.2,139C280.2,139,280.2,139,280.2,139
	L280.2,139z M282.6,134.2c-1.8-1.4-4.3-2.4-6.6-1.8c-0.1,0-0.3,0-0.4,0.1c-2.7,0.9-3.5,3.6-3.1,6.1c0,0.3,0,0.6,0,0.8
	c0,3.1,1.4,6.9,4.6,7.9c3.6,1.2,6.8-2.9,7.8-5.9C285.7,138.9,284.7,135.9,282.6,134.2L282.6,134.2z"/>
<path class="st10" d="M237.1,137.8c-0.1,0.3-0.3,0.6-0.5,0.9c-0.2,0.2-0.4,0.4-0.7,0.4c-0.2,0.1-0.5,0.1-0.8,0.1c-0.1,0-0.3,0-0.4,0
	c-0.4,0-0.7-0.2-0.9-0.4c0,0-0.1,0-0.1-0.1c-0.1-0.1-0.1-0.2-0.2-0.3c-0.2-0.4-0.4-0.8-0.4-1.2c0-0.1,0-0.2,0-0.3c0-0.1,0-0.2,0-0.3
	c0.1-0.3,0.3-0.6,0.5-0.9c0,0,0.1-0.1,0.2-0.1c0.2-0.2,0.4-0.3,0.8-0.4c0.3-0.1,0.7,0,1.1,0c0.7,0.2,1.2,0.7,1.4,1.4c0,0,0,0,0,0.1
	C237.2,137,237.2,137.4,237.1,137.8L237.1,137.8z M233.6,132.7c-2.3-0.1-4.3,1.4-5.3,3.3c-0.8,1.5-1.1,3.2-0.9,4.9
	c0,0.6,0.1,1.1,0.2,1.7c0.5,3.2,3,6.7,6.7,5.3c4.1-1.6,5.3-7,4.2-10.9C237.9,134.7,236,132.9,233.6,132.7L233.6,132.7z"/>
<path class="st10" d="M253.2,160.1c0.6-0.4,1.3-0.5,2-0.7c1-0.4,0.9-1.9-0.3-2c-0.1,0-0.2,0-0.4,0c-1.6,0.1-3.3,1.3-4.5,2.4
	c-0.6,0.6-1.1,1.2-1.4,1.9c-0.5,0.9-0.8,1.9-1,2.9c-0.2,0.8,0.9,1,1.2,0.3l0,0c0.2-0.6,0.7-1.3,1.1-1.9c0.4-0.5,1-1.1,1.5-1.5"/>
<path class="st10" d="M224.9,117.6c-1.7,0.8-8.9,6.7-8.7,9.2c0.1,0.9,0.6,1.4,1.3,1.5c1.4,0.1,1.7-0.1,2.5-1.1
	c2.3-2.6,4.8-5.1,7.7-5.8c4.4-1,9.5,2.6,12.5,4.6c2.8,2,2.5-0.8,1.3-2C237.4,119.8,230.1,115.3,224.9,117.6L224.9,117.6z"/>
<path class="st11" d="M268.3,179c-0.3,0.9-0.9,1.6-1.5,2.4c-0.9,1.1-2,2.2-3.4,3c-2.4,1.4-5.4,2.2-8.6,2.2c-2.9-0.1-5.9-0.9-8.3-2.7
	c-1.3-0.9-2.3-2.1-3-3.3c-0.4-0.7-0.8-1.4-1.1-2.1c-0.1-0.3-0.2-0.7-0.3-1c1.4,0.8,3.2,1.2,4.7,1.5c2.6,0.6,5.3,0.8,7.8,0.9
	c2.7,0,5.3-0.2,7.8-0.6c2.2-0.3,4.2-1,6.2-1.6C268.5,178.1,268.4,178.5,268.3,179L268.3,179z M268.9,176.2c-0.2-0.1-0.4-0.1-0.5,0
	c-2,0.5-4.3,0.8-6.5,1.1c-2.4,0.3-4.7,0.4-7.2,0.4c-2.4,0-4.8-0.2-7.2-0.7c-2.2-0.4-4.4-1.6-6.5-1.7c-0.4,0-0.7,0.2-0.7,0.5
	c-0.1,0-0.1,0.1-0.2,0.2c-0.8,1.3,0,3.6,0.8,5.1c0.8,1.5,2,3,3.5,4.2c2.8,2.3,6.7,3.4,10.3,3.6c3.9,0.2,7.6-0.8,10.5-2.5
	c1.7-1,3-2.3,4.2-3.7c1.2-1.5,2.5-4.1,1.6-6.1C270.6,175.7,269.3,175.6,268.9,176.2L268.9,176.2z"/>
<path class="st8" d="M254.5,179.8c-2.6,0-5.2-0.3-7.8-0.9c-1.5-0.3-3.3-0.8-4.7-1.5c0.1,0.3,0.2,0.7,0.3,1c0.3,0.7,0.7,1.4,1.1,2.1
	c0.8,1.2,1.7,2.4,3,3.3c2.4,1.7,5.5,2.6,8.3,2.6c3.2,0.1,6.2-0.7,8.6-2.1c1.3-0.8,2.5-1.9,3.4-3c0.6-0.8,1.2-1.5,1.5-2.3
	c0.1-0.4,0.2-0.9,0.3-1.3c-2,0.7-4,1.3-6.2,1.6C259.8,179.7,257.3,179.9,254.5,179.8L254.5,179.8z"/>
<path class="st10" d="M268.3,179c-0.3,0.9-1,1.6-1.5,2.3c-0.9,1.1-2,2.2-3.4,3c-2.4,1.4-5.4,2.2-8.6,2.1c-2.9,0-5.9-0.9-8.3-2.6
	c-1.3-0.9-2.2-2.1-3-3.3c-0.4-0.7-0.8-1.4-1.1-2.1c-0.1-0.3-0.2-0.7-0.3-1c1.4,0.8,3.2,1.2,4.7,1.5c2.6,0.6,5.2,0.8,7.8,0.9
	c2.7,0,5.3-0.2,7.8-0.6c2.2-0.3,4.2-1,6.2-1.6C268.5,178.1,268.4,178.5,268.3,179L268.3,179z M268.9,176.2c-0.2-0.1-0.4-0.1-0.5,0
	c-2,0.5-4.3,0.8-6.5,1.1c-2.4,0.3-4.7,0.4-7.2,0.4c-2.4,0-4.8-0.3-7.2-0.8c-2.2-0.4-4.4-1.5-6.5-1.6c-0.4,0-0.7,0.2-0.7,0.5
	c-0.1,0-0.1,0.1-0.2,0.2c-0.8,1.3,0,3.6,0.8,5.1c0.8,1.5,2,3,3.5,4.2c2.8,2.3,6.7,3.4,10.3,3.6c3.9,0.2,7.6-0.8,10.5-2.5
	c1.7-1,3-2.3,4.2-3.7c1.2-1.5,2.5-4.1,1.6-6.1C270.6,175.7,269.3,175.6,268.9,176.2L268.9,176.2z"/>
<path class="st12" d="M333.1,61.6c-0.4,0-0.7,0.1-1,0.1l-0.2,0l0,0c-0.2,0-0.4-0.1-0.6-0.1c-0.7-0.1-1.7-0.3-2.4,0.1
	c-7.1-0.7-13.6-4.5-20.4-8c-21.6-11-48.4-16-69.3-1c-2,1.9-5.2,1.8-7.1-0.3c-1.9-2-1.8-5.1,0.2-7c0.1,0.1,0.3,0.1,0.4,0.1
	c3.1-0.7,6-2,9-2.9c3-0.9,6.1-1.6,9.2-2.1c6.2-1,12.5-1.2,18.8-1c10.5,0.4,21,2.4,30.8,6.2l0,0c1.1,0.4,2.2,0.8,3.2,1.3
	c0,0,0.1,0,0.2,0.1c2.9,1.3,5.9,2.7,8.6,4.3c3.1,1.7,6.2,3.7,9.4,5.4c2.4,1.3,5,2.4,7.5,3.5c0.7,0.3,1.3,0.5,2,0.8l0,0l0,0
	c0,0,0.1,0,0.1,0C332.1,61.3,332.6,61.5,333.1,61.6L333.1,61.6z"/>
<path class="st10" d="M344.6,129.9c-1.2-0.9-2.7-1.6-4.2-1.9c3.2-3.9,4-9.7,4.7-14.5c0.9-5.6,1.2-11.2,0.9-16.8
	c-0.4-5.5-1.5-10.9-3.4-16.1c-2-5.2-4.8-9.9-8.4-14.2c-0.2-0.2-0.4-0.4-0.5-0.6c0.8,0.1,1.7,0.1,2.5,0c1.6-0.1,3.2-0.4,4.7-1
	c1.4-0.6,3-1.2,3.6-2.6c0.2-0.5,0.1-1-0.4-1.1c-0.8-0.3-1.7-0.2-2.6,0c-2.2-1.4-4.8-2.2-7.2-3.1c-2.7-1-5.4-2.2-8.1-3.5
	c-5.5-2.7-10.6-6.1-16.1-8.9c-10.6-5.3-22-8.5-33.7-9.6c-7.7-0.7-15.5-0.5-23.1,0.7c-3.8,0.6-7.4,1.5-11,2.6
	c-3.5,1.1-7.3,2.3-10.2,4.7c0-0.8-0.1-1.6-0.1-2.3c0-1.1,0.3-2.1,0.6-3.1c0.3-1,0.8-2,1.3-3c0.3-0.6,0.7-1.3,1.1-2
	c0.4-0.4,0.8-0.8,1.1-1.2c0.3-0.4,0-1.1-0.5-1.2c-2.3-0.4-4.4,1.6-6.1,2.9c-2.2,1.7-4.2,3.5-5.9,5.6c-1.7,2-3.4,4.3-4.4,6.8
	c-0.4,1.1-0.9,2.4-1.1,3.7c-1.7-1.8-4.7-2.6-6.9-3.3c-2-0.6-5-1.3-6.7-2.9c0-0.2,0-0.5-0.1-0.7c-0.4-1.5-2.7-1.5-3,0
	c-0.3,1.5,0,3.1,0.2,4.5c0.2,1.4,0.6,2.7,1.2,4c0.7,1.7,2.3,3.7,4.1,4.6c-1.5,0.7-3,1.3-4.4,2.2c-2.2,1.3-4.3,2.8-6.2,4.4
	c-4.1,3.2-7.7,7-10.9,11.1c-6.5,8.2-11.4,17.8-13.6,28c-0.9,4.1-1.3,8.3-1.2,12.5c0.1,2.4,0.4,4.8,0.8,7.2c0.2,1.2,0.5,2.5,0.8,3.7
	c0.2,1.1,0.4,2.1,0.9,3.1c-1.4,0.4-2.7,1.2-3.9,2.1c-3.5,2.8-6.4,6.5-6.9,11c-0.6,5.2,2,10.2,5.6,13.9c1.8,1.8,4,3.3,6.3,4.3
	c3,1.3,6,1.6,9.2,1.4c1.1-0.1,2.3-0.2,3.4-0.5c1,8.3,3.7,16.2,8.3,23.8c2.9,4.9,6.8,8.9,11.2,12.5c6.5,5.4,19.2,8.5,27.4,10.3
	c0.8,0.2,6.9,2.4,6.2,3.5h0c-2.3,1.4-11.5,4.9-13.7,5.9c-0.1,0-0.2,0.1-0.3,0.1c-1.1,0.4-2.1,1-3.2,1.5c-2.3,1.2-4.4,2.8-6.3,4.5
	c-0.4,0.4-0.9,0.8-1.4,1.3c-0.1,0.1-0.2,0.2-0.4,0.3c-1.7,1.7-3.2,3.5-4.7,5.5c-0.4,0.5-0.7,1-1.1,1.5c-0.6,0.8-1.1,1.6-1.6,2.4
	c-0.4,0.5-0.7,1.1-1.1,1.6c-1.2,1.9-2.3,3.9-3.5,5.8c-2.3,3.9-4.5,7.9-6.4,12c-0.3,0.6-0.5,1.2-0.8,1.8c-0.4,0.9-0.8,1.8-1.2,2.7
	c-0.4,0.9-0.8,1.8-1.2,2.7c-0.2,0.6-0.5,1.2-0.7,1.8c-0.1,0.3-0.3,0.6-0.4,0.9c-0.2,0.4-0.4,0.9-0.6,1.4c-0.6,1.7-1.1,3.5-1.2,5.3
	c0,0.1,0,0.2,0,0.3c-0.2,0.9,0.4,2.3,0.8,2.9c0.9,1.4,2.4,2.4,3.8,3.2c0.8,0.5,1.7,1,2.6,1.4c-0.4,2.3-0.5,4.6-0.8,6.8
	c-0.1,0.6-0.2,1.2-0.3,1.8c-0.4,2.3-0.8,4.6-1.3,6.8c-1.3,5.8-2.8,11.6-4.5,17.3c-1.7,5.7-3.4,11.3-4.9,17.1
	c-1.5,5.8-2.5,11.7-3.8,17.6c-0.3,1.3-0.6,2.6-1,3.9c-0.2,0.7-0.5,1.5-0.6,2.3c-0.4,1.2-0.2,2.7,0.4,3.7c0.9,1.9,3.2,2.4,5.1,2.3
	c4-0.3,6.6-3.4,8.8-6.5c2.3-3.5,4.1-7.3,5.9-11.1c1.4-2.9,3.1-5.7,4.6-8.6c0.2,2.7,0.4,5.4,0.7,8c0.8,8.4,2.1,16.7,3.6,25
	c1.9,10.4,4.1,20.8,6,31.2c1.1,5.7,2.1,11.4,3.3,17.2c0.8,4.4,1.8,8.8,3.1,13.1c0.1,0.8,0.3,1.7,0.4,2.6c0.5,2.7,1,5.3,1.6,7.9
	c0.3,1.2,0.6,2.5,0.9,3.7c0.9,3.8,1.9,7.7,3,11.5c0.5,1.9,1.1,3.8,1.6,5.8c0.2,0.9,0.4,1.9,0.6,2.9c0.1,0.4,0.1,0.9,0.3,1.3
	c-0.3,1.5,0.4,3.1,1.9,4c2,1.2,4.6,1,6.7,0.6c2-0.3,4-0.9,5.8-1.8c1.5-0.8,2.9-1.8,4.1-3c0.9-0.9,2.3-2.5,2.5-4
	c0.8-1.6,1.1-3.3,1.4-5.1c0.4-2.4,0.5-4.9,0.6-7.4c0-2.3,0-4.7-0.1-7.1c0-1.8-0.1-3.6-0.2-5.4c0-0.7,0-1.4-0.1-2
	c-0.1-6.2-0.2-12.5-0.4-18.7c-0.3-6.5-0.5-13-0.4-19.4c0.1-3.9,0.2-7.9,0.6-11.8c0.1-1.9,0.4-3.8,0.6-5.6c0.1-1,0.2-2,0.3-3
	c0-0.5,0-1,0-1.5c0.8,1,2.4,1.2,3.5,1.2c1.9,0.1,3.7,0,5.5-0.1c1.7-0.1,3.4-0.2,5.1-0.4c0.8-0.1,1.7-0.1,2.6-0.3c0.2,0,0.4,0,0.5,0
	c0.1,0.1,0.1,0.3,0.2,0.4c0.4,1.3,0.4,2.7,0.7,4c0,0,0,0.1,0.1,0.2c0,0.4,0,0.8,0.1,1.1c0.2,1.6,0.3,3.2,0.4,4.7
	c0.1,3.1,0.2,6.2,0.5,9.2c0.8,6.5,1.5,13,2,19.5c0.4,6.3,0.8,12.5,0.7,18.8c0,1.2,0,2.3,0,3.5c-0.1,3.3-0.2,6.6-0.1,10
	c0.1,4.1,0.3,8.9,2.1,12.8c0,0,0,0.1-0.1,0.1c-0.8,2.2,2.8,4.3,4.4,5.2c0.6,0.3,1.2,0.6,1.8,0.9c1.3,1.1,3.2,1.5,4.9,1.8
	c1.9,0.4,4.1,0.5,6.1-0.2c2-0.7,3-2.2,3.3-4.2c0.2-1,0.3-2.2,0.2-3.3c0.8-2.4,0.9-5.1,1.2-7.7c0.4-2.9,0.8-5.9,1-8.8
	c0.1-1.2,0.2-2.5,0.3-3.8c0.4-4.6,0.6-9.2,1-13.8c0.4-5.7,0.8-11.5,1.8-17.1c0.1-0.4,0.2-0.9,0.2-1.3c1.6-5.5,2.7-11,3.9-16.5
	c1.3-6.2,2.5-12.4,3.3-18.7c0.8-6.2,0.9-12.4,1.1-18.7c0-4.1,0-8.1,0-12.2c-0.1-2.1-0.1-4.3-0.2-6.4c-0.3-6.8-0.8-13.6-1.5-20.3
	c0.9,2.3,1.8,4.6,2.7,6.9c1.8,4.7,3.6,9.4,5.7,14c2,4.5,4.3,9,7.2,13c2.2,3.1,5.3,6,9.4,5.4c1.3-0.2,2.4-0.9,3.1-2
	c0.7-1,0.8-2,0.6-3.1c0.1-1.2,0-2.3-0.1-3.5c-0.1-1.5-0.4-3-0.6-4.4c-0.4-3-1.2-5.8-2-8.7c-1.6-5.8-3-11.7-4.5-17.5
	c-1.5-5.9-2.9-11.7-4.5-17.5c-0.8-2.9-1.7-5.8-2.7-8.6c-0.7-2.2-1.4-4.7-2.6-6.8c0.4-0.2,0.8-0.4,1.2-0.7c1.1-0.7,2.3-1.7,2.9-3
	c0.3-0.5,0.4-1.1,0.4-1.6c0-0.1,0-0.2,0-0.4c0.1-2.9-1.2-5.8-2.3-8.4c-1.1-2.7-2.5-5.2-4-7.6c-2.7-4.2-5-8.5-7.5-12.9
	c-4.8-8.5-10.1-17.6-18.3-23.3c-2.4-1.7-12.9-5.4-17.1-8c0.5-0.7,1.2-1.3,2.1-1.8c3-1.7,9-2,12.1-2.7c0,0,0,0,0,0
	c1.2-0.2,2.3-0.5,3.4-0.8c3.1-0.8,6-2,8.8-3.4c5.2-2.6,9.8-6.6,13.8-10.8c4-4.2,7.6-9,10-14.3c2.7-6.1,3.4-11.8,3.6-18.3
	c1.8,0.4,3.9,0.1,5.4-0.1c2.8-0.4,5.3-1.6,7.4-3.4c3.6-3,6.2-7.8,6.9-12.5C350.6,137.9,348.8,133.1,344.6,129.9z M187,153
	c-0.1,0.5-0.2,1-0.3,1.5c-0.1,1.1-0.1,2.2-0.1,3.4c-0.9,0-1.9,0.1-2.8,0.1c-1.3,0.1-2.7,0-4-0.2c-2.5-0.4-4.7-1.3-6.8-2.7
	c-3.5-2.3-6.5-6.3-7-10.6c-0.1-1-0.1-2,0.1-3.1c0.2-1.1,0.6-2,0.9-2.7c0.8-1.5,2-2.9,3.2-4.1c1.9-1.9,5.1-4.2,7.9-3.2
	c0,0.6,0.1,1.2,0.2,1.7c-0.7,0-1.3,0.2-1.9,0.3c-1.1,0.2-2.1,0.6-3,1.3c-1.7,1.2-2.5,3.1-2.8,5.2c-0.6,4.3,1.9,8.8,5.1,11.6
	c0.1,0.1,0.2,0.1,0.3,0.1c0.4,0.1,0.7-0.2,0.8-0.5c0-0.2,0-0.4-0.2-0.5c-2.6-2.5-4-6.5-3.8-10c0-1.4,0.7-3,1.8-3.8
	c0.7-0.6,1.6-0.9,2.4-1c0.6-0.1,1.2-0.1,1.8-0.2c0.6,2.1,1.5,4.2,2.5,6.1c1.2,2.3,2.7,4.4,4.3,6.3c0.5,0.5,0.9,1,1.4,1.5
	C187.1,150.7,187,151.8,187,153z M188.1,138.5c-0.1,2.2,0,4.5,0.4,6.7c0.2,1.1,0.4,2.4,0.8,3.7c-0.5-0.7-0.9-1.4-1.4-2
	c-1.4-2-2.6-4.2-3.7-6.4c-1-2.1-1.8-4.4-2.4-6.7c-0.4-1.3-0.4-2.7-0.6-4.1c-0.1-1.2-0.4-2.7-1.8-3.2c-0.3-0.1-0.7,0-0.9,0.3
	c-0.5,0.4-0.6,1.1-0.7,1.7c-0.4-0.1-0.8-0.2-1.2-0.2c0-1.4-0.5-2.7-0.8-4.1c-0.4-1.6-0.8-3.2-1-4.9c-0.4-2.5-0.5-5.1-0.5-7.6
	c0.1-5,1-10,2.5-14.8c1.6-5.4,4-10.5,7-15.3c2.5-4.1,5.5-7.9,8.7-11.4c0.3-0.3,0.5-0.5,0.8-0.8c0.9-1,2-2,3-2.9
	c0.3-0.3,0.6-0.5,0.8-0.8c1.1-1.1,2.3-2,3.6-3c1.4-1.2,2.9-2.2,4.4-3.2c1.2-0.8,2.4-1.7,3.6-2.5c0.1,0,0.2,0,0.3,0
	c0.2,0,0.4-0.1,0.6-0.3c0.3-0.3,0.3-0.8,0-1.2c-0.6-0.7-1.4-1.1-2.1-1.7c-0.2-0.2-0.3-0.3-0.5-0.5c-0.8-0.8-1.2-1.8-1.6-2.8
	c-0.4-1.1-0.6-2.2-0.7-3.3c0,0,0-0.1,0-0.1c1.1,1.1,2.7,1.7,4.1,2.2c1.4,0.6,2.8,1,4.2,1.6c0.8,0.4,1.4,0.8,2,1.2
	c0.6,0.4,1,1,1.5,1.5c0.8,0.8,1.8,0.5,2.3-0.1c0.4,0.1,0.9,0,1.1-0.5c0.3-0.9,0.4-1.9,0.6-2.8c0.3-1,0.7-1.9,1.2-2.9
	c1.1-2.3,2.6-4.2,4.3-6.1c1.2-1.4,2.5-2.7,3.9-3.9c0,0,0,0.1-0.1,0.1c-0.5,1.2-0.8,2.6-0.9,3.9c-0.1,1.1-0.2,2.8,0.5,3.9
	c0.6,0.9,2.3,1,2.7,0c0.2,0.1,0.4,0.2,0.6,0.1c3.1-0.7,6-2,9-2.9c3-0.9,6.1-1.6,9.2-2.1c6.2-1,12.5-1.2,18.8-1
	c10.5,0.4,21,2.4,30.8,6.2c1.1,0.4,2.2,0.8,3.2,1.3c0,0,0.1,0,0.2,0.1c2.9,1.3,5.9,2.7,8.6,4.3c3.1,1.7,6.2,3.7,9.4,5.4
	c2.4,1.3,5,2.4,7.5,3.5c0.7,0.3,1.3,0.5,2,0.8c0,0,0.1,0,0.1,0c0.9,0.3,1.8,0.7,2.7,1c-0.8-0.1-1.6-0.3-2.5-0.4
	c-0.2,0-0.4-0.1-0.6-0.1c-0.7-0.1-1.8-0.3-2.4,0.1c-0.4,0.2-0.6,0.5-0.7,1.1c0,0.6,0.3,1.1,0.8,1.5c0.6,0.4,1.3,0.8,2,1
	c0.3,0.4,0.6,0.9,0.9,1.4c0.2,0.3,0.4,0.5,0.5,0.8c0.8,1.2,1.6,2.4,2.3,3.7c1.3,2.3,2.5,4.8,3.5,7.4c0.2,0.5,0.4,1,0.6,1.5
	c1.5,4.5,2.5,9.3,3,14.1c0,0.4,0.1,0.9,0.1,1.4c0.4,5,0.1,10.1-0.5,15.2c-0.3,2.7-0.8,5.3-1.4,7.9c-0.6,2.6-1.4,5-2.9,7.2
	c-0.1,0.1-0.2,0.2-0.3,0.3c-0.5,0.6-0.6,1.3-0.4,1.9c-0.5,0.1-1,0.3-1.5,0.4c0.2-0.7,0.3-1.4,0.4-2c0.4-2.3,0.4-4.6,0.1-6.8
	c-0.4-4.5-2-8.7-4.3-12.6c-0.4-0.6-1.3-0.1-0.9,0.6c2,3.7,3.1,7.9,3.5,12.1c0.2,2.1,0.2,4.3-0.1,6.3c0,0.1-0.1,0.1-0.1,0.2
	c0-0.1-0.1-0.2-0.2-0.4c-0.8-1.3-2.9-1.3-3,0.5c0,1.1,0.2,2.3,0.2,3.4c0,1.1-0.1,2.3-0.4,3.4c-1.2,4.7-4.7,8.4-8.2,11.6
	c-0.3,0.3-0.7,0.6-1,0.9c0.1-0.2,0.2-0.4,0.2-0.6c0,0,0.1-0.1,0.1-0.2c1.1-1.6,2.1-3.5,2.8-5.1c1.1-2.5,1.6-5.2,1.8-7.9
	c0.4-4.8-0.3-9.6-1.9-14.1c-2.7-7.4-7.8-13.6-13.5-19c-1.3-1.2-2.6-2.3-3.9-3.5c-3.4-2.8-7-5.4-10.8-7.8c-1.6-1.1-3.3-2.1-5-3.1
	c-0.4-0.2-0.8,0.4-0.5,0.7l0,0c1.4,0.9,2.8,1.8,4.1,2.7c1.1,0.8,2.2,1.5,3.3,2.3c2.3,1.7,4.7,3.4,6.9,5.3c2.9,2.4,5.6,5,8.1,7.9
	c6.2,7.2,11,15.9,11.1,25.6c0,2.8-0.3,5.7-1.1,8.3c-0.2,0.7-0.5,1.5-0.8,2.2c0-0.6-0.1-1.2-0.2-1.8c-0.8-4.6-3.3-8.9-6.6-12.2
	c-3.1-3.1-7.1-5.5-11.2-7.1c-1.9-0.7-3.8-1.5-5.6-2.4c-1.8-0.9-3.2-2.1-4.8-3.3c-0.3-0.2-0.8,0-1,0.3c-0.1,0-0.1,0.1-0.2,0.1
	c-0.9,0.8-0.9,2.3-0.8,3.4c0,1.3,0.3,2.6,0.7,3.8c0.1,0.4,0.3,0.8,0.5,1.1c0,0,0,0-0.1,0c0,0,0.1,0.1,0.1,0.1
	c0.2,0.5,0.5,0.9,0.8,1.4l-0.2,0c-1.2-0.1-2.3-0.4-3.5-0.8c-0.4-0.1-0.9-0.3-1.3-0.4c-0.6-0.2-1.2-0.4-1.8-0.7
	c-1.6-0.7-3.2-1.5-4.7-2.3c-4.3-2.3-8.8-5.3-11.7-9.3c-0.1-0.2-0.1-0.4-0.2-0.7c-0.5-1.2-2.6-1.6-2.9,0c-0.3,1.5,0.1,3.1,0.4,4.6
	c0.2,1.4,0.5,2.9,1,4.2c0.4,1.2,1,2.4,1.8,3.5c-0.2,0-0.4-0.1-0.7-0.1c-1.5-0.3-3.1-0.6-4.5-1c-2.6-0.7-4.9-1.8-7.3-3
	c-2.7-1.4-5.5-2.8-8.1-4.4c-7-4-14.1-8.3-19.9-14c-2.2-2.2-4.2-4.8-5.1-7.8c0.1-1.1,0-2-0.4-2.8c0-0.1,0-0.2,0-0.4
	c0-0.7-0.8-0.8-1.2-0.3c-0.1,0-0.1,0-0.2,0.1c-1.1,0.9-1.4,2-1.8,3.3c-0.4,1.3-0.8,2.6-1.3,3.8c-1,2.3-2.4,4.5-4,6.5
	c0,0-0.1,0-0.1,0.1c-3.1,3.9-6.9,7.3-10.6,10.7c-0.4,0.4-0.9,0.8-1.4,1.3c-3.3,3.1-6.6,6.3-9.4,9.9c-1.9,2.4-3.4,5-4.5,7.7
	c0.2-3.3,0.5-6.6,1.1-9.8c0.2-1.2,0.5-2.3,0.8-3.5c0-0.1,0-0.2,0-0.3c0.2-1,0.5-1.9,0.8-2.9c2-6.6,5.1-12.9,9.2-18.6
	c0.3-0.4-0.4-0.8-0.7-0.4c-3.6,4.8-6.6,10.1-8.7,15.6c-0.5,1.2-0.9,2.5-1.3,3.8c-0.3,0.9-0.6,1.9-0.8,2.9c-0.3,1-0.5,2-0.7,3
	c-0.9,4.5-1.4,9-1.6,13.6C188,135.1,188,136.8,188.1,138.5z M206.3,297.5c-0.1,0.9-0.2,1.8-0.2,2.7c-0.6,6.3-1.2,12.6-1.2,18.9
	c0,1.7,0,3.4,0,5.1c-0.2,0.5-0.4,1-0.7,1.5c-0.5,1.2-1.1,2.5-1.6,3.7c-1,2-2.2,3.8-3.3,5.7c-1.8,3.3-3.3,6.8-5.1,10.1
	c-1.5,2.9-3.5,6.5-6.2,8.3c-1,0.6-2.8,1.2-4.1,0.6c-0.6-0.3-0.8-0.8-1-1.4c0.6-0.8,0.8-1.7,1.1-2.7c0.4-1.5,0.8-3.1,1.2-4.7
	c0.7-3,1.2-6.1,1.9-9.1c1.2-5.7,2.7-11.3,4.3-16.9c2.7-9.3,5.7-18.7,7.1-28.4c0.3-1.7,0.4-3.3,0.6-5c0-0.4,0.1-0.9,0.1-1.3
	c0.1-2,0.2-4.1,0-6.1c2,0.8,4.2,1.4,6.3,1.9c0.8,0.1,1.9,0.5,2.9,0.5c0,0.3,0,0.5-0.1,0.7c-0.6,4.1-1.1,8.2-1.5,12.4
	C206.5,295.3,206.4,296.4,206.3,297.5z M210.9,353c-0.5-3.5-1-6.9-1.4-10.4c2.9,2.3,6.4,4,10,5.2c1.5,0.5,2.9,0.9,4.4,1.2
	c-0.1,1.5-0.6,3.1-1.2,4.5c-0.2,0.5-0.4,0.9-0.7,1.4c-0.6,1-1.3,1.9-2,2.8c-0.2,0.3-0.4,0.5-0.7,0.8c-0.5,0.5-1,0.9-1.6,1.4
	c-0.9,0.7-1.9,1.2-2.8,1.7c-0.7,0.4-1.5,0.7-2.3,1C211.9,359.4,211.3,356.2,210.9,353z M247,443.1c0.2-0.1,0.4-0.2,0.7-0.4
	C247.5,443.1,247.2,443.2,247,443.1z M231.8,443.2c0.2,0.1,0.4,0.1,0.5,0.2C232.1,443.3,232,443.2,231.8,443.2z M234.2,462.7
	C234.3,462.7,234.3,462.7,234.2,462.7C234.3,462.7,234.3,462.7,234.2,462.7z M284.6,444.3c1.5,0.4,3,0.6,4.6,0.6
	C287.7,444.8,286.1,444.7,284.6,444.3z M301.5,396.7c-0.1,0.4-0.1,0.9-0.2,1.3c-0.4,1.8-0.9,3.5-1.3,5.4c-1.3,5.8-1.9,11.6-2.3,17.5
	c-0.4,4.5-0.7,9-1,13.6c-0.1,1.3-0.2,2.7-0.3,3.9c0,0.6-0.1,1.2-0.2,1.8c-1.3-0.3-2.1,0.4-3.2,0.9c-0.8,0.3-1.6,0.4-2.4,0.6
	c-1.6,0.2-3.3,0.1-4.9-0.2c-1.4-0.2-2.7-0.6-4-1.2c-0.5-0.2-1-0.4-1.5-0.8c-0.7-0.4-1.3-0.8-1.9-1.2c0-1.9,0.1-3.9,0.2-5.9
	c0-0.7,0-1.4,0-2.1c0.3-12.4-0.8-24.9-2.4-37.2c-0.4-3.6-0.8-7.2-1.1-10.9c-0.1-1.8-0.2-3.6-0.4-5.5c-0.1-1.1-0.2-2.3-0.6-3.3
	c0.2-2.3-0.3-5.6-2.4-5.6c-0.4-0.2-0.8-0.3-1.4-0.4c-0.9-0.1-1.7-0.1-2.6,0c-1.8,0-3.6,0.2-5.5,0.3c-1.7,0.1-3.4,0.2-5.1,0.1
	c-0.9,0-1.8-0.1-2.7,0c-0.4,0-0.8,0.3-1.2,0.6c-0.2-0.5-1-0.5-1.2,0.1c-0.3,0.7-0.7,1.4-0.9,2.1c-0.2,0.6-0.4,1.2-0.5,1.9
	c0,0.1,0,0.2-0.1,0.3c-0.4,1.6-0.7,3.2-0.9,4.9c-0.4,3.1-0.7,6.3-0.9,9.4c-0.4,6.5-0.4,12.9-0.2,19.4c0.3,8.7,0.5,17.3,0.8,26
	c0,1.8,0.1,3.6,0.1,5.4c-0.1,0.1-0.3,0.3-0.4,0.4c-0.4,0.3-0.7,0.6-1.1,0.9c-0.4,0.3-0.9,0.6-1.4,0.9c-0.2,0.1-0.4,0.2-0.5,0.3
	c-3.3,1.7-7.4,2.4-11.1,1.9c-0.1,0-0.3,0-0.4,0c-1.1-0.2-2.1-0.5-3.1-0.9c-1.1-0.4-2.1-1-3.1-1.7c-0.4-1.4-0.7-2.8-1.1-4.2
	c-0.6-2.4-1.2-4.9-1.8-7.3c-0.5-1.9-1-3.8-1.6-5.7c-0.7-4.1-1.5-8.2-2.3-12.2c-1.2-6.4-2.4-12.7-3.6-19.1
	c-1.7-8.9-3.5-17.8-5.2-26.8c1.1-0.4,2-1,2.8-1.5c0.7-0.4,1.4-0.9,2.1-1.5c0.8-0.7,1.6-1.3,2.3-2.1c0.1-0.1,0.2-0.2,0.3-0.3
	c1-1.1,1.9-2.3,2.6-3.6c0.2-0.4,0.4-0.9,0.7-1.4l0,0c0.7-1.6,0.9-3.1,0.9-4.8c2,0.4,4.1,0.8,6.1,1.1c4.7,0.7,9.3,1.1,14,1.4
	c5,0.3,10,0.7,15.1,0.6c5.8-0.1,11.5-0.7,17.2-1.8c3.3-0.6,6.6-1.4,9.9-2.3c2-0.6,4-1.2,6.1-1.9c-0.2,1.9,0.1,3.5,1,5.1
	c0,0,0,0.1,0,0.1c0.5,0.9,1.1,1.6,1.8,2.4c0.8,0.8,1.6,1.5,2.5,2.2c1.7,1.3,3.8,2.2,5.9,2.8c0.8,0.2,2.3,0.6,3.5,0.5
	C307.1,372.1,303.7,384.3,301.5,396.7z M307.8,357.6c-0.2,0-0.3,0-0.4,0c-0.8-0.1-1.7-0.1-2.5-0.3c-1.9-0.4-3.7-1.2-5.3-2.2
	c-0.8-0.5-1.6-1.1-2.3-1.8c-0.7-0.7-1.4-1.5-2-2.4c-0.9-1.4-1.5-3-1.5-4.6c0,0,0,0,0-0.1c2-0.7,4.1-1.4,6.1-2.1
	c2.9-1.1,5.8-2.2,8.2-3.9C308.1,345.9,308,351.7,307.8,357.6z M321.3,284.1c0.2,0.7,0.4,1.3,0.5,2c0.6,2.2,1.2,4.5,1.8,6.7
	c1.5,5.9,2.8,11.7,4.2,17.6c1.3,5.8,2.7,11.5,4.2,17.2c0.8,2.9,1.6,5.8,2.1,8.7c0.3,1.5,0.5,2.9,0.7,4.4c0.2,1.1,0.4,2.3,0.8,3.3
	c-0.1,0.4-0.3,0.8-0.4,1.2c0,0.1-0.3,0.4-0.3,0.4c0,0.1-0.3,0.3-0.4,0.3c-0.4,0.2-0.9,0.1-1.4,0c-0.8-0.2-1.3-0.4-2.1-0.8
	c-1.5-0.9-2.6-2.6-3.6-4.1c-1.4-2-2.6-4.1-3.7-6.3c-2.4-4.5-4.3-9.3-6.2-14c-2-5-4-10-6.1-15c-0.8-2-1.5-4.2-2.6-6.1
	c-0.1-0.2-0.3-0.3-0.4-0.4c-0.1-0.5-0.2-1.1-0.2-1.6c-0.2-1.2-0.4-2.5-0.6-3.7c0-0.3-0.1-0.5-0.1-0.7c-0.7-4.1-1.4-8.2-2.2-12.3
	c0.4,0.1,0.8,0.1,1.2,0.1c2.2,0,4.5-0.7,6.6-1.2c2.3-0.5,4.6-1.2,6.7-2c0.2,1.4,0.6,2.8,1,4.2C320.9,282.6,321.1,283.4,321.3,284.1z
	 M283.7,218.3c1.8,0.8,3.7,1.6,5.5,2.5c3.7,1.9,6.7,4.9,9.3,8.1c3.3,3.8,5.9,8.2,8.5,12.5c2.7,4.7,5.3,9.5,8.2,14.2
	c1.6,2.5,3.1,5,4.5,7.6c0.8,1.4,1.5,2.9,2.1,4.4c0.4,1,0.8,2.1,1.3,3c0,0.1,0,0.2,0,0.3c0,0-0.1,0.3-0.1,0.4
	c-0.3,0.7-0.4,0.8-1.1,1.3c-0.8,0.8-2.6,1.6-3.8,2c-0.9,0.4-1.8,0.6-2.7,0.9c-1,0.3-2,0.6-3.1,0.8c-1.4,0.3-2.8,0.6-4.2,0.8
	c-1,0.2-2.5,0.2-3.4,0.8c-1.5-7.3-3.3-14.4-5.4-21.5c-0.4-1.3-0.8-2.6-1.3-3.8c-0.3-0.9-0.6-1.8-1-2.8c-0.3-0.6-0.5-1.2-0.8-1.9
	c-0.1-0.3-0.5-0.1-0.4,0.1c1.1,6.2,2.6,12.2,3.8,18.3c1.3,6.1,2.6,12.2,3.6,18.4c0.7,3.9,1.2,7.7,1.8,11.6
	c1.2,8.5,1.9,17.1,2.5,25.7c0.3,4.7,0.5,9.4,0.6,14.1c-1.9,1.2-4,2.3-6.1,3.2c-2.5,1.1-5.2,2-7.8,2.9c-5.8,2-11.7,3.7-17.7,4.8
	c-5.9,1.2-12,1.8-18.1,1.9c-4.9,0.1-9.7-0.3-14.6-0.6c-6.5-0.4-13-1-19.4-2.4c-1.2-0.2-2.3-0.5-3.4-0.8c-1-0.3-1.9-0.6-2.8-0.9
	c-3.1-1.1-6.1-2.4-8.9-4.1c-0.6-5.7-0.9-11.4-1.1-17.1c0-2.7,0-5.5,0-8.2c0.1-6.3,0.7-12.5,1.2-18.7c0.5-6.2,1.2-12.3,2.1-18.4
	c0.8-5.2,1.8-10.5,2.9-15.6c1.1-5.1,2.6-10.2,3.7-15.3c0.1-0.4-0.4-0.6-0.6-0.4c0,0-0.1,0-0.1,0.1c-2.7,5.4-4.4,11.3-5.8,17.1
	c-1.2,4.7-2,9.5-2.8,14.3c0,0,0,0,0,0c-0.6,0-0.9-0.1-1.7-0.3c-2.7-0.5-5.4-1.3-7.9-2.4c-0.6-0.3-1.2-0.6-1.9-0.9
	c-0.1,0-0.3-0.1-0.4-0.2c-1.3-0.7-2.5-1.5-3.5-2.5c-0.3-0.3-0.6-1-1-1.5c0.3-0.4,0.6-0.9,0.8-1.3c0.2-0.3,0.4-0.6,0.5-0.9
	c0.1-0.1,0.2-0.3,0.2-0.4c0.1-0.2,0.2-0.3,0.2-0.5c0.1-0.1,0.2-0.3,0.2-0.5c0.2-0.4,0.4-0.9,0.6-1.4c0.3-0.8,0.7-1.6,1-2.4
	c1.2-2.8,2.4-5.6,3.7-8.3c0.3-0.7,0.6-1.3,0.9-1.9c0.3-0.6,0.7-1.3,1-1.9c0.4-0.7,0.7-1.3,1-1.9c1.7-3.2,3.5-6.3,5.5-9.3
	c2.6-3.9,5.4-7.8,8.7-11.1c0.2-0.2,0.4-0.4,0.7-0.7c1.1-1.1,2.3-2,3.5-3c0.1-0.1,0.3-0.2,0.4-0.3c0.3-0.2,0.5-0.4,0.8-0.5
	c0.4-0.3,0.8-0.5,1.2-0.8c1.1-0.7,2.2-1.3,3.3-1.8c0.1,0,0.2,0,0.2-0.1c0,0,0,0,0,0c0.2,0,0.3-0.1,0.5-0.2c0.1,0,0.2,0,0.3-0.1
	c0,0,0,0,0,0c0,0,0,0,0,0h0c0,0,0,0,0.1,0h0c0,0,0.1,0,0.1,0c0.2-0.1,0.4-0.2,0.7-0.3c0.9-0.4,2-0.8,3.1-1.3
	c0.4,2.3,1.7,4.5,3.1,6.3c1.9,2.4,4.6,4.3,7.4,5.6c6.2,3,13.5,3.7,20.3,2.9c4.6-0.5,9.2-1.8,13.2-4.2c1.8-1.1,3.5-2.5,4.8-4.2
	c1.2-1.6,2.1-3.4,2.9-5.3C283.3,219.5,283.5,218.9,283.7,218.3z M326.9,151.9c0,1.6,0,3.3-0.1,4.9c0,0.1,0,0.1,0,0.2
	c-0.1,0.2-0.1,0.3-0.1,0.5c-0.1,0.7-0.3,1.5-0.4,2.2c-0.3,1.5-0.4,3.1-0.6,4.6c-0.3,3.1-0.9,6.2-1.9,9.1c-1.8,5.3-5.3,10.1-9,14.3
	c-3.7,4.2-8.1,8-12.9,10.7c-2.7,1.5-5.5,2.6-8.5,3.5c-3.6,1.2-12.7,2.3-16.1,3.5c-2,0.8-3.6,2.2-4.7,4.1c-0.1,0.2-0.2,0.4-0.4,0.7
	c-0.9,2.2,0.7,3.5,3,4.1c1.3,0.5,2.9,0.8,3.7,1.3c0,0,0.1,0.1,0.1,0.1c0.2,0.1,0.4,0.3,0.6,0.4c0.3,0.1,0.5,0.3,0.8,0.4
	c0,0.1,0,0.3-0.1,0.4c0,0.1,0,0.1-0.1,0.2c0,0.1,0,0.1,0,0.2c-0.3,1-0.7,1.9-1.2,2.9c-0.2,0.3-0.3,0.6-0.5,0.9
	c-0.1,0.1-0.1,0.2-0.2,0.3c-0.2,0.4-0.4,0.8-0.7,1.1c-0.4,0.6-0.9,1.1-1.4,1.6c-0.1,0.1-0.1,0.1-0.2,0.2c-0.2,0.1-0.3,0.3-0.5,0.4
	c-0.1,0-0.1,0.1-0.2,0.2c-0.4,0.4-0.9,0.7-1.4,1c-0.1,0-0.1,0.1-0.2,0.1c-0.1,0.1-0.3,0.2-0.4,0.3c-1.7,1-3.6,1.8-5.5,2.3
	c-0.2,0-0.4,0.1-0.6,0.2c-0.4,0.1-0.8,0.2-1.2,0.3c-0.3,0.1-0.5,0.1-0.8,0.2c-5.5,1.2-11.5,1.1-16.9-0.1c-2.1-0.5-4.2-1.2-6-2.1
	c-1.3-0.7-2.5-1.5-3.6-2.4c-0.8-0.7-1.4-1.3-2-2c-0.1-0.2-0.3-0.4-0.4-0.5c-0.3-0.4-0.6-0.9-0.9-1.3c-0.2-0.3-0.4-0.6-0.5-1
	c-0.1-0.1-0.1-0.3-0.2-0.4c-0.3-0.6-0.5-1.2-0.8-1.8c0.3-0.1,0.5-0.2,0.8-0.4c0.1-0.1,0.3-0.1,0.4-0.2c0.2-0.1,0.4-0.2,0.6-0.3
	c0.1-0.1,0.3-0.1,0.4-0.2c0.2-0.1,0.4-0.2,0.7-0.4c0.1,0,0.1-0.1,0.2-0.1c0.1-0.1,0.3-0.2,0.4-0.3c0.1-0.1,0.2-0.1,0.3-0.2
	c0.1,0,0.2-0.1,0.3-0.1c0.1-0.1,1.5-0.1,1.6-0.2l0.1,0c0.8-0.2,1.6-0.5,2.4-1c2.3-1.2,2.4-2.9,1.5-4.8c0-0.1-0.1-0.2-0.2-0.3v0
	c-0.1-0.1-0.1-0.2-0.2-0.3c-0.1-0.2-0.3-0.4-0.4-0.6c0,0-0.1-0.1-0.1-0.1c0,0,0,0,0,0c-0.1-0.1-0.1-0.1-0.2-0.2
	c-0.5-0.7-1.2-1.3-1.9-1.8c-0.4-0.3-0.9-0.6-1.3-0.8c-1.7-1-3.6-1.6-5.6-1.9c-1.3-0.2-5.2-0.4-6.6-0.4c-0.2,0-0.4-0.1-0.6-0.1
	c-1.3-0.4-2.6-0.8-3.9-1.1c-2.9-1-5.7-2.2-8.4-3.7c-4.9-2.7-9.1-6.7-12.5-11.2c-3.4-4.4-5.9-9.4-7.8-14.7c-2.1-5.8-3.8-11.8-3.9-18
	c0-0.9,0-1.7,0-2.6c0.5,0.5,1.1,1,1.7,1.5c0.1,0.1,0.2,0.1,0.4,0.1c0.5,0.1,1.1-0.5,0.7-1c0.1-1.2-0.1-2.3-0.4-3.5
	c0-0.1-0.1-0.3-0.1-0.4c-0.3-1.4-0.4-2.8-0.6-4.3c-0.2-3-0.3-6,0.3-8.9c0.8-4.1,2.7-7.6,5.2-10.8c0.5-0.6,1-1.3,1.5-1.9
	c0.6-0.6,1.1-1.2,1.7-1.8c1.9-2,3.9-3.8,5.9-5.7c0.9-0.8,1.8-1.7,2.7-2.5c4.1-3.8,8.2-7.6,11.3-12.2c1.3-1.9,2.4-4,3.3-6.2
	c0-0.1,0.1-0.2,0.1-0.3c0.2,0.5,0.5,1,0.8,1.5c1.8,3.3,4.6,6.1,7.4,8.6c6.1,5.3,13.1,9.5,20.2,13.3c1.9,1,3.8,2,5.8,3
	c0.5,0.2,1.1,0.5,1.6,0.7c2.3,1,4.6,1.7,7,2.2c0.4,0.1,0.8,0.2,1.3,0.2c2.1,0.4,4.4,0.5,6.2-0.4c0.3-0.1,0.4-0.4,0.5-0.7
	c0.2-0.1,0.3-0.4,0.3-0.5c-0.1-1.2-1.1-2-1.8-2.9c-0.7-1-1.1-2.1-1.4-3.2c-0.2-0.9-0.4-1.9-0.6-2.8c0.6,0.7,1.2,1.3,1.8,1.9
	c2.3,2.2,4,3.5,6.7,5.1c0.6,0.3,0.8,0.5,1.5,0.8c-3.1,0.8-5.3,2.8-7.1,5.1c-2.2,2.6,0.4,1.9,1.7,1.1c6-4.1,14.7-5.1,20.3,0.4
	c0.8,0.8,2.3,1.2,3,0.2c0.1-0.2,0.2-0.4,0.3-0.6c0.3-1.1-0.2-2.1-1-2.9c0.1-0.1,0.1-0.2,0.1-0.4c0,0,0,0,0,0c0-1-1-1.7-1.6-2.5
	c-0.6-0.8-1.1-1.6-1.3-2.6c-0.2-0.6-0.4-1.3-0.4-1.9c1.7,1.6,4,2.6,5.8,3.5c3.7,1.7,7.3,3.3,10.5,6c3.3,2.8,5.7,6.2,6.8,10.4
	c0.1,0.5,0.3,1.1,0.4,1.7c0.2,1.5,0.2,3-0.2,4.5c-0.1,0.5-0.4,1-0.6,1.5c-0.2,0.5-0.4,1-0.7,1.4c-0.6,1.1-1.3,2.1-1.4,3.3
	c0,0.8,0.7,1.2,1.4,1.1c0.3,0,0.6-0.1,0.8-0.3c0.8,0,1.6-0.3,2.3-0.6c0.5-0.2,0.9-0.4,1.4-0.6c0.6-0.4,1.2-0.7,1.8-1.1
	c1.4-0.9,2.7-1.9,3.9-3c0,0.7-0.1,1.3-0.1,2C326.8,148.4,326.9,150.2,326.9,151.9z M345.6,143.1c-0.7,3.7-2.7,7-5.6,9.5
	c-1.5,1.3-3.4,2-5.4,2.3c-1.4,0.2-3,0-4.4,0.2c0,0,0-0.1,0-0.1c0-0.5,0-0.9,0-1.4c0-0.5,0-1.1,0-1.6c0-1.4-0.1-2.7-0.2-4.1
	c-0.1-1.9,0-3.8-0.7-5.5c0-0.1-0.1-0.1-0.1-0.2c0.8-1,1.6-2,2.2-3.1c0,0,0.1,0,0.1,0c1.6,0,2.9-0.8,4.4-1c1.2-0.1,2.4,0.2,3.4,1
	c1.9,1.6,1.7,3.9,0.9,5.9c-0.3,0.7-0.7,1.4-1.1,2c-0.3,0.4,0.3,0.8,0.6,0.5c0.7-0.5,1.2-1.1,1.7-1.8c1.7-2.4,1.9-5.6-0.3-8.1
	c-1.2-1.3-3-2-4.7-2c-1.1-0.1-2.5,0.2-3.5,0.8c0.5-1.4,1-2.8,1.2-4.3c1.3-0.5,2.6-0.9,4-0.7c1.6,0.2,3.2,1,4.5,2.1
	C345.4,135.9,346.3,139.5,345.6,143.1z"/>
</svg>
