<?xml version="1.0" encoding="utf-8"?>
<!-- Generator: Adobe Illustrator 23.0.0, SVG Export Plug-In . SVG Version: 6.00 Build 0)  -->
<svg version="1.1" id="Layer_1" xmlns="http://www.w3.org/2000/svg" xmlns:xlink="http://www.w3.org/1999/xlink" x="0px" y="0px"
	 viewBox="0 0 512 512" style="enable-background:new 0 0 512 512;" xml:space="preserve">
<style type="text/css">
	.st0{fill:#DCC0B5;}
	.st1{fill:#FDD835;}
	.st2{fill:#FFF59D;}
	.st3{fill:#FEE993;}
	.st4{fill:#F6ACB3;}
	.st5{fill:#F27779;}
	.st6{fill:#E3909A;}
	.st7{fill:#FFFFFF;}
	.st8{fill:#ECD27C;}
	.st9{fill:#FFEACB;}
	.st10{fill:#F3D6B5;}
	.st11{fill:#7A5144;}
	.st12{fill-rule:evenodd;clip-rule:evenodd;fill:#F6ACB3;}
</style>
<path class="st0" d="M345.2,449.6c0,11.8-36.5,21.4-81.5,21.4c-45,0-81.5-9.6-81.5-21.4c0-11.8,36.5-21.4,81.5-21.4
	C308.6,428.2,345.2,437.8,345.2,449.6L345.2,449.6z"/>
<path class="st1" d="M214.5,54.3L214.5,54.3c-1.1,0.5-2.2,1-3.3,1.5c-4.3,2.1-8.4,4.5-12.3,7.3c-5.6,3.9-10.5,8.6-14.7,13.8
	c-0.8,1-1.5,1.9-2.2,2.9l0,0c-1.8,2.5-3.4,5-5,7.8c-2.7,4.8-5,9.8-7.2,14.8c-0.2,0.6-0.5,1.2-0.7,1.8c-1.5,4.9-3.1,9.8-4.3,14.7
	c-1.6,6.4-2.9,12.9-3.8,19.5c-2,13.7-2.3,27.6-1.8,41.4c0.3,7.1,0.8,14.2,1.4,21.2c0.7,6.8,1.3,13.6,2.7,20.3
	c1.4,6.5,3.2,12.9,5.2,19.2c0.9,2.9,1.9,5.8,2.9,8.7c0-1.5,0-3.2,0.7-4.6c0.5-1,2.1-0.9,2.5,0c0,0.1,0.1,0.1,0.2,0.2
	c1.7,3.3,2.9,6.7,4.8,9.8c2.1,3.3,4.5,6.4,7.3,9.2c2.7,2.8,5.7,5.3,9,7.3c1,0.6,2,1.1,3,1.6c0.1-0.3,0.2-0.6,0.3-0.8
	c-2.1-2.6-3.8-5.6-5.5-8.5c-1.8-3.2-3.2-6.5-4.5-9.8c-2.5-6.4-4.6-13-6.5-19.7c-3.2-11.9-5.4-24.1-6.1-36.4
	c-0.3-6-0.4-12.2,0.1-18.2c0.2-2.9,0.6-5.9,1.1-8.8c0.2-1.6,0.5-3.3,0.9-4.9c-0.1-0.6-0.2-1.2-0.3-1.8c-8.3-2.4-15.3-10.2-16.1-18.7
	c-0.4-4.8,1.5-9.3,5.5-12c2.3-1.6,5.1-2.3,7.9-1.5c0.3-3.6,1-7.2,1.8-10.7c0.7-3.3,1.5-6.6,2.5-9.8c0.5-1.7,1.1-3.3,1.7-4.9
	c0.6-1.5,1.3-2.9,2-4.3c0.4-0.9,2-0.5,1.9,0.5c-0.1,0.6-0.1,1.1-0.2,1.6c0.5,2.5,0.3,5.2,0.5,7.7c0.1,2.9,0.3,5.7,0.6,8.6
	c0.4,2.8,0.8,5.6,1.5,8.4c0.2,1,0.5,2,0.8,3c0.5-2.1,1.2-4.1,2-6c4.4-10.6,11.7-20,20.2-27.6c4.1-3.6,8.5-7,13.2-9.7
	c2.7-1.5,5.5-2.9,8.3-4.1c2.6-1.1,5.2-2.2,7.9-2.6c1.6-0.6,3.3-1.2,4.9-1.6c0.4-0.1,0.6,0.5,0.2,0.6c-0.9,0.3-1.8,0.6-2.6,0.9
	c0.3,0.4,0.4,0.9,0.1,1.3c-0.1,0.3-0.2,0.7-0.6,0.8c-0.1,0-0.3,0.1-0.4,0.2c-1,1-2,2.1-2.9,3.1c-1.4,1.4-2.9,2.8-4.4,4.3
	c-3.1,3.2-6.1,6.4-8.9,9.8c-2.8,3.4-5.4,7-7.5,10.9c-1.2,2.2-2.2,4.5-2.9,6.9c2.2-1.2,4.4-2.2,6.7-3.1c10.9-4.4,22.6-6.3,34.2-7.9
	c5.7-0.8,11.5-1.5,17.2-2.4c2.9-0.4,5.7-0.8,8.6-1.1c1.3-0.1,2.6-0.3,3.8-0.7c6.6-3,13.1-6.8,16.3-13.6c0.3-0.6,1.4-0.3,1.4,0.3
	c-0.1,0.8-0.3,1.5-0.5,2.3c0.1,0.5,0.2,1,0.2,1.5c0.1,0.9,0.1,1.8,0.2,2.7c0.2,1.7,0.5,3.3,0.8,5c0.7,3.2,1.6,6.4,2.7,9.5
	c0.6,1.6,1.2,3.2,1.8,4.7c3.2,5.1,7.4,9.5,12.1,13.3c0.6-3.4,0.8-6.9,0.5-10.4c-0.2-2.1-0.5-4.1-0.8-6.2c-0.1-1-0.3-1.9-0.4-2.9
	c-0.1-0.7-0.2-1.3-0.1-1.9c-0.1-0.4-0.2-0.7-0.3-1.1c-0.2-0.7,0.9-1.2,1.2-0.5c0.1,0.2,0.2,0.4,0.3,0.7c0,0,0,0,0,0
	c0.7,0.7,0.9,1.6,1.2,2.6c0,0,0,0,0,0.1c0.1,0.1,0.1,0.3,0.2,0.4c1.6,3.3,2.9,6.7,3.8,10.1l0,0c0.4,1.1,0.7,2.2,1,3.2
	c1.5,4.6,2.8,9.3,3.8,14.1c0.3,1.1,0.5,2.2,0.7,3.3c0.9,4.5,1.6,9.1,2.1,13.6c0.2-1.7,0.3-3.3,0.5-5c0.3-3.3,0.6-6.7,0.7-10
	c0-0.7,0-1.5,0-2.2c0-1.3,0-2.6-0.1-4c0-0.5-0.1-1-0.1-1.5c0-0.1,0-0.1,0-0.2c-0.3-3.2-0.7-6.4-1.3-9.5c-0.5-3.3-1.3-6.7-1.3-10.1
	c0-1.1,1.6-1.6,2.2-0.5c1.5,3.2,2.2,6.9,2.9,10.4c0.6,3.1,1.1,6.2,1.3,9.3c0.4,0,0.8,0,1.2,0.1c7.3,1.4,8.4,11.1,7.2,17
	c-0.8,3.9-2.6,7.6-5.5,10.3c-0.4,0.4-0.9,0.8-1.3,1.2c0.1,1.1,0.2,2.1,0.2,3.2c0,1.5,0,2.9,0,4.4c-0.1,3-0.1,6-0.3,9
	c-0.3,5.7-0.7,11.5-1.3,17.3c-1.4,12.7-3.5,25.3-6.6,37.7c-1.6,6.4-3.4,12.7-5.5,18.9c-1,3.1-1.9,6.1-3,9.1c-1,2.9-2,5.9-4.6,7.7
	c-0.2,0.1-0.4,0.2-0.6,0.2c0.1,0.2,0.2,0.4,0.3,0.7c2.8-2.8,5.6-5.6,8-8.7c2.6-3.3,5-6.8,6.6-10.7c0.8-1.8,1.4-3.8,1.9-5.7
	c0.3-1.1,0.5-2.2,0.7-3.2c0.2-0.9,0.4-2,0.9-2.8c0.3-0.6,1.1-0.5,1.4,0l0,0c0.1,0,0.2-0.1,0.4,0c1.6,0.4,2.3,2.7,2.6,4.1
	c0.2,0.9,0.5,1.8,0.7,2.7c0.2-1,0.5-2.1,0.7-3.2c1.4-5.8,2.7-11.6,3.9-17.4c2.3-11.5,4.3-23.2,5.2-34.9c2.2-26.7-0.7-53.8-7.1-79.8
	c-1-3.9-2.1-7.8-3.4-11.7l0,0l0,0l0,0c-0.4-1.1-0.8-2.1-1.2-3.2c-1.7-4.2-3.7-8.1-6.3-11.8c-2.6-3.8-5.7-7.3-9.4-10
	c-0.3-0.3-0.7-0.5-1.1-0.8c-0.9-0.6-1.8-1.2-2.7-1.7l0,0c-0.8-0.5-1.6-0.9-2.4-1.3c-2.2-1-4.3-2.1-6.6-2.7c-0.2,0.1-0.6,0.1-0.8-0.2
	c0,0,0-0.1,0-0.1c-0.3-0.2-0.4-0.6-0.4-0.9v0c-4-7.8-12.2-12.3-20.2-14.9c-4.3-1.3-8.8-2.2-13.2-2.9c-4.8-0.8-9.3-1.4-14.3-1.6
	C246.6,44.6,229.7,47.6,214.5,54.3L214.5,54.3z"/>
<path class="st2" d="M214.5,54.3L214.5,54.3c-1.1,0.5-2.2,1-3.3,1.5c-4.3,2.1-8.4,4.5-12.3,7.3c-5.6,3.9-10.5,8.6-14.7,13.8
	c-0.8,1-1.5,1.9-2.2,2.9l0,0c-1.8,2.5-3.4,5-5,7.8c-0.5,0.9-1,1.7-1.4,2.6l-1.8,4.5c4.7-6.3,7.9-11,13.4-16.5
	C203,62.5,230.9,51.6,258.6,52c16,0.2,35.8,2.5,42.9,14.1c1.4,2.6,4.7,3.6,7.4,2.2c1.1-0.6,1.8-1.5,2.3-2.5l0,0
	c-0.3-0.2-0.4-0.6-0.4-0.9v0c-4-7.8-12.2-12.3-20.2-14.9c-4.3-1.3-8.8-2.2-13.2-2.9c-4.8-0.8-9.3-1.4-14.3-1.6
	C246.6,44.6,229.7,47.6,214.5,54.3L214.5,54.3z"/>
<path class="st3" d="M304.8,307.2c-2.8,1.2-5.7,2-8.7,2.6c-4.2,0.9-8.5,1.6-12.8,2.2c-6.8,0.9-13.6,1.2-20.5,1.3
	c-3.4,0-6.8,0-10.3,0c-3.4,0-6.8,0.1-10.2,0c-6.1-0.3-12.3-1.3-18.2-2.9c-1.7-0.4-3.3-0.9-4.9-1.3c-0.2,2.1-0.4,4.1-0.6,6.2
	c-0.2,2.1-0.4,4.2-0.6,6.2c2.9,1,5.9,1.6,8.9,2.2c7.6,1.2,15.4,1.5,23.1,1.2c10-0.4,19.9-1.7,29.7-3.6c4.2-0.8,8.4-1.7,12.5-2.8
	c2.5-0.6,5.2-1,7.7-1.8c2.5-0.7,4.5-2,6.7-3.3C306,311.3,305.4,309.2,304.8,307.2L304.8,307.2z"/>
<path class="st4" d="M327.5,377.8c-0.6-6-2.1-11.9-4.1-17.7c-2.4-7.1-5.4-14-7.8-21.1c-2.3-5.7-4.4-11.4-6.4-17.3
	c-0.7-2.2-1.4-4.3-2.1-6.5c-2.2,3.1-6.8,4-10.3,4.7c-3.6,0.7-7.1,1.6-10.7,2.4c-7.8,1.7-15.7,3-23.6,3.8c-10.1,1-20.4,1.4-30.5,0
	c-4.7-0.7-9.3-1.7-13.8-3.3c-0.1,0-0.3-0.1-0.4-0.1c-1,11-1.6,22.1-1.2,33.1c0.2,6.8,0.8,13.7,1.9,20.4c1,5.9,2.4,11.6,5,17
	c3.7,7.7,8.9,14.3,14.7,20.5c5.1,0.9,10.2,1.6,15.5,1.9c12.5,0.7,25-0.8,37.2-4c11.7-3.1,22.7-7.7,33.4-13.3c0,0,0,0,0.1,0
	c0.2-0.7,0.5-1.4,0.8-2.1C327,390.5,328.1,384.2,327.5,377.8L327.5,377.8z"/>
<path class="st4" d="M237.8,310.4c3.3,0.2,6.6,0.2,9.9,0.2c6.8,0,13.7,0,20.5-0.2c6.9-0.2,13.9-0.7,20.6-2c5.2-1,10.4-1.8,15.3-3.8
	c-1.7-6.2-3.1-12.4-4.4-18.7c-1.2-6-2.3-12.1-3.2-18.1c-0.4-3-0.8-5.9-1.1-8.9c-0.1-1.5-0.4-3.1-0.4-4.5c0-1,0.1-2,0.1-3
	c-1-0.4-1.7-1.5-2.2-2.3c-0.7-0.9-1.2-2-1.8-3c-1-2.1-1.7-4.4-2.1-6.7c-0.3-2.4-0.2-4.9,0.4-7.2c0.5-1.6,1.2-3.5,2.3-5
	c-2.9-2.1-6.3-3.6-9.6-5c-1.1-0.5-2.2-0.9-3.4-1.4c-0.6,1.8-1.5,3.4-2.4,5.1c-2.7,4.5-6,8.8-10.7,11.4c-3.7,2.1-8,2.9-12.2,2.1
	c-4-0.7-7.9-2.9-10.7-5.8c-1-1-1.8-2-2.6-3.1c-9.4,14-14.5,30.6-17.3,47c-1,5.9-1.6,11.8-2.2,17.8c-0.4,4-0.9,8-1.3,12.1
	c3,0.7,6.1,1.4,9.1,2.1C231.7,309.7,234.7,310.2,237.8,310.4L237.8,310.4z"/>
<path class="st5" d="M289.1,449.9c-0.3-0.7-0.4-1.6-0.6-2.4c-0.2-1-0.3-2-0.5-3c-0.6,0.2-1.1,0.4-1.8,0.6c-1,0.2-2,0.5-3,0.7
	c-1.8,0.3-3.6,0.6-5.5,0.5c-1.8-0.2-3.6-0.6-5.2-1.5c-0.1-0.1-0.3-0.2-0.5-0.3c0.1,0.4,0.3,0.8,0.5,1.2c0.2,0.5,0.5,1.1,0.7,1.6
	c0,0.1,0,0.1,0,0.1c0,0,0.1,0,0.4,0.2c0.8,0.4,1.6,0.9,2.4,1.3c1.7,0.8,4,1.5,6.1,1.9c1.6,0.2,3.9,0.3,5.5-0.2c0.1,0,0.2,0,0.3-0.1
	l0,0c0,0,0,0,0,0c0.1-0.1,0.3-0.1,0.5-0.3c0,0,0.4-0.2,0.3-0.2C288.9,449.9,289,449.9,289.1,449.9L289.1,449.9z"/>
<path class="st5" d="M237.9,444.8c-0.1,1.9-0.4,3.7-0.6,5.6c0.4,0.1,0.8,0.3,1.1,0.6c0,0,0,0,0,0c0.5,0,1,0,1.4-0.1
	c1.6-0.3,3.1-0.9,4.5-1.6c1.4-0.8,2.7-1.8,3.9-2.9c0.6-0.6,1.1-1.1,1.5-1.8c0.1-0.1,0.2-0.2,0.2-0.4c-1.2,0.7-2.7,1.3-4.1,1.6
	C243.1,446.3,240.4,446,237.9,444.8L237.9,444.8z"/>
<path class="st6" d="M337.7,382.9c-0.1-1.1-0.2-2.2-0.2-3.3c0-0.1,0-0.1,0-0.2c-2-4.1-4.5-7.9-7-11.6c-1.6-2.4-3.2-4.8-4.6-7.3
	c-1.3-2.3-2.6-4.6-3.8-7c-2.3-4.7-4.5-9.5-6.4-14.3c2.4,7,5.5,14,7.8,21.1c2,5.7,3.5,11.6,4.1,17.7c0.6,6.3-0.5,12.7-2.5,18.6
	c-0.2,0.7-0.5,1.4-0.8,2.1c0.9-0.5,1.9-1.1,2.8-1.6c2.9-1.7,5.6-3.6,7.7-6.1c1.3-1.4,2.3-3.1,2.7-5C337.7,385,337.8,384,337.7,382.9
	L337.7,382.9z"/>
<path class="st6" d="M238.8,227.9c-0.7-1.3-1.5-2.8-2-4.3c-3.2,1.7-6.3,3.4-9.3,5.5c-0.5,0.3-1,0.7-1.4,1.1c0,0.2,0.1,0.5,0.1,0.7
	c0.2,1,0.2,2.1,0.2,3.1c0.1,2.1,0.1,4.2,0,6.3c-0.2,2.1-0.5,4.2-1.3,6.2c-0.4,1-0.8,2-1.4,2.9c-0.5,0.7-0.9,1.5-1.7,1.8c0,0,0,0,0,0
	c-0.8,2.1-1.5,4.2-2.2,6.3c-1.1,2.9-2.1,5.8-3.1,8.9c-1.9,5.9-3.5,11.9-4.9,17.9c-1.5,6.7-2.8,13.5-3.8,20.3
	c3.2,0.6,6.3,1.2,9.4,1.9c0.2,0,0.5,0.1,0.7,0.1c0.5,0.1,1,0.2,1.4,0.4c0.4-4,0.9-8,1.3-12.1c0.6-5.9,1.1-11.9,2.2-17.8
	c2.8-16.4,7.9-33.1,17.3-47c-0.5-0.6-0.9-1.3-1.3-2C238.9,228.1,238.9,228,238.8,227.9L238.8,227.9z"/>
<path class="st6" d="M218.5,376.5c-1.1-6.7-1.7-13.6-1.9-20.4c-0.4-11.1,0.3-22.1,1.2-33.1c-0.7-0.2-1.3-0.5-2.1-0.8
	c-1.2-0.5-2.4-1-3.5-1.6c-1.9-1-3.7-2.2-5.4-3.4c-0.1-0.1-0.2-0.3-0.1-0.4l-0.5,0c-0.2,1.6-0.4,3.2-0.6,4.7
	c-1.5,12.9-2.6,25.8-3.8,38.8c-0.7,6.7-1.3,13.4-1.7,20.1c-0.2,3.4-0.4,6.8-0.5,10.2c-0.1,2.8-0.1,5.6-0.5,8.4
	c2.1,3.2,5.7,5.4,9.3,7.1c6.7,3.2,14.1,4.9,21.3,6.4c1.6,0.3,3.3,0.7,4.9,1c1.1,0.2,2.3,0.4,3.5,0.7c-5.7-6.2-11-12.9-14.7-20.5
	C220.9,388.1,219.5,382.4,218.5,376.5L218.5,376.5z"/>
<path class="st7" d="M282.9,135.5c-0.2-0.3-0.4-0.5-0.8-0.7c-0.3-0.2-0.6-0.3-0.9-0.3c0,0-0.1,0-0.1,0c-0.4,0-0.7,0.1-1.1,0.3
	c-0.3,0.2-0.5,0.4-0.7,0.8c-0.2,0.2-0.2,0.5-0.3,0.8c0,0,0,0,0,0c0,0,0,0,0,0l0,0v0v0c0,0,0,0,0,0c0,0,0,0.1,0,0.1c0,0,0,0.1,0,0.1
	c0,0,0,0.1,0,0.1c0,0,0,0.1,0,0.1c0,0.4,0.1,0.4,0.2,0.6c0.1,0.3,0.4,0.5,0.7,0.7c0.3,0.2,0.7,0.3,1,0.3c0.1,0,0.1,0,0.1,0
	c0.3,0,0.6-0.1,0.9-0.3c0,0,0-0.1,0.1-0.1c0.1-0.1,0.2-0.2,0.3-0.2c0.2-0.3,0.4-0.6,0.5-0.9c0.1-0.1,0.1-0.3,0.1-0.4
	c0-0.1,0-0.1,0-0.2C283.2,136.3,283,135.7,282.9,135.5L282.9,135.5z"/>
<path class="st7" d="M233.1,135.2c-0.5,0-1,0.2-1.3,0.5c-0.4,0.4-0.7,1-0.7,1.6c0,0.6,0.3,1.2,0.8,1.6c0.3,0.2,0.6,0.3,1,0.4
	c0.1,0,0.2,0,0.3,0c0.9,0,1.7-0.6,2-1.3c0.1-0.2,0.1-0.5,0.1-0.7C235.2,136.1,234.2,135.2,233.1,135.2L233.1,135.2z"/>
<path class="st8" d="M217.2,308.4c-3.1-1-6.3-1.9-9.4-2.7c-0.5,3.6-1.1,7.3-1.5,11l0.4,0c0.1-0.2,0.3-0.5,0.6-0.3
	c2.6,1.8,5.7,3.2,8.7,4.4c0.1,0,0.3,0.1,0.5,0.1c0.5,0.2,1.1,0.4,1.6,0.5c0.2-2.1,0.4-4.2,0.6-6.2c0.2-2.1,0.4-4.1,0.6-6.2
	C218.6,308.8,217.9,308.6,217.2,308.4L217.2,308.4z"/>
<g>
	<path class="st1" d="M340.8,163.7c0-1.1-0.1-2.1-0.2-3.2c-0.8,0.6-1.5,1.2-2.3,1.7c-0.4,0.3-0.8,0.6-1.2,0.8
		c-1,6.4-2.3,12.8-4.1,19c-2.9,9.4-7.1,19.2-14.6,25.9c-0.4,0.6-0.9,1.2-1.4,1.6c-1.1,0.7-2.6-0.5-2.2-1.7c0.3-1,1-1.8,1.5-2.8
		c0.4-0.9,0.8-1.7,1.1-2.6c0.2-0.7,0.4-1.5,0.7-2.2c0-0.2,0.1-0.4,0.1-0.6c0.5-1.6,0.9-3.3,1.2-4.9c0.3-1.3,0.5-2.7,0.7-4
		c-2.1,1.6-4.5,2.8-6.8,3.9c-4,1.9-8,3.8-12.2,5.4c-4.9,1.8-10,3-15.2,3.7c-2.5,0.3-5,0.9-7.5,1.4c-1.3,0.2-2.8,0.6-4.2,0.5l0,0
		c-0.5,0.3-1,0.6-1.3,0.9c-0.8,0.8-1.7,1.9-2,2.8c-0.1,0.3-0.2,0.6-0.3,1c0,0.1,0,0.3-0.1,0.4l0,0c0,0,0,0.1,0,0.2
		c0,0.1,0,0.9,0,0.6c0,0.1,0,0.3,0.1,0.5c0-0.1,0.1,0.1,0.1,0.1c0.1,0.1,0.1,0.1,0.1,0.1c0,0,0.1,0,0.4,0.3c0.5,0.4,0.9,0.7,1.2,1.2
		c1.1,0.5,2.2,0.9,3.3,1.3c3.4,1.3,6.9,2.6,10.2,4.1c3.5,1.6,7,3.3,9.9,5.8c1.3,1.2,2.6,2.4,3.7,3.9c0.1,0.1,0.2,0.2,0.3,0.3
		c0.1-1.5,0.2-3.1,0.2-4.6c0-4.2-0.6-8.4-1.8-12.4c-0.2-0.6,0.7-0.8,0.9-0.2c1.5,4.2,2.5,8.6,2.6,13c0.1,2.2,0,4.3-0.4,6.5
		c1.1,1.1,2,2.3,2.8,3.4c2.3,3.3,4.1,6.9,5.6,10.6c2.2,5.4,4.1,10.9,6.3,16.3c0.5,1.2,0.9,2.3,1.4,3.4c0.4,1,0.8,1.9,1.2,2.9
		c0.2,0,0.4-0.1,0.6-0.2c2.7-1.8,3.7-4.8,4.6-7.7c1.1-3,2-6.1,3-9.1c2.1-6.2,3.9-12.6,5.5-18.9c3.1-12.4,5.2-25,6.6-37.7
		c0.6-5.7,1.1-11.5,1.3-17.3c0.1-3,0.2-6,0.3-9C340.8,166.6,340.8,165.2,340.8,163.7L340.8,163.7z"/>
	<path class="st1" d="M329.2,145.1c-0.1,6-0.8,11.9-1.7,17.8c0,0.3-0.1,0.6-0.1,0.9c-0.1,1.1-0.3,2.2-0.5,3.2
		c-0.2,1.6-0.5,3.2-0.8,4.7c-0.3,1.7-0.6,3.3-1,5c0.1,3.4,0,6.8-0.3,10.2c-0.3,3.3-0.7,6.5-1.4,9.6c2.6-5,4.7-10.2,6.3-15.7
		c0.4-1.4,0.7-2.7,1.1-4.1c1-3.7,1.7-7.5,2.3-11.3c0.2-1.7,0.5-3.5,0.7-5.3c0.2-1.6,0.4-3.3,0.6-4.9c-0.5-4.5-1.2-9.1-2.1-13.6
		c-0.2-1.1-0.4-2.2-0.7-3.3c-1.1-4.7-2.3-9.4-3.8-14.1c-0.3-1.1-0.7-2.1-1-3.2c2,7.1,2.6,14.6,2.6,22
		C329.2,143.6,329.2,144.4,329.2,145.1L329.2,145.1z"/>
	<path class="st1" d="M315,130.9c4.9,11.7,8.2,24,9.5,36.6c0,0.4,0.1,0.9,0.1,1.3c0.4-2.5,0.9-5,1.2-7.5c0.9-6,1.4-12,1.6-18.1
		c0-3,0-6.1-0.2-9.1c-0.4-6.2-1.5-12.3-3.4-18.1c-0.9-2.6-1.9-5.2-3.1-7.7c-0.2-0.5,0.4-0.9,0.7-0.4c0.2,0.4,0.5,0.9,0.8,1.4l0,0
		c0.2,0.3,0.3,0.7,0.5,1c0,0,0,0,0,0c-0.3-1-0.5-1.9-1.2-2.6c0,0,0,0,0,0c-0.1-0.2-0.2-0.5-0.3-0.7c-0.3-0.7-1.4-0.2-1.2,0.5
		c0.1,0.4,0.2,0.7,0.3,1.1c-0.1,0.6,0,1.2,0.1,1.9c0.1,1,0.3,1.9,0.4,2.9c0.3,2.1,0.6,4.1,0.8,6.2c0.2,3.5,0.1,7-0.6,10.4
		c-4.6-3.8-8.9-8.3-12.1-13.3c1.1,2.8,2.3,5.6,3.6,8.4C313.3,126.9,314.1,128.9,315,130.9L315,130.9z"/>
	<path class="st1" d="M284.5,104.7c0.5-0.2,1-0.4,1.5-0.7c-1.2,0.4-2.5,0.6-3.8,0.7c-2.9,0.3-5.7,0.7-8.6,1.1
		c-5.7,0.9-11.4,1.6-17.2,2.4c-11.6,1.6-23.3,3.5-34.2,7.9c-2.3,0.9-4.5,1.9-6.7,3.1c0.7-2.4,1.7-4.7,2.9-6.9
		c2.1-3.9,4.7-7.5,7.5-10.9c2.8-3.4,5.8-6.7,8.9-9.8c1.4-1.5,2.9-2.9,4.4-4.3c1-1.1,1.9-2.1,2.9-3.1c0.1,0,0.3-0.1,0.4-0.2
		c0.4-0.1,0.5-0.5,0.6-0.8c0.4-0.4,0.2-0.9-0.1-1.3c-0.1,0-0.3,0.1-0.4,0.2c-0.9,0.3-1.7,0.7-2.6,1.1c-5.8,2.5-11.4,5.7-16.4,9.6
		c-4.9,3.7-9.3,7.9-13.2,12.6c-6.2,7.6-11.1,16.4-14.8,25.5c-2.1,5.1-3.9,10.3-5.3,15.6c-0.8,2.9-1.3,5.8-1.8,8.8
		c3.5-8.9,9.9-16.4,17.7-22.1c3.9-2.9,8.1-5.2,12.4-7.3c0.6-0.6,1.3-0.9,2.1-1c13.1-5.7,27.6-8.7,41.1-12.6c3.2-0.9,6.3-1.8,9.4-2.7
		C275.9,108.1,280.3,106.7,284.5,104.7L284.5,104.7z"/>
	<path class="st1" d="M241,206.8c-0.3-0.2-0.6-0.4-0.9-0.6l0,0c-1.7,0-3.4-0.5-4.9-0.8c-2.5-0.5-5.1-1.1-7.6-1.7
		c-4.7-1.1-9.4-2.3-14-3.8c-4.5-1.5-9-3.3-13.1-5.7c-2-1.1-4.1-2.4-5.9-4c-1.3-1.1-2.4-2.2-3.6-3.5c0.2,1.2,0.5,2.4,0.7,3.5
		c0.7,2.9,1.4,5.7,2.2,8.6c0.8,2.9,1.5,5.7,1.7,8.7c0,0.3-0.1,0.5-0.2,0.7c0.4,0.7-0.6,1.4-1.2,0.9c-0.1-0.1-0.3-0.3-0.4-0.5
		c-0.2-0.1-0.4-0.2-0.6-0.5c0-0.1-0.1-0.1-0.1-0.2c-3.2-3.6-5-8.3-6.4-12.8c-1.7-5.3-3.3-10.7-4.7-16.1c-0.5-2.1-1.1-4.1-1.5-6.1
		c-0.5-2.4-1.1-4.8-1.5-7.2c-0.4,1.6-0.7,3.3-0.9,4.9c-0.5,2.9-0.8,5.9-1.1,8.8c-0.5,6-0.5,12.2-0.1,18.2
		c0.7,12.3,2.9,24.5,6.1,36.4c1.8,6.6,4,13.3,6.5,19.7c1.3,3.3,2.7,6.7,4.5,9.8c1.6,2.9,3.4,5.8,5.5,8.5c0.6-1.3,1.1-2.6,1.7-4
		c1-2.2,1.9-4.5,2.9-6.8c-0.2-0.9-0.4-1.7-0.7-2.6c-0.6-2.2-1.1-4.3-1.5-6.5c-0.9-4.4-1.5-8.9-1.9-13.4c-0.7-8.8-0.1-17.7,2.7-26.1
		c0.2-0.6,1.1-0.3,0.9,0.3c-2.3,8.3-2.5,17.3-1.9,25.8c0.4,4.5,1,8.9,1.9,13.3c0.4,2.2,1,4.3,1.5,6.4v0c1.3-3.1,2.6-6.2,3.9-9.2
		c0.1-0.3,0.2-0.7,0.4-1c0.2-2.1,1.1-4.1,2-5.9c0.9-2,1.9-4,3.1-5.8c2.5-4,5.8-7.1,9.6-9.9c3.9-2.8,8-5.1,12.3-7.3
		c1.5-0.8,3.1-1.5,4.5-2.5c0.8-0.5,1.2-1.3,1.6-2.2c0.1-0.8,0.4-1.5,0.5-2.2c0.1-1.1,0.1-2.2-0.2-3.2
		C242.3,208.4,241.8,207.5,241,206.8L241,206.8z"/>
	<path class="st1" d="M181.3,158c0.1,0.8,0.2,1.5,0.3,2.3c0.2,1.4,0.5,2.9,0.7,4.4c0.8,4.2,1.6,8.3,2.6,12.4
		c0.3,1.1,0.6,2.3,0.9,3.5c-0.6-5.5-0.6-11.1,0.3-16.5c0-0.1,0-0.2,0-0.3c0-0.9,0-1.8,0-2.7c0.1-3.6,0.8-7.3,1.5-10.8
		c0.9-4.4,2.2-8.8,3.7-13.1c2.5-7.3,5.6-14.4,9.5-21.1c2.1-3.6,4.5-7.1,7.1-10.4l0,0c3.4-4.3,7.1-8.2,11.2-11.6
		c6.4-5.3,13.6-9.2,21.4-12.1c-2.8,0.4-5.4,1.5-7.9,2.6c-2.8,1.2-5.6,2.6-8.3,4.1c-4.7,2.7-9.1,6.1-13.2,9.7
		c-8.5,7.6-15.9,17-20.2,27.6c-0.8,2-1.5,4-2,6c-0.3-1-0.6-2-0.8-3c-0.7-2.8-1.2-5.6-1.5-8.4c-0.3-2.9-0.5-5.7-0.6-8.6
		c-0.1-2.5,0-5.2-0.5-7.7c-0.1,1-0.2,2-0.4,3c-0.3,1.6-0.7,3.2-1.1,4.7c-0.2,0.7-0.3,1.5-0.6,2.2c-0.6,2.3-1.2,4.5-1.7,6.8
		c-1,4.2-1.7,8.5-2.1,12.8c0,0.8-0.1,1.5-0.1,2.2c0,0.6,0,1.2,0,1.8c0,0.4,0,0.9,0,1.4c0,0.6,0,1.1,0,1.7
		C179.7,146.6,180.4,152.4,181.3,158L181.3,158z"/>
</g>
<path class="st9" d="M342,136.5c-0.6-0.9-1.7-1.7-3-2.1c0.1,1.9,0.1,3.8,0.1,5.7c0.8,0.7,1.4,1.5,2,2.5c1.9,1.7,1.8,4.9,1.2,7.2
	c-0.4,1.4-1,2.8-1.8,4c-0.6,1-1.6,2.4-2.7,2.7c0,0.3,0,0.6-0.1,0.9c1.1-1,2.2-2,3-3.3c1-1.5,1.5-2.6,2-4.2c0.5-1.6,0.9-3.4,1-4.8
	C344.1,142.1,343.9,138.9,342,136.5L342,136.5z"/>
<path class="st9" d="M340.8,315.6c-0.1-0.3-0.2-0.7-0.4-1.1c-1-1.5-1.9-3.1-2.9-4.6c-1.2-2.1-2.5-4.2-3.9-6.3
	c-2.6-4.1-5.3-8.2-7.7-12.4c-2.9-5.1-5.6-10.3-8-15.6c-0.6-1.3-1.2-2.6-1.8-3.9c-2.4-5.5-4.6-11.1-6.7-16.7
	c-1.8-4.8-3.4-9.8-5.8-14.3c-0.7-1.3-1.4-2.6-2.3-3.9c-0.8,6.2-1.3,12.4-1.2,18.7c0.1,3.5,0.3,6.9,0.6,10.4c0.2,1.8,0.4,3.5,0.5,5.3
	c0.1,1.7,0.5,3.4,0.2,5.1c0,0.1-0.1,0.2-0.2,0.3c0.4,2.2,0.9,4.3,1.3,6.5c0.1,0.5,0.2,1.1,0.3,1.5c0.3-0.1,0.6,0,0.8,0.3
	c1.1,1,1.7,2.3,2.3,3.5c0.7,1.2,1.3,2.3,2,3.5c1.3,2.3,2.9,4.5,4.6,6.6c5.1,6.3,10,13.2,16.6,18.1c0.9,0.6,1.8,1.2,2.7,1.8
	c0.7,0.4,1.7,0.9,2.2,1.1c0.8,0.3,1.6,0.6,2.4,0.7c0,0,0.3,0,0.4,0c0.2,0,0.4,0.1,0.6,0.1c0.4,0,0.8,0,1.1-0.1
	c0.7-0.1,1.9-0.5,2.3-1c0.1,0,0.1-0.1,0.1-0.1l0,0c0,0,0.1,0,0.1,0c0-0.1,0.2-0.5,0.2-0.3c0.1-0.4,0.1-0.3,0.1-0.7
	C341.5,317.4,341.1,316.6,340.8,315.6L340.8,315.6z"/>
<path class="st9" d="M281.6,146c-1.9,0.8-3.9,0.7-5.5-0.6c-1.2-1-2-2.8-2.2-4.3c-0.2-1.8-0.3-3.8,0.4-5.5c0.6-1.4,1.6-3.3,3.3-3.3
	c0.3-0.2,0.7-0.3,1.1-0.4c2.2-0.5,4.9,0.6,5.9,2.7C286.4,138.1,285.7,144.3,281.6,146L281.6,146z M233.9,147.2
	c-3.4,2.4-7.8-0.2-8.3-4c-0.3-2-0.2-4.1,0.5-6c0.6-1.6,1.6-3.4,3.5-3.6c0.1,0,0.1,0,0.1,0c0.5-0.3,1-0.5,1.5-0.7
	c3.7-0.9,5.5,2.7,5.7,5.7C237.3,141.7,236.5,145.3,233.9,147.2L233.9,147.2z M249.4,156.9c0.8-0.9,1.7-1.7,2.7-2.2
	c1-0.5,2.3-1.3,3.4-0.5c0.2,0.1,0.2,0.3,0.2,0.5c0.7,0,1.4,0.1,2.1,0.3c2.2,0.7,3.8,3,2.9,5.3c-1.6,4.2-8.9,6.4-12.2,3
	c0,0.1,0,0.3-0.1,0.5c-0.1,0.5-0.8,0.3-0.9-0.1C247.2,161.3,248,158.7,249.4,156.9L249.4,156.9z M306.7,183.8
	c1.8-1.3,3.4-2.9,4.8-4.6c0.1-0.1,0.1-0.1,0.1-0.1c2.8-6.9,3.8-14.6,3.8-22c0-4.8-0.5-9.6-1.6-14.4c-0.9-4.3-2.2-8.8-4.3-12.6
	c-0.2-0.4,0-0.8,0.3-0.9c0-0.1-0.1-0.3-0.2-0.5c-1.6-3.7-3.1-7.5-4.4-11.3c-0.8-0.7-1.4-1.6-2.2-2.3c-1.1-1-2.2-1.8-3.4-2.5
	c-2.5-1.3-5.4-2-8.2-2.2c-3.1-0.2-6.1,0-9.1,0.5c-2.8,0.5-5.8,1.1-8.5,2.2c-0.1,0-0.3,0-0.4,0c-6.1,2-12.4,3.7-18.7,5.4
	c-8.3,2.2-17.1,4.4-25.5,7.4c0.4,0.1-3.1,2.6-6.2,2.4c-3.5,1.5-7,3.3-10.2,5.3c-0.2,0.1-0.3,0.3-0.5,0.4c-1.2,1-2.3,2-3.4,3.1
	c-2.3,2.4-4.4,5.2-6.3,8.1c-2.5,4.1-4.5,8.4-5.8,13c-1.2,4.1-2,8.4-1.5,12.6c0.4,4.1,2.4,8.1,5.2,11.1c2.8,3.1,6.3,5.2,10.2,6.6
	c8.2,2.9,17,3.3,25.3,5.9c4.2,1.4,8.3,3.4,10.6,7.3c1.1,1.7,1.7,3.6,2.1,5.6c0.3,2.3,0.6,4.8-0.2,7.1c-0.3,1-1.6,1.3-2.3,0.6
	c-0.3,0.9-0.8,1.7-1.5,2.3c-1.1,1.9-3.1,3.4-4.8,4.4c-0.5,0.2-0.9,0.5-1.4,0.8c0.2,0.4,0.4,0.9,0.7,1.3c0.6,1,1.1,2,1.8,3
	c0.2,0.2,0.4,0.5,0.5,0.8c1.2,1.5,2.4,3,4,4.2c2.9,2.5,6.6,4.2,10.5,4.3c9.7,0.1,16.6-8.7,19.8-17c-1-0.4-2.1-0.9-3.1-1.3
	c-1.1-0.5-2.1-1.1-3-1.8c-0.2,0-0.4,0-0.6-0.1c-3.6-1.3-4.2-6.1-3.4-9.3c0.5-2.3,1.8-4.7,3.7-6.2c2-1.6,4.1-2.4,6.6-3
	c2.4-0.5,4.9-0.8,7.3-1.5c2.9-0.8,5.7-2.2,8.5-3.5c3-1.5,5.8-3.1,8.7-4.7C302.5,186.5,304.7,185.3,306.7,183.8L306.7,183.8z"/>
<path class="st9" d="M287.1,433.1c0.1-2.4,0.2-4.9,0.6-7.3c-2.5,1.5-5.8,2.1-8.4,2.2c-3.2,0.2-6.6,0-9.7-0.9
	c0.1,2.1,0.3,4.3,0.5,6.4c0.2,2.6,0.5,5.3,1.1,7.8c0,0,0,0.1,0.1,0.1c0.8,0.7,1.6,1.2,2.5,1.6c1.5,0.8,3.2,1.2,4.8,1.2
	c1.7,0.1,3.4-0.1,5.1-0.4c0.9-0.2,1.8-0.3,2.7-0.6c0.5-0.1,0.9-0.1,1.3-0.2c0-0.1,0-0.3,0-0.5C287.3,439.5,287.1,436.3,287.1,433.1
	L287.1,433.1z"/>
<path class="st9" d="M244,428.4c-2.3-0.3-4.8-0.9-6.9-2.1c0.5,2.3,0.8,4.6,0.9,7c0.3,3.5,0.2,7.1,0,10.7c2.5,0.8,5.3,0.9,7.7,0.1
	c1.3-0.4,2.5-1.1,3.6-1.9c0.7-0.5,1.3-1.4,2-1.9c0.1-0.2,0.1-0.5,0.1-0.7c0.4-2.3,0.7-4.6,0.8-6.9c0.1-1.6,0.2-3.2,0.2-4.7
	c-1,0.5-2.2,0.6-3.3,0.6C247.5,428.6,245.7,428.7,244,428.4L244,428.4z"/>
<path class="st9" d="M214.2,244.9c-0.6,2-1.4,3.9-2.2,5.7c-1.2,3.1-2.5,6.2-3.8,9.3c-0.6,1.5-1.2,2.9-1.8,4.4c0,0.2-0.1,0.5-0.3,0.7
	c-1.3,3.1-2.6,6.2-3.9,9.2c-0.5,1.1-1,2.2-1.4,3.3c-0.2,0.5-0.4,1-0.7,1.5c-2.7,6.2-5.1,12.6-8.2,18.6c-2.7,5.4-5.8,10.6-8.6,16
	c-1.4,2.8-2.7,5.6-3.7,8.6c-0.7,2.2-1.6,4.6-1.4,7c0,0,0.1,0.4,0.1,0.5c0,0.1,0.2,0.4,0.1,0.3c0,0,0,0.1,0.1,0.2c0,0,0,0.1,0.1,0.1
	c0,0,0,0,0,0c0.1,0,0.1,0,0.2,0.1c0,0,0.2,0,0.3,0c0.5,0,1.2-0.1,2-0.5c0.7-0.2,1.7-0.8,2.4-1.3c4.8-3,9-7.2,12.5-11.7
	c1.8-2.3,3.4-4.8,4.9-7.4c1.3-2.3,2.3-4.7,3.6-7c1.1-6.3,2.4-12.5,4-18.7c1.1-4.1,2.2-8.3,3.5-12.3c0,0,0-0.1,0-0.1
	c-0.4-1.3-0.1-2.9,0.1-4.2c0.2-1.4,0.5-2.9,0.8-4.4c0.5-2.7,1-5.5,1.5-8.2c0.5-2.9,1-5.7,1.4-8.6c0.2-1.5,0.4-3,0.6-4.5
	c0-0.5,0.1-1,0.2-1.4c-0.8,1.4-1.6,2.8-2.3,4.3C214.4,244.5,214.3,244.7,214.2,244.9L214.2,244.9z"/>
<path class="st9" d="M175,156.3c-1.2-0.9-2.2-1.9-3-3c-0.6-0.9-1.7-2.6-1.9-4.1c-0.2,0-0.4-0.2-0.4-0.4c-0.2-1.6-0.4-3.3,0.2-4.9
	c0.6-1.4,1.4-2.7,2.6-3.7c0.9-0.7,1.9-1.3,3-1.8c0-1.3,0-2.7,0.1-4.1c-0.1,0-0.3,0-0.4-0.1c-2.3-0.4-4.7,1.1-6.3,2.7
	c-2.6,2.7-3.2,6.3-2.2,9.8c1.1,3.9,3.5,7.2,6.6,9.8c1.3,1.1,2.8,2,4.4,2.7c-0.1-0.6-0.2-1.2-0.3-1.8
	C176.6,157.3,175.7,156.8,175,156.3L175,156.3z"/>
<path class="st10" d="M341.1,142.5c0.1,0.3,0.3,0.6,0.5,1c0.2,0.7-0.8,1.1-1.2,0.5c-0.1-0.3-0.3-0.5-0.5-0.8
	c-0.3-0.3-0.5-0.6-0.9-0.9c-0.1,2.9-0.3,5.8-0.6,8.7c0,0.4,0,0.8-0.1,1.2c-0.1,1.4-0.3,2.9-0.5,4.3c1.1-0.3,2.1-1.8,2.7-2.7
	c0.8-1.2,1.4-2.6,1.8-4C342.9,147.4,343,144.2,341.1,142.5L341.1,142.5z"/>
<path class="st10" d="M319.1,159.3c-1.9-10.3-5.1-20.4-9.1-30.1c-0.3,0.1-0.5,0.5-0.3,0.9c2.1,3.8,3.3,8.3,4.3,12.6
	c1.1,4.7,1.6,9.5,1.6,14.4c0,7.4-1,15.1-3.8,22c0,0-0.1,0.1-0.1,0.1c-1.4,1.7-3,3.3-4.8,4.6c-2,1.5-4.2,2.7-6.4,3.9
	c-2.9,1.6-5.7,3.2-8.7,4.7c-2.7,1.3-5.6,2.7-8.5,3.5c-2.4,0.7-4.9,1-7.3,1.5c-2.4,0.6-4.6,1.4-6.6,3c-1.9,1.5-3.2,3.9-3.7,6.2
	c-0.8,3.3-0.2,8,3.4,9.3c0.2,0.1,0.4,0.1,0.6,0.1c-0.1-0.1-0.1-0.1-0.2-0.2c-0.9-0.4-1.8-1.2-2.2-2.2c-0.8-1.6-0.7-3.6-0.1-5.3
	c0.7-1.7,1.7-3.4,3.1-4.6c0.3-0.3,0.6-0.5,0.9-0.7c0.1-0.1,0.2-0.1,0.3-0.2c0.1,0,0.1-0.1,0.2-0.1c0.3-0.2,0.7-0.4,1.1-0.5
	c0.2-0.1,0.5-0.1,0.8-0.2c0.3-0.1,0.6,0,0.8,0c0.1,0,0.2,0.1,0.3,0.1h0c0,0,0.1,0,0.2,0c1.2-0.1,2.5-0.4,3.7-0.6
	c2.4-0.5,4.8-0.9,7.2-1.2c0.2,0,0.5-0.1,0.7-0.1c4.7-0.7,9.3-1.8,13.7-3.4c0.9-0.3,1.7-0.6,2.6-1c3.2-1.2,6.3-2.5,9.3-3.9
	c2.9-1.3,5.6-2.7,8.3-4.4c0.1-0.9,0.1-1.7,0.2-2.6c0.4-6.7,0.1-13.5-0.8-20.2C319.7,163,319.4,161.2,319.1,159.3L319.1,159.3z"/>
<path class="st10" d="M273.8,113.1c2.7-1.1,5.7-1.6,8.5-2.2c3-0.6,6.1-0.7,9.1-0.5c2.8,0.2,5.7,0.9,8.2,2.2c1.2,0.7,2.4,1.5,3.4,2.5
	c0.8,0.7,1.4,1.6,2.2,2.3c-0.7-2.1-1.4-4.1-1.9-6.2c-0.1-0.2-0.1-0.4-0.2-0.6c-0.8-3.1-1.4-6.2-1.7-9.3c-0.1-1.5-0.2-3-0.2-4.5
	c-0.4,0.6-0.8,1.1-1.2,1.6c-3.3,3.9-7.5,6.7-12.1,9c-3.3,1.6-6.6,3-9.9,4.2c-1.6,0.6-3.1,1.1-4.7,1.6
	C273.5,113.2,273.7,113.2,273.8,113.1L273.8,113.1z"/>
<path class="st10" d="M300.8,265.9c-0.3-3.4-0.5-6.9-0.6-10.4c-0.2-6.2,0.4-12.5,1.2-18.7c-0.2-0.4-0.5-0.7-0.7-1.1
	c-0.2-0.3-0.4-0.5-0.6-0.8c-0.1-0.2-0.3-0.4-0.4-0.6c-0.2-0.1-0.4-0.2-0.5-0.4c-0.3-0.1-0.5-0.4-0.8-0.6c-0.7-0.7-1.3-1.4-2-2.1
	c-0.7-0.8-1.5-1.6-2.2-2.4c-0.4,0.5-0.7,1-1,1.5c-0.5,1-0.8,1.9-1.1,3c-0.5,2-0.5,4.1-0.1,6.1c0.3,2.1,1,4.1,1.9,6
	c0.5,1,1,1.9,1.5,2.8c0.4,0.8,1,1.5,1,2.4v0c0.3,1.1,0.7,2.1,0.8,3.2c0,0.2,0.1,0.4,0.1,0.7c0.2,1.2,0.4,2.3,0.6,3.5
	c0.5,2.7,1,5.4,1.4,8.1c0.6,3.5,1.3,7,2,10.5c0.1-0.1,0.1-0.2,0.2-0.3c0.3-1.7,0-3.4-0.2-5.1C301.2,269.4,301,267.7,300.8,265.9
	L300.8,265.9z"/>
<path class="st10" d="M268.6,419.5c0.1,0.4,0.1,0.8,0.2,1.2c0.2,1.3,0.4,2.6,0.6,4c0,0.1,0,0.2,0,0.3c0.1,0.7,0.1,1.5,0.2,2.2
	c3.1,0.9,6.6,1.1,9.7,0.9c2.6-0.2,5.8-0.8,8.4-2.2c0-0.8,0.2-1.5,0.3-2.3c0.1-0.8,0.2-1.6,0.4-2.3c0.3-1.7,0.8-3.3,1.3-5
	c-2.4,0.6-4.9,1.1-7.5,1.6C277.7,418.6,273.1,419.2,268.6,419.5L268.6,419.5z"/>
<path class="st10" d="M257.7,154.9c-0.7-0.2-1.4-0.3-2.1-0.3c0,0.1,0,0.2-0.1,0.3c-0.4,1-1.9,1.1-2.7,1.5c-0.7,0.4-1.3,0.8-1.9,1.3
	c-0.1,0.1-0.2,0.2-0.3,0.3c-0.9,1-1.3,2.1-1.7,3.2c-0.2,0.6-0.3,1.3-0.5,2c3.3,3.4,10.6,1.1,12.2-3
	C261.5,157.9,259.9,155.6,257.7,154.9L257.7,154.9z"/>
<path class="st10" d="M242.4,418.5c-1.2-0.1-2.3-0.3-3.5-0.5c-1.7-0.3-3.4-0.6-5.1-0.9c1.3,1.9,2.1,4.3,2.6,6.4v0
	c0.2,0.9,0.5,1.9,0.7,2.8c2.1,1.3,4.5,1.9,6.9,2.1c1.7,0.2,3.5,0.2,5.2,0.1c1.1-0.1,2.3-0.1,3.3-0.6c0-0.8,0-1.6,0-2.4
	c0-0.1,0-0.2,0-0.2c0-1.1,0-2.2,0-3.3c0-0.7,0.1-1.5,0.4-2.2c-2.9-0.2-5.7-0.5-8.6-0.9C243.8,418.7,243.1,418.6,242.4,418.5
	L242.4,418.5z"/>
<path class="st10" d="M239.9,202.5c1.3,0.1,2.5,0.4,3.5,1.2c0.2,0.2,0.3,0.4,0.3,0.7c0.2,0.2,0.5,0.4,0.7,0.6
	c0.8,0.8,1.4,1.8,1.8,2.9c0.5,1.5,0.6,3.1,0.4,4.6c-0.1,0.8-0.2,1.7-0.5,2.5c0.6,0.7,1.9,0.3,2.3-0.6c0.8-2.3,0.5-4.8,0.2-7.1
	c-0.3-2-1-3.9-2.1-5.6c-2.3-3.9-6.5-5.9-10.6-7.3c-8.2-2.7-17.1-3.1-25.3-5.9c-3.9-1.4-7.4-3.5-10.2-6.6c-2.8-3-4.8-7-5.2-11.1
	c-0.4-4.3,0.3-8.6,1.5-12.6c1.3-4.6,3.3-8.9,5.8-13c1.8-3,3.9-5.6,6.3-8.1c1.1-1.1,2.2-2.2,3.4-3.1c0.2-0.1,0.3-0.3,0.5-0.4
	c-4.2,2.6-8.1,5.6-11.5,9.3c0,0,0,0-0.1,0.1c-3.6,3.9-6.7,8.4-8.6,13.4c-2.1,5.3-3,11-2.9,16.7c0,4,0.4,7.9,1.1,11.9
	c1.7,1.4,3.6,2.6,5.4,3.8c1.9,1.2,3.9,2.4,5.9,3.4c4.1,2.1,8.5,3.7,13,5c4.5,1.3,9.2,2.2,13.8,3.1c2.4,0.5,4.8,1.1,7.3,1.5
	C237.4,202.2,238.6,202.4,239.9,202.5L239.9,202.5z"/>
<path class="st10" d="M223.1,232.5c-1.7,1.5-3.3,3.2-4.6,5c-0.2,0.3-0.5,0.7-0.7,1.1c-0.3,0.5-0.6,1-0.9,1.5c-0.1,0.5-0.1,1-0.2,1.4
	c-0.1,1.5-0.3,3-0.6,4.5c-0.4,2.9-0.9,5.7-1.4,8.6c-0.5,2.8-1.1,5.5-1.6,8.2c-0.2,1.5-0.5,2.9-0.7,4.4c-0.2,1.3-0.5,2.8-0.1,4.2
	c0,0.1,0,0.1,0,0.1c0.7-2.1,1.4-4.2,2.2-6.2c0.5-1.5,1.1-3,1.7-4.4c0.6-1.5,1.2-3,1.9-4.5c0.7-1.5,1.4-3.1,2.2-4.6
	c0.4-0.8,0.9-1.6,1.3-2.4c0.1-0.4,0.2-0.8,0.3-1.2c0.3-1,0.5-1.9,0.6-2.9c0.4-1.9,0.7-3.8,0.7-5.8c0.1-2,0.1-4,0-6
	C223.2,233.2,223.1,232.9,223.1,232.5L223.1,232.5z"/>
<path class="st10" d="M175.6,141.5c-0.4,0.1-0.9,0.4-1.2,0.7c-1.7,1.1-2.9,2.9-3.3,4.9c-0.1,0.5-0.2,1-0.2,1.6
	c0,0.4-0.4,0.6-0.8,0.6c0.2,1.5,1.3,3.2,1.9,4.1c0.8,1.1,1.8,2.2,3,3c0.7,0.5,1.6,1.1,2.4,1.1c-0.1-1-0.3-2-0.4-3
	C176.4,150.1,175.8,145.8,175.6,141.5L175.6,141.5z"/>
<path class="st11" d="M275.6,125.2c5.4-4.9,11.1-5.2,16.3,2.4c1.2,1.8,4-0.3,3-2.3c-2.5-5.1-8.5-8.5-14.2-6.7
	C272.1,121.4,270,130.3,275.6,125.2L275.6,125.2z"/>
<path class="st11" d="M282.1,134.8c0.3,0.2,0.6,0.4,0.8,0.7c0.1,0.2,0.3,0.8,0.3,1.1c0,0.1,0,0.1,0,0.2c0,0.1,0,0.3-0.1,0.4
	c-0.1,0.3-0.3,0.6-0.5,0.9c-0.1,0-0.2,0.1-0.3,0.2c-0.1,0-0.1,0.1-0.1,0.1c-0.2,0.2-0.5,0.2-0.9,0.3c0,0-0.1,0-0.1,0
	c-0.4,0-0.7-0.1-1-0.3c-0.3-0.2-0.6-0.4-0.7-0.7c-0.1-0.2-0.2-0.2-0.2-0.6c0,0,0-0.1,0-0.1c0,0,0-0.1,0-0.1c0-0.1,0-0.2,0-0.3
	c0,0,0,0,0,0v0v0l0,0c0,0,0,0,0,0c0,0,0,0,0,0c0-0.3,0.1-0.5,0.3-0.8c0.2-0.3,0.4-0.6,0.7-0.8c0.3-0.2,0.7-0.3,1.1-0.3
	c0,0,0.1,0,0.1,0C281.6,134.5,281.9,134.6,282.1,134.8L282.1,134.8z M278.7,131.8c-0.4,0.1-0.8,0.2-1.1,0.4c-1.7,0-2.7,2-3.3,3.3
	c-0.7,1.7-0.7,3.7-0.4,5.5c0.2,1.5,1,3.3,2.2,4.3c1.6,1.3,3.6,1.4,5.5,0.6c4.1-1.7,4.8-7.8,3.1-11.5
	C283.6,132.4,280.9,131.3,278.7,131.8L278.7,131.8z"/>
<path class="st11" d="M248.3,163.7c0-0.1,0-0.3,0.1-0.5c0.2-0.7,0.3-1.3,0.5-2c0.3-1.1,0.8-2.2,1.7-3.2c0.1-0.1,0.2-0.2,0.3-0.3
	c0.6-0.5,1.2-1,1.9-1.3c0.9-0.4,2.3-0.5,2.7-1.5c0,0,0.1-0.1,0.1-0.3c0-0.1,0-0.3-0.2-0.5c-1-0.8-2.3,0-3.4,0.5
	c-1,0.5-1.9,1.3-2.7,2.2c-1.4,1.8-2.2,4.4-2,6.7C247.5,164,248.2,164.2,248.3,163.7L248.3,163.7z"/>
<path class="st11" d="M233.1,135.2c1.1,0,2.1,1,2.1,2.1c0,0.2-0.1,0.5-0.1,0.7c-0.3,0.8-1.1,1.3-2,1.3c-0.1,0-0.2,0-0.3,0
	c-0.4-0.1-0.7-0.2-1-0.4c-0.5-0.4-0.8-1-0.8-1.6c0-0.6,0.3-1.2,0.7-1.6C232.1,135.4,232.6,135.2,233.1,135.2L233.1,135.2z
	 M231.2,132.9c-0.6,0.1-1,0.4-1.5,0.7c0,0,0,0-0.1,0c-1.9,0.2-2.9,2-3.5,3.6c-0.7,1.9-0.8,4-0.5,6c0.5,3.8,4.9,6.4,8.3,4
	c2.6-1.9,3.4-5.5,3.1-8.6C236.7,135.6,234.9,132,231.2,132.9L231.2,132.9z"/>
<path class="st6" d="M269.7,177.2c-0.3,1-1,1.8-1.6,2.6c-1,1.2-2.3,2.3-3.7,3.2c-2.6,1.6-5.9,2.4-9.3,2.3c-3.1,0-6.4-1-9-2.9
	c-1.4-1-2.4-2.2-3.2-3.5c-0.5-0.8-0.9-1.5-1.2-2.3c-0.1-0.3-0.2-0.7-0.4-1c1.5,0.9,3.4,1.3,5.1,1.7c2.8,0.6,5.7,0.9,8.5,0.9
	c2.9,0.1,5.7-0.1,8.4-0.6c2.3-0.4,4.5-1.1,6.6-1.8C270,176.2,269.9,176.7,269.7,177.2L269.7,177.2z M270.4,174.2
	c-0.1,0-0.3-0.1-0.5,0c-2.2,0.6-4.7,0.9-7,1.2c-2.5,0.3-5.1,0.5-7.8,0.4c-2.5,0-5.2-0.2-7.7-0.8c-2.3-0.5-4.7-1.7-7-1.8
	c-0.4,0-0.7,0.2-0.8,0.5c-0.1,0-0.1,0.1-0.2,0.2c-0.8,1.4,0,3.9,0.9,5.5c0.9,1.7,2.2,3.2,3.8,4.5c3,2.5,7.2,3.7,11.1,3.9
	c4.2,0.2,8.2-0.8,11.3-2.7c1.8-1.1,3.2-2.4,4.5-4c1.3-1.6,2.7-4.5,1.8-6.6C272.3,173.7,270.9,173.5,270.4,174.2L270.4,174.2z"/>
<path class="st7" d="M255,178.2c-2.8-0.1-5.7-0.3-8.5-1c-1.6-0.4-3.5-0.8-5.1-1.7c0.1,0.3,0.2,0.7,0.4,1c0.3,0.8,0.7,1.6,1.2,2.3
	c0.8,1.3,1.9,2.6,3.3,3.6c2.5,1.9,5.8,2.8,8.9,2.9c3.4,0.1,6.7-0.8,9.3-2.3c1.4-0.9,2.7-2,3.6-3.2c0.7-0.8,1.3-1.6,1.7-2.6
	c0.1-0.5,0.2-1,0.3-1.4c-2.2,0.8-4.3,1.4-6.6,1.8C260.7,178,257.8,178.2,255,178.2L255,178.2z"/>
<path class="st11" d="M269.7,177.2c-0.3,1-1,1.8-1.7,2.6c-1,1.2-2.2,2.3-3.6,3.2c-2.6,1.6-5.9,2.4-9.3,2.3c-3.1,0-6.4-1-9-2.9
	c-1.3-1-2.4-2.2-3.2-3.6c-0.5-0.7-0.9-1.5-1.2-2.3c-0.1-0.3-0.2-0.7-0.4-1c1.5,0.9,3.4,1.3,5.1,1.7c2.8,0.6,5.7,0.9,8.5,1
	c2.9,0,5.7-0.2,8.5-0.6c2.3-0.4,4.5-1.1,6.6-1.8C270,176.2,269.9,176.7,269.7,177.2L269.7,177.2z M270.4,174.2c-0.1,0-0.3-0.1-0.5,0
	c-2.2,0.6-4.7,0.9-7,1.2c-2.5,0.3-5.1,0.5-7.8,0.4c-2.5,0-5.2-0.2-7.7-0.8c-2.3-0.5-4.7-1.7-7-1.8c-0.4,0-0.7,0.2-0.8,0.5
	c-0.1,0-0.1,0.1-0.2,0.2c-0.8,1.4,0,3.9,0.9,5.5c0.9,1.7,2.2,3.3,3.7,4.5c3.1,2.5,7.2,3.7,11.1,3.9c4.2,0.2,8.2-0.8,11.3-2.7
	c1.8-1.1,3.3-2.4,4.5-4c1.3-1.6,2.7-4.5,1.8-6.6C272.3,173.7,270.9,173.5,270.4,174.2L270.4,174.2z"/>
<path class="st12" d="M217.9,151.2c4.4,0,8,2.1,8,4.6c0,2.6-3.6,4.6-8,4.6c-4.4,0-8-2.1-8-4.6C209.9,153.3,213.5,151.2,217.9,151.2
	L217.9,151.2z"/>
<path class="st12" d="M291.1,151.2c4.4,0,8,2.1,8,4.6c0,2.6-3.6,4.6-8,4.6c-4.4,0-8-2.1-8-4.6C283.1,153.3,286.7,151.2,291.1,151.2
	L291.1,151.2z"/>
<path class="st11" d="M175.5,138.4c-1.1,0.4-2.1,1.1-3,1.8c-1.2,1-2,2.3-2.6,3.7c-0.6,1.6-0.5,3.3-0.2,4.9c0,0.2,0.2,0.4,0.4,0.4
	c0.3,0.1,0.8-0.2,0.8-0.6c0-0.6,0-1.1,0.2-1.6c0.4-2,1.6-3.8,3.3-4.9c0.4-0.3,0.8-0.5,1.2-0.7c0.2,4.3,0.7,8.6,1.4,12.9
	c0.1,1,0.3,2,0.4,3c0.1,0.6,0.2,1.2,0.3,1.8c-1.6-0.7-3.1-1.6-4.4-2.7c-3.1-2.5-5.5-5.9-6.6-9.8c-0.9-3.5-0.4-7.1,2.2-9.8
	c1.5-1.5,4-3.1,6.3-2.7c0.1,0,0.3,0.1,0.4,0.1C175.6,135.7,175.5,137.1,175.5,138.4L175.5,138.4z M337.9,156.5
	c0.2-1.4,0.3-2.9,0.5-4.3c0.1-0.4,0.1-0.8,0.1-1.2c0.3-2.9,0.5-5.8,0.6-8.7c0.3,0.3,0.6,0.6,0.9,0.9c0.2,0.2,0.4,0.5,0.5,0.8
	c0.3,0.6,1.4,0.2,1.1-0.5c-0.1-0.3-0.3-0.7-0.4-1c-0.5-1-1.1-1.8-2-2.5c0-1.9,0-3.8-0.1-5.7c1.2,0.4,2.3,1.2,3,2.1
	c1.8,2.4,2,5.6,1.8,8.7c-0.1,1.4-0.5,3.2-1,4.8c-0.5,1.5-1,2.7-2,4.2c-0.8,1.2-1.9,2.3-3,3.3C337.8,157.1,337.9,156.8,337.9,156.5
	L337.9,156.5z M352.2,189c-1,11.7-2.9,23.3-5.2,34.9c-1.2,5.8-2.5,11.6-3.9,17.4c-0.2,1.1-0.5,2.1-0.7,3.2c-0.2-0.9-0.4-1.8-0.7-2.7
	c-0.4-1.3-1.1-3.7-2.6-4.1c-0.1,0-0.2,0-0.4,0l0,0c-0.3-0.5-1.1-0.6-1.4,0c-0.5,0.8-0.7,1.9-0.9,2.8c-0.2,1.1-0.4,2.2-0.7,3.2
	c-0.5,2-1.1,3.9-1.9,5.7c-1.6,3.9-4,7.4-6.6,10.7c-2.4,3.1-5.2,5.9-8,8.7c-0.1-0.2-0.2-0.4-0.3-0.7c-0.4-1-0.8-1.9-1.2-2.9
	c-0.5-1.1-0.9-2.3-1.4-3.4c-2.2-5.4-4.1-10.9-6.3-16.3c-1.5-3.7-3.3-7.3-5.6-10.6c-0.8-1.1-1.7-2.3-2.8-3.4c0.3-2.2,0.5-4.3,0.4-6.5
	c-0.1-4.5-1.1-8.8-2.6-13c-0.2-0.5-1.1-0.3-0.9,0.2c1.2,4,1.8,8.2,1.8,12.4c0,1.5-0.1,3.1-0.2,4.6c-0.1-0.1-0.2-0.2-0.3-0.3
	c-1.1-1.4-2.4-2.7-3.7-3.9c-2.9-2.5-6.4-4.3-9.9-5.8c-3.3-1.5-6.8-2.8-10.2-4.1c-1.1-0.4-2.2-0.8-3.3-1.3c-0.4-0.6-0.8-0.9-1.2-1.2
	c-0.3-0.2-0.3-0.3-0.4-0.3c0,0-0.1,0-0.1-0.1c0,0-0.1-0.2-0.1-0.1c-0.1-0.2-0.1-0.4-0.1-0.5c0,0.3,0-0.5,0-0.6c0-0.1,0-0.1,0-0.2
	l0,0c0-0.1,0.1-0.3,0.1-0.4c0.1-0.3,0.2-0.6,0.3-1c0.3-0.9,1.1-2,2-2.7c0.3-0.4,0.8-0.6,1.3-1l0,0c1.4,0,2.9-0.3,4.2-0.5
	c2.5-0.5,5-1.1,7.5-1.4c5.2-0.8,10.3-1.9,15.2-3.7c4.1-1.5,8.2-3.4,12.2-5.4c2.3-1.1,4.7-2.3,6.8-3.9c-0.2,1.3-0.4,2.7-0.7,4
	c-0.3,1.6-0.8,3.3-1.2,4.9c0,0.2-0.1,0.4-0.1,0.6c-0.3,0.7-0.5,1.5-0.7,2.2c-0.3,0.9-0.7,1.8-1.1,2.6c-0.4,1-1.2,1.8-1.5,2.8
	c-0.4,1.2,1.1,2.4,2.2,1.7c0.6-0.4,1.1-1,1.4-1.6c7.5-6.7,11.7-16.5,14.6-25.9c1.9-6.2,3.2-12.6,4.1-19c0.4-0.2,0.8-0.5,1.2-0.8
	c0.8-0.5,1.5-1.1,2.3-1.7c0.4-0.4,0.9-0.8,1.3-1.2c2.9-2.8,4.6-6.4,5.5-10.3c1.2-5.9,0.1-15.6-7.2-17c-0.4-0.1-0.8-0.1-1.2-0.1
	c-0.2-3.1-0.7-6.2-1.3-9.3c-0.6-3.5-1.4-7.2-2.9-10.4c-0.5-1.1-2.2-0.5-2.2,0.5c0,3.3,0.8,6.8,1.3,10.1c0.6,3.2,1,6.3,1.3,9.5
	c0,0,0,0.1,0,0.2c0.1,0.5,0.1,1,0.1,1.5c0.1,1.3,0.1,2.6,0.1,4c0,0.7,0,1.5,0,2.2c-0.1,3.4-0.3,6.7-0.6,10c-0.2,1.7-0.3,3.3-0.5,5
	c-0.1,1.7-0.3,3.3-0.6,4.9c-0.2,1.8-0.5,3.5-0.7,5.3c-0.6,3.8-1.3,7.6-2.3,11.3c-0.3,1.4-0.7,2.7-1.1,4.1
	c-1.6,5.5-3.7,10.8-6.3,15.7c0.7-3.2,1.2-6.4,1.4-9.6c0.3-3.4,0.4-6.8,0.3-10.2c0.4-1.6,0.7-3.3,1-5c0.3-1.6,0.6-3.2,0.8-4.7
	c0.2-1.1,0.3-2.2,0.5-3.2c0.1-0.3,0.1-0.6,0.1-0.9c0.9-5.9,1.5-11.9,1.7-17.8c0-0.7,0-1.4,0-2.1c0.1-7.4-0.6-14.9-2.6-22l0,0
	c-0.9-3.4-2.2-6.8-3.8-10.1c-0.1-0.1-0.1-0.3-0.2-0.4c-0.2-0.3-0.3-0.7-0.5-1l0,0c-0.2-0.5-0.5-1-0.8-1.4c-0.2-0.5-0.9-0.1-0.7,0.4
	c1.2,2.5,2.3,5.1,3.1,7.7c1.9,5.8,3,12,3.4,18.1c0.2,3,0.3,6.1,0.2,9.1c-0.1,6.1-0.7,12.1-1.6,18.1c-0.3,2.5-0.8,5-1.2,7.5
	c0-0.4-0.1-0.9-0.1-1.3c-1.3-12.7-4.6-24.9-9.5-36.6c-0.8-2-1.7-3.9-2.5-5.9c-1.2-2.8-2.4-5.6-3.6-8.4c-0.6-1.5-1.2-3.1-1.8-4.7
	c-1.1-3.1-2-6.3-2.7-9.5c-0.3-1.7-0.6-3.3-0.8-5c-0.1-0.9-0.1-1.8-0.2-2.7c-0.1-0.5-0.1-1-0.2-1.5c0.2-0.8,0.4-1.5,0.5-2.3
	c0-0.7-1.1-1-1.4-0.3c-3.3,6.7-9.8,10.6-16.3,13.6c-0.5,0.2-1,0.5-1.5,0.7c-4.2,1.9-8.6,3.4-13.1,4.7c-3.1,1-6.3,1.9-9.4,2.7
	c-13.6,3.9-28,6.8-41.1,12.6c-0.8,0-1.5,0.3-2.1,1c-4.4,2.1-8.5,4.4-12.4,7.3c-7.8,5.6-14.1,13.2-17.7,22.1c0.4-3,1-5.9,1.8-8.8
	c1.3-5.3,3.2-10.5,5.3-15.6c3.7-9.1,8.6-17.8,14.8-25.5c3.9-4.7,8.3-8.9,13.2-12.6c5-3.9,10.6-7.1,16.4-9.6c0.8-0.4,1.7-0.7,2.6-1.1
	c0.1-0.1,0.2-0.1,0.4-0.2c0.9-0.3,1.7-0.6,2.6-0.9c0.4-0.1,0.2-0.8-0.2-0.6c-1.7,0.5-3.3,1.1-4.9,1.6c-7.8,2.9-15,6.8-21.4,12.1
	c-4.2,3.4-7.9,7.4-11.2,11.6l0,0c-2.6,3.3-5,6.8-7.1,10.4c-3.9,6.7-7,13.8-9.5,21.1c-1.5,4.3-2.8,8.7-3.7,13.1
	c-0.7,3.5-1.3,7.2-1.5,10.8c0,0.9,0,1.8,0,2.7c0,0.1,0,0.2,0,0.3c-0.9,5.4-0.9,11-0.3,16.5c-0.3-1.2-0.6-2.3-0.9-3.5
	c-1-4.1-1.8-8.2-2.6-12.4c-0.2-1.4-0.5-2.9-0.7-4.4c-0.1-0.8-0.2-1.5-0.3-2.3c-0.9-5.6-1.6-11.4-1.8-17.1c0-0.6,0-1.1,0-1.7
	c0-0.5,0-1,0-1.4c0-0.6,0-1.2,0-1.8c0-0.8,0.1-1.5,0.1-2.2c0.3-4.3,1.1-8.6,2.1-12.8c0.5-2.3,1.1-4.5,1.7-6.8
	c0.2-0.7,0.4-1.5,0.6-2.2c0.4-1.5,0.8-3.1,1.1-4.7c0.2-1,0.3-2,0.4-3c0.1-0.5,0.1-1.1,0.2-1.6c0.1-1-1.4-1.3-1.9-0.5
	c-0.7,1.4-1.4,2.8-2,4.3c-0.6,1.6-1.1,3.3-1.7,4.9c-1,3.2-1.8,6.5-2.5,9.8c-0.8,3.5-1.4,7.1-1.7,10.7c-2.8-0.8-5.6-0.1-7.9,1.5
	c-4,2.7-5.9,7.2-5.5,12c0.8,8.5,7.8,16.3,16.1,18.7c0.1,0.6,0.2,1.2,0.3,1.8c0.4,2.4,1,4.8,1.5,7.2c0.4,2,1,4.1,1.5,6.1
	c1.4,5.4,3,10.8,4.7,16.1c1.4,4.5,3.2,9.2,6.4,12.8c0.1,0.1,0.1,0.1,0.1,0.2c0.1,0.2,0.3,0.4,0.6,0.5c0.1,0.2,0.3,0.3,0.4,0.5
	c0.6,0.5,1.6-0.1,1.2-0.9c0.1-0.2,0.2-0.4,0.2-0.8c-0.2-2.9-0.9-5.7-1.7-8.6c-0.8-2.9-1.5-5.7-2.2-8.6c-0.2-1.1-0.5-2.3-0.7-3.5
	c1.2,1.2,2.3,2.4,3.6,3.5c1.8,1.5,3.9,2.8,5.9,4c4.2,2.4,8.6,4.2,13.1,5.7c4.6,1.5,9.3,2.7,14,3.8c2.5,0.5,5.1,1.1,7.6,1.7
	c1.4,0.3,3.2,0.8,4.9,0.8l0,0c0.3,0.2,0.6,0.4,0.9,0.6c0.8,0.6,1.3,1.5,1.6,2.4c0.3,1,0.3,2.1,0.2,3.2c-0.1,0.8-0.4,1.4-0.5,2.2
	c-0.4,0.8-0.8,1.6-1.6,2.2c-1.4,1-3,1.7-4.5,2.5c-4.3,2.2-8.4,4.5-12.3,7.3c-3.8,2.8-7.1,5.9-9.6,9.9c-1.1,1.9-2.2,3.8-3.1,5.8
	c-0.8,1.9-1.7,3.9-2,5.9c-0.1,0.3-0.2,0.7-0.4,1c-1.3,3.1-2.6,6.2-3.9,9.2v0c-0.6-2.1-1.1-4.3-1.5-6.4c-0.9-4.4-1.5-8.8-1.9-13.3
	c-0.7-8.6-0.5-17.5,1.9-25.8c0.2-0.6-0.7-0.9-0.9-0.3c-2.8,8.4-3.4,17.4-2.7,26.1c0.3,4.5,1,9,1.9,13.4c0.4,2.2,0.9,4.3,1.5,6.5
	c0.2,0.9,0.4,1.7,0.7,2.6c-1,2.3-1.9,4.5-2.9,6.8c-0.5,1.3-1.1,2.6-1.7,4c-0.1,0.2-0.2,0.5-0.3,0.8c-1-0.5-2-1.1-3-1.6
	c-3.3-2-6.3-4.5-9-7.3c-2.8-2.8-5.2-5.8-7.3-9.2c-1.9-3.1-3.1-6.6-4.8-9.8c0-0.1-0.1-0.2-0.2-0.2c-0.5-1-2.1-1-2.5,0
	c-0.7,1.4-0.7,3.1-0.7,4.6c-1-2.9-2-5.8-2.9-8.7c-2.1-6.3-3.8-12.7-5.2-19.2c-1.4-6.7-2.1-13.5-2.7-20.3c-0.7-7-1.1-14.1-1.4-21.2
	c-0.5-13.8-0.2-27.7,1.8-41.4c0.9-6.6,2.2-13.1,3.8-19.5c1.2-5,2.8-9.9,4.3-14.7c0.2-0.6,0.5-1.1,0.7-1.8c2.2-5,4.5-10,7.2-14.8
	c1.5-2.7,3.2-5.3,5-7.8c0.7-1,1.4-1.9,2.2-2.9c4.2-5.2,9.1-9.9,14.7-13.8c3.9-2.7,8-5.2,12.3-7.3c1.1-0.5,2.3-1.1,3.3-1.5
	c15.1-6.7,32.1-9.7,48.5-8.9c4.9,0.2,9.5,0.8,14.3,1.6c4.5,0.7,8.9,1.6,13.2,2.9c8.1,2.5,16.3,7,20.2,14.9v0c0,0.3,0.1,0.6,0.4,0.9
	c0,0,0,0.1,0,0.1c0.1,0.3,0.5,0.4,0.8,0.2c2.3,0.7,4.4,1.7,6.6,2.7c0.8,0.4,1.6,0.8,2.4,1.3c0.9,0.5,1.8,1.1,2.7,1.7
	c0.3,0.2,0.7,0.5,1.1,0.8c3.7,2.7,6.8,6.2,9.4,10c2.5,3.7,4.5,7.7,6.3,11.8c0.4,1.1,0.8,2.1,1.2,3.2c1.4,3.8,2.5,7.8,3.4,11.7
	C351.5,135.2,354.4,162.3,352.2,189L352.2,189z M326,291.2c2.4,4.2,5.1,8.3,7.7,12.4c1.3,2.1,2.6,4.2,3.9,6.3c1,1.5,1.8,3.2,2.9,4.6
	c0.1,0.3,0.2,0.7,0.4,1.1c0.3,0.9,0.7,1.7,0.7,2.5c0,0.4,0,0.3-0.1,0.7c0-0.2-0.2,0.2-0.2,0.3c0,0-0.1,0-0.1,0l0,0
	c0,0,0,0.1-0.1,0.1c-0.4,0.4-1.6,0.9-2.3,1c-0.4,0.1-0.8,0.1-1.1,0.1c-0.2,0-0.4-0.1-0.6-0.1c0,0-0.3,0-0.4,0
	c-0.8-0.1-1.6-0.4-2.4-0.7c-0.5-0.1-1.5-0.7-2.2-1.1c-0.9-0.6-1.8-1.2-2.7-1.8c-6.6-4.9-11.4-11.8-16.6-18.1
	c-1.7-2.1-3.3-4.3-4.6-6.6c-0.7-1.1-1.3-2.3-2-3.4c-0.7-1.3-1.3-2.6-2.3-3.6c-0.2-0.2-0.5-0.3-0.8-0.3c-0.1-0.5-0.2-1-0.3-1.5
	c-0.5-2.2-0.9-4.3-1.3-6.5c-0.7-3.5-1.3-7-2-10.5c-0.5-2.7-1-5.4-1.4-8.1c-0.2-1.2-0.4-2.3-0.6-3.5c0-0.2-0.1-0.4-0.1-0.7
	c-0.2-1.1-0.5-2.1-0.8-3.2v0c0-0.9-0.6-1.6-1-2.4c-0.5-0.9-1.1-1.8-1.5-2.8c-0.9-1.9-1.6-3.9-1.9-6c-0.4-2-0.3-4.1,0.1-6.1
	c0.2-1.1,0.6-2,1.1-3c0.3-0.5,0.6-1.1,1-1.5c0.8,0.8,1.5,1.6,2.2,2.4c0.6,0.7,1.3,1.4,2,2.1c0.2,0.2,0.5,0.5,0.8,0.6
	c0.1,0.1,0.3,0.2,0.5,0.4c0.2,0.2,0.3,0.4,0.5,0.6c0.2,0.3,0.4,0.5,0.6,0.8c0.2,0.4,0.5,0.7,0.7,1.1c0.9,1.2,1.6,2.5,2.3,3.9
	c2.4,4.6,4,9.5,5.8,14.3c2.1,5.6,4.3,11.2,6.7,16.7c0.6,1.3,1.2,2.6,1.8,3.9C320.4,281,323,286.2,326,291.2L326,291.2z M309.3,321.9
	c1.9,5.8,4,11.6,6.4,17.3c2,4.8,4.1,9.6,6.4,14.3c1.2,2.4,2.4,4.7,3.8,7c1.5,2.5,3,4.9,4.6,7.3c2.5,3.7,5.1,7.6,7,11.6
	c0,0.1,0,0.1,0,0.2c0,1.1,0.1,2.2,0.2,3.3c0.1,1.1,0,2.1-0.2,3c-0.4,1.9-1.4,3.5-2.7,5c-2.2,2.5-4.9,4.4-7.7,6.1
	c-0.9,0.5-1.9,1.1-2.8,1.6c-0.1,0-0.1,0-0.1,0c-10.6,5.7-21.7,10.3-33.4,13.3c-12.1,3.2-24.7,4.6-37.2,4c-5.2-0.3-10.3-1-15.5-1.9
	c-1.2-0.2-2.3-0.4-3.5-0.7c-1.6-0.3-3.3-0.6-4.9-1c-7.2-1.5-14.5-3.2-21.3-6.4c-3.6-1.7-7.2-3.9-9.3-7.1c0.4-2.8,0.4-5.5,0.5-8.4
	c0.1-3.4,0.3-6.8,0.5-10.2c0.4-6.7,1-13.4,1.7-20.1c1.2-13,2.3-25.9,3.8-38.8c0.2-1.6,0.4-3.2,0.6-4.7c0.5-3.7,1-7.3,1.5-11
	c3.2,0.8,6.3,1.8,9.4,2.7c0.7,0.2,1.4,0.4,2.1,0.6c1.6,0.5,3.3,0.9,4.9,1.3c6,1.5,12.1,2.6,18.2,2.9c3.4,0.2,6.8,0,10.2,0
	c3.4,0,6.8,0,10.3,0c6.8-0.1,13.7-0.5,20.5-1.3c4.3-0.5,8.6-1.3,12.8-2.2c3-0.6,5.9-1.4,8.7-2.6c0.6,2.1,1.1,4.1,1.8,6.1
	c-2.2,1.3-4.2,2.6-6.7,3.3c-2.5,0.8-5.2,1.1-7.7,1.8c-4.2,1.1-8.4,2-12.5,2.8c-9.8,1.9-19.7,3.2-29.7,3.6c-7.7,0.3-15.5,0-23.1-1.2
	c-3-0.5-5.9-1.2-8.9-2.2c-0.5-0.1-1-0.3-1.6-0.5c-0.2,0-0.3-0.1-0.5-0.1c-3-1.1-6.1-2.5-8.7-4.4c-0.2-0.2-0.5,0-0.6,0.3
	c0,0.1,0.1,0.3,0.2,0.4c1.7,1.2,3.5,2.5,5.4,3.4c1.2,0.6,2.3,1.2,3.5,1.6c0.7,0.3,1.4,0.6,2.1,0.8c0.1,0,0.3,0.1,0.4,0.1
	c4.4,1.6,9.1,2.6,13.8,3.3c10.1,1.4,20.4,1,30.5,0c7.9-0.8,15.8-2.2,23.6-3.8c3.6-0.8,7.1-1.7,10.7-2.4c3.5-0.7,8.1-1.7,10.3-4.7
	C307.8,317.6,308.6,319.7,309.3,321.9L309.3,321.9z M288.4,421.2c-0.1,0.8-0.3,1.6-0.4,2.3c-0.1,0.8-0.2,1.5-0.3,2.3
	c-0.3,2.4-0.5,4.8-0.6,7.3c0,3.2,0.2,6.4,0.6,9.5c0,0.1,0,0.3,0,0.5c-0.4,0-0.9,0.1-1.3,0.2c-0.9,0.2-1.8,0.4-2.7,0.6
	c-1.7,0.3-3.3,0.4-5.1,0.4c-1.7,0-3.3-0.4-4.8-1.1c-0.9-0.5-1.7-1-2.5-1.7c0,0-0.1-0.1-0.1-0.1c-0.6-2.6-0.9-5.2-1.1-7.8
	c-0.2-2.2-0.3-4.3-0.5-6.4c-0.1-0.7-0.1-1.5-0.2-2.2c0-0.1,0-0.2,0-0.3c-0.1-1.3-0.3-2.7-0.6-4c-0.1-0.4-0.1-0.8-0.2-1.2
	c4.6-0.3,9.1-0.9,13.7-1.7c2.5-0.4,5-1,7.5-1.6C289.1,417.8,288.7,419.5,288.4,421.2L288.4,421.2z M288.9,450c0-0.1-0.3,0.2-0.3,0.2
	c-0.2,0.1-0.4,0.2-0.5,0.3c0,0,0,0,0,0l0,0c-0.1,0.1-0.2,0.1-0.3,0.1c-1.5,0.5-3.8,0.4-5.5,0.2c-2.1-0.3-4.4-1.1-6.1-1.9
	c-0.9-0.4-1.6-0.9-2.4-1.3c-0.3-0.2-0.4-0.2-0.4-0.2c0,0,0,0,0-0.1c-0.2-0.5-0.5-1.1-0.7-1.6c-0.2-0.4-0.3-0.8-0.5-1.2
	c0.2,0.1,0.3,0.2,0.5,0.3c1.6,0.9,3.4,1.3,5.2,1.5c1.9,0.1,3.7-0.1,5.5-0.5c1-0.2,2-0.4,3-0.7c0.6-0.1,1.2-0.3,1.8-0.6
	c0.1,1,0.3,2,0.5,3c0.2,0.8,0.3,1.7,0.6,2.4C289,449.9,288.9,449.9,288.9,450L288.9,450z M273.3,447.4
	C273.3,447.4,273.4,447.5,273.3,447.4L273.3,447.4L273.3,447.4z M252.6,421.8c0,1.1,0,2.2,0,3.3c0,0.1,0,0.1,0,0.2
	c0,0.9,0,1.7,0,2.5c0,1.6-0.1,3.2-0.2,4.7c-0.1,2.3-0.4,4.6-0.8,6.9c0,0.2-0.1,0.5-0.1,0.7c-0.7,0.4-1.3,1.4-2,1.9
	c-1.1,0.9-2.2,1.5-3.6,1.9c-2.5,0.8-5.3,0.7-7.7-0.1c0.2-3.6,0.3-7.1,0-10.7c-0.1-2.3-0.4-4.7-0.9-7c-0.2-0.9-0.4-1.9-0.7-2.8
	c0,0,0,0,0,0c-0.5-2.1-1.3-4.5-2.6-6.4c1.7,0.3,3.4,0.6,5.1,0.9c1.1,0.2,2.3,0.4,3.5,0.5c0.7,0.1,1.4,0.2,2.1,0.3
	c2.8,0.4,5.7,0.7,8.6,0.9C252.7,420.3,252.6,421.1,252.6,421.8L252.6,421.8z M249.7,444.6c-0.4,0.6-0.9,1.2-1.5,1.8
	c-1.1,1.2-2.4,2.1-3.9,2.9c-1.4,0.8-2.9,1.3-4.5,1.6c-0.5,0.1-1,0.1-1.4,0.1c0,0,0,0,0,0c-0.3-0.3-0.8-0.5-1.1-0.6
	c0.2-1.9,0.5-3.7,0.6-5.6c2.5,1.2,5.3,1.5,8,1c1.4-0.3,2.8-0.9,4.1-1.6C249.9,444.4,249.8,444.4,249.7,444.6L249.7,444.6z
	 M236.8,223.6c0.5,1.5,1.3,3,2,4.3c0.1,0.1,0.1,0.2,0.2,0.3c0.4,0.7,0.8,1.3,1.3,2c0.8,1.1,1.7,2.2,2.6,3.2
	c2.9,2.9,6.7,5.1,10.7,5.8c4.2,0.8,8.5,0,12.2-2.1c4.7-2.6,8-6.9,10.7-11.4c0.9-1.6,1.8-3.3,2.4-5.1c1.1,0.5,2.3,0.9,3.4,1.4
	c3.2,1.4,6.7,2.9,9.6,5c-1.1,1.5-1.9,3.4-2.3,5c-0.7,2.3-0.8,4.8-0.4,7.2c0.3,2.3,1.1,4.6,2.1,6.7c0.5,1.1,1.1,2.1,1.8,3
	c0.5,0.8,1.2,1.9,2.2,2.3c0,1,0,2-0.1,3c0,1.5,0.2,3.1,0.4,4.5c0.3,3,0.7,6,1.1,8.9c0.9,6.1,2,12.2,3.2,18.1
	c1.3,6.3,2.7,12.5,4.4,18.7c-4.8,2.1-10.1,2.8-15.3,3.8c-6.7,1.3-13.7,1.7-20.6,2c-6.8,0.2-13.7,0.2-20.6,0.2c-3.3,0-6.6,0-9.9-0.2
	c-3.1-0.2-6.1-0.7-9.1-1.3c-3.1-0.6-6.1-1.3-9.1-2.1c-0.5-0.1-1-0.2-1.4-0.4c-0.2,0-0.4-0.1-0.7-0.1c-3.1-0.8-6.3-1.3-9.4-1.9
	c1-6.8,2.3-13.6,3.8-20.3c1.4-6.1,3.1-12.1,4.9-17.9c1-3,2-5.9,3.1-8.9c0.7-2.1,1.4-4.3,2.2-6.3c0,0,0,0,0,0
	c0.8-0.3,1.2-1.1,1.7-1.8c0.6-0.9,1-2,1.4-2.9c0.8-2,1.1-4.1,1.3-6.2c0.2-2.1,0.1-4.2,0-6.3c0-1,0-2.1-0.2-3.1
	c0-0.2-0.1-0.5-0.1-0.7c0.5-0.4,1-0.7,1.4-1.1C230.5,227,233.6,225.3,236.8,223.6L236.8,223.6z M244.6,217.5
	c0.8-0.6,1.2-1.4,1.5-2.3c0.3-0.8,0.4-1.7,0.5-2.5c0.2-1.5,0.1-3.2-0.4-4.6c-0.4-1.1-1-2.1-1.8-2.9c-0.2-0.2-0.4-0.4-0.7-0.6
	c0-0.3-0.1-0.5-0.3-0.7c-1-0.9-2.2-1.1-3.5-1.2c-1.3-0.1-2.5-0.3-3.8-0.6c-2.4-0.5-4.8-1-7.3-1.5c-4.6-0.9-9.3-1.8-13.8-3.1
	c-4.5-1.2-8.9-2.9-13-5c-2.1-1-4-2.2-5.9-3.4c-1.8-1.2-3.7-2.4-5.4-3.8c-0.7-3.9-1.1-7.9-1.1-11.9c0-5.7,0.9-11.4,2.9-16.7
	c1.9-5,5-9.6,8.6-13.4c0,0,0.1-0.1,0.1-0.1c3.4-3.7,7.3-6.7,11.5-9.3c4.7-3,10.7-6.3,16.4-5.7c1.3,0.1,3.2,1,4.4,1.2
	c2.5,0.6,1.9-1.2,0.6-2.5c-1-1.1-2.5-1.6-1.9-1.8c7.5-2.5,15.2-4.4,22.5-6.4c6.2-1.7,12.5-3.4,18.7-5.4c1.6-0.5,3.1-1.1,4.7-1.6
	c3.3-1.2,6.7-2.5,9.9-4.2c4.5-2.3,8.8-5.1,12.1-9c0.4-0.5,0.9-1.1,1.2-1.6c0,1.5,0,3,0.2,4.5c0.3,3.2,0.9,6.3,1.7,9.3
	c0,0.2,0.1,0.4,0.2,0.6c0.5,2.1,1.2,4.2,1.9,6.2c1.3,3.9,2.8,7.6,4.4,11.3c0.1,0.2,0.1,0.3,0.2,0.5c4.1,9.7,7.3,19.8,9.1,30.1
	c0.3,1.8,0.6,3.6,0.8,5.4c0.9,6.7,1.1,13.5,0.8,20.2c0,0.9-0.1,1.8-0.2,2.6c-2.7,1.7-5.5,3.1-8.3,4.4c-3.1,1.4-6.2,2.6-9.3,3.9
	c-0.9,0.3-1.7,0.6-2.6,1c-4.4,1.7-9,2.7-13.7,3.4c-0.2,0-0.4,0-0.7,0.1c-2.4,0.3-4.8,0.7-7.2,1.2c-1.2,0.2-2.5,0.5-3.7,0.6
	c0,0-0.1,0-0.2,0h0c-0.1,0-0.2-0.1-0.3-0.1c-0.2,0-0.5-0.1-0.8,0c-0.3,0-0.6,0.1-0.8,0.2c-0.4,0.1-0.8,0.3-1.1,0.5
	c-0.1,0-0.1,0.1-0.2,0.1c-0.1,0.1-0.2,0.1-0.3,0.2c-0.3,0.2-0.6,0.4-0.9,0.7c-1.5,1.1-2.4,2.9-3.1,4.6c-0.7,1.7-0.7,3.6,0.1,5.3
	c0.4,0.9,1.3,1.7,2.2,2.2c0.1,0,0.1,0.1,0.2,0.2c0.9,0.7,2,1.3,3,1.8c1,0.5,2,0.9,3.1,1.3c-3.2,8.3-10.1,17.2-19.8,17
	c-3.9-0.1-7.6-1.8-10.5-4.3c-1.5-1.2-2.8-2.7-4-4.2c-0.1-0.3-0.3-0.5-0.5-0.8c-0.7-1-1.2-2-1.8-3c-0.3-0.4-0.5-0.9-0.7-1.3
	c0.5-0.3,0.9-0.5,1.4-0.8C241.5,221,243.5,219.4,244.6,217.5L244.6,217.5z M201.3,309.6c-1.5,2.6-3.1,5-4.9,7.4
	c-3.5,4.4-7.7,8.7-12.5,11.7c-0.8,0.5-1.8,1-2.4,1.3c-0.9,0.4-1.5,0.5-2,0.5c-0.1,0-0.2,0-0.3,0c-0.1-0.1-0.1-0.1-0.2-0.1
	c-0.1,0,0,0,0,0c0,0,0,0-0.1-0.1c-0.1-0.1-0.1-0.1-0.1-0.2c0.1,0.1-0.1-0.2-0.1-0.3c0-0.1-0.1-0.5-0.1-0.5c-0.2-2.3,0.7-4.8,1.4-7
	c1.1-3,2.3-5.8,3.7-8.6c2.7-5.4,5.8-10.6,8.6-16c3.1-6,5.5-12.4,8.2-18.6c0.2-0.5,0.4-1.1,0.7-1.5c0.4-1.1,0.9-2.2,1.4-3.3
	c1.3-3.1,2.6-6.2,3.9-9.2c0.1-0.2,0.3-0.4,0.2-0.7c0.6-1.4,1.2-2.9,1.8-4.4c1.3-3.1,2.5-6.2,3.8-9.3c0.7-1.8,1.5-3.7,2.2-5.7
	c0.1-0.2,0.2-0.4,0.3-0.6c0.7-1.4,1.5-2.9,2.3-4.3c0.3-0.5,0.6-1,0.9-1.5c0.2-0.3,0.4-0.7,0.7-1.1c1.3-1.9,2.9-3.5,4.6-5
	c0,0.4,0.1,0.7,0.1,1c0.1,2,0.1,4,0,6c0,2-0.3,3.9-0.7,5.8c-0.1,1-0.3,1.9-0.6,2.9c-0.1,0.4-0.2,0.8-0.3,1.2
	c-0.4,0.8-0.9,1.6-1.3,2.4c-0.8,1.5-1.5,3.1-2.2,4.6c-0.7,1.5-1.3,3-1.9,4.5c-0.6,1.5-1.1,3-1.7,4.4c-0.8,2.1-1.5,4.2-2.2,6.2
	c-1.3,4.1-2.4,8.2-3.5,12.3c-1.6,6.2-2.9,12.4-3.9,18.7C203.6,304.8,202.6,307.3,201.3,309.6L201.3,309.6z M354.7,137.8
	c-1-6.7-2.1-13.4-3.5-20c-1.2-5.6-2.5-11.3-4.2-16.8c-0.9-2.9-2-5.8-3.2-8.6c-2.3-5.4-5.2-10.5-8.9-15c-2.7-3.3-5.9-6.1-9.4-8.4
	c-0.1-0.1-0.3-0.2-0.4-0.2c-1.9-1.2-4-2.2-6.1-3.1c-2.2-0.9-4.5-1.3-6.9-1.8c-0.1,0-0.1,0-0.1,0c-0.5-1.7-1.1-3.3-1.9-4.9
	c-1.1-1.9-2.5-3.5-4-5.1c-3.1-3.2-7.4-5.5-11.5-7c-8.6-3.3-18-4.6-27.1-5.5c-19.7-1.8-40.3,2-58.2,10.8c-2.6,1.3-5.1,2.6-7.6,4.1
	c-9.9,5.9-18.2,13.6-24.6,23.2c-6.2,9.2-10.5,19.7-14.2,30c-0.8,2.4-1.5,4.8-2.1,7.3c-0.1,0.5,0,1,0.4,1.2c-1.1,4.1-2,8.3-2.8,12.5
	c-2.6,13.5-3.4,27.3-3.3,41.1c0.2,14.1,1.2,28.3,3.1,42.3c1.8,13.3,5.9,26.1,10.6,38.5c1,2.8,2.2,5.5,3.8,8c0.2,0.4,0.6,0.6,1,0.5
	c0.3,0.7,0.6,1.4,0.9,2.1c0.3,0.6,1.4,0.3,1.3-0.3c-0.3-2.9-0.6-5.8-0.9-8.7c0-0.3,0-0.7-0.1-1c0.6,1.1,1.1,2.1,1.7,3
	c2.2,3.6,4.8,7,7.7,10c2.9,3,6.2,5.7,9.7,7.9c1.2,0.7,2.4,1.4,3.7,2c-0.3,0.8-0.7,1.5-1,2.2c-2.7,6.3-5.3,12.7-8.4,18.8
	c-2.9,5.6-6.2,11-8.9,16.7c-1.4,2.9-2.6,5.8-3.6,8.9c-0.8,2.3-1.3,4.9-1,7.4c0.3,1.8,1.2,3.2,2.9,3.9c1.5,0.6,3.4,0.2,4.8-0.3
	c2.3-0.9,4.3-2.2,6.2-3.7c2.4-1.8,4.6-3.8,6.7-6c3-3.1,5.7-6.6,7.9-10.3c-0.4,2.8-0.8,5.6-1.1,8.4c-1.6,12.8-2.7,25.6-4,38.4
	c-0.6,6.6-1.2,13.2-1.6,19.8c-0.2,3.4-0.4,6.8-0.5,10.2c0,0.3-0.1,0.6-0.1,0.9l0,0c0,0,0,0.1-0.1,0.2c-0.4,1.4-0.7,2.9-0.7,4.3
	c0.1,1.3,0.5,2.6,1.2,3.8c0,0.3,0.1,0.5,0.1,0.8c0.1,0.5,0.4,0.7,0.8,0.9c1.5,2.2,3.7,4,5.9,5.5c6.2,4.1,13.7,6.3,20.9,8.1
	c2.3,0.6,4.7,1.1,7,1.6c0.6,2.5,1.5,5,2.1,7.5c0.6,3.1,1,6.1,1.1,9.2c0.2,6.1-0.1,12.2-1.1,18.2c-0.1,1,0.2,2.1,1.3,2.3
	c0.6,0.1,1.3,0.3,1.9,0.2c1,0.4,2.2,0.5,3.3,0.5c2.1,0,4.2-0.8,6-1.6c1.9-0.9,3.5-2.1,5-3.6c1.4-1.3,3.2-3.3,3.3-5.3
	c0-0.4-0.1-0.8-0.3-1c0.2-0.8,0.4-1.5,0.6-2.1c0.7-2.5,1-5.1,1.2-7.7c0.2-2.5,0.3-5,0.4-7.5c0-1.2,0.1-2.4,0.1-3.7
	c0-0.8,0-1.6-0.3-2.3c3,0.1,6,0.1,9,0c0.1,0.7,0.4,1.3,0.5,2c0.2,1.2,0.4,2.5,0.5,3.8c0.3,3,0.5,6,0.7,8.9c0.3,2.9,0.7,5.8,1.4,8.6
	c0.4,1.3,0.9,2.6,1.6,3.8c0.3,0.5,0.6,1.1,1,1.5c0,0.3,0.1,0.6,0.2,0.8c0.3,0.7,0.4,0.8,0.9,1.3c0.7,0.8,2,1.3,2.9,1.8
	c2.5,1.2,5.2,1.9,7.9,2.2c2.5,0.3,5,0.2,7.3-0.9c1.4-0.7,2.5-2.1,2.7-3.5c0.3-1,0-2.1-0.3-3.2c-0.3-1.5-0.6-3.1-0.8-4.7
	c-0.4-3-0.6-6-0.6-9.1c0-3.1,0.2-6.1,0.6-9.1c0.4-2.8,0.9-5.6,1.1-8.4c8.9-2.3,17.6-5.6,25.9-9.6c2.2-1,4.5-2.2,6.7-3.3
	c2.2-1.2,4.3-2.4,6.4-3.7c3.7-2.4,7.3-5.5,9.1-9.7c0.7-1.6,1.1-3.3,1.2-5.1c0-0.3,0-0.6,0-0.9c0.7-0.4,1.1-1.3,0.8-2.1
	c-2-5.7-5.3-10.7-8.7-15.7c-1.6-2.5-3.3-5-4.8-7.6c-1.4-2.5-2.7-5.2-4-7.8c-4-8.2-7.4-16.6-10.4-25.2c-1-2.8-1.9-5.5-2.8-8.4
	c-1.2-3.7-2.3-7.4-3.3-11.2c0.6-0.7,0.2-1.8-0.6-2.1c-0.9-3.3-1.8-6.7-2.6-10c0.1,0.2,0.3,0.4,0.4,0.7c1.5,2.6,3.3,5.1,5.2,7.5
	c0.2,0.2,0.9,1.2,1.3,1.7c0.6,0.7,1.1,1.4,1.7,2.2c1.3,1.6,2.6,3.3,4,4.9c2.9,3.4,6.1,6.7,9.6,9.6c3,2.4,6.7,4.8,10.8,4.6
	c3-0.1,6.6-1.6,7.2-4.8c0.3-1.5-0.1-3-0.7-4.4c-0.1-0.3-0.2-0.5-0.4-0.7c-0.9-3-2.9-5.8-4.5-8.5c-1.7-3-3.5-5.9-5.3-8.8
	c-3.6-5.6-6.9-11.4-9.9-17.4c-1.2-2.3-2.3-4.7-3.4-7c0-0.1,0.1-0.1,0.2-0.2c3.3-3.2,6.4-6.5,9.2-10.1c2.9-3.6,5.3-7.5,7.1-11.8
	c0.9-2,1.5-4.1,1.8-6.3c0-0.3,0-0.6,0.1-0.9c0.3,1.2,0.6,2.5,0.8,3.8c0.3,1.7,0.4,3.4,0.5,5.2c-0.4,2-0.7,4.1-0.7,6.2
	c0.1,0.9,1.3,1.3,1.7,0.5c0.1-0.2,0.2-0.4,0.3-0.6c0.2-0.1,0.4-0.3,0.5-0.7c0.1-0.3,0.2-0.6,0.2-0.9c1-2.4,1.7-4.9,2.3-7.5
	c0.9-3.3,1.7-6.7,2.4-10.1c1.6-6.7,3.1-13.5,4.4-20.3c2.6-13.6,4.5-27.3,5.1-41.1C357.4,164.6,356.5,151.1,354.7,137.8L354.7,137.8z
	"/>
</svg>
