<?xml version="1.0" encoding="utf-8"?>
<!-- Generator: Adobe Illustrator 23.0.0, SVG Export Plug-In . SVG Version: 6.00 Build 0)  -->
<svg version="1.1" xmlns="http://www.w3.org/2000/svg" xmlns:xlink="http://www.w3.org/1999/xlink" x="0px" y="0px"
	 viewBox="0 0 1920 1080" enable-background="new 0 0 1920 1080" xml:space="preserve">
<g id="Layer_3">
	<g>
		<g>
			<g>
				<path fill="#F69FBC" d="M1500.9,808.8c-1.2,4.1-2.9,8.9-5.8,13.1c-3,4.3-7.3,8-13.3,9.9c-2.4,3.2-4.9,6.7-7.3,9.8
					c-3.1,5.7-6.1,11-9.2,15.6l2.1,2c5.4-2.5,11-6,17.7-10.7c2.1,5.5,1.5,9.6,0,13c-1.6,3.4-4.1,6.2-5.9,9.2
					c-1.8,3.1-3.4,6.4-5.1,9.7c-1.8,3.3-3.8,6.8-6.5,10.1c-3.3-0.1-4.9-4-6.8-7.5c-1-1.8-2-3.5-3.1-4.7c-1.2-1.3-2.5-2.1-4.1-2
					c-1.5-0.1-3.1,0.6-5.5,2c3.2,4.5,6.4,8.3,10.4,12.4c-2.5,2.1-4.6,2.1-6.3,1.2c-1.7-0.9-3-2.8-4.3-5c-1.9-3.1-3.2-5.5-4.3-7.2
					c-1.1-1.8-2-2.8-2.9-3.3c-0.2-0.1-0.5-0.2-0.7-0.3c-0.3-0.1-0.6-0.1-0.9-0.1c-0.6,0-1.4,0.1-2.2,0.3c-1.7,0.4-3.9,1.1-7.1,1.9
					c3.2,2.7,6.4,5.3,10.8,8.3c-5.8,3.6-12.5,6.7-19.5,9.3c-3.5,1.3-7,2.4-10.6,3.4c-1.8,0.5-3.6,1-5.4,1.4
					c-1.8,0.5-3.6,0.8-5.4,1.1c-2.3,0.4-4.7,0.6-7.1,0.5c-2.4,0-4.8-0.4-7.3-0.8c-2.4-0.4-4.9-1-7.3-1.7c-2.4-0.7-4.8-1.5-7.2-2.4
					c2.4,0,4.8,0,7.2,0c2.4,0,4.9-0.1,7.6-0.2c5.2-0.1,10.9-0.4,17.5-0.8c-3.1-2.3-6.1-3.5-9.1-4.1c-3-0.6-5.9-0.8-8.8-0.9
					c-5.7-0.1-11-0.4-15.3-4.5c1.4-4.9,4.6-6.5,8.2-7.4c1.8-0.5,3.7-0.8,5.6-1.3c1.9-0.5,3.6-1.1,5.2-2.3c-1.5-3.2-3.6-4.6-5.9-5.3
					c-2.3-0.7-4.8-0.8-7.1-1c-6.4-0.7-12.7-2.4-18.8-4.3c-3.1-1-6.1-2.1-9.1-3.3c-3-1.1-6-2.4-9.1-3.6
					c-17.6-7.1-35.7-17.2-57.1-12.1c0.6,3,1.1,5.9,1.6,8.6c-6.4,4.7-10.8,0.5-14.8-2.3c-8.9-6.1-18.1-8.4-29.3-9.1
					c-19-1.1-38-5.5-58.5-8.1c2.3,4.8,1.4,9.5,0.2,14.2c-1.2,4.7-2.6,9.6-1.5,15c-14,1.7-27.4-0.9-40.8-2.7
					c-13.4-1.8-26.9-2.6-40,2.6c0.7,3.3,1.4,6.5,1.9,8.9c-2.8,1.2-5.5,2.3-8.2,3.4c-1.3,0.6-2.6,1.2-3.9,1.8
					c-1.3,0.7-2.5,1.4-3.6,2.3c-1.7,1.2-3.4,2.3-5,3.2c-1.7,0.9-3.4,1.7-5.1,2.4c-3.4,1.4-6.9,2.2-10.3,2.9c-3.5,0.7-7,1.1-10.5,1.4
					c-3.5,0.4-7,0.8-10.5,1.2c-5.2,0.9-10.5,1.6-15.7,2.8c-5.2,1-10.3,2.2-15,3.5c-9.5,2.7-17.9,6.1-24.7,10.2
					c-0.4,0.2-0.8,0.5-1.2,0.9c-0.3,0.3-0.7,0.7-1,1.1c-0.6,0.8-1.1,1.7-1.6,2.6c-0.5,0.9-0.9,2-1.3,2.9c-0.4,1-0.8,1.8-1.2,2.8
					c1,2,1.8,2.8,2.3,2.7c0.5,0,0.9-0.7,1.1-1.8c0.2-0.9,0.5-1.7,0.8-2.4c0.4-0.7,0.8-1.3,1.2-1.9c0.5-0.6,1-1.1,1.6-1.5
					c0.6-0.4,1.2-0.8,1.9-1.2c2.6-1.4,5.8-2,9-2.8c2.5-0.6,6.1,2.7,9.1,4.3c6.3-2.4,13.5-4.6,21.3-6.4l2.9-0.7l1.4-0.4l1.5-0.3
					l5.9-1.2l3-0.6l3-0.5l6-1c16.2-2.4,33.1-3.2,50.5-2.9c16.9,0.3,34.4,1.8,52.1,4.1c17.7,2.3,35.8,5.3,54.1,8.7
					c15.2,2.8,30.4,7.3,45.8,11.5c21.1,5.6,42.6,11.5,64.8,16.5c1.1-3.7,1.3-7.9,3.4-10.9c3.4-4.8,8-8.7,11.4-12.2
					c2.7,1.3,5.6,2.6,8.5,4c1.5,0.7,3,1.4,4.5,2.1c1.5,0.7,3.1,1.4,4.6,2.1c1.9,0.9,4,1.8,5.6,3.1c11.5,9.5,16.6,8.2,22.9-8.2
					c-5.5,1-9.9,2.4-14.3,2.2c-4.8-0.2-10.7-1.1-10.2-7.7c0.2-3.2,1.6-5,3.5-5.9c1-0.4,2.1-0.6,3.3-0.6c1.2,0,2.5,0.1,3.9,0.4l9,1.9
					l9.1,1.8c1.5,0.3,3,0.6,4.6,0.9l4.6,0.7c3.1,0.5,6.1,1,9.2,1.3c5.8,0.6,11.7,0.9,17.5-0.1c4.8-0.9,8.5-2.2,12.4,1.9
					c1,1,3.8,1.2,5.8,0.9c1.2-0.2,2.4-0.3,3.6-0.6c1.2-0.2,2.3-0.4,3.6-0.7c2.6-0.5,5-1.2,7.5-1.9c4.9-1.5,9.7-3.4,14.3-5.7
					c6.4-3.3,12.2-7.5,17.5-12.3c1.3-1.1,2.7-2.5,3.9-3.7c1.2-1.2,2.3-2.4,3.5-3.6c2.2-2.4,4.3-4.9,6.3-7.4
					c5.6-6.8,11.4-12.9,16.6-19.1l1.7-2.5c4.8-7.1,9.8-14.7,14.3-23.1c0.7-1,1.3-2,2-3.1c1.4-5,2.9-10.1,3.5-15.4
					c0.2-1.9,0.6-3.2,1.2-4.2c0.6-1,1.4-1.7,2.3-2.2c1.8-1,4.1-1.4,5.9-2.5c0.2-1.3,0.5-2.5,0.7-3.8c0.1-1.4,0.6-3,0.8-4.6
					c0.2-1.5,0.2-2.8-0.3-3.4c-1.1-1.3-2-2.6-2.7-3.8c-0.8-1.3-1.5-2.6-2.1-3.8c-0.6-1.3-1-2.6-1.3-3.9c-0.4-1.3-0.7-2.6-1-4
					c-0.9-5.4-1.4-11.2-2.6-16.9c-2.5-11-7.1-21.1-12.7-30.2c-5.6-9.2-12.1-17.6-19.1-25.3c-1.3-1.5-2.3-3.4-3.1-5.3
					c-0.6-1.6-1.1-3.4-1.6-4.9c-0.6-1.7-1-3.2-1.4-4.8c-0.4-1.5-0.7-3-0.9-4.4c-0.7-1.9-1.2-3.7-1.6-5.4c-6-2.3-12.8-5-19.1-8.2
					c-5.2-2.6-10-5.6-13.3-8.6c-3.3-3-5.1-6.1-3.8-8.7c0.3-0.6-0.5-1.4-2-2.3c-1.5-0.9-3.7-2-6.3-3.1c-1.9,0.5-3.2,1.2-4,2
					c-0.8,0.8-1,1.7-0.9,2.7c0.3,2,2.1,4.2,4.5,6.4c2.4,2.2,5.4,4.5,8.3,6.6c2.9,2.2,5.6,4.3,7.7,6.6c1,1.1,1.8,2.2,2.5,3.3
					l-4.2,1.1c-2.7-0.9-6.1-1.6-8.7-2.6c-1-0.4-2-0.8-2.7-1.3c-5.3-3.5-9-7.1-13.3-10.7c-2.6-2.1-5.1-4.2-8.3-6.5
					c-3.2-2.3-7.1-4.6-12.4-7.4c0.4,0.6,0.9,1.3,1.4,2c0.5,0.7,1.1,1.4,1.6,2c1,1.4,1.5,2.6,1.4,3.6c-0.2,0.9-1.5,1.6-3.4,2.3
					c-1.9,0.7-4.4,1.5-6.9,2.7c-8.6-5.7-14.1-11.3-18.7-16.7c-1.1-1.4-2.2-2.7-3.2-4c-1.1-1.3-2-2.7-3-4.1c-1.9-2.9-3.6-5.9-5.3-9.2
					c0.8,2.7,1.8,5.4,2.9,7.9c0.6,1.2,1.2,2.5,1.8,3.6c0.7,1.2,1.4,2.3,2,3.4c2.9,4.8,6.1,9.6,9.6,14.6c3.6,5.1,7.2,10.3,10.8,15.3
					c0.5,0.8,0.7,1.6,0.7,2.4c0,0.8-0.3,1.6-0.6,2.4c-0.3,0.8-0.8,1.7-1.2,2.6c-0.3,0.9-0.6,1.8-0.7,2.7l0,0
					c0.3,0.1,0.6,0.3,0.9,0.4c12.8,6.2,19.9,12.1,21.5,21c8.2,6.9,16.7,13.7,24.6,21l2.4,2.1l1.2,1c0.4,0.4,0.7,0.6,1,1l3.9,3.8
					l1,0.9c0.2,0.2,0.3,0.3,0.4,0.4l0.3,0.3l1.1,1.2c0.7,0.8,1.5,1.6,2.2,2.4c1.4,1.7,2.8,3.3,4.1,5c0.6,0.8,1.3,1.7,1.9,2.5
					l1.8,2.5c3.4,4.8,6.2,9.7,8.3,14.5c4.8,5.7,8.7,11.5,11.1,18l0.3,0.6c0.1,0.2,0.1,0.4,0.2,0.6l0.3,1.2l0.4,1.3
					c0.1,0.4,0.3,0.9,0.3,1.3c0.3,1.7,0.7,3.4,0.7,5.2C1502.6,800.9,1502.1,804.8,1500.9,808.8z M1492,842.4c-0.6,0.6-1.9,0.5-4.5,1
					c2-2.9,3.3-4.8,4.5-6.6l2.3,2C1493.6,840,1493,841.4,1492,842.4z"/>
				<path fill="#F599B8" d="M1255.8,833.8c-5.7,1.7-8.8-2-11.7-5.9c-11.4-3.5-22.9-7-34.6-10.4c-5.2,0-11.1,1.7-15.6-0.1
					c-2.6-1.1-5.2-2.1-7.9-3c-2.7-0.9-5.4-1.8-8.1-2.5c-5.4-1.6-10.9-2.7-16.5-3.7c-11.2-1.8-22.6-2.6-34.3-2.4
					c-2.2,0-4.5-0.2-6.7-0.5c-2.3-0.3-4.6-0.6-6.8-0.8c-16-1.6-32.4-2.5-49-2.4l-8.6,0.6c-2.9,0.2-5.7,0.4-8.6,0.8
					c-3.4,1-6.8,1.8-10.2,2.5c-3.4,0.7-6.8,1.4-10.2,1.8c-1.7,0.2-3.4,0.4-5.2,0.5c-1.7,0.2-3.5,0.3-5.2,0.4
					c-3.5,0.2-7.1,0-10.8-0.2c-6.7-0.4-13.9,2.3-21.1,3.6c-11.2,2-22.8,4.5-34.7,8.7c-3.4,1.4-6.9,2.9-10.3,4.5
					c-3.5,1.6-6.8,3.4-10.1,5.2c-1.7,0.9-3.2,1.9-4.9,2.8c-1.6,1-3.2,1.9-4.8,2.9c-3,2.1-6.2,4.1-9,6.3
					c-10.9,8.2-20.6,17.2-28.7,26.4c-6.8,7.7-14.4,15-9.3,25.8c1.4,3.2-0.6,9.4-2.7,13.1c-2.2,3.8-2.7,6.8-1.9,9.2
					c0.8,2.5,3,4.5,6.2,6.2c2.6,1.4,5.5,2.4,6.8,3c1.6,6.7,1.2,14.7,4.5,16.7c8.8,5.2,17.2,14.2,29.3,9.8
					c13.5-4.9,25-13.4,39.3-11.8c1.3,0.2,2.6-0.2,3.9-0.7c0.6-0.3,1.2-0.6,1.7-1c0.5-0.4,1-0.7,1.4-1.2c0.9-1,1.8-2,2.7-3l2.6-2.8
					c1.8-1.8,3.5-3.6,5.2-5.2l1.3-1.2l1.3-1.1l1.3-1.1c0.4-0.4,0.8-0.8,1.3-1.1l2.5-2.1l2.5-1.9c0.4-1,0.8-1.8,1.2-2.8
					c0.4-0.9,0.8-2,1.3-2.9c0.5-0.9,1-1.8,1.6-2.6c0.3-0.4,0.6-0.8,1-1.1c0.4-0.3,0.7-0.6,1.2-0.9c6.8-4.1,15.2-7.5,24.7-10.2
					c4.7-1.4,9.8-2.5,15-3.5c5.1-1.2,10.4-1.9,15.7-2.8c3.5-0.4,7-0.8,10.5-1.2c3.5-0.4,7-0.7,10.5-1.4c3.5-0.7,6.9-1.5,10.3-2.9
					c1.7-0.7,3.4-1.5,5.1-2.4c1.7-0.9,3.4-2,5-3.2c1.1-0.8,2.3-1.6,3.6-2.3c1.3-0.7,2.6-1.2,3.9-1.8c2.7-1.1,5.4-2.2,8.2-3.4
					c-0.5-2.4-1.2-5.6-1.9-8.9c13.1-5.2,26.6-4.3,40-2.6c13.4,1.8,26.8,4.4,40.8,2.7c-1.1-5.4,0.3-10.2,1.5-15
					c1.2-4.7,2.1-9.4-0.2-14.2c20.5,2.6,39.5,7,58.5,8.1c11.2,0.7,20.4,3,29.3,9.1c4,2.7,8.4,7,14.8,2.3c-0.5-2.7-1.1-5.6-1.6-8.6
					L1255.8,833.8z M1158.1,836.9c4.8-5.2,10.5-6.5,18.7-2.6c-3.1,6.5-6.2,7.3-9.4,6.4C1164.3,839.7,1161.1,837.2,1158.1,836.9z"/>
				<path fill="#F6A7C2" d="M1485.1,270.7l-1,0.7c-3.4-0.4-7.4-1-11.4-1.3c-4-0.3-8-0.2-10.8,0.8c-3.3,1.2-6.5,2.6-9.3,4.4
					c-2.8,1.8-5.3,4-7.1,6.7c-1.9,2.7-3,5.9-3.1,9.3c-0.1,3.4,0.6,6.8,2.2,9.9c-1.1,1.8-1.8,3.6-2.2,5.4c-7.4-0.1-13.1,0.5-17.7,1.8
					c-4.7,1.3-8.3,3.1-12.1,4.8c-0.8-0.7-1.6-1.4-2.4-1.9c-0.8-0.5-1.7-1-2.6-1.3c-1.8-0.7-3.6-1.1-5.6-1.1c-1,0-2,0-3.1,0.1
					c-0.5,0.1-1,0.1-1.6,0.2c-0.2,0-0.5,0.1-0.8,0.1c-0.2,0-0.2,0-0.3,0.1c-0.1,0-0.1,0-0.2,0.1c-1.2,0.4-2.3,1-3.4,1.7
					c-2.1-2-3.9-4.1-5.6-6.4c-0.5,0.6-0.9,1.1-1.3,1.6c-0.4,0.4-0.7,0.8-1,1.2c-0.6,0.7-1.2,1.1-1.9,1.3c-1.4,0.4-3.4,0.1-7.2-0.7
					c-2.5-4.2-4.2-9-5.1-13.9c-1-4.9-1.1-10-0.9-15c0.3-4.9,1.1-9.7,1.9-14.1c0.8-4.4,1.5-8.6,1.6-12.9c0.1-2.3,0.5-4.8,1.6-7.2
					c2.7-6.2,7.1-10.4,13.3-12.8c6.2-2.4,14.3-2.8,24.3-1c-3.5,1-6.9,2-10.5,3.3c-3.6,1.3-7.4,2.8-11.5,4.8
					c6.8,2.3,12.3,4.3,19.9,7.2c-1.3-3.5-1.9-5.5-2.2-6.4c6.8-4,12.9-7.5,20.3-9.9c1.6-0.6,3.3-1.1,4.9-1.7c1.7-0.5,3.4-1.1,5.1-1.7
					c3.4-1.1,6.8-2.2,10.5-2.8c7.6-1.1,15.7-0.9,24.1,3.5l0,0c-2.9,3.1-5.2,6.4-7.2,9.4c-1,1.5-1.9,3-2.7,4.5
					c-0.8,1.5-1.4,3.1-2,4.5c-1.9-0.5-3.8-1-5.8-1.5l-3-0.7l-2.9-0.6l0.7,1.2l0.9,1.3c3.4,0,6.8,0.1,10,0.2c2.8,1.8,5.6,3.7,8.1,5.5
					c2.8-2.3,5.2-4,7.3-5.2c2.1-1.2,4-1.9,6-2.2c2-0.2,4,0,6.5,0.7c2.5,0.7,5.4,1.8,8.8,3.4c-0.1,3.7,0.1,7.2,0.5,10.8
					c-2.8,0.9-5.6,1.9-8.2,2.8c-2.6,1-5.2,1.9-7.6,2.9c-1,0.4-1.4,1.1-0.9,2.1C1481.7,267.8,1483,269,1485.1,270.7z"/>
				<path fill="#F6A3BF" d="M1498,259.1c-0.4-3.5-0.6-7.1-0.5-10.8c-3.5-1.6-6.4-2.7-8.8-3.4c-2.5-0.7-4.5-0.9-6.5-0.7
					c-2,0.2-3.9,0.9-6,2.2c-2.1,1.3-4.6,2.9-7.3,5.2c-2.6-1.8-5.3-3.7-8.1-5.5l0,0c0.6-1.5,1.2-3,2-4.5c0.8-1.5,1.7-3,2.7-4.5
					c2-3,4.4-6.3,7.2-9.4c4.2,1.1,7.3,1.9,9.7,2.3c2.5,0.4,4.3,0.3,5.8-0.3c1.5-0.6,2.8-1.8,4-3.7c1.3-1.9,2.6-4.4,4.4-7.7
					c-5.5-0.5-10.3,0.6-14.3,2.4c-4,1.7-7.1,4.3-9.7,7c-8.4-4.5-16.5-4.6-24.1-3.5c-3.7,0.6-7.1,1.7-10.5,2.8
					c-1.7,0.6-3.4,1.1-5.1,1.7c-1.7,0.6-3.3,1.1-4.9,1.7c-7.4,2.5-13.5,5.9-20.3,9.9c0.3,1,0.9,2.9,2.2,6.4
					c-7.6-2.9-13.1-4.9-19.9-7.2c4.1-2,7.9-3.5,11.5-4.8c3.6-1.3,7-2.4,10.5-3.3c3.2-1.6,6.4-3.1,9.8-4.6c1.7-0.7,3.4-1.4,5.1-2.1
					c1.8-0.7,3.6-1.3,5.5-1.9c3.7-1.3,7.4-2.6,11.2-3.8c4-1,8.1-2,12.2-3c13.6-2.8,27.7-5,41.6-6.5c1.7-0.2,3.5-0.4,5.2-0.6l4.5-0.4
					c2.6-0.2,5.3-0.4,7.9-0.6c2.6-0.2,5.3-0.4,7.9-0.5c2.6-0.1,5.3-0.3,7.9-0.4c4.3-0.1,8.5-0.2,12.7-0.2c7,1.5,13.7,3.3,20,4.8
					c6.3,1.4,12.4,2.5,18.5,2.3c2.7-0.1,5.4-1.2,7.9-2.8c1.2-0.8,2.5-1.6,3.7-2.5c1.2-0.9,2.4-1.8,3.6-2.6
					c9.9-3.1,20.2-7.6,30.3-12.6c4.8,1.7,3.5,4,0.8,6.6c-6,5.7-11.9,11.5-20.4,18.3c7.2-0.1,13.8-0.6,19.8-1.3c3-0.3,6-0.7,8.9-1.1
					c2.9-0.4,5.8-0.8,8.5-1.2c-6.6,4.6-13.5,9.1-20.8,13.3c-7.3,4.2-14.9,8.3-23.2,11.9c-4.2,1.9-8.7,3.6-13.2,5.1
					c-4.5,1.4-9.1,2.8-13.5,3.8c-8.9,2.2-17.2,3.7-25.1,5.1c-10,0.6-19.5,1.2-29,2.2c-2.4,0.2-4.8,0.5-7.2,0.8l-3.3,0.4
					c-0.9,0.1-1.7,0.2-2.5,0.3l-4.9,0.7L1498,259.1z"/>
				<path fill="#F6A8C3" d="M1321.5,940.9c1.1-3.7,1.3-7.9,3.4-10.9c3.4-4.8,8-8.7,11.4-12.2c2.7,1.3,5.6,2.6,8.5,4
					c1.5,0.7,3,1.4,4.5,2.1c1.5,0.7,3.1,1.4,4.6,2.1c1.9,0.9,4,1.8,5.6,3.1c11.5,9.5,16.6,8.2,22.9-8.2c-5.5,1-9.9,2.4-14.3,2.2
					c-4.8-0.2-10.7-1.1-10.2-7.7c0.2-3.2,1.6-5,3.5-5.9c1-0.4,2.1-0.6,3.3-0.6c1.2,0,2.5,0.1,3.9,0.4l9,1.9l9.1,1.8
					c1.5,0.3,3,0.6,4.6,0.9l4.6,0.7c3.1,0.5,6.1,1,9.2,1.3c5.8,0.6,11.7,0.9,17.5-0.1c4.8-0.9,8.5-2.2,12.4,1.9c1,1,3.8,1.2,5.8,0.9
					c1.2-0.2,2.4-0.3,3.6-0.6c1.2-0.2,2.3-0.4,3.6-0.7c2.6-0.5,5-1.2,7.5-1.9c4.9-1.5,9.7-3.4,14.3-5.7c6.4-3.3,12.2-7.5,17.5-12.3
					c1.3-1.1,2.7-2.5,3.9-3.7c1.2-1.2,2.3-2.4,3.5-3.6c2.2-2.4,4.3-4.9,6.3-7.4c5.6-6.8,11.4-12.9,16.6-19.1c2,1.7,3.9,3.4,6.6,5.7
					c-4.3,8.5-9.2,17.4-15.7,27c-3.3,4.8-6.8,9.7-11.7,14.9c-4.6,5-9.8,9.7-15.5,13.8c-1.5-0.4-2.9-0.5-4.2-0.5
					c-5.6,0-9.7,3.2-14.5,6.2c-2.4,1.5-4.9,2.9-7.5,3.7c-0.7,0.2-1.3,0.4-2,0.5c-0.7,0.1-1.4,0.2-2.2,0.2c-1.4,0-2.7-0.1-4-0.6
					c0.1,4.3,0.2,7.9,0.2,11.6c-0.8,0.2-1.5,0.4-2.2,0.6l-2.3,0c-1.8-2.3-3.5-4.7-5.1-7.1l-3,0.5c-0.2,2.5-0.5,5-0.7,7.4
					c-6.9,0.5-13.3,0.6-19.1,0.6c-5.8-0.1-11.6,0-17.3-0.3l-8.6-0.3l-8.5-0.5c-5.7-0.3-11.3-0.8-17-1.3
					C1349,944.3,1335.1,942.9,1321.5,940.9z"/>
				<path fill="#F9C3D5" d="M1531.1,207.2c-2.6,0.1-5.3,0.2-7.9,0.4c-2.6,0.1-5.3,0.3-7.9,0.5c-2.7,0.2-5.3,0.4-7.9,0.6l-4.5,0.4
					c-1.7,0.2-3.5,0.4-5.2,0.6c-14,1.5-28,3.7-41.6,6.5c-4.1,0.9-8.2,1.9-12.2,3c-3.9,1.2-7.5,2.5-11.2,3.8
					c-1.8,0.6-3.7,1.3-5.5,1.9c-1.7,0.7-3.5,1.4-5.1,2.1c-3.4,1.5-6.6,3-9.8,4.6c-10-1.8-18.1-1.4-24.3,1
					c-6.2,2.4-10.6,6.6-13.3,12.8c-1,2.3-1.5,4.8-1.6,7.2c-0.1,4.2-0.8,8.4-1.6,12.9c-0.8,4.5-1.6,9.2-1.9,14.1
					c-0.3,4.9-0.1,10,0.9,15c0.9,4.9,2.7,9.7,5.1,13.9c2.7,5.7,6.3,10.7,10.4,15.2c4.1,4.5,8.7,8.5,13.6,12.3
					c-0.7,3.1,1.5,5.6,5,7.5c3.6,1.9,8.5,3.1,13.4,4.2c2.6,1.5,5.5,3,8.2,4.5l4.2,2.3l4.4,2.3l7.2,3.6l7.3,3.5
					c2.5,1.2,4.9,2.4,7.3,3.6c2.4,1.2,4.8,2.4,7.2,3.6l10.1,5.9c9,6.2,17.6,12.8,25.7,19.8c0.8,7-3.2,5.1-5.9,3.3
					c-2.8-2-5.4-4.6-8.3-6.6c-2.9-1.9-6.3-2.8-10.7-1.2l-5.5-2.9l-1.4-0.7l-0.7-0.4l-1-0.5l-4.4-2.2l-4.4-2.2l-2.2-1.1
					c-0.7-0.4-1.6-0.7-2.3-1.1l-9.5-4.3c-3.2-1.4-6.4-2.8-9.6-4.2l-4.9-2.1c-1.6-0.7-3.1-1.5-4.7-2.2c-3.1-1.5-6.2-3-9.3-4.5
					l-8.6-4.6l-3-1.6l-2.8-1.7l-2.7-1.7l-2.7-1.7c-3.5-2.3-6.8-4.6-9.9-7.1c-6.2-4.9-11.7-10-16.5-15.6c-4.8-5.6-8.9-11.8-12.1-18.9
					c-1.6-3.5-2.9-7.3-3.8-11.3c-0.9-4-1.4-8.1-1.6-12.2c-0.3-6.6,0.2-13.5,1.1-20c0.4-3.2,1-6.3,1.5-9.3c0.6-3,1.1-5.8,1.6-8.6
					c1.8-9.4,5.8-17.7,13.2-24.2c7.4-6.4,18.3-10.8,32.9-11.5c2.3-0.1,4.7-1,7-1.5c2.9,2.1,5.7,4.2,9.4,6.9c1.7-1,3.7-1.9,5.6-2.8
					c1.9-0.9,3.7-1.8,5.5-2.6c1.8-0.9,3.6-1.7,5.4-2.6c0.9-0.5,1.9-0.8,2.8-1.2l2.9-1.1c5.1,2.4,7.7,2.4,9.5,1.3
					c0.9-0.6,1.6-1.4,2.2-2.3c0.3-0.5,0.6-1,0.9-1.4c0.3-0.5,0.7-0.9,1-1.4c6.8,1.5,12.9,2,19,2c3.1,0,6.1-0.1,9.2-0.3
					c1.5-0.1,3.1-0.2,4.6-0.4c1.5-0.1,3.1-0.3,4.7-0.4c2.1-0.2,4.1-0.3,6.2-0.5c2-0.1,4.2-0.2,6.1-0.3l0.7,0l0.4,0l0.3,0l1.1,0
					l2.3,0.1c1.5,0.1,3,0.1,4.5,0.3C1519.2,206,1525.2,206.6,1531.1,207.2z"/>
				<path fill="#F7B2C9" d="M1623.4,463.8l2.3,6.5c-3.5,0.2-4.8,1.4-4.9,3.2c-0.1,1.7,0.8,4.1,1.7,6.7l1.3,3.8l0.7,1.9l0.6,1.9
					l2.2,7.8c0.7,2.6,1.3,5.3,1.9,7.9c0.3,1.3,0.6,2.6,0.9,4l0.7,4l0.7,4c0.2,1.3,0.5,2.7,0.6,4.1l0.5,4.3c0.2,1.7,0.4,3.4,0.5,5.1
					c0.2,3.3,0.3,6.7,0.4,10l0.2,5l-0.2,5c-0.1,2-0.1,3.9,0,5.8c0,0.9,0.1,1.8,0.2,2.7c0.1,0.9,0.2,1.7,0.3,2.6
					c0.6,3.4,1.9,6.5,4.3,9.4l-0.4,3c-0.1,1-0.4,1.9-0.6,2.9l-1.3,5.7c-0.4,1.9-0.8,3.8-1.3,5.7c-0.5,1.8-1.1,3.7-1.7,5.4
					c-5.7-0.4-8.1,4.2-11.5,10.5c-3.4,6.3-8.1,12.2-13.9,16.5c-5.1,3.8-10.8,6.4-16.7,8.3c-5.9,1.8-12.1,2.9-18.5,3.5l-2.4,0.2
					l-2.5,0.1l-5,0.2l-5,0.2l-5.1,0l-5.1,0l-2.5,0l-1.6,0l-6.3,0.2c-1.6,0.1-3.1,0.7-4.4,1.5c-1.3,0.8-2.5,1.7-3.7,2.4
					c-12.5,0-24.9,0.3-37.4,1l-10.2-6.4c3-1.3,6.5-2.7,10.4-3.9c6.8,0.7,9.5-0.9,6.3-9.5l9.3-0.1l4.3,6.3l-6.2-0.8l2.8,3.1
					c1-0.8,2.1-1.7,3.3-2.5c4.4,0.1,8.8,0.3,13.1,0.5l13.2,0.7c1.1-1.7,2.3-3,3.6-4c1.3-1,2.5-1.8,4.5-2.3c1.9-0.5,3.8-0.8,5.7-0.9
					c1-0.1,2-0.1,3-0.1c1,0,2,0,3,0.1c4,0.2,8.4,0.9,12.5,1.3c4.2,0.4,8.3,0.5,11.9,0c6.7-1,13.5-2.8,19.5-6.4
					c4.4-2.7,8.2-6.4,10.8-10.9c2.7-4.4,4.4-9.5,5-15c0.3-2.7,0.9-5.7,1.7-8.5c0.7-2.8,1.8-5.3,3.2-6.6c0.6-0.6,1.2-1.2,1.7-1.8
					c0.5-0.6,0.9-1.2,1.2-1.9c0.6-1.3,1-2.7,1.2-4.2c0.2-1.5,0.3-3,0.2-4.7c0-0.8-0.1-1.7-0.1-2.5c-0.1-0.9-0.2-1.8-0.3-2.7
					c-0.4-3-0.7-5.9-0.9-8.8c-0.1-1.4-0.4-2.9-0.5-4.3c-0.2-1.4-0.4-2.9-0.5-4.3c-0.2-1.4-0.3-2.9-0.5-4.3c-0.2-1.4-0.4-2.8-0.6-4.3
					c-0.4-2.6-0.8-5.2-1.3-7.8c-2.1-11.3-5.1-22.4-8.8-33.1l-1.4-4c-0.5-1.3-0.9-2.7-1.5-4l-3.3-7.8c-1.2-2.6-2.4-5.1-3.6-7.6
					l-0.9-1.9l-1-1.9l-2-3.7l8.6-4.4c2.2,2.7,4.1,6,6.5,8.2C1616.8,461.1,1620.3,462.1,1623.4,463.8z"/>
				<path fill="#F8BCD0" d="M1474.6,391.8c4.3-1.6,7.7-0.6,10.7,1.2c2.9,1.9,5.5,4.6,8.3,6.6c2.7,1.9,6.7,3.7,5.9-3.3
					c3,1.6,5.9,3.3,8.8,5.1c1.5,0.8,2.9,1.8,4.3,2.7c1.4,1,2.8,2,4.1,3c9.4,7.7,18.1,16,26.1,25c1.9,2.3,3.9,4.5,5.8,6.9
					c1.8,2.4,3.7,4.6,5.5,7.1l2.6,3.6c0.9,1.2,1.8,2.4,2.5,3.7l2.4,3.8c0.8,1.3,1.6,2.5,2.4,3.8c12.3,20.4,20.8,43.2,24,66.7
					c-0.7,1.2-1.3,2.3-1.7,3.5c-0.4,1.1-0.9,2.2-1.1,3.3c-0.6,2.2-0.7,4.3-0.9,6.5c-0.1,2.2,0,4.4,0,6.6c0,2.2,0,4.5-0.3,6.7
					c-0.3,1.9-0.1,4-0.9,5.3c-0.7,1.4-2.3,2-5.5,0.8c1.5-8.3,1.9-16.7,1.3-24.9l-0.3-3.1c0-0.5-0.1-1-0.2-1.5l-0.2-1.4l-0.5-3.9
					l-0.8-4.1l-0.8-4.1l-1-4.1c-0.4-1.4-0.7-2.7-1-4.1l-1.3-4c-5.9-18.5-15.9-35.7-27.5-51.3c-0.6-0.8-1.1-1.6-1.7-2.3l-1.8-2.2
					c-1.2-1.5-2.3-3-3.6-4.5c-2.6-2.9-5-5.9-7.7-8.7c-2.6-2.9-5.4-5.6-8.2-8.4c-1.4-1.4-2.9-2.7-4.3-4l-2.2-2l-2.2-1.9
					c-5.9-5.2-12.2-10.1-18.6-14.8C1488.3,400.3,1481.5,396,1474.6,391.8z"/>
				<path fill="#F9C5D6" d="M1623.4,463.8c-3.1-1.7-6.6-2.7-9.2-4.9c-2.5-2.2-4.4-5.5-6.5-8.2c-2-4.1-4.3-8-6.5-12
					c-1.1-2-2.4-3.9-3.5-5.8l-1.8-2.9l-0.9-1.4l-1-1.4c-2.6-3.7-5-7.5-7.8-11.1c-1.4-1.8-2.7-3.7-4.1-5.4l-4.3-5.2
					c-0.7-0.9-1.4-1.7-2.2-2.6l-2.2-2.5l-4.5-5l-4.7-4.8l-2.3-2.4c-0.8-0.8-1.6-1.5-2.4-2.3l-4.8-4.6c-1.6-1.5-3.3-3-5-4.4
					c-3.3-3-6.7-5.7-10.1-8.5c-4.8-3.8-10.8-6-16.4-8.7c-5.7-4.7-11.6-9.2-17.6-13.6c-3-2.2-6-4.2-9.1-6.4l-6-4.3
					c-5.7-3.3-11.4-6.4-17.1-9.2c-3.8-2-7.7-3.8-11.3-5.8c-1.9-0.8-3.7-1.7-5.6-2.7c-5.3-2.8-10.4-6.3-14.3-11
					c0.4-1.8,1.1-3.6,2.2-5.4c3.1,4.7,7.8,8.3,13.7,11.4c5.3-2,7.6-2.7,9.9-3.5c2.9,2.9,6.4,5.2,10.1,7.3c3.7,2.1,7.7,4.1,11.6,6.5
					l3,1.8l3,1.9l8.7,5.6c4.8,3,9.4,6.2,14.1,9.4l6.9,5c2.3,1.6,4.5,3.4,6.8,5.2c9.2,7.2,18.3,14.6,27,22.6c8.7,8,17,16.6,24.8,25.8
					l3,3.6c1,1.2,2,2.4,2.9,3.6l5.7,7.5l5.3,7.7c0.9,1.3,1.7,2.6,2.6,3.9l2.5,4C1612.7,441,1618.5,452.2,1623.4,463.8z"/>
				<path fill="#FCDEE8" d="M1200.6,798.9c20.9-2.4,39.9,4.1,58.5,9.7c8.1,2.5,15.9,5.5,23.9,7.2c8.7,1.8,15.6,5.1,22.6,11.2
					c6.6,5.8,15.4,10.5,25.8,8.9c6.6-1,13.5,1.3,20.2,1.9c0.5,5.9,2,9.7,4.7,11.6c2.7,1.9,6.5,1.7,11.6-0.2l3,0l-0.8,7
					c-5.2,0.2-10.7,1.5-15.6,0.2c-7.1-1.8-13.6-6.1-20.6-8.4c-26.5-8.7-57-9.1-81.6-28.2c-0.7-0.6-2-0.3-3.1-0.6l-21.6-5
					c-1.3-8-8.8-6.4-13.8-8C1208.6,804.7,1203,804.8,1200.6,798.9z"/>
				<path fill="#F8BCD0" d="M1387.4,634.1c0.8,2.7,1.8,5.4,2.9,7.9c0.6,1.2,1.2,2.5,1.8,3.6c0.7,1.2,1.4,2.3,2,3.4
					c2.9,4.8,6.1,9.6,9.6,14.6c3.6,5.1,7.2,10.3,10.8,15.3c0.5,0.8,0.7,1.6,0.7,2.4c0,0.8-0.3,1.6-0.6,2.4c-0.3,0.8-0.8,1.7-1.2,2.6
					c-0.3,0.9-0.6,1.8-0.7,2.7c-6.7-6.1-13.3-12.2-17.4-18c-3.6-5-6.9-9.8-9.6-14.5c-1.5-2.4-2.7-4.7-4-7l-1.8-3.5
					c-0.6-1.2-1.2-2.3-1.7-3.5c-2.1-4.8-3.7-10.1-4.5-15.8c-0.4-2.9-0.6-5.8-0.5-8.9c0.1-3,0.6-6.2,1.6-9.4c0.4-1.3,0.7-2.7,1.1-4.2
					c0.4-1.4,0.9-2.9,1.7-4c1.5-2.3,4.1-3.5,8.7-2.4c0.6,0.1,2.8-0.7,2.8-1c0.1-2.6,1.2-4.2,3.1-5.4c0.9-0.6,2-1,3.2-1.4
					c1.2-0.4,2.6-0.7,4.1-0.9c1.5-0.3,3-0.5,4.5-0.7l4.8-0.6c1.6-0.2,3.1-0.4,4.5-0.7c1.4-0.3,2.8-0.6,4-1.1c1.3-0.5,2.6-1,4-1.5
					c1.4-0.4,3-0.8,4.6-1.2c1.6-0.4,3.3-0.7,5-1c1.8-0.3,3.7-0.5,5.5-0.7l2.8-0.3c0.9-0.1,1.8-0.2,2.9-0.2l6.1-0.3
					c3.9-0.3,8.3-0.1,12.4-0.2c15.8-0.2,31.7,0.2,47.2,0.7c-4.4,2.4-8.3,4.9-11.7,7.3c-4.4,1-8.6,2-12.6,3
					c-5.1-0.6-10.9-1.9-15.8-1.8l-4,0l-2,0l-1.9,0.1l-7.8,0.3c-5,0.3-10.1,0.7-14.8,1.2c-4.9,0.5-9.4,1.1-14,1.7
					c-4.5,0.6-9,1.3-13.2,2c-4.3,0.7-8.5,1.2-12.7,2.9c-4.1,1.5-8.1,4.7-10.4,9.1c-1.2,2.2-1.9,4.5-2.3,6.9
					c-0.4,2.4-0.4,4.8-0.3,7.1C1384.6,625.6,1385.8,630,1387.4,634.1z"/>
				<path fill="#F7B0C8" d="M915.3,952.8c13.5-4.9,25-13.4,39.3-11.8c1.3,0.2,2.6-0.2,3.9-0.7c0.6-0.3,1.2-0.6,1.7-1
					c0.5-0.4,1-0.7,1.4-1.2c0.9-1,1.8-2,2.7-3l2.6-2.8c1.8-1.8,3.5-3.6,5.2-5.2l1.3-1.2l1.3-1.1l1.3-1.1c0.4-0.4,0.8-0.8,1.3-1.1
					l2.5-2.1l2.5-1.9c1,2,1.8,2.8,2.3,2.7c0.5,0,0.9-0.7,1.1-1.8c0.2-0.9,0.5-1.7,0.8-2.4c0.4-0.7,0.8-1.3,1.2-1.9
					c0.5-0.6,1-1.1,1.6-1.5c0.6-0.4,1.2-0.8,1.9-1.2c2.6-1.4,5.8-2,9-2.8c2.5-0.6,6.1,2.7,9.1,4.3c-2.3,1.2-4.4,2.4-6.3,3.7
					c-1.9,1.3-3.7,2.6-5.3,3.9c-1.6,1.3-3.1,2.6-4.4,3.8c-1.3,1.2-2.5,2.4-3.9,3.5c-3,2.5-6.4,5.1-10.2,8.3
					c-3.7,3.2-7.8,7-11.7,11.5c-1.8,2-4,3.6-6.5,4.5c-2.6,1.1-5.5,1.5-8.8,1.7c-2.4,0.1-4.8,0.3-7.3,0.7c-2.4,0.3-4.9,0.7-7.3,1.2
					C929.6,958.3,922.1,958.2,915.3,952.8z"/>
				<path fill="#F8B4CB" d="M1446.9,946.2c0-3.6-0.1-7.3-0.2-11.6c1.3,0.5,2.6,0.7,4,0.6c0.7,0,1.5-0.1,2.2-0.2
					c0.7-0.1,1.4-0.3,2-0.5c2.7-0.8,5.2-2.2,7.5-3.7c4.8-3,8.9-6.3,14.5-6.2c1.3,0,2.7,0.1,4.2,0.5c5.7-4.1,10.9-8.7,15.5-13.8
					c4.9-5.3,8.4-10.1,11.7-14.9c6.5-9.5,11.4-18.5,15.7-27c-2.7-2.3-4.7-4-6.6-5.7l1.7-2.5c6,0.2,10.3-1.6,12.8-5.5
					c2.5-3.9,3.1-9.9,1.5-17.6c0.7-1,1.3-2,2-3.1c6.5-3.5,13.1-7.8,19.4-13.4c-0.5,1.5-0.8,2.9-1,4c-0.2,1.1-0.2,2,0.1,2.6
					c0.5,1.3,2.1,1.5,5.2-0.2c-3.6,11.5-8.3,21.5-12.9,30.4c-2.3,4.4-4.6,8.6-6.8,12.5c-2.2,4-4.2,7.6-6.6,11.6
					c-4.8,8.1-10.3,17-18.2,26.4c-1,1.2-2.1,2.3-3.1,3.5c-0.5,0.6-1.1,1.2-1.6,1.8l-1.8,1.9c-1.3,1.4-2.6,2.5-3.9,3.7l-2,1.8l-2,1.7
					c-5.5,4.6-11.4,8.7-17.7,12.2l-2.6,1.3c-5.1,2.6-10.6,4.6-16.2,6.1c-2.8,0.7-5.7,1.3-8.5,1.9
					C1451.8,945.5,1449.5,945.9,1446.9,946.2z"/>
				<path fill="#F7ADC6" d="M1474.5,841.7c-3.1,5.7-6.1,11-9.2,15.6l2.1,2c5.4-2.5,11-6,17.7-10.7c2.1,5.5,1.5,9.6,0,13
					c-1.6,3.4-4.1,6.2-5.9,9.2c-1.8,3.1-3.4,6.4-5.1,9.7c-1.8,3.3-3.8,6.8-6.5,10.1c-3.3-0.1-4.9-4-6.8-7.5c-1-1.8-2-3.5-3.1-4.7
					c-1.2-1.3-2.5-2.1-4.1-2c-1.5-0.1-3.1,0.6-5.5,2c3.2,4.5,6.4,8.3,10.4,12.4c-2.5,2.1-4.6,2.1-6.3,1.2c-1.7-0.9-3-2.8-4.3-5
					c-1.9-3.1-3.2-5.5-4.3-7.2c-1.1-1.8-2-2.8-2.9-3.3c-0.2-0.1-0.5-0.2-0.7-0.3c-0.3-0.1-0.6-0.1-0.9-0.1c-0.6,0-1.4,0.1-2.2,0.3
					c-1.7,0.4-3.9,1.1-7.1,1.9c-2.3-2.6-10.2-0.9-5.7-9.2c1.7-0.3,3.5-1,5-1.5c0.8-0.2,1.5-0.4,2.2-0.5c0.7-0.1,1.3,0,1.9,0.3
					c0.8,0.4,1.6,0.7,2.4,0.9c0.7,0.2,1.4,0.2,2.1,0.2c0.3,0,0.7-0.1,0.9-0.1c0.2-0.1,0.5-0.1,0.7-0.2c0.5-0.2,1-0.5,1.4-0.8
					c1.8-1.3,3.1-3.5,4.2-5.3c0.5,0,0.9-0.2,1.2-0.6l0,0c1.8-0.2,3.6-0.6,5.5-1.1c0.9-0.3,1.8-0.6,2.7-1c0.4-0.2,0.9-0.4,1.3-0.6
					c0.2-0.1,0.4-0.2,0.6-0.3l0.7-0.4C1462.8,854.6,1468.4,848.6,1474.5,841.7z"/>
				<path fill="#FACCDB" d="M1200.6,798.9c2.4,5.9,8,5.8,13.1,7.5c5,1.6,12.5,0,13.8,8l-16.8,0.2c-14.3-3.3-28.6-7.4-43.4-10.7
					c-14.8-3.2-30.1-5.6-45.9-4.9c-3.4-0.4-6.9-0.7-10.4-1.1c-1.7-0.2-3.5-0.4-5.2-0.6c-1.7-0.2-3.5-0.4-5.2-0.7s-3.4-0.6-5.1-0.9
					c-1.7-0.4-3.4-0.8-5.1-1.2c-3.4-0.9-6.7-2.2-10-3.8c-1.6-0.3-3.3-0.5-5-0.7c1.3-0.7,2.5-1.6,3.8-2.3c1.2-0.7,2.5-1.3,3.8-1.3
					c16.9-0.2,33.5-1.1,49.9-0.7c16.4,0.4,32.5,2.1,47.7,7c-3.2,2.7-5,5.2-0.1,8.3c7.1,4.3,11.9-0.5,17.4-3.1
					C1198.8,798,1199.7,798.5,1200.6,798.9z"/>
				<path fill="#F7B0C8" d="M1645.4,214.8c-2.8,0.5-5.7,0.8-8.5,1.2c-2.9,0.4-5.8,0.7-8.9,1.1c-6.1,0.7-12.6,1.2-19.8,1.3
					c8.6-6.7,14.5-12.5,20.4-18.3c2.7-2.6,4-4.9-0.8-6.6c12.4-5.8,24.5-12.8,37.2-18.8c4.2-2,9.8-1,16.5-1.5
					C1675.4,193.7,1660.9,204.7,1645.4,214.8z"/>
				<path fill="#F8BBCF" d="M1559.1,828.1c-3.1,1.6-4.7,1.4-5.2,0.2c-0.3-0.6-0.3-1.5-0.1-2.6c0.2-1.1,0.5-2.5,1-4
					c0.4-1.2,0.7-2.5,1-3.8c0.7-2.3,1.5-4.5,2.2-6.8c0.4-1.2,0.7-2.4,1-3.6c0.3-1.2,0.6-2.4,0.7-3.6c0.3-2.4,0.4-4.8,0-7.2
					c-0.4-2.3-1.4-4.5-2.8-6.5c-0.2-2.9-0.9-5.7-1.5-8.5c-0.5-2.8-1.3-5.5-1.7-8.2c-1.5-9-4.1-17.5-7.4-25.4
					c-3.3-7.9-7.3-15.2-11.8-22.1c-4.4-6.9-9.4-13.2-14.6-19.2c-1.3-1.5-2.6-3-4-4.4l-2-2.1c-0.7-0.7-1.5-1.5-1.9-1.9l-2.9-2.8
					c-0.9-0.8-1.6-1.4-2.5-2.2c-1.2-1-3.5-1.2-5.5-1.9c-0.7-1.9-1.2-3.7-1.6-5.4c-4.4-3.1-8-6.5-10.5-9.6c-3-3.8-4.4-7.4-4-10.3
					c1.1,0,2.2,0.1,3.2,0.1c2.9,2.9,5.7,5.7,8.9,8.8c3.5,3.4,7.6,7,12,10.4c1.8,1.4,3.5,2.8,5.2,4.2l0.7,0.5l0.9,0.8l1.7,1.5
					l0.4,0.4c0.1,0.1,0.3,0.2,0.5,0.5l1.4,1.4l2.7,2.7c7.2,7.4,13.9,15.5,20,24.5c6.1,9,11.5,18.9,15.7,30
					c4.1,11.1,6.9,23.4,7.2,36.4c0,1.7,0,3.4,0,5.1l0,2.6c0,0.9-0.1,1.7-0.2,2.6c-0.3,3.4-0.6,6.9-1.2,10.2
					C1562.9,815.7,1561.1,822.1,1559.1,828.1z"/>
				<path fill="#FAC9D9" d="M1496,588.5c3.5-2.5,7.4-4.9,11.7-7.3c7,0,14.1,0,21.1,0.1l4.8,0.1l4.3,0.1l6.8,0.1l-3.3,0.3l-0.4,0
					l-0.5,0l-1.2,0.1l-2.4,0.2l-10.5,0.7l1.1,3.3l4.5-0.6l3.8-0.6c2.4-0.4,5.4-0.8,7-1.1c3.6-0.8,7.1-1.5,10.4-2.3
					c3.4-0.4,6.6-0.8,9.7-1.7c3.1-0.9,6.1-2.2,8.5-4.5c2-1.9,3.5-4.3,4.4-6.9c1-2.6,1.5-5.4,1.7-8.1c3.3,1.2,4.8,0.6,5.5-0.8
					c0.7-1.4,0.6-3.4,0.9-5.3c0.3-2.2,0.3-4.5,0.3-6.7c0.1-2.2-0.1-4.5,0-6.6c0.2-2.2,0.3-4.3,0.9-6.5c0.3-1.1,0.7-2.2,1.1-3.3
					c0.4-1.1,1-2.2,1.7-3.5c1.7,9.4,2.3,19.3,1.7,29.4c-0.3,5.1-0.8,10.2-2.2,15.2c-0.7,2.5-1.7,4.9-3,7.1c-1.3,2.2-3.1,4.2-5.1,5.7
					c-2.1,1.6-4.5,2.7-7,3.5c-2.5,0.8-5.1,1.2-7.7,1.5c-3,0.3-6.1,0.4-9.2,0.6l-9.4,0.4l-22.8,1c-5.1-1-10.5-2-15.9-3
					C1503.6,588.7,1499.8,588.6,1496,588.5z"/>
				<path fill="#FBD2DF" d="M1468.2,309.1c-2.3,0.7-4.6,1.4-9.9,3.5c-5.9-3.1-10.6-6.7-13.7-11.4c-1.6-3.1-2.3-6.6-2.2-9.9
					c0.1-3.4,1.3-6.6,3.1-9.3c1.8-2.7,4.3-4.9,7.1-6.7c2.8-1.8,5.9-3.3,9.3-4.4c2.8-1,6.8-1.1,10.8-0.8c4,0.3,8,0.9,11.4,1.3
					c-2.1,1-3.9,2.2-5.7,3.4c-1.7,1.2-3.4,2.3-5.3,3.4c-2.4,1.3-4.7,2.8-6.7,4.6c-2,1.8-3.8,3.9-4.9,6.5c-1.1,2.6-1.3,5.5-0.7,8.3
					c0.6,2.8,2.1,5.5,4.2,7.7C1466.2,306.6,1466.9,307.9,1468.2,309.1z"/>
				<path fill="#FBD8E4" d="M1445.2,862.1c-1.1,1.9-2.4,4.1-4.2,5.3c-0.4,0.3-0.9,0.6-1.4,0.8c-0.3,0.1-0.5,0.2-0.7,0.2
					c-0.2,0-0.6,0.1-0.9,0.1c-0.7,0-1.4,0-2.1-0.2c-0.8-0.2-1.5-0.5-2.4-0.9c-0.6-0.3-1.2-0.4-1.9-0.3c-0.7,0-1.4,0.2-2.2,0.5
					c-1.6,0.5-3.3,1.2-5,1.5c-3.1-0.9-6.3-1.9-9.7-2.8c-3.4-0.9-6.7-1.6-10-2.2c-3.4-0.6-6.8-0.8-10.2-0.7c-3.5,0-7,0.5-10.6,1.6
					c-6.3,1.7-8.6-3.3-11.2-7.5c4.1-0.4,8.2-0.7,12.2-1.1c4-0.5,8.1-0.9,12-1.4l9.5,0.7l9.5,0.4c6.4,0.3,11.8,0.3,16.2,0.3
					c1.4,0,2.6-0.1,3.8-0.1c0.3,0,0.6,0,0.8,0c0.2,0,0.3,0.1,0.5,0.1c0.4,0,0.8,0.2,1.3,0.3C1440.2,857.2,1442.2,858.7,1445.2,862.1
					z"/>
				<path fill="#F9C0D3" d="M1488.3,666.4c-1.1,0-2.1-0.1-3.2-0.1c-3.5-2.1-7-4.3-10.7-6.7c-1.8-1.2-3.7-2.5-5.4-3.9
					c-1.7-1.4-3.3-3-4.9-4.7c-1.5-1.7-2.9-3.5-4.1-5.4c-1.2-1.9-2.1-3.9-2.6-6c-0.5-2.1-0.5-4.2,0.1-5.9c0.6-1.8,1.8-3.1,3.2-4
					c2.1-1.2,5.7-1,9.4-0.6c3.8,0.4,7.7,1,11,1.2l10.2,6.4c-1.8,0.3-3.4,0.6-5.1,1c-1.6,0.4-3.2,0.6-4.6,1.4c-1.4,0.7-2.7,2.2-3.2,4
					c-0.5,1.9-0.2,4,0.4,5.9c0.6,1.9,1.4,3.7,2.3,5.3c0.9,1.6,1.8,3.1,2.7,4.4C1485.8,661.4,1487.3,663.8,1488.3,666.4z"/>
				<path fill="#F9C5D6" d="M1528.8,635.7c1.2-0.7,2.3-1.6,3.7-2.4c1.3-0.8,2.8-1.4,4.4-1.5l6.3-0.2l1.6,0l2.5,0l5.1,0l5.1,0l5-0.2
					l5-0.2l2.5-0.1l2.4-0.2c6.4-0.6,12.6-1.7,18.5-3.5c5.9-1.8,11.6-4.5,16.7-8.3c5.9-4.4,10.5-10.2,13.9-16.5
					c3.4-6.2,5.8-10.9,11.5-10.5c-1.8,6.3-4.3,12.3-7.7,18c-1.7,2.8-3.6,5.5-5.8,8c-2.2,2.5-4.6,4.8-7.1,6.9
					c-1.8,1.3-3.6,2.7-5.5,3.8l-1.4,0.9l-1.4,0.8c-1,0.5-2,1-2.9,1.5c-3.9,1.9-8.1,3.3-12.3,4.4c-4.3,1.1-8.7,1.9-13.2,2.3
					c-1.2,0.1-2.3,0.2-3.5,0.3l-3.6,0.1l-7.1,0.2c-2.4,0.1-4.8-0.1-7.2-0.2l-7.3-0.4l-1.6-0.1l-1.1-0.1l-2.1-0.2l-4.2-0.4l-0.3,0
					l-0.1,0l-0.3-0.1l-0.5-0.1l-1.1-0.2c-0.7-0.2-1.4-0.3-2.2-0.5C1532,636.6,1530.5,636.2,1528.8,635.7z"/>
				<path fill="#F7B1C9" d="M1047.4,803.5c-3.4,1-6.8,1.8-10.2,2.5c-3.4,0.7-6.8,1.4-10.2,1.8c-1.7,0.2-3.4,0.4-5.2,0.5
					c-1.7,0.2-3.5,0.3-5.2,0.4c-3.5,0.2-7.1,0-10.8-0.2c-6.7-0.4-13.9,2.3-21.1,3.6c-11.2,2-22.8,4.5-34.7,8.7
					c5-5.9,11.5-9.9,18.4-12.8c6.9-2.9,14.1-4.6,21-6.3c7-1.7,13.8-3.3,20.4-4.5c1.7,1.4,4.6,4.1,4.8,4c6-4.5,11.7-4.5,17-3.3
					c1.3,0.3,2.7,0.7,4,1.1c1.3,0.5,2.6,1,3.9,1.5C1042.3,801.6,1044.9,802.7,1047.4,803.5z"/>
				<path fill="#FDEFF4" d="M1531.1,207.2c-5.9-0.6-11.9-1.2-18-1.6c-1.5-0.1-3-0.2-4.5-0.3l-2.3-0.1l-1.1,0l-0.3,0l-0.4,0l-0.7,0
					c-2,0-4.1,0.1-6.1,0.3c-2.1,0.1-4.1,0.3-6.2,0.5c-1.6,0.1-3.1,0.3-4.7,0.4c-1.5,0.1-3.1,0.3-4.6,0.4c-3.1,0.2-6.1,0.3-9.2,0.3
					c-6.1,0-12.3-0.5-19-2c5.5-1.5,10.8-3.4,16.4-5.2c2.8-0.9,5.6-1.8,8.5-2.7c1.4-0.4,2.9-0.9,4.3-1.3c1.5-0.4,3-0.8,4.5-1.2
					c3-0.8,6.1-1.5,9.2-2.2c3-0.7,6.7-1.3,8.4-1.5c4.3-0.7,8.7-0.8,13.3-0.4c0.7,2.9,1.4,5.8,2.6,10.5c9.6,0.6,19.8,1.6,29.3,2.7
					c-2.1,1.1-4.4,2.3-6.6,3.5C1539.6,207,1535.4,207,1531.1,207.2z"/>
				<path fill="#FBD8E4" d="M1474.5,841.7c-6.1,6.9-11.7,12.9-17.2,16.4l-0.7,0.4c-0.2,0.1-0.4,0.2-0.6,0.3
					c-0.4,0.2-0.9,0.4-1.3,0.6c-0.9,0.4-1.8,0.7-2.7,1c-1.8,0.5-3.7,0.8-5.5,1.1l0,0l0-0.1c0-4.1,0.4-6.2,1.6-7.5
					c0.6-0.6,1.3-1.1,2.2-1.4c0.2-0.1,0.4-0.1,0.6-0.2l0.9-0.3c0.6-0.3,1.3-0.5,2-0.8c2.2-0.9,4.5-2.1,6.8-3.8
					c2.3-1.7,4.4-3.8,6.4-6.3l2.2-2.9l2.2-3.1l4.5-6.4c2.9-4.2,5.6-8.2,7.9-12c2.3-3.8,4.3-7.4,5.8-10.7c1.5-3.3,2.6-6.4,3.3-9.2
					c0.7,1.8,1.9,4,1.5,5.9c-0.9,4.2-2.4,8.8-4.6,13.6c-2.2,4.9-4.9,10-7.9,15.4C1479.4,835.1,1476.8,838.6,1474.5,841.7z"/>
				<path fill="#F9C5D6" d="M1638.2,569.6c-2.5-2.9-3.8-6.1-4.3-9.4c-0.1-0.8-0.2-1.7-0.3-2.6c-0.1-0.9-0.2-1.8-0.2-2.7
					c-0.1-1.9-0.1-3.8,0-5.8l0.2-5l-0.2-5c-0.1-3.3-0.2-6.7-0.4-10c-0.1-1.7-0.3-3.4-0.5-5.1l-0.5-4.3c-0.1-1.4-0.4-2.7-0.6-4.1
					l-0.7-4l-0.7-4c-0.3-1.3-0.6-2.6-0.9-4c-0.6-2.6-1.2-5.3-1.9-7.9l-2.2-7.8l-0.6-1.9l-0.7-1.9l-1.3-3.8c-0.9-2.6-1.8-5-1.7-6.7
					c0.1-1.8,1.4-3,4.9-3.2c6.3,13.6,11.7,28,14.6,43.3l0.5,2.9c0.2,1,0.3,1.9,0.4,2.9l0.4,3c0.2,1.3,0.3,2.5,0.4,3.8
					c0.1,1.3,0.2,2.5,0.3,3.8c0.1,1.2,0.1,2.5,0.1,3.7c0,2.5,0,5,0,7.4C1642.2,551,1640.8,560.7,1638.2,569.6z"/>
				<path fill="#F7ADC6" d="M1481.8,831.9c3-5.4,5.7-10.5,7.9-15.4c2.2-4.9,3.7-9.4,4.6-13.6c0.3-1.9-0.8-4.1-1.5-5.9l0.1-1.1l0-1.1
					c0-0.3,0.1-0.7,0-1l-0.1-1l-0.1-2c-0.1-0.7-0.2-1.4-0.3-2c0-0.3,0-0.7-0.1-1l-0.2-1c-0.1-0.7-0.2-1.4-0.4-2.1
					c-0.4-1.4-0.5-2.8-1-4.3c-0.1-0.4-0.2-0.8-0.2-1.3c0-0.2-0.1-0.4-0.1-0.6l-0.1-0.7c-0.2-0.9-0.2-1.8-0.3-2.8
					c-0.1-1-0.3-1.9-0.4-2.9c-0.1-0.5-0.1-1-0.2-1.5l-0.4-1.5c4.8,5.7,8.7,11.5,11.1,18l0.3,0.6c0.1,0.2,0.1,0.4,0.2,0.6l0.3,1.2
					l0.4,1.3c0.1,0.4,0.3,0.9,0.3,1.3c0.3,1.7,0.7,3.4,0.7,5.2c0.2,3.6-0.3,7.5-1.5,11.5c-1.2,4.1-2.9,8.9-5.8,13.1
					C1492.1,826.2,1487.8,829.9,1481.8,831.9z"/>
				<path fill="#FACADA" d="M1047.4,803.5c-2.6-0.8-5.1-1.9-7.7-3c-1.3-0.5-2.6-1.1-3.9-1.5c-1.3-0.4-2.6-0.8-4-1.1
					c-5.4-1.2-11.1-1.1-17,3.3c-0.2,0.1-3.1-2.6-4.8-4c2.1-1.1,4.1-2.8,6.3-3.2c19.8-3.1,39.6-4.3,59.1-4.2c1.7,0.2,3.3,0.4,5,0.7
					c-2.5,2.2-4.8,4.8-7.5,6.9c-2.4,1.8-5.4,3.1-8.1,4.7l-8.6,0.6C1053.2,803,1050.3,803.1,1047.4,803.5z"/>
				<path fill="#F9C4D6" d="M1543.8,206.9c2.2-1.2,4.5-2.3,6.6-3.5c6.6-0.4,12.7-0.8,18.1-1.6c5.5-0.8,9.4-1.2,15.1,2.9
					c3.7,2.7,9,1.5,13.9,1.4c-1.2,0.8-2.4,1.6-3.6,2.6c-1.2,0.9-2.4,1.7-3.7,2.5c-2.5,1.6-5.1,2.7-7.9,2.8
					c-6.1,0.1-12.2-0.9-18.5-2.3C1557.5,210.3,1550.8,208.4,1543.8,206.9z"/>
				<path fill="#FBD2DF" d="M1498,259.1l4.9-0.8l4.9-0.7c0.8-0.1,1.6-0.2,2.5-0.3l3.3-0.4c2.4-0.3,4.8-0.5,7.2-0.8
					c9.6-1,19.1-1.6,29-2.2c-5.9,1.4-11.6,3.6-17.4,4.1l-7,0.7l-7,0.7c-2.3,0.2-4.7,0.6-6.9,0.9c-0.8,0.1-1.6,0.2-2.3,0.4
					c-0.7,0.1-1.5,0.3-2.2,0.5c-2.9,0.6-5.7,1.5-8.2,2.7c-2.5,1.2-4.6,2.7-6,4.7c-0.7,1-1.9,1.3-3.3,1.4c-1.4,0.2-3,0.2-4.4,0.5
					c-2.1-1.6-3.4-2.9-3.9-3.9c-0.5-1-0.1-1.6,0.9-2.1c2.4-1,5-1.9,7.6-2.9C1492.4,261,1495.1,260,1498,259.1z"/>
				<path fill="#FDEEF3" d="M1440.3,208.7l-2.9,1.1c-0.9,0.4-2,0.7-2.8,1.2c-1.8,0.8-3.5,1.7-5.4,2.6c-1.8,0.9-3.6,1.7-5.5,2.6
					c-1.8,0.9-3.8,1.7-5.6,2.8c-3.7-2.7-6.5-4.8-9.4-6.9c1-0.6,1.9-1.2,2.9-1.7c1-0.5,1.9-1,2.8-1.4c1.7-0.9,3.3-1.6,4.6-2.3
					c2.8-1.2,4.9-2,6.9-2.2C1429.9,203.8,1433.7,205.5,1440.3,208.7z"/>
				<path fill="#FCDEE8" d="M1197.9,797.6c-5.4,2.6-10.3,7.4-17.4,3.1c-5-3-3.2-5.6,0.1-8.3l8.7,2.5L1197.9,797.6z"/>
				<path fill="#FCE3EB" d="M1367.7,849.3c-5.1,2-8.9,2.1-11.6,0.2c-2.7-1.9-4.1-5.7-4.7-11.6l8.1,5.7
					C1362.3,845.6,1365,847.4,1367.7,849.3z"/>
				<path fill="#FCE3EB" d="M1396.8,854.8c-4,0.6-8,0.9-12,1.4c-4,0.4-8.1,0.7-12.2,1.1c-0.9-0.2-1.8-0.6-2.7-1.1l0.8-7
					c4.4,1,8.7,2,13.1,3C1388.1,853.1,1392.5,854,1396.8,854.8z"/>
				<path fill="#F8BCD0" d="M1553.1,581.5c-3.3,0.7-6.7,1.5-10.4,2.3c-1.5,0.4-4.5,0.8-7,1.1l-3.8,0.6l-4.5,0.6l-1.1-3.3l10.5-0.7
					l2.4-0.2l1.2-0.1l0.5,0l0.4,0l3.3-0.3L1553.1,581.5z"/>
				<path fill="#F7ADC6" d="M1459.7,731.5l2.4,2.1l1.2,1c0.4,0.4,0.7,0.6,1,1l3.9,3.8l1,0.9c0.2,0.2,0.3,0.3,0.4,0.4l0.3,0.3
					l1.1,1.2c0.7,0.8,1.5,1.6,2.2,2.4c1.4,1.7,2.8,3.3,4.1,5c0.6,0.8,1.3,1.7,1.9,2.5l1.8,2.5l-1.8-2.5c-0.6-0.9-1.3-1.7-1.9-2.5
					c-1.2-1.7-2.7-3.3-4.1-5c-0.7-0.8-1.5-1.6-2.2-2.4l-1.1-1.2l-0.3-0.3c-0.1-0.1-0.2-0.2-0.4-0.4l-1-0.9l-3.9-3.8
					c-0.3-0.3-0.6-0.6-1-1l-1.2-1L1459.7,731.5z"/>
				<path fill="#F8BCD0" d="M1412.7,688.9c0.3,0.1,0.6,0.3,0.9,0.4c12.8,6.2,19.9,12.1,21.5,21l-5.9-5.3c-1.9-1.8-3.8-3.5-5.6-5.3
					c-1.9-1.8-3.6-3.5-5.3-5.2l-2.6-2.6l-2.5-2.5L1412.7,688.9z"/>
				<path fill="#FDEEF3" d="M1435.2,194.2l-9.5,3.4c-0.8-0.6-1.6-1.3-2.4-1.9l9.7-3.5C1433.7,192.9,1434.4,193.5,1435.2,194.2z"/>
				<path fill="#F8B4CB" d="M1433.5,947.5c0.2-2.5,0.5-5,0.7-7.4l3-0.5c1.6,2.4,3.3,4.8,5.1,7.1c-1.5,0.2-3,0.3-4.5,0.5
					L1433.5,947.5z"/>
				<path fill="#F59AB9" d="M1481.2,630.3c-3.3-0.3-7.3-0.9-11-1.2c-3.7-0.4-7.4-0.6-9.4,0.6c-1.4,0.9-2.6,2.2-3.2,4
					c-0.6,1.8-0.6,3.9-0.1,5.9c0.5,2.1,1.5,4.1,2.6,6c1.2,1.9,2.6,3.7,4.1,5.4c1.5,1.7,3.1,3.2,4.9,4.7c1.7,1.4,3.6,2.7,5.4,3.9
					c3.6,2.4,7.2,4.7,10.7,6.7c-0.4,3,0.9,6.5,4,10.3c2.5,3.2,6.2,6.5,10.5,9.6c-6-2.3-12.8-5-19.1-8.2c-5.2-2.6-10-5.6-13.3-8.6
					c-3.3-3-5.1-6.1-3.8-8.7c0.3-0.6-0.5-1.4-2-2.3c-1.5-0.9-3.7-2-6.3-3.1c-1.9,0.5-3.2,1.2-4,2c-0.8,0.8-1,1.7-0.9,2.7
					c0.3,2,2.1,4.2,4.5,6.4c2.4,2.2,5.4,4.5,8.3,6.6c2.9,2.2,5.6,4.3,7.7,6.6c1,1.1,1.8,2.2,2.5,3.3l-4.2,1.1
					c-2.7-0.9-6.1-1.6-8.7-2.6c-1-0.4-2-0.8-2.7-1.3c-5.3-3.5-9-7.1-13.3-10.7c-2.6-2.1-5.1-4.2-8.3-6.5c-3.2-2.3-7.1-4.6-12.4-7.4
					c0.4,0.6,0.9,1.3,1.4,2c0.5,0.7,1.1,1.4,1.6,2c1,1.4,1.5,2.6,1.4,3.6c-0.2,0.9-1.5,1.6-3.4,2.3c-1.9,0.7-4.4,1.5-6.9,2.7
					c-8.6-5.7-14.1-11.3-18.7-16.7c-1.1-1.4-2.2-2.7-3.2-4c-1.1-1.3-2-2.7-3-4.1c-1.9-2.9-3.6-5.9-5.3-9.2
					c-1.6-4.1-2.8-8.5-3.1-13.2c-0.2-2.3-0.1-4.7,0.3-7.1c0.4-2.4,1.2-4.8,2.3-6.9c2.4-4.3,6.3-7.6,10.4-9.1
					c4.1-1.6,8.3-2.1,12.7-2.9c4.3-0.7,8.7-1.4,13.2-2c4.6-0.6,9.1-1.2,14-1.7c4.7-0.5,9.8-0.9,14.8-1.2l7.8-0.3l1.9-0.1l2,0l4,0
					c4.9,0,10.6,1.2,15.8,1.8c4.9,0.7,10.1,2,14.3,2.1c4.2,0.1,7.5-0.9,9.7-4.8c5.5,0.9,10.8,2,15.9,3c3.1,0.7,6.1,1.5,9.5,2.3
					c1.6,0.4,3.2,0.9,5.1,1.4c1.8,0.5,3.9,1,5.9,1.6l-1.5,0.4l-1.6,0.4c-1.1,0.3-2.1,0.5-3.2,0.7c-2.1,0.4-4.2,0.8-6.4,1.1
					c-4.2,0.6-8.4,0.9-12.5,1.1c-8.2,0.4-16.6,0.1-25-0.1c-8.4-0.2-16.9-0.3-24.6,0.3c-7.6,0.6-14.3,2-18.3,4.7
					c8.5,1.1,17.2,2.9,24.3,3.9c7.2,0.9,12.9,0.9,17.3-1.6c2.7-1.5,4.6-1.9,6.7-0.7c2.1,1.3,4.4,4.2,8.2,9.5l-9.3,0.1
					c-6,0.1-11.9,0.3-18.7,0.5c6,4.2,9.2,6.6,12.4,8.9C1487.7,627.7,1484.3,629,1481.2,630.3z"/>
				<path fill="#F6A6C1" d="M1369.9,856.3c0.9,0.5,1.7,0.8,2.7,1.1c2.6,4.3,4.9,9.2,11.2,7.5c3.6-1,7.1-1.5,10.6-1.6
					c3.4-0.1,6.8,0.1,10.2,0.7c3.4,0.6,6.7,1.2,10,2.2c3.4,0.9,6.6,1.9,9.7,2.8c-4.6,8.3,3.4,6.6,5.7,9.2c3.2,2.7,6.4,5.3,10.8,8.3
					c-5.8,3.6-12.5,6.7-19.5,9.3c-3.5,1.3-7,2.4-10.6,3.4c-1.8,0.5-3.6,1-5.4,1.4c-1.8,0.5-3.6,0.8-5.4,1.1
					c-2.3,0.4-4.7,0.6-7.1,0.5c-2.4,0-4.8-0.4-7.3-0.8c-2.4-0.4-4.9-1-7.3-1.7c-2.4-0.7-4.8-1.5-7.2-2.4c2.4,0,4.8,0,7.2,0
					c2.4,0,4.9-0.1,7.6-0.2c5.2-0.1,10.9-0.4,17.5-0.8c-3.1-2.3-6.1-3.5-9.1-4.1c-3-0.6-5.9-0.8-8.8-0.9c-5.7-0.1-11-0.4-15.3-4.5
					c1.4-4.9,4.6-6.5,8.2-7.4c1.8-0.5,3.7-0.8,5.6-1.3c1.9-0.5,3.6-1.1,5.2-2.3c-1.5-3.2-3.6-4.6-5.9-5.3c-2.3-0.7-4.8-0.8-7.1-1
					c-6.4-0.7-12.7-2.4-18.8-4.3c-3.1-1-6.1-2.1-9.1-3.3c-3-1.1-6-2.4-9.1-3.6c-17.6-7.1-35.7-17.2-57.1-12.1l-26.2-12.4l-11.7-5.9
					c-11.4-3.5-22.9-7-34.6-10.4c0.4-1,0.7-2,1.1-3l16.8-0.2l21.6,5c1,0.2,2.3,0,3.1,0.6c24.6,19.1,55,19.4,81.6,28.2
					c7,2.3,13.5,6.6,20.6,8.4C1359.2,857.8,1364.7,856.4,1369.9,856.3z"/>
				<path fill="#F6A8C3" d="M1501.2,691.6c1.9,0.7,4.3,0.9,5.5,1.9c0.8,0.7,1.6,1.4,2.5,2.2l2.9,2.8c0.4,0.3,1.2,1.2,1.9,1.9l2,2.1
					c1.4,1.4,2.7,2.9,4,4.4c5.2,5.9,10.2,12.3,14.6,19.2c4.4,6.9,8.4,14.2,11.8,22.1c3.3,7.9,5.8,16.5,7.4,25.4
					c0.4,2.7,1.2,5.4,1.7,8.2c0.6,2.8,1.3,5.6,1.5,8.5c-0.5,1.5-1.1,3-1.6,4.4l-0.4,1.1l-0.5,1.1l-1,2.1c-0.7,1.4-1.3,2.8-2,4.1
					c-0.7,1.4-1.5,2.7-2.2,3.9c0.1-1.4,0.6-3,0.8-4.6c0.2-1.5,0.2-2.8-0.3-3.4c-1.1-1.3-2-2.6-2.7-3.8c-0.8-1.3-1.5-2.6-2.1-3.8
					c-0.6-1.3-1-2.6-1.3-3.9c-0.4-1.3-0.7-2.6-1-4c-0.9-5.4-1.4-11.2-2.6-16.9c-2.5-11-7.1-21.1-12.7-30.2
					c-5.6-9.2-12.1-17.6-19.1-25.3c-1.3-1.5-2.3-3.4-3.1-5.3c-0.6-1.6-1.1-3.4-1.6-4.9c-0.6-1.7-1-3.2-1.4-4.8
					C1501.7,694.4,1501.4,693,1501.2,691.6z"/>
				<path fill="#F6A8C3" d="M1533.4,838.1c1.6,7.8,0.9,13.8-1.5,17.6c-2.5,3.9-6.7,5.7-12.8,5.5
					C1523.9,854.1,1528.9,846.5,1533.4,838.1z"/>
				<path fill="#F6A8C3" d="M1555.8,817.9c-0.3,1.3-0.6,2.6-1,3.8c-6.3,5.6-12.9,9.9-19.4,13.4c1.4-5,2.9-10.1,3.5-15.4
					c0.2-1.9,0.6-3.2,1.2-4.2c0.6-1,1.4-1.7,2.3-2.2c1.8-1,4.1-1.4,5.9-2.5c1.3,1.1,2.5,2.3,3.8,3.5
					C1553.4,815.4,1554.6,816.6,1555.8,817.9z"/>
				<path fill="#F8B4CB" d="M1555.8,817.9c-1.2-1.2-2.4-2.4-3.7-3.6c-1.2-1.2-2.5-2.3-3.8-3.5c0.2-1.3,0.5-2.5,0.8-3.8
					c0.7-1.3,1.6-2.6,2.2-3.9c0.7-1.4,1.3-2.7,2-4.1l1-2.1l0.5-1.1l0.4-1.1c0.6-1.5,1.1-2.9,1.6-4.4c1.5,2,2.4,4.2,2.8,6.5
					c0.3,2.3,0.3,4.7,0,7.2c-0.1,1.2-0.4,2.4-0.7,3.6c-0.3,1.2-0.6,2.4-1,3.6C1557.2,813.3,1556.5,815.6,1555.8,817.9z"/>
				<path fill="#F7ADC6" d="M1494.3,838.8c-0.8,1.2-1.3,2.6-2.3,3.6c-0.6,0.6-1.9,0.5-4.5,1c2-2.9,3.3-4.8,4.5-6.6L1494.3,838.8z"/>
				<path fill="#F69FBC" d="M1210.6,814.5c-0.4,1-0.7,2-1.1,3c-5.2,0.1-11.1,1.7-15.6-0.1c-2.6-1.1-5.2-2.1-7.9-3
					c-2.7-0.9-5.4-1.8-8.1-2.5c-5.4-1.6-10.9-2.7-16.5-3.7c-11.2-1.8-22.6-2.6-34.3-2.4c-2.2,0-4.5-0.2-6.7-0.5
					c-2.3-0.3-4.6-0.6-6.8-0.8c2.5-1.9,5.1-3.8,7.7-5.6c15.8-0.7,31.1,1.6,45.9,4.9C1182,807.1,1196.4,811.3,1210.6,814.5z"/>
				<path fill="#F7B1C9" d="M1121.3,798.9c-2.6,1.8-5.1,3.7-7.7,5.6c-16-1.6-32.4-2.5-49-2.4c2.7-1.5,5.7-2.8,8.1-4.7
					c2.7-2,5-4.6,7.5-6.9c3.3,1.7,6.6,2.9,10,3.8c1.7,0.4,3.4,0.9,5.1,1.2c1.7,0.4,3.4,0.7,5.1,0.9s3.5,0.5,5.2,0.7
					c1.7,0.2,3.5,0.4,5.2,0.6C1114.4,798.2,1117.9,798.5,1121.3,798.9z"/>
				<path fill="#F69FBC" d="M1176.8,834.2c-3.1,6.5-6.2,7.3-9.4,6.4c-3.2-0.9-6.3-3.4-9.3-3.7
					C1162.9,831.6,1168.6,830.3,1176.8,834.2z"/>
				<path fill="#F69FBC" d="M1244.1,827.9l11.7,5.9C1250.1,835.5,1247,831.8,1244.1,827.9z"/>
				<path fill="#F6A7C2" d="M1399.5,335.6c-4.9-3.8-9.5-7.8-13.6-12.3c-4.1-4.5-7.7-9.4-10.4-15.2c3.8,0.8,5.8,1.2,7.2,0.7
					c0.7-0.2,1.3-0.6,1.9-1.3c0.3-0.3,0.6-0.7,1-1.2c0.4-0.5,0.8-1,1.3-1.6c1.7,2.3,3.5,4.4,5.6,6.4c1.1-0.7,2.3-1.3,3.4-1.7
					c0.1,0,0.1,0,0.2-0.1c0.1,0,0.1,0,0.3-0.1c0.3-0.1,0.6-0.1,0.8-0.1c0.5-0.1,1.1-0.2,1.6-0.2c1-0.1,2.1-0.2,3.1-0.1
					c2,0.1,3.9,0.4,5.6,1.1c0.9,0.4,1.7,0.8,2.6,1.3c0.8,0.6,1.6,1.2,2.4,1.9c-0.9,2,0.1,3.7,2.5,4.5c2.4,0.8,6.2,0.7,11.2-0.3
					c6.6-1.4,10.4-1.4,13-0.9c2.6,0.5,4,1.5,5.8,2.4c1.9,1.2,3.8,2.3,5.8,3.4l0,0c-8.3,2.1-12.7,3.1-13.7,4
					c-1.1,0.8,1.2,1.5,5.5,2.6c6,0.5,11.6,0.8,16.9,0.9c-2.8,2.1-5.5,4.3-8.1,6.5c-7.4-1.1-15.5-2.3-23.9-4.1c-1.9-1-3.8-1.9-5.7-3
					c-1.3-0.5-2.6-1.1-3.9-1.6c-1.3-0.6-2.7-1.1-4.3-1.6c-3.2-1-7.1-1.8-12.6-2c3.1,4.4,6,7.9,9,11.4
					C1406.5,335.5,1403,335.5,1399.5,335.6z"/>
				<path fill="#F6A0BD" d="M1444.9,318.9c-1.9-0.9-3.3-1.9-5.8-2.4c-2.6-0.5-6.4-0.5-13,0.9c-5,1.1-8.8,1.1-11.2,0.3
					c-2.4-0.8-3.4-2.4-2.5-4.5c3.8-1.7,7.4-3.6,12.1-4.8c4.7-1.3,10.3-2,17.7-1.8c3.9,4.7,9.1,8.1,14.3,11
					C1452.8,318.1,1448.9,318.6,1444.9,318.9z"/>
				<path fill="#F6A3BF" d="M1460.7,246.2c-3.3-0.1-6.6-0.2-10-0.2l-0.9-1.3l-0.7-1.2l2.9,0.6l3,0.7
					C1456.9,245.2,1458.8,245.7,1460.7,246.2L1460.7,246.2z"/>
				<path fill="#F6A7C2" d="M1472.7,227.8c2.6-2.7,5.7-5.3,9.7-7c4-1.8,8.8-2.8,14.3-2.4c-1.8,3.3-3.2,5.8-4.4,7.7
					c-1.3,1.9-2.5,3.1-4,3.7c-1.5,0.6-3.4,0.7-5.8,0.3C1480,229.7,1476.9,228.9,1472.7,227.8L1472.7,227.8z"/>
				<path fill="#F6A0BD" d="M1507.3,616.8c-3.8-5.2-6.1-8.2-8.2-9.5c-2.1-1.3-4-0.9-6.7,0.7c-4.4,2.6-10.1,2.6-17.3,1.6
					c-7.1-0.9-15.8-2.8-24.3-3.9c3.9-2.7,10.6-4.1,18.3-4.7c7.6-0.6,16.2-0.5,24.6-0.3c8.4,0.2,16.8,0.5,25,0.1
					c4.1-0.2,8.3-0.5,12.5-1.1c2.1-0.3,4.2-0.6,6.4-1.1c1.1-0.2,2.1-0.4,3.2-0.7l1.6-0.4l1.5-0.4c-2-0.6-4.1-1.1-5.9-1.6
					c-1.8-0.5-3.5-1-5.1-1.4c-3.4-0.8-6.4-1.6-9.5-2.3l22.8-1l9.4-0.4c3.1-0.1,6.2-0.2,9.2-0.6c2.6-0.3,5.2-0.7,7.7-1.5
					c2.5-0.8,4.9-1.9,7-3.5c2-1.5,3.7-3.5,5.1-5.7c1.3-2.2,2.3-4.6,3-7.1c1.4-5,1.9-10.1,2.2-15.2c0.6-10.1-0.1-20.1-1.7-29.4
					c-3.2-23.4-11.7-46.2-24-66.7c-0.7-1.3-1.6-2.5-2.4-3.8l-2.4-3.8c-0.8-1.3-1.7-2.5-2.5-3.7l-2.6-3.6c-1.7-2.4-3.7-4.7-5.5-7.1
					c-1.9-2.3-3.9-4.6-5.8-6.9c-8-9-16.7-17.3-26.1-25c-1.3-1-2.7-2-4.1-3c-1.4-1-2.8-1.9-4.3-2.7c-2.9-1.7-5.8-3.4-8.8-5.1
					c-8.1-7-16.7-13.6-25.7-19.9c3.2-1.4,6.3-3.6,9.6-4.8c1.6-0.6,3.4-1,5.1-1c1.7,0.1,3.5,0.5,5.3,1.6
					c11.3,6.8,22.7,14.2,31.6,23.9c8.5,9.3,16.9,13.8,29.8,12.4c2.9,3.2,5.8,6.4,8.5,9.7c-2.2,0.1-4.4,0.2-6.8,0.3
					c-2.4,0.2-5.1,0.4-8.2,0.7c6.4,5.5,10.6,12.2,14.8,18.3c1,1.6,2,3.1,3.1,4.6c1.1,1.5,2.2,2.9,3.4,4.3c1.1,1.4,2.4,2.7,3.7,4
					c0.7,0.6,1.4,1.2,2.1,1.8c0.7,0.6,1.5,1.2,2.2,1.8c0.2-1.4,0.2-2.7,0.1-4c-0.1-1.3-0.4-2.5-0.6-3.7c-0.6-2.4-1.3-4.7-2-7.1
					c-0.8-2.6-6.9-4.3-1.7-8.1c5.6,5.3,11,11,16.4,16.7c1.2,1.3,2.7,2.5,4.2,3.6c1.5,1.1,3,2.2,4.4,3.4l2,3.7l1,1.9l0.9,1.9
					c1.2,2.5,2.4,5.1,3.6,7.6l3.3,7.8c0.6,1.3,1,2.6,1.5,4l1.4,4c3.7,10.7,6.7,21.8,8.8,33.1c0.4,2.6,0.8,5.2,1.3,7.8
					c0.2,1.5,0.5,2.9,0.6,4.3c0.2,1.4,0.3,2.9,0.5,4.3c0.2,1.4,0.4,2.9,0.5,4.3c0.2,1.4,0.5,2.9,0.5,4.3c0.3,2.9,0.6,5.8,0.9,8.8
					c0.1,0.9,0.2,1.8,0.3,2.7c0,0.9,0.1,1.7,0.1,2.5c0,1.6,0,3.2-0.2,4.7c-0.2,1.5-0.6,2.9-1.2,4.2c-0.3,0.7-0.7,1.3-1.2,1.9
					c-0.5,0.6-1,1.2-1.7,1.8c-1.4,1.3-2.5,3.8-3.2,6.6c-0.8,2.8-1.4,5.9-1.7,8.5c-0.6,5.5-2.3,10.6-5,15c-2.6,4.4-6.4,8.1-10.8,10.9
					c-5.9,3.6-12.7,5.4-19.5,6.4c-3.6,0.6-7.7,0.4-11.9,0c-4.2-0.4-8.5-1.1-12.5-1.3c-1-0.1-2-0.1-3-0.1c-1,0-2,0-3,0.1
					c-2,0.1-3.9,0.4-5.7,0.9c-2.1,0.5-3.2,1.3-4.5,2.3c-1.3,1-2.5,2.4-3.6,4l-13.2-0.7c-4.3-0.2-8.7-0.4-13.1-0.5l0.1,0.1
					L1507.3,616.8z"/>
				<path fill="#F6A7C2" d="M1555.2,408.6c-12.9,1.4-21.3-3.1-29.8-12.4c-8.9-9.7-20.2-17.1-31.6-23.9c-1.8-1.1-3.6-1.6-5.3-1.6
					c-1.7-0.1-3.4,0.4-5.1,1c-3.3,1.2-6.5,3.4-9.6,4.8l-10.1-5.9c2.7-1.4,4.2-3.2,5.1-5.2c0.9-2,1.2-4.2,1.6-6.3
					c0.3-2.2,0.7-4.3,1.5-6.4c0.8-2.1,2.2-4,4.3-5.9c-5.5-0.1-9.8-1.2-12.2-3.3c-2.4-2-2.8-4.9-0.7-8.8c2.4,0.7,4.7,1.5,6.9,2.2
					c2.2,0.7,4.4,1.3,6.6,1.7c4.4,0.7,8.9,0.2,13.7-3.3l6,4.3c3,2.1,6.1,4.2,9.1,6.4c6,4.4,11.9,8.8,17.6,13.6
					c0.8,1.9,2.1,3.4,3.6,4.9c1.5,1.5,3.1,3,4.5,4.5c2.9,3.1,4.9,6.7,3,11.9c-0.2,0.5,0.7,1.7,1.8,2.8c1.2,1.1,2.6,2.3,3.7,2.6
					c2.8,0.9,5,2.1,6.8,3.7c1.7,1.6,3.1,3.5,4.2,5.5c1.1,2,1.9,4.2,2.6,6.5C1553.9,404.2,1554.6,406.4,1555.2,408.6z"/>
				<path fill="#F6A0BD" d="M1427.5,332.1c8.4,1.8,16.5,3,23.9,4.1c1.4,3.3,4.6,6.6,6.7,10.8c2,4.3,3.2,9.6,1.5,17.1
					c-4.5-2.9-8.5-5.2-12.3-7.6c-3.7-2.3-7.3-4.5-11.2-7c-0.5,1.7-0.7,2.9-0.9,4c-0.2,1.1-0.3,1.9-0.4,2.8l-4.4-2.3l-4.2-2.3
					c-2.8-1.5-5.6-3-8.2-4.5c1.5-2.6,2-4.9,0.9-6.9c-1.1-2-3.8-3.5-8.8-5.1c-3.1-3.5-5.9-7-9-11.4c5.5,0.3,9.4,1,12.6,2
					c1.6,0.5,3,1,4.3,1.6c1.3,0.5,2.6,1.1,3.9,1.6c-0.1,0.6,0.1,1.1,0.1,1.7l0.3,1.7c0.2,1.1,0.4,2.3,0.6,3.5l4-0.4l0.3-1.8l0.1-0.9
					l0.1-0.4L1427.5,332.1z"/>
				<path fill="#F6A7C2" d="M1434.7,356.3c0.1-0.9,0.2-1.7,0.4-2.8c0.2-1.1,0.4-2.4,0.9-4c4,2.5,7.6,4.7,11.2,7
					c3.8,2.3,7.8,4.7,12.3,7.6c1.8-7.5,0.5-12.8-1.5-17.1c-2.1-4.2-5.3-7.5-6.7-10.8c2.6-2.2,5.3-4.4,8.1-6.5
					c4.9-1.1,9.6-2.3,14-3.6c5.7,2.8,11.4,5.8,17.1,9.2c-4.8,3.5-9.3,3.9-13.8,3.3c-2.2-0.3-4.4-0.9-6.6-1.7
					c-2.2-0.7-4.5-1.5-6.9-2.2c-2.2,3.9-1.7,6.8,0.7,8.8c2.4,2.1,6.7,3.1,12.2,3.3c-2.1,1.9-3.4,3.9-4.3,5.9
					c-0.8,2.1-1.2,4.2-1.5,6.4c-0.3,2.1-0.7,4.3-1.6,6.3c-0.9,2-2.3,3.8-5.1,5.2c-2.4-1.2-4.8-2.4-7.2-3.6c-2.4-1.2-4.8-2.4-7.3-3.6
					l-7.3-3.5L1434.7,356.3z"/>
				<path fill="#F6A7C2" d="M1410.1,335.3c5,1.6,7.7,3.1,8.8,5.1c1.1,1.9,0.5,4.2-0.9,6.9c-4.9-1.1-9.8-2.3-13.4-4.2
					c-3.5-1.9-5.7-4.3-5-7.5C1403,335.5,1406.5,335.5,1410.1,335.3z"/>
				<path fill="#F7B1C9" d="M1555.2,408.6c-0.7-2.3-1.3-4.5-2-6.7c-0.7-2.2-1.4-4.5-2.6-6.5c-1.1-2-2.4-3.9-4.2-5.5
					c-1.8-1.6-4-2.8-6.8-3.7c-1.1-0.3-2.5-1.5-3.7-2.6c-1.2-1.1-2-2.3-1.8-2.8c1.9-5.2-0.1-8.9-3-11.9c-1.4-1.6-3.1-3-4.5-4.5
					c-1.5-1.5-2.8-3.1-3.6-4.9c5.5,2.6,11.5,4.8,16.4,8.7c3.4,2.8,6.9,5.6,10.1,8.5c1.7,1.5,3.3,2.9,5,4.4l4.8,4.6
					c0.8,0.8,1.6,1.5,2.4,2.3l2.3,2.4l4.7,4.8l4.5,5l2.2,2.5c0.7,0.8,1.4,1.7,2.2,2.6l4.3,5.2c1.4,1.8,2.7,3.6,4.1,5.4
					c2.8,3.6,5.3,7.4,7.8,11.1l1,1.4l0.9,1.4l1.8,2.9c1.2,1.9,2.4,3.8,3.5,5.8c2.2,4,4.5,7.9,6.5,12l-8.6,4.4
					c-1.4-1.2-2.9-2.3-4.4-3.4c-1.5-1.1-3-2.3-4.2-3.6c-5.4-5.8-10.8-11.5-16.4-16.7c2.4-3.7,4.6-7.4,6.6-10.7
					c-3.3-0.6-6.2-1-8.9-1.4c-2.8-0.3-5.3-0.6-7.8-0.8C1561.1,415,1558.1,411.9,1555.2,408.6z"/>
				<path fill="#F6A0BD" d="M1491.6,626.4c-3.2-2.3-6.4-4.7-12.4-8.9c6.8-0.3,12.8-0.4,18.7-0.5
					C1501.1,625.5,1498.4,627.1,1491.6,626.4z"/>
				<path fill="#F6A0BD" d="M1511.4,622.9c-1.2,0.8-2.3,1.7-3.3,2.5l-2.8-3.1l6.2,0.8L1511.4,622.9z"/>
				<path fill="#F6A0BD" d="M1473.5,326.1c-4.4,1.3-9.1,2.5-14,3.6c-5.3-0.1-10.9-0.3-16.9-0.9c2.4-2.3,5.2-4.5,8.2-6.5l0,0
					c3.9-0.6,7.7-1.3,11.4-2C1465.8,322.3,1469.6,324.1,1473.5,326.1z"/>
				<path fill="#F6A7C2" d="M1462.2,320.3c-3.7,0.7-7.5,1.4-11.4,2c-2-1.1-3.9-2.2-5.8-3.4c4-0.4,7.9-0.8,11.7-1.3
					C1458.5,318.6,1460.3,319.4,1462.2,320.3z"/>
				<path fill="#F6A0BD" d="M1507.4,588.9c-2.2,3.9-5.5,4.9-9.7,4.8c-4.2-0.1-9.3-1.4-14.3-2.1c4-1,8.2-2.1,12.6-3
					C1499.8,588.6,1503.6,588.7,1507.4,588.9z"/>
				<path fill="#F6A7C2" d="M1427.5,332.1l-0.2,0.5l-0.1,0.4l-0.1,0.9l-0.3,1.8l-4,0.4c-0.2-1.2-0.4-2.4-0.6-3.5l-0.3-1.7
					c-0.1-0.6-0.3-1.1-0.1-1.7C1423.7,330.2,1425.6,331.1,1427.5,332.1z"/>
				<path fill="#F6A7C2" d="M1450.7,322.3c-3,2.1-5.7,4.3-8.2,6.5c-4.3-1.1-6.6-1.7-5.5-2.6C1438.1,325.4,1442.4,324.5,1450.7,322.3
					z"/>
				<path fill="#F6A7C2" d="M1563.8,418.4c2.5,0.2,5.1,0.5,7.8,0.8c2.7,0.4,5.6,0.8,8.9,1.4c-2,3.4-4.2,7.1-6.6,10.7
					c-5.1,3.8,1,5.5,1.7,8.1c0.7,2.3,1.4,4.7,2,7.1c0.3,1.2,0.5,2.4,0.6,3.7c0.1,1.3,0.1,2.6-0.1,4c-0.8-0.6-1.5-1.2-2.2-1.8
					c-0.7-0.6-1.4-1.2-2.1-1.8c-1.4-1.3-2.6-2.6-3.7-4c-1.1-1.4-2.3-2.8-3.4-4.3c-1.1-1.5-2.1-3-3.1-4.6
					c-4.3-6.1-8.4-12.8-14.8-18.3c3.1-0.3,5.7-0.5,8.2-0.7C1559.4,418.5,1561.6,418.4,1563.8,418.4z"/>
			</g>
		</g>
	</g>
</g>
<g id="Layer_1">
	<g>
		<path fill="#B2EBF2" d="M1321,906h116l-1.6-2.4c-11.5-17.7-32.9-28.6-56.2-28.6h0c-21.4,0-41.5,9.3-53.5,24.8L1321,906z"/>
		<g>
			<g>
				<path fill="#BCEEF4" d="M1321.5,905.8c4.2,0,22.5-0.2,40.3-0.7c17.9-0.4,35.2-0.9,38.7-0.9c3.6,0,20.7,0.3,36.5,0.6l-1,1.8
					c-2-3.3-4-6.2-6.1-8.9c-2.2-2.5-4.4-4.8-6.4-6.5c-2-1.8-3.7-3-4.9-3.9c-1.3-0.8-2-1.3-2-1.3s-0.5-0.3-1.5-0.9
					c-1-0.5-2.4-1.3-4.2-2.2c-3.5-1.7-8.5-3.6-13.9-4.9c-5.4-1.3-11.2-1.9-16.2-1.9c-4.9,0-9,0.4-11,0.7c-1,0.1-2.4,0.3-4.1,0.7
					c-1.7,0.3-3.6,0.9-5.6,1.4c-4.1,1.2-8.6,3.1-12.7,5.4c-4.1,2.2-7.6,4.8-10,6.8c-1.2,1.1-2.2,1.9-2.8,2.5c-0.6,0.6-1,1-1,1
					c0.4-0.5,0.8-1.1,1.3-1.7l1.3-1.6c0.9-1.1,1.9-2.1,2.9-3.1c-3.5,2.3-6.7,5-9.6,8c-0.8,0.7-1.4,1.5-2.1,2.3
					c-0.7,0.8-1.4,1.6-2,2.4c-1.3,1.5-2.7,3.1-4,4.8c1.8-2.2,3.4-4.3,5.1-6.5c0.9-1.1,1.7-2.2,2.7-3.2l1.4-1.5c0.5-0.5,1-1,1.5-1.5
					c4.1-3.9,8.7-7.2,13.6-9.9c9.9-5.3,21.1-8.2,32.4-8.4c16.4-1,33.5,3.5,47.1,13.9c2.7,2.3,5.1,4.9,7.4,7.6
					c1.1,1.4,2.2,2.8,3.2,4.3c0.5,0.7,1,1.5,1.5,2.2l1.3,2.2l0,0.1c0.5,0.8,0.3,1.9-0.6,2.5c-0.3,0.2-0.6,0.3-1,0.3l-24.8-0.6
					c0,0-4.2-0.2-9.3-0.5c-5.1-0.3-10.9-0.5-14.5-0.5c-7,0-38.1,0-38.1,0C1340.7,905.9,1331.1,905.8,1321.5,905.8z"/>
			</g>
		</g>
	</g>
	
		<path fill="#FFAB91" stroke="#FFAB91" stroke-width="0.25" stroke-linecap="round" stroke-linejoin="round" stroke-miterlimit="10" d="
		M1380.5,817L1380.5,817c-55,0-99.5-44.5-99.5-99.5V684h199v33.5C1480,772.5,1435.5,817,1380.5,817z"/>
	
		<path fill="#B2EBF2" stroke="#B2EBF2" stroke-width="0.25" stroke-linecap="round" stroke-linejoin="round" stroke-miterlimit="10" d="
		M1281,684l30-71l107.5,2.3c18.8,0.4,36,10.9,45,27.4L1480,673v11H1281z"/>
	
		<path fill="#FFF59D" stroke="#B2EBF2" stroke-width="0.25" stroke-linecap="round" stroke-linejoin="round" stroke-miterlimit="10" d="
		M1307,557l56,122l-24.3,4.1c-27.4,4.6-54-11.6-62.6-38l-5.6-17.2C1260.9,598.2,1277.3,566.4,1307,557L1307,557z"/>
	
		<polyline fill="none" stroke="#BA68C8" stroke-width="8" stroke-linecap="round" stroke-linejoin="round" stroke-miterlimit="10" points="
		1385,742 1438,540 1480,555 	"/>
</g>
<g id="Layer_2">
	<g>
		<g>
			<g>
				<g>
					<path fill="#3D3D3C" d="M1373.3,822.4c-10.8-0.6-21.5-2.8-31.6-6.6c-10.1-3.8-19.7-9.1-28.3-15.8
						c-17.2-13.3-30.3-31.6-37.4-52.2c-4.4-14.6-5.8-30-4.3-44.9c1.5-15,6-29.6,13.2-42.6l4.6-8.4l7.3,5.4c5,3.7,10.7,6.7,16.8,8.5
						c0,0,0.3,0.1,0.7,0.2c0.5,0.1,1.2,0.3,2.1,0.5c1.8,0.4,4.4,0.8,7.7,1c3.2,0.2,7,0.1,11.1-0.5c4.1-0.6,8.4-1.7,12.7-3.4
						l-4.6,10.5c-7.9-18.8-16.7-39.4-20-46.7l-5.3-11.8l13.6-0.6c1.1,0,1.9-0.1,2.4-0.1c9.3-0.6,76.6,1.1,85.9,0.6
						c2.4-0.1,6.8-0.1,12.3-0.1l2.7,0l1.9,1.3c3.5,2.4,7.5,5.2,11.3,8.5c3.8,3.3,7.5,7,10.8,10.8c6.6,7.6,11.5,15.6,14.2,20.5
						c1,1.6,1.9,3.7,3,6c1,2.4,2.1,5.1,3,7.9c0.5,1.4,0.9,2.9,1.3,4.4c0.2,0.8,0.4,1.5,0.6,2.3c0.2,0.8,0.3,1.5,0.5,2.3
						c0.7,3.1,1.2,6.2,1.6,9.3c0.8,6.1,0.9,11.7,0.8,15.8c-0.1,2-0.2,3.7-0.3,4.8c-0.1,1.1-0.2,1.8-0.2,1.8s0-1-0.1-2.9
						c-0.1-1.8-0.2-4.5-0.5-7.9c-0.3-3.3-0.9-7.3-1.9-11.8c-0.5-2.2-1-4.5-1.8-6.9c-0.4-1.2-0.7-2.4-1.1-3.7
						c-0.4-1.2-0.9-2.5-1.3-3.7c-3.7-10.1-9.4-20.9-17-30.2c-7.5-9.4-16.8-17.4-25.8-23.1l-0.8-0.5l-1,0c-17.3,0-30.8-0.1-35.5-0.2
						c-14.1-0.5-47.4,0.3-65,0.1l-5.1,0l1.9,4.8c1,2.5,1.8,4.7,2.5,6.4c3.6,10,11.4,28.6,15.9,40.8l2.4-5.4c-3.6,1.2-6.6,1.8-8.7,2
						c-1.7,0.1-4.5,0.5-8.1,0.7c-3.6,0.1-7.9,0-12.3-0.6c-4.5-0.7-9.1-1.9-13.4-3.7c-2.1-0.9-4.2-1.9-6.1-3
						c-1.9-1.1-3.6-2.2-5.2-3.4l-5.3-3.8l-3.2,6c-2.3,4.3-4,8-5.2,10.3c-1.4,2.8-3.7,8.9-5.3,16.8c-1.7,8-2.6,17.8-2,27.5
						c0.5,9.7,2.5,19.2,4.8,26.6c2.3,7.5,4.9,12.8,5.9,15.1c2.1,4.4,5.5,10.3,9.9,16.1c4.4,5.9,9.8,11.7,15.1,16.6
						c2.7,2.4,7.2,6.8,13.1,11.2c5.9,4.4,13.1,8.9,20.5,12.3c7.4,3.4,14.8,5.6,20.3,6.9c2.8,0.6,5.1,1.1,6.7,1.3
						C1372.4,822.2,1373.3,822.4,1373.3,822.4z"/>
					<path fill="#3D3D3C" d="M1373.6,817.4c-8.2-0.7-16.3-2.4-24.1-5.1c-7.7-2.7-15.1-6.3-22-10.7c-2.5-1.7-4.9-3.4-7.2-5.2
						c0,0-0.2-0.1-0.6-0.4c-0.4-0.3-0.9-0.6-1.5-1.2c-1.3-1.1-3.2-2.5-5.4-4.5c-4.3-3.9-9.8-9.5-14.5-16
						c-4.8-6.5-8.8-13.7-11.5-19.8c-2.7-6.1-4.2-11-4.7-12.6c-0.2-0.8-0.7-2.3-1.2-4.2c-0.2-1-0.5-2-0.8-3.2
						c-0.1-0.6-0.3-1.2-0.4-1.9c-0.1-0.6-0.3-1.3-0.4-2c-1.1-5.5-2-12.5-2.1-19.6c-0.1-7.1,0.6-14.5,1.8-20.6
						c1.2-6.1,2.7-11.1,3.8-13.7c1.4-3.6,3.6-8.9,6.4-14.3l1.7-3.3l2.9,2.1c4.4,3.2,9.7,5.9,14.5,7.6c4.7,1.8,8.9,2.6,11,3.1
						c1.6,0.4,6,1.1,11.7,1.1c5.7,0,12.7-1.1,19.1-3.4l-0.8,1.8c-4.7-12.4-9-23.7-9-23.7s-3.8-9.1-9.7-23.4l-0.6-1.4l1.5,0
						c10.9-0.2,28.5-0.3,32.2-0.3c6.6,0,55.4,0,55.4,0l12.9,0.3l0.3,0l0.2,0.2c15,10,27.1,24,35,39.9c0,0-0.2-0.4-0.6-1.1
						c-0.4-0.7-1.1-1.8-1.9-3.1c-0.8-1.4-1.9-2.9-3.1-4.6c-0.6-0.9-1.3-1.8-2-2.7c-0.4-0.5-0.7-1-1.1-1.5c-0.4-0.5-0.8-1-1.2-1.5
						c-3.3-4-7.3-8.3-11.9-12.2c-4.6-4-9.7-7.6-14.7-10.5l1.1,0.3c-16.5,0.5-30.3,0.9-32.9,0.9h-67.6l2.9-4.2l12.8,31.7
						c0.4,1.1,1.9,5,6,15.4l1.1,2.8l-2.8,1c-3.2,1.1-8,2.5-13.6,3.2c-5.6,0.7-11.9,0.7-18.1-0.2c-6.2-0.9-12.2-2.8-17.1-5
						c-5-2.2-8.9-4.9-11.4-6.8l1.7-0.4c-3.8,7.4-5.6,12.6-6.6,15.7c-1,3.1-1.3,4.3-1.3,4.3c-7,25.4-3.9,53.6,8.7,76.9
						c3.7,7.4,8.2,14.5,13.7,20.9c2.7,3.2,5.6,6.2,8.7,9.1l2.4,2.1l1.2,1l1.2,1l2.5,2l2.6,1.9
						C1339.9,809.2,1356.4,815.5,1373.6,817.4z"/>
					<path fill="#3D3D3C" d="M1459.4,770l-0.9,1.3l-1,1.2l-1.9,2.4l-2,2.4c-0.7,0.8-1.3,1.6-2.1,2.3c-9.2,9.9-20.4,18-32.8,23.3
						c-12.4,5.4-25.9,8-39.3,7.8c-13.4-0.2-26.7-3.4-38.8-9.2c-12.1-5.8-22.9-14.1-31.6-24.2c-10.6-12.1-18.2-26.9-21.9-42.6
						c-3.7-15.7-3.7-32.3,0.2-47.9c1.9-7.3,4.7-14.4,8.2-21.1l-5.8,1.4c8.4,6,18.1,10,28.3,11.6c10.2,1.6,20.7,0.9,30.7-2.1
						c0,0-0.5,0.2-1.5,0.5c-1,0.3-2.4,0.8-4.2,1.2c-3.6,0.9-8.8,1.9-15,2.1c-6.1,0.2-13.2-0.4-20.2-2.3c-7-1.9-13.9-5-19.7-8.8
						l9.8-2.4c-5.9,12.4-7.6,23.5-8.2,26.4c-0.4,2.1-1.8,9.1-1.7,18.6c0,4.7,0.4,10,1.3,15.5c0.9,5.5,2.3,11.1,4.2,16.5
						c3.8,10.9,9.6,20.6,14.8,27.1c1.3,1.7,2.5,3.1,3.6,4.4c1.1,1.2,2.1,2.3,2.9,3.2c1.7,1.7,2.7,2.7,2.7,2.7
						c5.1,4.9,10.8,9.1,16.9,12.7c6.1,3.6,12.5,6.5,19.2,8.5c13.4,4.1,27.9,5.1,41.7,2.7c12.1-1.2,24.1-4.9,35-11
						C1441.4,788.3,1451.3,779.9,1459.4,770z"/>
					<path fill="#3D3D3C" d="M1325.3,684.2c9.7-0.2,19.3-2.4,28-6.3l7.3-3.3l-3.1-6.4l-13.1-26.8l-7.6-19.5l-5.2,7.7l18.9,0.3h44.3
						l-39.9,3.9h-23.4l9-13.4l3.7,9.1l15,38l3.6,9l-8.9,3.3C1344.8,683.2,1335,684.7,1325.3,684.2z"/>
					<path fill="#3D3D3C" d="M1470.9,711.2l-0.1,4.7l-0.3,4.7c-1.2,12.5-4.9,24.6-10.8,35.6c-5.9,11-14,20.8-23.7,28.6
						c-9.7,7.8-21,13.6-33,16.8c-12,3.2-24.7,3.8-36.9,1.8c-16-2.9-31.1-10.4-43.2-21.2c-12.1-10.8-21.2-24.8-26.2-40.1
						c-4-11.9-5.5-24.7-4.6-37.2c1-12.5,4.5-24.8,10.3-35.8l-16.7,4.2c9.9,7,21.5,11.5,33.5,13c12,1.5,24.4,0.2,35.8-4l11.5-4.2
						l-4.5-11.6l-6.8-17.2c0,0,1.1,2.7,7.1,17.1l4.6,11.2l-11.7,5c-1.4,0.6-5,2.1-10.2,3.3c-5.2,1.3-12,2.3-19.3,2.1
						c-7.3-0.1-15.3-1.4-22.5-3.8c-7.2-2.4-13.7-5.8-18.7-9.2l20-5c-3.2,6.4-4.8,11.4-5.9,15.1c-1.1,3.7-1.5,6.1-1.9,7.7
						c-0.7,3.2-2,10.4-1.8,19.4c0,9,1.7,19.7,5.2,29.3c3.5,9.7,8.5,18.3,12.9,24c0.6,0.7,1.1,1.4,1.6,2.1c0.5,0.6,1,1.2,1.5,1.8
						c0.9,1.1,1.8,2.1,2.5,2.8c0.7,0.8,1.3,1.4,1.6,1.8c0.4,0.4,0.6,0.6,0.6,0.6c4.6,4.8,9.7,9.1,15.3,12.7
						c5.6,3.6,11.6,6.6,17.8,8.8c12.5,4.5,26.2,5.8,39.5,4.1c10.4-1.3,20.5-4.6,29.8-9.7c9.3-5,17.8-11.8,24.8-19.9
						c7-8.1,12.7-17.5,16.6-27.6C1468.5,733,1470.6,722.2,1470.9,711.2z"/>
					<path fill="#3D3D3C" d="M1431.1,613.8c0,0-89.4-0.3-93.8-0.3c-0.3,0-0.9,0-5.7,0l-15.8,0.1l6.2,14.2c1.6,3.6,13.5,31,20.2,46.5
						l5.2-11.9c-8.6,3.4-15.8,3.9-20.6,3.9c-2.4,0-4.2-0.1-5.5-0.3c-1.2-0.1-1.8-0.2-1.8-0.2c-8.1-1.4-15.7-4.7-22.2-9.5l-8.3-6
						l-5,9.3c-2.3,4.4-4.4,8.9-6.1,13.6c-3.5,8.9-5.8,18.4-7,28c-0.6,4.8-0.8,9.6-0.8,14.5c0,1.2,0,2.4,0.1,3.6
						c0.1,1.2,0.1,2.4,0.2,3.6l0.3,3.6l0.2,1.8l0.3,1.8c3.7,23.6,14.9,46.1,32,63c-8.5-7.9-15.8-17.2-21.6-27.4
						c-2.8-5.1-5.3-10.4-7.4-15.9c-2.1-5.5-3.7-11.2-5-16.9c-1.1-6.4-1.6-12.8-1.6-19.3c-0.1-6.4,0.5-12.8,1.5-19.2
						c2.1-12.7,6.2-25,12.3-36.3l6.5-12.2l11,7.8l0.2,0.2c0,0,0.3,0.2,0.9,0.6c0.5,0.4,1.4,0.9,2.4,1.6c2,1.3,4.9,2.9,8.2,4.2
						c3.3,1.3,6.9,2.3,10.2,2.8c3.3,0.5,6.2,0.6,8,0.5c1.8-0.1,4.5-0.4,7.6-1.1c3.1-0.7,6.6-1.8,9.9-3.3l-7,16
						c-3.8-8.3-7.6-16.5-9-20.1c-1.3-3.3-6.1-14.6-11.1-26.5l-7.7-18.2l20.2-0.3c13.4-0.2,27.7-0.4,30.5-0.4
						c5.4,0,35.6,1.9,35.6,1.9L1431.1,613.8z"/>
					<path fill="#3D3D3C" d="M1326,796.1c0.3,0.2,1.3,1,2.8,2.1c0.8,0.5,1.7,1.1,2.7,1.8c0.5,0.3,1,0.7,1.6,1.1
						c0.6,0.3,1.2,0.7,1.8,1.1c5,3,11.7,6.3,18.8,8.6c7,2.4,14.3,3.8,19.8,4.4c1.4,0.2,2.6,0.3,3.7,0.4c1.1,0.1,2.1,0.2,2.9,0.2
						c1.6,0.1,2.5,0.1,2.5,0.1c5,0,9.9-0.6,14.8-1.4c4.9-0.8,9.7-2.1,14.5-3.6c9.4-3.1,18.4-7.6,26.5-13.4
						c9.5-7.6,17.5-16.9,23.6-27.1c-11.5,16.2-27.7,28.8-46.1,35.7c-7.3,2.9-14.9,4.9-22.7,5.9c-7.8,1-15.7,1.2-23.5,0.3
						c-7.8-0.9-15.5-2.7-22.9-5.4C1339.5,804.1,1332.5,800.5,1326,796.1z"/>
					<path fill="#3D3D3C" d="M1419,797.6c11.1-5,21.2-12.2,29.7-21.2c8.4-9,15.2-19.6,19.7-31.2c-2.1,7.5-5.1,15-9,21.9
						C1448.7,781,1434.5,791.5,1419,797.6z"/>
				</g>
			</g>
		</g>
		<g>
			<g>
				<g>
					<path fill="#3D3D3C" d="M1355.9,622.6l17.4-0.2l15.4,0.5c0,0,12.3-0.2,13.7-0.2c1.4-0.1,11.3,0.2,12.6,0.1
						c1.4-0.1,7.2,0.2,9.2,0.2s7.9,0.6,7.9,0.6s-18.1,0.1-20.5,0c-2.4-0.1-8.5,0.1-10.6,0c-2.1-0.1-6.5,0-7.9-0.2
						c-1.4-0.2-7.5-0.1-9.2-0.2c-1.7-0.2-10.9,0.1-12.3,0.1s-3.8,0.2-5.8,0.2C1363.8,623.3,1355.9,622.6,1355.9,622.6z"/>
					<path fill="#3D3D3C" d="M1355.9,623.4l7,0.1l1.3,0c0,0,8.7,0,9.7,0c1,0,7.8-0.2,9.5-0.1c1.6,0.1,5.5,0.1,6.5,0.2
						c1,0.1,8.5,0.2,8.5,0.2s7.5-0.1,8.5-0.1c1,0,8.2,0,8.2,0l9.8,0.2c0,0-11.8,0.4-12.7,0.4c-1,0-14,0-15,0c-1,0-14.7-0.3-14.7-0.3
						l-11.7-0.1L1355.9,623.4z"/>
					<path fill="#3D3D3C" d="M1341,624.3l1.9,0l24.4,0.2h14.8l12,0.2c0,0-11.5,0.4-12.9,0.4c-1.4,0-15.2-0.1-15.2-0.1h-13.4
						L1341,624.3z"/>
					<polygon fill="#3D3D3C" points="1390.8,625.3 1399,624.8 1404.9,624.8 1411.4,624.8 1405.5,625.4 1400.6,625.4 					"/>
					<path fill="#3D3D3C" d="M1331.7,625.3h1.5h24.2l15.9,0.2l24.2,0.2c0,0-13.6,0.2-15.9,0.2c-2.3,0-15.1,0-15.1,0l-13.6-0.2
						L1331.7,625.3z"/>
					<path fill="#3D3D3C" d="M1416.7,622.5c0,0-13.2,0-13.8,0c-0.6,0-13.2,0.3-13.2,0.3l-6.2-0.1l-7.8-0.3l-9.5-0.1l9.2-0.3
						l10.2,0.2c0,0,4.4,0.2,5.7,0.1c1.3,0,5.4-0.3,6.5-0.3c1.1,0,7.9-0.1,8.7-0.1c0.8,0,5.2,0.3,5.2,0.3L1416.7,622.5z"/>
					<path fill="#3D3D3C" d="M1363.6,624.1c-0.5,0-8.9-0.4-8.9-0.4l-8.6,0l-5.2,0.3l8.7,0.2H1363.6z"/>
					<polygon fill="#3D3D3C" points="1348.6,625 1337.1,624.8 1340.7,624.5 					"/>
				</g>
			</g>
		</g>
		<g>
			<g>
				<g>
					<path fill="#3D3D3C" d="M1381.1,828.4l0.1,10.7l-0.3,9.4c0,0,0.1,7.5,0.1,8.4c0,0.8-0.1,6.9,0,7.7c0,0.8-0.1,4.4-0.1,5.6
						c0,1.3-0.3,4.8-0.3,4.8s0-11.1,0-12.6c0-1.5,0-5.2,0-6.5c0-1.3,0-4,0.1-4.8c0.1-0.8,0-4.6,0.1-5.6c0.1-1,0-6.7,0-7.5
						c0-0.8-0.1-2.3-0.1-3.6C1380.7,833.2,1381.1,828.4,1381.1,828.4z"/>
					<path fill="#3D3D3C" d="M1380.7,828.4l-0.1,4.3l0,0.8c0,0,0,5.3,0,5.9s0.1,4.8,0,5.8c0,1,0,3.4-0.1,4c0,0.6-0.1,5.2-0.1,5.2
						s0,4.6,0,5.2s0,5,0,5l-0.1,6c0,0-0.2-7.2-0.2-7.8c0-0.6,0-8.6,0-9.2c0-0.6,0.2-9,0.2-9l0-7.2L1380.7,828.4z"/>
					<path fill="#3D3D3C" d="M1380.1,819.3l0,1.1l-0.1,15v9l-0.1,7.3c0,0-0.2-7.1-0.2-7.9c0-0.8,0-9.3,0-9.3v-8.2L1380.1,819.3z"/>
					<polygon fill="#3D3D3C" points="1379.5,849.7 1379.8,854.7 1379.8,858.3 1379.8,862.3 1379.4,858.7 1379.4,855.7 					"/>
					<path fill="#3D3D3C" d="M1379.5,813.5v0.9v14.8l-0.1,9.7l-0.1,14.8c0,0-0.1-8.3-0.1-9.7s0-9.2,0-9.2l0.1-8.3L1379.5,813.5z"/>
					<path fill="#3D3D3C" d="M1381.2,865.6c0,0,0-8.1,0-8.5c0-0.4-0.2-8.1-0.2-8.1l0.1-3.8l0.2-4.8l0-5.8l0.2,5.6l-0.1,6.2
						c0,0-0.1,2.7-0.1,3.5s0.2,3.3,0.2,4s0.1,4.9,0.1,5.3s-0.2,3.2-0.2,3.2L1381.2,865.6z"/>
					<path fill="#3D3D3C" d="M1380.3,833c0-0.3,0.3-5.4,0.3-5.4l0-5.2l-0.2-3.2l-0.1,5.3V833z"/>
					<polygon fill="#3D3D3C" points="1379.7,823.9 1379.8,816.8 1380,819 					"/>
				</g>
			</g>
		</g>
		<g>
			<g>
				<g>
					<path fill="#3D3D3C" d="M1331.4,908.8l-10.8,0.2c-0.3,0-0.5,0-0.8-0.1l-0.1,0l0,0c-1.5-0.5-2.3-2-1.9-3.5l0,0l0-0.1
						c1.3-4.3,3.6-8.2,6.4-11.6c0.7-0.8,1.4-1.7,2.2-2.5l2.3-2.3c0.8-0.7,1.7-1.4,2.5-2.1c0.4-0.3,0.8-0.7,1.3-1l1.3-0.9
						c4.6-2.9,9.5-5.3,14.6-7c5.1-1.7,10.3-2.9,15.5-3.7c0,0,1.6-0.2,4-0.6c1.2-0.2,2.6-0.3,4.1-0.5c0.8-0.1,1.6-0.2,2.4-0.2
						c0.8-0.1,1.6-0.1,2.5-0.1c3.3-0.2,6.8-0.1,9.6-0.1c2.8,0.2,4.9,0.3,5.6,0.4c0.7,0.1,2.5,0.3,4.9,0.7c2.3,0.5,5.2,1.1,8,1.9
						c5.6,1.6,11,4,12.3,4.6c0.7,0.3,1.8,0.8,3.3,1.6c0.7,0.4,1.5,0.9,2.3,1.3c0.8,0.5,1.6,1,2.4,1.6c0.8,0.6,1.6,1.2,2.4,1.7
						c0.8,0.6,1.5,1.2,2.2,1.8c1.4,1.1,2.5,2.3,3.3,3c0.8,0.7,1.8,2,2.9,3.4c0.6,0.7,1,1.5,1.5,2.3c0.5,0.8,1,1.6,1.3,2.4
						c0.4,0.8,0.7,1.6,1,2.4c0.3,0.7,0.5,1.5,0.7,2c0.3,1.2,0.6,1.9,0.6,1.9s-0.2-0.6-0.6-1.5c-0.2-0.5-0.4-1.1-0.7-1.8
						c-0.3-0.7-0.7-1.4-1.2-2.2c-1.8-3.2-4.8-7-8.6-10.2c-3.8-3.3-8.2-5.9-11.9-7.7c-0.9-0.5-1.8-0.9-2.6-1.3
						c-0.8-0.3-1.6-0.7-2.3-0.9c-1.4-0.6-2.4-1-3-1.2c-1.2-0.4-2.7-1-4.6-1.5c-1.9-0.5-3.9-1.1-6.1-1.4c-1-0.2-2.1-0.4-3.1-0.6
						c-1-0.1-2-0.3-2.9-0.4c-0.9-0.1-1.8-0.3-2.5-0.3c-0.7-0.1-1.4-0.1-1.9-0.2c-1-0.1-2.4-0.3-3.9-0.4c-1.5-0.1-3.1-0.1-4.7-0.2
						c-3.1,0-6,0.1-7.5,0.1c-0.7,0-2,0-3.6,0.1c-1.6,0.2-3.6,0.4-5.5,0.7c-1.9,0.4-3.9,0.7-5.6,1.1c-1.7,0.4-3.1,0.7-4,0.9
						c-0.9,0.2-2.6,0.7-4.8,1.5c-2.2,0.9-4.8,1.9-7.3,3.2c-0.6,0.3-1.3,0.6-1.9,0.9c-0.6,0.4-1.2,0.7-1.7,1c-0.6,0.3-1.1,0.7-1.7,1
						c-0.5,0.3-1,0.7-1.5,1c-0.9,0.6-1.7,1.2-2.4,1.7c-0.6,0.5-1.1,0.9-1.4,1.1c-2.3,1.7-5.7,5.4-8.2,8.9c-0.3,0.4-0.6,0.8-1,1.4
						c-0.4,0.5-0.8,1.2-1.2,1.9c-0.2,0.4-0.5,0.7-0.7,1.1c-0.3,0.4-0.5,0.8-0.7,1.2c-0.4,0.9-0.8,1.8-1.3,2.7
						c-0.4,0.8,0,1.8,0.8,2.2l0.1,0l0.3,0.1l0,0c0.1,0,0.2,0.1,0.3,0.1l0.3,0C1325.9,908.3,1331.4,908.8,1331.4,908.8z"/>
					<path fill="#3D3D3C" d="M1331.4,907.3l-10.8-0.2l0,0c-0.1,0-0.2,0-0.3,0l0,0l-0.1,0c-0.5-0.2-0.7-0.7-0.6-1.2l0-0.1l1.3-3.1
						c0.4-0.8,0.9-1.5,1.3-2.3c0,0,0.1-0.2,0.4-0.7c0.2-0.5,0.6-1,1.1-1.7c0.2-0.4,0.5-0.7,0.8-1.1c0.3-0.4,0.6-0.8,0.9-1.2
						c0.7-0.8,1.5-1.7,2.3-2.6c3.3-3.5,7.4-6.2,8.2-6.8c0.2-0.1,0.6-0.4,1-0.7c0.5-0.3,1.1-0.7,1.8-1.1c0.7-0.4,1.5-0.9,2.3-1.4
						c0.9-0.4,1.8-0.9,2.7-1.4c0.5-0.2,0.9-0.5,1.4-0.7c0.5-0.2,1-0.4,1.4-0.6c0.9-0.4,1.9-0.8,2.7-1.1c1.7-0.6,3.1-1,3.9-1.3
						c0.8-0.2,1.9-0.5,3.1-0.8c1.2-0.3,2.5-0.7,3.8-0.9c1.3-0.2,2.6-0.5,3.6-0.7c1.1-0.2,1.9-0.2,2.4-0.3c0.5,0,1.8-0.2,3.5-0.3
						c1.7-0.1,3.8-0.3,5.8-0.3c2,0,4-0.1,5.4,0c1.5,0.1,2.4,0.1,2.4,0.1s0.9,0,2.4,0c1.4,0.1,3.4,0.3,5.4,0.4c2,0.3,4.1,0.5,5.7,0.8
						c1.7,0.3,3,0.6,3.5,0.7c0.5,0.1,1.7,0.4,3.3,0.8c0.8,0.2,1.7,0.4,2.6,0.7c0.9,0.3,1.8,0.6,2.8,0.9c1.9,0.6,3.6,1.4,4.9,1.8
						c0.6,0.3,1.2,0.5,1.5,0.7c0.4,0.2,0.6,0.3,0.6,0.3c5.9,2.9,11.5,6.7,16,11.5c0,0-1.1-1-2.8-2.5c-0.9-0.7-1.9-1.5-3.1-2.3
						c-1.2-0.8-2.5-1.6-3.8-2.4c-1.4-0.7-2.7-1.5-4-2.1c-1.3-0.6-2.6-1.2-3.7-1.7c-2.3-0.9-4-1.5-4.5-1.7c-0.5-0.1-2.3-0.8-5-1.6
						c-1.3-0.3-2.8-0.8-4.4-1.2c-1.6-0.3-3.3-0.7-5.1-1c-1.7-0.2-3.5-0.5-5.1-0.7c-1.6-0.1-3.2-0.3-4.6-0.4
						c-2.7-0.1-4.7-0.1-5.2-0.2c-0.5-0.1-2.6,0-5.4,0c-2.8,0.1-6.4,0.3-10,0.8c-3.5,0.5-6.9,1.2-9.5,1.8c-1.3,0.3-2.3,0.6-3,0.8
						c-0.7,0.2-1.1,0.3-1.1,0.3c-1.9,0.6-3.7,1.3-5.5,2c-0.9,0.3-1.8,0.8-2.7,1.2c-0.9,0.4-1.8,0.8-2.6,1.3c-1.7,1-3.5,1.9-5.1,3
						c-1.7,1-3.2,2.3-4.7,3.5c-4.9,3.9-9.1,8.9-11.4,14.9c-0.1,0.4,0,0.8,0.4,0.9l0,0l0.1,0l0,0c0.1,0,0.1,0,0.2,0l0.1,0
						L1331.4,907.3z"/>
					<path fill="#3D3D3C" d="M1361.4,905.5l-3.7,0l-37.1-0.3l0.3,0l0,0l0.6,1.2c1.3-3.7,3.4-7.1,5.9-10.1c3.1-3.7,6.9-6.8,11-9.4
						c4.1-2.6,8.6-4.5,13.2-6.2c7.6-2.5,15.5-3.8,23.4-4.2c0,0-0.4,0-1,0.1c-0.6,0.1-1.5,0.2-2.6,0.3c-0.5,0.1-1.1,0.1-1.8,0.2
						c-0.6,0.1-1.3,0.2-2,0.3c-1.4,0.3-2.8,0.4-4.3,0.8c-1.5,0.4-3,0.7-4.4,1.1c-1.4,0.4-2.7,0.8-3.9,1.2c-2.3,0.9-4.2,1.5-4.8,1.7
						c-0.3,0.1-1,0.4-1.9,0.8c-0.9,0.4-2.1,0.8-3.4,1.5c-0.7,0.3-1.4,0.6-2.1,1c-0.7,0.3-1.4,0.8-2.2,1.2c-0.7,0.4-1.5,0.8-2.3,1.3
						c-0.7,0.5-1.5,1-2.2,1.5c-0.8,0.5-1.4,1-2.1,1.5c-0.7,0.5-1.3,1-1.9,1.6c-0.6,0.6-1.1,1.1-1.7,1.6c-0.5,0.5-1,1-1.4,1.5
						c-0.8,1-1.5,1.7-2,2.3c-0.4,0.6-0.7,0.9-0.7,0.9l-1.3,1.8l-1,1.9l-0.5,1l-0.4,1l-0.8,2l-1.3-2.6l0,0l-0.6-0.1h17.6
						L1361.4,905.5z"/>
					<path fill="#3D3D3C" d="M1368.8,878.5c5.2-1,10.6-1.7,16-1.8c1.9,0.1,3.9,0.4,5.8,0.5c1.9,0.3,3.8,0.6,5.7,0.9l3.2,0.6
						c0.5,0.1,1.1,0.2,1.6,0.3l1.6,0.4l3.1,0.8l3,1l-2.8-0.6c-0.9-0.2-1.9-0.3-2.9-0.5c-1-0.1-1.9-0.3-2.9-0.4l-2.9-0.3
						c-1.5-0.4-3.1-0.5-4.7-0.8c-1.6-0.3-3.2-0.4-4.7-0.5C1381.5,877.7,1375.1,877.8,1368.8,878.5z"/>
					<path fill="#3D3D3C" d="M1380.3,903.4h-3h-48.7l-8-0.1l0.8,0.1l0,0l1.8,3.5c2.4-6.8,7.6-12.5,13.9-16.6l2.4-1.6l2.5-1.4
						c0.8-0.5,1.7-0.9,2.6-1.3c0.9-0.4,1.7-0.8,2.6-1.2l2.7-1.1c0.5-0.2,0.9-0.4,1.4-0.5l1.4-0.4l2.8-0.9l2.8-0.7
						c7.6-1.9,15.4-2.7,23.2-2.5c0,0-0.4,0-1.1,0c-0.7,0-1.8,0.1-3,0.1c-0.6,0-1.3,0.1-2.1,0.1c-0.7,0.1-1.5,0.2-2.3,0.2
						c-0.8,0.1-1.6,0.2-2.5,0.3c-0.9,0.1-1.7,0.3-2.6,0.4c-0.9,0.1-1.8,0.3-2.6,0.4c-0.9,0.2-1.7,0.4-2.6,0.6
						c-0.9,0.2-1.7,0.4-2.5,0.6c-0.8,0.2-1.6,0.4-2.3,0.7c-0.7,0.2-1.4,0.4-2.1,0.6c-0.6,0.2-1.2,0.4-1.8,0.6
						c-1.1,0.4-1.9,0.6-2.4,0.8c-0.5,0.2-1.3,0.5-2.3,0.9c-0.5,0.2-1.1,0.4-1.6,0.7c-0.6,0.2-1.2,0.6-1.8,0.9c-0.6,0.3-1.3,0.6-2,1
						c-0.7,0.3-1.4,0.8-2.1,1.2c-0.7,0.4-1.4,0.8-2.1,1.2c-0.7,0.5-1.4,0.9-2,1.4c-0.7,0.4-1.3,0.9-1.9,1.4c-0.6,0.5-1.2,1-1.8,1.4
						c-1,1-2,1.9-2.8,2.7c-0.7,0.8-1.3,1.5-1.7,2c-0.2,0.2-0.4,0.4-0.5,0.6c-0.1,0.1-0.1,0.2-0.1,0.2c-1.9,2.4-3.3,5-4.3,7.7
						l-2.5-4.9l0,0l-1.2-0.2l17.2,0.3L1380.3,903.4z"/>
					<path fill="#3D3D3C" d="M1420.6,881.3c0,0-0.4-0.2-1.1-0.5c-0.7-0.3-1.7-0.8-2.8-1.4c-1.2-0.6-2.6-1.1-4.1-1.7
						c-1.5-0.6-3.2-1.1-4.9-1.7c-6.7-2.2-13.9-3.1-14.5-3.2c-0.2,0-0.7-0.1-1.5-0.2c-0.8-0.1-2-0.1-3.3-0.2c-0.7,0-1.4-0.1-2.1-0.1
						c-0.7,0-1.5,0-2.3,0c-1.6,0-3.3-0.1-4.9,0c-1.7,0.1-3.3,0.1-4.9,0.3c-1.5,0.2-3,0.3-4.2,0.4c-1.2,0.1-2.2,0.3-2.9,0.4
						c-0.7,0.1-1.1,0.2-1.1,0.2c-2.1,0.2-4.2,0.7-6.3,1c-1.1,0.2-2.1,0.5-3.1,0.7c-1,0.3-2.1,0.5-3.1,0.8
						c-5.2,1.4-10.3,3.3-15.2,5.9l-2.2,1.2l-2.1,1.4c-1.4,0.9-2.8,2-4.1,3c-0.3,0.3-0.7,0.5-1,0.8l-0.9,0.9l-1.9,1.8
						c-0.6,0.6-1.2,1.3-1.7,1.9c-0.6,0.7-1.2,1.3-1.7,2c0.4-0.7,1-1.4,1.5-2l1.6-2l1.8-1.8c0.6-0.6,1.2-1.2,1.8-1.7l1.9-1.6
						c0.3-0.3,0.6-0.5,1-0.8l1-0.7c1.3-1,2.7-2,4.1-2.8c6.4-3.5,13.2-5.9,20.1-7.5c0,0,0.6-0.1,1.5-0.3c0.9-0.2,2.1-0.4,3.4-0.6
						c1.3-0.3,2.7-0.4,3.9-0.6c1.2-0.2,2.3-0.3,3-0.4c0.7-0.1,1.7-0.2,2.9-0.4c1.2-0.1,2.6-0.4,4-0.5c1.4-0.1,2.8-0.2,3.9-0.3
						c1.2-0.1,2.2,0,2.7,0c0.6,0,1.9,0,3.6,0.1c1.7,0.1,3.8,0.2,5.8,0.4c2,0.3,4,0.5,5.6,0.8c1.6,0.3,2.8,0.5,3.2,0.6
						c0.8,0.1,3.5,1,5.9,1.8c1.2,0.4,2.3,0.9,3.2,1.2c0.8,0.3,1.4,0.6,1.4,0.6c1.6,0.7,3.2,1.4,4.7,2.2
						C1417.6,879.6,1419.1,880.4,1420.6,881.3z"/>
					<path fill="#3D3D3C" d="M1322.5,902c-0.1,0.1-0.3,0.4-0.6,1c-0.3,0.7-0.7,1.6-1.3,3.1l0,0l0,0l0,0c3.7,0.3,13.4,0.7,13.4,0.7
						l17.3,0.1l10.6-0.6l-17.6-0.3h-23.6l0.1,0l0,0l0.1,0.2l0.8-2.1l0.4-1.1C1322.2,902.6,1322.3,902.3,1322.5,902z"/>
					<polygon fill="#3D3D3C" points="1346.1,904 1369.4,904.4 1362.1,905 					"/>
				</g>
			</g>
		</g>
		<g>
			<g>
				<g>
					<path fill="#3D3D3C" d="M1330.8,681.3l33.3-0.5l29.3,0.9c0,0,23.5-0.3,26.1-0.5c2.6-0.2,21.5,0.3,24.1,0.2
						c2.6-0.2,13.7,0.3,17.6,0.3s15,1.1,15,1.1s-34.6,0.2-39.1,0c-4.6-0.2-16.3,0.2-20.2,0c-3.9-0.2-12.4,0-15-0.3
						c-2.6-0.3-14.3-0.2-17.6-0.5c-3.3-0.3-20.9,0.2-23.5,0.2s-7.2,0.3-11.1,0.3C1345.8,682.5,1330.8,681.3,1330.8,681.3z"/>
					<path fill="#3D3D3C" d="M1330.8,682.7l13.3,0.3l2.4,0.1c0,0,16.6,0,18.5,0c1.9,0,14.9-0.3,18-0.2s10.6,0.2,12.4,0.3
						c1.9,0.2,16.2,0.5,16.2,0.5s14.3-0.2,16.2-0.2s15.6,0,15.6,0l18.7,0.5c0,0-22.4,0.8-24.3,0.8s-26.8,0-28.6,0s-28-0.6-28-0.6
						l-22.4-0.2L1330.8,682.7z"/>
					<path fill="#3D3D3C" d="M1302.4,684.4l3.5,0l46.6,0.4h28.2l22.9,0.3c0,0-22,0.8-24.6,0.8c-2.6,0-29-0.2-29-0.2h-25.5
						L1302.4,684.4z"/>
					<polygon fill="#3D3D3C" points="1397.4,686.4 1412.9,685.3 1424.1,685.5 1436.6,685.5 1425.4,686.6 1416,686.6 					"/>
					<path fill="#3D3D3C" d="M1284.5,686.3h2.9h46.1l30.2,0.5l46.1,0.5c0,0-25.9,0.5-30.2,0.5c-4.3,0-28.8,0-28.8,0l-25.9-0.5
						L1284.5,686.3z"/>
					<path fill="#3D3D3C" d="M1446.7,681c0,0-25.1-0.1-26.3-0.1c-1.2,0-25.1,0.5-25.1,0.5l-11.8-0.2l-14.8-0.5l-18.2-0.2l17.6-0.5
						l19.4,0.5c0,0,8.5,0.3,10.9,0.2c2.4-0.1,10.3-0.5,12.4-0.5s15.1-0.2,16.7-0.2s10,0.5,10,0.5L1446.7,681z"/>
					<path fill="#3D3D3C" d="M1345.3,684c-0.9-0.1-17-0.8-17-0.8l-16.4-0.1l-10,0.6l16.7,0.3H1345.3z"/>
					<polygon fill="#3D3D3C" points="1316.9,685.8 1294.8,685.4 1301.7,684.8 					"/>
				</g>
			</g>
		</g>
		<g>
			<g>
				<g>
					<path fill="#3D3D3C" d="M1395.1,690.4l10.6-42.9l11.1-37.4c0,0,7.5-30.2,8.2-33.6c0.7-3.4,7.6-27.5,8.3-30.9
						c0.2-1.2,0.9-3.5,1.7-6.4l0-0.1c0.5-1.6,2.2-2.6,3.8-2.1c0.1,0,0.1,0,0.2,0.1c5.4,1.9,12.6,4.5,15.8,5.5
						c4.9,1.6,18.5,7.5,18.5,7.5s-20.3-6.5-34.9-11.1c-0.7-0.2-1.3,0.1-1.6,0.8c0,0,0,0,0,0.1c-1.9,7.1-3.4,12.9-4,14.7
						c-1.7,5.8-5.3,21-6.8,26c-1.5,5-4.2,15.9-5.5,19.2c-1.3,3.2-5,18.4-6.5,22.4c-1.5,4.1-6.8,26.8-7.7,30.2
						c-0.9,3.3-2,9.3-3.3,14.3C1401.8,671.5,1395.1,690.4,1395.1,690.4z"/>
					<path fill="#3D3D3C" d="M1396.9,690.9l4.8-17l0.9-3.1c0,0,5.5-21.4,6.2-23.8c0.6-2.4,4.6-19.3,5.9-23.2
						c1.2-3.9,3.8-13.5,4.6-15.9c0.8-2.3,6-20.6,6-20.6s4.6-18.4,5.2-20.8c0.6-2.4,5.2-20,5.2-20l1.9-6.6l0,0c0-0.2,0.2-0.3,0.4-0.2
						l0,0l16.9,5.9c0,0-9.1-2.6-17.2-4.9l0.9-0.5c-1.5,6.7-2.9,12.9-3.2,13.9c-0.6,2.4-9,34.4-9.6,36.8
						c-0.7,2.4-10.2,35.7-10.2,35.7l-7.7,28.7L1396.9,690.9z"/>
					<path fill="#3D3D3C" d="M1389.6,727.9l1.2-4.5l16.3-59.7l9.5-36.2l8.1-29.3c0,0-6.4,28.5-7.3,31.9c-0.9,3.4-10,37.2-10,37.2
						l-8.6,32.8L1389.6,727.9z"/>
					<polygon fill="#3D3D3C" points="1424.2,606.6 1428,586.3 1432,572 1436.2,556 1433.8,570.7 1430.6,582.7 					"/>
					<path fill="#3D3D3C" d="M1386,751.6l1-3.7l15.5-59.2l10.8-38.7l16.1-59c0,0-8.1,33.4-9.6,39c-1.5,5.5-9.7,37-9.7,37l-9.3,33.1
						L1386,751.6z"/>
					<path fill="#3D3D3C" d="M1433.8,541.4c0,0-8.6,32.2-9,33.8c-0.4,1.6-7.8,32.4-7.8,32.4l-4.3,15.1l-5.7,18.9l-6.3,23.3l5.2-22.7
						l7.1-24.7c0,0,3.2-10.8,4-13.9c0.7-3.1,2.8-13.4,3.5-16.1c0.7-2.7,4.8-19.5,5.3-21.5c0.5-1.9,4-12.7,4-12.7L1433.8,541.4z"/>
					<path fill="#3D3D3C" d="M1403.6,672.7c-0.4,1.2-6.8,21.5-6.8,21.5l-5.6,21l-2.6,13l6-21.3L1403.6,672.7z"/>
					<polygon fill="#3D3D3C" points="1396.3,709.8 1388.3,738 1389.9,728.9 					"/>
				</g>
			</g>
		</g>
		<g>
			<g>
				<g>
					<path fill="#3D3D3C" d="M1279.3,658.1c-6.6-6.9-11.6-15.3-14.4-24.5c-1.4-4.6-2.3-9.3-2.6-14.1c-0.3-4.8,0-9.6,0.8-14.4
						l0.7-3.1c0.2-1,0.6-2,0.9-3c0.6-2,1.5-4,2.3-5.9c1.8-3.8,3.8-7.6,6.3-10.9c4.9-6.9,11.2-12.6,18.2-17c0,0,0.3-0.3,1-0.7
						c0.7-0.4,1.6-1,2.8-1.7c1.2-0.8,2.7-1.5,4.3-2.3c0.8-0.4,1.7-0.8,2.6-1.2c0.9-0.4,1.9-0.8,2.9-1.2c1.7-0.7,3.7,0.1,4.4,1.8l0,0
						l0.1,0.2c4.3,10.2,9.7,22.9,10.7,25.1c1.8,3.8,12.5,32.2,14.3,36c0.4,0.9,1.2,2.8,2.1,5.1c0.9,2.3,1.9,5.1,3,8
						c2.1,5.7,4.2,11.6,5.3,14.7c1.2,3.1,3,9,4.4,13.9c1.5,4.8,2.7,9,2.7,9s-5.2-13.2-10.7-27.3c-2.8-7-5.7-14.3-8.1-20.2
						c-2.3-5.8-4.1-10.3-4.8-12c-2.5-6.9-10-24.2-12.2-30.1c-2-5.5-6.8-16.8-8.3-21.6c-0.3-1-1.4-1.5-2.3-1.2l0,0l-0.2,0.1
						c-0.4,0.1-0.7,0.2-1,0.3c-2.1,0.5-7.7,2.8-12.8,6.2c-5.2,3.3-9.8,7.6-11.7,9.5c-0.5,0.5-1.3,1.2-2.2,2.2
						c-0.8,1.1-1.9,2.3-2.9,3.8c-1,1.5-2.2,3.1-3.1,5c-0.5,0.9-1.1,1.8-1.5,2.8c-0.4,1-0.9,2-1.3,3c-0.5,1-0.8,2-1.2,3
						c-0.3,1-0.8,2-1,3c-0.5,2-1.1,3.8-1.4,5.6c-0.2,0.9-0.3,1.7-0.4,2.4c-0.2,0.7-0.2,1.4-0.3,2.1c-0.1,1.2-0.2,2.2-0.3,2.7
						c-0.1,2.2-0.2,5.2,0.1,8.5c0.3,3.3,0.9,6.8,1.6,9.9c0.2,0.8,0.4,1.9,0.7,3.1c0.2,0.6,0.3,1.3,0.5,2.1c0.2,0.7,0.4,1.5,0.7,2.3
						c0.2,0.8,0.5,1.6,0.8,2.4c0.3,0.8,0.6,1.7,0.9,2.5c0.7,1.7,1.4,3.4,2.2,5c0.8,1.6,1.7,3.1,2.5,4.5c0.9,1.4,1.6,2.6,2.4,3.6
						c0.7,1,1.3,1.9,1.8,2.4C1279.1,657.8,1279.3,658.1,1279.3,658.1z"/>
					<path fill="#3D3D3C" d="M1281,656.6c-2.4-2.8-4.7-5.7-6.5-8.8c-1.9-3.1-3.5-6.4-4.8-9.8c-0.4-1.3-0.8-2.5-1.2-3.8
						c0,0-0.1-0.4-0.3-1.1c-0.2-0.7-0.6-1.7-0.8-3c-0.6-2.5-1.3-6-1.5-9.6c-0.6-7.2,0.7-14.8,1.1-16.2c0.1-0.4,0.2-1,0.4-1.9
						c0.2-0.9,0.5-1.9,0.9-3.2c0.3-1.2,0.8-2.6,1.3-4c0.5-1.4,1.1-2.9,1.8-4.3c0.6-1.5,1.5-2.9,2.2-4.3c0.7-1.4,1.6-2.6,2.4-3.8
						c0.7-1.2,1.6-2.2,2.2-3c0.7-0.8,1.2-1.6,1.7-2c0.9-0.9,2.1-2.2,3.5-3.5c1.4-1.3,2.9-2.7,4.6-4c0.8-0.6,1.6-1.3,2.4-1.8
						c0.8-0.5,1.6-1,2.2-1.5c0.3-0.2,0.7-0.4,1-0.6c0.3-0.2,0.6-0.3,0.9-0.5c0.6-0.3,1-0.5,1.4-0.7c0.6-0.3,1.9-1,3.8-1.8
						c0.5-0.2,1-0.4,1.5-0.7c0.5-0.2,1-0.5,1.6-0.7c1.1-0.4,2.3-0.9,3.5-1.3l0,0c0.4-0.1,0.8,0,0.9,0.4v0c2.5,6.6,5.2,13.8,5.2,13.8
						s8.8,21.2,10,24c1.1,2.8,9.4,23.1,9.4,23.1l10.5,28c0,0-3.7-8.2-7.5-16.8c-3.8-8.4-7.7-17.4-8.3-18.8
						c-1.1-2.8-16.1-39.8-17.2-42.6c-0.2-0.6-1.2-3.2-3.9-10l1.6,0.7c-1.1,0.4-2.3,0.9-3.8,1.4c-1.4,0.6-2.9,1.3-4.6,2.1
						c-3.1,1.7-6.5,3.7-9.4,6c-1.5,1.1-2.8,2.3-4,3.3c-0.3,0.3-0.6,0.5-0.9,0.8c-0.3,0.3-0.5,0.5-0.8,0.8c-0.5,0.5-1,1-1.4,1.4
						c-0.9,0.9-1.5,1.7-2,2.2c-0.4,0.5-0.7,0.8-0.7,0.8c-7.4,9.3-11.8,21-12.3,33c-0.2,1.9-0.2,3.7-0.2,5.6c0.1,1.9,0.2,3.8,0.4,5.6
						c0.5,3.7,1.2,7.5,2.5,11.1c1.2,3.6,2.8,7.1,4.6,10.5C1276.3,650.5,1278.5,653.6,1281,656.6z"/>
					<path fill="#3D3D3C" d="M1322.5,673.9c-0.9-0.1-1.9-0.2-2.8-0.3c-0.9-0.1-1.8-0.3-2.8-0.5c-6-1.1-11.9-3.2-17.3-6
						c-5.4-2.8-10.4-6.6-14.7-10.9c-8.6-8.7-14.4-20.1-15.9-32.1c-0.5-3.6-0.7-7.3-0.5-10.9l0.1-1.4l0.2-1.4l0.3-2.7
						c0.1-0.9,0.4-1.8,0.5-2.7c0.2-0.9,0.3-1.8,0.6-2.7c0.5-1.7,1-3.5,1.7-5.2c0.3-0.9,0.6-1.7,1-2.6l1.2-2.5l0.6-1.2l0.7-1.2
						l1.4-2.4c0.5-0.8,1-1.5,1.5-2.3c0.5-0.8,1-1.5,1.6-2.2c7-9,16.6-15.7,27.2-19.5l-2.7-1.2l0.6,1.7c0,0-0.1-0.2-0.7-1.6l2.7,1.2
						c-0.4,0.2-1.2,0.5-2.2,1c-0.5,0.2-1.1,0.5-1.8,0.8c-0.6,0.3-1.3,0.7-2,1.1c-2.9,1.5-6.3,3.8-9.4,6.4c-0.8,0.7-1.5,1.3-2.3,2
						c-0.8,0.6-1.4,1.4-2.1,2.1c-1.4,1.3-2.5,2.8-3.6,4c-2,2.5-3.4,4.6-3.9,5.4c-0.3,0.4-0.9,1.3-1.7,2.5c-0.7,1.3-1.8,2.9-2.6,4.8
						c-1.9,3.9-3.7,9-4.6,14.1c-0.9,5.2-0.9,10.3-0.5,14.1c0,0.5,0.1,0.9,0.1,1.4c0.1,0.4,0.1,0.8,0.2,1.2c0.1,0.8,0.2,1.4,0.3,2
						c0.2,1.1,0.4,1.7,0.4,1.7c2.7,12.6,10.3,24.1,20.6,31.9C1300.3,667.2,1311,672.2,1322.5,673.9z"/>
					<path fill="#3D3D3C" d="M1300.7,568.3c1.1-0.6,2.2-1.3,3.3-1.9l3.5-1.7l-4.5-2l7.4,15.1l6.5,16.8l7.5,18.5l-8.4-16l-5.6-13.9
						l-8-20.2l5.3,2.4l-3.6,1.4C1303,567.2,1301.9,567.8,1300.7,568.3z"/>
					<path fill="#3D3D3C" d="M1347,669.4c-0.1-0.6,0.3-1.3,0.8-1.6c0.1,0,0.1-0.1,0.2-0.1c0,0,0.2-0.1,0.1,0l-0.3,0.1l-0.5,0.2
						c-0.7,0.2-1.4,0.4-2.1,0.7c-11.1,3.3-23.1,3.3-34.2,0c-5.5-1.7-10.8-4.1-15.6-7.3c-4.8-3.2-9.1-7.2-12.7-11.6
						c-4.6-6-8-12.8-9.8-20.1c-1.7-7.3-1.9-14.9-0.6-22.1c1.7-9.4,6.1-18.1,12.4-25.3c6.3-7.1,14.5-12.5,23.4-15.7l-6.9-3l4.3,10.9
						c0,0-1.2-2.8-4.5-10.8l7.2,3.2c-0.9,0.4-1.9,0.8-3.1,1.4c-0.6,0.2-1.2,0.6-1.9,0.9c-0.6,0.3-1.3,0.7-2,1.1
						c-0.7,0.3-1.4,0.8-2.1,1.2c-0.7,0.4-1.4,0.9-2.1,1.3c-0.7,0.5-1.4,1-2.1,1.5l-1,0.8l-1,0.8c-0.7,0.5-1.3,1.1-1.9,1.6
						c-0.6,0.6-1.2,1.1-1.8,1.7c-1.2,1.1-2.2,2.2-3.1,3.3c-0.9,1-1.6,2-2.3,2.8c-0.6,0.8-1.1,1.5-1.4,1.9c-0.4,0.7-1.1,1.6-2,3
						c-0.7,1.4-1.8,2.9-2.6,4.9c-1.8,3.7-3.4,8.5-4.2,13.2c-0.8,4.7-0.8,9.3-0.5,12.7c0.1,0.8,0.2,1.6,0.2,2.3
						c0.1,0.7,0.2,1.3,0.3,1.7c0.1,0.5,0.1,0.9,0.2,1.1c0,0.3,0.1,0.4,0.1,0.4c2.1,12.2,8.9,23.5,18.8,31.5
						c7.6,6.3,16.9,10.5,26.7,12.2c2.5,0.4,5,0.7,7.5,0.8c2.5,0.1,5,0.1,7.5-0.1c2.5-0.2,5-0.6,7.5-1.1c1.2-0.3,2.5-0.6,3.7-0.9
						c0.6-0.2,1.2-0.3,1.8-0.5l0.5-0.1l0.1,0c0,0-0.1,0-0.1,0.1c-0.1,0-0.2,0.1-0.3,0.2C1347.2,668.2,1347,668.9,1347,669.4z"/>
					<path fill="#3D3D3C" d="M1337.3,625.7c0,0-15.1-37.6-15.8-39.5c-0.5-1.3-8.4-19.6-11.4-26.4l-0.1-0.3c-0.8-1.9-3-2.8-4.9-1.9
						c-2.1,0.9-3.8,1.6-5.2,2.3c-1.4,0.7-2.5,1.3-3.4,1.7c-1.7,1-2.4,1.4-2.4,1.4c-5.8,3.3-11.2,7.6-15.7,12.5
						c-0.8,0.7-1.4,1.6-2.1,2.4c-0.7,0.8-1.4,1.6-2,2.5c-1.2,1.7-2.6,3.4-3.6,5.3c-2.3,3.6-4.1,7.6-5.6,11.6c-1.7,5-2.6,10.3-3,15.6
						c-0.4,5.3,0,10.6,1,15.8c-1.2-5-1.7-10.2-1.6-15.3l0-1.9c0-0.6,0.1-1.3,0.2-1.9c0.1-1.3,0.2-2.6,0.4-3.9l0.7-3.8
						c0.2-1.3,0.6-2.5,0.9-3.8c3.6-10.9,10.1-20.8,18.7-28.2c0,0,0.2-0.2,0.5-0.4c0.3-0.3,0.7-0.7,1.3-1.1c0.6-0.4,1.3-1,2-1.5
						c0.4-0.3,0.8-0.6,1.2-0.9c0.4-0.3,0.9-0.6,1.3-0.9c0.9-0.6,1.8-1.2,2.7-1.8c0.9-0.6,1.8-1.1,2.7-1.6c1.7-1,3.2-1.7,4.2-2.2
						c0.7-0.3,1.6-0.9,2.7-1.4c1.1-0.5,2.4-1.1,3.8-1.8c2.5-1.1,5.4-0.1,6.5,2.4l0.3,0.6c2.1,4.6,4.7,10,5.5,12.1
						c1.3,3.1,9.4,22.4,10.4,24.6c0.9,2.3,5.2,15.2,5.2,15.2L1337.3,625.7z"/>
					<path fill="#3D3D3C" d="M1270.5,635.5c0.1,0.2,0.2,0.7,0.4,1.5c0.3,0.8,0.7,1.8,1.1,3.1c1,2.4,2.4,5.5,4.2,8.3
						c0.8,1.5,1.8,2.8,2.7,4.1c1,1.2,1.8,2.4,2.6,3.3c0.8,0.9,1.5,1.7,2,2.2c0.5,0.5,0.8,0.8,0.8,0.8c6.4,6.2,14.2,10.9,22.6,13.9
						c5.2,1.5,10.7,2.2,16,2.4c-8.9-0.9-17.6-3.6-25.3-8.1c-6.2-3.4-11.8-8-16.5-13.3c-2.4-2.7-4.4-5.6-6.2-8.6
						C1273.2,642.1,1271.7,638.8,1270.5,635.5z"/>
					<path fill="#3D3D3C" d="M1301.6,665.7c10,5.2,21.5,7.5,32.8,6.5c-3.5,0.6-7.2,1-10.8,1C1315.8,672.2,1308.3,669.6,1301.6,665.7
						z"/>
				</g>
			</g>
		</g>
		<g>
			<g>
				<g>
					<path fill="#3D3D3C" d="M1294.3,595.3l3.8,1.7l3.3,1.6c0,0,2.7,1.2,3,1.3c0.3,0.1,2.5,1.2,2.8,1.3c0.3,0.1,1.6,0.7,2,1
						c0.4,0.2,1.7,0.9,1.7,0.9s-4-1.8-4.5-2c-0.5-0.3-1.9-0.8-2.3-1.1c-0.4-0.2-1.4-0.6-1.7-0.8c-0.3-0.2-1.6-0.8-2-1
						c-0.4-0.2-2.4-1.1-2.7-1.2c-0.3-0.1-0.8-0.3-1.3-0.5C1296,596.2,1294.3,595.3,1294.3,595.3z"/>
					<path fill="#3D3D3C" d="M1294.3,595.5l1.5,0.7l0.3,0.1c0,0,1.9,0.9,2.1,1c0.2,0.1,1.7,0.7,2.1,0.9c0.3,0.2,1.2,0.6,1.4,0.7
						c0.2,0.1,1.8,0.9,1.8,0.9s1.7,0.7,1.9,0.8s1.8,0.8,1.8,0.8l2.1,1c0,0-2.6-1.1-2.8-1.2c-0.2-0.1-3.1-1.4-3.3-1.5
						c-0.2-0.1-3.2-1.5-3.2-1.5l-2.6-1.2L1294.3,595.5z"/>
					<path fill="#3D3D3C" d="M1290.9,594.2l0.4,0.2l5.3,2.5l3.2,1.5l2.6,1.2c0,0-2.6-1.1-2.9-1.2c-0.3-0.1-3.3-1.5-3.3-1.5l-2.9-1.3
						L1290.9,594.2z"/>
					<polygon fill="#3D3D3C" points="1301.7,599.4 1303.6,600.1 1304.8,600.7 1306.3,601.3 1304.9,600.9 1303.9,600.4 					"/>
					<path fill="#3D3D3C" d="M1288.7,593.5l0.3,0.1l5.3,2.4l3.5,1.6l5.3,2.5c0,0-3-1.3-3.5-1.5c-0.5-0.2-3.3-1.5-3.3-1.5l-3-1.4
						L1288.7,593.5z"/>
					<path fill="#3D3D3C" d="M1307.7,601.3c0,0-2.9-1.3-3-1.4c-0.1-0.1-2.9-1.2-2.9-1.2l-1.3-0.6l-1.7-0.8l-2.1-1l2,0.9l2.2,1.1
						c0,0,1,0.5,1.2,0.6c0.3,0.1,1.2,0.5,1.5,0.6c0.2,0.1,1.8,0.8,1.9,0.8s1.1,0.6,1.1,0.6L1307.7,601.3z"/>
					<path fill="#3D3D3C" d="M1295.9,596.4c-0.1-0.1-1.9-1-1.9-1l-1.9-0.9l-1.2-0.5l1.9,0.9L1295.9,596.4z"/>
					<polygon fill="#3D3D3C" points="1292.5,595.1 1290,593.9 1290.8,594.2 					"/>
				</g>
			</g>
		</g>
		<g>
			<g>
				<g>
					<path fill="#3D3D3C" d="M1293.7,628.8l5.4-2.6l4.8-2.1c0,0,3.8-1.8,4.2-2c0.4-0.2,3.5-1.6,3.9-1.8c0.4-0.2,2.2-1,2.9-1.3
						c0.6-0.3,2.5-1,2.5-1s-5.6,2.6-6.4,3c-0.8,0.3-2.6,1.3-3.3,1.5c-0.6,0.3-2,0.9-2.5,1.1s-2.3,1.1-2.9,1.3
						c-0.6,0.2-3.4,1.6-3.8,1.8c-0.4,0.2-1.1,0.6-1.8,0.9C1296.3,627.8,1293.7,628.8,1293.7,628.8z"/>
					<path fill="#3D3D3C" d="M1293.8,629l2.2-1l0.4-0.2c0,0,2.7-1.3,3-1.4s2.4-1.2,2.9-1.4c0.5-0.2,1.7-0.8,2-0.9s2.7-1.1,2.7-1.1
						s2.3-1.1,2.6-1.2c0.3-0.1,2.5-1.2,2.5-1.2l3.1-1.3c0,0-3.6,1.8-3.9,2c-0.3,0.1-4.3,2-4.7,2.2c-0.3,0.1-4.6,2-4.6,2l-3.7,1.7
						L1293.8,629z"/>
					<path fill="#3D3D3C" d="M1289.3,631.4l0.6-0.3l7.6-3.5l4.6-2.1l3.7-1.7c0,0-3.5,1.8-3.9,2c-0.4,0.2-4.7,2.2-4.7,2.2l-4.2,1.9
						L1289.3,631.4z"/>
					<polygon fill="#3D3D3C" points="1304.9,624.6 1307.4,623.2 1309.2,622.4 1311.2,621.5 1309.5,622.5 1308,623.2 					"/>
					<path fill="#3D3D3C" d="M1286.6,633.1l0.5-0.2l7.5-3.5l5-2.2l7.5-3.4c0,0-4.2,2-4.9,2.4c-0.7,0.3-4.7,2.2-4.7,2.2l-4.2,1.9
						L1286.6,633.1z"/>
					<path fill="#3D3D3C" d="M1312.6,620c0,0-4.1,1.9-4.3,2c-0.2,0.1-4,2-4,2l-1.9,0.9l-2.5,1l-3,1.3l2.8-1.4l3.2-1.4
						c0,0,1.4-0.6,1.8-0.8c0.4-0.2,1.6-0.9,2-1c0.3-0.2,2.4-1.2,2.7-1.3c0.2-0.1,1.7-0.7,1.7-0.7L1312.6,620z"/>
					<path fill="#3D3D3C" d="M1296.3,628.1c-0.2,0.1-2.8,1.1-2.8,1.1l-2.7,1.2l-1.6,0.9l2.7-1.2L1296.3,628.1z"/>
					<polygon fill="#3D3D3C" points="1291.8,630.6 1288.2,632.2 1289.3,631.6 					"/>
				</g>
			</g>
		</g>
		<g>
			<g>
				<g>
					<path fill="#3D3D3C" d="M1319.4,651.3l1.5-3.3l1.4-2.8c0,0,1-2.3,1.1-2.6s1-2.1,1.1-2.3c0.1-0.3,0.7-1.3,0.8-1.7
						c0.2-0.4,0.8-1.4,0.8-1.4s-1.6,3.4-1.8,3.8c-0.2,0.4-0.7,1.6-0.9,2c-0.2,0.4-0.6,1.2-0.7,1.4c-0.1,0.2-0.7,1.4-0.8,1.7
						c-0.2,0.3-0.9,2-1.1,2.3c-0.1,0.3-0.3,0.7-0.5,1.1S1319.4,651.3,1319.4,651.3z"/>
					<path fill="#3D3D3C" d="M1319.6,651.4l0.6-1.3l0.1-0.2c0,0,0.8-1.6,0.8-1.8c0.1-0.2,0.6-1.5,0.8-1.8c0.2-0.3,0.5-1,0.6-1.2
						c0.1-0.2,0.8-1.6,0.8-1.6s0.6-1.4,0.7-1.6s0.7-1.5,0.7-1.5l0.9-1.8c0,0-0.9,2.2-1,2.4c-0.1,0.2-1.2,2.6-1.3,2.8
						s-1.3,2.7-1.3,2.7l-1,2.2L1319.6,651.4z"/>
					<path fill="#3D3D3C" d="M1318.4,654.3l0.2-0.3l2.2-4.5l1.3-2.7l1.1-2.2c0,0-0.9,2.2-1,2.4s-1.3,2.8-1.3,2.8l-1.2,2.5
						L1318.4,654.3z"/>
					<polygon fill="#3D3D3C" points="1322.9,645.1 1323.6,643.5 1324.1,642.4 1324.6,641.2 1324.2,642.4 1323.8,643.3 					"/>
					<path fill="#3D3D3C" d="M1317.8,656.1l0.1-0.3l2.1-4.5l1.4-2.9l2.1-4.5c0,0-1.1,2.5-1.3,3s-1.3,2.8-1.3,2.8l-1.2,2.5
						L1317.8,656.1z"/>
					<path fill="#3D3D3C" d="M1324.7,640c0,0-1.2,2.4-1.2,2.6c-0.1,0.1-1.1,2.5-1.1,2.5l-0.6,1.1l-0.7,1.4l-0.8,1.8l0.7-1.7l0.9-1.9
						c0,0,0.4-0.8,0.5-1.1c0.1-0.2,0.4-1,0.5-1.2c0.1-0.2,0.7-1.5,0.7-1.6s0.5-1,0.5-1L1324.7,640z"/>
					<path fill="#3D3D3C" d="M1320.3,650c0,0.1-0.9,1.6-0.9,1.6l-0.8,1.6l-0.4,1l0.8-1.6L1320.3,650z"/>
					<polygon fill="#3D3D3C" points="1319.2,652.9 1318.2,655 1318.4,654.3 					"/>
				</g>
			</g>
		</g>
		<g>
			<g>
				<g>
					<path fill="#3D3D3C" d="M1312.9,737.1c1,4.7,2.6,9.2,4.8,13.4c1.7,3.9,4,7.4,6.6,10.8c0,0,0.4,0.5,1.1,1.2
						c0.6,0.8,1.6,1.6,2.5,2.6c0.9,1,2,1.8,2.9,2.5c0.8,0.7,1.5,1.3,1.7,1.4c0.5,0.3,2.2,1.8,4.2,3.1c0.9,0.7,1.9,1.3,2.7,1.8
						c0.8,0.5,1.4,0.9,1.7,1c0.5,0.2,1.8,1,3.2,1.7c1.4,0.7,2.8,1.4,3.6,1.8c0.8,0.3,2.2,1,3.6,1.6c1.3,0.6,2.4,1,2.4,1
						s-0.9-0.3-2.3-0.7c-1.4-0.5-3.2-1.1-5-2c-3.7-1.6-7.4-3.8-8.2-4.4c-0.9-0.5-2.3-1.5-3.8-2.5c-1.4-1.1-2.8-2.1-3.4-2.6
						c-0.6-0.6-1.6-1.5-2.6-2.3c-0.9-0.9-1.7-1.8-2.1-2.2c-0.7-0.9-4.1-4.7-4.7-6c-0.2-0.3-0.6-0.9-1.1-1.7
						c-0.5-0.8-1.1-1.7-1.7-2.7c-0.6-0.9-1.1-1.9-1.5-2.7c-0.4-0.8-0.7-1.4-0.9-1.7c-0.3-0.5-0.6-1.2-1-2c-0.4-0.8-0.7-1.6-1-2.4
						c-0.3-0.8-0.8-2.8-1.2-4.6c-0.2-0.9-0.3-1.8-0.4-2.4C1312.9,737.6,1312.9,737.1,1312.9,737.1z"/>
					<path fill="#3D3D3C" d="M1312.3,737.3c0.2,1,0.3,1.9,0.6,2.8c0.2,0.9,0.5,1.9,0.7,2.8l0.3,1c0,0,0.2,0.4,0.4,1.1
						c0.2,0.7,0.5,1.5,0.9,2.4c0.7,1.8,1.7,3.6,1.8,3.9c0.3,0.8,3.3,5.6,4.1,6.7c0.4,0.6,1,1.5,1.7,2.4c0.7,0.9,1.3,1.6,1.6,2
						c0.1,0.2,0.5,0.6,0.9,1.1c0.4,0.6,1.1,1.2,1.6,1.8c0.6,0.6,1.1,1.2,1.6,1.6c0.4,0.4,0.7,0.7,0.7,0.7s0.3,0.3,0.8,0.6
						c0.5,0.4,1.1,0.9,1.7,1.4c1.3,1,2.7,2.1,3.1,2.3c0.3,0.2,1.7,1.2,3.1,2.1c0.7,0.4,1.4,0.8,1.8,1.1c0.5,0.3,0.8,0.5,0.8,0.5
						c2.3,1.4,4.8,2.7,7.3,3.8c0,0-2.3-0.9-4.7-1.9c-1.2-0.5-2.3-1.2-3.3-1.6c-0.9-0.5-1.6-0.9-1.8-1c-0.4-0.2-2.9-1.8-5.2-3.6
						c-0.6-0.5-1.2-0.9-1.7-1.3c-0.5-0.4-1-0.9-1.5-1.3c-0.9-0.8-1.5-1.3-1.7-1.5c-0.1-0.1-0.7-0.8-1.6-1.6
						c-0.4-0.4-0.9-0.9-1.4-1.5c-0.5-0.6-0.9-1.1-1.4-1.7c-0.5-0.6-1-1.1-1.4-1.7c-0.4-0.6-0.8-1.1-1.1-1.5c-0.6-0.9-1-1.5-1-1.5
						c-0.9-1.4-1.7-2.8-2.6-4.2l-2.2-4.4C1313.9,745.3,1312.9,741.3,1312.3,737.3z"/>
					<path fill="#3D3D3C" d="M1310.4,724.9c0,0.5,0,1,0,1.6c0,6.9,1.2,13.8,3.6,20.2c1.5,3.9,3.5,7.6,5.8,11l1.5,2.1
						c0.5,0.7,1,1.4,1.5,2c1.1,1.3,2.1,2.6,3.4,3.8c0,0-0.4-0.4-1.1-1.1c-0.6-0.7-1.5-1.6-2.4-2.6l-0.7-0.7
						c-0.2-0.3-0.4-0.5-0.6-0.8c-0.4-0.5-0.8-1-1.1-1.4c-0.7-0.9-1.2-1.5-1.3-1.8c-0.2-0.3-0.7-1.1-1.3-2.2
						c-0.3-0.6-0.7-1.1-1.1-1.8c-0.3-0.7-0.7-1.4-1-2.1c-0.3-0.7-0.7-1.4-1-2c-0.3-0.7-0.5-1.3-0.7-1.8c-0.2-0.5-0.4-1-0.5-1.3
						c-0.1-0.3-0.2-0.5-0.2-0.5c-1.3-3.6-2.2-7.3-2.8-11C1310.2,731.4,1310.2,728.2,1310.4,724.9z"/>
					<path fill="#3D3D3C" d="M1323.9,764c0.8,0.9,1.7,1.6,2.6,2.4l1.3,1.1l1.4,1.1c0.6,0.6,1.2,1.1,1.9,1.7l2,1.5
						c0.7,0.6,1.5,1.1,2.3,1.6c0.8,0.5,1.5,1.1,2.3,1.5c-0.8-0.3-1.5-0.8-2.2-1.2c-0.7-0.4-1.5-0.8-2.2-1.2
						c-1.1-0.9-2.2-1.7-3.3-2.6C1327.7,768.1,1325.7,766.1,1323.9,764z"/>
					<path fill="#3D3D3C" d="M1310.2,716.9l-0.2,1.3c-0.9,6.8-0.6,13.8,0.9,20.5c0.5,2.2,1,4.4,1.8,6.6l0.6,1.6l0.6,1.6
						c0.4,1.1,0.9,2.1,1.4,3.1c3,6.2,7.2,11.9,12.2,16.7c0,0-0.1-0.1-0.4-0.3c-0.2-0.2-0.6-0.5-1-0.9c-0.8-0.8-1.9-1.8-3-3
						c-0.5-0.6-1.1-1.2-1.6-1.8c-0.5-0.6-0.9-1.2-1.4-1.8c-0.8-1.1-1.5-2-1.8-2.4c-0.5-0.9-2.3-3.6-3.6-6.3c-0.3-0.7-0.7-1.3-1-2
						c-0.3-0.6-0.5-1.2-0.7-1.7c-0.4-1-0.6-1.6-0.6-1.6c-1.3-3.7-2.2-7.5-2.7-11.4C1309,729,1309.2,722.8,1310.2,716.9z"/>
					<path fill="#3D3D3C" d="M1342.4,775.4c0,0-0.6-0.3-1.5-0.8c-0.9-0.5-2.1-1.2-3.2-2c-1.1-0.8-2.3-1.5-3.2-2.2
						c-0.9-0.7-1.5-1.1-1.6-1.2c-0.2-0.1-2.3-1.8-4.3-3.6c-0.9-0.9-1.9-1.8-2.6-2.5c-0.7-0.7-1.1-1.2-1.1-1.2
						c-0.5-0.7-1.1-1.3-1.6-2l-1.5-2.1c-0.3-0.4-0.6-0.9-0.9-1.3l-0.8-1.4c-0.5-0.9-1.1-1.8-1.5-2.8l-1.7-3.5
						c-0.3-0.6-0.5-1.2-0.8-1.8c-0.3-0.6-0.5-1.2-0.7-1.8c0.4,1.2,1,2.3,1.5,3.4l1.8,3.3c1.3,2.4,2.7,4.8,4.3,7.1
						c0,0,0.1,0.2,0.3,0.5c0.2,0.3,0.5,0.7,0.8,1.1c0.7,0.8,1.4,1.7,1.8,2.1c0.3,0.4,1.2,1.1,2,1.9c0.8,0.7,1.6,1.5,1.9,1.7
						c0.4,0.3,1.6,1.4,2.8,2.3c1.3,0.9,2.5,1.9,2.8,2.1c0.3,0.2,1.1,0.8,1.9,1.4c0.4,0.3,0.8,0.6,1.1,0.8c0.3,0.2,0.5,0.3,0.5,0.3
						l1.7,1.1L1342.4,775.4z"/>
					<path fill="#3D3D3C" d="M1313.3,743.6c0-0.2-0.5-2-0.9-3.8c-0.2-0.9-0.3-1.8-0.4-2.4c-0.1-0.7-0.2-1.1-0.2-1.1
						c-0.4-2.3-0.7-4.7-0.8-7.1c-0.2-1.5-0.3-2.9-0.3-4.4c-0.1,2.4,0,4.9,0.2,7.3C1311.3,736,1312.1,739.8,1313.3,743.6z"/>
					<path fill="#3D3D3C" d="M1310,731.4c-0.2-3.3-0.2-6.6,0.1-9.8c0,1,0,2.1,0.1,3.1C1310,726.9,1310,729.1,1310,731.4z"/>
				</g>
			</g>
		</g>
	</g>
</g>
</svg>
