<?xml version="1.0" encoding="utf-8"?>
<!-- Generator: Adobe Illustrator 23.0.0, SVG Export Plug-In . SVG Version: 6.00 Build 0)  -->
<svg version="1.1" xmlns="http://www.w3.org/2000/svg" xmlns:xlink="http://www.w3.org/1999/xlink" x="0px" y="0px"
	 viewBox="0 0 1920 1080" style="enable-background:new 0 0 1920 1080;" xml:space="preserve">
<style type="text/css">
	.st0{fill:#4BD385;}
	.st1{fill:#40D07D;}
	.st2{fill:#5AD78F;}
	.st3{fill:#53D58A;}
	.st4{fill:#5DD791;}
	.st5{fill:#90E4B3;}
	.st6{fill:#6FDC9D;}
	.st7{fill:#82E1AA;}
	.st8{fill:#92E5B5;}
	.st9{fill:#C1F0D5;}
	.st10{fill:#81E0AA;}
	.st11{fill:#6CDB9B;}
	.st12{fill:#74DDA1;}
	.st13{fill:#67DA97;}
	.st14{fill:#A0E8BE;}
	.st15{fill:#7FE0A8;}
	.st16{fill:#99E6BA;}
	.st17{fill:#AAEAC5;}
	.st18{fill:#B7EDCE;}
	.st19{fill:#89E2AF;}
	.st20{fill:#6EDC9C;}
	.st21{fill:#E1F8EA;}
	.st22{fill:#9CE7BC;}
	.st23{fill:#91E4B4;}
	.st24{fill:#DEF7E9;}
	.st25{fill:#CAF2DB;}
	.st26{fill:#43D17F;}
	.st27{fill:#5CD790;}
	.st28{fill:#4ED487;}
	.st29{fill:#6DDB9C;}
	.st30{fill:#E74C3C;}
	.st31{fill:#EA6355;}
	.st32{fill:#2980B9;stroke:#2980B9;stroke-miterlimit:10;}
	.st33{fill:#F1C40F;}
	.st34{fill:#F3CB2D;}
	.st35{fill:#9C5CB7;}
	.st36{fill:#3D3D3C;}
</style>
<g id="Layer_4">
	<g>
		<g>
			<g>
				<path class="st0" d="M1601.2,614.5c7.7-2.5,15.6-6.2,23.5-9.7c7.9-3.5,15.9-6.9,24.9-9.4c1.2-1,2.4-2.2,3.5-3.3l1.7-1.7
					c0.6-0.6,1.1-1.2,1.6-1.8c1.1-1.2,2.2-2.4,3.2-3.7l2.9-3.9c0.9-1.5,1.6-3.1,2.4-4.7l1.1-2.4c0.4-0.8,0.6-1.6,1-2.4l1.8-4.9
					c0.5-1.7,1-3.3,1.4-5c0.9-3.6,1.5-7.3,1.9-10.9l-3-1.2c-1.6,3.3-3.3,6.4-5.3,9.4c-0.9,1.4-1.9,2.8-2.9,4.1l-3.2,3.8
					c-1,1.3-2.3,2.4-3.4,3.6l-1.8,1.7c-0.6,0.6-1.3,1.1-1.9,1.6c-0.3-1.1-0.5-2.1-0.7-3.1c-0.2-1-0.4-2-0.5-2.9
					c-0.1-0.9-0.2-1.8-0.2-2.7c0-0.8,0-1.7,0-2.6c0-1.7,0.2-3.3,0.5-4.8c0.2-1.5,0.5-3,0.8-4.5c0.6-3.4,1.3-6.8,1.2-10.2
					c-0.1-4.7-1.2-9.4-2.7-13.9c-1.4-4.5-3.2-8.9-4.8-13.2c2.3-3.7,8.7-2.4,13.9-2.9c2.6-0.2,4.9-0.9,6.3-3
					c1.4-2.1,1.8-5.5,0.5-11.2c-5.7,2.8-10.8,5.1-16.5,7.8c-2.3-7.2,2-9.1,7.2-11.2c7.6-3.1,11.3-4.8,12.6-7.9
					c1.3-3.1,0.2-7.6-2.4-16.4c-2.6,4.6-5.3,9.1-8.8,14.7c-3.6-8.1-7.7-15.8-11.9-23.2c-4.2-7.4-8.3-14.4-12.3-21.5
					c-2.5-4.5-4.2-9.4-5.5-14.6c-1.4-5.2-2.4-10.6-3.7-16c2.9,4.4,5.5,9,8.2,14.2c2.7,5.2,5.3,11,8,18c2.7-8.2,0.3-15.1-2.4-21.2
					c-2.7-6.2-5.7-11.5-4.7-18.4c2.7-0.9,4.9-0.7,6.9,0.2c2,0.9,3.8,2.4,5.3,4.2c3.3,3.6,5.9,8.2,9.8,10.8c4.7-6.8,0.8-13.5-2-19.4
					c-3.9-8.3-7.8-16.6-12.2-25c-4.5-8.3-9.5-16.6-15.7-24.6c-2.2-2.9-4.6-5.7-7.1-8.5c-1.2-1.4-2.5-2.7-3.8-4.1
					c-1.3-1.3-2.6-2.7-3.9-4c-1.3-1.2-2.7-2.5-4.1-3.7l-2.1-1.8l-2.1-1.7c-1.4-1.1-2.9-2.2-4.4-3.3c-1.5-1-3-2-4.5-2.9
					c-3-2-6.1-3.5-9.3-5l-1.2-0.5l-0.6-0.2c-0.4-0.2-0.9-0.3-1.3-0.4c-0.4-0.1-0.9-0.3-1.3-0.4c-0.5-0.1-1-0.3-1.2-0.2
					c-2.6-0.2-5.7,0.3-10.1,1.5c-1.5,2.7-2.8,5.4-3.9,7.9c-3.8,2.1-6.3,2-7.8,1.2c-1.5-0.8-2.1-2.4-2.8-3.6c-1.4-2.7-3.3-4.4-6-5.6
					c-2.7-1.2-6.2-1.8-11-2.3c-8.1-0.9-15.6-2.7-22.7-5.2c-7.2-2.6-14-5.8-21.3-9.9c-4,1.3-8.5,2.3-13.5,3.1c-5,0.9-10.4,1.5-16,2.2
					c-5.6,0.7-11.3,1.3-16.9,2.1c-1.4,0.2-2.8,0.4-4.1,0.6c-0.8,0.2-1.5,0.3-2.3,0.5c-1.5,0.4-2.8,0.9-4,1.4
					c-9-4.1-16.1-9.2-21.6-15.1c-5.6-5.9-9.6-12.5-13-19.5c-0.8-1.8-1.4-3.7-1.7-5.7c-0.3-2-0.2-4.1,0.3-6c1.1-3.9,3.3-6.9,5.4-9.6
					c4.3-5.3,8-10.4,10-15.9c-5-0.5-9.9-0.9-13.4-1.1c1.2-5.2,4-10.2,4.1-15.2c0-0.9,0.1-1.8,0.3-2.7c0.2-0.9,0.4-1.8,0.7-2.7
					c0.3-0.9,0.7-1.7,1.2-2.6c0.5-0.8,1-1.7,1.5-2.5c1.1-1.7,2.6-3.2,4.1-4.7c1.6-1.5,3.4-3,5.3-4.4c7.7-5.7,18.1-10.3,28.9-14.7
					c8.2-3.4,17.2-6.4,26.7-9.1c4.7-1.4,9.7-2.6,14.7-3.8l7.7-1.7c2.6-0.6,5.3-1,7.9-1.6c10.7-2,21.7-3.7,33.1-5.2
					c11.3-1.5,22.8-3,34.4-4.6c1.4-0.2,2.8-0.5,4.1-0.8l2-0.5l0.5-0.1c0.2,0,0.2-0.1,0.3-0.1l0.5-0.2c1.5-0.6,2.8-1.4,4.2-2.2
					c2.8-1.6,5.3-3.5,8-5c0-5-2-4.4-4.5-2.3c-2,1.7-4.3,3-6.6,3.9c-0.6,0.2-1.2,0.4-1.8,0.6l-0.4,0.1c-0.1,0-0.1,0-0.3,0.1l-0.4,0.1
					l-1.7,0.3c-2.3,0.4-4.7,0.8-7.1,1c-9.6,1.2-19.5,1.4-29.2,2c-3.8,0.2-8-0.5-12.4-1.6c-4.4-1.1-9-2.3-13.5-3.1
					c-19.6,3.1-37.7,7.5-53.8,12.8l-3,1l-2.9,1.1l-5.8,2.1c-1.9,0.7-3.7,1.5-5.5,2.2c-1.8,0.7-3.7,1.5-5.3,2.3l-5.2,2.4
					c-1.7,0.8-3.3,1.6-4.9,2.4l-2.4,1.2l-1.2,0.6l-1.2,0.6l-4.6,2.6c-1.6,0.8-3,1.7-4.5,2.6c-1.5,0.9-3,1.7-4.4,2.7
					c-2.8,1.8-5.6,3.6-8.3,5.5c-1.3,0.9-2.7,1.9-4,2.8l-3.8,2.9c-1.3,0.9-2.5,1.9-3.7,2.9c-1.2,1-2.4,2-3.6,3l-3.4,3.1
					c-0.6,0.5-1.1,1-1.7,1.6l-1.5,1.6l-3.1,3.2l-2.8,3.4l-1.4,1.7l-1.3,1.7l-2.5,3.5l-2.3,3.6l-1.1,1.8c-0.4,0.6-0.7,1.2-1,1.8
					l-2,3.6c-0.6,1.2-1.1,2.5-1.7,3.7c-1.2,2.4-2.2,4.9-3.1,7.6c-0.9,2.7-1.7,5.7-2.2,9c-0.5,3.3-0.5,6.9-0.2,10
					c0.3,3.2,0.8,6.1,1.7,9l1.1,4.3c0.4,1.4,1,2.8,1.5,4.2l0.8,2.1c0.2,0.7,0.5,1.4,0.8,2.1l1.9,4.1c0.3,0.7,0.6,1.4,0.9,2l1.1,1.9
					l2.2,3.9c0.8,1.3,1.6,2.5,2.5,3.7l1.2,1.9c0.4,0.6,0.8,1.2,1.3,1.8l2.8,3.6c0.5,0.6,0.9,1.2,1.4,1.8l1.5,1.7l2.9,3.4
					c1,1.1,2.1,2.2,3.1,3.3c1.1,1.1,2.1,2.2,3.1,3.3l3.3,3.2c8.8,8.4,19,16.1,30.6,23.4c9.7,6,20,11.9,31.6,17.6l4.4,2.1l2.2,1.1
					c0.7,0.4,1.5,0.7,2.3,1l4.7,2.1c1.6,0.7,3.1,1.4,4.8,2.1l4.9,2c1.7,0.7,3.3,1.4,5,2c3.4,1.3,6.8,2.6,10.3,3.8
					c9.6,3.4,19.5,6.7,29.2,10.2c2.5,0.8,4.8,1.8,7.2,2.8l3.6,1.4l1.8,0.7l0.4,0.2l0.4,0.2l0.7,0.3l5.8,2.7l1.4,0.7
					c0.3,0.1,0.3,0.2,0.5,0.2l0.3,0.2l1.3,0.8c0.9,0.5,1.8,1,2.6,1.6l2.4,1.6l0.6,0.4l0.5,0.4l1.1,0.8c0.7,0.5,1.5,1,2.1,1.6
					c0.7,0.5,1.3,1.1,2,1.6c0.7,0.5,1.2,1.1,1.8,1.6c1.2,1,2.2,2.2,3.2,3.2c3-3,5.9-6.8,9-8.8c2.5-1.6,5.2-2.9,7.9-3.9
					c2.6-1,5.3-1.8,7.7-2.5c1.7,4.6,3.2,9.8,4.1,15.2c0.1,0.8,0.3,1.7,0.3,2.6c0.1,0.9,0,1.8-0.2,2.6c-1.5,6.3-1.8,9.7,0.8,11.3
					c0.6,0.4,1.5,0.7,2.5,0.8c1,0.2,2.2,0.3,3.7,0.2c2.9,0,6.6-0.5,11.4-1.1c-3.3-3.9-6.6-6.4-8.5-9.5c-2.1-3.4-4.4-7.6,1.5-11.8
					c2.9-2,5.3-2.3,7.2-1.4c1,0.4,1.8,1.2,2.5,2.1c0.7,1,1.3,2.1,1.8,3.3c4.3,11.2,6.5,23.2,8.4,35.2c0.9,5.6,1.9,11.4,4,16.8
					c0.9,2.2,1.7,4.2,1.8,6.1c0.1,1.9-0.5,3.8-2.8,5.8c-1.1,1-1.3,3.5-1.1,5.2c1.3,9.9,2.4,20,3,30.3l0.4,6.5c0.1,2,0.2,3.9,0.3,5.9
					c0.1,3.9,0,7.9-0.7,11.8c-0.2,0.9-0.4,1.8-0.7,2.7c-0.5,1.3-0.9,2.5-1.7,3.7c-0.7,1.2-1.4,2.3-2.3,3.4l-1.3,1.6l-1.4,1.4
					c-0.5,0.5-0.9,1-1.4,1.4l-1.5,1.3c-0.2,0.3-0.5,0.6-0.7,0.9l-0.8,0.8c-4.6,4.8-10.4,8.3-16.5,10.9l-2.5,0.6
					c-2.8,2.2-6,4-9.2,6.1c-0.6,0.4-1.1,0.6-1.6,0.7c-0.5,0.1-1,0.1-1.4,0c-0.9-0.2-1.6-0.7-2.2-1.5c-1.2-1.5-2.2-3.7-3.2-5.4
					c-0.7,0.2-1.4,0.3-2.2,0.3c-0.4,0.1-0.8,0.1-1.2,0.1c-0.6,0-1.1,0-1.6,0.1c-1.1,0-2,0.2-2.4,0.8c-3.2,5.5-7.6,7.6-12.4,8.1
					c-4.8,0.6-10-0.4-15.5-1c-10.5-1.1-21.5-1.9-33-1.8c-5.8,0.1-11.5,0.4-17.7,1.1c-6.1,0.8-12.1,1.9-18,3.5
					c-1.1,0.3-2.3,0.5-3.5,0.6c-0.6,0-1.2,0.1-1.9,0.1c-0.6,0-1.3,0.1-1.9,0.1c-1.3,0-2.6,0-3.9,0c-1.3,0-2.6,0.1-3.9,0.2
					c-3,0.2-6.1,0.7-9.3,1.2c-1.6,0.3-3.1,0.6-4.7,1l-2.4,0.6c-0.8,0.2-1.6,0.5-2.4,0.7c-2.3,0.9-4.6,1.7-6.9,2.9l-3.5,1.7
					c-1.2,0.6-2.3,1.3-3.4,2c-5.6,7.4-10.2,15.8-13,24.7l-1,3.3l-0.5,1.7c-0.2,0.5-0.3,1.1-0.5,1.7c-0.6,2.4-1,4.8-1.4,7.3
					c-0.3,2.5-0.5,5-0.6,7.7c-0.1,2.6,0.1,5.4,0.4,8.2c0.7,5.6,2.4,11.8,5.7,17.6c1.6,2.9,3.5,5.4,5.5,7.7c2,2.2,4,4.2,5.9,5.8
					c3.9,3.4,7.5,5.9,10.5,8.2l2.1,1.7c0.7,0.6,1.4,1.1,2,1.7c1.4,1.2,2.7,2.4,4,3.7c1.5,1.4,3.6,2.4,5.9,3c2.3,0.6,4.8,0.8,7.3,0.8
					c-1.7-2.8-3.6-5.1-5.7-7.4c-2.1-2.2-4.3-4.1-6.6-6c-1.2-0.9-2.3-1.8-3.6-2.6c-1.2-0.8-2.5-1.7-3.9-2.6c-2.8-1.8-5.9-3.8-9.1-6.5
					c-3.2-2.6-6.6-6.2-9.1-10.6c-1.3-2.2-2.2-4.6-3-6.9c-0.7-2.3-1.1-4.7-1.3-6.9c-0.4-4.5,0.1-8.7,1.1-12.5
					c0.5-1.9,1.2-3.7,1.9-5.4c0.8-1.7,1.7-3.3,2.7-4.7l3.8,1.2c-0.1,2.1,0.2,4.3,0.5,6.3c0.3,2.1,0.6,4,0.4,6
					c-0.3,3.9-0.4,8,0.6,12.2c0.5,2.1,1.2,4.2,2.3,6.1c1.1,1.9,2.4,3.7,3.9,5.2c3.5,3.6,7.5,5.9,11.5,7.6c2,0.9,4,1.5,6.2,2
					c1.1,0.3,2.1,0.5,3.2,0.7c1.1,0.2,2.2,0.3,3.4,0.4c-1-0.7-2-1.4-3.1-2c-1-0.7-2.1-1.4-3.1-2.1c-2-1.4-3.8-2.9-4.9-4.9
					c-0.9-1.8-1.1-3.9-0.8-6.5c0.3-2.5,1-5.5,2.1-8.5c2.4,0.6,5.5,1.5,9.2,2.8c1.8,0.7,3.6,1.4,5.3,2.1c1.8,0.7,3.5,1.4,5.2,2.2
					c6.9,2.9,13.6,6,20.8,7.9c-2.9-1.5-5.9-3-8.7-4.6c-2.9-1.5-5.7-3.1-8.4-4.7c-1.5-0.8-2.9-1.7-4.3-2.5c-1.4-0.9-2.9-1.7-4.2-2.6
					c-2.7-1.7-5.8-3.6-7.4-5.1c-0.9-0.7-1.5-1.4-1.8-1.9c-0.1-0.3-0.2-0.5-0.2-0.6c0-0.1,0-0.2,0.1-0.2l0,0l-0.3,0.3
					c-0.2,0.2-0.4,0.4-0.7,0.6l-0.6,0.6c-0.2,0.2-0.4,0.3-0.6,0.5c-0.4,0.3-0.6,0.5-0.9,0.7l-0.3,0.2l-0.5,0.3
					c0.1-0.1,0.2-0.1,0.3-0.1c0.5-0.3,1.6-0.7,3.2-1c1.8-0.4,4-0.5,6.2-0.4c2.2,0.1,4.4,0.4,6.4,0.8l0,0c-0.2-0.1-0.5-0.1-0.7-0.2
					c-0.2-0.1-0.4-0.2-0.6-0.3c-0.2-0.1-0.3-0.2-0.4-0.4c-0.1-0.1-0.2-0.2-0.3-0.5c-0.1-0.7-0.1-1.5,0.4-2c0.3-0.2,0.5-0.5,0.9-0.6
					c0.4-0.1,0.9-0.2,1.5-0.2c0.3,0,0.6,0,0.8,0.1c0.3,0,0.7,0.1,1,0.2c0.7,0.2,1.5,0.4,2.2,0.8c1.8-1.5,4.9-3.1,8.6-4.5
					c5.7-2.7,13.6-4.7,21.3-5.1c3.1-0.2,6.5-0.3,10.1-0.3c3.5,0,7.3,0.2,11.3,0.4c10.8-1.6,23.3-3,36.7-4.9l5-0.7l5.1-0.8l5.2-0.9
					c0.9-0.1,1.8-0.3,2.6-0.5c0.4-0.1,0.9-0.2,1.5-0.3l1.5-0.3C1585.9,619,1593.7,617,1601.2,614.5z M1641,581.5
					c0.9-0.7,2.5-0.3,5.8-1.1c-1.5,1.9-3,3.3-4.3,4.5c-1.2,1.3-2.4,2.3-3.6,3.3c-0.7-0.9-1.3-1.8-2-2.7c0.7-0.7,1.4-1.3,2-2.1
					C1639.5,582.7,1640.2,582,1641,581.5z"/>
				<path class="st1" d="M1560.6,304.3c-2.9,0.8-4,0.4-3.9-0.4c0.1-0.8,1.4-2.1,3-3.4c-3.1-2-5.7-4-7.6-6.3c-1.8-0.1-4.7-0.1-7-0.3
					c-2.4-0.1-4.3-0.5-4-1.1c0.3-0.7,0.5-1.5,0.6-2.2c0.1-0.7,0.1-1.3,0-2c-0.2-1.3-0.8-2.7-1.9-4c-0.5-0.7-1.2-1.4-2-2.2
					c-0.8-0.8-1.7-1.6-2.6-2.5c-0.9-0.9-1.7-2-2.2-3c-0.5-1-0.8-1.9-1-2.8c-0.2-0.7,0.4-1.2,1.1-1.6c0.8-0.5,1.7-0.9,2.4-1.3
					c5.1-3.1,10.7-5.1,16.3-6.6c1.4-0.8,2.9-1.4,4.5-2.1c0-1.9,1.4-3.3,3.8-3.8c2.4-0.5,6-0.2,10.1,1.3c1.8,0.7,3,0.6,4.1,0.5
					c1.1-0.2,2.2-0.5,3.5-0.3c4.1,0.5,7.9,1.5,11.2,2.4l1.4,0.1l0.2,0l0.1,0l0.3,0l1.2-0.1l2.5-0.1c3.3-0.2,6.6-0.4,10-0.7
					c3.3-0.2,6.8-0.6,10.2-0.9c3.5-0.4,6.9-0.8,10.4-1.3c13.1-1.9,25.8-4.5,37.9-7.9c10-2.8,20.9-4.4,22.9-17.4
					c0.6-3.8,6.2-8.1,10.4-10c8.5-3.9,9.5-9.3,5.9-16.6c-1.4-3-3.4-5.7-4.2-7.1c2.9-7,8.5-14,6.8-17.8c-4.5-10.4-6.1-23.9-19.9-27.9
					c-15.4-4.3-31.9-3.8-44.9-13.8c-2.3-1.7-6.4-2-9.2-1.3c-6.7,1.8-13.2,3.5-19.5,5.1c-3.2,0.8-6.3,1.5-9.5,2.2l-4.8,1l-5,0.9
					c-2.7,1.5-5.2,3.4-8,5c-1.4,0.8-2.7,1.6-4.2,2.2l-0.5,0.2c-0.1,0-0.1,0.1-0.3,0.1l-0.5,0.1l-2,0.5c-1.4,0.3-2.7,0.6-4.1,0.8
					c-11.6,1.7-23,3.1-34.4,4.6c-11.3,1.5-22.4,3.2-33.1,5.2c-2.6,0.5-5.4,1-7.9,1.6l-7.7,1.7c-5,1.2-10,2.4-14.7,3.8
					c-9.5,2.7-18.5,5.7-26.7,9.1c-10.8,4.4-21.2,9-28.9,14.7c-1.9,1.4-3.7,2.9-5.3,4.4c-1.5,1.6-3,3.1-4.1,4.7
					c-0.6,0.8-1.1,1.7-1.5,2.5c-0.5,0.8-0.9,1.7-1.2,2.6c-0.3,0.9-0.5,1.8-0.7,2.7c-0.2,0.9-0.3,1.8-0.3,2.7
					c-0.2,4.9-2.9,10-4.1,15.2c3.5,0.2,8.5,0.7,13.4,1.1c-2.1,5.4-5.7,10.6-10,15.9c-2.1,2.7-4.3,5.7-5.4,9.6c-0.5,1.9-0.7,4-0.3,6
					c0.3,2,0.9,3.9,1.7,5.7c3.3,7,7.4,13.6,13,19.5c5.5,5.9,12.6,11,21.6,15.1c1.2-0.6,2.6-1.1,4-1.4c0.7-0.2,1.5-0.4,2.3-0.5
					c1.3-0.2,2.7-0.4,4.1-0.6c5.5-0.8,11.3-1.4,16.9-2.1c5.6-0.6,11-1.3,16-2.2c5-0.9,9.5-1.8,13.5-3.1c7.4,4.2,14.2,7.4,21.3,9.9
					c7.1,2.5,14.7,4.3,22.7,5.2c4.7,0.5,8.3,1.1,11,2.3c2.7,1.2,4.5,2.9,6,5.6c0.6,1.2,1.2,2.8,2.8,3.6c1.5,0.8,4,0.9,7.8-1.2
					c1.1-2.5,2.4-5.3,3.9-7.9C1564.5,310.2,1562.1,307.1,1560.6,304.3z M1466.6,285.6c4.3,0.5,8,1.1,11.1,1.7c1.6,0.3,3,0.6,4.2,0.9
					c1.3,0.3,2.4,0.6,3.4,0.9c2,0.6,3.3,1.4,4.2,2.2c0.9,0.8,1.2,1.8,1.1,2.9c-8.6,0.4-14.2,0.2-17.9-0.3c-1.8-0.3-3.1-0.6-4.1-1
					c-0.5-0.2-0.9-0.4-1.2-0.6c-0.3-0.2-0.5-0.5-0.6-0.7c-0.6-1-0.2-2,0.2-3.1C1467.4,287.5,1467.6,286.5,1466.6,285.6z"/>
				<path class="st2" d="M1034.7,745.1l3.3-1.2c6.2-0.1,12.5,0.4,18.6,0.9c3.1,0.3,6.1,0.5,9.2,0.6c3,0.2,6,0.2,9,0
					c3.6-0.2,7.2-0.4,10.8-0.5c1.8,0,3.6-0.1,5.4-0.1l5.4,0c1.8,0,3.6,0,5.4,0l5.4,0.1c3.6,0.2,7.3,0.3,10.8,0.6l10.7,0.9l10.5,1.3
					l2.6,0.3l2.6,0.4l5.2,0.9l5.2,0.9c1.7,0.3,3.4,0.7,5.1,1.1c3.7,2,7.4,3.9,10.9,6.1c-5.1,7.6-0.9,14.8,1.2,22.1
					c-10.1-2.5-10.1,3.5-8.9,10.7c-2.8-0.2-5.5-0.4-8.2-0.4c1.8,3.7,2.6,5.6,2.6,7.4c-0.1,1.7-1.1,3.3-3,6.5c-2.2-0.3-4.5-0.7-6.7-1
					c-2.2-0.3-4.5-0.8-6.7-1c-4.4-0.5-8.9-1-13.2-0.8c-2.2,0.1-4.3,0.2-6.5,0.5c-2.1,0.3-4.3,0.8-6.3,1.4c-2.1,0.6-4.1,1.3-6.1,2.3
					c-2,1-3.9,2.1-5.7,3.5c-2.1,1.6-4.3,2.9-6.5,3.9c-2.9,1.4-5.5,2.1-8,2.5c-1.2,0.2-2.4,0.2-3.5,0.1c-1.1-0.1-2.3-0.3-3.4-0.7
					c-1.1-0.4-2.2-0.9-3.3-1.5c-1.1-0.6-2.2-1.4-3.2-2.3c-1.1-0.9-2.2-2-3.3-3.2c-1.1-1.2-2.3-2.5-3.4-4c5.4,0.6,10.8,1.4,17.7,2.8
					c-1.1-6.5-2-11.7-3.4-18.8c-2.9,4.6-4.2,7-4.9,8.1c-7.5,1.1-13.9,2.9-20.3,3.9c-5.8,1-11.6,3.1-17.3,3.9
					c-2.9,0.4-5.8,0.5-8.7-0.2c-3-0.6-6-1.9-9.2-4.2l0,0c5.5-8,11.7-15.8,18.5-23.3c3.1,1.3,6.2,2.5,9.2,3.8l0.7-3.3
					c-3.3-0.3-6.5-0.4-9.8-0.5c-1.5-2.3-3.1-4.5-4.6-6.7c-5.2,3.1-9,5.6-12.1,7.4c-3.1,1.9-5.4,3-7.7,3.7c-2.3,0.7-4.6,0.8-7.4,0.5
					c-1.4-0.1-3-0.3-4.7-0.5c-0.9-0.1-1.8-0.3-2.8-0.4c-1-0.1-2.1-0.3-3.2-0.4c0.1-2.2,0.3-4.4,0.4-6.6c0.2-2.2,0.4-4.3,0.6-6.5
					c10.3-5,20.9-9.3,31.9-13c2.3-0.8,3.9-1.8,4.5-3.1C1036.3,748.6,1036.1,747,1034.7,745.1z"/>
				<path class="st3" d="M999.3,766c-0.2,2.2-0.4,4.3-0.6,6.5c-0.2,2.2-0.3,4.4-0.4,6.6c1.1,0.1,2.2,0.3,3.2,0.4
					c1,0.1,1.9,0.3,2.8,0.4c1.8,0.3,3.3,0.4,4.7,0.5c2.8,0.2,5.1,0.1,7.4-0.5c2.3-0.7,4.7-1.8,7.7-3.7c3.1-1.8,6.8-4.3,12.1-7.4
					c1.5,2.2,3.1,4.4,4.6,6.7l0,0c-6.9,7.5-13,15.3-18.5,23.3c-13.5-4-16.6-1.9-18.7,13.8c1.1-0.1,2.1-0.4,3.1-0.6
					c1-0.3,1.9-0.6,2.8-1c1.8-0.8,3.3-1.9,4.8-3.1c1.5-1.2,2.8-2.6,4.1-4.2c1.3-1.5,2.6-3.2,3.8-4.9c3.2,2.3,6.3,3.7,9.2,4.2
					c3,0.7,5.9,0.6,8.7,0.2c5.7-0.8,11.5-3,17.3-3.9c6.5-1,12.9-2.8,20.3-3.9c0.7-1.2,2-3.5,4.9-8.1c1.4,7.2,2.3,12.4,3.4,18.8
					c-6.9-1.4-12.3-2.2-17.7-2.8c-3,0.5-5.9,1.2-8.9,1.8c-1.5,0.3-2.9,0.7-4.4,1.1l-2.2,0.6l-2.2,0.6c-5.8,1.6-11.5,3.4-17.3,5.1
					c-18.8,5.5-37.3,12.7-54.4,22.8l-2.6,1.5c-0.9,0.5-1.7,1-2.6,1.6c-1.7,1-3.5,2.1-5.1,3.2c-6.6,2.1-13.3,4.5-19.9,7.3
					c-3.3,1.4-6.5,3-9.7,4.7c-3.1,1.8-6.3,3.6-9.2,5.7c-1.3,0.9-2.5,2.1-3.5,3.4c-1,1.3-1.9,2.8-2.8,4.3c-0.8,1.5-1.6,3.1-2.3,4.7
					c-0.8,1.6-1.4,3.1-2.3,4.6c-4.1,4.2-8.1,8.6-11.7,13.3c-1.9,2.3-3.5,4.7-5.3,7.1c-1.6,2.4-3.3,4.9-4.8,7.4
					c-5.4,1.2-5.7-1.6-4.8-5.6c2.1-8.7,4.8-17.4,9.6-28.5c-3.5,1.9-6.7,3.9-9.9,5.9c-3,2-6,4-8.8,6.1c-1.4,1-2.8,2.1-4.1,3.1
					c-1.3,1.1-2.6,2.2-3.9,3.2c-0.6,0.5-1.3,1.1-1.9,1.6c-0.6,0.6-1.2,1.1-1.9,1.7c-1.2,1.2-2.5,2.3-3.7,3.5
					c7.1-18.3,17.8-34.2,28.8-49.4c11.3-15.6,23.5-31,37.9-44.4C954.6,786.7,976.3,774.7,999.3,766z"/>
				<path class="st4" d="M1559.5,416.1c3-3,5.9-6.8,9-8.8c2.5-1.6,5.2-2.9,7.9-3.9c2.6-1,5.3-1.8,7.7-2.5c1.7,4.6,3.2,9.8,4.1,15.2
					c0.1,0.8,0.3,1.7,0.3,2.6c0.1,0.9,0,1.8-0.2,2.6c-1.5,6.3-1.8,9.7,0.8,11.3c0.6,0.4,1.5,0.7,2.5,0.8c1,0.2,2.2,0.3,3.7,0.2
					c2.9,0,6.6-0.5,11.4-1.1c-3.3-3.9-6.6-6.4-8.5-9.5c-2.1-3.4-4.4-7.6,1.5-11.8c2.9-2,5.3-2.3,7.2-1.4c1,0.4,1.8,1.2,2.5,2.1
					c0.7,1,1.3,2.1,1.8,3.3c4.3,11.2,6.5,23.2,8.4,35.2c0.9,5.6,1.9,11.4,4,16.8c0.9,2.2,1.7,4.2,1.8,6.1c0.1,1.9-0.5,3.8-2.8,5.8
					c-1.1,1-1.3,3.5-1.1,5.2c1.3,9.9,2.4,20,3,30.3l0.4,6.5c0.1,2,0.2,3.9,0.3,5.9c0.1,3.9,0,7.9-0.7,11.8c-0.2,0.9-0.4,1.8-0.7,2.7
					c-0.5,1.3-0.9,2.5-1.7,3.7c-0.7,1.2-1.4,2.3-2.3,3.4l-1.3,1.6l-1.4,1.4c-0.5,0.5-0.9,1-1.4,1.4l-1.5,1.3c-2.2-2.1-4.4-4.2-7.6-7
					c0.2-0.5,0.5-0.9,0.7-1.4l0.6-1.5c0.4-0.9,0.7-2,0.9-3c0.5-2,0.8-4,0.8-6.1c0-1.8-0.2-3.4-0.5-5.1c-0.5-2.8-1.4-5.6-2.5-8.1
					c-0.5-1.3-1.1-2.4-1.6-3.7l-0.4-0.9c0-0.1-0.1-0.1-0.1-0.3l-0.1-0.4l-0.2-0.9l-0.9-3.4c5.5-3.9,4.1-7.9,2-11.7
					c-2.1-3.9-4.8-7.6-2-11.8c-4.7,0.1-8.7,0.2-12.7,0.3l-0.5-1.4l0.2-1.5c2.6-1.3,5.3-2.6,7.9-4c-0.2-0.7-0.4-1.4-0.6-2.1
					c-2.7,0.1-5.5,0.2-8.2,0.2c-3-18.8-8.1-35.6-15.1-47.5c-2.2-3.7-4.6-7-7.1-9.8C1564.9,420.6,1562.3,418.2,1559.5,416.1z"/>
				<path class="st5" d="M979.3,835.3c17-10.1,35.6-17.3,54.4-22.8c5.8-1.6,11.5-3.5,17.3-5.1l2.2-0.6l2.2-0.6
					c1.5-0.4,2.9-0.8,4.4-1.1c2.9-0.7,5.9-1.4,8.9-1.8c1.2,1.5,2.3,2.8,3.4,4c1.1,1.2,2.2,2.3,3.3,3.2c1.1,0.9,2.2,1.7,3.2,2.3
					c1.1,0.6,2.2,1.2,3.3,1.5c1.1,0.4,2.2,0.6,3.4,0.7c1.1,0.1,2.3,0.1,3.5-0.1c2.4-0.4,5.1-1.1,8-2.5c2.2-0.9,4.4-2.3,6.5-3.9
					c1.8-1.3,3.8-2.5,5.7-3.5c2-0.9,4-1.6,6.1-2.3c2.1-0.6,4.2-1.1,6.3-1.4c2.1-0.3,4.3-0.4,6.5-0.5c4.4-0.2,8.8,0.3,13.2,0.8
					c2.2,0.2,4.4,0.6,6.7,1c2.2,0.4,4.5,0.7,6.7,1c11.7,3.3,23.3,7.2,35,11.4c2.2,4.4,5.2,6.2,8.6,7c3.4,0.8,7.3,0.4,11.2,0
					l16.2,6.3l13.1,4.9l6.6,2.5l6.7,2.4l5,1.9l5,1.9c6,2.6,12.1,5.1,18.3,7.6l9.4,3.6l2.4,0.9l2.4,0.8l4.8,1.7
					c4.4,7.2-1.1,6.6-5.3,5.6c-4.4-1-8.6-3.3-12.9-4.6c-1.1-0.3-2.2-0.6-3.3-0.7c-1.1-0.2-2.2-0.2-3.3-0.2c-2.2,0.1-4.5,0.7-6.9,2.1
					c-20.6-5.9-40.1-12.5-59.1-18.6c-13.3-4.3-26.2-8.5-38.9-11.9c-12.7-3.5-25.1-6.1-37.2-7.3c-1.2-0.1-2.4-0.2-3.7-0.3
					c-1.2,0-2.4,0-3.7,0.1c-2.4,0.1-4.9,0.3-7.3,0.7c-2.4,0.5-4.7,1.1-7,1.8c-1.1,0.4-2.3,0.7-3.3,1.2c-1.1,0.5-2.1,1-3.1,1.5
					c-7,3.7-13.3,6.3-19.5,6.7c-6.2,0.4-12.5-1.4-19.9-6.2c-0.6-0.4-1.3-0.6-2-0.7c-0.7-0.1-1.4-0.1-2.1-0.2
					c-0.7-3.2-1.4-6.3-2.4-10.4c-5.9,2.4-10.8,4.7-15.7,7.2c-2.6-3.3-4.3-3.5-5.5-2.5c-1.2,1.1-1.9,3.6-2.7,5.5
					c-7.8-3.9-15.4-2.7-23.2-0.1C1000.7,828.8,989.7,831.1,979.3,835.3z"/>
				<path class="st6" d="M1446.1,814.8c2.1,0.2,4.2,0.3,6.3,0.4c-2.2,7.4,2.2,7.3,7.4,7.4l30.5,0.2l7.6,0c2.4,0,4.8,0,7.1-0.1
					c4.7-0.1,9.3-0.3,13.9-0.6c5.4-0.3,9.8-1.9,11.3-8.4l1.7-0.2l0.8-0.1c0.2,0,0.4-0.1,0.5-0.1c0.7-0.1,1.4-0.2,2-0.3
					c1.4-0.2,2.7-0.5,4.1-0.8c3,5.5,6,5.8,9,4.5c4.1-1.8,8.1-4,11.5-6.9c3.4-2.8,6.3-6.3,8.3-10.3c2.6-5,3.6-10.7,3-16.3
					c-0.2-1.8-1.1-3.6-2.4-5.2c-1.2-1.7-2.7-3.1-4-4.5c-2.1-6.6-5.8-12.6-10.5-17.7c-0.3-0.3-0.6-0.7-0.9-1
					c-0.3-0.3-0.6-0.6-0.9-0.9c-0.2-0.3-0.8-0.7-1.2-1.1c-0.4-0.4-0.9-0.8-1.3-1.2c-1.8-1.6-3.6-3.1-5.5-4.5c-1-0.7-1.9-1.4-2.8-2
					l-1.4-0.9l-1.8-1.1c-1.2-0.7-2.4-1.4-3.6-2.1l-3.8-2l3.4-6.5c1.8,0.6,3.7,1.2,5.5,1.9l5.3,2.1c3.1,1.2,6.2,2.7,9.3,4.5
					c5.6,6.1,9.3,8,20.1,6.3c2.1,2.7,4,5.6,5.8,8.5l-6.5,2.9c-0.7-1.9-1.6-3.8-2.5-5.7l-2.9,2.1c1.8,1,3.7,2.2,5.5,3.5
					c4.4,8.3,7.1,17.6,6.5,26.9c5.8,3.4,7.9,7.7,7.7,11.5c-0.1,3.9-2.6,7.3-5.4,10.1c-2.4,2.4-5.1,4.3-7.2,6.3
					c-4,3.9-9.2,6.5-14.1,8.7c-2.5,1.1-4.9,2.2-7.2,3.4c-2.4,1.2-4.6,2.6-7,4.3c-2.7,2-7.9,2.9-10.5,0.7c-0.6-0.5-1.1-0.9-1.6-1.2
					c-0.5-0.3-1.1-0.6-1.7-0.8c-1.2-0.3-2.3-0.4-3.4-0.4c-2.2,0.2-4.4,1-7,1.9c-8.4,2.8-17.8,3.8-27.2,4.2
					c-22.8,0.8-45.6,0.9-68.2,0.3l0.6-10.7c3.3-0.6,6.9-0.6,9.8-2.1C1441.2,820.1,1443.5,817.1,1446.1,814.8z"/>
				<path class="st7" d="M1267.3,858.8c2.4-1.4,4.7-2,6.9-2.1c1.1-0.1,2.2,0,3.3,0.2c1.1,0.2,2.2,0.4,3.3,0.7
					c4.3,1.2,8.5,3.5,12.9,4.6c4.2,1,9.7,1.6,5.3-5.6c2.1,0.3,4.2,0.7,6.3,1l6.3,0.8c2.1,0.3,4.2,0.5,6.3,0.9c2.1,0.3,4.2,0.6,6.2,1
					c14.8,2.9,29.6,5.1,44.3,6.8c14.8,1.7,29.5,2.9,44.3,3.7c14.7,0.8,29.4,1.3,44,1.5c7.3,0.1,14.6,0.1,21.9,0.1l10.9,0l11-0.1
					c6.8,3.6,14.2,4.6,21.7,4.3c3.7-0.1,7.6-0.6,11.4-1.1c1.9-0.3,3.8-0.6,5.7-0.9c2.1-0.4,4.2-0.7,6.2-1.1c3.8-0.6,7.4-1.8,10.8-2
					c3.4-0.3,6.6,0.3,9.9,3c-4.7,1.5-9.5,2.7-14.3,3.8c-2.4,0.5-4.9,1-7.3,1.4l-1.8,0.3l-1.6,0.2c-1,0.2-2.1,0.3-3.1,0.5
					c-8.2,1.2-16.3,1.9-24.2,2.3c-4,0.2-7.9,0.3-11.8,0.4l-5.8,0.1l-5.5,0l-22.1,0.2c-25.5,0.1-51.3,0.7-77.5-1.2
					c-20.6-1.6-41.3-4.1-62-7.9c-2.6-0.5-5.2-1-7.8-1.5c-2.6-0.5-5.2-1-7.8-1.6l-7.8-1.8l-3.9-0.9l-3.9-1l-7.7-2
					c-2.6-0.7-5.1-1.4-7.7-2.2c-2.5-0.7-5.1-1.4-7.6-2.2L1267.3,858.8z"/>
				<path class="st8" d="M1446.1,814.8c-2.6,2.3-4.9,5.3-7.9,6.8c-2.9,1.5-6.5,1.5-9.8,2.1c-34.7-2-68.7-6.1-101.5-13.5
					c-2.9-0.7-5.8-0.8-8.8-0.8c-3,0-6,0-9-0.2c-13.6-4.9-27-10.6-40.6-16.6c-10.6-4.1-21.3-8.5-32.2-12.8c-7.4-3.1-15-6.2-22.6-9.2
					c-3.5-1.2-7-2.3-10.6-3.5c-5.3-1.7-10.5-3.4-15.9-5c-2.7-0.8-5.4-1.6-8.1-2.4l-8.2-2.2c-3.5-2.1-7.2-4.1-10.9-6.1
					c2.6,0.5,5.2,0.9,7.8,1.4c2.6,0.5,5.2,1.1,7.9,1.6c5.4,1.1,10.9,2.4,16.9,3.8c-1.6-5.2-2.3-7.3-3-9.4
					c23.3,8.1,44.7,17.4,65.4,26c5.1,2.1,10.3,4.3,15.3,6.3l7.6,3.1l7.5,2.9c2.5,1,5,1.9,7.5,2.8c2.5,0.9,5,1.9,7.4,2.7l7.4,2.5
					c2.5,0.8,4.9,1.5,7.4,2.3c5,1.6,10.2,2.9,15.4,4.2c2.6,0.6,5.2,1.2,7.8,1.7l3.9,0.8l4,0.7c10.5,2.1,21.3,3.5,32.1,4.9
					c11.1,1.4,22.3,2.4,33.6,3.2C1423.2,813.8,1434.6,814.4,1446.1,814.8z"/>
				<path class="st9" d="M1583.4,286.1c7.5-0.9,9.3-1.6,9.5-1.7c0.2-0.1-1.2,0.5-1.8,1c-0.3,0.2-0.7,0.6-0.9,1
					c-0.2,0.4-0.3,0.7,0,0.7c0.3,0,0.1,0.4-0.2,1.5c-0.2,0.5-0.4,1.2-0.7,2l-0.2,0.7c-0.1,0.2-0.2,0.5,0,0.8
					c0.3,0.7,0.5,1.4,0.8,2.2c0.1,0.4,0.2,0.8,0.4,1.1l0.2,0.6c0.2,0.3,0.6,0.6,0.9,0.9c1.2,1.2,2.4,2.3,3.7,3.5
					c2.5,2.2,5.4,4.6,8.4,6.7c1.5,1,3.1,2.2,4.7,3.3c1.6,1.1,3.3,2,5,3.1c1.8,1.1,3.6,2,5.5,3c1,0.5,1.9,0.9,2.9,1.4
					c1,0.5,2,1,3,1.4c5.2,2.2,10.2,6,15,10.2c2.3,2.1,4.7,4.3,6.9,6.7c1.1,1.1,2.2,2.3,3.3,3.4c1.1,1.2,2.2,2.3,3.2,3.4
					c-1.5,3.1-2.4,6-2.8,8.7c-0.4,2.7,0,5.2,0.8,7.6c1.7,4.9,5.9,9.4,12.6,14.8l2.8,4.1l-6.7,3.9c-4.9-6.7-11.3-12.4-15.8-19.1
					c-3.3-4.8-6.2-9.9-9.6-14.9c-1.6-2.5-3.4-4.9-5.3-7.4c-1.9-2.4-3.9-4.6-6.1-6.8c-8.3-8.1-17.7-14.5-27.1-19.7l-3.5-1.9l-3.5-1.8
					l-3.5-1.7l-0.7-0.3l-0.4-0.2l-0.9-0.4l-2.9-1.3l-1.8-0.9c-2.4-1.2-4.6-2.6-5.7-4.4c-1.1-1.8-1-4.1,1.8-6.9
					c0.3-0.3-0.6,0-0.9-0.1c-1.6-0.5-3.1-1.1-4.6-1.8c6.1-2.3,7.7-3,7.7-3.3c0-0.3-1.6-0.1-1.5-0.4c0.2-0.3-0.5-0.4,0.1-0.7
					C1576,287.7,1577.8,287.2,1583.4,286.1z"/>
				<path class="st10" d="M1486.9,661.4c-2.9-1.5-5.9-3-8.7-4.6c-2.9-1.5-5.7-3.1-8.4-4.7c-1.5-0.8-2.9-1.7-4.3-2.5
					c-1.4-0.9-2.9-1.7-4.2-2.6c-2.7-1.7-5.8-3.6-7.4-5.1c-0.9-0.7-1.5-1.4-1.8-1.9c-0.1-0.3-0.2-0.5-0.2-0.6c0-0.1,0-0.2,0.1-0.2
					l0,0l-0.3,0.3c-0.2,0.2-0.4,0.4-0.7,0.6l-0.6,0.6c-0.2,0.2-0.4,0.3-0.6,0.5c-0.4,0.3-0.6,0.5-0.9,0.7l-0.3,0.2l-0.5,0.3
					c0.1-0.1,0.2-0.1,0.3-0.1c0.5-0.3,1.6-0.7,3.2-1c1.8-0.4,4-0.5,6.2-0.4c2.2,0.1,4.4,0.4,6.4,0.8c-2-0.4-4.4-0.7-6.6-0.8
					c-2.3-0.1-4.4,0.1-6,0.5c-1.6,0.3-2.7,0.8-3.2,1l-0.1,0.1l0,0l0,0l0,0l0,0l0,0c0.1-0.1-0.3,0.2,0.3-0.2l0,0l0.2-0.1
					c0.1-0.1,0.2-0.1,0.3-0.2l0.5-0.3l0.5-0.4c0.2-0.2,0.4-0.3,0.6-0.5c0.3-0.3,0.9-0.8,1.4-1.2c1.7-1.7,4-4.1,6.9-8.1l0.3-0.4
					c0,0,0,0,0,0l0,0l0,0.1c0,0,0.1,0.1,0.1,0.2c0.1,0.1,0.3,0.3,0.5,0.5c0.5,0.4,1.2,1,2.3,1.6l3.4,2.1c4.6,2.8,9.6,5.4,14.8,8.1
					c10.4,5.2,21.7,10.2,33.5,15.5c2.4,1.1,5.7,1.2,8.2,2.2c2.6,1,4.4,3,3.9,7.6c-0.1,0.6,1.6,2.1,2.1,2c7.7-2.5,14.1-0.1,20.1,3.6
					c1.5,0.9,3,1.9,4.5,2.9c1.5,1.1,3,2.1,4.4,3.1c0.7,0.5,1.5,1,2.3,1.5c0.8,0.5,1.5,1,2.3,1.5c1.5,0.9,3.1,1.7,4.8,2.4
					c1.8,0.8,3.6,1.7,5.3,2.6c0.9,0.5,1.7,0.9,2.6,1.4c0.9,0.5,1.8,1.1,2.7,1.7c3.6,2.3,7,4.9,10.2,7.7c3.2,2.8,6.2,5.8,9.1,8.9
					l0.5,0.6l0.6,0.6l1.1,1.3c0.8,0.9,1.5,1.7,2.3,2.6c1.5,1.8,2.9,3.5,4.3,5.3c2.7,3.4,5.2,7,7.5,10.6c2.3,3.7,4.4,7.4,6.3,11.2
					c1.9,3.8,3.5,7.7,5,11.7c1.4,4,2.7,8,3.6,12.1c-4.2-5.2-8.8-9.8-13.7-13.7c-3.3-4.6-7-8.8-10.8-12.6c-2-4.6-4-9.6-7.3-13.8
					c-1.8-2.2-3.7-4.5-5.7-6.6c-1-1.1-2-2-2.9-3c-1-1-2-1.9-3-2.9c-4-3.8-8.3-7.4-12.9-10.6c-2.3-1.7-4.6-3.1-6.8-4.5
					c-2.3-1.5-4.6-2.8-6.9-4.2c-2.3-1.4-4.7-2.6-7-3.9c-1.2-0.6-2.3-1.3-3.5-1.9l-3.5-1.7C1524.1,675.3,1504.9,668.6,1486.9,661.4z"
					/>
				<path class="st11" d="M1684.9,154.7c-15.4-4.3-31.9-3.8-44.9-13.8c-2.3-1.7-6.4-2-9.2-1.3c-6.7,1.8-13.2,3.5-19.5,5.1
					c-3.2,0.8-6.3,1.5-9.5,2.2l-4.8,1l-5,0.9c0-5-2-4.4-4.5-2.3c-2,1.7-4.3,3-6.6,3.9c-0.6,0.2-1.2,0.4-1.8,0.6l-0.4,0.1
					c-0.1,0-0.1,0-0.3,0.1l-0.4,0.1l-1.7,0.3c-2.3,0.4-4.7,0.8-7.1,1c-9.6,1.2-19.5,1.4-29.2,2c-3.8,0.2-8-0.5-12.4-1.6
					c-4.4-1.1-9-2.3-13.5-3.1c14.2-3,29-5.8,44.2-8.5c3.8-0.7,7.7-1.4,11.5-2l5.8-1l1.4-0.3c0.3-0.1,0.5-0.1,0.7-0.2l1.3-0.3
					c1.7-0.5,3.5-0.9,5.2-1.3c1.7-0.4,3.4-0.8,5.1-1.2c1.9-0.4,3.6-0.8,5.5-1.1c1.8-0.4,3.5-0.7,5.3-1c3.5-0.7,7-1.3,10.5-2
					c7.1-1.4,14.5-2.9,22-5.1c6.9-2,13.2-0.5,19.8,3.3c4.8,2.8,9.9,5.2,15.1,7.4C1675.5,140.4,1682.4,145.4,1684.9,154.7z"/>
				<path class="st12" d="M1590.7,489.5c4-0.1,8-0.2,12.7-0.3c-2.8,4.2-0.1,7.9,2,11.8c2.1,3.8,3.5,7.8-2,11.7l0.9,3.4l0.2,0.9
					l0.1,0.4c0,0.1,0.1,0.2,0.1,0.3l0.4,0.9c0.6,1.2,1.1,2.4,1.6,3.7c1,2.5,1.9,5.2,2.5,8.1c0.3,1.7,0.5,3.4,0.5,5.1
					c0,2-0.3,4.1-0.8,6.1c-0.3,1-0.5,2-0.9,3l-0.6,1.5c-0.2,0.5-0.5,1-0.7,1.4c3.1,2.8,5.4,4.9,7.6,7c-0.2,0.3-0.5,0.6-0.7,0.9
					l-0.8,0.8c-1.6-0.6-3-1-4.3-1.3c-1.3-0.4-2.4-0.6-3.4-0.7c-2-0.2-3.6-0.1-4.7,0.8c-2.3,1.5-3.1,5.4-4.2,12.2l-2.5,0.6
					c-6-2.9-11-6.6-15-10.6c1.3-0.3,2.2-1,2.3-2c0.1-1.1-0.6-2.7-2.2-5c4.7-2,8.8-4.8,11.8-8.3c1.5-1.8,2.7-3.7,3.5-5.8
					c0.9-2.1,1.3-4.3,1.3-6.5c0-2.7-0.5-5.2-1.1-7.6c-0.3-1.2-0.7-2.3-1-3.5l-0.1-0.2c0-0.1,0-0.1-0.1-0.4l-0.2-1.2l-0.3-2.4
					l-0.6-4.8C1591.2,502.4,1591.3,495.8,1590.7,489.5z"/>
				<path class="st13" d="M1662.5,580.9c0.9-1.5,1.6-3.1,2.4-4.7l1.1-2.4c0.4-0.8,0.6-1.6,1-2.4l1.8-4.9c0.5-1.7,1-3.3,1.4-5
					c0.9-3.6,1.5-7.3,1.9-10.9l-3-1.2c-1.6,3.3-3.3,6.4-5.3,9.4c-0.9,1.4-1.9,2.8-2.9,4.1l-3.2,3.8c-1,1.3-2.3,2.4-3.4,3.6l-1.8,1.7
					c-0.6,0.6-1.3,1.1-1.9,1.6c-0.3-1.1-0.5-2.1-0.7-3.1c-0.2-1-0.4-2-0.5-2.9c-0.1-0.9-0.2-1.8-0.2-2.7c0-0.8,0-1.7,0-2.6
					c0-1.7,0.2-3.3,0.5-4.8c0.2-1.5,0.5-3,0.8-4.5c0.6-3.4,1.3-6.8,1.2-10.2c-0.1-4.7-1.2-9.4-2.7-13.9c-1.4-4.5-3.2-8.9-4.8-13.2
					c2.3-3.7,8.7-2.4,13.9-2.9c2.6-0.2,4.9-0.9,6.3-3c1.4-2.1,1.8-5.5,0.5-11.2c-5.7,2.8-10.8,5.1-16.5,7.8c-2.3-7.2,2-9.1,7.2-11.2
					c7.6-3.1,11.3-4.8,12.6-7.9c1.3-3.1,0.2-7.6-2.4-16.4c0.7-0.9,0.9-2.2,1.2-3.6c0.2-1.4,0.3-2.9,0.7-4.2c0.7-2.5,2.3-3.9,7.3-1.4
					c1.3,4.8,4.3,10.4,3.2,14.4c-1.7,5.5-1.2,10.2,0.1,14.7c1.3,4.5,3.4,8.7,5,13.1c-0.2,1.1-0.1,2.1,0.2,3.2
					c-0.2,2.1-0.5,4.3-0.8,6.4l-0.2,1.6l-0.1,0.4l-0.1,0.5l-0.1,1.1l-0.4,4.3c-0.6,5.8-1.3,11.6-2.2,17.2c-1.3,8.3-3.3,16.4-6.4,24
					c-0.7,1.6-1.4,3.2-2.2,4.8l-2.5,4.6c-0.4,0.8-0.8,1.6-1.3,2.3l-1.5,2.2C1664.6,578.1,1663.7,579.6,1662.5,580.9z"/>
				<path class="st14" d="M1583.4,286.1c-5.6,1.1-7.4,1.6-8,2c-0.6,0.3,0.1,0.4-0.1,0.7c-0.2,0.3,1.5,0.2,1.5,0.4
					c0,0.3-1.6,1-7.7,3.3c-3.3,0.3-6.8,0.4-10.7,0.3c-1.7-1-2.7-2.2-3.3-3.4c-0.6-1.3-0.8-2.6-1.2-4c-0.3-1.4-0.9-2.7-2-4.4
					c-0.6-0.9-0.9-1.9-1.2-2.7c-0.3-0.9-0.6-1.6-1.3-2.5c1.7-1,3-2,5.9-2.4c2.9-0.4,7.5,0,14.8,2.1l2.1,0.3c2.2,1.2,6.7,3.2,6.7,3.4
					c-0.1,0.5,0.7,1.4,2.2,2.2c1.4,0.8,3.5,1.6,5.3,2.1c1.9,0.6,3.7,0.8,4.1,0.9c0.5,0.1-0.3,0.1-2.6,0.5c-7.7,0.6-15,0.7-19.2,1.6
					c-3,0.7-0.9,0.9,2.8,0.7c3.7-0.2,9-0.8,13-1.4C1584.2,285.9,1583.8,286,1583.4,286.1z"/>
				<path class="st11" d="M868.2,895.3c1.2-1.2,2.5-2.3,3.7-3.5c0.6-0.6,1.2-1.1,1.9-1.7c0.6-0.5,1.3-1.1,1.9-1.6
					c1.3-1.1,2.6-2.2,3.9-3.2c1.3-1.1,2.7-2.1,4.1-3.1c2.7-2.1,5.7-4.1,8.8-6.1c3.2-2,6.4-4,9.9-5.9c-4.8,11.1-7.5,19.8-9.6,28.5
					c-0.9,4-0.6,6.7,4.8,5.6c-3.8,6-7,12.4-9.6,19c-2.6,6.6-4.5,13.5-5.9,20.6c-1,4.7-5.2,9-8.1,16.3c-2.1-2.1-4.1-4.4-5.7-6.9
					c-0.8-1.2-1.5-2.5-2.2-3.8c-0.7-1.3-1.3-2.6-1.8-4c-1-2.7-1.9-5.5-2.4-8.4c-0.3-1.4-0.5-2.9-0.7-4.3c-0.2-1.4-0.2-2.9-0.2-4.3
					C860.7,916.8,863.9,905.6,868.2,895.3z"/>
				<path class="st15" d="M1578.8,549.8c1.6,2.3,2.3,3.9,2.2,5c-0.1,1.1-1,1.7-2.3,2l-1.6,0.4c-1,0.2-2,0-3-0.1
					c-0.5,0-1-0.1-1.4-0.2c-0.1,0-0.2,0-0.4,0l-0.5,0c-0.3,0-0.7,0-1,0c-1.4,0-2.8,0.3-4.2,1c-1.4,0.6-2.8,1.7-4.2,3.4
					c-3.9,0.7-8,2-12.3,1.7c-14.1-0.6-30-2.3-47.7-1.7c-2.2,0-4.5,0.2-6.7,0.3c-2.3,0.2-4.7,0.4-7.1,0.7c-2.4,0.4-4.7,0.7-7.1,1.1
					l-3.5,0.7c-1.2,0.2-2.3,0.5-3.5,0.8c-9.4,2.2-18.7,5.5-27.7,10.3c-0.8,0.4-1.6,0.9-2.4,1.5c-0.7,0.6-1.5,1.3-2.1,2
					c-1.4,1.4-2.7,2.8-4,4.3c-2.3,0.9-4.6,1.7-6.9,2.9l-3.5,1.7c-1.2,0.6-2.3,1.3-3.4,2c-2.8,2.6-5.3,5.7-7.9,8.7
					c-1.2,1.6-2.4,3.2-3.6,4.8l-0.9,1.2c-0.3,0.4-0.5,0.8-0.8,1.3l-1.6,2.6l-1.6,2.6c-0.5,0.9-1,1.8-1.4,2.7l-1.4,2.7l-0.7,1.4
					l-0.3,0.7l-0.3,0.8c-1.8,4-3.2,8.3-4.3,13c-1,4.7-1.7,9.9-1.4,15.8c0.3,5.8,1.5,12.3,4.3,18.6c2.8,6.4,6.8,11.9,10.6,16.1
					c1,1.1,1.9,2,2.9,3c0.9,0.9,1.9,1.8,2.8,2.6c1.8,1.7,3.5,3.1,5.1,4.4c-0.4,0.6-0.9,1.2-1.3,1.7c-2.1-1.3-4.3-2.8-6.7-4.6
					c-2.4-1.8-4.9-4-7.5-6.7c-2.5-2.6-5.1-5.8-7.4-9.3c-0.6-0.9-1.1-1.8-1.7-2.7c-0.5-1-1-1.9-1.5-2.9c-0.5-1-0.9-1.9-1.3-2.9
					c-0.4-1-0.8-2-1.1-2.9c-1.4-4-2.3-7.8-2.8-11.6c-0.5-3.7-0.6-7.2-0.5-10.6c0.3-6.7,1.4-12.6,3.1-17.9c0.4-1.4,0.9-2.7,1.3-4
					c0.5-1.3,1-2.6,1.5-3.7c1.1-2.3,2.1-4.6,3.3-6.8c1.3-2.2,2.5-4.3,3.9-6.4c1.3-2.1,2.8-4,4.3-6c6-7.7,12.9-14,20-19.2
					c1.5-1.1,3-2.1,4.5-3.2c1.5-1,3-1.9,4.5-2.8l2.3-1.4l2.3-1.2c1.5-0.8,3.1-1.6,4.6-2.4c3.1-1.4,6.2-2.8,9.3-4
					c1.5-0.6,3.1-1.2,4.7-1.7l4.7-1.5c6.2-1.8,12.5-3.4,18.8-4.4c3.2-0.6,6.4-0.9,9.5-1.3c2.9-0.2,5.9-0.5,8.8-0.7
					c11.6-0.7,22.2-0.4,32-0.1l13.9,0.4c4.3,0.1,8.6,0.1,12.4,0c1,0,2-0.1,3-0.1c1-0.1,2-0.1,2.9-0.1l2.8-0.2c0.5,0,0.9-0.1,1.3-0.1
					l0.6-0.1l0.4-0.1l0.8-0.1l0.8-0.2c0.5-0.1,1.1-0.2,1.6-0.3C1576.8,550.4,1577.8,550.1,1578.8,549.8z"/>
				<path class="st16" d="M1613.5,750.3c4.8,4,9.5,8.6,13.7,13.7c1.1,3.7,1.8,7.4,2.4,11.2c0.5,3.8,0.9,7.6,1,11.4
					c0.1,3.8-0.1,7.6-0.5,11.4c-0.5,3.8-1.2,7.5-2.2,11.2c1.7-8.5,1.9-17.2,0.8-25.6l-3.6,0.4c2.6,13.2,1.8,27.4-3,40.5
					c-0.3,0.7-0.6,1.4-0.9,2.1c-2.6,5.5-5.7,10.7-9.5,15.6c-3.8,4.8-8.1,9.3-12.8,13.3c-9.5,8-20.8,14.2-33,18.8
					c-3.3-2.7-6.5-3.3-9.9-3c-3.4,0.3-7,1.4-10.8,2c-2.1,0.3-4.1,0.7-6.2,1.1c-1.9,0.3-3.8,0.6-5.7,0.9c-3.8,0.5-7.6,1-11.4,1.1
					c-7.5,0.3-14.9-0.7-21.7-4.3c9-0.4,18.2-1.1,27.4-2.3c2.3-0.3,4.6-0.6,6.9-1c1.2-0.2,2.3-0.4,3.5-0.6l3.6-0.7
					c5.1-1,10.2-2.2,15.1-3.7c9.9-2.9,19.4-6.9,27.9-12.2c8.5-5.3,16.1-12,21.9-20c2.1-3,4.1-6.1,5.7-9.4c3.5-6.8,5.6-14.1,6.6-21.6
					c0.4-3.7,0.7-7.5,0.4-11.3l0-1.4l-0.1-1.4l-0.3-2.8c-0.3-1.9-0.5-3.7-0.9-5.5c0.4-5.3,0.2-10.8-0.5-16.3
					C1616.5,757.9,1615.1,754.1,1613.5,750.3z"/>
				<path class="st17" d="M1189.5,748.7c0.7,2.1,1.4,4.2,3,9.4c-6.1-1.4-11.5-2.8-16.9-3.8c-2.7-0.5-5.3-1.1-7.9-1.6
					c-2.6-0.5-5.2-0.9-7.8-1.4c-1.7-0.4-3.4-0.7-5.1-1.1l-5.2-0.9l-5.2-0.9l-2.6-0.4l-2.6-0.3l-10.5-1.3l-10.7-0.9
					c-3.5-0.4-7.2-0.4-10.8-0.6l-5.4-0.1c-1.8,0-3.6-0.1-5.4,0l-5.4,0c-1.8,0-3.6,0.1-5.4,0.1c-3.6,0.1-7.2,0.3-10.8,0.5
					c-3,0.2-6,0.2-9,0c-3-0.1-6.1-0.3-9.2-0.6c-6.1-0.5-12.4-1-18.6-0.9c12.6-3.9,25.7-7.5,39.1-8.8c4.1-0.4,8.3-0.7,12.5-0.9
					c2.1-0.1,4.2-0.1,6.3-0.2c2.1-0.1,4.2-0.1,6.3,0c2.1,0,4.2,0,6.3,0.1l6.3,0.3c4.2,0.3,8.3,0.7,12.4,1.1
					c16.4,1.7,32.4,4.9,47.7,8.7c2.5,0.6,4.9,1.4,7.4,2.2C1184.8,747,1187.1,747.9,1189.5,748.7z"/>
				<path class="st18" d="M1683.2,503.9c-1.6-4.4-3.7-8.7-5-13.1c-1.3-4.5-1.7-9.2-0.1-14.7c1.2-4-1.9-9.6-3.2-14.4
					c0.8-9.3,1-18.9-0.7-28.5c-1.6-9.6-5.2-19.2-11.9-27.6c-1.4-1.8-2.3-3.5-2.9-5.1c-0.5-1.6-0.7-3.2-0.6-4.8
					c0.1-1.6,0.4-3.1,0.8-4.7c0.4-1.6,0.8-3.1,1.2-4.7c1.9,2.6,3.7,5.2,5.5,7.9c1.7,2.7,3.4,5.4,5,8.1c3.2,5.4,6.1,10.9,8.8,16.5
					c5.7,18.9,9.1,37.4,10.3,55.2C1691.3,484.9,1692.4,496.5,1683.2,503.9z"/>
				<path class="st19" d="M1422.5,694.2c0.4-0.6,0.9-1.1,1.3-1.7c2.6,1.3,5,2.4,7,3.2l5.8,2.2l2.9,1.1l2.9,1l5.7,1.9
					c7.5,2.4,14.9,4.5,22.1,6.4c7,1.8,14,3.6,21,5.4c6.8,1.7,13.3,3.5,19.7,5.4c9.1,2.8,16.7,8.6,23.7,13.4l-3.4,6.5
					c-14-6.4-30.8-10.8-49.2-16.7c-9.2-3-18.8-6.3-28.7-10.6c-2.5-1.1-4.9-2.3-7.4-3.5c-2.5-1.2-5-2.6-7.4-3.9
					c-2.5-1.3-4.9-2.9-7.4-4.3l-1.8-1.1l-2.1-1.3C1425.7,696.5,1424.2,695.5,1422.5,694.2z"/>
				<path class="st8" d="M1564.8,773.5c1.3,1.4,2.8,2.9,4,4.5c1.3,1.6,2.2,3.4,2.4,5.2c0.6,5.5-0.4,11.3-3,16.3
					c-2,4-4.9,7.4-8.3,10.3c-3.4,2.9-7.4,5.1-11.5,6.9c-3,1.3-6,1-9-4.5c4.4-1.9,8.4-4.2,11.8-7c3.4-2.8,6.2-6.3,8.3-10.1
					c0.8-1.6,1.7-3.2,2.3-4.9c0.6-1.7,1.2-3.5,1.6-5.3C1564.2,781.3,1564.6,777.5,1564.8,773.5z"/>
				<path class="st20" d="M1556.2,262.5c0-1.9,1.4-3.3,3.8-3.8c2.4-0.5,6-0.2,10.1,1.3c1.8,0.7,3,0.6,4.1,0.5
					c1.1-0.2,2.2-0.5,3.5-0.3c4.1,0.5,7.9,1.5,11.2,2.4c-1,3.9-1.7,5.5-2.8,6.3c-1,0.8-2.5,0.7-3.7,1c-1.2,0.3-2.3,0.7-3.3,1.1
					c-1-0.8-2.4-2-3.7-2.9c-1.2-1-2.2-1.7-2.2-1.6c1.1,1.8,1.3,2.7,0.8,2.9c-0.5,0.2-1.8-0.3-3.6-1
					C1566.9,266.6,1561,263.9,1556.2,262.5z"/>
				<path class="st21" d="M979.3,835.3c10.5-4.2,21.4-6.5,31.7-10c7.8-2.6,15.4-3.8,23.2,0.1c-6.3,3.1-11.9,7.6-17.5,11.8
					c-5.7,4.2-11.4,8-18.8,10c-2-2.7-3.9-5.3-7.1-9.6c-8.1,2.8-16.7,6.4-25,10.7c1-2.3,2.1-4.4,3.2-6.7c1.7-1.1,3.4-2.2,5.1-3.2
					c0.9-0.5,1.7-1.1,2.6-1.6L979.3,835.3z"/>
				<path class="st18" d="M1662.5,580.9c1.2-1.3,2-2.8,3.1-4.3l1.5-2.2c0.5-0.7,0.9-1.5,1.3-2.3l2.5-4.6c0.8-1.6,1.5-3.2,2.2-4.8
					c3.1-7.6,5.1-15.7,6.4-24c0.9-5.6,1.6-11.4,2.2-17.2l0.4-4.3l0.1-1.1l0.1-0.5l0.1-0.4l0.2-1.6c0.3-2.1,0.6-4.2,0.8-6.4
					c2.1,2.1,3.7,4.4,4.7,6.7c0.1,0.3,0.3,0.6,0.4,0.9l0.2,0.4c0.1,0.1,0.1,0.3,0.2,0.5c0.2,0.9,0.4,1.7,0.6,2.6
					c0.3,1.8,0.5,3.5,0.6,5.4c0.5,7.4-0.8,15.1-3.1,22.5c-2.1,6.6-4.7,13-7.6,19.2l-1.7,3.4l-0.8,1.7l-0.2,0.4l-0.1,0.1l0,0
					c-0.1,0,0,0-0.1,0l0,0.1l-0.1,0.2l-0.4,0.8l-1.8,3.3c-0.6,1.1-1.1,2.2-1.8,3.3c-1.1,1.9-2.2,3.8-3.5,5.6
					c-1.3,1.8-2.6,3.6-3.9,5.4c-1.4,1.7-2.8,3.4-4.3,5c-1.5,1.6-3.1,3.2-4.6,4.7c-6.4,6.1-13.6,11.3-21.3,15.6
					c-7.7,4.3-16,7.8-24.6,10.4c-8.6,2.6-17.4,4.3-26.4,5.2c1.2-0.4,2.3-0.9,3.4-1.4c1.1-0.5,2.2-1,3.3-1.6c2.2-1,4.4-2,6.7-2.6
					c10-2.8,19.6-6.6,28.5-11.5c8.9-4.9,17-10.9,23.8-18c1.2-1,2.4-2.2,3.5-3.3l1.7-1.7c0.6-0.6,1.1-1.2,1.6-1.8
					c1.1-1.2,2.2-2.4,3.2-3.7L1662.5,580.9z"/>
				<path class="st8" d="M1530.2,813.8c-1.5,6.5-5.9,8.1-11.3,8.4c-4.5,0.3-9.1,0.5-13.9,0.6c-2.4,0-4.7,0.1-7.1,0.1l-7.6,0
					l-30.5-0.2c-5.2-0.1-9.6,0.1-7.4-7.4c13.7-0.8,27.4-2.2,41.2-2.6c3.6-0.1,6.6-0.2,9.7-0.2c3.1,0,6.2,0,9.2,0.1
					C1518.6,812.7,1524.4,813.1,1530.2,813.8z"/>
				<path class="st13" d="M1649.6,595.4c-6.9,7.1-15,13.2-23.8,18c-8.9,4.9-18.5,8.7-28.5,11.5c-2.3,0.7-4.5,1.6-6.7,2.6
					c-1.1,0.5-2.2,1.1-3.3,1.6c-1.1,0.5-2.3,1-3.4,1.4c-2.3,0.3-4.5,0.7-6.9,0.9l-3.1,0.3c-1,0.1-1.9,0.2-2.8,0.3
					c-3.7,0.3-7.4,0.5-11,0.7c-7.1,0.3-13.9,0.2-20.2-0.2c-7.1-0.4-13.6-2.4-19.8-3.6c10.8-1.6,23.3-3,36.7-4.9l5-0.7l5.1-0.8
					l5.2-0.9c0.9-0.1,1.8-0.3,2.6-0.5c0.4-0.1,0.9-0.2,1.5-0.3l1.5-0.3c8.1-1.5,15.9-3.5,23.4-6c7.7-2.5,15.6-6.2,23.5-9.7
					C1632.6,601.3,1640.6,597.8,1649.6,595.4z"/>
				<path class="st22" d="M1556.2,262.5c4.8,1.4,10.7,4.2,14.2,5.7c1.8,0.8,3.1,1.2,3.6,1c0.5-0.2,0.2-1-0.8-2.9
					c0-0.1,1,0.7,2.2,1.6c1.2,1,2.7,2.1,3.7,2.9c0.4,0.8,1.5,2.3,1.3,2.4c-2.7,0.7-5.5,1.4-8.1,2.5l-2.1-0.3
					c-4.3-2-8.9-4.3-12.1-6.2c-2.9-1.7-4.4-3.1-6.3-4.7C1553.2,263.8,1554.7,263.1,1556.2,262.5z"/>
				<path class="st23" d="M969,841.6c-1.1,2.2-2.2,4.4-3.2,6.7c-5.1,4-9.9,8.2-14.5,12.6c-2.3,2.2-4.5,4.4-7.2,5.8
					c-1.3,0.7-2.7,1.4-4.4,1.8c-1.6,0.4-3.4,0.6-5.5,0.6c-2.6,0-5.2,1.1-7.6,2.6c-1.2,0.7-2.5,1.6-3.7,2.4c-1.2,0.8-2.4,1.6-3.6,2.3
					c0.8-1.5,1.5-3,2.3-4.6c0.8-1.6,1.5-3.2,2.3-4.7c0.8-1.5,1.8-3,2.8-4.3c1-1.3,2.2-2.5,3.5-3.4c2.9-2.1,6.1-4,9.2-5.7
					c3.2-1.7,6.4-3.3,9.7-4.7C955.6,846,962.3,843.7,969,841.6z"/>
				<path class="st17" d="M999.3,766c-23,8.7-44.7,20.7-64.4,35.4c5.2-5.4,10.2-11.2,16.5-15.4c10.2-6.7,21.2-12.2,32.1-17.7
					c10.9-5.5,21.7-11,32.3-18c2.6-1.7,5.7-2.6,9-3.4c3.3-0.7,6.7-1.3,9.9-1.9c1.4,2,1.7,3.6,1,4.8c-0.7,1.3-2.2,2.3-4.5,3.1
					C1020.2,756.7,1009.6,761,999.3,766z"/>
				<path class="st24" d="M1042.4,822.3c4.8-2.5,9.8-4.8,15.7-7.2c0.9,4.1,1.7,7.2,2.4,10.4c-1.5,0.7-2.8,1.3-3.9,1.8
					c-1.1,0.6-2.1,1-3,1.4c-1.7,0.7-3,1-4.1,0.8C1047.3,829.1,1045.7,826.7,1042.4,822.3z"/>
				<path class="st9" d="M1584.7,285.8c-4,0.6-9.4,1.2-13,1.4c-3.7,0.2-5.7,0-2.8-0.7c4.2-1,11.5-1.1,19.2-1.6
					C1586.8,285,1585.7,285.4,1584.7,285.8z"/>
				<path class="st25" d="M1663.5,374.1c-6.7-5.4-10.8-10-12.6-14.8c-0.8-2.4-1.1-4.9-0.8-7.6c0.4-2.7,1.3-5.6,2.8-8.7
					C1657.7,353.4,1661.2,363.9,1663.5,374.1z"/>
				<path class="st25" d="M1680.3,418.7c-2.7-5.5-5.6-11-8.8-16.5c-1.6-2.7-3.3-5.4-5-8.1c-1.8-2.7-3.5-5.3-5.5-7.9
					c-0.6-1.4-1-2.8-1.4-4.2l6.7-3.9c3.2,6.8,5.9,13.6,8.2,20.4C1676.9,405.4,1678.7,412.1,1680.3,418.7z"/>
				<path class="st10" d="M1622.1,824.5c4.8-13.1,5.6-27.3,3-40.5l3.6-0.4c1.1,8.5,0.9,17.2-0.8,25.6
					C1626.5,814.5,1624.6,819.7,1622.1,824.5z"/>
				<path class="st13" d="M1477.5,633.8c5.7-2.7,13.6-4.7,21.3-5.1C1491.1,629.1,1483.2,631.1,1477.5,633.8z"/>
				<path class="st10" d="M1463.9,641.5c-0.2-0.1-0.5-0.1-0.7-0.2c-0.2-0.1-0.4-0.2-0.6-0.3c-0.2-0.1-0.3-0.2-0.4-0.4
					c-0.1-0.1-0.2-0.2-0.3-0.5c-0.1-0.7-0.1-1.5,0.4-2c0.3-0.2,0.5-0.5,0.9-0.6c0.4-0.1,0.9-0.2,1.5-0.2c0.3,0,0.6,0,0.8,0.1
					c0.3,0,0.7,0.1,1,0.2c0.7,0.2,1.5,0.4,2.2,0.8c-0.5,0.3-1.2,0.6-1.6,0.9c-0.2,0.2-0.5,0.3-0.8,0.4c-0.2,0.2-0.4,0.3-0.6,0.5
					l-0.4,0.2c-0.1,0.1-0.2,0.2-0.3,0.3c-0.2,0.2-0.4,0.4-0.6,0.5C1464.3,641.4,1464.1,641.5,1463.9,641.5z"/>
				<path class="st24" d="M1044,839.3c1.6-0.8,3.1-1.6,4.7-2.4c0.3,0.8,0.6,1.7,1,2.5c-1.6,0.7-3.1,1.6-4.6,2.3
					C1044.7,841,1044.4,840.1,1044,839.3z"/>
				<path class="st12" d="M1589.6,480.7c2.7-0.1,5.5-0.2,8.2-0.2c0.2,0.7,0.4,1.4,0.6,2.1c-2.6,1.4-5.3,2.7-7.9,4
					C1590.2,484.6,1589.9,482.6,1589.6,480.7z"/>
				<path class="st26" d="M1534.5,732.5c-7.1-4.8-14.7-10.6-23.7-13.4c-6.3-1.9-12.9-3.7-19.7-5.4c-7-1.8-14-3.6-21-5.4
					c-7.2-1.9-14.6-4-22.1-6.4l-5.7-1.9l-2.9-1l-2.9-1.1l-5.8-2.2c-2-0.8-4.4-1.9-7-3.2c-1.6-1.3-3.3-2.8-5.1-4.4
					c-0.9-0.8-1.8-1.7-2.8-2.6c-1-1-1.9-1.9-2.9-3c-3.8-4.2-7.8-9.7-10.6-16.1c-2.8-6.4-4.1-12.8-4.3-18.6c-0.3-5.8,0.4-11,1.4-15.8
					c1-4.7,2.5-9,4.3-13l0.3-0.8l0.3-0.7l0.7-1.4l1.4-2.7c0.5-0.9,0.9-1.8,1.4-2.7l1.6-2.6l1.6-2.6c0.3-0.4,0.5-0.9,0.8-1.3l0.9-1.2
					c1.2-1.6,2.4-3.2,3.6-4.8c2.6-3,5.1-6,7.9-8.7c-5.6,7.4-10.2,15.8-13,24.7l-1,3.3l-0.5,1.7c-0.2,0.5-0.3,1.1-0.5,1.7
					c-0.6,2.4-1,4.8-1.4,7.3c-0.3,2.5-0.5,5-0.6,7.7c-0.1,2.6,0.1,5.4,0.4,8.2c0.7,5.6,2.4,11.8,5.7,17.6c1.6,2.9,3.5,5.4,5.5,7.7
					c2,2.2,4,4.2,5.9,5.8c3.9,3.4,7.5,5.9,10.5,8.2l2.1,1.7c0.7,0.6,1.4,1.1,2,1.7c1.4,1.2,2.7,2.4,4,3.7c1.5,1.4,3.6,2.4,5.9,3
					c2.3,0.6,4.8,0.8,7.3,0.8c-1.7-2.8-3.6-5.1-5.7-7.4c-2.1-2.2-4.3-4.1-6.6-6c-1.2-0.9-2.3-1.8-3.6-2.6c-1.2-0.8-2.5-1.7-3.9-2.6
					c-2.8-1.8-5.9-3.8-9.1-6.5c-3.2-2.6-6.6-6.2-9.1-10.6c-1.3-2.2-2.2-4.6-3-6.9c-0.7-2.3-1.1-4.7-1.3-6.9
					c-0.4-4.5,0.1-8.7,1.1-12.5c0.5-1.9,1.2-3.7,1.9-5.4c0.8-1.7,1.7-3.3,2.7-4.7l3.8,1.2c-0.1,2.1,0.2,4.3,0.5,6.3
					c0.3,2.1,0.6,4,0.4,6c-0.3,3.9-0.4,8,0.6,12.2c0.5,2.1,1.2,4.2,2.3,6.1c1.1,1.9,2.4,3.7,3.9,5.2c3.5,3.6,7.5,5.9,11.5,7.6
					c2,0.9,4,1.5,6.2,2c1.1,0.3,2.1,0.5,3.2,0.7c1.1,0.2,2.2,0.3,3.4,0.4c-1-0.7-2-1.4-3.1-2c-1-0.7-2.1-1.4-3.1-2.1
					c-2-1.4-3.8-2.9-4.9-4.9c-0.9-1.8-1.1-3.9-0.8-6.5c0.3-2.5,1-5.5,2.1-8.5c2.4,0.6,5.5,1.5,9.2,2.8c1.8,0.7,3.6,1.4,5.3,2.1
					c1.8,0.7,3.5,1.4,5.2,2.2c6.9,2.9,13.6,6,20.8,7.9c18,7.3,37.2,14,56.1,23.2l3.5,1.7c1.2,0.6,2.4,1.2,3.5,1.9
					c2.3,1.2,4.7,2.5,7,3.9c2.3,1.4,4.6,2.7,6.9,4.2c2.3,1.5,4.5,2.9,6.8,4.5c4.6,3.3,8.9,6.8,12.9,10.6c1,1,2,1.9,3,2.9
					c1,1,1.9,1.9,2.9,3c2,2.1,3.9,4.3,5.7,6.6c3.4,4.1,5.3,9.1,7.3,13.8c1.8,4.4,2.9,9.1,4.7,13.2c1.8,4.2,4.6,7.7,10.2,10.9
					c0.7,5.5,0.8,11,0.5,16.3c-0.3,3.2-0.9,6.3-1.7,9.8c-0.9,3.5-2.1,7.4-4.2,11.9c-0.8-10.5-2.9-20.1-5.8-29
					c-2.9-8.9-6.4-17.3-11-25.1c-2.3-3.9-4.8-7.7-7.6-11.2c-2.8-3.5-5.9-6.8-9.3-9.7c-6.7-5.9-14.6-10.2-23.2-12.1
					c5.6,5.1,9.8,11,14.1,16.5c1.1,1.3,2.2,2.8,3.3,4c1,1.3,2.2,2.5,3.3,3.7c2.4,2.3,5,4.5,8.3,6.7c3.9,2.6,5.6,4.5,5,6.2
					c-0.6,1.7-3.5,3.4-8.8,6.1c-1.7-3-3.7-5.8-5.8-8.5c-2-2.6-4.2-5.1-6.6-7.5c-0.6-0.6-1.2-1.2-1.9-1.9c-0.7-0.7-1.4-1.4-2.2-2
					c-0.7-0.6-1.5-1.3-2.3-2c-0.8-0.6-1.6-1.3-2.4-2c-2.2,4.3-3.5,6.7-4.8,9.1c-3.1-1.7-6.2-3.2-9.3-4.5l-5.3-2.1
					C1538.2,733.7,1536.3,733.1,1534.5,732.5z"/>
				<path class="st2" d="M1659.6,382.1c0.4,1.4,0.8,2.8,1.4,4.2c-0.4,1.6-0.8,3.1-1.2,4.7c-0.4,1.6-0.7,3.1-0.8,4.7
					c-0.1,1.6,0.1,3.2,0.6,4.8c0.5,1.6,1.5,3.3,2.9,5.1c6.7,8.4,10.3,18,11.9,27.6c1.6,9.6,1.4,19.2,0.7,28.5
					c-5-2.6-6.6-1.1-7.3,1.4c-0.4,1.2-0.5,2.7-0.7,4.2c-0.2,1.4-0.5,2.7-1.2,3.6c-2.6,4.6-5.3,9.1-8.8,14.7
					c-3.6-8.1-7.7-15.8-11.9-23.2c-4.2-7.4-8.3-14.4-12.3-21.5c-2.5-4.5-4.2-9.4-5.5-14.6c-1.4-5.2-2.4-10.6-3.7-16
					c2.9,4.4,5.5,9,8.2,14.2c2.7,5.2,5.3,11,8,18c2.7-8.2,0.3-15.1-2.4-21.2c-2.7-6.2-5.7-11.5-4.7-18.4c2.7-0.9,4.9-0.7,6.9,0.2
					c2,0.9,3.8,2.4,5.3,4.2c3.3,3.6,5.9,8.2,9.8,10.8c4.7-6.8,0.8-13.5-2-19.4c-3.9-8.3-7.8-16.6-12.2-25
					c-4.5-8.3-9.5-16.6-15.7-24.6c-2.2-2.9-4.6-5.7-7.1-8.5c-1.2-1.4-2.5-2.7-3.8-4.1c-1.3-1.3-2.6-2.7-3.9-4
					c-1.3-1.2-2.7-2.5-4.1-3.7l-2.1-1.8l-2.1-1.7c-1.4-1.1-2.9-2.2-4.4-3.3c-1.5-1-3-2-4.5-2.9c-3-2-6.1-3.5-9.3-5l-1.2-0.5
					l-0.6-0.2c-0.4-0.2-0.9-0.3-1.3-0.4c-0.4-0.1-0.9-0.3-1.3-0.4c-0.5-0.1-1-0.3-1.2-0.2c-2.6-0.2-5.7,0.3-10.1,1.5
					c-3.3-3.6-5.7-6.6-7.1-9.4c-0.5-1.3-0.8-2.6-0.9-3.8c-3.1-2-5.7-4-7.6-6.3c2.1-0.5,4.2-1,6.3-1.4c3.8,0.1,7.4,0,10.7-0.3
					c1.5,0.6,3,1.2,4.6,1.8c0.2,0.1,1.2-0.2,0.9,0.1c-2.8,2.8-2.8,5.1-1.8,6.9c1.1,1.8,3.3,3.2,5.7,4.4l1.8,0.9l2.9,1.3l0.9,0.4
					l0.4,0.2l0.7,0.3l3.5,1.7l3.5,1.8l3.5,1.9c9.4,5.2,18.8,11.6,27.1,19.7c2.2,2.2,4.2,4.4,6.1,6.8c1.9,2.4,3.6,4.8,5.3,7.4
					c3.4,5,6.3,10.1,9.6,14.9C1648.3,369.7,1654.8,375.4,1659.6,382.1z"/>
				<path class="st4" d="M1438.3,583.1c1.3-1.5,2.6-2.9,4-4.3c0.7-0.7,1.4-1.4,2.1-2c0.7-0.6,1.5-1.1,2.4-1.5
					c9.1-4.8,18.3-8.1,27.7-10.3c1.2-0.3,2.3-0.5,3.5-0.8l3.5-0.7c2.4-0.4,4.7-0.7,7.1-1.1c2.4-0.2,4.8-0.5,7.1-0.7
					c2.2-0.1,4.5-0.3,6.7-0.3c17.6-0.6,33.6,1.1,47.7,1.7c4.3,0.2,8.4-1,12.3-1.7l3,1.7c1,0.6,2,1.1,3,1.6l3,1.6l1.5,0.7l1.2,0.8
					c-0.4,0.1-0.8,0.1-1.2,0.1c-0.6,0-1.1,0-1.6,0.1c-1.1,0-2,0.2-2.4,0.8c-3.2,5.5-7.6,7.6-12.4,8.1c-4.8,0.6-10-0.4-15.5-1
					c-10.5-1.1-21.5-1.9-33-1.8c-5.8,0.1-11.5,0.4-17.7,1.1c-6.1,0.8-12.1,1.9-18,3.5c-1.1,0.3-2.3,0.5-3.5,0.6
					c-0.6,0-1.2,0.1-1.9,0.1c-0.6,0-1.3,0.1-1.9,0.1c-1.3,0-2.6,0-3.9,0c-1.3,0-2.6,0.1-3.9,0.2c-3,0.2-6.1,0.7-9.3,1.2
					c-1.6,0.3-3.1,0.6-4.7,1l-2.4,0.6C1439.9,582.6,1439.1,582.9,1438.3,583.1z"/>
				<path class="st4" d="M1596.2,566.9c1.1-6.8,1.8-10.7,4.2-12.2c1.1-0.8,2.7-1,4.7-0.8c1,0.1,2.2,0.4,3.4,0.7
					c1.3,0.3,2.7,0.8,4.3,1.3C1608.1,560.8,1602.3,564.3,1596.2,566.9z"/>
				<path class="st4" d="M1577.1,557.3l1.6-0.4c4,4.1,9,7.7,15,10.6c-2.8,2.2-6,4-9.2,6.1c-0.6,0.4-1.1,0.6-1.6,0.7
					c-0.5,0.1-1,0.1-1.4,0c-0.9-0.2-1.6-0.7-2.2-1.5c-1.2-1.5-2.2-3.7-3.2-5.4C1576.7,564.1,1577,560.7,1577.1,557.3z"/>
				<path class="st12" d="M1577.1,557.3c-0.1,3.4-0.4,6.8-0.9,10.2c-0.7,0.2-1.4,0.3-2.2,0.3l-1.2-0.8l-1.5-0.7l-3-1.6
					c-1-0.5-2-1.1-3-1.6l-3-1.7c1.4-1.7,2.7-2.8,4.2-3.4c1.4-0.7,2.8-0.9,4.2-1c0.3,0,0.7,0,1,0l0.5,0c0.2,0,0.2,0,0.4,0
					c0.5,0,0.9,0.2,1.4,0.2C1575.1,557.2,1576.2,557.4,1577.1,557.3z"/>
				<path class="st13" d="M1636.8,585.5c0.7-0.7,1.4-1.3,2-2.1c0.6-0.7,1.3-1.4,2.1-2c0.9-0.7,2.5-0.3,5.8-1.1
					c-1.5,1.9-3,3.3-4.3,4.5c-1.2,1.3-2.4,2.3-3.6,3.3C1638.2,587.3,1637.5,586.4,1636.8,585.5z"/>
				<path class="st0" d="M1558.5,292.8c-2.1,0.5-4.2,0.9-6.3,1.4c-1.9-0.1-4.7-0.1-7.1-0.3c-2.4-0.1-4.3-0.5-4-1.1
					c0.3-0.7,0.5-1.5,0.6-2.2c0.1-0.7,0.1-1.3,0-2c-0.2-1.3-0.8-2.7-1.9-4c-0.5-0.7-1.2-1.4-2-2.2c-0.8-0.8-1.7-1.6-2.6-2.5
					c-0.9-0.9-1.7-2-2.2-3c-0.5-1-0.8-1.9-1-2.8c-0.2-0.7,0.4-1.2,1.1-1.6c0.8-0.5,1.7-0.9,2.4-1.3c4.5,1.7,9.1,3.2,14,4.6
					c0.7,0.9,1,1.7,1.3,2.5c0.3,0.9,0.6,1.9,1.2,2.7c1.2,1.7,1.7,3,2,4.4c0.3,1.4,0.6,2.7,1.2,4
					C1555.8,290.6,1556.8,291.9,1558.5,292.8z"/>
				<path class="st20" d="M1549.5,275.7c-4.9-1.4-9.5-3-14-4.6c5.1-3.1,10.7-5.1,16.3-6.6c1.9,1.6,3.4,2.9,6.3,4.7
					c3.2,1.9,7.8,4.2,12.1,6.2c-7.3-2.1-11.9-2.4-14.8-2.1C1552.4,273.7,1551.2,274.8,1549.5,275.7z"/>
				<path class="st0" d="M1490.6,294.3c-8.6,0.4-14.2,0.2-17.9-0.3c-1.8-0.3-3.1-0.6-4.1-1c-0.5-0.2-0.9-0.4-1.2-0.6
					c-0.3-0.2-0.5-0.5-0.6-0.7c-0.6-1-0.2-2,0.2-3.1c0.4-1.1,0.7-2.1-0.4-2.9c4.3,0.5,8,1.1,11.1,1.7c1.6,0.3,3,0.6,4.2,0.9
					c1.3,0.3,2.4,0.6,3.4,0.9c2,0.6,3.3,1.4,4.2,2.2C1490.4,292.2,1490.7,293.2,1490.6,294.3z"/>
				<path class="st0" d="M1559.8,300.5c0.1,1.2,0.4,2.5,0.9,3.8c-2.9,0.8-4,0.4-3.9-0.4C1556.9,303.1,1558.2,301.8,1559.8,300.5z"/>
				<path class="st27" d="M1189.4,815.1c-11.7-4.2-23.3-8.1-35-11.4c1.9-3.2,2.9-4.7,3-6.5c0.1-1.8-0.8-3.7-2.6-7.4
					c2.8,0,5.4,0.2,8.2,0.4c-1.2-7.1-1.2-13.1,8.9-10.7c4.9,5,9.9,5.3,11.5-1.8c1-4.6,2.9-6.3,5.3-6.6c2.4-0.3,5.1,0.7,8,1.4
					l5.2,1.8l5.1,1.9l0,0c-6.2,11-6.2,11.1,3.2,12.3l15.7-1.7l-0.4,11.2l-11.1-0.4c-3.7-0.1-7.4-0.2-11.1-0.3l-6.7-2.4
					c-5.4-1.1-11-3-17,3.8c5.9,3.9,10.8,7.2,15.7,10.6L1189.4,815.1z"/>
				<path class="st28" d="M1196.7,772.6c-2.8-0.7-5.6-1.8-8-1.4c-2.4,0.3-4.3,2-5.3,6.6c-1.6,7.1-6.6,6.8-11.5,1.8
					c-2.1-7.3-6.3-14.5-1.2-22.1l8.2,2.2c2.7,0.8,5.4,1.6,8.1,2.4c5.4,1.6,10.6,3.3,15.9,5L1196.7,772.6z"/>
				<path class="st3" d="M1041,775.6c3.3,0.1,6.6,0.2,9.8,0.5l-0.7,3.3C1047.1,778.1,1044.1,776.9,1041,775.6L1041,775.6z"/>
				<path class="st2" d="M1022.4,798.9c-1.2,1.7-2.5,3.4-3.8,4.9c-1.3,1.5-2.7,3-4.1,4.2c-1.5,1.2-3.1,2.3-4.8,3.1
					c-0.9,0.4-1.8,0.7-2.8,1c-1,0.3-2,0.5-3.1,0.6C1005.8,797,1008.9,794.9,1022.4,798.9L1022.4,798.9z"/>
				<path class="st28" d="M1580.5,755.8c5.3-2.7,8.2-4.4,8.8-6.1c0.6-1.7-1.1-3.7-5-6.2c-3.3-2.1-5.9-4.3-8.3-6.7
					c-1.2-1.2-2.3-2.4-3.3-3.7c-1.1-1.3-2.2-2.7-3.3-4c-4.3-5.5-8.4-11.4-14.1-16.5c8.7,1.9,16.5,6.2,23.2,12.1
					c3.4,2.9,6.5,6.2,9.3,9.7c2.8,3.5,5.3,7.3,7.6,11.2c4.6,7.8,8.1,16.2,11,25.1c2.9,8.9,5,18.5,5.8,29c2.1-4.5,3.3-8.4,4.2-11.9
					c0.8-3.5,1.4-6.7,1.7-9.8c0.4,1.8,0.6,3.7,0.9,5.5l0.3,2.8l0.1,1.4l0,1.4c0.2,3.8,0,7.5-0.4,11.3c-1,7.5-3.1,14.8-6.6,21.6
					c-1.6,3.3-3.6,6.4-5.7,9.4c-5.8,8-13.4,14.7-21.9,20c-8.5,5.3-18,9.3-27.9,12.2c-4.9,1.5-10,2.7-15.1,3.7l-3.6,0.7
					c-1.2,0.2-2.3,0.4-3.5,0.6c-2.3,0.4-4.6,0.7-6.9,1c-9.2,1.2-18.3,1.9-27.4,2.3l-11,0.1l-10.9,0c-7.3,0-14.6,0-21.9-0.1
					c-14.6-0.2-29.3-0.7-44-1.5c-14.7-0.8-29.5-2-44.3-3.7c-14.8-1.7-29.6-4-44.3-6.8c-2.1-0.4-4.1-0.7-6.2-1
					c-2.1-0.3-4.2-0.6-6.3-0.9l-6.3-0.8c-2.1-0.3-4.2-0.6-6.3-1l-4.8-1.7l-2.4-0.8l-2.4-0.9l-9.4-3.6c-6.1-2.5-12.3-5-18.3-7.6
					c3.3-2.2,6.4-5.2,9.8-7.2c3.4-2.1,7.1-3.3,11.7-1.9c14.5,4.2,29.3,7.3,43.5,12.1c6.8,2.4,13.1,3.1,18.9,2.1
					c5.8-1.1,11.1-3.9,16-8.9c4.6,0.6,9.1,1.3,13.7,1.8c-3.3,3.5-6.7,6.9-11.6,11.8c2.4,0.1,4.7,0.3,7,0.5c2.3,0.2,4.6,0.5,6.8,0.8
					c2.2,0.3,4.4,0.7,6.6,1c2.2,0.3,4.3,0.6,6.4,0.9c4.2,0.6,8.4,0.9,12.5,0.7c2.1-0.1,4.1-0.3,6.2-0.7c2.1-0.4,4.1-0.9,6.1-1.7
					c-2.3-2-4.8-3.3-7.3-4.3c-2.5-1.1-5-1.9-7.4-3c-2.7-1.1-8.4,2.8-7.8-4.3c4.1-0.4,8.2-0.9,12.2-1.5c4.1-0.5,8.1-1.1,12.1-1.9
					c1.9-0.4,3.6-1,5.4-1.8c1.8-0.8,3.5-1.6,5.3-2.3c22.6,0.6,45.4,0.5,68.2-0.3c9.4-0.4,18.8-1.4,27.2-4.2c2.6-0.9,4.8-1.7,7-1.9
					c1.1-0.1,2.2,0,3.4,0.4c0.6,0.2,1.2,0.4,1.7,0.8c0.5,0.3,1.1,0.7,1.6,1.2c2.7,2.3,7.9,1.4,10.5-0.7c2.3-1.7,4.6-3.1,7-4.3
					c2.4-1.2,4.8-2.2,7.2-3.4c4.9-2.2,10.1-4.7,14.1-8.7c2-2,4.7-3.9,7.2-6.3c2.8-2.7,5.3-6.2,5.4-10.1c0.2-3.8-2-8.1-7.7-11.5
					c0.6-9.2-2.1-18.5-6.5-26.9l-0.1,0.1L1580.5,755.8z"/>
				<path class="st27" d="M1361.6,838.2c-4.9,5-10.2,7.8-16,8.9c-5.8,0.9-12.1,0.2-18.9-2.1c-14.1-4.8-29-7.9-43.5-12.1
					c-4.6-1.4-8.3-0.2-11.7,1.9c-3.4,2.1-6.4,5-9.8,7.2l-5-1.9l-5-1.9c4.2-4.5,3.9-9.4,3.4-14.4c-0.5-5.1-1.4-10.3,1.5-15.5
					c-12,1.4-18.6-2.4-21.5-14.2c12.2,2.9,23.5,7.6,33.3-1.5c13.6,6.1,27,11.7,40.6,16.6c2.6,3.1,6.9,4.3,10.8,5.9
					c3.8,1.7,7.1,4.2,7.7,10.3c0.1,1.1,5.3,2.8,7.6,2.2c2.9-0.7,5.5-0.9,7.9-0.4c2.4,0.4,4.6,1.3,6.7,2.5
					C1353.9,831.8,1357.6,835.3,1361.6,838.2z"/>
				<path class="st28" d="M1203.4,797.4c3.7,0,7.4,0.2,11.1,0.3l11.1,0.4c8.4,9.2,20.5,15.9,21.3,33.7c-4.5-2.3-8.4-4.2-12.2-6.2
					c-3.8-1.9-7.5-3.8-11.7-6c1.2,4.5,1.8,6.6,2.4,8.8l-16.2-6.3c-1.4-7.7-5.2-13.2-13.9-12.7c-4.9-3.4-9.8-6.7-15.7-10.6
					c6.1-6.8,11.7-4.9,17-3.8l7.4,10l2.3-2L1203.4,797.4z"/>
				<path class="st2" d="M1225.4,828.4c-0.6-2.1-1.2-4.3-2.4-8.8c4.1,2.1,7.9,4,11.7,6c3.8,1.9,7.7,3.9,12.2,6.2
					c-0.8-17.8-12.9-24.5-21.3-33.7c0.1-3.7,0.3-7.5,0.4-11.2l10.2-7.2c10.9,4.4,21.6,8.7,32.2,12.8c-9.8,9.1-21,4.4-33.3,1.5
					c2.9,11.8,9.5,15.6,21.5,14.2c-2.9,5.2-2,10.5-1.5,15.5c0.5,5.1,0.8,10-3.4,14.4l-6.7-2.4l-6.6-2.5L1225.4,828.4z"/>
				<path class="st2" d="M1195.3,809.3c8.7-0.4,12.5,5,13.9,12.7c-3.9,0.3-7.7,0.7-11.2,0c-3.4-0.7-6.4-2.6-8.6-7L1195.3,809.3z"/>
				<path class="st29" d="M1361.6,838.2c-4-2.9-7.8-6.3-12-8.6c-2.1-1.2-4.3-2.1-6.7-2.5c-2.4-0.4-5-0.3-7.9,0.4
					c-2.4,0.6-7.5-1.1-7.6-2.2c-0.7-6-3.9-8.6-7.7-10.3c-3.8-1.7-8.2-2.8-10.8-5.9c3,0.2,6,0.2,9,0.2c3,0,6,0.2,8.8,0.8
					c32.8,7.4,66.9,11.4,101.5,13.5l-0.6,10.7c-1.8,0.7-3.5,1.6-5.3,2.3c-1.8,0.7-3.6,1.4-5.4,1.8c-4,0.8-8.1,1.4-12.1,1.9
					c-4.1,0.5-8.2,1-12.2,1.5c-1.3-4.6-2.5-9.3-3.5-13.4c-5.3,4.6-9.5,8-13.9,11.5C1370.7,839.5,1366.2,838.8,1361.6,838.2z"/>
				<path class="st28" d="M1554.6,741c1.3-2.3,2.6-4.7,4.8-9.1c0.8,0.7,1.6,1.3,2.4,2c0.8,0.6,1.5,1.3,2.3,2c0.8,0.6,1.4,1.3,2.2,2
					c0.7,0.7,1.3,1.3,1.9,1.9c2.4,2.4,4.6,4.9,6.6,7.5C1563.9,749,1560.1,747.1,1554.6,741z"/>
				<path class="st28" d="M1574.1,758.7c-1.8-1.3-3.7-2.5-5.5-3.5l2.9-2.1c0.9,1.9,1.8,3.8,2.5,5.7L1574.1,758.7z"/>
				<path class="st28" d="M1236.2,779.7l-10.2,7.2l-15.7,1.7c-1-4.1-2.1-8.2-3.2-12.3l0,0l6.4-5.8
					C1221.2,773.5,1228.8,776.6,1236.2,779.7z"/>
				<path class="st2" d="M1213.5,770.5l-6.4,5.8l-5.1-1.9l-5.2-1.8c2.1-1.9,4.1-3.7,6.2-5.6C1206.5,768.1,1210,769.3,1213.5,770.5z"
					/>
				<path class="st28" d="M1617.6,761.8c-5.6-3.2-8.4-6.8-10.2-10.9c-1.8-4.1-2.8-8.8-4.7-13.2c3.8,3.9,7.5,8.1,10.8,12.6
					C1615.1,754.1,1616.5,757.9,1617.6,761.8z"/>
				<polygon class="st2" points="1203.4,797.4 1206.4,803 1204,805 1196.7,795 				"/>
				<path class="st2" d="M1207.1,776.3c1.1,4.1,2.1,8.2,3.2,12.3C1200.9,787.4,1200.9,787.3,1207.1,776.3z"/>
				<path class="st27" d="M1375.3,840c4.3-3.5,8.5-7,13.9-11.5c1.1,4.1,2.3,8.7,3.5,13.4c-0.6,7.1,5.2,3.1,7.9,4.3
					c2.4,1,4.9,1.9,7.4,3c2.5,1.1,5,2.3,7.3,4.3c-2,0.8-4.1,1.3-6.1,1.7c-2.1,0.4-4.1,0.6-6.2,0.7c-4.1,0.2-8.3-0.1-12.5-0.7
					c-2.1-0.3-4.2-0.6-6.4-0.9c-2.2-0.3-4.3-0.7-6.6-1c-2.2-0.3-4.5-0.6-6.8-0.8c-2.3-0.3-4.6-0.4-7-0.5
					C1368.6,846.9,1372,843.5,1375.3,840z"/>
			</g>
		</g>
	</g>
</g>
<g id="Layer_2">
	<g>
		<polygon class="st30" points="1378.2,860.1 1453.7,660.9 1555.6,781.4 		"/>
		<g>
			<g>
				<path class="st31" d="M1375,863.5c1.6-4.5,5.3-15.6,9.7-30.4c4.5-14.8,9.6-33.4,14.7-52.7c5.1-19.3,10.2-39.2,14.7-55.4
					c4.4-16.2,8-28.4,9.5-32.4c1.7-4.6,8-19,16.4-36.9l11.1-23.8l13.9,19.5c25.2,35.5,63.5,90.6,63.5,90.6s15.7,16.2,33.1,34.3
					l6.9,7.2l-9.7,5c-11.6,6-24,12.3-34.8,17.6c-10.8,5.3-19.9,9.5-24.6,11.5c-4.6,1.9-12.7,5.9-22.5,10.6
					c-9.8,4.7-21.2,10.3-32.4,15.3c-11.1,5.1-21.8,9.7-29.7,13.1c-7.9,3.3-13,5.5-13,5.5c8.6-5.7,16.8-11.7,24.6-17.9
					c-17.2,5.3-33.5,10.9-49.4,16.9c23.4-10.4,46.8-21,69.9-31.7c23.1-10.7,45.9-21.4,68.5-32.1c12.6-8.3,24.7-16.4,36.3-24.3
					l-3.2,14.1l-51.6-43.4l-52.5-75.3l20.1-3.4l-3.8,7.7c0,0-5.4,7.6-11.7,17.3c-6.2,9.7-13.3,21.8-16.1,29.1
					c-5.6,14.5-30.2,78.4-30.2,78.4C1393.2,819,1383.9,841.1,1375,863.5z"/>
			</g>
		</g>
	</g>
	<circle class="st32" cx="1570" cy="637.7" r="31.8"/>
	<circle class="st32" cx="1723" cy="567.2" r="18.4"/>
	<circle class="st32" cx="1552.9" cy="695.3" r="14.7"/>
	<g>
		<polygon class="st33" points="1660.5,560.3 1638.4,556 1622.2,571.8 1619.5,549.4 1599.6,538.9 1620,529.4 1623.8,507.2 
			1639.2,523.7 1661.5,520.4 1650.5,540.1 		"/>
		<g>
			<g>
				<path class="st34" d="M1662,561.5c-1.4-0.2-4.2-0.5-8.3-0.7c-4.1-0.3-9.7-0.7-16-1.5l3-0.9c-4.7,5.4-10,11.6-14.9,17.1l-6.6,7.6
					l-2.1-10.6c-1.9-9.7-3.6-18.2-4.4-22.2l3.6,5.2c-1.1-0.5-1.8-0.9-2.3-1.1c-2-1-8.7-5.3-17.1-10.6l-9.8-6.2l10-3.6
					c6.9-2.5,14.8-5.3,21.3-7.6l-1.9,2.5c2.4-9,4.2-15.8,4.2-15.8s0.1-1,0.9-6.2l0.5-3.6l3,2.6c2.3,1.9,10.4,9.5,16.6,15.4l-3.3-1.2
					c7-1.4,12.4-2.4,14.8-2.8c1.5-0.2,4-0.8,7.4-1.5l9-2l-4.1,9.1c-2.8,6.2-6.5,15.2-8.8,20.9l0.2-6.8c1.5,2.6,2.8,4.8,3.6,6.5
					c0.8,1.6,1.3,2.6,1.3,2.6c-1.4-1.6-2.9-2.9-4.4-4.1c-0.7-0.6-1.4-1.2-2.2-1.7l-1.1-0.7l-0.5-0.4l-0.3-0.2l-0.1-0.1l-0.1,0l0,0
					l0,0l0,0l0,0l0,0c0.1-2.6-0.1,3.5-0.1,2.9c0.1-5.8,0-1.6,0.1-2.9l0,0l0,0l0,0l0,0l0,0.1l0.1,0.2l0.1,0.4l0.3,0.7l0.5,1.5l1,3
					c0.7,2,1.3,3.9,1.9,5.7c1.2,3.7,2.3,7.1,3.6,10.3c-3.3-7-6.9-14-10.4-20.7l0,0.1l10.6-19.9l0.3,0.5l-14.8,2.5l-7.3,2.4l-0.6,0.2
					l-1-0.8l-18.2-13.9l9.9-3l0,14l-2.3,8.5l-1.2,4.4l-3,1.1l-21.4,7.6l0.2-9.3l7.4,4.8c0,0,5.6,5,10.9,9l0.8,0.6l0,0.5
					c-0.1,2.9-0.2,5.7,0.1,7.6l1.8,14.9l-1.1-0.4l13.4-13.1l2.9-2.4l0.1-0.1l0.1,0c3.6,1.1,7.3,2.2,11.3,3.2
					C1653.7,559.9,1657.9,560.8,1662,561.5z"/>
			</g>
		</g>
	</g>
	<g>
		<polygon class="st33" points="1689.9,645.5 1670.9,646.5 1660.9,662.8 1654,645 1635.4,640.6 1650.2,628.6 1648.7,609.5 
			1664.8,619.9 1682.4,612.5 1677.5,631 		"/>
		<g>
			<g>
				<path class="st34" d="M1691.4,646.1c-1.2,0.1-3.5,0.5-7,1.1c-3.4,0.6-8.1,1.5-13.4,2.1l2.2-1.3c-2.7,5.4-5.8,11.6-8.6,17.1
					l-3.8,7.6l-4-8.3c-3.6-7.5-6.8-14.2-8.2-17.3l4,3.5c-1-0.2-1.7-0.3-2.1-0.4c-1.8-0.4-8.3-2.5-16.2-5.1l-9.3-3l7.5-5
					c5.2-3.5,11.1-7.5,15.9-10.7l-1,2.5c0.1-7.9,0.2-13.9,0.2-13.9s-0.1-0.8-0.6-5.3l-0.3-3.1l3,1.5c2.3,1.1,10.5,5.6,16.8,9.1
					l-3-0.3c5.4-2.6,9.6-4.6,11.5-5.4c1.2-0.5,3.2-1.5,5.7-2.8l6.9-3.5l-1.4,8.3c-1,5.7-2.2,13.8-2.9,19l-1.3-5.6
					c1.8,1.8,3.3,3.4,4.3,4.6c1,1.2,1.6,1.9,1.6,1.9c-1.5-1-3-1.8-4.5-2.5c-0.7-0.3-1.4-0.6-2.1-0.9l-1-0.4l-0.5-0.2l-0.2-0.1
					l-0.1,0l-0.1,0l0,0l0,0l0,0l0,0l0,0c-0.5-2.2,0.7,2.9,0.6,2.4c-1.1-4.8-0.3-1.3-0.5-2.4l0,0l0,0l0,0l0,0l0,0.1l0.1,0.1l0.2,0.3
					l0.4,0.6l0.8,1.1l1.5,2.2c1,1.5,1.9,2.9,2.8,4.3c1.8,2.8,3.4,5.4,5.1,7.7c-4.2-5-8.6-10-12.8-14.8l0,0.1l4.5-18.6l0.4,0.3
					l-11.6,5.2l-5.5,3.5l-0.5,0.3l-1-0.4l-17.8-7.6l7.5-4.5l2.9,11.5l-0.1,7.5l0,3.8l-2.2,1.5l-15.9,10.7l-1.8-7.7l7.1,2.4
					c0,0,5.6,2.9,10.8,5.1l0.8,0.3l0.1,0.4c0.5,2.4,1.1,4.7,1.6,6.2l4.6,11.9l-0.9-0.1l8.3-13.6l1.9-2.6l0.1-0.1l0.1,0
					c3.2,0.1,6.5,0.3,9.9,0.3C1684.3,646.5,1687.9,646.4,1691.4,646.1z"/>
			</g>
		</g>
	</g>
	<g>
		<g>
			<g>
				<path class="st35" d="M1513.5,615.7c1.6-2.2,3.4-4.1,5.3-6c2-1.9,4.2-3.6,6.7-5.6l1.9-1.5c0.7-0.6,1.4-1.1,2.1-1.8
					c0.7-0.7,1.4-1.3,2.2-2.2c0.4-0.4,0.7-0.8,1.1-1.3c0.4-0.5,0.7-1,1.1-1.6c0.4-0.5,0.7-1.2,1-1.8c0.3-0.7,0.6-1.2,0.8-2
					c0.2-0.7,0.4-1.4,0.6-2.1c0.2-0.7,0.2-1.4,0.3-2.1c0.2-2.9-0.2-5.5-1-7.8c-0.8-2.3-1.7-4.3-2.9-6.1c-0.5-0.9-1.2-1.7-1.8-2.6
					c-0.6-0.8-1.2-1.6-1.9-2.3c-2.6-3-5.4-5.5-8.4-7.7c-3-2.2-6.2-4.1-9.5-5.7c-3.4-1.6-6.9-2.9-10.7-3.8c-2.6-0.6-5.3-0.9-8.2-0.9
					c-2.9,0-5.8,0.2-8.9,1c-3,0.7-6.2,2.1-9,3.9c-2.7,1.8-4.9,4-6.9,6.4c-1.9,2.4-3.6,5.1-4.8,8.4l-0.4,1.3
					c-0.1,0.4-0.2,0.9-0.3,1.3c-0.2,0.9-0.4,1.9-0.5,2.8c-0.2,2-0.1,4.2,0.4,6.5c0.2,1.1,0.7,2.2,1.1,3.3c0.2,0.5,0.5,1.1,0.8,1.5
					c0.3,0.5,0.6,0.9,0.9,1.4c1.2,1.8,2.7,3.2,4.1,4.4c2.9,2.3,5.8,3.7,8.6,4.7c3,0.8,5.9,1.1,8.8,1.1c2.8,0,5.6-0.2,8.4-0.7
					c2.8-0.5,5.6-1.3,8.2-2.5c2.6-1.2,5-2.7,7.2-4.4c2.2-1.7,4.1-3.7,5.8-5.8c1.7-2.1,3.1-4.4,4.2-6.8c2.2-4.8,3.3-10.1,2.8-15.4
					c0.1-2.1-0.2-4.3-0.6-6.3c-0.5-2-1.1-4.1-2-5.9c-1.7-3.8-3.9-7-6.2-10.1c-1.2-1.5-2.4-3-3.6-4.4l-1.8-2.1l-0.9-1l-1-1.1
					c-2.5-2.8-5.2-5.5-8-8.1c-2.6-2.3-5.4-4.4-8.5-6.4c-1.5-1-3.1-1.9-4.9-2.7c-1.7-0.8-3.6-1.6-5.7-2.1c-2.1-0.5-4.6-0.7-7.3-0.1
					c-1.3,0.3-2.7,0.9-3.9,1.7c-0.6,0.4-1.2,0.8-1.6,1.2c-0.5,0.4-1,0.9-1.4,1.4c-1.6,1.9-2.7,3.9-3.4,6c-0.7,2-1.1,4.1-1.3,6.2
					c0.3,2.8,1,5.4,2.3,7.8c1.2,2.4,3.1,4.7,5.4,6c2.2,1.4,4.5,2,6.8,2.3c2.3,0.3,4.5,0.3,6.6,0c4,1.5,8.5,2.4,13,2.9
					c4.5,0.5,9.1,0.5,13.8,0.1c2.9-0.9,5.7-2,8.5-3.3l4.1-2.1c0.7-0.3,1.3-0.8,2-1.2l1.9-1.3c5.1-3.4,9.6-7.6,13.5-12.3
					c3.9-4.7,7.1-9.8,9.7-15.1c2.7-5.3,4.7-10.9,6.3-16.7c-3.2,7.1-7.3,13.6-12.1,19.4c-4.8,5.8-10.4,10.7-16.4,14.3
					c-1.5,0.9-3.1,1.7-4.6,2.5c-1.6,0.6-3.2,1.4-4.8,1.9l-2.4,0.7c-0.8,0.2-1.6,0.5-2.4,0.7c-1.6,0.4-3.3,0.7-4.9,0.9
					c-6.6,0.9-13.5,0.9-19.4-0.3c-2.1,0-4.2-0.1-6-0.5c-1.8-0.3-3.3-0.9-4.1-1.4c-0.4-0.3-0.7-0.5-0.8-0.7c-0.1-0.1-0.1-0.2-0.2-0.2
					c0-0.1-0.1-0.1-0.2-0.3c-0.2-0.3-0.2-0.8-0.3-1.3c0-0.6-0.1-1.2,0-1.8c0.1-1.3,0.5-2.6,0.9-3.2c0.2-0.3,0.3-0.3,0-0.1
					c-0.1,0.1-0.2,0.1-0.3,0.1c-0.1,0.1-0.2,0.1-0.3,0.2c-0.1,0.1-0.2,0.1-0.3,0.1c-0.1,0-0.1,0.1-0.2,0c-0.2,0,0.1,0,0.5,0.1
					c0.5,0.1,1.2,0.4,2,0.7c1.6,0.7,3.4,1.7,5.2,3c5.1,3.1,10.4,7.4,15,11.9c2.5,2.4,4.9,4.8,6.9,7.1c2,2.3,3.8,4.6,4.8,6.9
					c1.1,2.3,1.7,4.6,1.7,7c0,1.2-0.2,2.5-0.4,3.8c-0.3,1.3-0.7,2.6-1.3,3.8c-1.1,2.5-2.8,4.8-4.8,6.8c-2,2-4.4,3.6-7,4.7
					c-3.2,1.8-7.4,2.7-11.5,2.8c-2.1,0-4.2-0.1-6.2-0.6c-2-0.5-4-1.2-5.6-2.4c-1.6-1.2-2.8-3-3.2-5.1c-0.3-2.2,0-4.6,0.9-6.8
					c0.8-2.2,2-4.3,3.6-6.3c0.8-1,1.7-1.9,2.6-2.7c1-0.8,2-1.6,3.2-2.2c4.9-1.2,9.7-0.5,14,0.8c4.3,1.3,8.2,3.5,11.7,5.9
					c3.5,2.5,6.7,5.4,9.1,8.6c1.2,1.6,2.3,3.2,3.1,4.9c0.8,1.6,1.3,3.3,1.3,4.5c0.5,0.9,0.7,1.7,0.7,2.3c0,0.5,0,1.1-0.6,2.1
					c-1.2,2-3.9,4.5-6.5,7.1c-2.7,2.7-5.4,5.6-7.7,8.8c-2.3,3.2-4.3,6.7-5.7,10.3c-3,7.2-4.3,15-4.2,22.5c0.1,7.5,1.4,14.8,3.3,21.9
					c-0.3-7.7,0.3-15.4,2.1-22.5c1.8-7.1,4.9-13.6,9.1-18.6"/>
			</g>
		</g>
	</g>
	<g>
		<g>
			<g>
				<path class="st35" d="M1551.5,741.8c1.3-1.2,3.7-3.4,6.9-6.3c3.2-2.9,7.3-6.4,12.2-10.1c4.9-3.7,10.6-7.6,17-11.3
					c6.4-3.7,13.4-7,20.7-9.8c1.8-0.6,3.7-1.4,5.5-2c1.9-0.6,3.7-1.1,5.6-1.7c3.8-1,7.5-1.9,11.2-2.6c7.4-1.4,14.9-1.9,21.8-1.4
					c3.4,0.3,6.7,0.8,9.7,1.5c1.5,0.3,2.9,0.7,4.2,1.1c0.6,0.2,1.2,0.4,1.8,0.6c0.5,0.2,1.1,0.4,1.7,0.6c4.4,1.5,7.5,3,9.1,3.9
					c1.5,0.8,4.4,2.6,8,5.7c3.6,3,7.9,7.4,11.6,13.7c0.5,0.7,0.9,1.6,1.3,2.4c0.4,0.8,0.8,1.7,1.2,2.6c0.3,0.9,0.6,1.8,1,2.8
					c0.2,0.5,0.3,0.9,0.5,1.4c0.1,0.5,0.2,1,0.3,1.5c0.2,1,0.4,2,0.6,3c0.2,1,0.3,2,0.4,3c0.2,2,0.2,3.9,0.2,5.8
					c-0.1,3.9-0.6,7.9-2.1,12.3c-0.8,2.2-1.8,4.5-3.6,6.9c-0.5,0.6-1,1.2-1.5,1.7c-0.6,0.6-1.2,1.1-1.9,1.6
					c-0.7,0.5-1.4,0.9-2.2,1.4c-0.7,0.4-1.5,0.7-2.3,1c-3.1,1-5.8,0.9-8.2,0.6c-2.3-0.3-4.4-0.9-6.2-1.7c-3.7-1.5-6.8-3.4-9.5-5.5
					c-5.4-4.1-9.4-8.9-12.1-13.5c-2.7-4.6-4-8.9-4.6-11.9c-0.3-1.5-0.4-2.7-0.4-3.6c0-0.8,0-1.3,0-1.3s0-0.3-0.1-0.9
					c0-0.6-0.2-1.4-0.2-2.5c-0.1-2.1,0.1-5.3,1-8.9c0.9-3.6,2.6-7.7,5.2-11.6c2.6-3.9,5.9-7.8,9.9-11.1c4-3.4,8.5-6.2,13.4-8.4
					c2.4-1,5-1.9,7.5-2.5c0.6-0.2,1.3-0.3,1.9-0.4c0.6-0.1,1.3-0.2,1.9-0.3c0.6-0.1,1.3-0.2,1.9-0.2c0.6,0,1.3-0.1,1.9-0.1
					c5-0.3,9.6,0.5,13.3,1.5c3.7,1,6.4,2.2,8.3,3.1c1.8,0.9,4.3,2.2,7.1,3.8c2.8,1.7,5.9,3.7,9.1,6.2c3.2,2.5,6.5,5.3,9.6,8.5
					c1.6,1.6,3.2,3.3,4.7,5.3c1.5,1.9,3,4.1,4.2,6.1c0.6,1,1.1,1.7,1.5,2.2c0.4,0.5,0.7,0.8,1,1c0.3,0.2,0.6,0.5,1,0.8
					c0.4,0.3,0.9,0.6,1.3,0.9c1.8,1.1,3.5,1.8,5.2,2.2c0.8,0.2,1.6,0.4,2.3,0.5c0.7,0.1,1.3,0.2,1.9,0.3c1.1,0.1,1.7,0.1,1.7,0.1
					c-3.9,2.2-8.1,3.9-13.1,4.3c4.2,3.9,10.2,6.6,16.6,8.2c6.5,1.6,13.3,2.2,20.3,2.2c-4.6,0.6-9.2,0.9-13.7,0.9
					c-4.6,0-9.2-0.4-13.7-1.5c-4.5-1-8.8-2.7-12.6-5.3c-3.8-2.5-7.2-5.9-9.2-10.1c-1-2.1-2.1-4.1-3.4-6c-1.3-1.9-2.7-3.7-4.2-5.5
					c-3-3.5-6.4-6.7-9.9-9.6c-3.6-2.9-7.5-5.4-11.6-7.4c-4.1-1.9-8.5-3.3-13-3.8c-3.3,0.2-6.5,0.8-9.5,1.9c-3,1.1-5.8,2.5-8.3,4.3
					c-5.1,3.5-9.4,8-12.3,12.9c-2.9,4.9-4.3,10.1-3.7,14.1c0.2,1,0.3,1.9,0.7,2.7c0.3,0.8,0.7,1.6,1.2,2.3c0.2,0.4,0.5,0.7,0.8,1.1
					c0.3,0.4,0.6,0.7,0.9,1.1c0.6,0.7,1.3,1.4,2.1,2.1c1.4,3.3,4.3,6.9,7.6,9.5c1.6,1.3,3.4,2.4,4.7,3.1c0.7,0.3,1.2,0.5,1.4,0.7
					c0.2,0.2,0,0.2-0.8,0.8c-0.2,0.1-0.4,0.3-0.5,0.4c-0.1,0.1-0.1,0.2-0.2,0.2c-0.1,0.1-0.1,0.1-0.1,0.2c-0.1,0.2-0.1,0.2-0.1,0.3
					c0,0,0,0.1,0,0.1c0,0,0,0,0,0c0,0,0.1,0.1,0.2,0c0.1-0.1,0.1-0.1,0.2-0.2c0.1-0.3,0.3-0.5,0.5-0.9c0.7-1.4,1.2-3.8,1.3-6.1
					c0.1-1.2,0.1-2.4,0.1-3.5c0-0.6,0-1.1-0.1-1.7l-0.2-1.6c0-0.6-0.2-1.1-0.4-1.6c-0.2-0.5-0.2-1.1-0.5-1.6c-0.4-1-0.8-2.1-1.4-3.2
					c0,0-0.1-0.3-0.3-0.9c-0.2-0.6-0.6-1.4-1.1-2.5c-1.1-2.1-2.9-5.1-5.6-7.9c-5.3-5.9-14-11.2-19.5-12.3c-2.8-0.6-8-1.5-14.3-1.4
					c-3.2,0-6.6,0.2-10.1,0.6c-1.7,0.2-3.5,0.4-5.3,0.8c-0.9,0.2-1.8,0.3-2.6,0.5c-0.9,0.1-1.7,0.3-2.6,0.5
					c-6.9,1.4-13.3,3.5-17.9,5.2c-2.3,0.9-4.2,1.6-5.5,2.2c-1.3,0.6-2,0.9-2,0.9c-7.7,2.5-15.2,5.8-22.5,9.6
					c-3.7,1.9-7.2,4-10.7,6.2C1558.3,737.1,1554.8,739.4,1551.5,741.8z"/>
			</g>
		</g>
	</g>
</g>
<g id="Layer_3">
	<g>
		<g>
			<g>
				<g>
					<path class="st36" d="M1440.9,627.4c1.9,1.9,9.1,9.1,18.6,18.9c9.6,9.8,21.4,22.2,32.6,34.5c11.2,12.3,21.8,24.4,29.5,33.5
						c7.7,9,12.5,14.9,12.5,14.9c17.6,18.6,34.6,37.1,51.3,55.4l4.4,4.8l-5.7,2.3l-68.5,27.4l63.8-37.9l-2.2,11.5l-20.3-16.2
						c-22-23.2-43.7-46.8-65.7-71.1C1478,679.4,1460.7,652.9,1440.9,627.4z"/>
					<path class="st36" d="M1546.9,775.7c8.3,7.2,16.8,14.4,25.5,21.8l4.3-22.8l-186.5,102.8l-42.6,19.1l-8,3.6l3.3-8.1
						c13.8-33.9,27.6-67.9,41.6-101.8c20.5-48,40.8-95.4,60.6-142.7c0,0-1,3.1-2.8,8.5c-1.8,5.4-4.3,13.2-7.2,22.5
						c-5.9,18.6-13.2,43.5-19.9,68.2c-6.7,24.7-12.9,49.1-17.9,67.9c-5,18.9-9,32.4-11,36.1c-3,5.6-12,25.5-23,49.5l-24.7-23.8
						c40.4-16,89.5-36,89.5-36l147.6-68.1l-5.1,27C1562.5,791.5,1554.6,783.6,1546.9,775.7z"/>
				</g>
			</g>
		</g>
		<g>
			<g>
				<g>
					<path class="st36" d="M1434.2,675.9c0.8,0.5,11.2,6.4,11.2,6.4l13.9,6.5l-10.2-3l-9.7-4.2L1434.2,675.9z"/>
					<path class="st36" d="M1448,686.1l24.9,8.1l15,6.3l14.9,6.5l0,0l0,0c0,0,0,0,0,0l0,0c-0.1,0-4.8-1.3-9.8-2.7
						c-4.9-1.4-10.1-2.9-10.9-3.4c-1.7-1-14.7-7-14.7-7L1448,686.1z"/>
				</g>
			</g>
		</g>
		<g>
			<g>
				<g>
					<path class="st36" d="M1422.5,704.9c1.7,1.1,23.3,13.2,23.3,13.2l28.9,13.5l-21.2-6.1l-20.1-8.8L1422.5,704.9z"/>
					<path class="st36" d="M1451.1,726.1l51.5,16.8l31.1,13.1l30.9,13.5l-0.1,0l0,0c0,0,0,0,0,0l0.1,0c0,0-2.5-0.7-6.3-1.7
						c-3.8-1-8.8-2.4-13.9-3.9c-10.3-2.9-21-6-22.8-7.1c-3.5-2-30.6-14.4-30.6-14.4L1451.1,726.1z"/>
				</g>
			</g>
		</g>
		<g>
			<g>
				<g>
					<path class="st36" d="M1555.5,803.3c-1.8-1.1-23.9-13.6-23.9-13.6l-29.7-13.9l21.8,6.3l20.6,9L1555.5,803.3z"/>
					<path class="st36" d="M1526.2,781.6l-53-17.2l-32-13.4l-31.8-13.9c0,0,40.6,10.9,44.2,13c3.6,2.1,31.4,14.8,31.4,14.8
						L1526.2,781.6z"/>
				</g>
			</g>
		</g>
		<g>
			<g>
				<g>
					<path class="st36" d="M1513.7,821.3c-1.4-0.9-19.1-10.9-19.1-10.9l-23.8-11.1l17.4,5l16.5,7.2L1513.7,821.3z"/>
					<path class="st36" d="M1490.2,803.9l-42.4-13.8l-25.6-10.7l-25.4-11.1c0,0,32.5,8.7,35.4,10.4c2.9,1.7,25.1,11.9,25.1,11.9
						L1490.2,803.9z"/>
				</g>
			</g>
		</g>
		<g>
			<g>
				<g>
					<path class="st36" d="M1478.9,836.3c-1.1-0.7-15.2-8.6-15.2-8.6l-18.8-8.8l13.8,4l13.1,5.7L1478.9,836.3z"/>
					<path class="st36" d="M1460.2,822.5l-33.6-10.9l-20.3-8.5l-20.2-8.8c0,0,25.7,6.9,28,8.2c2.3,1.3,19.9,9.4,19.9,9.4
						L1460.2,822.5z"/>
				</g>
			</g>
		</g>
		<g>
			<g>
				<g>
					<path class="st36" d="M1437,854.3c-0.8-0.5-10.4-5.9-10.4-5.9l-12.9-6l9.5,2.7l9,3.9L1437,854.3z"/>
					<path class="st36" d="M1424.3,844.8l-23-7.5l-13.9-5.8l-13.8-6c0,0,17.6,4.7,19.2,5.6c1.6,0.9,13.6,6.4,13.6,6.4L1424.3,844.8z
						"/>
				</g>
			</g>
		</g>
		<g>
			<g>
				<g>
					<path class="st36" d="M1396,871.9c-0.4-0.3-5.7-3.2-5.7-3.2l-7.1-3.3l5.2,1.5l4.9,2.1L1396,871.9z"/>
					<path class="st36" d="M1389,866.7l-12.6-4.1l-7.6-3.2l-7.6-3.3c0,0,9.7,2.6,10.5,3.1c0.9,0.5,7.5,3.5,7.5,3.5L1389,866.7z"/>
				</g>
			</g>
		</g>
		<g>
			<g>
				<g>
					<path class="st36" d="M1547.7,495.4c0.3,1,1.1,3.4,1.5,6.8c0.4,3.4,0.4,7.9-0.7,12.7c-0.6,2.4-1.5,4.9-2.7,7.3
						c-1.2,2.4-2.8,4.9-4.7,7c-1.9,2.1-4,3.9-6.1,5.4c-2.1,1.5-4.3,2.8-6.3,3.8c-2.1,1.1-4.1,2-5.9,2.9c-1.9,0.9-3.8,1.8-5.7,2.6
						c-3.7,1.6-7.4,3.1-10.6,4c-3.2,1-6,1.5-8,1.8c-1,0.1-1.8,0.2-2.3,0.3c-0.5,0-0.8,0.1-0.8,0.1c-1.9,0.2-3.9,0.4-5.9,0.3
						c-2-0.1-4-0.3-5.9-0.8c-1.9-0.4-3.8-1-5.6-1.9c-1.8-0.8-3.6-1.8-5.2-3c-1.6-1.2-3.1-2.7-4.4-4.3c-1.3-1.6-2.2-3.5-3-5.4
						c-0.7-2-1.1-4.1-1-6.2c0.1-2.1,0.6-4.3,1.8-6.3c1.2-2,3-3.4,4.9-4.3c1.9-0.9,3.9-1.3,5.8-1.5c1.9-0.2,3.8,0,5.6,0.2
						c1.8,0.2,3.6,0.6,5.4,1.1c7,2,13.2,6.1,18.3,11c-2-1.4-4.1-2.7-6.2-3.8c-2.2-1.1-4.4-2-6.7-2.7c-2.3-0.7-4.6-1.2-6.9-1.4
						c-1.1-0.2-2.3-0.1-3.4-0.2c-0.6,0-1.1,0-1.7,0.1c-0.6,0-1.1,0-1.7,0.1c-2.1,0.3-4.2,0.9-5.7,1.8c-1.5,1-2.2,2.1-2.4,3.4
						c-0.2,1.3,0.1,2.9,0.7,4.4c0.6,1.4,1.7,2.8,2.9,3.8c2,2.5,5.3,4.5,9,5.4c1.9,0.5,3.8,0.7,5.7,0.7c1.9,0,3.9-0.3,5.9-0.7
						c4.1-0.9,8.1-2.6,12.1-4.7c2-1,4-2.2,6.1-3.4c2-1.2,4.1-2.4,6.1-3.6c3.3-0.4,6.6-1,9.9-2.1c1.6-0.6,3.3-1.3,4.9-2.2
						c1.6-1,3.2-2.2,4.6-3.6c2.8-2.8,5.2-6.5,6.7-10.8C1547.8,505.5,1548.4,500.6,1547.7,495.4z"/>
					<path class="st36" d="M1480.3,534c-1.4-0.7-2.6-1.6-3.4-2.7c-0.5-0.6-0.7-1-1-1.6c-0.2-0.5-0.3-1-0.4-1.4
						c-0.1-0.3-0.1-0.5-0.2-0.6c0-0.1,0-0.4,0.4-0.7c0.8-0.7,2.8-1.3,5.1-1.3c4.7-0.3,9.7,0.9,14.5,3.1c4.7,2.2,9.2,5.5,13.1,9.4
						c3.9,3.9,7.3,8.5,9.7,13.6c2.4,5.1,3.8,10.7,3.4,16.4c-0.3,2.9-0.9,5.7-2.1,8.4c-1.2,2.7-2.8,5.3-5,7.4c-1.1,1.1-2.3,2-3.6,2.9
						c-1.3,0.8-2.7,1.5-4.2,2c-3,1-6.1,1.5-9,1.9c-1.9,0.1-3.6,0.2-5.4,0.4c-1.8,0.2-3.7,0.4-5.7,0.4c-2,0-4.1-0.1-6.2-0.8
						c-2.1-0.7-4-2-5.4-3.7c-1.4-1.8-2.2-3.8-2.6-5.9c-0.4-2.1-0.4-4.2,0.1-6.3c0.5-2.1,1.4-4.1,2.7-5.8c1.3-1.7,2.9-3.1,4.6-4.2
						c3.5-2.2,7.6-3.2,11.6-3.3c4-0.1,7.9,0.7,11.6,1.9c3.7,1.2,7.1,2.8,10.5,4.4c3.3,1.6,6.8,3.3,9.9,5.8c3.1,2.5,5.7,6,6.8,10.1
						c0.5,2,0.6,4.3,0.1,6.3c-0.5,2.1-1.5,4-2.7,5.6c-2.5,3.2-5.6,5.5-8.5,7.8c-3,2.2-5.6,4.6-8,7.3c-9.5,10.8-14,26.1-11.5,40.5
						c0,0-0.1-0.4-0.3-1.1c-0.2-0.7-0.6-1.8-0.9-3.3c-0.7-2.9-1.4-7.1-1.2-12.4c0.1-1.3,0.1-2.7,0.3-4.1c0.1-0.7,0.2-1.4,0.3-2.2
						c0.1-0.7,0.3-1.5,0.4-2.2c0.1-0.4,0.1-0.8,0.2-1.2c0.1-0.4,0.2-0.8,0.3-1.2c0.2-0.8,0.4-1.6,0.6-2.4c0.5-1.6,1-3.2,1.7-4.8
						c0.6-1.6,1.4-3.2,2.2-4.9c0.9-1.6,1.8-3.2,2.9-4.8c0.5-0.8,1.1-1.6,1.7-2.3c0.6-0.8,1.2-1.6,1.8-2.3c0.7-0.7,1.3-1.5,2-2.2
						c0.7-0.7,1.3-1.4,2-2c2.5-2.6,4.8-4.9,6-6.9c1.2-2.1,0.9-3.2,0.5-3.8c-0.4-0.7-1.4-2-2.6-2.8c-1.2-0.9-3.1-1.8-5.2-2.6
						c-1.1-0.4-2.2-0.9-3.4-1.3c-1.2-0.4-2.3-0.9-3.4-1.3c-2.1-0.8-3.9-1.3-5.4-1.7c-3-0.8-4.7-1-5.4-1.3c-0.4-0.1-1-0.3-1.5-0.4
						c-0.6-0.1-1.3-0.2-2.1-0.2c-0.8,0-1.7,0.1-2.5,0.3c-0.8,0.2-1.5,0.5-2.1,0.8c-0.2,0.2-0.5,0.3-0.7,0.5
						c-0.1,0.1-0.1,0.1-0.1,0.1c0,0-0.1,0-0.1,0c0,0-0.1,0.1-0.2,0.2c-0.1,0.1-0.2,0.4-0.3,0.7c-0.1,0.3-0.1,0.6-0.1,0.8
						c0,0.2,0,0.4,0,0.5c0,0-0.1,0-0.3,0c-0.2-0.1-0.2,0,0,0.1c0.2,0.1,0.7,0.2,1.4,0.3c1.5,0.1,3.8,0,6.7-0.2
						c3-0.1,5.5-0.1,7.5-0.2c2-0.1,3.5-0.2,4.7-0.5c1.1-0.3,2.1-0.7,3-1.3c1.8-1.1,3.2-2.7,4-3.9c0.8-1.2,1.2-2,1.2-2
						c0.7-1.5,1.1-3.1,1.3-4.7c0.2-1.5,0.3-3.3,0.1-5c-0.3-3.5-1.4-7.1-3.1-10.6c-3.4-7.1-8.9-13.5-15.2-17.8
						c-3.2-2.2-6.6-3.7-10-4.6c-1.7-0.4-3.4-0.7-5.1-0.7c-1.6-0.1-3,0.1-3.7,0.4c-0.4,0.1-0.5,0.3-0.5,0.3c0,0,0.1-0.1,0.2-0.2
						c0.1-0.1,0.1-0.2,0.1-0.1c0,0.1,0,0.4,0,0.7c0,0.3,0.2,0.7,0.3,1.1c0.2,0.4,0.4,0.9,0.7,1.3
						C1478.4,532.5,1479.2,533.3,1480.3,534z"/>
				</g>
			</g>
		</g>
		<g>
			<g>
				<g>
					<path class="st36" d="M1555.2,747c0.3-0.9,0.8-3.3,1.9-6.3c1.2-3,3-6.8,5.7-10.5c2.6-3.7,6.1-7.4,10.1-10.6
						c4-3.2,8.5-5.9,13-7.9c9.1-4.1,18.1-6,24.6-7.1c3.3-0.5,6-0.9,7.9-1.1c1.9-0.2,3-0.3,3-0.3c7.4-1.3,14.8-2,22.3-2.1
						c3.7-0.1,7.4,0,11.2,0.2c3.7,0.2,7.5,0.4,11.4,1.4c1.9,0.5,3.8,1.3,5.6,2.2c1.8,0.9,3.4,2,4.9,3.1c3.1,2.2,5.8,4.6,8.6,6.8
						c2.8,2.1,6,4,8.8,6.6c2.9,2.6,4.8,6.2,5.7,9.9c-1-2.4-2.4-4.6-4.2-6.4c-1.8-1.8-3.9-3-6.1-4.2c-2.2-1.1-4.5-2.2-6.8-3.4
						l-6.6-3.7c-2.1-1.2-4.3-2.2-6.4-3c-2.1-0.7-4.1-1.1-6.3-1.2c-2.2-0.1-4.5,0.1-6.9,0.3c-2.4,0.2-4.8,0.5-7.2,0.9
						c-9.6,0.1-19.2,1.1-28.6,3.2c-4.7,1-9.4,2.2-13.9,3.7c-4.5,1.5-8.9,3.2-13,5.4c-6.8,0.3-14,1.8-21,5.6
						c-3.5,1.9-6.8,4.3-9.9,7.4C1560.1,738.7,1557.4,742.5,1555.2,747z"/>
					<path class="st36" d="M1644.6,714.5c2.9-0.4,5.7-0.8,8.6-1c1.4-0.1,2.9-0.2,4.3-0.3c1.4-0.1,2.7-0.1,3.9-0.1
						c1.2,0,2.3,0.1,3.3,0.2c1,0.1,2,0.4,3.1,0.8c2.1,0.8,4.5,2,7,3.6l4,2.5c1.4,0.8,2.9,1.7,4.3,2.5c2.9,1.5,5.3,2.7,7.1,4.1
						c0.9,0.7,1.6,1.4,2.3,2.2c0.7,0.8,1.3,1.8,1.7,2.9c1,2.2,1.6,4.9,1.9,7.7c0.3,2.8,0.4,5.8,0.4,8.9c0,3-0.1,5.9-0.8,8.5
						c-0.3,1.3-0.8,2.5-1.5,3.6c-0.4,0.5-0.7,1-1.2,1.5l-0.7,0.7l-0.8,0.6c-2.2,1.4-5.1,2-8.1,1.9c-3-0.1-6-0.8-8.9-1.7
						c-2.9-0.9-5.9-2-8.7-3.4c-2.8-1.4-5.5-3.2-7.7-5.8c-2.2-2.6-3.5-5.8-4.3-9c-0.3-2-0.5-4-0.6-6c-0.1-2-0.2-3.9-0.1-5.9
						c0-3.9,0.3-7.9,1-11.8c1.3-7.8,4.1-15.6,9-22.1c1.2-1.6,2.6-3.2,4.2-4.6c1.6-1.4,3.6-2.5,5.5-3.3c2-0.8,3.9-1.3,5.9-1.7
						c1-0.2,2-0.4,3-0.5c1-0.1,2-0.3,3-0.3c8-0.6,16.1,0.7,23.6,3.7c3.7,1.6,7.2,3.6,10.4,5.9c3.2,2.4,6.1,5.2,8.7,8.2
						c5.1,6,9.1,12.7,13.8,18.6c2.4,3,4.9,5.7,7.9,8c2.9,2.3,6.2,4.2,9.7,5.6c7,2.8,14.6,4.1,22.3,4.9c0,0-1.7,0.1-4.8,0.1
						c-3.1,0-7.5,0-12.9-0.7c-2.7-0.4-5.7-1-8.8-2c-3.1-1-6.4-2.4-9.5-4.5c-6.3-4-11.7-9.8-16.6-15.2c-2.5-2.7-4.9-5.3-7.4-7.5
						c-0.6-0.6-1.2-1.1-1.8-1.6c-0.6-0.5-1.2-1-1.8-1.4c-0.6-0.5-1.2-0.9-1.8-1.3l-0.9-0.6l-0.9-0.5c-4.9-2.9-10.2-4.4-14.8-5.1
						c-4.7-0.6-8.7-0.4-11.7,0c-3,0.4-5,0.9-6,1c-1,0-2.9,0.3-3.7,0.6c-0.4,0.1-0.9,0.3-1.6,0.9c-0.4,0.3-0.8,0.7-1.3,1.2
						c-0.5,0.5-1,1.2-1.5,1.8c-2,2.6-3.8,6-5.1,10.1c-0.6,2-1.2,4.2-1.6,6.5c-0.4,2.3-0.7,4.6-0.8,7c-0.2,2.4-0.2,4.8-0.1,7.1
						c0.1,2.3,0.2,4.1,0.6,5.5c0.2,0.7,0.3,1.3,0.5,1.7c0.2,0.5,0.4,0.9,0.7,1.3c0.6,0.9,1.5,1.8,2.6,2.6c2.2,1.6,4.7,2.9,6.6,3.8
						c1.7,0.8,2.7,1.2,2.7,1.2c1.9,0.6,3.7,1.1,5.3,1.3c0.8,0.1,1.4,0.1,2,0c0.5-0.1,1-0.1,1.3-0.3c0.3-0.1,0.5-0.2,0.7-0.4
						c0.2-0.1,0.3-0.3,0.5-0.6c0.4-0.6,0.8-1.8,1.1-3.5c0.3-1.7,0.5-3.9,0.6-6.3c0.1-2.3,0.2-4.5,0.2-6.6c-0.1-2-0.3-3.9-0.7-5.3
						c-0.4-1.5-0.9-2.6-1.5-3.5c-0.3-0.4-0.6-0.8-1.1-1.2c-0.5-0.4-1.1-0.9-1.9-1.5c-1.5-1.1-3.6-2.3-6-3.9
						c-4.7-3.2-8.4-6.2-11.5-7.9c-0.8-0.4-1.5-0.8-2.2-1c-0.7-0.3-1.3-0.5-2.1-0.6c-1.5-0.3-3.3-0.5-5.5-0.6c-1.1,0-2.2,0-3.4,0
						c-1.1,0-2.3,0-3.4,0C1649.2,714.3,1646.9,714.4,1644.6,714.5z"/>
				</g>
			</g>
		</g>
		<g>
			<g>
				<g>
					<path class="st36" d="M1742.2,568.5c-0.1,0.4-0.2,2-0.8,4c-0.6,2-1.8,4.4-3.3,6.3c-1.5,2-3.4,3.5-4.9,4.4
						c-0.4,0.2-0.7,0.4-1,0.6c-0.3,0.1-0.6,0.3-0.8,0.4c-0.5,0.2-0.7,0.3-0.7,0.3c-3.5,1.7-7.5,2.3-11.3,1.6
						c-3.8-0.6-7.2-2.6-9.7-5.3c4.1,3.2,9.3,4.3,13.8,3.2c4.6-0.4,9-2.9,11.6-6.7c1.5-0.9,2.9-2.1,4.2-3.5
						C1740.4,572.2,1741.4,570.5,1742.2,568.5z"/>
					<path class="st36" d="M1724.4,582.8l-1,0.2c-0.3,0.1-0.7,0.1-1,0.2c-0.7,0.1-1.3,0.1-2,0.2c-1.4,0-2.7-0.1-4.1-0.6
						c-0.7-0.1-1.3-0.5-2-0.7c-0.6-0.3-1.3-0.6-1.9-1c-1.2-0.7-2.4-1.7-3.4-2.7c-1-1.1-1.8-2.3-2.6-3.6c-0.7-1.3-1.2-2.8-1.5-4.3
						c-0.3-1.5-0.4-3.1-0.3-4.6c0.1-1.6,0.4-3.1,1-4.6c1.6-3.7,4.6-6.7,8.1-8.5c3.6-1.9,7.8-2.3,11.7-1.5c3.9,0.9,7.4,3.2,9.9,6.3
						c2.5,3.1,3.7,7.1,3.7,11c0,0-0.1-0.4-0.2-1.2c-0.1-0.4-0.2-0.8-0.3-1.4c-0.1-0.3-0.2-0.5-0.2-0.8c-0.1-0.3-0.2-0.6-0.4-0.9
						c-1-2.4-3-5.4-5.8-7.2c-1.4-0.9-2.9-1.7-4.4-2.1c-1.5-0.4-2.9-0.6-4.2-0.6c-2.5,0-4.3,0.6-4.9,0.6c-0.6,0.1-2,0.3-3.8,1.1
						c-1.7,0.8-3.7,2.3-5.1,4.1c-1.4,1.8-2.3,4-2.6,5.7c-0.1,0.4-0.2,0.8-0.2,1.1c0,0.3-0.1,0.6-0.1,0.9c0,0.2,0,0.4-0.1,0.6
						c0,0.1,0,0.2,0,0.2c0.1,4.3,2.2,8.5,5.5,11.2C1715.8,582.5,1720.3,583.6,1724.4,582.8z"/>
				</g>
			</g>
		</g>
		<g>
			<g>
				<g>
					<path class="st36" d="M1607.9,637.7c-0.2,0.8-0.4,3.7-1.5,7.4c-1.2,3.7-3.3,8.1-6.2,11.7c-2.9,3.6-6.4,6.4-9.1,8.1
						c-0.7,0.4-1.3,0.8-1.9,1.1c-0.6,0.3-1.1,0.5-1.5,0.7c-0.8,0.4-1.3,0.6-1.3,0.6c-3.3,1.6-6.7,2.7-10.3,3.2
						c-3.5,0.6-7.1,0.4-10.6-0.2c-0.9-0.2-1.7-0.3-2.6-0.6l-2.5-0.8l-2.4-1c-0.8-0.3-1.6-0.8-2.3-1.2c-3.1-1.7-5.8-3.8-8.2-6.3
						c3.8,2.9,8.1,5,12.5,6c4.4,1,8.9,1,13.1,0c8.5-0.7,16.6-5.4,21.5-12.5c2.8-1.6,5.4-3.8,7.8-6.5
						C1604.5,644.7,1606.4,641.4,1607.9,637.7z"/>
					<path class="st36" d="M1574.8,664.3l-1.8,0.5c-0.6,0.1-1.2,0.2-1.8,0.3c-1.2,0.2-2.5,0.2-3.8,0.3c-2.5-0.1-5.1-0.3-7.6-1
						l-0.9-0.2c-0.3-0.1-0.6-0.2-0.9-0.3l-1.8-0.7c-1.2-0.6-2.4-1.1-3.5-1.8c-2.3-1.3-4.4-3.1-6.2-5.1l-1.4-1.5l-1.2-1.7
						c-0.2-0.3-0.4-0.6-0.6-0.8l-0.5-0.9c-0.3-0.6-0.7-1.2-1-1.8c-0.6-1.3-1.2-2.5-1.6-3.9c-0.2-0.7-0.5-1.3-0.7-2l-0.5-2.1
						c-0.2-0.7-0.2-1.4-0.3-2.1c-0.1-0.7-0.2-1.4-0.2-2.1c0-1.4-0.1-2.9,0-4.3c0.1-2.9,0.8-5.8,1.8-8.6c3-6.8,8.5-12.4,15.1-15.8
						c6.6-3.5,14.4-4.3,21.7-2.8c7.3,1.7,13.8,5.9,18.4,11.7c4.6,5.8,7,13.1,6.9,20.4c0,0-0.1-0.8-0.4-2.2c-0.1-0.4-0.1-0.7-0.2-1.2
						c-0.1-0.4-0.3-0.9-0.4-1.3c-0.1-0.5-0.3-1-0.4-1.5c-0.2-0.5-0.4-1.1-0.7-1.6c-1.8-4.5-5.6-9.9-10.8-13.4
						c-2.6-1.7-5.3-3.1-8.1-3.9c-0.7-0.2-1.4-0.3-2.1-0.5c-0.3-0.1-0.7-0.2-1-0.2c-0.3,0-0.7-0.1-1-0.1c-0.7-0.1-1.3-0.2-1.9-0.2
						c-0.6,0-1.2,0-1.8,0c-0.6,0-1.2,0-1.7,0.1c-0.5,0-1.1,0.1-1.6,0.1c-1,0.2-1.9,0.3-2.6,0.4c-0.8,0.2-1.4,0.3-1.9,0.4
						c-0.3,0-0.5,0.1-0.7,0.1c-0.2,0-0.4,0.1-0.5,0.1c-1,0.1-3.8,0.5-7,2.1c-3.2,1.5-6.8,4.3-9.4,7.7c-2.7,3.4-4.2,7.4-4.9,10.5
						c-0.1,0.8-0.3,1.5-0.4,2.1c-0.1,0.6-0.1,1.2-0.1,1.6c0,0.5-0.1,0.8-0.1,1.1c0,0.2,0,0.4,0,0.4c0.2,8.1,4.1,15.8,10.3,20.8
						c3.1,2.5,6.7,4.2,10.6,5.2C1566.9,664.9,1571,665,1574.8,664.3z"/>
				</g>
			</g>
		</g>
		<g>
			<g>
				<g>
					<path class="st36" d="M1569.1,695.2c-0.1,0.3-0.2,1.6-0.7,3.3c-0.5,1.6-1.5,3.6-2.8,5.2c-1.3,1.6-2.8,2.9-4.1,3.6
						c-0.3,0.2-0.6,0.3-0.8,0.5c-0.3,0.1-0.5,0.2-0.7,0.3c-0.4,0.2-0.6,0.3-0.6,0.3c-2.9,1.4-6.2,1.9-9.3,1.3
						c-3.1-0.5-5.9-2.1-8-4.4c3.3,2.6,7.6,3.5,11.4,2.7c3.8-0.3,7.4-2.4,9.6-5.6c1.2-0.7,2.4-1.7,3.4-2.9
						C1567.6,698.3,1568.4,696.8,1569.1,695.2z"/>
					<path class="st36" d="M1554.4,707c-4.2,1.3-9.3-0.1-12.6-3.6c-0.9-0.9-1.5-1.9-2.1-3c-0.5-1.1-1-2.3-1.2-3.5
						c-0.5-2.5-0.4-5.2,0.5-7.6c1.3-3,3.8-5.5,6.7-7c2.9-1.5,6.4-1.9,9.6-1.2c3.2,0.7,6.1,2.6,8.2,5.2c2,2.6,3.1,5.8,3.1,9.1
						c0,0-0.1-0.4-0.2-1c0-0.3-0.1-0.7-0.3-1.1c-0.1-0.2-0.1-0.4-0.2-0.7c-0.1-0.2-0.2-0.5-0.3-0.7c-0.8-2-2.5-4.4-4.8-5.9
						c-1.1-0.8-2.4-1.4-3.6-1.7c-1.2-0.3-2.4-0.5-3.5-0.5c-2.1,0-3.5,0.5-4,0.5c-0.5,0.1-1.7,0.2-3.1,0.9c-1.4,0.7-3,1.9-4.2,3.4
						c-1.2,1.5-1.9,3.3-2.2,4.7c-0.1,0.3-0.1,0.7-0.2,0.9c0,0.3,0,0.5-0.1,0.7c0,0.2,0,0.4,0,0.5c0,0.1,0,0.2,0,0.2
						c0.1,3.6,1.8,7,4.6,9.2C1547.3,706.8,1551,707.7,1554.4,707z"/>
				</g>
			</g>
		</g>
		<g>
			<g>
				<g>
					<path class="st36" d="M1619.6,494.8c0.5,0.4,1.8,1.6,3.6,3.2c1.8,1.7,4.2,3.9,6.7,6.4c2.5,2.6,5.1,5.5,7.3,8.5
						c2.2,2.9,4.2,5.7,5.7,8.1l-4-1.7c12-0.1,19.5,0,19.5,0l8.2-0.5l5.1-0.3l-2.8,4l-15.5,22.8l0.1-1.3l7.5,19.2l-10.4-17.9
						l-0.4-0.6l0.5-1.1l7.8-16.6l5.1-7.9l3.6,5.8l-27.5,2.3l-1.8,0.2l-1.1-1.3l-1-1.2c-1-4.2-2.5-9.3-5.2-14.6
						C1627.9,505.1,1624,499.7,1619.6,494.8z"/>
					<path class="st36" d="M1658.1,522.9l-10,19.4l-1.3,2.6l1,1.9l13.1,24.4l2.9-3.4l-27.3-4.4l-0.1,0l-0.1,0.1l-12.9,13.5l-6.7,6
						l-2,1.8l-0.2-2.7l-2-27.5l0.7,1.1l-19.9-11.7l-3.8-2.3l-2.2-1.4l2.4-0.9l25.7-10l-0.5,0.6c2.2-9.2,4.6-18.4,6.7-27.2
						c0,0-0.1,0.9-0.4,2.4c-0.3,1.6-0.6,3.8-0.9,6.5c-0.3,2.7-0.6,5.8-0.8,9.1c-0.2,3.3-0.4,6.6-0.7,10l-0.1,1.2l-1.8,1
						c-7.9,4.4-16.6,9.3-24.3,13.4l0.8-11.5c10.7,4.8,19.4,8.9,21.3,10.3c0.6,0.5,1.7,1.2,3.3,2.3l3.9,2.6l0,3.7
						c0,5.9,0.3,16.9,0.7,27.6l-11.2-4.6c10.7-8.8,20.9-17.2,21.3-17.5l2.4-2l2.8,0.7c0.5,0.1,0.5,0.1,0.5,0.1l26.4,6.2l-7,8.2
						l-11.3-25.2l-1.3-3l1.8-2.9L1658.1,522.9z"/>
				</g>
			</g>
		</g>
		<g>
			<g>
				<g>
					<path class="st36" d="M1687.9,599.3c0,1.2,0.2,6.1-0.1,12.5c-0.2,3.2-0.6,6.7-1.1,9.9c-0.6,3.2-1.3,6.2-1.9,8.6l-1.3-3.6
						c7.3,7.8,11.6,12.7,11.6,12.7l5.2,5.1l3.2,3.1l-4.3,0.6l-24.2,3.5l0.9-0.7l-8,16.4l5.5-17.5l0.2-0.6l1-0.3l15.5-4.8l8.2-1.4
						l-1.6,5.8l-18-16.6l-1.2-1.1l0.2-1.5l0.2-1.4c2.2-3.2,4.6-7.2,6.4-12.1C1686.2,610.9,1687.4,605.1,1687.9,599.3z"/>
					<path class="st36" d="M1692.7,641.3l-18.6,5.1l-2.5,0.7l-0.6,1.8l-8.1,23.2l3.9-0.2l-13.5-20.5l-0.1-0.1l-0.1,0l-16.5-0.3
						l-7.9-0.8l-2.4-0.2l1.7-1.8l16.8-17.8l-0.3,1.1l-4.3-20l-0.8-3.9l-0.5-2.3l2.1,1L1663,617l-0.7,0c7.3-4.1,14.7-8,21.8-11.9
						c0,0-0.7,0.4-1.8,1.2c-1.2,0.8-2.8,1.9-4.8,3.3c-2,1.4-4.2,3.1-6.4,4.9c-2.3,1.8-4.6,3.7-7,5.6l-0.9,0.7l-1.7-0.6
						c-7.6-2.5-16-5.3-23.3-7.8l8-6.4c3.3,9.9,5.8,18,6,20.1c0.1,0.7,0.2,1.9,0.5,3.5l0.6,4.1l-2.4,2.2c-3.8,3.5-10.9,10.4-17.6,17
						l-3.7-10c12.2,1.7,23.7,3.4,24.2,3.4l2.7,0.4l1.2,2.2c0.2,0.4,0.2,0.4,0.2,0.4l11.7,20.9l-9.5,0.4l9.7-22.5l1.1-2.6l3-0.6
						L1692.7,641.3z"/>
				</g>
			</g>
		</g>
	</g>
</g>
</svg>
