<?xml version="1.0" encoding="utf-8"?>
<!-- Generator: Adobe Illustrator 23.0.0, SVG Export Plug-In . SVG Version: 6.00 Build 0)  -->
<svg version="1.1" xmlns="http://www.w3.org/2000/svg" xmlns:xlink="http://www.w3.org/1999/xlink" x="0px" y="0px"
	 viewBox="0 0 1920 1080" enable-background="new 0 0 1920 1080" xml:space="preserve">
<g id="Layer_3">
	<g>
		<g>
			<g>
				<path fill="#FFB7A0" d="M1500.9,808.8c-1.2,4.1-2.9,8.9-5.8,13.1c-3,4.3-7.3,8-13.3,9.9c-2.4,3.2-4.9,6.7-7.3,9.8
					c-3.1,5.7-6.1,11-9.2,15.6l2.1,2c5.4-2.5,11-6,17.7-10.7c2.1,5.5,1.5,9.6,0,13c-1.6,3.4-4.1,6.2-5.9,9.2
					c-1.8,3.1-3.4,6.4-5.1,9.7c-1.8,3.3-3.8,6.8-6.5,10.1c-3.3-0.1-4.9-4-6.8-7.5c-1-1.8-2-3.5-3.1-4.7c-1.2-1.3-2.5-2.1-4.1-2
					c-1.5-0.1-3.1,0.6-5.5,2c3.2,4.5,6.4,8.3,10.4,12.4c-2.5,2.1-4.6,2.1-6.3,1.2c-1.7-0.9-3-2.8-4.3-5c-1.9-3.1-3.2-5.5-4.3-7.2
					c-1.1-1.8-2-2.8-2.9-3.3c-0.2-0.1-0.5-0.2-0.7-0.3c-0.3-0.1-0.6-0.1-0.9-0.1c-0.6,0-1.4,0.1-2.2,0.3c-1.7,0.4-3.9,1.1-7.1,1.9
					c3.2,2.7,6.4,5.3,10.8,8.3c-5.8,3.6-12.5,6.7-19.5,9.3c-3.5,1.3-7,2.4-10.6,3.4c-1.8,0.5-3.6,1-5.4,1.4
					c-1.8,0.5-3.6,0.8-5.4,1.1c-2.3,0.4-4.7,0.6-7.1,0.5c-2.4,0-4.8-0.4-7.3-0.8c-2.4-0.4-4.9-1-7.3-1.7c-2.4-0.7-4.8-1.5-7.2-2.4
					c2.4,0,4.8,0,7.2,0c2.4,0,4.9-0.1,7.6-0.2c5.2-0.1,10.9-0.4,17.5-0.8c-3.1-2.3-6.1-3.5-9.1-4.1c-3-0.6-5.9-0.8-8.8-0.9
					c-5.7-0.1-11-0.4-15.3-4.5c1.4-4.9,4.6-6.5,8.2-7.4c1.8-0.5,3.7-0.8,5.6-1.3c1.9-0.5,3.6-1.1,5.2-2.3c-1.5-3.2-3.6-4.6-5.9-5.3
					c-2.3-0.7-4.8-0.8-7.1-1c-6.4-0.7-12.7-2.4-18.8-4.3c-3.1-1-6.1-2.1-9.1-3.3c-3-1.1-6-2.4-9.1-3.6
					c-17.6-7.1-35.7-17.2-57.1-12.1c0.6,3,1.1,5.9,1.6,8.6c-6.4,4.7-10.8,0.5-14.8-2.3c-8.9-6.1-18.1-8.4-29.3-9.1
					c-19-1.1-38-5.5-58.5-8.1c2.3,4.8,1.4,9.5,0.2,14.2c-1.2,4.7-2.6,9.6-1.5,15c-14,1.7-27.4-0.9-40.8-2.7
					c-13.4-1.8-26.9-2.6-40,2.6c0.7,3.3,1.4,6.5,1.9,8.9c-2.8,1.2-5.5,2.3-8.2,3.4c-1.3,0.6-2.6,1.2-3.9,1.8
					c-1.3,0.7-2.5,1.4-3.6,2.3c-1.7,1.2-3.4,2.3-5,3.2c-1.7,0.9-3.4,1.7-5.1,2.4c-3.4,1.4-6.9,2.2-10.3,2.9c-3.5,0.7-7,1.1-10.5,1.4
					c-3.5,0.4-7,0.8-10.5,1.2c-5.2,0.9-10.5,1.6-15.7,2.8c-5.2,1-10.3,2.2-15,3.5c-9.5,2.7-17.9,6.1-24.7,10.2
					c-0.4,0.2-0.8,0.5-1.2,0.9c-0.3,0.3-0.7,0.7-1,1.1c-0.6,0.8-1.1,1.7-1.6,2.6c-0.5,0.9-0.9,2-1.3,2.9c-0.4,1-0.8,1.8-1.2,2.8
					c1,2,1.8,2.8,2.3,2.7c0.5,0,0.9-0.7,1.1-1.8c0.2-0.9,0.5-1.7,0.8-2.4c0.4-0.7,0.8-1.3,1.2-1.9c0.5-0.6,1-1.1,1.6-1.5
					c0.6-0.4,1.2-0.8,1.9-1.2c2.6-1.4,5.8-2,9-2.8c2.5-0.6,6.1,2.7,9.1,4.3c6.3-2.4,13.5-4.6,21.3-6.4l2.9-0.7l1.4-0.4l1.5-0.3
					l5.9-1.2l3-0.6l3-0.5l6-1c16.2-2.4,33.1-3.2,50.5-2.9c16.9,0.3,34.4,1.8,52.1,4.1c17.7,2.3,35.8,5.3,54.1,8.7
					c15.2,2.8,30.4,7.3,45.8,11.5c21.1,5.6,42.6,11.5,64.8,16.5c1.1-3.7,1.3-7.9,3.4-10.9c3.4-4.8,8-8.7,11.4-12.2
					c2.7,1.3,5.6,2.6,8.5,4c1.5,0.7,3,1.4,4.5,2.1c1.5,0.7,3.1,1.4,4.6,2.1c1.9,0.9,4,1.8,5.6,3.1c11.5,9.5,16.6,8.2,22.9-8.2
					c-5.5,1-9.9,2.4-14.3,2.2c-4.8-0.2-10.7-1.1-10.2-7.7c0.2-3.2,1.6-5,3.5-5.9c1-0.4,2.1-0.6,3.3-0.6c1.2,0,2.5,0.1,3.9,0.4l9,1.9
					l9.1,1.8c1.5,0.3,3,0.6,4.6,0.9l4.6,0.7c3.1,0.5,6.1,1,9.2,1.3c5.8,0.6,11.7,0.9,17.5-0.1c4.8-0.9,8.5-2.2,12.4,1.9
					c1,1,3.8,1.2,5.8,0.9c1.2-0.2,2.4-0.3,3.6-0.6c1.2-0.2,2.3-0.4,3.6-0.7c2.6-0.5,5-1.2,7.5-1.9c4.9-1.5,9.7-3.4,14.3-5.7
					c6.4-3.3,12.2-7.5,17.5-12.3c1.3-1.1,2.7-2.5,3.9-3.7c1.2-1.2,2.3-2.4,3.5-3.6c2.2-2.4,4.3-4.9,6.3-7.4
					c5.6-6.8,11.4-12.9,16.6-19.1l1.7-2.5c4.8-7.1,9.8-14.7,14.3-23.1c0.7-1,1.3-2,2-3.1c1.4-5,2.9-10.1,3.5-15.4
					c0.2-1.9,0.6-3.2,1.2-4.2c0.6-1,1.4-1.7,2.3-2.2c1.8-1,4.1-1.4,5.9-2.5c0.2-1.3,0.5-2.5,0.7-3.8c0.1-1.4,0.6-3,0.8-4.6
					c0.2-1.5,0.2-2.8-0.3-3.4c-1.1-1.3-2-2.6-2.7-3.8c-0.8-1.3-1.5-2.6-2.1-3.8c-0.6-1.3-1-2.6-1.3-3.9c-0.4-1.3-0.7-2.6-1-4
					c-0.9-5.4-1.4-11.2-2.6-16.9c-2.5-11-7.1-21.1-12.7-30.2c-5.6-9.2-12.1-17.6-19.1-25.3c-1.3-1.5-2.3-3.4-3.1-5.3
					c-0.6-1.6-1.1-3.4-1.6-4.9c-0.6-1.7-1-3.2-1.4-4.8c-0.4-1.5-0.7-3-0.9-4.4c-0.7-1.9-1.2-3.7-1.6-5.4c-6-2.3-12.8-5-19.1-8.2
					c-5.2-2.6-10-5.6-13.3-8.6c-3.3-3-5.1-6.1-3.8-8.7c0.3-0.6-0.5-1.4-2-2.3c-1.5-0.9-3.7-2-6.3-3.1c-1.9,0.5-3.2,1.2-4,2
					c-0.8,0.8-1,1.7-0.9,2.7c0.3,2,2.1,4.2,4.5,6.4c2.4,2.2,5.4,4.5,8.3,6.6c2.9,2.2,5.6,4.3,7.7,6.6c1,1.1,1.8,2.2,2.5,3.3
					l-4.2,1.1c-2.7-0.9-6.1-1.6-8.7-2.6c-1-0.4-2-0.8-2.7-1.3c-5.3-3.5-9-7.1-13.3-10.7c-2.6-2.1-5.1-4.2-8.3-6.5
					c-3.2-2.3-7.1-4.6-12.4-7.4c0.4,0.6,0.9,1.3,1.4,2c0.5,0.7,1.1,1.4,1.6,2c1,1.4,1.5,2.6,1.4,3.6c-0.2,0.9-1.5,1.6-3.4,2.3
					c-1.9,0.7-4.4,1.5-6.9,2.7c-8.6-5.7-14.1-11.3-18.7-16.7c-1.1-1.4-2.2-2.7-3.2-4c-1.1-1.3-2-2.7-3-4.1c-1.9-2.9-3.6-5.9-5.3-9.2
					c0.8,2.7,1.8,5.4,2.9,7.9c0.6,1.2,1.2,2.5,1.8,3.6c0.7,1.2,1.4,2.3,2,3.4c2.9,4.8,6.1,9.6,9.6,14.6c3.6,5.1,7.2,10.3,10.8,15.3
					c0.5,0.8,0.7,1.6,0.7,2.4c0,0.8-0.3,1.6-0.6,2.4c-0.3,0.8-0.8,1.7-1.2,2.6c-0.3,0.9-0.6,1.8-0.7,2.7l0,0
					c0.3,0.1,0.6,0.3,0.9,0.4c12.8,6.2,19.9,12.1,21.5,21c8.2,6.9,16.7,13.7,24.6,21l2.4,2.1l1.2,1c0.4,0.4,0.7,0.6,1,1l3.9,3.8
					l1,0.9c0.2,0.2,0.3,0.3,0.4,0.4l0.3,0.3l1.1,1.2c0.7,0.8,1.5,1.6,2.2,2.4c1.4,1.7,2.8,3.3,4.1,5c0.6,0.8,1.3,1.7,1.9,2.5
					l1.8,2.5c3.4,4.8,6.2,9.7,8.3,14.5c4.8,5.7,8.7,11.5,11.1,18l0.3,0.6c0.1,0.2,0.1,0.4,0.2,0.6l0.3,1.2l0.4,1.3
					c0.1,0.4,0.3,0.9,0.3,1.3c0.3,1.7,0.7,3.4,0.7,5.2C1502.6,800.9,1502.1,804.8,1500.9,808.8z M1492,842.4c-0.6,0.6-1.9,0.5-4.5,1
					c2-2.9,3.3-4.8,4.5-6.6l2.3,2C1493.6,840,1493,841.4,1492,842.4z"/>
				<path fill="#FFB29B" d="M1255.8,833.8c-5.7,1.7-8.8-2-11.7-5.9c-11.4-3.5-22.9-7-34.6-10.4c-5.2,0-11.1,1.7-15.6-0.1
					c-2.6-1.1-5.2-2.1-7.9-3c-2.7-0.9-5.4-1.8-8.1-2.5c-5.4-1.6-10.9-2.7-16.5-3.7c-11.2-1.8-22.6-2.6-34.3-2.4
					c-2.2,0-4.5-0.2-6.7-0.5c-2.3-0.3-4.6-0.6-6.8-0.8c-16-1.6-32.4-2.5-49-2.4l-8.6,0.6c-2.9,0.2-5.7,0.4-8.6,0.8
					c-3.4,1-6.8,1.8-10.2,2.5c-3.4,0.7-6.8,1.4-10.2,1.8c-1.7,0.2-3.4,0.4-5.2,0.5c-1.7,0.2-3.5,0.3-5.2,0.4
					c-3.5,0.2-7.1,0-10.8-0.2c-6.7-0.4-13.9,2.3-21.1,3.6c-11.2,2-22.8,4.5-34.7,8.7c-3.4,1.4-6.9,2.9-10.3,4.5
					c-3.5,1.6-6.8,3.4-10.1,5.2c-1.7,0.9-3.2,1.9-4.9,2.8c-1.6,1-3.2,1.9-4.8,2.9c-3,2.1-6.2,4.1-9,6.3
					c-10.9,8.2-20.6,17.2-28.7,26.4c-6.8,7.7-14.4,15-9.3,25.8c1.4,3.2-0.6,9.4-2.7,13.1c-2.2,3.8-2.7,6.8-1.9,9.2
					c0.8,2.5,3,4.5,6.2,6.2c2.6,1.4,5.5,2.4,6.8,3c1.6,6.7,1.2,14.7,4.5,16.7c8.8,5.2,17.2,14.2,29.3,9.8
					c13.5-4.9,25-13.4,39.3-11.8c1.3,0.2,2.6-0.2,3.9-0.7c0.6-0.3,1.2-0.6,1.7-1c0.5-0.4,1-0.7,1.4-1.2c0.9-1,1.8-2,2.7-3l2.6-2.8
					c1.8-1.8,3.5-3.6,5.2-5.2l1.3-1.2l1.3-1.1l1.3-1.1c0.4-0.4,0.8-0.8,1.3-1.1l2.5-2.1l2.5-1.9c0.4-1,0.8-1.8,1.2-2.8
					c0.4-0.9,0.8-2,1.3-2.9c0.5-0.9,1-1.8,1.6-2.6c0.3-0.4,0.6-0.8,1-1.1c0.4-0.3,0.7-0.6,1.2-0.9c6.8-4.1,15.2-7.5,24.7-10.2
					c4.7-1.4,9.8-2.5,15-3.5c5.1-1.2,10.4-1.9,15.7-2.8c3.5-0.4,7-0.8,10.5-1.2c3.5-0.4,7-0.7,10.5-1.4c3.5-0.7,6.9-1.5,10.3-2.9
					c1.7-0.7,3.4-1.5,5.1-2.4c1.7-0.9,3.4-2,5-3.2c1.1-0.8,2.3-1.6,3.6-2.3c1.3-0.7,2.6-1.2,3.9-1.8c2.7-1.1,5.4-2.2,8.2-3.4
					c-0.5-2.4-1.2-5.6-1.9-8.9c13.1-5.2,26.6-4.3,40-2.6c13.4,1.8,26.8,4.4,40.8,2.7c-1.1-5.4,0.3-10.2,1.5-15
					c1.2-4.7,2.1-9.4-0.2-14.2c20.5,2.6,39.5,7,58.5,8.1c11.2,0.7,20.4,3,29.3,9.1c4,2.7,8.4,7,14.8,2.3c-0.5-2.7-1.1-5.6-1.6-8.6
					L1255.8,833.8z M1158.1,836.9c4.8-5.2,10.5-6.5,18.7-2.6c-3.1,6.5-6.2,7.3-9.4,6.4C1164.3,839.7,1161.1,837.2,1158.1,836.9z"/>
				<path fill="#FFBDA8" d="M1485.1,270.7l-1,0.7c-3.4-0.4-7.4-1-11.4-1.3c-4-0.3-8-0.2-10.8,0.8c-3.3,1.2-6.5,2.6-9.3,4.4
					c-2.8,1.8-5.3,4-7.1,6.7c-1.9,2.7-3,5.9-3.1,9.3c-0.1,3.4,0.6,6.8,2.2,9.9c-1.1,1.8-1.8,3.6-2.2,5.4c-7.4-0.1-13.1,0.5-17.7,1.8
					c-4.7,1.3-8.3,3.1-12.1,4.8c-0.8-0.7-1.6-1.4-2.4-1.9c-0.8-0.5-1.7-1-2.6-1.3c-1.8-0.7-3.6-1.1-5.6-1.1c-1,0-2,0-3.1,0.1
					c-0.5,0.1-1,0.1-1.6,0.2c-0.2,0-0.5,0.1-0.8,0.1c-0.2,0-0.2,0-0.3,0.1c-0.1,0-0.1,0-0.2,0.1c-1.2,0.4-2.3,1-3.4,1.7
					c-2.1-2-3.9-4.1-5.6-6.4c-0.5,0.6-0.9,1.1-1.3,1.6c-0.4,0.4-0.7,0.8-1,1.2c-0.6,0.7-1.2,1.1-1.9,1.3c-1.4,0.4-3.4,0.1-7.2-0.7
					c-2.5-4.2-4.2-9-5.1-13.9c-1-4.9-1.1-10-0.9-15c0.3-4.9,1.1-9.7,1.9-14.1c0.8-4.4,1.5-8.6,1.6-12.9c0.1-2.3,0.5-4.8,1.6-7.2
					c2.7-6.2,7.1-10.4,13.3-12.8c6.2-2.4,14.3-2.8,24.3-1c-3.5,1-6.9,2-10.5,3.3c-3.6,1.3-7.4,2.8-11.5,4.8
					c6.8,2.3,12.3,4.3,19.9,7.2c-1.3-3.5-1.9-5.5-2.2-6.4c6.8-4,12.9-7.5,20.3-9.9c1.6-0.6,3.3-1.1,4.9-1.7c1.7-0.5,3.4-1.1,5.1-1.7
					c3.4-1.1,6.8-2.2,10.5-2.8c7.6-1.1,15.7-0.9,24.1,3.5l0,0c-2.9,3.1-5.2,6.4-7.2,9.4c-1,1.5-1.9,3-2.7,4.5
					c-0.8,1.5-1.4,3.1-2,4.5c-1.9-0.5-3.8-1-5.8-1.5l-3-0.7l-2.9-0.6l0.7,1.2l0.9,1.3c3.4,0,6.8,0.1,10,0.2c2.8,1.8,5.6,3.7,8.1,5.5
					c2.8-2.3,5.2-4,7.3-5.2c2.1-1.2,4-1.9,6-2.2c2-0.2,4,0,6.5,0.7c2.5,0.7,5.4,1.8,8.8,3.4c-0.1,3.7,0.1,7.2,0.5,10.8
					c-2.8,0.9-5.6,1.9-8.2,2.8c-2.6,1-5.2,1.9-7.6,2.9c-1,0.4-1.4,1.1-0.9,2.1C1481.7,267.8,1483,269,1485.1,270.7z"/>
				<path fill="#FFBAA4" d="M1498,259.1c-0.4-3.5-0.6-7.1-0.5-10.8c-3.5-1.6-6.4-2.7-8.8-3.4c-2.5-0.7-4.5-0.9-6.5-0.7
					c-2,0.2-3.9,0.9-6,2.2c-2.1,1.3-4.6,2.9-7.3,5.2c-2.6-1.8-5.3-3.7-8.1-5.5l0,0c0.6-1.5,1.2-3,2-4.5c0.8-1.5,1.7-3,2.7-4.5
					c2-3,4.4-6.3,7.2-9.4c4.2,1.1,7.3,1.9,9.7,2.3c2.5,0.4,4.3,0.3,5.8-0.3c1.5-0.6,2.8-1.8,4-3.7c1.3-1.9,2.6-4.4,4.4-7.7
					c-5.5-0.5-10.3,0.6-14.3,2.4c-4,1.7-7.1,4.3-9.7,7c-8.4-4.5-16.5-4.6-24.1-3.5c-3.7,0.6-7.1,1.7-10.5,2.8
					c-1.7,0.6-3.4,1.1-5.1,1.7c-1.7,0.6-3.3,1.1-4.9,1.7c-7.4,2.5-13.5,5.9-20.3,9.9c0.3,1,0.9,2.9,2.2,6.4
					c-7.6-2.9-13.1-4.9-19.9-7.2c4.1-2,7.9-3.5,11.5-4.8c3.6-1.3,7-2.4,10.5-3.3c3.2-1.6,6.4-3.1,9.8-4.6c1.7-0.7,3.4-1.4,5.1-2.1
					c1.8-0.7,3.6-1.3,5.5-1.9c3.7-1.3,7.4-2.6,11.2-3.8c4-1,8.1-2,12.2-3c13.6-2.8,27.7-5,41.6-6.5c1.7-0.2,3.5-0.4,5.2-0.6l4.5-0.4
					c2.6-0.2,5.3-0.4,7.9-0.6c2.6-0.2,5.3-0.4,7.9-0.5c2.6-0.1,5.3-0.3,7.9-0.4c4.3-0.1,8.5-0.2,12.7-0.2c7,1.5,13.7,3.3,20,4.8
					c6.3,1.4,12.4,2.5,18.5,2.3c2.7-0.1,5.4-1.2,7.9-2.8c1.2-0.8,2.5-1.6,3.7-2.5c1.2-0.9,2.4-1.8,3.6-2.6
					c9.9-3.1,20.2-7.6,30.3-12.6c4.8,1.7,3.5,4,0.8,6.6c-6,5.7-11.9,11.5-20.4,18.3c7.2-0.1,13.8-0.6,19.8-1.3c3-0.3,6-0.7,8.9-1.1
					c2.9-0.4,5.8-0.8,8.5-1.2c-6.6,4.6-13.5,9.1-20.8,13.3c-7.3,4.2-14.9,8.3-23.2,11.9c-4.2,1.9-8.7,3.6-13.2,5.1
					c-4.5,1.4-9.1,2.8-13.5,3.8c-8.9,2.2-17.2,3.7-25.1,5.1c-10,0.6-19.5,1.2-29,2.2c-2.4,0.2-4.8,0.5-7.2,0.8l-3.3,0.4
					c-0.9,0.1-1.7,0.2-2.5,0.3l-4.9,0.7L1498,259.1z"/>
				<path fill="#FFBEAA" d="M1321.5,940.9c1.1-3.7,1.3-7.9,3.4-10.9c3.4-4.8,8-8.7,11.4-12.2c2.7,1.3,5.6,2.6,8.5,4
					c1.5,0.7,3,1.4,4.5,2.1c1.5,0.7,3.1,1.4,4.6,2.1c1.9,0.9,4,1.8,5.6,3.1c11.5,9.5,16.6,8.2,22.9-8.2c-5.5,1-9.9,2.4-14.3,2.2
					c-4.8-0.2-10.7-1.1-10.2-7.7c0.2-3.2,1.6-5,3.5-5.9c1-0.4,2.1-0.6,3.3-0.6c1.2,0,2.5,0.1,3.9,0.4l9,1.9l9.1,1.8
					c1.5,0.3,3,0.6,4.6,0.9l4.6,0.7c3.1,0.5,6.1,1,9.2,1.3c5.8,0.6,11.7,0.9,17.5-0.1c4.8-0.9,8.5-2.2,12.4,1.9c1,1,3.8,1.2,5.8,0.9
					c1.2-0.2,2.4-0.3,3.6-0.6c1.2-0.2,2.3-0.4,3.6-0.7c2.6-0.5,5-1.2,7.5-1.9c4.9-1.5,9.7-3.4,14.3-5.7c6.4-3.3,12.2-7.5,17.5-12.3
					c1.3-1.1,2.7-2.5,3.9-3.7c1.2-1.2,2.3-2.4,3.5-3.6c2.2-2.4,4.3-4.9,6.3-7.4c5.6-6.8,11.4-12.9,16.6-19.1c2,1.7,3.9,3.4,6.6,5.7
					c-4.3,8.5-9.2,17.4-15.7,27c-3.3,4.8-6.8,9.7-11.7,14.9c-4.6,5-9.8,9.7-15.5,13.8c-1.5-0.4-2.9-0.5-4.2-0.5
					c-5.6,0-9.7,3.2-14.5,6.2c-2.4,1.5-4.9,2.9-7.5,3.7c-0.7,0.2-1.3,0.4-2,0.5c-0.7,0.1-1.4,0.2-2.2,0.2c-1.4,0-2.7-0.1-4-0.6
					c0.1,4.3,0.2,7.9,0.2,11.6c-0.8,0.2-1.5,0.4-2.2,0.6l-2.3,0c-1.8-2.3-3.5-4.7-5.1-7.1l-3,0.5c-0.2,2.5-0.5,5-0.7,7.4
					c-6.9,0.5-13.3,0.6-19.1,0.6c-5.8-0.1-11.6,0-17.3-0.3l-8.6-0.3l-8.5-0.5c-5.7-0.3-11.3-0.8-17-1.3
					C1349,944.3,1335.1,942.9,1321.5,940.9z"/>
				<path fill="#FFD2C4" d="M1531.1,207.2c-2.6,0.1-5.3,0.2-7.9,0.4c-2.6,0.1-5.3,0.3-7.9,0.5c-2.7,0.2-5.3,0.4-7.9,0.6l-4.5,0.4
					c-1.7,0.2-3.5,0.4-5.2,0.6c-14,1.5-28,3.7-41.6,6.5c-4.1,0.9-8.2,1.9-12.2,3c-3.9,1.2-7.5,2.5-11.2,3.8
					c-1.8,0.6-3.7,1.3-5.5,1.9c-1.7,0.7-3.5,1.4-5.1,2.1c-3.4,1.5-6.6,3-9.8,4.6c-10-1.8-18.1-1.4-24.3,1
					c-6.2,2.4-10.6,6.6-13.3,12.8c-1,2.3-1.5,4.8-1.6,7.2c-0.1,4.2-0.8,8.4-1.6,12.9c-0.8,4.5-1.6,9.2-1.9,14.1
					c-0.3,4.9-0.1,10,0.9,15c0.9,4.9,2.7,9.7,5.1,13.9c2.7,5.7,6.3,10.7,10.4,15.2c4.1,4.5,8.7,8.5,13.6,12.3
					c-0.7,3.1,1.5,5.6,5,7.5c3.6,1.9,8.5,3.1,13.4,4.2c2.6,1.5,5.5,3,8.2,4.5l4.2,2.3l4.4,2.3l7.2,3.6l7.3,3.5
					c2.5,1.2,4.9,2.4,7.3,3.6c2.4,1.2,4.8,2.4,7.2,3.6l10.1,5.9c9,6.2,17.6,12.8,25.7,19.8c0.8,7-3.2,5.1-5.9,3.3
					c-2.8-2-5.4-4.6-8.3-6.6c-2.9-1.9-6.3-2.8-10.7-1.2l-5.5-2.9l-1.4-0.7l-0.7-0.4l-1-0.5l-4.4-2.2l-4.4-2.2l-2.2-1.1
					c-0.7-0.4-1.6-0.7-2.3-1.1l-9.5-4.3c-3.2-1.4-6.4-2.8-9.6-4.2l-4.9-2.1c-1.6-0.7-3.1-1.5-4.7-2.2c-3.1-1.5-6.2-3-9.3-4.5
					l-8.6-4.6l-3-1.6l-2.8-1.7l-2.7-1.7l-2.7-1.7c-3.5-2.3-6.8-4.6-9.9-7.1c-6.2-4.9-11.7-10-16.5-15.6c-4.8-5.6-8.9-11.8-12.1-18.9
					c-1.6-3.5-2.9-7.3-3.8-11.3c-0.9-4-1.4-8.1-1.6-12.2c-0.3-6.6,0.2-13.5,1.1-20c0.4-3.2,1-6.3,1.5-9.3c0.6-3,1.1-5.8,1.6-8.6
					c1.8-9.4,5.8-17.7,13.2-24.2c7.4-6.4,18.3-10.8,32.9-11.5c2.3-0.1,4.7-1,7-1.5c2.9,2.1,5.7,4.2,9.4,6.9c1.7-1,3.7-1.9,5.6-2.8
					c1.9-0.9,3.7-1.8,5.5-2.6c1.8-0.9,3.6-1.7,5.4-2.6c0.9-0.5,1.9-0.8,2.8-1.2l2.9-1.1c5.1,2.4,7.7,2.4,9.5,1.3
					c0.9-0.6,1.6-1.4,2.2-2.3c0.3-0.5,0.6-1,0.9-1.4c0.3-0.5,0.7-0.9,1-1.4c6.8,1.5,12.9,2,19,2c3.1,0,6.1-0.1,9.2-0.3
					c1.5-0.1,3.1-0.2,4.6-0.4c1.5-0.1,3.1-0.3,4.7-0.4c2.1-0.2,4.1-0.3,6.2-0.5c2-0.1,4.2-0.2,6.1-0.3l0.7,0l0.4,0l0.3,0l1.1,0
					l2.3,0.1c1.5,0.1,3,0.1,4.5,0.3C1519.2,206,1525.2,206.6,1531.1,207.2z"/>
				<path fill="#FFC5B3" d="M1623.4,463.8l2.3,6.5c-3.5,0.2-4.8,1.4-4.9,3.2c-0.1,1.7,0.8,4.1,1.7,6.7l1.3,3.8l0.7,1.9l0.6,1.9
					l2.2,7.8c0.7,2.6,1.3,5.3,1.9,7.9c0.3,1.3,0.6,2.6,0.9,4l0.7,4l0.7,4c0.2,1.3,0.5,2.7,0.6,4.1l0.5,4.3c0.2,1.7,0.4,3.4,0.5,5.1
					c0.2,3.3,0.3,6.7,0.4,10l0.2,5l-0.2,5c-0.1,2-0.1,3.9,0,5.8c0,0.9,0.1,1.8,0.2,2.7c0.1,0.9,0.2,1.7,0.3,2.6
					c0.6,3.4,1.9,6.5,4.3,9.4l-0.4,3c-0.1,1-0.4,1.9-0.6,2.9l-1.3,5.7c-0.4,1.9-0.8,3.8-1.3,5.7c-0.5,1.8-1.1,3.7-1.7,5.4
					c-5.7-0.4-8.1,4.2-11.5,10.5c-3.4,6.3-8.1,12.2-13.9,16.5c-5.1,3.8-10.8,6.4-16.7,8.3c-5.9,1.8-12.1,2.9-18.5,3.5l-2.4,0.2
					l-2.5,0.1l-5,0.2l-5,0.2l-5.1,0l-5.1,0l-2.5,0l-1.6,0l-6.3,0.2c-1.6,0.1-3.1,0.7-4.4,1.5c-1.3,0.8-2.5,1.7-3.7,2.4
					c-12.5,0-24.9,0.3-37.4,1l-10.2-6.4c3-1.3,6.5-2.7,10.4-3.9c6.8,0.7,9.5-0.9,6.3-9.5l9.3-0.1l4.3,6.3l-6.2-0.8l2.8,3.1
					c1-0.8,2.1-1.7,3.3-2.5c4.4,0.1,8.8,0.3,13.1,0.5l13.2,0.7c1.1-1.7,2.3-3,3.6-4c1.3-1,2.5-1.8,4.5-2.3c1.9-0.5,3.8-0.8,5.7-0.9
					c1-0.1,2-0.1,3-0.1c1,0,2,0,3,0.1c4,0.2,8.4,0.9,12.5,1.3c4.2,0.4,8.3,0.5,11.9,0c6.7-1,13.5-2.8,19.5-6.4
					c4.4-2.7,8.2-6.4,10.8-10.9c2.7-4.4,4.4-9.5,5-15c0.3-2.7,0.9-5.7,1.7-8.5c0.7-2.8,1.8-5.3,3.2-6.6c0.6-0.6,1.2-1.2,1.7-1.8
					c0.5-0.6,0.9-1.2,1.2-1.9c0.6-1.3,1-2.7,1.2-4.2c0.2-1.5,0.3-3,0.2-4.7c0-0.8-0.1-1.7-0.1-2.5c-0.1-0.9-0.2-1.8-0.3-2.7
					c-0.4-3-0.7-5.9-0.9-8.8c-0.1-1.4-0.4-2.9-0.5-4.3c-0.2-1.4-0.4-2.9-0.5-4.3c-0.2-1.4-0.3-2.9-0.5-4.3c-0.2-1.4-0.4-2.8-0.6-4.3
					c-0.4-2.6-0.8-5.2-1.3-7.8c-2.1-11.3-5.1-22.4-8.8-33.1l-1.4-4c-0.5-1.3-0.9-2.7-1.5-4l-3.3-7.8c-1.2-2.6-2.4-5.1-3.6-7.6
					l-0.9-1.9l-1-1.9l-2-3.7l8.6-4.4c2.2,2.7,4.1,6,6.5,8.2C1616.8,461.1,1620.3,462.1,1623.4,463.8z"/>
				<path fill="#FFCDBD" d="M1474.6,391.8c4.3-1.6,7.7-0.6,10.7,1.2c2.9,1.9,5.5,4.6,8.3,6.6c2.7,1.9,6.7,3.7,5.9-3.3
					c3,1.6,5.9,3.3,8.8,5.1c1.5,0.8,2.9,1.8,4.3,2.7c1.4,1,2.8,2,4.1,3c9.4,7.7,18.1,16,26.1,25c1.9,2.3,3.9,4.5,5.8,6.9
					c1.8,2.4,3.7,4.6,5.5,7.1l2.6,3.6c0.9,1.2,1.8,2.4,2.5,3.7l2.4,3.8c0.8,1.3,1.6,2.5,2.4,3.8c12.3,20.4,20.8,43.2,24,66.7
					c-0.7,1.2-1.3,2.3-1.7,3.5c-0.4,1.1-0.9,2.2-1.1,3.3c-0.6,2.2-0.7,4.3-0.9,6.5c-0.1,2.2,0,4.4,0,6.6c0,2.2,0,4.5-0.3,6.7
					c-0.3,1.9-0.1,4-0.9,5.3c-0.7,1.4-2.3,2-5.5,0.8c1.5-8.3,1.9-16.7,1.3-24.9l-0.3-3.1c0-0.5-0.1-1-0.2-1.5l-0.2-1.4l-0.5-3.9
					l-0.8-4.1l-0.8-4.1l-1-4.1c-0.4-1.4-0.7-2.7-1-4.1l-1.3-4c-5.9-18.5-15.9-35.7-27.5-51.3c-0.6-0.8-1.1-1.6-1.7-2.3l-1.8-2.2
					c-1.2-1.5-2.3-3-3.6-4.5c-2.6-2.9-5-5.9-7.7-8.7c-2.6-2.9-5.4-5.6-8.2-8.4c-1.4-1.4-2.9-2.7-4.3-4l-2.2-2l-2.2-1.9
					c-5.9-5.2-12.2-10.1-18.6-14.8C1488.3,400.3,1481.5,396,1474.6,391.8z"/>
				<path fill="#FFD3C6" d="M1623.4,463.8c-3.1-1.7-6.6-2.7-9.2-4.9c-2.5-2.2-4.4-5.5-6.5-8.2c-2-4.1-4.3-8-6.5-12
					c-1.1-2-2.4-3.9-3.5-5.8l-1.8-2.9l-0.9-1.4l-1-1.4c-2.6-3.7-5-7.5-7.8-11.1c-1.4-1.8-2.7-3.7-4.1-5.4l-4.3-5.2
					c-0.7-0.9-1.4-1.7-2.2-2.6l-2.2-2.5l-4.5-5l-4.7-4.8l-2.3-2.4c-0.8-0.8-1.6-1.5-2.4-2.3l-4.8-4.6c-1.6-1.5-3.3-3-5-4.4
					c-3.3-3-6.7-5.7-10.1-8.5c-4.8-3.8-10.8-6-16.4-8.7c-5.7-4.7-11.6-9.2-17.6-13.6c-3-2.2-6-4.2-9.1-6.4l-6-4.3
					c-5.7-3.3-11.4-6.4-17.1-9.2c-3.8-2-7.7-3.8-11.3-5.8c-1.9-0.8-3.7-1.7-5.6-2.7c-5.3-2.8-10.4-6.3-14.3-11
					c0.4-1.8,1.1-3.6,2.2-5.4c3.1,4.7,7.8,8.3,13.7,11.4c5.3-2,7.6-2.7,9.9-3.5c2.9,2.9,6.4,5.2,10.1,7.3c3.7,2.1,7.7,4.1,11.6,6.5
					l3,1.8l3,1.9l8.7,5.6c4.8,3,9.4,6.2,14.1,9.4l6.9,5c2.3,1.6,4.5,3.4,6.8,5.2c9.2,7.2,18.3,14.6,27,22.6c8.7,8,17,16.6,24.8,25.8
					l3,3.6c1,1.2,2,2.4,2.9,3.6l5.7,7.5l5.3,7.7c0.9,1.3,1.7,2.6,2.6,3.9l2.5,4C1612.7,441,1618.5,452.2,1623.4,463.8z"/>
				<path fill="#FFE6DE" d="M1200.6,798.9c20.9-2.4,39.9,4.1,58.5,9.7c8.1,2.5,15.9,5.5,23.9,7.2c8.7,1.8,15.6,5.1,22.6,11.2
					c6.6,5.8,15.4,10.5,25.8,8.9c6.6-1,13.5,1.3,20.2,1.9c0.5,5.9,2,9.7,4.7,11.6c2.7,1.9,6.5,1.7,11.6-0.2l3,0l-0.8,7
					c-5.2,0.2-10.7,1.5-15.6,0.2c-7.1-1.8-13.6-6.1-20.6-8.4c-26.5-8.7-57-9.1-81.6-28.2c-0.7-0.6-2-0.3-3.1-0.6l-21.6-5
					c-1.3-8-8.8-6.4-13.8-8C1208.6,804.7,1203,804.8,1200.6,798.9z"/>
				<path fill="#FFCDBD" d="M1387.4,634.1c0.8,2.7,1.8,5.4,2.9,7.9c0.6,1.2,1.2,2.5,1.8,3.6c0.7,1.2,1.4,2.3,2,3.4
					c2.9,4.8,6.1,9.6,9.6,14.6c3.6,5.1,7.2,10.3,10.8,15.3c0.5,0.8,0.7,1.6,0.7,2.4c0,0.8-0.3,1.6-0.6,2.4c-0.3,0.8-0.8,1.7-1.2,2.6
					c-0.3,0.9-0.6,1.8-0.7,2.7c-6.7-6.1-13.3-12.2-17.4-18c-3.6-5-6.9-9.8-9.6-14.5c-1.5-2.4-2.7-4.7-4-7l-1.8-3.5
					c-0.6-1.2-1.2-2.3-1.7-3.5c-2.1-4.8-3.7-10.1-4.5-15.8c-0.4-2.9-0.6-5.8-0.5-8.9c0.1-3,0.6-6.2,1.6-9.4c0.4-1.3,0.7-2.7,1.1-4.2
					c0.4-1.4,0.9-2.9,1.7-4c1.5-2.3,4.1-3.5,8.7-2.4c0.6,0.1,2.8-0.7,2.8-1c0.1-2.6,1.2-4.2,3.1-5.4c0.9-0.6,2-1,3.2-1.4
					c1.2-0.4,2.6-0.7,4.1-0.9c1.5-0.3,3-0.5,4.5-0.7l4.8-0.6c1.6-0.2,3.1-0.4,4.5-0.7c1.4-0.3,2.8-0.6,4-1.1c1.3-0.5,2.6-1,4-1.5
					c1.4-0.4,3-0.8,4.6-1.2c1.6-0.4,3.3-0.7,5-1c1.8-0.3,3.7-0.5,5.5-0.7l2.8-0.3c0.9-0.1,1.8-0.2,2.9-0.2l6.1-0.3
					c3.9-0.3,8.3-0.1,12.4-0.2c15.8-0.2,31.7,0.2,47.2,0.7c-4.4,2.4-8.3,4.9-11.7,7.3c-4.4,1-8.6,2-12.6,3
					c-5.1-0.6-10.9-1.9-15.8-1.8l-4,0l-2,0l-1.9,0.1l-7.8,0.3c-5,0.3-10.1,0.7-14.8,1.2c-4.9,0.5-9.4,1.1-14,1.7
					c-4.5,0.6-9,1.3-13.2,2c-4.3,0.7-8.5,1.2-12.7,2.9c-4.1,1.5-8.1,4.7-10.4,9.1c-1.2,2.2-1.9,4.5-2.3,6.9
					c-0.4,2.4-0.4,4.8-0.3,7.1C1384.6,625.6,1385.8,630,1387.4,634.1z"/>
				<path fill="#FFC4B2" d="M915.3,952.8c13.5-4.9,25-13.4,39.3-11.8c1.3,0.2,2.6-0.2,3.9-0.7c0.6-0.3,1.2-0.6,1.7-1
					c0.5-0.4,1-0.7,1.4-1.2c0.9-1,1.8-2,2.7-3l2.6-2.8c1.8-1.8,3.5-3.6,5.2-5.2l1.3-1.2l1.3-1.1l1.3-1.1c0.4-0.4,0.8-0.8,1.3-1.1
					l2.5-2.1l2.5-1.9c1,2,1.8,2.8,2.3,2.7c0.5,0,0.9-0.7,1.1-1.8c0.2-0.9,0.5-1.7,0.8-2.4c0.4-0.7,0.8-1.3,1.2-1.9
					c0.5-0.6,1-1.1,1.6-1.5c0.6-0.4,1.2-0.8,1.9-1.2c2.6-1.4,5.8-2,9-2.8c2.5-0.6,6.1,2.7,9.1,4.3c-2.3,1.2-4.4,2.4-6.3,3.7
					c-1.9,1.3-3.7,2.6-5.3,3.9c-1.6,1.3-3.1,2.6-4.4,3.8c-1.3,1.2-2.5,2.4-3.9,3.5c-3,2.5-6.4,5.1-10.2,8.3
					c-3.7,3.2-7.8,7-11.7,11.5c-1.8,2-4,3.6-6.5,4.5c-2.6,1.1-5.5,1.5-8.8,1.7c-2.4,0.1-4.8,0.3-7.3,0.7c-2.4,0.3-4.9,0.7-7.3,1.2
					C929.6,958.3,922.1,958.2,915.3,952.8z"/>
				<path fill="#FFC7B6" d="M1446.9,946.2c0-3.6-0.1-7.3-0.2-11.6c1.3,0.5,2.6,0.7,4,0.6c0.7,0,1.5-0.1,2.2-0.2
					c0.7-0.1,1.4-0.3,2-0.5c2.7-0.8,5.2-2.2,7.5-3.7c4.8-3,8.9-6.3,14.5-6.2c1.3,0,2.7,0.1,4.2,0.5c5.7-4.1,10.9-8.7,15.5-13.8
					c4.9-5.3,8.4-10.1,11.7-14.9c6.5-9.5,11.4-18.5,15.7-27c-2.7-2.3-4.7-4-6.6-5.7l1.7-2.5c6,0.2,10.3-1.6,12.8-5.5
					c2.5-3.9,3.1-9.9,1.5-17.6c0.7-1,1.3-2,2-3.1c6.5-3.5,13.1-7.8,19.4-13.4c-0.5,1.5-0.8,2.9-1,4c-0.2,1.1-0.2,2,0.1,2.6
					c0.5,1.3,2.1,1.5,5.2-0.2c-3.6,11.5-8.3,21.5-12.9,30.4c-2.3,4.4-4.6,8.6-6.8,12.5c-2.2,4-4.2,7.6-6.6,11.6
					c-4.8,8.1-10.3,17-18.2,26.4c-1,1.2-2.1,2.3-3.1,3.5c-0.5,0.6-1.1,1.2-1.6,1.8l-1.8,1.9c-1.3,1.4-2.6,2.5-3.9,3.7l-2,1.8l-2,1.7
					c-5.5,4.6-11.4,8.7-17.7,12.2l-2.6,1.3c-5.1,2.6-10.6,4.6-16.2,6.1c-2.8,0.7-5.7,1.3-8.5,1.9
					C1451.8,945.5,1449.5,945.9,1446.9,946.2z"/>
				<path fill="#FFC2AF" d="M1474.5,841.7c-3.1,5.7-6.1,11-9.2,15.6l2.1,2c5.4-2.5,11-6,17.7-10.7c2.1,5.5,1.5,9.6,0,13
					c-1.6,3.4-4.1,6.2-5.9,9.2c-1.8,3.1-3.4,6.4-5.1,9.7c-1.8,3.3-3.8,6.8-6.5,10.1c-3.3-0.1-4.9-4-6.8-7.5c-1-1.8-2-3.5-3.1-4.7
					c-1.2-1.3-2.5-2.1-4.1-2c-1.5-0.1-3.1,0.6-5.5,2c3.2,4.5,6.4,8.3,10.4,12.4c-2.5,2.1-4.6,2.1-6.3,1.2c-1.7-0.9-3-2.8-4.3-5
					c-1.9-3.1-3.2-5.5-4.3-7.2c-1.1-1.8-2-2.8-2.9-3.3c-0.2-0.1-0.5-0.2-0.7-0.3c-0.3-0.1-0.6-0.1-0.9-0.1c-0.6,0-1.4,0.1-2.2,0.3
					c-1.7,0.4-3.9,1.1-7.1,1.9c-2.3-2.6-10.2-0.9-5.7-9.2c1.7-0.3,3.5-1,5-1.5c0.8-0.2,1.5-0.4,2.2-0.5c0.7-0.1,1.3,0,1.9,0.3
					c0.8,0.4,1.6,0.7,2.4,0.9c0.7,0.2,1.4,0.2,2.1,0.2c0.3,0,0.7-0.1,0.9-0.1c0.2-0.1,0.5-0.1,0.7-0.2c0.5-0.2,1-0.5,1.4-0.8
					c1.8-1.3,3.1-3.5,4.2-5.3c0.5,0,0.9-0.2,1.2-0.6l0,0c1.8-0.2,3.6-0.6,5.5-1.1c0.9-0.3,1.8-0.6,2.7-1c0.4-0.2,0.9-0.4,1.3-0.6
					c0.2-0.1,0.4-0.2,0.6-0.3l0.7-0.4C1462.8,854.6,1468.4,848.6,1474.5,841.7z"/>
				<path fill="#FFD9CD" d="M1200.6,798.9c2.4,5.9,8,5.8,13.1,7.5c5,1.6,12.5,0,13.8,8l-16.8,0.2c-14.3-3.3-28.6-7.4-43.4-10.7
					c-14.8-3.2-30.1-5.6-45.9-4.9c-3.4-0.4-6.9-0.7-10.4-1.1c-1.7-0.2-3.5-0.4-5.2-0.6c-1.7-0.2-3.5-0.4-5.2-0.7s-3.4-0.6-5.1-0.9
					c-1.7-0.4-3.4-0.8-5.1-1.2c-3.4-0.9-6.7-2.2-10-3.8c-1.6-0.3-3.3-0.5-5-0.7c1.3-0.7,2.5-1.6,3.8-2.3c1.2-0.7,2.5-1.3,3.8-1.3
					c16.9-0.2,33.5-1.1,49.9-0.7c16.4,0.4,32.5,2.1,47.7,7c-3.2,2.7-5,5.2-0.1,8.3c7.1,4.3,11.9-0.5,17.4-3.1
					C1198.8,798,1199.7,798.5,1200.6,798.9z"/>
				<path fill="#FFC4B1" d="M1645.4,214.8c-2.8,0.5-5.7,0.8-8.5,1.2c-2.9,0.4-5.8,0.7-8.9,1.1c-6.1,0.7-12.6,1.2-19.8,1.3
					c8.6-6.7,14.5-12.5,20.4-18.3c2.7-2.6,4-4.9-0.8-6.6c12.4-5.8,24.5-12.8,37.2-18.8c4.2-2,9.8-1,16.5-1.5
					C1675.4,193.7,1660.9,204.7,1645.4,214.8z"/>
				<path fill="#FFCCBC" d="M1559.1,828.1c-3.1,1.6-4.7,1.4-5.2,0.2c-0.3-0.6-0.3-1.5-0.1-2.6c0.2-1.1,0.5-2.5,1-4
					c0.4-1.2,0.7-2.5,1-3.8c0.7-2.3,1.5-4.5,2.2-6.8c0.4-1.2,0.7-2.4,1-3.6c0.3-1.2,0.6-2.4,0.7-3.6c0.3-2.4,0.4-4.8,0-7.2
					c-0.4-2.3-1.4-4.5-2.8-6.5c-0.2-2.9-0.9-5.7-1.5-8.5c-0.5-2.8-1.3-5.5-1.7-8.2c-1.5-9-4.1-17.5-7.4-25.4
					c-3.3-7.9-7.3-15.2-11.8-22.1c-4.4-6.9-9.4-13.2-14.6-19.2c-1.3-1.5-2.6-3-4-4.4l-2-2.1c-0.7-0.7-1.5-1.5-1.9-1.9l-2.9-2.8
					c-0.9-0.8-1.6-1.4-2.5-2.2c-1.2-1-3.5-1.2-5.5-1.9c-0.7-1.9-1.2-3.7-1.6-5.4c-4.4-3.1-8-6.5-10.5-9.6c-3-3.8-4.4-7.4-4-10.3
					c1.1,0,2.2,0.1,3.2,0.1c2.9,2.9,5.7,5.7,8.9,8.8c3.5,3.4,7.6,7,12,10.4c1.8,1.4,3.5,2.8,5.2,4.2l0.7,0.5l0.9,0.8l1.7,1.5
					l0.4,0.4c0.1,0.1,0.3,0.2,0.5,0.5l1.4,1.4l2.7,2.7c7.2,7.4,13.9,15.5,20,24.5c6.1,9,11.5,18.9,15.7,30
					c4.1,11.1,6.9,23.4,7.2,36.4c0,1.7,0,3.4,0,5.1l0,2.6c0,0.9-0.1,1.7-0.2,2.6c-0.3,3.4-0.6,6.9-1.2,10.2
					C1562.9,815.7,1561.1,822.1,1559.1,828.1z"/>
				<path fill="#FFD6CA" d="M1496,588.5c3.5-2.5,7.4-4.9,11.7-7.3c7,0,14.1,0,21.1,0.1l4.8,0.1l4.3,0.1l6.8,0.1l-3.3,0.3l-0.4,0
					l-0.5,0l-1.2,0.1l-2.4,0.2l-10.5,0.7l1.1,3.3l4.5-0.6l3.8-0.6c2.4-0.4,5.4-0.8,7-1.1c3.6-0.8,7.1-1.5,10.4-2.3
					c3.4-0.4,6.6-0.8,9.7-1.7c3.1-0.9,6.1-2.2,8.5-4.5c2-1.9,3.5-4.3,4.4-6.9c1-2.6,1.5-5.4,1.7-8.1c3.3,1.2,4.8,0.6,5.5-0.8
					c0.7-1.4,0.6-3.4,0.9-5.3c0.3-2.2,0.3-4.5,0.3-6.7c0.1-2.2-0.1-4.5,0-6.6c0.2-2.2,0.3-4.3,0.9-6.5c0.3-1.1,0.7-2.2,1.1-3.3
					c0.4-1.1,1-2.2,1.7-3.5c1.7,9.4,2.3,19.3,1.7,29.4c-0.3,5.1-0.8,10.2-2.2,15.2c-0.7,2.5-1.7,4.9-3,7.1c-1.3,2.2-3.1,4.2-5.1,5.7
					c-2.1,1.6-4.5,2.7-7,3.5c-2.5,0.8-5.1,1.2-7.7,1.5c-3,0.3-6.1,0.4-9.2,0.6l-9.4,0.4l-22.8,1c-5.1-1-10.5-2-15.9-3
					C1503.6,588.7,1499.8,588.6,1496,588.5z"/>
				<path fill="#FFDDD2" d="M1468.2,309.1c-2.3,0.7-4.6,1.4-9.9,3.5c-5.9-3.1-10.6-6.7-13.7-11.4c-1.6-3.1-2.3-6.6-2.2-9.9
					c0.1-3.4,1.3-6.6,3.1-9.3c1.8-2.7,4.3-4.9,7.1-6.7c2.8-1.8,5.9-3.3,9.3-4.4c2.8-1,6.8-1.1,10.8-0.8c4,0.3,8,0.9,11.4,1.3
					c-2.1,1-3.9,2.2-5.7,3.4c-1.7,1.2-3.4,2.3-5.3,3.4c-2.4,1.3-4.7,2.8-6.7,4.6c-2,1.8-3.8,3.9-4.9,6.5c-1.1,2.6-1.3,5.5-0.7,8.3
					c0.6,2.8,2.1,5.5,4.2,7.7C1466.2,306.6,1466.9,307.9,1468.2,309.1z"/>
				<path fill="#FFE2D9" d="M1445.2,862.1c-1.1,1.9-2.4,4.1-4.2,5.3c-0.4,0.3-0.9,0.6-1.4,0.8c-0.3,0.1-0.5,0.2-0.7,0.2
					c-0.2,0-0.6,0.1-0.9,0.1c-0.7,0-1.4,0-2.1-0.2c-0.8-0.2-1.5-0.5-2.4-0.9c-0.6-0.3-1.2-0.4-1.9-0.3c-0.7,0-1.4,0.2-2.2,0.5
					c-1.6,0.5-3.3,1.2-5,1.5c-3.1-0.9-6.3-1.9-9.7-2.8c-3.4-0.9-6.7-1.6-10-2.2c-3.4-0.6-6.8-0.8-10.2-0.7c-3.5,0-7,0.5-10.6,1.6
					c-6.3,1.7-8.6-3.3-11.2-7.5c4.1-0.4,8.2-0.7,12.2-1.1c4-0.5,8.1-0.9,12-1.4l9.5,0.7l9.5,0.4c6.4,0.3,11.8,0.3,16.2,0.3
					c1.4,0,2.6-0.1,3.8-0.1c0.3,0,0.6,0,0.8,0c0.2,0,0.3,0.1,0.5,0.1c0.4,0,0.8,0.2,1.3,0.3C1440.2,857.2,1442.2,858.7,1445.2,862.1
					z"/>
				<path fill="#FFD0C1" d="M1488.3,666.4c-1.1,0-2.1-0.1-3.2-0.1c-3.5-2.1-7-4.3-10.7-6.7c-1.8-1.2-3.7-2.5-5.4-3.9
					c-1.7-1.4-3.3-3-4.9-4.7c-1.5-1.7-2.9-3.5-4.1-5.4c-1.2-1.9-2.1-3.9-2.6-6c-0.5-2.1-0.5-4.2,0.1-5.9c0.6-1.8,1.8-3.1,3.2-4
					c2.1-1.2,5.7-1,9.4-0.6c3.8,0.4,7.7,1,11,1.2l10.2,6.4c-1.8,0.3-3.4,0.6-5.1,1c-1.6,0.4-3.2,0.6-4.6,1.4c-1.4,0.7-2.7,2.2-3.2,4
					c-0.5,1.9-0.2,4,0.4,5.9c0.6,1.9,1.4,3.7,2.3,5.3c0.9,1.6,1.8,3.1,2.7,4.4C1485.8,661.4,1487.3,663.8,1488.3,666.4z"/>
				<path fill="#FFD3C6" d="M1528.8,635.7c1.2-0.7,2.3-1.6,3.7-2.4c1.3-0.8,2.8-1.4,4.4-1.5l6.3-0.2l1.6,0l2.5,0l5.1,0l5.1,0l5-0.2
					l5-0.2l2.5-0.1l2.4-0.2c6.4-0.6,12.6-1.7,18.5-3.5c5.9-1.8,11.6-4.5,16.7-8.3c5.9-4.4,10.5-10.2,13.9-16.5
					c3.4-6.2,5.8-10.9,11.5-10.5c-1.8,6.3-4.3,12.3-7.7,18c-1.7,2.8-3.6,5.5-5.8,8c-2.2,2.5-4.6,4.8-7.1,6.9
					c-1.8,1.3-3.6,2.7-5.5,3.8l-1.4,0.9l-1.4,0.8c-1,0.5-2,1-2.9,1.5c-3.9,1.9-8.1,3.3-12.3,4.4c-4.3,1.1-8.7,1.9-13.2,2.3
					c-1.2,0.1-2.3,0.2-3.5,0.3l-3.6,0.1l-7.1,0.2c-2.4,0.1-4.8-0.1-7.2-0.2l-7.3-0.4l-1.6-0.1l-1.1-0.1l-2.1-0.2l-4.2-0.4l-0.3,0
					l-0.1,0l-0.3-0.1l-0.5-0.1l-1.1-0.2c-0.7-0.2-1.4-0.3-2.2-0.5C1532,636.6,1530.5,636.2,1528.8,635.7z"/>
				<path fill="#FFC5B3" d="M1047.4,803.5c-3.4,1-6.8,1.8-10.2,2.5c-3.4,0.7-6.8,1.4-10.2,1.8c-1.7,0.2-3.4,0.4-5.2,0.5
					c-1.7,0.2-3.5,0.3-5.2,0.4c-3.5,0.2-7.1,0-10.8-0.2c-6.7-0.4-13.9,2.3-21.1,3.6c-11.2,2-22.8,4.5-34.7,8.7
					c5-5.9,11.5-9.9,18.4-12.8c6.9-2.9,14.1-4.6,21-6.3c7-1.7,13.8-3.3,20.4-4.5c1.7,1.4,4.6,4.1,4.8,4c6-4.5,11.7-4.5,17-3.3
					c1.3,0.3,2.7,0.7,4,1.1c1.3,0.5,2.6,1,3.9,1.5C1042.3,801.6,1044.9,802.7,1047.4,803.5z"/>
				<path fill="#FFF3EF" d="M1531.1,207.2c-5.9-0.6-11.9-1.2-18-1.6c-1.5-0.1-3-0.2-4.5-0.3l-2.3-0.1l-1.1,0l-0.3,0l-0.4,0l-0.7,0
					c-2,0-4.1,0.1-6.1,0.3c-2.1,0.1-4.1,0.3-6.2,0.5c-1.6,0.1-3.1,0.3-4.7,0.4c-1.5,0.1-3.1,0.3-4.6,0.4c-3.1,0.2-6.1,0.3-9.2,0.3
					c-6.1,0-12.3-0.5-19-2c5.5-1.5,10.8-3.4,16.4-5.2c2.8-0.9,5.6-1.8,8.5-2.7c1.4-0.4,2.9-0.9,4.3-1.3c1.5-0.4,3-0.8,4.5-1.2
					c3-0.8,6.1-1.5,9.2-2.2c3-0.7,6.7-1.3,8.4-1.5c4.3-0.7,8.7-0.8,13.3-0.4c0.7,2.9,1.4,5.8,2.6,10.5c9.6,0.6,19.8,1.6,29.3,2.7
					c-2.1,1.1-4.4,2.3-6.6,3.5C1539.6,207,1535.4,207,1531.1,207.2z"/>
				<path fill="#FFE2D9" d="M1474.5,841.7c-6.1,6.9-11.7,12.9-17.2,16.4l-0.7,0.4c-0.2,0.1-0.4,0.2-0.6,0.3
					c-0.4,0.2-0.9,0.4-1.3,0.6c-0.9,0.4-1.8,0.7-2.7,1c-1.8,0.5-3.7,0.8-5.5,1.1l0,0l0-0.1c0-4.1,0.4-6.2,1.6-7.5
					c0.6-0.6,1.3-1.1,2.2-1.4c0.2-0.1,0.4-0.1,0.6-0.2l0.9-0.3c0.6-0.3,1.3-0.5,2-0.8c2.2-0.9,4.5-2.1,6.8-3.8
					c2.3-1.7,4.4-3.8,6.4-6.3l2.2-2.9l2.2-3.1l4.5-6.4c2.9-4.2,5.6-8.2,7.9-12c2.3-3.8,4.3-7.4,5.8-10.7c1.5-3.3,2.6-6.4,3.3-9.2
					c0.7,1.8,1.9,4,1.5,5.9c-0.9,4.2-2.4,8.8-4.6,13.6c-2.2,4.9-4.9,10-7.9,15.4C1479.4,835.1,1476.8,838.6,1474.5,841.7z"/>
				<path fill="#FFD3C6" d="M1638.2,569.6c-2.5-2.9-3.8-6.1-4.3-9.4c-0.1-0.8-0.2-1.7-0.3-2.6c-0.1-0.9-0.2-1.8-0.2-2.7
					c-0.1-1.9-0.1-3.8,0-5.8l0.2-5l-0.2-5c-0.1-3.3-0.2-6.7-0.4-10c-0.1-1.7-0.3-3.4-0.5-5.1l-0.5-4.3c-0.1-1.4-0.4-2.7-0.6-4.1
					l-0.7-4l-0.7-4c-0.3-1.3-0.6-2.6-0.9-4c-0.6-2.6-1.2-5.3-1.9-7.9l-2.2-7.8l-0.6-1.9l-0.7-1.9l-1.3-3.8c-0.9-2.6-1.8-5-1.7-6.7
					c0.1-1.8,1.4-3,4.9-3.2c6.3,13.6,11.7,28,14.6,43.3l0.5,2.9c0.2,1,0.3,1.9,0.4,2.9l0.4,3c0.2,1.3,0.3,2.5,0.4,3.8
					c0.1,1.3,0.2,2.5,0.3,3.8c0.1,1.2,0.1,2.5,0.1,3.7c0,2.5,0,5,0,7.4C1642.2,551,1640.8,560.7,1638.2,569.6z"/>
				<path fill="#FFC2AF" d="M1481.8,831.9c3-5.4,5.7-10.5,7.9-15.4c2.2-4.9,3.7-9.4,4.6-13.6c0.3-1.9-0.8-4.1-1.5-5.9l0.1-1.1l0-1.1
					c0-0.3,0.1-0.7,0-1l-0.1-1l-0.1-2c-0.1-0.7-0.2-1.4-0.3-2c0-0.3,0-0.7-0.1-1l-0.2-1c-0.1-0.7-0.2-1.4-0.4-2.1
					c-0.4-1.4-0.5-2.8-1-4.3c-0.1-0.4-0.2-0.8-0.2-1.3c0-0.2-0.1-0.4-0.1-0.6l-0.1-0.7c-0.2-0.9-0.2-1.8-0.3-2.8
					c-0.1-1-0.3-1.9-0.4-2.9c-0.1-0.5-0.1-1-0.2-1.5l-0.4-1.5c4.8,5.7,8.7,11.5,11.1,18l0.3,0.6c0.1,0.2,0.1,0.4,0.2,0.6l0.3,1.2
					l0.4,1.3c0.1,0.4,0.3,0.9,0.3,1.3c0.3,1.7,0.7,3.4,0.7,5.2c0.2,3.6-0.3,7.5-1.5,11.5c-1.2,4.1-2.9,8.9-5.8,13.1
					C1492.1,826.2,1487.8,829.9,1481.8,831.9z"/>
				<path fill="#FFD7CB" d="M1047.4,803.5c-2.6-0.8-5.1-1.9-7.7-3c-1.3-0.5-2.6-1.1-3.9-1.5c-1.3-0.4-2.6-0.8-4-1.1
					c-5.4-1.2-11.1-1.1-17,3.3c-0.2,0.1-3.1-2.6-4.8-4c2.1-1.1,4.1-2.8,6.3-3.2c19.8-3.1,39.6-4.3,59.1-4.2c1.7,0.2,3.3,0.4,5,0.7
					c-2.5,2.2-4.8,4.8-7.5,6.9c-2.4,1.8-5.4,3.1-8.1,4.7l-8.6,0.6C1053.2,803,1050.3,803.1,1047.4,803.5z"/>
				<path fill="#FFD3C5" d="M1543.8,206.9c2.2-1.2,4.5-2.3,6.6-3.5c6.6-0.4,12.7-0.8,18.1-1.6c5.5-0.8,9.4-1.2,15.1,2.9
					c3.7,2.7,9,1.5,13.9,1.4c-1.2,0.8-2.4,1.6-3.6,2.6c-1.2,0.9-2.4,1.7-3.7,2.5c-2.5,1.6-5.1,2.7-7.9,2.8
					c-6.1,0.1-12.2-0.9-18.5-2.3C1557.5,210.3,1550.8,208.4,1543.8,206.9z"/>
				<path fill="#FFDDD2" d="M1498,259.1l4.9-0.8l4.9-0.7c0.8-0.1,1.6-0.2,2.5-0.3l3.3-0.4c2.4-0.3,4.8-0.5,7.2-0.8
					c9.6-1,19.1-1.6,29-2.2c-5.9,1.4-11.6,3.6-17.4,4.1l-7,0.7l-7,0.7c-2.3,0.2-4.7,0.6-6.9,0.9c-0.8,0.1-1.6,0.2-2.3,0.4
					c-0.7,0.1-1.5,0.3-2.2,0.5c-2.9,0.6-5.7,1.5-8.2,2.7c-2.5,1.2-4.6,2.7-6,4.7c-0.7,1-1.9,1.3-3.3,1.4c-1.4,0.2-3,0.2-4.4,0.5
					c-2.1-1.6-3.4-2.9-3.9-3.9c-0.5-1-0.1-1.6,0.9-2.1c2.4-1,5-1.9,7.6-2.9C1492.4,261,1495.1,260,1498,259.1z"/>
				<path fill="#FFF2EE" d="M1440.3,208.7l-2.9,1.1c-0.9,0.4-2,0.7-2.8,1.2c-1.8,0.8-3.5,1.7-5.4,2.6c-1.8,0.9-3.6,1.7-5.5,2.6
					c-1.8,0.9-3.8,1.7-5.6,2.8c-3.7-2.7-6.5-4.8-9.4-6.9c1-0.6,1.9-1.2,2.9-1.7c1-0.5,1.9-1,2.8-1.4c1.7-0.9,3.3-1.6,4.6-2.3
					c2.8-1.2,4.9-2,6.9-2.2C1429.9,203.8,1433.7,205.5,1440.3,208.7z"/>
				<path fill="#FFE6DE" d="M1197.9,797.6c-5.4,2.6-10.3,7.4-17.4,3.1c-5-3-3.2-5.6,0.1-8.3l8.7,2.5L1197.9,797.6z"/>
				<path fill="#FFEAE3" d="M1367.7,849.3c-5.1,2-8.9,2.1-11.6,0.2c-2.7-1.9-4.1-5.7-4.7-11.6l8.1,5.7
					C1362.3,845.6,1365,847.4,1367.7,849.3z"/>
				<path fill="#FFEAE3" d="M1396.8,854.8c-4,0.6-8,0.9-12,1.4c-4,0.4-8.1,0.7-12.2,1.1c-0.9-0.2-1.8-0.6-2.7-1.1l0.8-7
					c4.4,1,8.7,2,13.1,3C1388.1,853.1,1392.5,854,1396.8,854.8z"/>
				<path fill="#FFCDBD" d="M1553.1,581.5c-3.3,0.7-6.7,1.5-10.4,2.3c-1.5,0.4-4.5,0.8-7,1.1l-3.8,0.6l-4.5,0.6l-1.1-3.3l10.5-0.7
					l2.4-0.2l1.2-0.1l0.5,0l0.4,0l3.3-0.3L1553.1,581.5z"/>
				<path fill="#FFC2AF" d="M1459.7,731.5l2.4,2.1l1.2,1c0.4,0.4,0.7,0.6,1,1l3.9,3.8l1,0.9c0.2,0.2,0.3,0.3,0.4,0.4l0.3,0.3
					l1.1,1.2c0.7,0.8,1.5,1.6,2.2,2.4c1.4,1.7,2.8,3.3,4.1,5c0.6,0.8,1.3,1.7,1.9,2.5l1.8,2.5l-1.8-2.5c-0.6-0.9-1.3-1.7-1.9-2.5
					c-1.2-1.7-2.7-3.3-4.1-5c-0.7-0.8-1.5-1.6-2.2-2.4l-1.1-1.2l-0.3-0.3c-0.1-0.1-0.2-0.2-0.4-0.4l-1-0.9l-3.9-3.8
					c-0.3-0.3-0.6-0.6-1-1l-1.2-1L1459.7,731.5z"/>
				<path fill="#FFCDBD" d="M1412.7,688.9c0.3,0.1,0.6,0.3,0.9,0.4c12.8,6.2,19.9,12.1,21.5,21l-5.9-5.3c-1.9-1.8-3.8-3.5-5.6-5.3
					c-1.9-1.8-3.6-3.5-5.3-5.2l-2.6-2.6l-2.5-2.5L1412.7,688.9z"/>
				<path fill="#FFF2EE" d="M1435.2,194.2l-9.5,3.4c-0.8-0.6-1.6-1.3-2.4-1.9l9.7-3.5C1433.7,192.9,1434.4,193.5,1435.2,194.2z"/>
				<path fill="#FFC7B6" d="M1433.5,947.5c0.2-2.5,0.5-5,0.7-7.4l3-0.5c1.6,2.4,3.3,4.8,5.1,7.1c-1.5,0.2-3,0.3-4.5,0.5
					L1433.5,947.5z"/>
				<path fill="#FFB49C" d="M1481.2,630.3c-3.3-0.3-7.3-0.9-11-1.2c-3.7-0.4-7.4-0.6-9.4,0.6c-1.4,0.9-2.6,2.2-3.2,4
					c-0.6,1.8-0.6,3.9-0.1,5.9c0.5,2.1,1.5,4.1,2.6,6c1.2,1.9,2.6,3.7,4.1,5.4c1.5,1.7,3.1,3.2,4.9,4.7c1.7,1.4,3.6,2.7,5.4,3.9
					c3.6,2.4,7.2,4.7,10.7,6.7c-0.4,3,0.9,6.5,4,10.3c2.5,3.2,6.2,6.5,10.5,9.6c-6-2.3-12.8-5-19.1-8.2c-5.2-2.6-10-5.6-13.3-8.6
					c-3.3-3-5.1-6.1-3.8-8.7c0.3-0.6-0.5-1.4-2-2.3c-1.5-0.9-3.7-2-6.3-3.1c-1.9,0.5-3.2,1.2-4,2c-0.8,0.8-1,1.7-0.9,2.7
					c0.3,2,2.1,4.2,4.5,6.4c2.4,2.2,5.4,4.5,8.3,6.6c2.9,2.2,5.6,4.3,7.7,6.6c1,1.1,1.8,2.2,2.5,3.3l-4.2,1.1
					c-2.7-0.9-6.1-1.6-8.7-2.6c-1-0.4-2-0.8-2.7-1.3c-5.3-3.5-9-7.1-13.3-10.7c-2.6-2.1-5.1-4.2-8.3-6.5c-3.2-2.3-7.1-4.6-12.4-7.4
					c0.4,0.6,0.9,1.3,1.4,2c0.5,0.7,1.1,1.4,1.6,2c1,1.4,1.5,2.6,1.4,3.6c-0.2,0.9-1.5,1.6-3.4,2.3c-1.9,0.7-4.4,1.5-6.9,2.7
					c-8.6-5.7-14.1-11.3-18.7-16.7c-1.1-1.4-2.2-2.7-3.2-4c-1.1-1.3-2-2.7-3-4.1c-1.9-2.9-3.6-5.9-5.3-9.2
					c-1.6-4.1-2.8-8.5-3.1-13.2c-0.2-2.3-0.1-4.7,0.3-7.1c0.4-2.4,1.2-4.8,2.3-6.9c2.4-4.3,6.3-7.6,10.4-9.1
					c4.1-1.6,8.3-2.1,12.7-2.9c4.3-0.7,8.7-1.4,13.2-2c4.6-0.6,9.1-1.2,14-1.7c4.7-0.5,9.8-0.9,14.8-1.2l7.8-0.3l1.9-0.1l2,0l4,0
					c4.9,0,10.6,1.2,15.8,1.8c4.9,0.7,10.1,2,14.3,2.1c4.2,0.1,7.5-0.9,9.7-4.8c5.5,0.9,10.8,2,15.9,3c3.1,0.7,6.1,1.5,9.5,2.3
					c1.6,0.4,3.2,0.9,5.1,1.4c1.8,0.5,3.9,1,5.9,1.6l-1.5,0.4l-1.6,0.4c-1.1,0.3-2.1,0.5-3.2,0.7c-2.1,0.4-4.2,0.8-6.4,1.1
					c-4.2,0.6-8.4,0.9-12.5,1.1c-8.2,0.4-16.6,0.1-25-0.1c-8.4-0.2-16.9-0.3-24.6,0.3c-7.6,0.6-14.3,2-18.3,4.7
					c8.5,1.1,17.2,2.9,24.3,3.9c7.2,0.9,12.9,0.9,17.3-1.6c2.7-1.5,4.6-1.9,6.7-0.7c2.1,1.3,4.4,4.2,8.2,9.5l-9.3,0.1
					c-6,0.1-11.9,0.3-18.7,0.5c6,4.2,9.2,6.6,12.4,8.9C1487.7,627.7,1484.3,629,1481.2,630.3z"/>
				<path fill="#FFBCA8" d="M1369.9,856.3c0.9,0.5,1.7,0.8,2.7,1.1c2.6,4.3,4.9,9.2,11.2,7.5c3.6-1,7.1-1.5,10.6-1.6
					c3.4-0.1,6.8,0.1,10.2,0.7c3.4,0.6,6.7,1.2,10,2.2c3.4,0.9,6.6,1.9,9.7,2.8c-4.6,8.3,3.4,6.6,5.7,9.2c3.2,2.7,6.4,5.3,10.8,8.3
					c-5.8,3.6-12.5,6.7-19.5,9.3c-3.5,1.3-7,2.4-10.6,3.4c-1.8,0.5-3.6,1-5.4,1.4c-1.8,0.5-3.6,0.8-5.4,1.1
					c-2.3,0.4-4.7,0.6-7.1,0.5c-2.4,0-4.8-0.4-7.3-0.8c-2.4-0.4-4.9-1-7.3-1.7c-2.4-0.7-4.8-1.5-7.2-2.4c2.4,0,4.8,0,7.2,0
					c2.4,0,4.9-0.1,7.6-0.2c5.2-0.1,10.9-0.4,17.5-0.8c-3.1-2.3-6.1-3.5-9.1-4.1c-3-0.6-5.9-0.8-8.8-0.9c-5.7-0.1-11-0.4-15.3-4.5
					c1.4-4.9,4.6-6.5,8.2-7.4c1.8-0.5,3.7-0.8,5.6-1.3c1.9-0.5,3.6-1.1,5.2-2.3c-1.5-3.2-3.6-4.6-5.9-5.3c-2.3-0.7-4.8-0.8-7.1-1
					c-6.4-0.7-12.7-2.4-18.8-4.3c-3.1-1-6.1-2.1-9.1-3.3c-3-1.1-6-2.4-9.1-3.6c-17.6-7.1-35.7-17.2-57.1-12.1l-26.2-12.4l-11.7-5.9
					c-11.4-3.5-22.9-7-34.6-10.4c0.4-1,0.7-2,1.1-3l16.8-0.2l21.6,5c1,0.2,2.3,0,3.1,0.6c24.6,19.1,55,19.4,81.6,28.2
					c7,2.3,13.5,6.6,20.6,8.4C1359.2,857.8,1364.7,856.4,1369.9,856.3z"/>
				<path fill="#FFBEAA" d="M1501.2,691.6c1.9,0.7,4.3,0.9,5.5,1.9c0.8,0.7,1.6,1.4,2.5,2.2l2.9,2.8c0.4,0.3,1.2,1.2,1.9,1.9l2,2.1
					c1.4,1.4,2.7,2.9,4,4.4c5.2,5.9,10.2,12.3,14.6,19.2c4.4,6.9,8.4,14.2,11.8,22.1c3.3,7.9,5.8,16.5,7.4,25.4
					c0.4,2.7,1.2,5.4,1.7,8.2c0.6,2.8,1.3,5.6,1.5,8.5c-0.5,1.5-1.1,3-1.6,4.4l-0.4,1.1l-0.5,1.1l-1,2.1c-0.7,1.4-1.3,2.8-2,4.1
					c-0.7,1.4-1.5,2.7-2.2,3.9c0.1-1.4,0.6-3,0.8-4.6c0.2-1.5,0.2-2.8-0.3-3.4c-1.1-1.3-2-2.6-2.7-3.8c-0.8-1.3-1.5-2.6-2.1-3.8
					c-0.6-1.3-1-2.6-1.3-3.9c-0.4-1.3-0.7-2.6-1-4c-0.9-5.4-1.4-11.2-2.6-16.9c-2.5-11-7.1-21.1-12.7-30.2
					c-5.6-9.2-12.1-17.6-19.1-25.3c-1.3-1.5-2.3-3.4-3.1-5.3c-0.6-1.6-1.1-3.4-1.6-4.9c-0.6-1.7-1-3.2-1.4-4.8
					C1501.7,694.4,1501.4,693,1501.2,691.6z"/>
				<path fill="#FFBEAA" d="M1533.4,838.1c1.6,7.8,0.9,13.8-1.5,17.6c-2.5,3.9-6.7,5.7-12.8,5.5
					C1523.9,854.1,1528.9,846.5,1533.4,838.1z"/>
				<path fill="#FFBEAA" d="M1555.8,817.9c-0.3,1.3-0.6,2.6-1,3.8c-6.3,5.6-12.9,9.9-19.4,13.4c1.4-5,2.9-10.1,3.5-15.4
					c0.2-1.9,0.6-3.2,1.2-4.2c0.6-1,1.4-1.7,2.3-2.2c1.8-1,4.1-1.4,5.9-2.5c1.3,1.1,2.5,2.3,3.8,3.5
					C1553.4,815.4,1554.6,816.6,1555.8,817.9z"/>
				<path fill="#FFC7B6" d="M1555.8,817.9c-1.2-1.2-2.4-2.4-3.7-3.6c-1.2-1.2-2.5-2.3-3.8-3.5c0.2-1.3,0.5-2.5,0.8-3.8
					c0.7-1.3,1.6-2.6,2.2-3.9c0.7-1.4,1.3-2.7,2-4.1l1-2.1l0.5-1.1l0.4-1.1c0.6-1.5,1.1-2.9,1.6-4.4c1.5,2,2.4,4.2,2.8,6.5
					c0.3,2.3,0.3,4.7,0,7.2c-0.1,1.2-0.4,2.4-0.7,3.6c-0.3,1.2-0.6,2.4-1,3.6C1557.2,813.3,1556.5,815.6,1555.8,817.9z"/>
				<path fill="#FFC2AF" d="M1494.3,838.8c-0.8,1.2-1.3,2.6-2.3,3.6c-0.6,0.6-1.9,0.5-4.5,1c2-2.9,3.3-4.8,4.5-6.6L1494.3,838.8z"/>
				<path fill="#FFB7A0" d="M1210.6,814.5c-0.4,1-0.7,2-1.1,3c-5.2,0.1-11.1,1.7-15.6-0.1c-2.6-1.1-5.2-2.1-7.9-3
					c-2.7-0.9-5.4-1.8-8.1-2.5c-5.4-1.6-10.9-2.7-16.5-3.7c-11.2-1.8-22.6-2.6-34.3-2.4c-2.2,0-4.5-0.2-6.7-0.5
					c-2.3-0.3-4.6-0.6-6.8-0.8c2.5-1.9,5.1-3.8,7.7-5.6c15.8-0.7,31.1,1.6,45.9,4.9C1182,807.1,1196.4,811.3,1210.6,814.5z"/>
				<path fill="#FFC5B3" d="M1121.3,798.9c-2.6,1.8-5.1,3.7-7.7,5.6c-16-1.6-32.4-2.5-49-2.4c2.7-1.5,5.7-2.8,8.1-4.7
					c2.7-2,5-4.6,7.5-6.9c3.3,1.7,6.6,2.9,10,3.8c1.7,0.4,3.4,0.9,5.1,1.2c1.7,0.4,3.4,0.7,5.1,0.9s3.5,0.5,5.2,0.7
					c1.7,0.2,3.5,0.4,5.2,0.6C1114.4,798.2,1117.9,798.5,1121.3,798.9z"/>
				<path fill="#FFB7A0" d="M1176.8,834.2c-3.1,6.5-6.2,7.3-9.4,6.4c-3.2-0.9-6.3-3.4-9.3-3.7
					C1162.9,831.6,1168.6,830.3,1176.8,834.2z"/>
				<path fill="#FFB7A0" d="M1244.1,827.9l11.7,5.9C1250.1,835.5,1247,831.8,1244.1,827.9z"/>
				<path fill="#FFBDA9" d="M1399.5,335.6c-4.9-3.8-9.5-7.8-13.6-12.3c-4.1-4.5-7.7-9.4-10.4-15.2c3.8,0.8,5.8,1.2,7.2,0.7
					c0.7-0.2,1.3-0.6,1.9-1.3c0.3-0.3,0.6-0.7,1-1.2c0.4-0.5,0.8-1,1.3-1.6c1.7,2.3,3.5,4.4,5.6,6.4c1.1-0.7,2.3-1.3,3.4-1.7
					c0.1,0,0.1,0,0.2-0.1c0.1,0,0.1,0,0.3-0.1c0.3-0.1,0.6-0.1,0.8-0.1c0.5-0.1,1.1-0.2,1.6-0.2c1-0.1,2.1-0.2,3.1-0.1
					c2,0.1,3.9,0.4,5.6,1.1c0.9,0.4,1.7,0.8,2.6,1.3c0.8,0.6,1.6,1.2,2.4,1.9c-0.9,2,0.1,3.7,2.5,4.5c2.4,0.8,6.2,0.7,11.2-0.3
					c6.6-1.4,10.4-1.4,13-0.9c2.6,0.5,4,1.5,5.8,2.4c1.9,1.2,3.8,2.3,5.8,3.4l0,0c-8.3,2.1-12.7,3.1-13.7,4
					c-1.1,0.8,1.2,1.5,5.5,2.6c6,0.5,11.6,0.8,16.9,0.9c-2.8,2.1-5.5,4.3-8.1,6.5c-7.4-1.1-15.5-2.3-23.9-4.1c-1.9-1-3.8-1.9-5.7-3
					c-1.3-0.5-2.6-1.1-3.9-1.6c-1.3-0.6-2.7-1.1-4.3-1.6c-3.2-1-7.1-1.8-12.6-2c3.1,4.4,6,7.9,9,11.4
					C1406.5,335.5,1403,335.5,1399.5,335.6z"/>
				<path fill="#FFB8A2" d="M1444.9,318.9c-1.9-0.9-3.3-1.9-5.8-2.4c-2.6-0.5-6.4-0.5-13,0.9c-5,1.1-8.8,1.1-11.2,0.3
					c-2.4-0.8-3.4-2.4-2.5-4.5c3.8-1.7,7.4-3.6,12.1-4.8c4.7-1.3,10.3-2,17.7-1.8c3.9,4.7,9.1,8.1,14.3,11
					C1452.8,318.1,1448.9,318.6,1444.9,318.9z"/>
				<path fill="#FFBAA4" d="M1460.7,246.2c-3.3-0.1-6.6-0.2-10-0.2l-0.9-1.3l-0.7-1.2l2.9,0.6l3,0.7
					C1456.9,245.2,1458.8,245.7,1460.7,246.2L1460.7,246.2z"/>
				<path fill="#FFBDA8" d="M1472.7,227.8c2.6-2.7,5.7-5.3,9.7-7c4-1.8,8.8-2.8,14.3-2.4c-1.8,3.3-3.2,5.8-4.4,7.7
					c-1.3,1.9-2.5,3.1-4,3.7c-1.5,0.6-3.4,0.7-5.8,0.3C1480,229.7,1476.9,228.9,1472.7,227.8L1472.7,227.8z"/>
				<path fill="#FFB8A2" d="M1507.3,616.8c-3.8-5.2-6.1-8.2-8.2-9.5c-2.1-1.3-4-0.9-6.7,0.7c-4.4,2.6-10.1,2.6-17.3,1.6
					c-7.1-0.9-15.8-2.8-24.3-3.9c3.9-2.7,10.6-4.1,18.3-4.7c7.6-0.6,16.2-0.5,24.6-0.3c8.4,0.2,16.8,0.5,25,0.1
					c4.1-0.2,8.3-0.5,12.5-1.1c2.1-0.3,4.2-0.6,6.4-1.1c1.1-0.2,2.1-0.4,3.2-0.7l1.6-0.4l1.5-0.4c-2-0.6-4.1-1.1-5.9-1.6
					c-1.8-0.5-3.5-1-5.1-1.4c-3.4-0.8-6.4-1.6-9.5-2.3l22.8-1l9.4-0.4c3.1-0.1,6.2-0.2,9.2-0.6c2.6-0.3,5.2-0.7,7.7-1.5
					c2.5-0.8,4.9-1.9,7-3.5c2-1.5,3.7-3.5,5.1-5.7c1.3-2.2,2.3-4.6,3-7.1c1.4-5,1.9-10.1,2.2-15.2c0.6-10.1-0.1-20.1-1.7-29.4
					c-3.2-23.4-11.7-46.2-24-66.7c-0.7-1.3-1.6-2.5-2.4-3.8l-2.4-3.8c-0.8-1.3-1.7-2.5-2.5-3.7l-2.6-3.6c-1.7-2.4-3.7-4.7-5.5-7.1
					c-1.9-2.3-3.9-4.6-5.8-6.9c-8-9-16.7-17.3-26.1-25c-1.3-1-2.7-2-4.1-3c-1.4-1-2.8-1.9-4.3-2.7c-2.9-1.7-5.8-3.4-8.8-5.1
					c-8.1-7-16.7-13.6-25.7-19.9c3.2-1.4,6.3-3.6,9.6-4.8c1.6-0.6,3.4-1,5.1-1c1.7,0.1,3.5,0.5,5.3,1.6
					c11.3,6.8,22.7,14.2,31.6,23.9c8.5,9.3,16.9,13.8,29.8,12.4c2.9,3.2,5.8,6.4,8.5,9.7c-2.2,0.1-4.4,0.2-6.8,0.3
					c-2.4,0.2-5.1,0.4-8.2,0.7c6.4,5.5,10.6,12.2,14.8,18.3c1,1.6,2,3.1,3.1,4.6c1.1,1.5,2.2,2.9,3.4,4.3c1.1,1.4,2.4,2.7,3.7,4
					c0.7,0.6,1.4,1.2,2.1,1.8c0.7,0.6,1.5,1.2,2.2,1.8c0.2-1.4,0.2-2.7,0.1-4c-0.1-1.3-0.4-2.5-0.6-3.7c-0.6-2.4-1.3-4.7-2-7.1
					c-0.8-2.6-6.9-4.3-1.7-8.1c5.6,5.3,11,11,16.4,16.7c1.2,1.3,2.7,2.5,4.2,3.6c1.5,1.1,3,2.2,4.4,3.4l2,3.7l1,1.9l0.9,1.9
					c1.2,2.5,2.4,5.1,3.6,7.6l3.3,7.8c0.6,1.3,1,2.6,1.5,4l1.4,4c3.7,10.7,6.7,21.8,8.8,33.1c0.4,2.6,0.8,5.2,1.3,7.8
					c0.2,1.5,0.5,2.9,0.6,4.3c0.2,1.4,0.3,2.9,0.5,4.3c0.2,1.4,0.4,2.9,0.5,4.3c0.2,1.4,0.5,2.9,0.5,4.3c0.3,2.9,0.6,5.8,0.9,8.8
					c0.1,0.9,0.2,1.8,0.3,2.7c0,0.9,0.1,1.7,0.1,2.5c0,1.6,0,3.2-0.2,4.7c-0.2,1.5-0.6,2.9-1.2,4.2c-0.3,0.7-0.7,1.3-1.2,1.9
					c-0.5,0.6-1,1.2-1.7,1.8c-1.4,1.3-2.5,3.8-3.2,6.6c-0.8,2.8-1.4,5.9-1.7,8.5c-0.6,5.5-2.3,10.6-5,15c-2.6,4.4-6.4,8.1-10.8,10.9
					c-5.9,3.6-12.7,5.4-19.5,6.4c-3.6,0.6-7.7,0.4-11.9,0c-4.2-0.4-8.5-1.1-12.5-1.3c-1-0.1-2-0.1-3-0.1c-1,0-2,0-3,0.1
					c-2,0.1-3.9,0.4-5.7,0.9c-2.1,0.5-3.2,1.3-4.5,2.3c-1.3,1-2.5,2.4-3.6,4l-13.2-0.7c-4.3-0.2-8.7-0.4-13.1-0.5l0.1,0.1
					L1507.3,616.8z"/>
				<path fill="#FFBDA9" d="M1555.2,408.6c-12.9,1.4-21.3-3.1-29.8-12.4c-8.9-9.7-20.2-17.1-31.6-23.9c-1.8-1.1-3.6-1.6-5.3-1.6
					c-1.7-0.1-3.4,0.4-5.1,1c-3.3,1.2-6.5,3.4-9.6,4.8l-10.1-5.9c2.7-1.4,4.2-3.2,5.1-5.2c0.9-2,1.2-4.2,1.6-6.3
					c0.3-2.2,0.7-4.3,1.5-6.4c0.8-2.1,2.2-4,4.3-5.9c-5.5-0.1-9.8-1.2-12.2-3.3c-2.4-2-2.8-4.9-0.7-8.8c2.4,0.7,4.7,1.5,6.9,2.2
					c2.2,0.7,4.4,1.3,6.6,1.7c4.4,0.7,8.9,0.2,13.7-3.3l6,4.3c3,2.1,6.1,4.2,9.1,6.4c6,4.4,11.9,8.8,17.6,13.6
					c0.8,1.9,2.1,3.4,3.6,4.9c1.5,1.5,3.1,3,4.5,4.5c2.9,3.1,4.9,6.7,3,11.9c-0.2,0.5,0.7,1.7,1.8,2.8c1.2,1.1,2.6,2.3,3.7,2.6
					c2.8,0.9,5,2.1,6.8,3.7c1.7,1.6,3.1,3.5,4.2,5.5c1.1,2,1.9,4.2,2.6,6.5C1553.9,404.2,1554.6,406.4,1555.2,408.6z"/>
				<path fill="#FFB8A2" d="M1427.5,332.1c8.4,1.8,16.5,3,23.9,4.1c1.4,3.3,4.6,6.6,6.7,10.8c2,4.3,3.2,9.6,1.5,17.1
					c-4.5-2.9-8.5-5.2-12.3-7.6c-3.7-2.3-7.3-4.5-11.2-7c-0.5,1.7-0.7,2.9-0.9,4c-0.2,1.1-0.3,1.9-0.4,2.8l-4.4-2.3l-4.2-2.3
					c-2.8-1.5-5.6-3-8.2-4.5c1.5-2.6,2-4.9,0.9-6.9c-1.1-2-3.8-3.5-8.8-5.1c-3.1-3.5-5.9-7-9-11.4c5.5,0.3,9.4,1,12.6,2
					c1.6,0.5,3,1,4.3,1.6c1.3,0.5,2.6,1.1,3.9,1.6c-0.1,0.6,0.1,1.1,0.1,1.7l0.3,1.7c0.2,1.1,0.4,2.3,0.6,3.5l4-0.4l0.3-1.8l0.1-0.9
					l0.1-0.4L1427.5,332.1z"/>
				<path fill="#FFBDA8" d="M1434.7,356.3c0.1-0.9,0.2-1.7,0.4-2.8c0.2-1.1,0.4-2.4,0.9-4c4,2.5,7.6,4.7,11.2,7
					c3.8,2.3,7.8,4.7,12.3,7.6c1.8-7.5,0.5-12.8-1.5-17.1c-2.1-4.2-5.3-7.5-6.7-10.8c2.6-2.2,5.3-4.4,8.1-6.5
					c4.9-1.1,9.6-2.3,14-3.6c5.7,2.8,11.4,5.8,17.1,9.2c-4.8,3.5-9.3,3.9-13.8,3.3c-2.2-0.3-4.4-0.9-6.6-1.7
					c-2.2-0.7-4.5-1.5-6.9-2.2c-2.2,3.9-1.7,6.8,0.7,8.8c2.4,2.1,6.7,3.1,12.2,3.3c-2.1,1.9-3.4,3.9-4.3,5.9
					c-0.8,2.1-1.2,4.2-1.5,6.4c-0.3,2.1-0.7,4.3-1.6,6.3c-0.9,2-2.3,3.8-5.1,5.2c-2.4-1.2-4.8-2.4-7.2-3.6c-2.4-1.2-4.8-2.4-7.3-3.6
					l-7.3-3.5L1434.7,356.3z"/>
				<path fill="#FFBDA8" d="M1410.1,335.3c5,1.6,7.7,3.1,8.8,5.1c1.1,1.9,0.5,4.2-0.9,6.9c-4.9-1.1-9.8-2.3-13.4-4.2
					c-3.5-1.9-5.7-4.3-5-7.5C1403,335.5,1406.5,335.5,1410.1,335.3z"/>
				<path fill="#FFC4B2" d="M1555.2,408.6c-0.7-2.3-1.3-4.5-2-6.7c-0.7-2.2-1.4-4.5-2.6-6.5c-1.1-2-2.4-3.9-4.2-5.5
					c-1.8-1.6-4-2.8-6.8-3.7c-1.1-0.3-2.5-1.5-3.7-2.6c-1.2-1.1-2-2.3-1.8-2.8c1.9-5.2-0.1-8.9-3-11.9c-1.4-1.6-3.1-3-4.5-4.5
					c-1.5-1.5-2.8-3.1-3.6-4.9c5.5,2.6,11.5,4.8,16.4,8.7c3.4,2.8,6.9,5.6,10.1,8.5c1.7,1.5,3.3,2.9,5,4.4l4.8,4.6
					c0.8,0.8,1.6,1.5,2.4,2.3l2.3,2.4l4.7,4.8l4.5,5l2.2,2.5c0.7,0.8,1.4,1.7,2.2,2.6l4.3,5.2c1.4,1.8,2.7,3.6,4.1,5.4
					c2.8,3.6,5.3,7.4,7.8,11.1l1,1.4l0.9,1.4l1.8,2.9c1.2,1.9,2.4,3.8,3.5,5.8c2.2,4,4.5,7.9,6.5,12l-8.6,4.4
					c-1.4-1.2-2.9-2.3-4.4-3.4c-1.5-1.1-3-2.3-4.2-3.6c-5.4-5.8-10.8-11.5-16.4-16.7c2.4-3.7,4.6-7.4,6.6-10.7
					c-3.3-0.6-6.2-1-8.9-1.4c-2.8-0.3-5.3-0.6-7.8-0.8C1561.1,415,1558.1,411.9,1555.2,408.6z"/>
				<path fill="#FFB8A2" d="M1491.6,626.4c-3.2-2.3-6.4-4.7-12.4-8.9c6.8-0.3,12.8-0.4,18.7-0.5
					C1501.1,625.5,1498.4,627.1,1491.6,626.4z"/>
				<path fill="#FFB8A2" d="M1511.4,622.9c-1.2,0.8-2.3,1.7-3.3,2.5l-2.8-3.1l6.2,0.8L1511.4,622.9z"/>
				<path fill="#FFB8A2" d="M1473.5,326.1c-4.4,1.3-9.1,2.5-14,3.6c-5.3-0.1-10.9-0.3-16.9-0.9c2.4-2.3,5.2-4.5,8.2-6.5l0,0
					c3.9-0.6,7.7-1.3,11.4-2C1465.8,322.3,1469.6,324.1,1473.5,326.1z"/>
				<path fill="#FFBDA8" d="M1462.2,320.3c-3.7,0.7-7.5,1.4-11.4,2c-2-1.1-3.9-2.2-5.8-3.4c4-0.4,7.9-0.8,11.7-1.3
					C1458.5,318.6,1460.3,319.4,1462.2,320.3z"/>
				<path fill="#FFB8A2" d="M1507.4,588.9c-2.2,3.9-5.5,4.9-9.7,4.8c-4.2-0.1-9.3-1.4-14.3-2.1c4-1,8.2-2.1,12.6-3
					C1499.8,588.6,1503.6,588.7,1507.4,588.9z"/>
				<path fill="#FFBDA8" d="M1427.5,332.1l-0.2,0.5l-0.1,0.4l-0.1,0.9l-0.3,1.8l-4,0.4c-0.2-1.2-0.4-2.4-0.6-3.5l-0.3-1.7
					c-0.1-0.6-0.3-1.1-0.1-1.7C1423.7,330.2,1425.6,331.1,1427.5,332.1z"/>
				<path fill="#FFBDA8" d="M1450.7,322.3c-3,2.1-5.7,4.3-8.2,6.5c-4.3-1.1-6.6-1.7-5.5-2.6C1438.1,325.4,1442.4,324.5,1450.7,322.3
					z"/>
				<path fill="#FFBDA9" d="M1563.8,418.4c2.5,0.2,5.1,0.5,7.8,0.8c2.7,0.4,5.6,0.8,8.9,1.4c-2,3.4-4.2,7.1-6.6,10.7
					c-5.1,3.8,1,5.5,1.7,8.1c0.7,2.3,1.4,4.7,2,7.1c0.3,1.2,0.5,2.4,0.6,3.7c0.1,1.3,0.1,2.6-0.1,4c-0.8-0.6-1.5-1.2-2.2-1.8
					c-0.7-0.6-1.4-1.2-2.1-1.8c-1.4-1.3-2.6-2.6-3.7-4c-1.1-1.4-2.3-2.8-3.4-4.3c-1.1-1.5-2.1-3-3.1-4.6
					c-4.3-6.1-8.4-12.8-14.8-18.3c3.1-0.3,5.7-0.5,8.2-0.7C1559.4,418.5,1561.6,418.4,1563.8,418.4z"/>
			</g>
		</g>
	</g>
</g>
<g id="Layer_1">
	<circle fill="#FCE4EC" stroke="#FCE4EC" stroke-miterlimit="10" cx="1438" cy="558" r="32.5"/>
	<circle fill="#FCE4EC" stroke="#FCE4EC" stroke-miterlimit="10" cx="1507" cy="577" r="32.5"/>
	<g>
		<path fill="#64B5F6" d="M1341.5,651.5l26-53l24,15l14-11l81,49l-61,142l-25-35L1327.1,875c-7,11.2-22.5,13.2-32.2,4.1v0
			c-7.2-6.8-8.8-17.7-3.7-26.2l84.3-140.4l12-63l-24,29l-22-14V651.5z"/>
		<g>
			<g>
				<path fill="#78BEF7" d="M1341.7,651.5l10.4-21.5l15.3-31.6l0.1-0.1l0.1,0.1l24.1,14.9l-0.3,0l13.9-11.1l0.2-0.2l0.2,0.1
					l81.3,48.6l0.6,0.4l-0.3,0.7L1427,794.2l-1.2,2.7l-1.7-2.4l-22.4-31l-2.7-4l3-0.1l-42.5,65.1l-21.2,32.5l-10.6,16.3
					c-0.4,0.7-0.9,1.4-1.4,2c-0.5,0.6-0.9,1.3-1.5,1.9c-0.6,0.6-1,1.2-1.7,1.7c-0.6,0.5-1.2,1.1-1.9,1.5c-2.6,1.8-5.6,3-8.7,3.5
					c-3.2,0.6-6.5,0.5-9.6-0.5c-3.1-0.9-6-2.7-8.4-4.9c-2.4-2.3-4.2-5.1-5.3-8.3c-1-3.1-1.4-6.6-0.9-9.9c0.4-3.3,1.9-6.5,3.7-9.3
					l5-8.7l10-17.4c0,0,55.8-59.9,52.3-90.1c-0.7-6.1,2.6-15.6,8.4-26.9l-1.1,3c2.2-17.8,7.8-40.7,14.1-62.6l12.1,5.7
					c-9.4,9.5-18.8,18.5-27.2,26.4l-2,1.9l-1.6-1.3c-8-6.6-14.9-12.5-20.1-17l0.4,0.7c1.2-7.7,1.9-12.4,1.9-12.4l1,12.4l-1.7-3.1
					l23,12.4l-7.3,1.2l14.6-20.4c1.5-2.2,4.1-5.6,7.6-10.1l19-24.5l-4.9,31.1c-2.3,14.6-6.4,38-11,63.2l-0.3,1.5l-0.9,1.5
					c-27.4,46.5-59,99.3-59,99.3l-15.5,24.6l-7.7,12.3l-1.9,3.1l-0.5,0.8c-0.1,0.1-0.1,0.2-0.2,0.3l-0.1,0.2c-0.2,0.3-0.4,0.6-0.5,1
					c-0.6,1.3-1.1,2.7-1.2,4.2c-0.3,2.9,0.4,6,2.1,8.5c1.7,2.5,4.3,4.5,7.2,5.4c0.4,0.1,0.7,0.3,1.1,0.3c0.4,0.1,0.8,0.1,1.2,0.2
					c0.8,0,1.6,0.1,2.4,0.1c1.6-0.1,3.2-0.4,4.6-1c1.5-0.6,2.8-1.5,4-2.5c0.5-0.6,1.2-1.1,1.6-1.8l0.4-0.5l0.2-0.3l0.3-0.4l1-1.5
					l64.1-96.9l10.4-16.2l3.4-5.2l3.5,5l24.7,35.2l-6.4,0.7l62.4-141.4l0.9,2.7l-80.5-49.8l1.4-0.1l-14.1,10.9l-0.6,0.5l-0.6-0.4
					l-23.9-15.2l1.1-0.3L1341.7,651.5z"/>
			</g>
		</g>
	</g>
	<path fill="#F8BBD0" stroke="#F8BBD0" stroke-miterlimit="10" d="M1388.2,587.6l116.6,35.3c6.7,2,10.9,8.7,9.8,15.6l-7.1,45.9
		l64.1,146.9c10.7,24.4-6.1,52.1-32.7,53.9l-156.6,10.8c-3.8,0.3-7.5-0.7-10.7-2.7l0,0c-7.9-5-10.6-15.3-6.1-23.5l95-173.4l-7-54
		l-72.2-38.2c-6.4-3.4-6.5-12.5-0.2-16v0C1383.3,587.2,1385.8,586.9,1388.2,587.6z"/>
</g>
<g id="Layer_2">
	<g>
		<g>
			<g>
				<g>
					<path fill="#3D3D3C" d="M1461.3,538.6c-1.9-2.3-4.2-4.3-6.7-6c-2.5-1.7-5.2-3-8.1-4c-5.8-1.8-12-2.3-18-0.8
						c-8.1,2-15.4,7.2-19.9,14.2c-4.4,7.5-5.5,16.6-3.4,24.7c1.3,6.6,4.6,13,9.7,17.6c1.1,1.1,2.4,2,3.7,2.9
						c1.3,0.8,2.6,1.7,4.1,2.3c1.4,0.7,2.9,1.2,4.3,1.7c1.5,0.4,3,0.9,4.6,1c4.1,0.2,8.1-0.4,11.8-1.7c3.9-0.4,7.8-1.5,11.4-3.4
						c4.4-3,8-7,10.5-11.7c2.5-4.7,3.8-10,3.8-15.3c-0.3,3.4-1.2,6.8-2.4,9.8c-1.3,3.1-3.1,5.9-5.3,8.3c-4.3,4.9-10.1,8.2-16.1,9.5
						c-8.5,2.6-18.2,1.2-25.5-4.1c-2.5-1.6-4.7-3.7-6.6-6.1c-1.9-2.4-3.4-5-4.5-7.9c-2.2-5.7-2.5-12.1-0.9-18.1
						c0.9-3.9,2.6-7.8,5-11.2c2.4-3.4,5.6-6.3,9.3-8.5c7.6-3.2,16.2-3.1,23.4-0.1c6,1.7,11.7,5.3,15.6,10.4c2,2.5,3.7,5.3,4.7,8.4
						c1.1,3.1,1.7,6.3,1.9,9.6c0.5-6.8-1.1-14.1-5.2-20.2"/>
				</g>
			</g>
		</g>
		<g>
			<g>
				<g>
					<path fill="#3D3D3C" d="M1531.1,555.1c-3.9-4.6-9-8.1-14.8-10c-5.7-1.9-12-2.2-18-0.8c-8.1,2-15.4,7.2-19.9,14.2
						c-4.4,7.5-5.5,16.6-3.4,24.7c1.3,6.6,4.6,13,9.7,17.6c1.1,1.1,2.4,2,3.7,2.9c1.3,0.8,2.6,1.7,4.1,2.3c1.4,0.7,2.9,1.2,4.3,1.7
						c1.5,0.4,3,0.9,4.6,1l1.5,0.1c0.5,0,1,0,1.5-0.1c1-0.1,2-0.1,3-0.3c2-0.3,3.9-0.8,5.7-1.4c3.9-0.4,7.8-1.5,11.4-3.4
						c2.2-1.5,4.2-3.2,6-5.2c0.9-1,1.7-2,2.5-3.1c0.8-1.1,1.5-2.2,2.1-3.4c2.5-4.7,3.8-10,3.8-15.3c-0.6,6.9-3.4,13.3-7.7,18.2
						c-4.3,4.9-10.1,8.2-16.1,9.5c-2.1,0.7-4.3,1.1-6.6,1.2c-1.1,0.1-2.2,0.1-3.3,0l-1.7-0.1l-1.7-0.2c-4.4-0.7-8.6-2.4-12.2-5
						c-2.5-1.6-4.7-3.7-6.6-6.1c-1.9-2.4-3.4-5-4.5-7.9c-2.2-5.7-2.5-12.1-0.9-18.1c0.9-4,2.6-7.8,5-11.2c2.4-3.4,5.6-6.3,9.3-8.5
						c7.6-3.2,16.2-3.1,23.4-0.1c6.1,1.6,11.6,5.3,15.6,10.3c4,5,6.4,11.4,6.6,18c0.6-6.9-1.2-14.1-5.2-20.2"/>
				</g>
			</g>
		</g>
		<g>
			<g>
				<g>
					<path fill="#3D3D3C" d="M1531,595.9c-0.4,0.5-0.9,1-1.3,1.5c-0.3,0.3-0.6,0.7-0.9,1l-0.1,0.1l-0.3,0.3l0.4-0.1l1.3-0.3l1.2-0.2
						l1-0.2l0.1,0l0.1,0l0,0l-0.2-0.6l0-0.7l-0.3-1.8c0.1,0.8,0.2,1.7,0.2,2.4l0.1,0.7l0.1-0.2l-0.9,0.2l-2.2,0.5l-0.4,0.1l0,0.1
						l0.7-0.9c0.4-0.3,0.7-0.7,1-1c0.5-0.6,1-1.3,1.4-1.9C1531.6,595.2,1531.4,595.6,1531,595.9"/>
				</g>
			</g>
		</g>
		<g>
			<g>
				<g>
					<path fill="#3D3D3C" d="M1564.6,586.8c1.2-1.7,2.3-3.6,3-5.6c0.7-2,1.2-4.1,1.3-6.3c0.1-0.5,0-1.1,0-1.6c0-0.5,0-1.1-0.1-1.6
						l-0.2-1.6l-0.2-1.5c-0.4-2.1-1-4.2-1.9-6.2c-2.7-5.3-7.5-9.5-13.2-11.2c-3-0.8-6.1-0.9-9.1-0.4c-1.5,0.3-2.9,0.6-4.3,1l-4.2,1
						l-7.2,1.2l-1.4,0.2l1,1c1.5,1.6,2.9,3.3,4,5.2c2.2,3.5,3.7,7.4,4.4,11.5c0.7,2.6,1.2,5.3,1.2,8.1c-0.6,2.7-1.6,5.3-2.9,7.7
						c-0.3,0.7-0.6,1.3-0.9,2l-0.2,0.5l0.3,0.4l4.8,6.5l0.3,0.4l0.5-0.1l11.1-2.1l-11.3,1.1l0.1,0.1l-4.2-7l0.1,0.9
						c1.5-2.6,2.6-5.3,3.4-8.3c1.2-7,0-14.5-3.4-20.8c-1.6-2.8-3.6-5.4-5.9-7.6l-0.7,2.3l8.8-1.9l4.4-1c1.5-0.3,2.9-0.5,4.3-0.6
						c5.7-0.5,11.7,1.8,16,6.1c1.7,2.4,2.9,5,3.5,7.8c0.1,0.7,0.2,1.4,0.3,2.1c0.1,0.7,0.2,1.4,0.2,2.1c0,0.7,0.1,1.4,0.1,2.1
						c-0.1,0.7,0,1.4-0.1,2c0.1,4.4-1.6,8.9-4.4,12.4c-2.8,3.6-6.9,6.1-11.5,7.2c4.8-0.5,9.6-2.8,13.2-6.6"/>
				</g>
			</g>
		</g>
		<g>
			<g>
				<g>
					<path fill="#3D3D3C" d="M1565.4,629.8l-18.9-27.1l-10.1-13.9l-2.2-3l-1.6,3.4c-0.7,1.5-1.6,3-2.5,4.3l-0.1,0.1l-0.5,0.9
						l0.1,0.7l4.5,22.9l2.3,19l2.4,17.2l2.9,11c0,1,0,1.9,0.1,2.9c0.1,1,0.6,1.9,1.4,2.7c0.8,0.7,1.8,1.2,3,1.3
						c1.1,0.1,2.3-0.2,3.3-0.9l21-20.9l-14.7,12.3l-7.3,6.2c-0.1,0.1-0.3,0.3-0.4,0.4c-0.1,0.1-0.2,0.2-0.3,0.2
						c-0.2,0.1-0.5,0.2-0.7,0.3c-0.5,0.1-1,0-1.4-0.1c-0.9-0.4-1.4-1.2-1.4-2l-3.8-27.4l-6.2-36.8l-1.8-8.3l-0.1,0.4
						c1-1.6,1.9-3.3,2.6-5.1l-0.3,0l6.6,7.8l12.2,20.1l11.8,15.1l2.9,3.8l1.5,1.9c0.5,0.6,1,1.2,1.3,1.9c0.7,1.3,1,2.9,0.8,4.4
						c-0.2,1.5-0.9,3-1.9,4.1c1.2-1.1,2.2-2.6,2.5-4.2c0.4-1.7,0.2-3.5-0.6-5.2c-0.4-0.8-0.9-1.5-1.3-2.2l-1.3-2.1l-2.6-4.3"/>
				</g>
			</g>
		</g>
		<g>
			<g>
				<g>
					<path fill="#3D3D3C" d="M1564.9,809.3c-2.6-9.6-5.4-19-8.5-28.4c-3.2-9.4-6.6-18.7-10.4-27.8c-3.7-9.2-7.8-18.2-12.2-27.2
						c-2.1-4.5-4.5-8.9-6.7-13.3l-6.8-13l-7-12.6l-2.5-4.6l-5.2,0.7l-46.1,5.9l-7.7,1l1,7.7l0.2,1.4l1.5-5.7l-10.9,14.3l-5.8,8.6
						c-2,2.9-3.9,5.8-5.8,8.8c-3.8,5.9-7.5,11.9-11.1,17.9c-7.2,12.1-13.8,24.5-19.9,37.1c-11.4,19.7-21.4,40.3-30.1,61.3
						l-11.5,28.6l-1.4,3.6l-0.7,1.8c-0.1,0.2-0.3,0.8-0.4,1.3c-0.2,0.5-0.2,1-0.3,1.5c-0.3,2,0,4.1,0.7,6c0.8,1.9,2,3.5,3.6,4.8
						c0.4,0.3,0.8,0.6,1.3,0.8c0.5,0.2,0.9,0.5,1.4,0.7c0.5,0.2,1,0.4,1.4,0.5l0.7,0.2l0.5,0.1l3.8,0.7l7.6,1.4l10.1,0.6
						c3.4,0.2,6.8,0.3,10.1,0.5c3.4,0.2,6.8,0.2,10.1,0.3c3.4,0.1,6.7,0,10.1,0c13.1,2.9,26.5,5.1,40,6.6c8.8-0.1,17.7-0.4,26.5-1.2
						c8.8-0.6,17.6-1.8,26.3-3c4.4-0.7,8.7-1.4,13.1-2.3c2.2-0.4,4.3-0.8,6.5-1.3l6.5-1.4c2.2-0.5,4.3-1,6.5-1.5l6.4-1.6l12.7-3.3
						c-11.2,1.9-22.5,3.9-33.8,5.2c-11.3,1.3-22.7,2-34,2.3c-22.6,0.5-45.1-1.2-67-4.8l-6-0.5c-2-0.2-4-0.4-6-0.6
						c-2-0.2-4-0.4-6-0.7l-6-0.8c-2-0.3-4-0.6-6-0.9l-6-1l-12.1-2.2l-11.8-2.1c0.3,0.1,0.5,0.4,0.4,0.7l9.1-22.8l5.8-15.6
						c1.9-5.1,3.8-10.2,5.9-15.3c4.1-10.1,8.5-20.1,13.3-29.9c9.5-19.7,20.4-38.7,32.5-57c4.2-6.9,8.5-13.7,13-20.5l13.4-20.4
						l0.2-0.3l-0.1-0.3l-0.3-1.4l-0.6,0.8l35.6-7.1l10.3-0.4l0.7,0l0.2,0.5l7.4,16.7c2.5,5.6,5,11.2,7.4,16.7
						c4.8,11.2,9.1,22.5,12.9,34c9.6,20.2,17.7,41.2,24.3,62.7c3.3,10.8,6.1,21.7,8.6,32.7l1.9,8.3l0.5,2.1c0.1,0.7,0.3,1.4,0.4,2
						c0.3,1.3,0.3,2.6,0.1,3.9c-0.3,2.6-1.4,5.1-3,7.2c-0.9,1-1.9,1.9-3,2.7c-1.1,0.7-2.4,1.3-3.7,1.7c2.8-0.5,5.5-1.9,7.6-4
						c2.1-2.1,3.6-5,4.2-8.1c0.3-1.5,0.3-3.2,0.1-4.7l-0.5-4.4l-0.9-8.9c-1.3-11.9-3-23.7-5.2-35.5"/>
				</g>
			</g>
		</g>
		<g>
			<g>
				<g>
					<path fill="#3D3D3C" d="M1518.8,655.9c1.1-4.9,1-10.1-0.2-15c-1.3-4.9-3.7-9.6-7.1-13.4c-3.4-3.9-7.7-6.9-12.5-8.8
						c-0.6-0.2-1.2-0.5-1.8-0.7l-1.6-0.6l-3.3-1.1l-6.6-2.3l-36.3-11.7l-38.4-10l-15.3-5.2l-3.8-1.3l-1.9-0.7
						c-0.8-0.2-1.5-0.4-2.3-0.5c-1.6-0.2-3.2-0.1-4.7,0.4c-1.5,0.4-3,1.2-4.2,2.2c-2.3,1.8-3.8,4.5-4.3,7.4
						c-0.5,2.9,0.1,5.9,1.6,8.4c0.4,0.6,0.8,1.2,1.3,1.7c0.2,0.3,0.5,0.5,0.7,0.8c0.3,0.3,0.5,0.5,0.8,0.7c0.6,0.5,1.2,0.8,1.8,1.2
						l1.6,0.9l6.5,3.4l18,6.8l15.9,10.8l44.2,23l-54.7-34.7l-20.8-10.8l-5.2-2.7l-2.6-1.3l-0.3-0.2l-0.2-0.1
						c-0.1-0.1-0.3-0.2-0.4-0.3c-0.3-0.2-0.5-0.4-0.7-0.6c-2-1.7-2.7-4.5-1.9-6.9c0.4-1.6,1.6-3.1,3.1-4c1.5-0.9,3.4-1.2,5.1-0.7
						l15,4.4l30.3,8.9l39.9,10l18.3,7.7l4.6,1.9c1.4,0.7,2.8,1.4,4.1,2.3c2.6,1.7,4.9,3.9,6.7,6.3c3.5,3.5,5.9,8,7.1,12.9
						c0.6,2.4,0.8,5,0.7,7.5c0,1.3-0.2,2.5-0.4,3.8c-0.1,0.6-0.3,1.2-0.4,1.9l-0.5,2l-7.6,31.3l0,0.1l0,0.1l0,0.1l0-0.1l0-0.1l0-0.1
						l11.8-31.6"/>
				</g>
			</g>
		</g>
		<g>
			<g>
				<g>
					<polyline fill="#3D3D3C" points="1453.6,649.1 1454.7,658.5 1455.5,664.9 1456.8,671.5 1457.4,676.9 1458.1,681.9 1458.9,685 
						1458.9,688.3 1460.1,696.7 1459.6,685.7 1458.5,677.8 1456.8,667.2 1455.4,660.4 1455.1,653.7 1453.3,642.9 1453.6,648.6 					
						"/>
				</g>
			</g>
		</g>
		<g>
			<g>
				<g>
					<path fill="#3D3D3C" d="M1353.2,615l-17.7,33.4l-0.1,0.2l-0.1,0.3c-1.8,4.4-2.2,9.5-1.1,14.2c1.1,4.7,3.7,9.1,7.5,12.2
						c1.9,1.6,3.9,2.9,6.2,3.8c2.3,0.9,4.7,1.6,7.1,1.8c2.5,0.2,4.9,0,7.4-0.5c1.2-0.3,2.4-0.6,3.5-1.1l2.5-1.1
						c0.8-0.4,1.4-0.6,2.7-1.2c1.1-0.5,2.2-1.2,3.2-1.9c2-1.4,3.9-3.2,5.4-5.2c0.7-1,1.5-2.1,2-3.1l1.3-2.3l2.5-4.6l10.1-18.3
						l2.2-4.3l-15-4.2l-1.3,19.5l-0.6,9.8l-0.3,4.9l-0.2,2.2l-0.2,2.2c-1.4,11.9-5,23.6-10.8,34.2l-37.6,77.6l-35.2,60.8l-3.9,7.1
						c-1.4,2.8-2.4,5.6-3.1,8.5c-0.6,3-1,6-0.7,9.3c0.2,1.6,0.5,3.3,1,4.9c0.6,1.6,1.4,3.3,2.5,4.7c1.1,1.4,2.5,2.7,4,3.7
						c1.5,0.9,3.1,1.7,4.6,2.2c0.8,0.3,1.6,0.4,2.4,0.6c0.8,0.1,1.6,0.3,2.3,0.4c0.8,0.1,1.5,0.2,2.3,0.2c0.8,0,1.5,0.1,2.3,0
						c3.5-0.1,6.6-1.1,9.4-2.4c2.8-1.3,5.2-2.9,7.6-4.6c5.4-5.2,9.6-10.9,13.6-16.8c3.9-5.9,7.3-11.9,10.6-18.1
						c9.2-10.4,17.8-21.5,26-32.8c6.5-11.6,12.7-23.3,18.6-35.1c5.9-11.9,11.6-23.8,17-35.9l-8.2-1.5l1.8,29.4l0.7-29.6l3.3,0.6
						c-9,16.3-18.6,32.2-28.5,47.8c-10,15.6-20.4,30.8-31.6,45.2c-4.5,7-9.3,13.8-14.4,20.2c-5.1,6.3-10.5,12.4-16.3,16.9
						c-1.4,1-2.9,2.1-4.3,2.8c-1.4,0.7-2.8,1.3-3.9,1.6c-0.3,0-0.6,0.1-0.8,0.1c-0.3,0-0.5,0-0.7,0.1c-0.1,0-0.3,0-0.5,0l-0.6,0
						c-0.4,0-0.8,0-1.2-0.1c-1.5-0.1-2.8-0.4-3.7-0.9c-0.9-0.4-1.5-0.8-1.9-1.4c-0.4-0.5-0.7-1.3-1-2.4c-0.4-2.2-0.1-5.6,1-8.6
						c0.3-1,0.7-2.1,1.1-3l0.3-0.7l0.5-1l1-1.9l4-7.6l7.9-15.2l15.9-30.4l31.8-60.9l9.5-20.3c1.6-3.4,3.2-6.7,4.8-10.2
						c1.5-3.5,2.9-7,4-10.6c2.3-7.2,3.7-14.6,4.3-22c0.3-3.7,0.4-7.4,0.4-11.1l0-11.2l3.1-20.6l0.1,0l-17.7,27.7l-0.5,0.8
						c-0.2,0.2-0.3,0.5-0.5,0.7c-0.3,0.4-0.7,0.9-1.1,1.3c-0.8,0.8-1.7,1.5-2.6,2c-0.9,0.6-1.9,1-3,1.3l-1.9,0.7l-1,0.3l-0.5,0.2
						c-0.2,0.1-0.3,0.1-0.4,0.1c-4,1.2-8.2,0.2-11-2.2c-2.2-1.3-4-3.4-4.9-5.8c-0.9-2.5-1-5.3-0.1-7.9l-0.2,0.4l18.7-40.5l0.1-0.2
						l0,0c0.9-2.6,2.8-4.8,5.4-6.1c2.5-1.3,5.6-1.6,8.4-0.7c2.8,0.9,5.3,2.9,6.7,5.6c1.4,2.7,1.8,5.9,0.9,8.9l0.1-0.2l-11.9,28
						l15.2-26.5l0.1-0.2c1.6-3.7,1.6-8.2,0-12.2c-1.6-4-4.8-7.4-9-9.2c-4.1-1.9-9.1-2-13.5-0.3c-4.4,1.6-8.3,5.2-10.4,9.7l0.2-0.5
						l-0.2,0.4"/>
				</g>
			</g>
		</g>
		<g>
			<g>
				<g>
					<polyline fill="#3D3D3C" points="1432.7,650.1 1427.8,672.6 1424.7,688 1424.3,690.4 1424.9,689.5 1413.9,698 1402.8,705.3 
						1392.8,712.2 1386.9,717.4 1379.8,721 1362.9,732.6 1386.1,719.5 1402.1,708.6 1423.1,693.4 1426,691.1 1426.2,690.9 
						1426.2,690.8 1427.9,677.5 1432.5,661.8 1436.8,635.6 1432.9,649 					"/>
				</g>
			</g>
		</g>
		<g>
			<g>
				<g>
					<polyline fill="#3D3D3C" points="1436.5,723.9 1434.6,717.3 1433.2,712.8 1431.4,708.2 1430.3,704.4 1429.2,700.9 
						1428.2,698.8 1427.8,696.4 1425.9,690.6 1427.7,698.4 1429.4,703.9 1431.9,711.3 1433.8,716 1434.9,720.8 1437.6,728.3 
						1436.6,724.3 					"/>
				</g>
			</g>
		</g>
	</g>
</g>
</svg>
