<?xml version="1.0" encoding="utf-8"?>
<!-- Generator: Adobe Illustrator 23.0.0, SVG Export Plug-In . SVG Version: 6.00 Build 0)  -->
<svg version="1.1" baseProfile="tiny" id="Layer_1" xmlns="http://www.w3.org/2000/svg" xmlns:xlink="http://www.w3.org/1999/xlink"
	 x="0px" y="0px" viewBox="0 0 237 1080" xml:space="preserve">
<g>
	<path d="M230.5,1025.5H56.1v-36.4c0-11.6,1.1-21.2,3.1-28.7c2.1-7.5,5.6-13.4,10.4-17.7c4.8-4.3,10.6-7.3,17.3-8.9
		c6.7-1.6,15.3-2.5,25.7-2.5h57.2c6.2,0,11.6,0.2,16.2,0.6c4.6,0.4,9.1,1.1,13.6,2.2c4.4,1.1,8.2,2.5,11.2,4.4
		c3.1,1.8,5.9,4.2,8.6,7.1c2.6,2.9,4.7,6.4,6.3,10.5c1.6,4.1,2.7,8.9,3.6,14.4c0.8,5.5,1.3,11.9,1.3,19V1025.5z M205.8,988.9
		c0-3.4,0-6-0.1-7.9c-0.1-1.9-0.3-3.9-0.7-5.8c-0.4-1.9-0.9-3.4-1.6-4.3c-0.7-0.9-1.7-1.7-3-2.5c-1.3-0.8-2.8-1.3-4.6-1.5
		c-1.8-0.2-4-0.3-6.6-0.3H95.2c-5.7,0-9.6,1.7-11.4,5.1c-1.9,3.4-2.8,9.2-2.9,17.2H205.8z"/>
	<path d="M173.1,915h-58.6c-41.2,0-61.8-17-61.8-51c0-34,20.6-51.1,61.8-51.1h57.7c7,0,13.4,0.5,19.3,1.6c5.9,1,11.5,2.8,16.8,5.3
		c5.3,2.5,9.8,5.7,13.5,9.5c3.7,3.8,6.6,8.7,8.8,14.6c2.1,5.9,3.2,12.6,3.2,20.2c0,7.5-1.1,14.2-3.1,20.1
		c-2.1,5.9-4.9,10.7-8.5,14.5c-3.6,3.8-8,7-13.2,9.4c-5.2,2.5-10.7,4.3-16.6,5.3C186.5,914.4,180.1,915,173.1,915z M181.1,848.2
		h-75.4c-17.2,0-25.8,5.3-25.8,15.8c0,3.2,0.8,5.8,2.4,8c1.6,2.2,3.7,3.8,6.5,4.8c2.7,1,5.5,1.8,8.1,2.2c2.7,0.4,5.6,0.6,8.8,0.6
		h75.4c17.1,0,25.7-5.2,25.7-15.7C206.8,853.5,198.2,848.2,181.1,848.2z"/>
	<path d="M230.5,794.4H56.1v-38.4c0-8.7,0.8-16.4,2.5-23c1.6-6.6,4.2-12.4,7.8-17.4c3.5-5,8.3-8.8,14.2-11.3
		c6-2.6,13.1-3.9,21.5-3.9c3.6,0,6.8,0.1,9.7,0.4c2.8,0.3,6.1,0.9,9.7,1.8c3.6,0.9,6.9,2.2,9.7,3.8c2.8,1.6,5.6,3.9,8.3,7
		c2.7,3,5,6.6,6.8,10.8c33.2-10.5,61.3-19.6,84.3-27.3v36.5l-80.3,20v5.8h80.3V794.4z M128.7,759.2v-10.1c0-2.7-0.9-5-2.7-7
		c-1.8-1.9-4.1-3.3-6.9-4.2c-2.8-0.9-5.3-1.5-7.7-1.8c-2.3-0.4-4.5-0.5-6.6-0.5c-2.1,0-4.2,0.1-6.4,0.4c-2.2,0.3-4.6,0.8-7.3,1.6
		c-2.7,0.7-4.9,2-6.6,3.7c-1.7,1.7-2.6,3.8-2.6,6.2v11.7H128.7z"/>
	<path d="M230.5,685.7H56.1v-35.3h174.4V685.7z"/>
	<path d="M180.6,635.7l-6.9-35.8c3.6,0,6.7-0.1,9.4-0.2c2.7-0.1,5.7-0.5,8.9-1c3.2-0.5,5.8-1.3,7.8-2.2c2-0.9,3.7-2.3,5.1-4
		c1.4-1.7,2.1-3.7,2.1-6.1c0-7-4.5-10.5-13.4-10.5c-12.2,0-24.3,6.9-36.4,20.6l-9.3,10.9c-2.9,3.5-5.3,6.3-7.3,8.3
		c-1.9,2.1-4.6,4.5-7.8,7.3s-6.5,5-9.5,6.6c-3.1,1.6-6.8,2.9-11.1,4.1c-4.3,1.1-8.9,1.7-13.8,1.7c-14.1,0-25.3-4.5-33.6-13.5
		c-8.2-9-12.4-20.9-12.4-35.8c0-12.3,4.4-22.8,13.2-31.5c8.8-8.7,19.4-13,31.8-13l1.3,0.1c0.8,0,1.8,0,2.9,0l5,36.4
		c-0.7,0-1.8,0-3.3-0.1c-1.5-0.1-2.8-0.1-3.7-0.1c-2.3,0-4.6,0.2-6.7,0.5c-2.1,0.3-4.3,0.9-6.4,1.6c-2.1,0.7-3.8,1.9-5.1,3.4
		c-1.3,1.6-1.9,3.4-1.9,5.6c0,3.9,1.5,6.8,4.6,8.7c3,1.9,6.6,2.9,10.8,2.9c3.6,0,7-0.6,10.2-1.7c3.2-1.1,6.1-2.8,8.9-5.1
		c2.7-2.3,5-4.4,6.8-6.3c1.8-1.9,4-4.5,6.6-7.8c2.6-3.2,4.5-5.5,5.8-6.9c4.4-5,8.5-9.2,12.4-12.6c3.8-3.4,8.2-6.7,13-9.7
		c4.8-3,10.1-5.3,15.7-6.8c5.6-1.5,11.7-2.3,18.2-2.3c12.2,0,22.2,4.4,30,13.1c7.8,8.7,11.7,19.3,11.7,31.8c0,8.1-1.5,15.2-4.5,21.5
		c-3,6.3-7,11.3-12.1,15.2c-5.1,3.8-10.8,6.8-17,8.9C194.4,634.2,187.7,635.4,180.6,635.7z"/>
	<path d="M230.5,488H56.1v-35.3h150.2V418h24.2V488z"/>
	<path d="M230.5,406.8H56.1V334h24.2v37.5h47.5V345h24.8v26.5h53.7V334h24.2V406.8z"/>
	<path d="M230.5,321.4H56V296l91.3-38.3H56v-29.3h174.5v24.4l-96.8,38.2h96.8V321.4z"/>
	<path d="M230.5,207.8H56.1v-35.3h174.4V207.8z"/>
	<path d="M42.8,114.2L0,101V67.6l42.8,26.8V114.2z M172.3,154h-57.7c-41.2,0-61.8-16.9-61.8-50.6c0-7.1,1-13.4,2.9-18.9
		c1.9-5.5,4.5-10.2,7.9-13.9c3.4-3.7,7.5-6.8,12.4-9.3c4.9-2.4,10.2-4.2,16-5.2c5.7-1.1,12.1-1.6,19-1.6h15v34.7h-16.1
		c-3.2,0-5.9,0.1-8.2,0.2c-2.3,0.1-4.9,0.5-7.8,1c-2.9,0.5-5.3,1.3-7.2,2.2c-1.8,0.9-3.4,2.3-4.7,4.2c-1.3,1.8-1.9,4.1-1.9,6.6
		c0,10.2,8.6,15.3,25.8,15.3H181c17.1,0,25.7-5.1,25.7-15.3c0-3-0.9-5.6-2.6-7.7c-1.7-2.1-4.2-3.6-7.4-4.5c-3.2-0.9-6.3-1.5-9.4-1.8
		c-3.1-0.3-6.6-0.5-10.5-0.5h-17.9V54.5h14.7c6.7,0.1,12.8,0.7,18.4,1.6s11.1,2.6,16.4,4.9c5.3,2.3,9.8,5.3,13.4,8.9
		c3.7,3.6,6.6,8.2,8.8,13.9c2.2,5.7,3.3,12.2,3.3,19.6c0,7.6-1.1,14.3-3.2,20.1c-2.2,5.8-5.1,10.7-8.7,14.4
		c-3.6,3.8-8.1,6.9-13.5,9.3c-5.3,2.5-10.9,4.2-16.8,5.2C185.8,153.5,179.3,154,172.3,154z"/>
</g>
</svg>
