<?xml version="1.0" encoding="utf-8"?>
<!-- Generator: Adobe Illustrator 23.0.0, SVG Export Plug-In . SVG Version: 6.00 Build 0)  -->
<svg version="1.1" baseProfile="tiny" id="Layer_1" xmlns="http://www.w3.org/2000/svg" xmlns:xlink="http://www.w3.org/1999/xlink"
	 x="0px" y="0px" viewBox="0 0 237 1080" xml:space="preserve">
<g>
	<path fill="#212121" d="M236.9,1080H4.8v-96.9H37v49.9h63.2v-35.3h33v35.3h71.5v-49.9h32.2V1080z"/>
	<path fill="#212121" d="M236.9,966.4H4.8v-48.5c0-15.5,1.4-28.2,4.2-38.2c2.8-10,7.4-17.9,13.8-23.6c6.4-5.7,14.1-9.7,23-11.9
		s20.3-3.3,34.2-3.3h76.1c8.3,0,15.5,0.3,21.6,0.8c6.1,0.5,12.2,1.5,18.1,2.9c5.9,1.4,10.9,3.4,15,5.8c4.1,2.5,7.9,5.6,11.4,9.5
		s6.3,8.6,8.4,14s3.7,11.9,4.8,19.2c1.1,7.4,1.7,15.8,1.7,25.3V966.4z M204.1,917.6c0-4.5-0.1-8-0.2-10.6s-0.5-5.2-1-7.7
		s-1.2-4.5-2.1-5.7c-0.9-1.2-2.2-2.3-3.9-3.4c-1.7-1-3.8-1.7-6.1-2s-5.3-0.5-8.8-0.5h-125c-7.7,0-12.7,2.3-15.2,6.8
		s-3.8,12.2-3.9,23H204.1z"/>
	<path fill="#212121" d="M236.9,816.2H4.8v-47h232.2V816.2z"/>
	<path fill="#212121" d="M170.5,749.7l-9.2-47.6c4.7,0,8.9-0.1,12.5-0.3c3.6-0.2,7.5-0.6,11.8-1.3c4.3-0.7,7.7-1.7,10.4-3
		c2.7-1.2,5-3,6.8-5.3c1.8-2.3,2.8-5,2.8-8.1c0-9.3-5.9-13.9-17.8-13.9c-16.3,0-32.4,9.2-48.5,27.5l-12.4,14.6
		c-3.9,4.6-7.1,8.3-9.7,11.1c-2.6,2.8-6.1,6-10.4,9.8c-4.4,3.7-8.6,6.7-12.7,8.8c-4.1,2.1-9,3.9-14.8,5.4
		c-5.8,1.5-11.9,2.2-18.3,2.2c-18.8,0-33.7-6-44.7-17.9S0,703.8,0,684c0-16.4,5.8-30.4,17.5-41.9c11.7-11.5,25.8-17.3,42.3-17.3
		l1.7,0.1c1.1,0,2.4,0,3.9,0l6.7,48.5c-0.9,0-2.4,0-4.5-0.2c-2-0.1-3.7-0.2-5-0.2c-3.1,0-6.1,0.2-8.9,0.6c-2.8,0.4-5.7,1.2-8.5,2.1
		c-2.8,1-5.1,2.5-6.8,4.6c-1.7,2.1-2.5,4.6-2.5,7.5c0,5.2,2,9,6.1,11.6s8.8,3.9,14.3,3.9c4.8,0,9.3-0.7,13.5-2.2
		c4.2-1.5,8.1-3.8,11.8-6.8c3.7-3.1,6.7-5.9,9.1-8.5c2.4-2.6,5.4-6,8.8-10.3c3.5-4.3,6-7.4,7.7-9.2c5.8-6.6,11.3-12.2,16.4-16.8
		c5.1-4.6,10.9-8.9,17.3-12.9c6.4-4,13.4-7.1,20.9-9.1c7.5-2,15.6-3.1,24.2-3.1c16.3,0,29.6,5.8,39.9,17.4
		c10.4,11.6,15.5,25.7,15.5,42.3c0,10.7-2,20.3-5.9,28.6c-4,8.3-9.3,15.1-16.1,20.2c-6.8,5.1-14.3,9-22.6,11.8
		C188.8,747.6,180,749.2,170.5,749.7z"/>
	<path fill="#212121" d="M236.9,565.6L4.8,515.4v-41.5l232.2-50v46.3l-49.7,9.5V510l49.7,9V565.6z M158.4,506.8v-24l-86.2,11.7
		L158.4,506.8z"/>
	<path fill="#212121" d="M241.3,422.7h-33c0.2-11.4-1.5-18.9-5.1-22.7c-3.6-3.8-11-5.7-22.4-5.7H4.8v-47h176.5
		c8.5,0,15.8,0.4,21.7,1.2c6,0.8,11.5,2.3,16.6,4.6c5.1,2.2,9.2,5.3,12.2,9.2s5.4,8.9,7,15s2.5,13.5,2.5,22.2V422.7z"/>
	<path fill="#212121" d="M236.9,332.4L4.8,282.2v-41.5l232.2-50v46.3l-49.7,9.5v30.3l49.7,9V332.4z M158.4,273.6v-24l-86.2,11.7
		L158.4,273.6z"/>
	<path fill="#212121" d="M236.9,179.2h-29.4L37.1,117.9v54.2H4.9V72h29.5l170.3,61.5V72h32.2V179.2z"/>
	<path fill="#212121" d="M236.9,47H4.8V0h232.2V47z"/>
</g>
</svg>
