<?xml version="1.0" encoding="utf-8"?>
<!-- Generator: Adobe Illustrator 23.0.0, SVG Export Plug-In . SVG Version: 6.00 Build 0)  -->
<svg version="1.1" id="Layer_1" xmlns="http://www.w3.org/2000/svg" xmlns:xlink="http://www.w3.org/1999/xlink" x="0px" y="0px"
	 viewBox="0 0 189 1080" enable-background="new 0 0 189 1080" xml:space="preserve">
<g>
	<path fill="#212121" d="M185.7,1080H3.7v-38c0-12.1,1.1-22.1,3.3-30c2.2-7.9,5.8-14,10.8-18.5c5-4.5,11-7.6,18-9.3
		c7-1.7,15.9-2.6,26.8-2.6h59.6c6.5,0,12.1,0.2,16.9,0.6c4.8,0.4,9.5,1.2,14.2,2.3c4.6,1.1,8.5,2.6,11.7,4.5
		c3.2,1.9,6.2,4.4,8.9,7.4c2.8,3,5,6.7,6.6,11c1.6,4.3,2.9,9.3,3.7,15.1c0.9,5.8,1.3,12.4,1.3,19.9V1080z M159.9,1041.8
		c0-3.5-0.1-6.3-0.2-8.3c-0.1-2-0.4-4-0.8-6.1c-0.4-2-1-3.5-1.7-4.4c-0.7-0.9-1.7-1.8-3.1-2.6c-1.3-0.8-2.9-1.3-4.8-1.6
		c-1.9-0.2-4.2-0.4-6.9-0.4h-98c-6,0-10,1.8-11.9,5.4c-2,3.6-3,9.6-3,18H159.9z"/>
	<path fill="#212121" d="M125.9,964.6H64.7c-43,0-64.5-17.7-64.5-53.2c0-35.5,21.5-53.3,64.5-53.3H125c7.3,0,14,0.5,20.2,1.6
		c6.2,1.1,12,2.9,17.5,5.5c5.5,2.6,10.2,5.9,14.1,9.9c3.9,4,6.9,9.1,9.1,15.2c2.2,6.1,3.3,13.1,3.3,21c0,7.8-1.1,14.8-3.3,20.9
		c-2.2,6.1-5.2,11.2-8.9,15.2c-3.7,4-8.3,7.3-13.7,9.9c-5.4,2.6-11.2,4.4-17.3,5.6C139.8,964.1,133.1,964.6,125.9,964.6z M134.2,895
		H55.5c-17.9,0-26.9,5.5-26.9,16.5c0,3.3,0.8,6.1,2.5,8.4c1.7,2.3,3.9,4,6.8,5.1c2.9,1.1,5.7,1.8,8.5,2.3c2.8,0.4,5.8,0.7,9.1,0.7
		h78.7c17.9,0,26.8-5.5,26.8-16.4C160.9,900.5,152,895,134.2,895z"/>
	<path fill="#212121" d="M185.7,838.9H3.7v-40c0-9.1,0.9-17.1,2.6-24c1.7-6.9,4.4-13,8.1-18.1c3.7-5.2,8.6-9.1,14.9-11.8
		c6.2-2.7,13.7-4,22.4-4c3.8,0,7.1,0.1,10.1,0.4c3,0.3,6.4,0.9,10.2,1.9c3.8,1,7.2,2.3,10.1,4c2.9,1.7,5.8,4.1,8.6,7.3
		c2.8,3.2,5.2,6.9,7.1,11.2c34.6-10.9,64-20.4,88-28.5v38.1L101.9,796v6.1h83.8V838.9z M79.5,802.1v-10.5c0-2.8-0.9-5.3-2.8-7.3
		c-1.9-2-4.3-3.5-7.2-4.4c-2.9-0.9-5.6-1.5-8-1.9c-2.4-0.4-4.7-0.6-6.9-0.6c-2.2,0-4.4,0.2-6.7,0.5c-2.3,0.3-4.8,0.8-7.6,1.6
		c-2.8,0.8-5.1,2.1-6.9,3.8c-1.8,1.8-2.7,4-2.7,6.5v12.2H79.5z"/>
	<path fill="#212121" d="M185.7,725.5H3.7v-36.8h182V725.5z"/>
	<path fill="#212121" d="M133.6,673.3l-7.2-37.3c3.7,0,7-0.1,9.8-0.2c2.8-0.1,5.9-0.5,9.3-1.1c3.3-0.6,6.1-1.3,8.2-2.3
		s3.9-2.4,5.4-4.1c1.4-1.8,2.2-3.9,2.2-6.3c0-7.3-4.7-10.9-14-10.9c-12.7,0-25.4,7.2-38,21.5L99.6,644c-3,3.6-5.6,6.5-7.6,8.7
		c-2,2.2-4.8,4.7-8.2,7.6c-3.4,2.9-6.8,5.2-10,6.9c-3.2,1.7-7.1,3.1-11.6,4.2c-4.5,1.2-9.3,1.8-14.4,1.8c-14.8,0-26.4-4.7-35-14.1
		C4.3,649.8,0,637.3,0,621.8C0,609,4.6,598,13.7,589c9.2-9,20.2-13.5,33.2-13.5l1.3,0.1c0.9,0,1.9,0,3,0l5.3,38
		c-0.7,0-1.9-0.1-3.5-0.2c-1.6-0.1-2.9-0.2-3.9-0.2c-2.4,0-4.8,0.2-7,0.5c-2.2,0.3-4.4,0.9-6.7,1.7c-2.2,0.8-4,2-5.3,3.6
		c-1.3,1.6-2,3.6-2,5.9c0,4,1.6,7.1,4.8,9.1c3.2,2,6.9,3,11.2,3c3.8,0,7.3-0.6,10.6-1.8c3.3-1.2,6.4-3,9.3-5.4
		c2.9-2.4,5.2-4.6,7.1-6.6c1.9-2,4.2-4.7,6.9-8.1c2.7-3.4,4.7-5.8,6-7.2c4.6-5.2,8.9-9.6,12.9-13.1c4-3.6,8.5-6.9,13.6-10.1
		c5.1-3.2,10.5-5.5,16.4-7.1c5.9-1.6,12.2-2.4,19-2.4c12.7,0,23.2,4.5,31.3,13.6c8.1,9.1,12.2,20.2,12.2,33.2
		c0,8.4-1.6,15.9-4.7,22.4c-3.1,6.5-7.3,11.8-12.6,15.8c-5.3,4-11.2,7.1-17.7,9.3C148,671.7,141.1,673,133.6,673.3z"/>
	<path fill="#212121" d="M159.2,415.8H188c0.4,2,0.6,4,0.6,6.1c0,7.9-5.1,17.1-15.2,27.7c4.9,4.4,8.7,9.5,11.3,15.5
		c2.6,5.9,3.9,12.2,3.9,18.8c0,12.3-4,21.9-12,28.9c-8,7-18.1,10.5-30.4,10.5c-17.7,0-35.1-7.7-52.3-23
		c-23.9,10.8-41.7,16.2-53.4,16.2c-11.6,0-21.2-3.3-28.9-9.9C4.1,500,0.3,490.9,0.3,479.4c0-11.9,3.5-21.5,10.5-28.9
		c7-7.4,16.4-11.1,28.2-11.1c11,0,21.1,2.5,30.4,7.4c9.3,5,18.5,11.9,27.8,20.9l31.5-18.9c-7.2-2.8-17.7-4.1-31.3-4.1v-27.9
		c12.3,0,22.4,1.1,30.1,3.4c7.7,2.3,15.6,6.2,23.7,11.7c2.2-2,4.1-4.4,5.5-7.3C158.1,421.8,159,418.8,159.2,415.8z M74,478.7
		c-4.8-3.3-10.2-6-16.2-8.1c-6-2.1-11.8-3.2-17.2-3.2c-3.9,0-7.4,0.8-10.4,2.3c-3,1.5-4.5,4-4.5,7.5c0,5.8,5.1,8.7,15.2,8.7
		C51.3,485.9,62.3,483.5,74,478.7z M154.1,468.7c-13.6,8.4-24.2,14.6-31.8,18.4c1.3,1.3,4,2.4,8.2,3.3c4.2,0.9,8.7,1.4,13.4,1.4
		c5.5,0,10.2-0.7,13.9-2.1s5.6-3.6,5.6-6.6C163.4,478.3,160.3,473.5,154.1,468.7z"/>
	<path fill="#212121" d="M185.7,357H3.7V281H29v39.1h49.5v-27.7h25.9v27.7h56V281h25.3V357z"/>
	<path fill="#212121" d="M185.7,267.9H3.7v-38c0-12.1,1.1-22.1,3.3-30c2.2-7.9,5.8-14,10.8-18.5c5-4.5,11-7.6,18-9.3
		c7-1.7,15.9-2.6,26.8-2.6h59.6c6.5,0,12.1,0.2,16.9,0.6c4.8,0.4,9.5,1.2,14.2,2.3c4.6,1.1,8.5,2.6,11.7,4.5
		c3.2,1.9,6.2,4.4,8.9,7.4c2.8,3,5,6.7,6.6,11c1.6,4.3,2.9,9.3,3.7,15.1c0.9,5.8,1.3,12.4,1.3,19.9V267.9z M159.9,229.7
		c0-3.5-0.1-6.3-0.2-8.3c-0.1-2-0.4-4-0.8-6.1c-0.4-2-1-3.5-1.7-4.4c-0.7-0.9-1.7-1.8-3.1-2.6c-1.3-0.8-2.9-1.3-4.8-1.6
		c-1.9-0.2-4.2-0.4-6.9-0.4h-98c-6,0-10,1.8-11.9,5.4c-2,3.6-3,9.6-3,18H159.9z"/>
	<path fill="#212121" d="M185.7,150.2H3.7v-36.8h182V150.2z"/>
	<path fill="#212121" d="M133.6,98.1l-7.2-37.3c3.7,0,7-0.1,9.8-0.2c2.8-0.1,5.9-0.5,9.3-1.1c3.3-0.6,6.1-1.3,8.2-2.3
		c2.1-1,3.9-2.4,5.4-4.1c1.4-1.8,2.2-3.9,2.2-6.3c0-7.3-4.7-10.9-14-10.9c-12.7,0-25.4,7.2-38,21.5l-9.7,11.4
		c-3,3.6-5.6,6.5-7.6,8.7c-2,2.2-4.8,4.7-8.2,7.6c-3.4,2.9-6.8,5.2-10,6.9c-3.2,1.7-7.1,3.1-11.6,4.2C57.8,97.4,53,98,47.9,98
		c-14.8,0-26.4-4.7-35-14.1C4.3,74.5,0,62.1,0,46.6c0-12.9,4.6-23.8,13.7-32.9C22.9,4.7,34,0.2,46.9,0.2l1.3,0.1c0.9,0,1.9,0,3,0
		l5.3,38c-0.7,0-1.9-0.1-3.5-0.2c-1.6-0.1-2.9-0.2-3.9-0.2c-2.4,0-4.8,0.2-7,0.5c-2.2,0.3-4.4,0.9-6.7,1.7c-2.2,0.8-4,2-5.3,3.6
		c-1.3,1.6-2,3.6-2,5.9c0,4,1.6,7.1,4.8,9.1c3.2,2,6.9,3,11.2,3c3.8,0,7.3-0.6,10.6-1.8c3.3-1.2,6.4-3,9.3-5.4
		c2.9-2.4,5.2-4.6,7.1-6.6c1.9-2,4.2-4.7,6.9-8.1c2.7-3.4,4.7-5.8,6-7.2c4.6-5.2,8.9-9.6,12.9-13.1c4-3.6,8.5-6.9,13.6-10.1
		c5.1-3.2,10.5-5.5,16.4-7.1c5.9-1.6,12.2-2.4,19-2.4c12.7,0,23.2,4.5,31.3,13.6c8.1,9.1,12.2,20.2,12.2,33.2
		c0,8.4-1.6,15.9-4.7,22.4c-3.1,6.5-7.3,11.8-12.6,15.8c-5.3,4-11.2,7.1-17.7,9.3C148,96.5,141.1,97.7,133.6,98.1z"/>
</g>
</svg>
