<?xml version="1.0" encoding="utf-8"?>
<!-- Generator: Adobe Illustrator 23.0.0, SVG Export Plug-In . SVG Version: 6.00 Build 0)  -->
<svg version="1.1" id="Layer_2" xmlns="http://www.w3.org/2000/svg" xmlns:xlink="http://www.w3.org/1999/xlink" x="0px" y="0px"
	 viewBox="0 0 600 400" style="enable-background:new 0 0 600 400;" xml:space="preserve">
<style type="text/css">
	.st0{fill:#212121;}
</style>
<g>
	<path class="st0" d="M200.2,117.9c-3.4,0-6.1,2.7-6.1,6.1c0,3.4,2.7,6.1,6.1,6.1c39.3,0,71.2,32,71.2,71.2
		c0,39.3-32,71.2-71.2,71.2h-94.6V130h58.2c3.4,0,6.1-2.7,6.1-6.1c0-3.4-2.7-6.1-6.1-6.1H61.1c-3.4,0-6.1,2.7-6.1,6.1
		c0,3.4,2.7,6.1,6.1,6.1h32.3v142.5H61.1c-3.4,0-6.1,2.7-6.1,6.1s2.7,6.1,6.1,6.1h139c46,0,83.4-37.4,83.4-83.4
		C283.5,155.3,246.1,117.9,200.2,117.9z"/>
	<g>
		<path class="st0" d="M328.9,373.5c-58.4,0-112.6-29.1-144.8-77.9c-1.8-2.8-1.1-6.6,1.7-8.4c2.8-1.9,6.6-1.1,8.4,1.7
			c30,45.4,80.4,72.5,134.7,72.5c48.8,0,94.4-21.7,125.2-59.6c2.1-2.6,5.9-3,8.5-0.9c2.6,2.1,3,5.9,0.9,8.5
			C430.5,350.1,381.4,373.5,328.9,373.5z"/>
	</g>
	<g>
		<path class="st0" d="M173.8,269.1c-2.4,0-4.7-1.4-5.6-3.8c-8.5-20.8-12.7-42.8-12.7-65.4c0-95.7,77.8-173.5,173.5-173.5
			c56.1,0,109,27.4,141.6,73.2c1.9,2.7,1.3,6.5-1.4,8.5c-2.7,1.9-6.5,1.3-8.5-1.4c-30.3-42.6-79.5-68.1-131.7-68.1
			c-89,0-161.4,72.4-161.4,161.4c0,21,4,41.5,11.8,60.8c1.3,3.1-0.2,6.6-3.3,7.9C175.3,269,174.6,269.1,173.8,269.1z"/>
	</g>
	<g>
		<path class="st0" d="M336.2,165.3c3,0,5.7,0.5,8.1,1.4c2.4,1,4.5,2.2,6.3,3.8c1.8,1.6,3.2,3.4,4.2,5.5c1,2.1,1.6,4.2,1.8,6.5
			l-6.2,1.2c-0.2,0-0.4,0.1-0.5,0.1c-0.5,0-0.9-0.1-1.4-0.4c-0.4-0.3-0.7-0.7-0.9-1.4c-0.3-1-0.7-2-1.3-3c-0.6-1-1.3-2-2.2-2.9
			c-0.9-0.9-2-1.6-3.3-2.1c-1.3-0.6-2.8-0.8-4.5-0.8c-1.9,0-3.6,0.3-5.1,0.9c-1.5,0.6-2.8,1.4-3.8,2.5s-1.9,2.3-2.5,3.8
			c-0.6,1.4-0.9,3-0.9,4.7c0,1.3,0.2,2.6,0.5,3.8c0.3,1.2,0.8,2.4,1.4,3.6c0.6,1.2,1.5,2.5,2.5,3.8c1,1.3,2.2,2.6,3.6,4.1l23.1,23.5
			c1.4-2.5,2.6-5.1,3.4-7.9c0.8-2.8,1.4-5.5,1.7-8.3c0.1-0.7,0.3-1.3,0.7-1.7c0.4-0.4,0.9-0.6,1.6-0.6h6.2
			c-0.1,4.3-0.8,8.5-2.1,12.7c-1.3,4.2-3.2,8-5.7,11.7l16.8,17.1h-9.7c-1.1,0-2-0.1-2.6-0.4c-0.7-0.3-1.4-0.8-2.2-1.6l-8.1-8.1
			c-3.5,3.4-7.6,6.1-12.2,8.1c-4.6,2-9.6,3-15.1,3c-3,0-5.9-0.5-8.8-1.5c-2.9-1-5.5-2.5-7.7-4.4c-2.3-1.9-4.1-4.3-5.5-7
			c-1.4-2.8-2.1-5.9-2.1-9.4c0-2.6,0.4-5.1,1.3-7.4c0.9-2.3,2.1-4.5,3.6-6.5c1.6-2,3.4-3.8,5.5-5.3c2.1-1.6,4.5-2.9,7-4
			c-2.3-2.9-4-5.7-5.1-8.4c-1.1-2.7-1.6-5.6-1.6-8.5c0-2.7,0.5-5.3,1.5-7.7c1-2.4,2.4-4.5,4.3-6.3c1.9-1.8,4.1-3.2,6.8-4.2
			C329.9,165.9,332.9,165.3,336.2,165.3z M313.9,224.5c0,2.4,0.4,4.6,1.3,6.4s2.1,3.4,3.5,4.7c1.5,1.3,3.1,2.2,5,2.9
			c1.9,0.7,3.8,1,5.7,1c4.2,0,8-0.8,11.3-2.3c3.3-1.5,6.3-3.6,8.8-6.1l-23.8-24c-4,2.1-7,4.7-9,7.7
			C314.9,217.7,313.9,220.9,313.9,224.5z"/>
	</g>
	<g>
		<path class="st0" d="M509.6,286.3c-29.8,0-58-8.7-79.2-24.4c-21.7-16.1-33.7-37.6-33.7-60.7s12-44.6,33.7-60.7
			c21.2-15.7,49.3-24.4,79.2-24.4c8.7,0,17.5,0.8,25.9,2.2c3,0.5,5,3.4,4.5,6.4c-0.5,3-3.4,5-6.4,4.5c-7.8-1.4-15.9-2.1-24-2.1
			c-56.2,0-101.9,33.2-101.9,74.1c0,40.8,45.7,74.1,101.9,74.1c9.7,0,19.4-1,28.6-3c3-0.6,5.9,1.3,6.5,4.2s-1.3,5.9-4.2,6.5
			C530.6,285.2,520.2,286.3,509.6,286.3z"/>
	</g>
	<g>
		<path class="st0" d="M505.3,206.7h-81.9c-3,0-5.5-2.5-5.5-5.5c0-3,2.5-5.5,5.5-5.5h81.9c3,0,5.5,2.5,5.5,5.5
			C510.8,204.3,508.3,206.7,505.3,206.7z"/>
	</g>
</g>
</svg>
