<?xml version="1.0" encoding="utf-8"?>
<!-- Generator: Adobe Illustrator 23.0.0, SVG Export Plug-In . SVG Version: 6.00 Build 0)  -->
<svg version="1.1" id="Layer_1" xmlns="http://www.w3.org/2000/svg" xmlns:xlink="http://www.w3.org/1999/xlink" x="0px" y="0px"
	 viewBox="0 0 256 256" style="enable-background:new 0 0 256 256;" xml:space="preserve">
<style type="text/css">
	.st0{fill:#7B519D;}
	.st1{fill:#F1F2F2;}
</style>
<g>
	<circle class="st0" cx="128" cy="128" r="107.4"/>
	<g>
		<g>
			<g id="g4780">
				<g id="g15" transform="matrix(1.452588,0,0,1.452588,-115.17955,-97.147891)">
					<path id="path17-6" class="st1" d="M196.5,171.2c-2.1-1.7-4.4-3.3-6.7-4.8c-4.5-3.2-8.6-3.4-11.9,1.7c-1.9,2.8-4.5,3-7.3,1.7
						c-7.6-3.4-13.4-8.7-16.9-16.5c-1.5-3.4-1.5-6.5,2.1-8.9c1.9-1.3,3.8-2.8,3.6-5.6c-0.2-3.6-9-15.8-12.5-17.1
						c-1.4-0.5-2.9-0.5-4.3,0c-8.2,2.7-11.6,9.5-8.3,17.4c9.7,23.7,26.7,40.3,50.1,50.4c1.3,0.6,2.8,0.8,3.6,1
						c5.3,0.1,11.6-5.1,13.4-10.2C203,175.5,199.4,173.5,196.5,171.2L196.5,171.2z"/>
					<path id="path19-1" class="st1" d="M170.2,123.3c17.1,2.6,25,10.8,27.2,28c0.2,1.6-0.4,4,1.9,4c2.4,0,1.8-2.3,1.8-3.9
						c0.2-16.3-14-31.3-30.4-31.9c-1.2,0.2-3.8-0.9-4,1.9C166.6,123.4,168.8,123,170.2,123.3L170.2,123.3z"/>
					<path id="path21-2" class="st1" d="M173.5,128c-1.6-0.2-3.8-1-4.2,1.3c-0.4,2.4,2,2.2,3.6,2.5c10.6,2.4,14.3,6.2,16,16.7
						c0.3,1.5-0.3,3.9,2.3,3.5c1.9-0.3,1.2-2.3,1.4-3.5C192.8,138.4,184.1,129.3,173.5,128L173.5,128z"/>
					<path id="path23" class="st1" d="M174.5,136.2c-1.1,0-2.2,0.1-2.6,1.3c-0.6,1.8,0.7,2.2,2,2.4c4.3,0.7,6.6,3.3,7.1,7.6
						c0.1,1.2,0.9,2.1,2,2c1.6-0.2,1.7-1.6,1.7-2.9C184.7,141.7,179.2,136.1,174.5,136.2L174.5,136.2z"/>
				</g>
			</g>
		</g>
	</g>
</g>
</svg>
