<?xml version="1.0" encoding="utf-8"?>
<!-- Generator: Adobe Illustrator 23.0.0, SVG Export Plug-In . SVG Version: 6.00 Build 0)  -->
<svg version="1.1" id="Layer_1" xmlns="http://www.w3.org/2000/svg" xmlns:xlink="http://www.w3.org/1999/xlink" x="0px" y="0px"
	 viewBox="0 0 256 256" style="enable-background:new 0 0 256 256;" xml:space="preserve">
<style type="text/css">
	.st0{fill:#279127;}
	.st1{fill:none;}
	.st2{fill:#FFFFFF;}
</style>
<circle class="st0" cx="128" cy="128" r="107.4"/>
<g>
	<g>
		<path class="st1" d="M128,60.2c-37.4,0-67.8,30.3-67.8,67.8c0,15.7,5.4,30.2,14.4,41.7L70.1,193l22-7.6
			c10.4,6.5,22.7,10.4,35.9,10.4c37.4,0,67.8-30.3,67.8-67.8C195.7,90.5,165.4,60.2,128,60.2z"/>
		<path class="st2" d="M128,201.2c-12.8,0-25.4-3.4-36.5-9.8l-28.6,9.8l5.9-30.2c-9.2-12.6-14-27.4-14-43
			c0-40.4,32.8-73.2,73.2-73.2s73.2,32.8,73.2,73.2C201.2,168.3,168.3,201.2,128,201.2z M92.8,179.4l2.2,1.4
			c9.9,6.2,21.4,9.5,33,9.5c34.4,0,62.3-28,62.3-62.3c0-34.4-28-62.3-62.3-62.3c-34.4,0-62.3,28-62.3,62.3c0,14,4.6,27.2,13.2,38.3
			l1.5,2l-3.2,16.5L92.8,179.4z"/>
	</g>
	<path class="st2" d="M91,99.8c0,0,4.3-7.5,7.8-7.9s8-0.4,9.2,1.9s6.6,15.6,6.6,15.6s0.9,2.3-0.5,4.5c-1.4,2.2-4.6,5.4-4.6,5.4
		s-1.8,2.3,0,4.7s4.6,6.9,10.3,12.6c5.7,5.7,16.7,9.8,16.7,9.8s1.6,0.2,2.6-0.8s6.4-7.8,6.4-7.8s1.7-2.3,4.6-0.9
		c2.9,1.3,15.4,7.6,15.4,7.6s1.5,0.5,1.5,2.8c0,2.2-0.9,7.6-2.7,9.5c-1.8,1.8-7.2,7.5-15.3,7.5s-27.2-6.6-37.5-16.8
		c-10.2-10.2-19.3-20.6-21.4-30C88.1,108,88.4,103.7,91,99.8z"/>
</g>
</svg>
